<?xml version="1.0" standalone="no"?>
<!DOCTYPE svg PUBLIC "-//W3C//DTD SVG 20010904//EN"
 "http://www.w3.org/TR/2001/REC-SVG-20010904/DTD/svg10.dtd">
<svg version="1.0" xmlns="http://www.w3.org/2000/svg"
 width="1125.000000pt" height="2000.000000pt" viewBox="0 0 1125.000000 2000.000000"
 preserveAspectRatio="xMidYMid meet">

<g transform="translate(0.000000,2000.000000) scale(0.100000,-0.100000)"
fill="#000000" stroke="none">
<path d="M5733 15184 c-44 -22 -45 -57 -3 -76 29 -13 40 -28 20 -28 -18 0
-172 -72 -225 -105 -27 -17 -66 -37 -85 -45 -19 -7 -63 -26 -98 -42 -34 -15
-65 -28 -68 -28 -8 0 -161 -75 -211 -103 -125 -71 -323 -248 -413 -370 -78
-106 -90 -120 -90 -103 0 36 -63 14 -224 -78 -48 -28 -217 -140 -246 -163 -8
-7 -33 -26 -55 -43 -22 -17 -77 -67 -121 -111 -45 -43 -87 -79 -94 -79 -7 0
-34 20 -60 43 -116 105 -399 207 -571 207 -37 0 -91 5 -120 11 -124 24 -279 7
-499 -57 -69 -19 -150 -42 -180 -50 -30 -8 -66 -21 -80 -29 -14 -8 -42 -23
-63 -35 -38 -21 -46 -37 -26 -57 8 -8 -16 -36 -82 -99 -184 -177 -219 -216
-287 -319 -80 -119 -212 -381 -237 -470 -10 -33 -22 -71 -28 -85 -5 -14 -12
-82 -15 -153 -6 -149 9 -228 64 -349 31 -67 37 -91 41 -176 l6 -99 -35 -37
c-112 -118 -252 -491 -288 -766 -8 -55 -23 -111 -45 -160 -63 -142 -127 -315
-153 -410 -30 -113 -36 -284 -13 -365 18 -62 57 -143 83 -172 11 -12 20 -32
20 -45 -1 -23 -40 -185 -65 -263 -8 -26 -12 -107 -12 -230 0 -217 10 -266 71
-356 37 -52 91 -109 106 -109 4 0 11 -12 14 -27 10 -44 57 -126 83 -148 36
-30 101 -65 118 -65 9 0 41 -17 72 -38 31 -21 72 -44 91 -52 19 -7 54 -26 77
-42 67 -45 253 -73 360 -53 54 10 73 -5 73 -54 -1 -52 2 -71 12 -71 4 0 8 -9
8 -19 0 -28 29 -52 59 -51 14 1 45 2 69 1 l42 -1 0 -47 c0 -92 10 -122 48
-148 32 -22 35 -29 38 -77 3 -59 17 -116 64 -258 28 -85 31 -104 27 -180 -3
-47 -15 -121 -27 -165 -31 -114 -37 -285 -16 -455 35 -285 106 -556 171 -648
18 -26 59 -96 90 -157 82 -160 86 -164 192 -253 190 -157 307 -267 314 -294 4
-15 12 -33 18 -40 7 -7 17 -21 24 -30 7 -11 30 -20 57 -23 45 -6 70 -15 170
-65 30 -15 93 -39 140 -54 130 -41 256 -107 349 -183 147 -120 184 -143 438
-274 109 -56 258 -157 277 -187 21 -35 101 -99 160 -129 28 -14 121 -50 206
-80 139 -49 167 -56 275 -63 66 -5 147 -12 181 -16 56 -6 63 -4 83 17 23 24
24 60 6 115 -6 19 0 24 42 39 48 18 189 77 338 142 115 50 223 101 453 215
175 86 207 105 224 135 15 25 23 31 29 22 6 -10 11 -6 18 12 5 15 26 36 46 48
43 25 63 28 45 6 -24 -29 -2 -27 64 4 37 17 69 31 72 31 3 0 35 19 70 42 65
43 77 65 49 88 -9 7 -14 19 -11 27 3 7 1 13 -4 13 -17 0 -105 -32 -110 -41 -3
-4 -30 -23 -60 -41 -130 -80 -160 -100 -160 -109 0 -5 -22 -9 -48 -9 -38 0
-59 -7 -102 -35 -30 -20 -66 -38 -80 -41 -14 -3 -48 -14 -75 -25 -28 -10 -54
-19 -59 -19 -4 0 -39 -10 -78 -21 -71 -22 -99 -44 -203 -160 -52 -58 -87 -78
-160 -94 -16 -3 -46 -16 -65 -29 -46 -29 -121 -59 -129 -50 -3 4 0 9 7 11 18
7 14 58 -6 77 -15 13 -18 25 -12 61 4 25 8 48 8 50 1 3 2 21 2 40 0 21 8 43
20 55 17 17 60 91 60 105 0 3 -14 5 -31 5 -22 0 -39 -9 -57 -29 -18 -22 -30
-28 -41 -22 -9 5 -39 12 -67 16 -48 6 -52 5 -58 -17 -12 -48 -8 -56 37 -63 43
-7 77 -29 77 -50 0 -6 -29 -19 -65 -30 -35 -10 -62 -22 -58 -27 3 -6 -4 -23
-16 -39 -40 -54 -14 -101 44 -79 38 14 40 13 53 -23 7 -19 23 -39 38 -45 32
-15 24 -28 -26 -43 -27 -8 -40 -18 -40 -30 0 -15 -44 -39 -71 -39 -8 0 -33 41
-45 73 -8 23 -61 23 -87 0 -15 -14 -38 -18 -113 -19 -52 0 -94 2 -94 6 0 3
-21 11 -47 19 -27 7 -58 17 -71 22 -13 5 -38 9 -57 9 -43 0 -65 9 -65 25 0 14
-86 66 -130 80 -14 4 -27 11 -30 15 -11 16 -187 99 -225 106 -22 4 -52 17 -68
30 l-27 23 32 3 c26 2 37 11 55 43 20 35 27 40 60 40 30 0 40 5 52 27 17 30
16 33 -19 42 -14 3 -19 3 -12 0 24 -11 3 -19 -43 -16 -41 4 -44 5 -28 18 17
13 17 15 -1 29 -36 28 -70 19 -94 -24 -18 -32 -29 -40 -55 -43 -24 -2 -33 -8
-35 -25 -2 -13 -8 -23 -13 -23 -12 0 -49 37 -49 50 0 15 -138 150 -153 150 -8
0 -45 20 -83 45 -66 43 -104 56 -104 36 0 -19 -172 -5 -220 17 -57 26 -150
109 -201 179 -22 29 -59 65 -82 80 -23 14 -62 45 -87 69 -25 23 -61 55 -80 70
-19 16 -37 31 -40 35 -3 3 -41 32 -85 64 -113 84 -213 189 -259 277 -22 40
-53 87 -68 103 -35 37 -98 165 -133 266 -14 42 -41 152 -61 245 -29 143 -36
197 -41 349 l-6 180 34 133 c33 131 33 134 17 180 -12 35 -14 60 -8 97 7 43 3
64 -25 150 -19 55 -41 143 -49 195 -14 86 -14 96 1 112 14 16 14 23 0 80 -15
60 -13 112 7 158 3 8 10 72 15 141 5 82 14 138 25 159 9 18 16 45 16 59 l1 26
19 -24 c11 -13 20 -29 20 -36 0 -7 15 -46 34 -86 18 -41 44 -98 57 -127 13
-30 39 -67 58 -84 43 -38 127 -78 163 -78 34 0 198 -38 212 -49 16 -11 108
-30 204 -41 45 -5 91 -14 103 -20 11 -6 54 -18 95 -26 42 -8 79 -16 83 -18 11
-7 232 -34 341 -42 52 -3 106 -8 120 -9 165 -20 315 -15 457 15 70 15 173 79
196 121 10 19 31 48 46 64 15 17 49 65 75 108 26 42 63 89 82 103 39 31 45 71
14 99 -19 17 -19 18 0 68 11 28 25 54 32 59 7 5 83 8 168 7 157 -2 338 5 421
16 l45 6 17 -60 c9 -33 17 -67 17 -74 0 -47 108 -269 157 -322 56 -60 163
-194 163 -203 0 -22 111 -64 198 -74 141 -16 411 -20 569 -9 307 23 663 77
672 102 4 14 17 24 89 69 98 63 139 80 200 88 49 6 59 11 70 35 8 17 33 37 64
52 54 26 145 82 166 102 12 12 17 14 40 13 4 0 7 -19 7 -42 0 -36 3 -43 25
-48 46 -11 55 -49 42 -182 -9 -103 -9 -125 6 -171 20 -64 20 -217 -1 -329 -9
-51 -11 -96 -6 -130 4 -29 13 -98 20 -153 7 -55 18 -111 24 -125 9 -17 10 -33
3 -50 -5 -14 -14 -68 -19 -120 -4 -52 -19 -153 -33 -225 -13 -71 -30 -166 -36
-209 -7 -43 -23 -113 -36 -154 -14 -42 -36 -118 -49 -169 -27 -104 -62 -186
-95 -223 -12 -14 -32 -36 -44 -50 -11 -14 -37 -33 -56 -42 -19 -9 -57 -41 -84
-70 -27 -29 -112 -117 -189 -195 -122 -125 -151 -149 -231 -191 -50 -27 -92
-56 -94 -65 -2 -8 10 -23 27 -33 17 -10 31 -27 33 -38 3 -19 9 -21 61 -18 44
2 57 -1 57 -12 0 -8 -4 -18 -10 -21 -17 -10 -11 -55 8 -62 9 -4 22 -13 28 -21
18 -24 94 13 166 81 33 31 65 57 69 57 10 0 23 49 45 175 20 119 26 133 62
141 39 9 142 89 142 111 0 6 56 78 84 108 57 62 129 170 152 230 28 76 95 327
124 470 37 180 58 292 70 375 15 102 9 282 -14 430 -18 119 -46 367 -46 411 0
43 18 35 43 -18 12 -27 31 -61 42 -78 12 -16 26 -43 33 -58 11 -25 17 -28 49
-25 25 2 42 11 56 30 17 23 19 32 9 70 -14 56 -25 205 -14 193 13 -14 30 -89
37 -160 9 -79 26 -105 69 -105 26 0 41 8 61 32 27 32 27 33 23 167 l-3 136 35
17 c46 23 50 22 50 -6 0 -34 27 -58 54 -50 62 19 61 18 80 113 16 77 17 100 7
151 -10 50 -9 68 4 112 22 75 19 115 -10 150 -14 16 -25 40 -25 53 0 13 -4 34
-9 47 -4 13 -12 57 -15 99 -7 75 -7 77 21 103 15 14 34 26 41 26 34 0 180 135
287 265 28 33 62 74 78 90 51 55 176 231 232 329 72 124 109 228 125 347 11
84 10 103 -4 150 -31 103 -70 118 -81 32 -23 -192 -69 -342 -123 -408 l-25
-30 8 35 c4 19 18 58 31 85 32 67 38 222 10 274 -17 32 -17 49 -1 146 1 6 3
29 3 53 2 34 6 44 25 51 89 34 78 199 -26 394 -33 61 -42 86 -71 197 -29 113
-44 156 -70 211 -27 55 -28 59 -17 130 9 57 21 87 50 132 44 67 45 66 96 -36
49 -98 85 -102 85 -9 0 64 -25 140 -72 217 -125 208 -286 368 -446 442 -66 31
-73 37 -67 56 23 71 4 178 -45 247 -18 25 -19 34 -9 79 10 46 12 50 30 40 41
-21 89 14 89 66 0 48 -14 79 -65 142 -25 30 -45 62 -45 70 0 9 16 33 34 54 47
52 62 107 48 186 -13 83 -50 160 -98 206 -42 41 -204 152 -269 185 -23 11 -59
40 -82 65 -38 41 -82 77 -128 104 -46 27 -263 131 -295 142 -90 29 -180 51
-208 51 -18 0 -49 6 -69 14 -21 8 -72 19 -113 26 -41 7 -97 23 -124 36 -28 13
-60 24 -73 24 -13 0 -23 5 -23 10 0 6 -5 10 -11 10 -5 0 -7 -4 -4 -10 3 -5 -1
-10 -10 -10 -12 0 -15 6 -10 20 4 13 2 20 -7 20 -10 0 -9 3 2 10 23 15 -1 26
-71 34 -33 4 -81 14 -107 22 -26 8 -92 17 -147 20 -94 6 -153 24 -141 43 3 4
-17 14 -44 21 -53 15 -60 25 -75 115 -16 102 -65 218 -130 309 -88 122 -170
194 -264 231 -33 13 -75 34 -93 48 -18 13 -46 27 -63 31 -16 4 -68 26 -115 48
-81 40 -91 42 -210 49 -69 4 -159 15 -200 23 -95 20 -166 20 -207 0z m182
-404 l30 -20 -35 0 c-23 0 -42 7 -53 20 -16 19 -16 20 6 20 12 0 36 -9 52 -20z
m844 -57 c42 -49 51 -73 28 -73 -24 0 -87 79 -87 109 0 22 19 10 59 -36z
m-511 26 c40 -10 61 -26 147 -114 75 -76 109 -120 133 -171 19 -38 38 -77 43
-86 14 -27 11 -38 -11 -38 -11 0 -20 4 -20 9 0 5 -31 40 -70 79 -45 45 -70 78
-70 92 0 52 -77 134 -164 176 -27 13 -55 24 -60 24 -20 0 -39 18 -32 29 9 14
45 14 104 0z m-524 -18 c36 -17 37 -20 20 -29 -11 -6 -53 -20 -94 -31 -129
-34 -262 -76 -333 -105 -70 -28 -107 -27 -65 2 13 9 36 28 51 42 28 24 56 40
164 95 91 46 193 56 257 26z m140 -187 c9 -3 16 -10 16 -15 0 -10 -41 -12 -65
-3 -13 5 -14 8 -3 15 16 10 31 11 52 3z m236 -30 c53 -21 52 -38 -2 -29 -65
10 -78 15 -78 31 0 18 30 18 80 -2z m700 -46 c0 -13 -23 -5 -28 10 -2 7 2 10
12 6 9 -3 16 -11 16 -16z m-1085 -132 c9 -19 23 -37 31 -40 24 -9 15 -26 -13
-26 -63 0 -212 -34 -266 -62 -51 -25 -63 -28 -89 -19 -17 6 -44 11 -59 11 -15
0 -30 4 -34 9 -6 10 46 51 64 51 6 0 11 5 11 10 0 6 8 10 18 10 10 0 22 4 28
8 26 24 114 52 136 43 13 -4 42 -11 66 -15 42 -6 44 -5 55 24 15 39 32 38 52
-4z m232 -62 c-3 -3 -12 -4 -19 -1 -8 3 -5 6 6 6 11 1 17 -2 13 -5z m1120 -36
c6 -61 13 -76 48 -97 19 -11 35 -27 35 -35 0 -19 -55 -30 -88 -18 -15 6 -49
13 -75 17 -40 5 -50 11 -58 32 -14 37 -4 57 24 48 12 -4 31 -8 42 -8 11 -1 26
-6 33 -11 11 -6 13 -1 12 20 -3 34 10 97 18 89 3 -3 7 -20 9 -37z m-1040 26
c-3 -3 -12 -4 -19 -1 -8 3 -5 6 6 6 11 1 17 -2 13 -5z m-1477 -28 c0 -3 -4 -8
-10 -11 -5 -3 -10 -1 -10 4 0 6 5 11 10 11 6 0 10 -2 10 -4z m2350 -21 c7 -9
10 -18 7 -21 -11 -11 -57 6 -57 21 0 20 34 19 50 0z m-280 -51 c0 -24 -17 -24
-40 1 -29 30 -18 51 16 29 13 -9 24 -22 24 -30z m711 32 c21 -9 52 -12 80 -9
53 6 89 -9 89 -37 0 -16 -7 -20 -33 -20 -18 0 -38 -5 -44 -11 -7 -7 -18 -8
-29 -2 -11 5 -46 8 -79 7 -68 -3 -175 14 -175 27 0 5 6 9 13 9 7 0 23 9 34 19
11 11 38 21 59 24 22 2 42 4 45 5 4 1 22 -4 40 -12z m-509 -13 c10 -9 18 -21
18 -28 0 -6 13 -31 29 -56 25 -41 27 -47 14 -65 -14 -18 -15 -18 -41 12 -27
31 -100 58 -128 47 -8 -3 -17 2 -20 11 -7 18 -30 22 -36 5 -2 -5 -11 -7 -21
-4 -18 8 -23 40 -7 50 6 3 10 -3 10 -14 0 -12 5 -21 11 -21 6 0 9 7 6 15 -4 8
-3 17 2 19 12 8 81 -13 81 -24 0 -6 9 -10 20 -10 23 0 26 10 8 28 -9 9 -9 12
2 12 7 0 10 3 7 7 -7 6 10 33 21 33 3 0 14 -7 24 -17z m604 -109 c19 -15 34
-30 34 -35 0 -13 -94 -11 -108 3 -9 9 -18 9 -38 -1 -15 -6 -27 -10 -28 -9 -18
44 -41 58 -48 30 -6 -22 -63 -35 -78 -17 -26 32 31 53 148 54 75 1 87 -2 118
-25z m-1445 6 c58 -6 130 -19 160 -29 l54 -20 -60 -1 c-33 0 -91 -5 -130 -11
-38 -5 -88 -12 -111 -16 -33 -4 -49 0 -82 21 -23 14 -47 26 -53 26 -6 0 -9 6
-7 13 4 10 39 19 108 25 8 1 63 -3 121 -8z m-691 -18 c19 -8 1 -10 -73 -7 -63
1 -103 7 -110 15 -10 10 5 11 73 7 47 -3 96 -10 110 -15z m2385 -2 c3 -5 -3
-10 -14 -10 -12 0 -21 5 -21 10 0 6 6 10 14 10 8 0 18 -4 21 -10z m-3175 -100
c13 -25 -7 -39 -108 -75 -78 -28 -250 -111 -314 -152 -22 -13 -45 -22 -51 -20
-11 3 41 62 74 82 9 6 41 26 70 46 46 30 153 85 249 127 39 17 68 14 80 -8z
m246 3 c-24 -87 -23 -120 6 -176 13 -26 16 -42 9 -50 -5 -7 -48 -26 -95 -42
-81 -28 -87 -29 -133 -15 -26 7 -72 15 -101 18 -34 2 -52 8 -50 15 5 16 119
71 188 91 30 9 71 25 90 34 33 16 35 20 32 61 -3 30 2 48 14 62 22 24 47 25
40 2z m2878 1 c9 -3 16 -17 16 -30 0 -19 -5 -24 -27 -24 -23 0 -108 26 -123
37 -21 17 96 32 134 17z m-4259 -55 c38 -12 89 -30 112 -40 24 -11 46 -19 51
-19 13 0 82 -50 82 -60 0 -5 -32 -9 -72 -9 -69 1 -77 3 -168 56 -113 67 -121
73 -114 84 8 14 32 11 109 -12z m1795 1 c24 -7 24 -8 5 -16 -11 -4 -26 -14
-33 -21 -7 -7 -21 -13 -31 -13 -9 0 -22 -5 -28 -11 -6 -6 -16 -8 -22 -5 -15
10 -14 63 2 69 18 8 78 6 107 -3z m-2165 -38 c138 -35 192 -58 229 -95 16 -15
15 -17 -6 -22 -213 -49 -313 -69 -413 -84 -153 -24 -195 -39 -215 -78 -8 -18
-34 -41 -60 -54 -25 -13 -73 -52 -108 -86 -34 -35 -67 -63 -72 -63 -5 0 -15
-6 -22 -12 -7 -7 -36 -28 -63 -47 -46 -31 -184 -165 -229 -221 -36 -45 -132
-185 -148 -215 -8 -17 -29 -55 -47 -85 -17 -30 -49 -103 -72 -162 -23 -60 -45
-108 -50 -108 -13 0 -22 86 -15 148 15 127 76 305 149 442 41 77 55 90 92 90
l33 0 4 63 c4 62 22 97 95 188 44 54 89 105 100 112 7 4 18 13 25 20 7 7 36
28 63 47 28 18 52 37 55 40 13 17 269 140 345 166 162 54 177 55 330 16z
m3331 6 c-11 -6 -37 -7 -64 -2 -44 7 -45 8 -17 13 17 4 45 5 64 2 28 -3 31 -5
17 -13z m-1418 0 c14 -14 16 -57 4 -76 -11 -17 -62 29 -62 57 0 29 36 41 58
19z m1978 -43 c9 -23 -5 -65 -21 -65 -23 0 -85 33 -85 45 0 34 94 52 106 20z
m963 -60 c16 -27 27 -35 49 -35 47 0 121 -30 127 -52 9 -26 -13 -41 -86 -57
-72 -16 -90 -11 -87 27 1 15 -8 44 -20 64 -22 36 -30 88 -13 88 5 0 18 -16 30
-35z m-738 -52 l33 -38 -32 -3 c-38 -4 -95 26 -100 52 -5 23 28 47 49 35 9 -4
31 -25 50 -46z m-663 -92 c3 -16 -1 -22 -10 -19 -7 3 -15 15 -16 27 -3 16 1
22 10 19 7 -3 15 -15 16 -27z m-2224 -44 c23 -16 13 -22 -57 -32 -48 -7 -68 5
-47 30 16 19 80 19 104 2z m-646 -30 c44 -2 56 -15 22 -24 -26 -7 -25 -13 7
-43 l26 -25 -63 -5 c-76 -6 -91 -21 -71 -75 11 -32 10 -42 -15 -105 -15 -39
-33 -75 -40 -81 -9 -7 -40 -6 -106 5 -51 9 -127 18 -168 21 -41 3 -88 9 -105
14 -28 8 -27 9 25 15 30 4 98 8 150 9 91 2 95 3 110 29 13 25 13 29 -2 44 -17
17 -95 51 -195 85 -35 11 -66 25 -69 31 -9 15 31 52 73 67 21 7 52 19 68 26
17 7 37 16 45 19 8 3 71 3 140 0 69 -3 144 -7 168 -7z m4231 -102 c13 -53 14
-95 2 -95 -17 0 -28 26 -35 77 -4 28 -13 69 -22 90 l-14 38 29 -34 c16 -18 34
-53 40 -76z m-4899 80 c-13 -16 -60 -21 -60 -6 0 12 18 19 49 20 20 1 21 -1
11 -14z m4510 -6 c0 -5 -4 -9 -10 -9 -5 0 -10 7 -10 16 0 8 5 12 10 9 6 -3 10
-10 10 -16z m17 -25 c-3 -3 -12 -4 -19 -1 -8 3 -5 6 6 6 11 1 17 -2 13 -5z
m208 -54 c3 -5 -1 -10 -9 -10 -9 0 -16 5 -16 10 0 6 4 10 9 10 6 0 13 -4 16
-10z m-3037 -37 c5 -31 -33 -55 -64 -41 -32 15 -30 34 4 52 35 20 56 16 60
-11z m1456 18 c7 -11 -3 -41 -14 -41 -11 0 -21 30 -14 41 3 5 9 9 14 9 5 0 11
-4 14 -9z m530 -18 c53 -68 78 -133 49 -133 -6 0 -51 84 -81 153 -8 17 12 5
32 -20z m-1266 -16 c2 -12 -3 -17 -17 -17 -12 0 -21 6 -21 13 0 31 32 34 38 4z
m-905 7 c7 -7 -12 -64 -22 -64 -15 0 -29 23 -23 39 9 25 32 38 45 25z m4533
-26 c29 -35 44 -75 44 -118 0 -62 -16 -47 -41 35 -12 42 -26 78 -31 81 -10 7
-11 24 0 24 5 0 17 -10 28 -22z m-6206 -12 c0 -32 -10 -38 -115 -78 -126 -47
-274 -138 -321 -196 -46 -57 -109 -118 -148 -142 -15 -10 -48 -37 -72 -60 -25
-24 -48 -40 -51 -36 -24 23 150 243 280 353 87 73 324 181 405 182 17 1 22 -5
22 -23z m4457 -12 c-3 -3 -12 -4 -19 -1 -8 3 -5 6 6 6 11 1 17 -2 13 -5z
m-2467 -83 c0 -13 -26 -32 -33 -24 -8 7 11 33 24 33 5 0 9 -4 9 -9z m1508 -10
c10 -6 10 -10 -2 -20 -17 -14 -36 -7 -36 15 0 15 18 18 38 5z m2536 -14 c8 -7
17 -24 21 -37 l7 -25 -26 24 c-14 14 -26 30 -26 38 0 16 8 17 24 0z m-2524
-66 c14 -28 12 -61 -4 -61 -16 0 -41 54 -31 69 10 17 23 13 35 -8z m250 -21
c22 -22 25 -36 10 -45 -12 -7 -50 30 -50 50 0 21 16 19 40 -5z m-1217 -15 c29
-27 36 -55 14 -55 -17 0 -79 64 -71 73 13 13 29 7 57 -18z m1701 -35 c-6 -6
-28 -13 -50 -16 -37 -5 -38 -4 -20 10 22 18 87 23 70 6z m-3724 -21 c90 -14
108 -31 70 -69 -11 -11 -20 -29 -20 -40 0 -14 -11 -22 -42 -30 -24 -6 -54 -15
-68 -20 -20 -6 -76 -7 -122 -1 -5 1 -8 10 -8 21 0 43 -34 60 -117 60 -186 0
-331 -84 -513 -299 -25 -29 -53 -63 -63 -75 -10 -11 -26 -33 -35 -48 -9 -16
-20 -28 -24 -28 -4 0 -8 -6 -8 -14 0 -8 -4 -16 -8 -18 -5 -1 -25 -31 -47 -65
-33 -55 -42 -63 -69 -63 -17 0 -52 -7 -78 -14 -25 -8 -49 -12 -52 -9 -10 10
-7 51 4 58 6 3 10 14 10 23 0 26 103 232 141 282 19 25 46 63 61 85 43 65 82
101 134 125 86 38 202 79 271 95 38 8 115 26 173 40 91 21 121 23 225 19 66
-3 149 -10 185 -15z m2350 12 c0 -6 -4 -13 -10 -16 -5 -3 -10 1 -10 9 0 9 5
16 10 16 6 0 10 -4 10 -9z m1255 -39 c5 -12 24 -27 42 -33 37 -12 42 -32 16
-61 -25 -28 -54 -21 -100 23 -49 46 -52 61 -20 84 28 20 49 16 62 -13z m-871
-11 c3 -4 3 -32 -1 -60 -7 -63 -23 -49 -23 22 0 43 11 60 24 38z m2050 -38
c-4 -16 -13 -35 -20 -43 -12 -12 -14 -12 -14 5 0 36 12 65 26 65 11 0 13 -8 8
-27z m-166 -32 c5 -29 -17 -101 -30 -101 -11 0 -40 15 -92 47 -37 24 -38 25
-17 39 30 21 93 43 116 41 13 -1 21 -11 23 -26z m346 -14 c36 -47 33 -61 -16
-74 -59 -16 -67 2 -37 85 12 30 24 28 53 -11z m-2504 -1 c0 -8 -11 -37 -25
-64 -14 -28 -25 -55 -25 -61 0 -6 -4 -11 -10 -11 -16 0 -12 36 13 95 20 51 47
74 47 41z m-282 -13 c-5 -25 -28 -28 -28 -4 0 12 6 21 16 21 9 0 14 -7 12 -17z
m1182 -3 c11 -11 20 -31 20 -45 0 -22 -4 -25 -35 -25 -19 0 -35 3 -36 8 0 4
-3 18 -5 32 -9 51 19 67 56 30z m-699 -31 c34 -24 38 -62 10 -98 l-18 -23 -16
33 c-8 19 -18 51 -22 72 -8 43 2 47 46 16z m1387 -4 c62 -8 71 -21 48 -70 -22
-46 -31 -50 -71 -31 -18 9 -47 19 -64 22 -32 7 -46 31 -36 63 6 20 29 31 55
25 8 -1 39 -6 68 -9z m-1016 -12 c21 -25 9 -69 -18 -65 -24 5 -34 20 -34 55 0
32 28 37 52 10z m-3382 -29 c-25 -7 -57 -20 -72 -29 -14 -8 -32 -15 -40 -15
-17 1 60 43 86 47 11 2 22 6 25 8 2 3 14 5 25 4 12 -1 1 -7 -24 -15z m3640
-12 c25 -20 20 -42 -9 -42 -22 0 -41 19 -41 42 0 23 22 23 50 0z m-431 -34 c5
-15 4 -26 -2 -30 -17 -10 -27 0 -27 28 0 30 18 31 29 2z m-2792 -35 c4 -11
-77 -73 -96 -73 -37 0 -16 50 31 73 36 18 59 18 65 0z m1053 -3 c0 -5 -2 -10
-4 -10 -3 0 -8 5 -11 10 -3 6 -1 10 4 10 6 0 11 -4 11 -10z m472 -52 c26 -27
48 -56 48 -65 0 -26 137 -149 204 -182 64 -31 129 -40 142 -20 11 18 76 4 149
-32 63 -31 73 -33 159 -30 104 2 218 29 321 76 39 17 86 38 105 45 19 7 39 17
45 22 5 4 17 8 27 8 10 0 18 4 18 8 0 4 30 23 68 42 37 18 109 58 160 88 101
59 137 69 276 78 50 3 93 7 96 9 8 5 69 -24 99 -47 36 -28 66 -23 81 12 20 49
64 51 181 10 75 -26 112 -56 105 -84 -3 -11 6 -33 24 -55 24 -29 29 -45 27
-83 -2 -43 1 -50 37 -81 37 -34 98 -58 258 -102 53 -15 61 -22 106 -83 27 -37
54 -77 60 -89 7 -12 18 -27 24 -35 7 -7 33 -42 57 -78 25 -36 48 -67 51 -70 3
-3 17 -21 30 -40 14 -19 33 -44 43 -55 22 -24 33 -63 21 -75 -17 -15 -54 10
-81 55 -31 49 -65 68 -100 52 -19 -8 -23 -18 -23 -58 0 -44 3 -50 53 -95 29
-27 71 -58 92 -69 63 -32 71 -43 41 -57 -20 -9 -26 -18 -26 -45 0 -18 4 -33 8
-33 5 0 14 -10 21 -22 6 -13 20 -36 31 -53 11 -16 26 -44 34 -60 22 -46 97
-166 149 -237 63 -85 181 -184 246 -205 40 -13 53 -22 58 -42 3 -14 -10 -106
-31 -215 -28 -138 -36 -202 -32 -237 4 -25 8 -116 11 -200 5 -172 -6 -237 -43
-254 -24 -11 -24 -30 -1 -30 9 0 16 -15 19 -45 3 -25 9 -51 14 -58 19 -30 25
-145 10 -186 -8 -23 -17 -72 -21 -109 -3 -37 -9 -69 -12 -71 -3 -2 -33 7 -66
20 -76 31 -208 51 -495 75 -128 10 -195 7 -287 -13 -44 -9 -59 -8 -95 5 -58
22 -156 22 -315 -2 -91 -14 -141 -17 -173 -11 -103 20 -421 -2 -567 -39 -45
-12 -99 -21 -121 -21 -22 0 -70 -6 -108 -14 -38 -8 -97 -21 -132 -28 -83 -16
-130 -44 -164 -95 -24 -35 -38 -45 -86 -59 -124 -36 -173 -44 -327 -50 l-160
-6 -70 46 c-38 25 -79 46 -91 46 -12 0 -45 11 -73 25 -54 28 -94 36 -281 60
-137 18 -247 35 -415 64 -60 11 -157 24 -215 30 -58 6 -170 18 -250 26 -80 8
-219 17 -310 20 -157 4 -311 15 -410 30 -30 5 -97 -2 -204 -20 -171 -28 -206
-27 -206 6 0 11 -4 18 -9 14 -6 -3 -15 3 -20 14 -14 26 -14 101 0 101 6 0 8
15 4 43 -3 25 2 82 14 142 10 55 17 114 15 130 -8 49 -44 235 -60 305 -8 36
-17 144 -21 242 -6 166 -5 181 18 260 13 45 26 85 30 88 3 3 20 37 38 75 18
39 37 72 41 75 4 3 17 24 29 47 12 24 35 64 51 90 17 26 30 56 30 67 1 28 73
166 131 252 26 38 53 87 60 109 16 45 74 136 133 210 76 92 235 235 262 235 8
0 14 4 14 10 0 5 9 14 20 20 11 6 20 7 20 2 0 -4 -9 -18 -20 -30 -11 -12 -20
-25 -20 -30 0 -5 -12 -20 -27 -34 -77 -69 -186 -198 -268 -317 -27 -39 -76
-108 -107 -154 -32 -45 -62 -87 -67 -94 -20 -23 -51 -78 -51 -90 0 -27 33 -11
75 35 25 26 45 51 45 55 0 5 24 36 53 71 28 34 61 80 72 101 11 22 22 42 25
45 10 10 90 136 90 143 0 3 24 30 53 60 68 71 107 119 107 133 0 6 28 40 61
75 171 179 243 249 254 249 6 0 25 15 42 33 67 70 121 114 185 147 61 32 68
33 93 20 21 -12 30 -12 47 -1 11 7 45 14 75 16 43 2 59 8 78 29 13 14 31 27
40 28 8 0 20 1 27 2 7 1 15 -10 18 -24 4 -18 13 -26 34 -28 16 -2 40 -11 53
-19 22 -15 25 -14 38 3 22 29 18 47 -15 74 -36 29 -33 56 7 66 18 5 32 0 51
-18 15 -14 37 -28 49 -31 30 -7 61 17 65 51 3 23 8 28 43 32 112 14 126 11
177 -42z m980 -149 c-17 -16 -60 -18 -72 -4 -16 19 -3 114 19 139 15 17 17 14
38 -55 13 -40 19 -76 15 -80z m-524 32 c17 -54 8 -72 -31 -64 -52 9 -61 24
-42 69 28 67 53 65 73 -5z m2517 7 c43 -49 62 -85 51 -96 -8 -7 -68 55 -108
111 -19 27 -19 27 0 27 11 0 36 -19 57 -42z m768 21 c45 -15 48 -38 8 -62 -41
-24 -50 -22 -67 19 -16 39 -12 69 9 60 6 -2 29 -10 50 -17z m-5483 -3 c0 -2
-7 -7 -16 -10 -8 -3 -12 -2 -9 4 6 10 25 14 25 6z m2530 -106 c0 -5 -4 -10
-10 -10 -5 0 -10 5 -10 10 0 6 5 10 10 10 6 0 10 -4 10 -10z m2794 -40 c-14
-14 -39 14 -29 31 5 8 12 6 23 -5 11 -11 13 -19 6 -26z m-5369 -53 c17 -13 15
-17 -27 -55 -60 -55 -119 -102 -129 -102 -4 0 -12 6 -16 13 -4 7 -23 23 -41
36 -18 13 -32 27 -30 32 5 16 162 88 194 88 16 1 38 -5 49 -12z m5081 -84 c-7
-7 -26 7 -26 19 0 6 6 6 15 -2 9 -7 13 -15 11 -17z m-6264 -63 c-5 -32 -22
-52 -22 -25 0 15 17 55 24 55 1 0 1 -14 -2 -30z m732 -23 c12 -34 5 -41 -28
-26 -28 13 -33 28 -14 47 17 17 31 10 42 -21z m5221 17 c8 -4 22 -19 30 -34
13 -25 12 -30 -12 -66 -14 -21 -28 -41 -30 -44 -10 -11 -103 114 -103 138 0
13 84 17 115 6z m1275 -87 c59 -31 66 -52 15 -44 -39 6 -89 43 -79 58 8 13 17
11 64 -14z m-7010 -6 c0 -5 -15 -42 -34 -83 -34 -72 -34 -73 -45 -45 -16 41
-14 103 5 121 17 17 74 22 74 7z m5850 -171 c0 -51 -13 -51 -45 0 -30 47 -30
47 -7 53 33 7 52 -11 52 -53z m-6070 31 c13 -25 13 -61 0 -61 -15 0 -43 48
-36 65 8 21 23 19 36 -4z m851 9 c5 0 9 -15 9 -34 0 -18 7 -49 14 -68 14 -33
12 -78 -3 -78 -14 0 -41 41 -41 63 0 13 -11 34 -24 46 -24 23 -25 41 -3 69 6
7 17 10 24 7 8 -3 19 -5 24 -5z m5616 -87 c8 -21 -30 -53 -64 -53 -28 0 -83
26 -83 40 0 10 25 18 80 23 19 2 41 5 48 5 7 1 15 -5 19 -15z m-166 -3 c17 0
9 -17 -16 -30 -20 -11 -27 -11 -40 0 -8 7 -15 16 -15 20 0 11 30 19 48 14 8
-2 18 -4 23 -4z m-6271 -136 c0 -8 -4 -14 -10 -14 -5 0 -28 -16 -50 -37 -50
-44 -61 -37 -68 41 -7 88 -3 91 68 55 33 -16 60 -37 60 -45z m617 28 c9 -6 -5
-23 -44 -56 -32 -26 -59 -43 -61 -37 -6 17 38 82 62 91 27 11 29 11 43 2z
m6273 -23 c0 -33 -86 -109 -124 -109 -17 0 -41 -3 -53 -6 -39 -11 -25 12 25
39 26 14 65 42 87 61 45 41 65 45 65 15z m-7112 -127 c27 -81 27 -82 4 -82 -9
0 -39 -20 -66 -45 -49 -45 -66 -54 -66 -35 0 32 83 230 97 230 4 0 18 -31 31
-68z m1047 -90 c-12 -12 -35 11 -40 42 -11 57 6 64 26 10 10 -26 17 -50 14
-52z m5215 18 c0 -5 -7 -10 -15 -10 -8 0 -15 5 -15 10 0 6 7 10 15 10 8 0 15
-4 15 -10z m365 -80 c3 -5 -1 -10 -9 -10 -9 0 -16 5 -16 10 0 6 4 10 9 10 6 0
13 -4 16 -10z m-240 -62 c14 -6 25 -15 25 -21 0 -5 6 -7 14 -4 8 3 21 -4 29
-17 18 -27 69 -79 126 -128 42 -36 43 -39 37 -81 -6 -37 -3 -46 16 -64 13 -12
35 -25 50 -28 27 -7 43 -29 32 -46 -30 -49 -233 129 -302 266 -36 72 -62 135
-57 135 2 0 16 -5 30 -12z m-5339 -142 c6 -17 -55 -146 -73 -153 -8 -3 -19 -1
-25 5 -8 8 -1 29 22 73 45 87 64 106 76 75z m5814 -1 c0 -36 -75 -81 -117 -70
-27 6 -30 27 -7 46 44 37 124 52 124 24z m525 -31 c0 -19 -5 -29 -15 -29 -16
0 -25 28 -16 51 10 25 31 10 31 -22z m-7350 -149 c-30 -216 -43 -247 -98 -226
-14 6 -28 15 -32 21 -7 11 29 115 47 135 4 5 8 16 8 25 0 24 74 170 82 162 5
-5 1 -57 -7 -117z m514 73 c0 -40 -45 -143 -62 -146 -22 -4 -22 30 -2 89 24
68 66 104 64 57z m-723 -103 c-4 -19 -11 -35 -16 -35 -14 0 -12 21 2 52 17 35
22 28 14 -17z m7916 -212 c18 -16 25 -73 9 -73 -9 0 -17 16 -31 63 -10 31 -4
34 22 10z m-8011 -34 c8 -17 7 -33 -5 -73 -18 -61 -49 -223 -55 -298 -2 -21
-24 -4 -38 29 -11 28 -13 55 -8 108 7 74 36 200 55 234 14 27 36 27 51 0z
m229 -36 c-1 -29 -23 -69 -61 -111 -20 -21 -41 -42 -46 -45 -25 -16 1 127 28
154 25 25 79 26 79 2z m6910 -29 c0 -17 -28 -49 -36 -42 -2 3 1 19 7 36 11 32
29 35 29 6z m1047 -101 c-3 -10 -5 -4 -5 12 0 17 2 24 5 18 2 -7 2 -21 0 -30z
m-231 -222 c-5 -33 -31 -71 -48 -71 -13 0 -10 124 5 139 20 20 50 -25 43 -68z
m-7764 -23 c3 -61 0 -73 -45 -168 -24 -52 -48 -106 -52 -119 -14 -44 -28 -4
-29 81 -1 83 -1 83 47 161 53 84 76 97 79 45z m-268 -81 c-1 -39 -33 -117 -47
-117 -20 0 -55 138 -39 154 3 4 24 6 47 4 39 -3 40 -4 39 -41z m7536 17 c0 -8
-4 -12 -10 -9 -5 3 -10 10 -10 16 0 5 5 9 10 9 6 0 10 -7 10 -16z m-152 -101
c121 -125 222 -285 132 -210 -16 14 -44 27 -62 31 -36 7 -61 38 -113 141 -72
144 -66 150 43 38z m-6889 -164 c6 -27 11 -85 11 -129 0 -141 -33 -101 -50 59
-6 62 -6 100 1 113 15 27 26 15 38 -43z m191 1 c0 -11 -4 -20 -10 -20 -5 0
-10 9 -10 20 0 11 5 20 10 20 6 0 10 -9 10 -20z m6790 -72 c0 -17 -3 -18 -15
-8 -8 7 -15 19 -15 26 0 8 6 11 15 8 8 -4 15 -15 15 -26z m-7421 -94 c27 -34
27 -37 -9 -194 -16 -72 -36 -195 -44 -271 -7 -77 -16 -142 -19 -145 -2 -3 -12
14 -22 38 -37 91 -29 318 17 488 32 119 42 129 77 84z m7870 -212 c-38 -54
-50 -65 -62 -53 -17 17 6 62 46 91 53 39 59 23 16 -38z m-7474 -1 c3 -5 1 -12
-5 -16 -5 -3 -10 1 -10 9 0 18 6 21 15 7z m7228 -49 c6 -55 -15 -162 -26 -127
-3 11 -9 55 -13 98 -6 72 -5 77 13 77 17 0 21 -9 26 -48z m-6493 -133 c0 -6
-4 -7 -10 -4 -5 3 -10 11 -10 16 0 6 5 7 10 4 6 -3 10 -11 10 -16z m-831 -68
c29 -69 39 -120 25 -134 -11 -11 -52 15 -58 37 -12 49 -18 127 -12 152 4 14 8
25 10 23 2 -2 18 -37 35 -78z m7491 49 c0 -5 -4 -10 -10 -10 -5 0 -10 5 -10
10 0 6 5 10 10 10 6 0 10 -4 10 -10z m-6614 -45 c4 -8 18 -15 33 -16 18 0 10
-5 -24 -14 -33 -9 -56 -10 -67 -4 -27 14 -22 37 10 42 15 2 31 5 35 6 4 0 10
-6 13 -14z m559 -11 c33 -10 72 -13 115 -8 38 3 83 1 110 -6 89 -23 112 -24
127 -4 15 21 0 22 298 -7 280 -26 446 -47 525 -65 124 -29 278 -54 462 -74
152 -18 227 -64 249 -152 11 -48 8 -146 -6 -168 -3 -5 -20 -10 -36 -10 -66 0
-126 -48 -188 -150 -25 -42 -28 -114 -6 -167 l16 -37 -43 -44 c-24 -24 -56
-51 -73 -60 -73 -38 -273 -51 -495 -32 -244 21 -319 23 -335 10 -8 -7 -17 -11
-18 -9 -1 2 -9 17 -17 32 -16 32 -60 54 -117 58 -21 2 -55 15 -76 31 -38 27
-51 27 -92 2 -16 -9 -30 -9 -70 2 -27 7 -60 13 -73 14 -12 0 -53 11 -90 23
-37 13 -98 30 -137 37 -120 22 -140 29 -167 57 -40 43 -94 176 -123 306 l-26
116 25 102 c15 56 35 116 45 133 11 17 27 46 37 63 16 33 17 33 73 27 31 -3
79 -12 106 -20z m-338 -12 c15 -10 -3 -69 -34 -110 -25 -33 -34 -26 -40 32 -3
25 -9 43 -13 41 -4 -3 -13 2 -20 10 -10 12 -9 15 6 16 18 0 18 1 -1 9 -14 6
-5 9 35 9 30 0 60 -3 67 -7z m5006 -34 c13 -13 38 -34 56 -48 18 -15 35 -39
40 -60 9 -36 7 -276 -3 -410 -6 -81 -6 -81 -101 -154 -32 -25 -36 -33 -33 -62
3 -23 -1 -39 -11 -48 -20 -17 -143 -66 -166 -66 -31 0 -120 -33 -190 -71 -80
-43 -159 -60 -385 -84 -180 -19 -217 -19 -305 0 -39 8 -107 15 -153 15 -111 0
-270 18 -301 35 -34 17 -121 110 -121 128 0 8 10 25 23 39 52 59 57 87 29 158
-52 133 -79 156 -165 146 -49 -6 -55 -5 -68 16 -19 29 -56 167 -65 235 -5 46
-3 54 13 59 10 3 32 12 48 19 93 40 191 66 229 62 23 -2 86 5 141 15 133 25
248 27 273 5 11 -10 35 -17 58 -17 67 0 74 -16 14 -37 -29 -10 -62 -28 -74
-41 -11 -13 -29 -32 -39 -42 -17 -17 -119 -51 -208 -69 -50 -11 -54 -14 -104
-90 -50 -76 -54 -92 -26 -120 11 -11 25 -29 31 -41 15 -27 58 -44 76 -29 7 6
14 23 16 37 2 23 9 28 37 30 18 2 38 -1 44 -7 6 -6 17 -11 24 -11 7 0 55 -18
107 -40 124 -53 169 -61 382 -66 202 -5 324 9 401 48 48 24 108 84 123 124 13
33 28 30 74 -12 29 -27 44 -34 60 -29 12 4 62 6 113 5 92 -2 92 -1 99 25 3 14
5 27 3 29 -12 10 -158 74 -180 80 -26 6 -33 12 -102 91 -49 56 -181 133 -268
156 -53 14 -108 19 -203 19 -111 1 -128 3 -113 14 14 11 123 33 177 35 49 3
515 11 562 11 47 -1 59 2 70 19 16 27 31 26 61 -1z m1217 -40 c0 -16 -4 -28
-10 -28 -5 0 -10 19 -10 43 0 31 3 38 10 27 5 -8 10 -27 10 -42z m-812 10 c40
-17 51 -26 46 -37 -22 -52 -17 -71 30 -112 25 -22 46 -49 46 -60 0 -11 -15
-52 -34 -92 -18 -39 -38 -84 -44 -99 -10 -24 -17 -28 -54 -28 -28 -1 -57 -9
-83 -25 -22 -14 -45 -25 -51 -25 -19 0 -6 248 14 280 28 44 45 166 28 203 -12
25 35 23 102 -5z m-1326 -22 c23 -17 13 -26 -31 -26 -42 0 -67 13 -57 29 10
15 67 13 88 -3z m1449 -59 c6 -21 3 -29 -12 -38 -21 -11 -22 -9 -34 44 -5 25
-3 28 16 25 15 -2 25 -13 30 -31z m-5970 -44 c1 -5 3 -23 5 -41 2 -33 2 -33
-17 -16 -23 21 -26 64 -4 64 8 0 16 -3 16 -7z m-636 -54 c11 -17 -1 -21 -15
-4 -8 9 -8 15 -2 15 6 0 14 -5 17 -11z m4019 -47 c5 -18 6 -35 2 -39 -3 -4
-59 -8 -124 -10 -64 -1 -199 -4 -299 -7 -175 -4 -183 -4 -183 15 0 17 9 19
148 18 163 -1 299 14 376 41 28 10 55 17 61 16 5 -1 14 -17 19 -34z m1539 17
c12 -7 39 -25 59 -41 l37 -29 -52 -54 c-52 -55 -121 -97 -143 -88 -9 3 -5 19
14 55 19 36 26 64 25 101 -1 29 1 55 4 60 6 10 31 9 56 -4z m-178 -80 c-3 -29
-17 -57 -46 -95 -45 -59 -69 -71 -44 -24 10 20 14 47 12 79 -5 55 -1 67 28 74
50 12 54 9 50 -34z m-511 -25 c9 -24 7 -62 -4 -69 -10 -6 -100 29 -100 40 0 9
64 45 81 45 9 0 20 -7 23 -16z m-4822 -106 c29 -17 69 -45 88 -63 55 -49 101
-65 188 -66 55 -1 88 4 114 17 31 14 40 15 53 4 22 -18 19 -28 -17 -51 -65
-40 -250 -4 -360 70 -80 54 -148 121 -123 121 3 0 28 -14 57 -32z m7045 -216
c29 -59 35 -80 30 -113 -6 -43 -40 -89 -66 -89 -46 0 -79 198 -46 275 16 39
17 39 32 20 8 -11 31 -53 50 -93z m-6891 11 c-7 -7 -26 7 -26 19 0 6 6 6 15
-2 9 -7 13 -15 11 -17z m4148 -8 c7 -20 -3 -45 -19 -45 -16 0 -29 35 -20 50 9
15 32 12 39 -5z m2337 -262 c31 -66 32 -100 3 -89 -9 3 -24 6 -34 6 -15 0 -20
11 -25 55 -8 60 0 109 15 100 6 -4 24 -36 41 -72z m-2691 -3433 c0 -5 -4 -10
-10 -10 -5 0 -10 5 -10 10 0 6 5 10 10 10 6 0 10 -4 10 -10z"/>
<path d="M7330 14080 c20 -13 33 -13 25 0 -3 6 -14 10 -23 10 -15 0 -15 -2 -2
-10z"/>
<path d="M2756 11134 c-9 -8 -16 -21 -16 -27 0 -7 -11 -39 -25 -72 -26 -63
-32 -119 -14 -130 17 -11 48 25 55 64 3 20 12 53 20 74 16 42 19 107 5 107 -5
0 -17 -7 -25 -16z"/>
<path d="M7125 10470 c-16 -4 -50 -17 -75 -29 -25 -11 -52 -21 -60 -21 -8 0
-38 -18 -66 -39 -50 -38 -53 -39 -98 -29 -30 6 -76 6 -129 0 -67 -7 -86 -6
-105 6 -13 8 -34 12 -50 9 -21 -4 -32 0 -48 20 -16 20 -26 25 -45 20 -47 -12
-109 -62 -155 -127 -43 -59 -48 -62 -55 -42 -19 51 -81 8 -174 -122 -61 -86
-65 -146 -10 -146 16 0 30 -11 44 -36 21 -35 24 -36 66 -32 l44 5 0 -53 c-1
-63 4 -74 37 -74 19 0 29 9 44 43 35 77 73 122 106 125 19 2 36 -3 44 -12 21
-26 42 -18 96 35 60 59 79 59 89 0 3 -21 13 -42 21 -45 21 -8 51 14 65 46 6
15 24 33 39 40 15 6 33 20 39 30 10 17 9 18 -14 12 -29 -7 -36 13 -7 23 9 3
29 15 44 25 28 19 48 17 48 -5 0 -7 9 -18 19 -24 15 -9 21 -26 23 -65 3 -50 5
-53 31 -56 16 -2 36 3 45 11 10 8 35 18 57 22 21 4 51 13 65 20 14 7 49 16 77
20 45 6 57 4 79 -14 15 -12 44 -26 65 -31 30 -8 40 -17 45 -38 10 -39 22 -51
60 -58 25 -4 51 1 97 19 34 14 76 31 94 37 23 9 35 22 43 45 6 18 22 41 36 49
13 9 24 25 24 36 0 10 5 22 10 25 13 8 13 45 1 45 -10 0 -62 96 -56 102 2 2
-6 17 -19 33 -22 27 -26 29 -49 16 -29 -15 -47 -8 -47 20 0 12 7 19 20 19 17
0 20 7 20 39 l0 39 -71 22 c-53 17 -83 21 -121 16 -30 -4 -62 -2 -83 5 -44 16
-55 6 -26 -24 12 -13 26 -38 31 -55 8 -28 6 -33 -19 -48 -15 -9 -31 -26 -37
-38 -8 -20 -15 -21 -95 -18 -62 3 -96 0 -123 -12 -46 -19 -46 -19 -46 -3 0 6
12 23 25 36 14 13 25 29 25 37 0 16 56 47 70 39 13 -8 13 -45 0 -45 -5 0 -10
-4 -10 -10 0 -21 31 -9 40 15 5 14 14 25 19 25 5 0 23 11 39 25 22 18 28 31
24 50 -2 14 -11 25 -21 25 -9 0 -25 7 -35 15 -11 8 -22 15 -25 14 -3 -1 -19
-5 -36 -9z m370 -160 c3 -5 2 -10 -4 -10 -5 0 -13 5 -16 10 -3 6 -2 10 4 10 5
0 13 -4 16 -10z m-37 -175 c4 -20 -19 -39 -29 -23 -10 15 2 49 15 45 6 -2 13
-12 14 -22z m-1050 -50 c0 -27 -16 -33 -36 -13 -17 17 -15 36 6 41 24 5 30 1
30 -28z"/>
<path d="M4530 10410 c0 -27 20 -43 119 -96 88 -47 92 -46 95 17 1 30 -2 33
-54 50 -30 10 -67 25 -82 34 -39 22 -78 20 -78 -5z"/>
<path d="M4068 10370 c-7 -11 -18 -20 -25 -20 -7 0 -47 -11 -89 -25 -41 -15
-104 -28 -139 -30 -77 -5 -155 -24 -155 -37 0 -5 -10 -6 -21 -3 -26 9 -43 -13
-26 -33 15 -19 13 -128 -3 -147 -7 -8 -17 -12 -23 -8 -20 12 -46 10 -51 -3 -3
-8 -1 -16 5 -19 5 -4 16 -22 24 -41 8 -19 21 -34 30 -34 29 0 85 29 85 44 0
11 13 18 40 22 36 6 40 10 40 34 0 16 3 37 7 47 7 17 6 17 -11 0 -15 -14 -21
-15 -33 -6 -8 7 -12 21 -9 33 3 11 0 26 -6 33 -8 10 -5 13 16 13 16 0 26 5 26
15 0 8 -7 15 -15 15 -8 0 -15 7 -15 15 0 9 9 15 25 15 17 0 23 -4 19 -14 -13
-33 11 -49 75 -50 33 -1 61 0 61 2 0 1 -9 11 -21 23 -16 16 -18 23 -8 35 17
20 35 17 68 -11 25 -23 29 -33 30 -87 1 -33 -4 -67 -10 -74 -15 -18 -3 -63 19
-71 9 -4 23 -13 30 -20 21 -20 45 -17 34 5 -14 26 -1 50 42 72 37 18 42 19 84
4 56 -18 81 -45 74 -79 -4 -21 -10 -25 -38 -25 -21 0 -34 -5 -34 -13 0 -14 48
-88 64 -99 20 -14 56 -9 56 7 0 13 3 13 20 3 18 -11 23 -10 41 12 20 26 20 33
-2 88 -12 28 -11 36 4 60 10 15 21 35 24 45 6 18 28 23 37 8 9 -14 113 -44
135 -38 13 3 22 -3 29 -19 7 -13 25 -27 44 -32 18 -5 48 -18 65 -29 38 -23 90
-20 96 6 2 9 -5 31 -16 49 -11 18 -17 35 -15 38 3 2 30 -9 62 -26 44 -24 61
-28 76 -20 24 13 44 5 60 -26 8 -14 22 -24 35 -24 13 0 37 -3 54 -6 28 -6 31
-4 31 20 0 14 -9 35 -20 46 -11 11 -20 23 -20 28 0 14 -45 58 -89 88 -31 20
-48 41 -58 68 -16 48 -40 76 -64 76 -23 0 -33 -17 -31 -55 2 -36 -5 -47 -40
-62 -25 -11 -30 -9 -55 17 -15 17 -31 30 -36 30 -4 0 -23 14 -42 31 -27 25
-32 35 -25 49 8 15 4 20 -22 29 -26 9 -35 8 -50 -6 -18 -16 -26 -14 -156 29
-167 56 -274 70 -294 38z m302 -96 c0 -14 -2 -14 -16 -3 -14 11 -15 9 -12 -22
3 -33 2 -34 -30 -31 -41 3 -95 29 -90 44 2 6 24 12 48 14 24 3 46 6 48 9 13
13 52 4 52 -11z m243 -88 c9 -7 17 -23 17 -35 0 -11 5 -20 11 -18 6 1 14 -4
16 -10 3 -8 -4 -13 -15 -13 -11 0 -27 -3 -35 -6 -17 -6 -43 57 -33 81 7 18 16
18 39 1z m-551 -38 c-9 -9 -15 -9 -24 0 -9 9 -7 12 12 12 19 0 21 -3 12 -12z
m788 -26 c0 -21 -2 -24 -10 -12 -13 20 -13 53 0 45 6 -3 10 -18 10 -33z m-145
0 c6 -4 19 -18 30 -31 l20 -24 -30 7 c-36 9 -60 30 -51 45 8 13 17 14 31 3z"/>
<path d="M3432 10320 c-29 -22 -54 -40 -57 -40 -16 0 -118 -89 -146 -128 -19
-26 -46 -60 -61 -76 -33 -34 -34 -42 -9 -56 16 -8 25 -5 47 15 32 30 54 32 54
6 0 -10 6 -23 13 -28 13 -10 109 -9 127 2 6 3 23 4 38 1 56 -12 69 26 18 53
-22 12 -30 12 -50 1 -31 -16 -56 -7 -56 20 0 12 4 19 8 16 5 -3 6 8 4 25 -3
23 2 35 24 55 28 27 54 31 141 21 59 -6 76 14 39 46 -14 12 -26 30 -26 39 0
29 -23 68 -39 68 -9 0 -40 -18 -69 -40z"/>
<path d="M3543 10148 c-13 -6 -23 -17 -23 -25 0 -18 5 -17 36 12 28 26 24 31
-13 13z"/>
<path d="M4025 9434 c-38 -10 -80 -27 -95 -40 -9 -7 -38 -18 -65 -24 -81 -18
-172 -69 -220 -122 -23 -26 -48 -48 -54 -48 -12 0 -14 -7 -11 -67 2 -54 -8
-58 -140 -68 -58 -4 -120 -8 -138 -10 -18 -1 -40 -9 -48 -17 -22 -22 0 -73 39
-90 44 -18 266 -12 318 9 32 13 41 13 66 0 32 -17 197 -39 263 -35 59 3 303
-20 356 -33 54 -14 230 -6 312 14 39 9 78 27 102 46 21 17 48 31 60 31 24 0
81 27 92 44 4 6 8 25 8 43 0 26 -15 47 -95 128 -52 54 -95 101 -95 106 0 16
-91 68 -149 85 -31 9 -71 13 -90 10 -21 -3 -65 3 -110 15 -73 20 -261 34 -306
23z m-51 -196 c2 -7 13 -53 25 -101 11 -49 28 -95 36 -103 20 -20 19 -32 -2
-38 -24 -6 -106 -2 -121 8 -6 4 -34 14 -62 22 -27 8 -50 19 -50 23 0 5 11 16
25 25 39 26 32 42 -16 38 -22 -3 -46 1 -52 7 -17 17 38 68 108 101 65 31 104
37 109 18z m652 -23 c19 -18 34 -53 34 -80 0 -14 5 -35 11 -46 8 -17 7 -23 -7
-33 -26 -20 -112 -49 -123 -42 -6 4 -2 28 10 61 10 30 19 71 19 92 0 21 3 48
6 61 7 23 13 21 50 -13z"/>
<path d="M2880 8590 c0 -5 21 -10 46 -10 27 0 43 4 39 10 -3 6 -24 10 -46 10
-21 0 -39 -4 -39 -10z"/>
<path d="M3018 8523 c7 -3 16 -2 19 1 4 3 -2 6 -13 5 -11 0 -14 -3 -6 -6z"/>
<path d="M3316 8484 c-4 -9 -4 -19 -1 -23 8 -7 38 12 43 27 6 19 -35 14 -42
-4z"/>
<path d="M4993 8428 c-6 -7 -13 -26 -17 -43 -4 -16 -16 -48 -27 -72 -10 -23
-19 -55 -19 -71 0 -16 -24 -80 -53 -143 -53 -112 -68 -154 -84 -234 -8 -37
-12 -40 -48 -45 -44 -6 -112 -43 -161 -87 -32 -28 -153 -159 -187 -202 -33
-41 -107 -198 -102 -213 4 -9 17 -20 29 -26 20 -9 27 -6 49 16 13 15 40 56 59
92 50 96 79 137 110 155 15 8 33 21 40 28 27 25 97 66 125 73 15 4 36 15 46
25 28 29 47 24 47 -13 0 -30 41 -88 62 -88 5 0 21 -14 37 -32 l28 -32 99 48
c55 27 107 52 116 57 27 14 40 11 82 -21 21 -16 64 -37 94 -46 52 -15 60 -15
107 1 27 9 93 19 145 22 73 4 102 10 124 26 16 11 51 22 78 25 47 4 50 4 44
-16 -8 -23 16 -42 56 -42 13 -1 40 -7 60 -14 32 -12 40 -11 64 5 30 20 50 16
57 -11 2 -10 16 -26 31 -35 23 -15 31 -16 72 -4 29 9 58 27 79 50 31 35 33 41
45 167 12 120 12 139 -5 219 -26 127 -79 207 -164 254 -20 10 -43 23 -51 28
-8 5 -23 12 -32 15 -10 3 -18 14 -18 25 0 26 -46 111 -73 134 -28 24 -66 18
-90 -15 l-20 -27 21 -55 c11 -30 18 -63 16 -73 -8 -30 70 -103 131 -122 40
-13 51 -21 53 -40 2 -14 17 -37 32 -51 32 -30 34 -36 49 -166 10 -83 9 -96 -8
-134 -11 -24 -32 -50 -51 -62 l-33 -19 -51 35 c-79 54 -123 69 -199 69 -54 -1
-80 -7 -132 -32 -35 -17 -75 -31 -89 -31 -13 0 -52 -7 -86 -16 -70 -18 -113
-13 -164 17 -38 22 -77 35 -148 49 -40 8 -57 6 -110 -14 -35 -13 -77 -27 -93
-30 -28 -6 -32 -4 -43 27 -7 18 -12 40 -12 48 0 8 -6 26 -14 41 -17 32 -6 96
24 139 11 15 20 30 20 35 0 4 29 68 65 143 51 108 67 152 75 214 9 59 8 82 -1
93 -14 17 -73 19 -86 2z"/>
<path d="M3077 8134 c-10 -11 3 -24 23 -24 10 0 35 -19 55 -43 26 -32 43 -43
63 -42 35 0 45 35 10 35 -31 1 -62 19 -88 53 -20 25 -49 35 -63 21z"/>
<path d="M3178 7990 c12 -34 46 -33 55 1 4 16 0 18 -28 16 -24 -1 -31 -6 -27
-17z"/>
<path d="M3070 7971 c0 -37 12 -51 41 -51 36 0 36 10 3 44 -32 31 -44 33 -44
7z"/>
<path d="M6325 7910 c-9 -15 25 -80 42 -80 8 0 11 5 8 10 -3 6 1 10 9 10 23 0
19 23 -7 48 -25 24 -42 28 -52 12z"/>
<path d="M6561 7883 c0 -10 6 -35 12 -57 11 -34 21 -43 92 -81 85 -44 114 -79
115 -138 0 -24 24 -111 62 -227 6 -19 15 -53 19 -75 5 -22 15 -71 23 -110 9
-43 15 -140 17 -255 2 -166 0 -189 -17 -220 -11 -22 -19 -56 -19 -90 -1 -32
-11 -82 -25 -118 -21 -57 -22 -65 -8 -79 37 -37 104 34 138 146 11 36 32 92
46 123 33 76 46 157 32 200 -7 18 -13 78 -14 133 -4 212 -26 314 -94 453 -16
32 -18 47 -10 61 18 35 11 59 -43 131 -76 101 -238 220 -302 220 -17 0 -25 -5
-24 -17z"/>
<path d="M3822 7823 c2 -10 10 -18 18 -18 8 0 16 8 18 18 2 12 -3 17 -18 17
-15 0 -20 -5 -18 -17z"/>
<path d="M3956 7815 c-15 -14 -32 -24 -37 -22 -6 1 -15 -8 -19 -20 -8 -18 -5
-23 19 -28 16 -3 39 0 57 10 16 8 23 15 17 15 -7 0 -13 11 -13 25 0 14 5 25
10 25 6 0 10 5 10 10 0 17 -16 11 -44 -15z"/>
<path d="M3680 7770 c0 -5 5 -10 11 -10 5 0 7 5 4 10 -3 6 -8 10 -11 10 -2 0
-4 -4 -4 -10z"/>
<path d="M3760 7771 c0 -5 6 -11 13 -14 10 -3 10 -9 0 -26 -7 -11 -13 -28 -13
-36 0 -8 -4 -15 -10 -15 -5 0 -12 -16 -16 -36 -7 -37 -41 -82 -58 -76 -4 1
-24 -2 -42 -8 -28 -10 -34 -17 -34 -40 0 -16 -4 -32 -10 -35 -5 -3 -10 -15
-10 -26 0 -10 5 -19 10 -19 6 0 10 -13 10 -28 0 -20 7 -33 25 -42 l25 -13 -25
-44 c-29 -53 -47 -113 -34 -113 5 0 9 -4 9 -10 0 -5 -7 -10 -15 -10 -17 0 -22
19 -29 125 -5 75 -8 82 -38 108 -18 15 -42 27 -54 27 -12 0 -24 6 -26 12 -4
10 -10 10 -32 0 -15 -6 -36 -12 -46 -12 -17 0 -20 -7 -20 -41 l0 -41 53 4 54
3 -10 -39 c-6 -23 -6 -41 -1 -45 13 -8 38 -62 39 -81 0 -13 18 -22 73 -36 20
-5 14 -59 -10 -89 -16 -21 -21 -39 -19 -72 2 -32 -1 -43 -12 -43 -8 0 -18 -11
-21 -25 -4 -14 -15 -34 -25 -44 -21 -21 -38 -91 -22 -91 17 0 53 -79 46 -101
-8 -23 -18 -24 -38 -4 -13 13 -16 13 -21 -1 -19 -50 24 -134 69 -134 15 0 16
3 7 12 -17 17 -15 38 3 38 10 0 15 -11 15 -35 0 -43 40 -85 94 -99 29 -7 29
-7 22 33 -7 46 7 91 29 91 10 0 15 -10 15 -29 0 -15 10 -39 23 -53 33 -37 47
-65 41 -81 -3 -8 2 -20 11 -27 12 -10 21 -8 49 14 34 26 35 28 35 95 0 55 -4
73 -19 86 -10 9 -22 31 -26 49 -3 17 -10 36 -16 42 -5 7 -7 16 -6 21 2 4 -7
19 -19 33 -18 18 -23 36 -23 77 0 29 -4 53 -10 53 -5 0 -10 5 -10 11 0 6 -9
23 -21 37 -11 15 -16 28 -11 30 6 2 8 11 5 20 -3 12 6 21 27 31 39 17 61 40
90 96 27 53 22 76 -18 72 -39 -5 -55 -16 -49 -38 3 -10 -1 -26 -7 -35 -11 -15
-14 -15 -28 0 -9 9 -23 16 -31 16 -32 0 -36 66 -7 103 11 14 20 30 20 36 0 6
9 11 21 11 17 0 20 5 16 23 -8 33 24 67 65 67 l33 1 -30 16 -30 16 30 13 c17
7 36 13 43 14 7 0 12 14 12 33 0 27 6 37 28 48 15 7 41 14 57 14 28 0 30 2 33
45 3 44 3 44 -13 23 -13 -18 -26 -23 -61 -23 -35 0 -44 -3 -44 -17 0 -10 -18
-31 -40 -46 l-39 -28 -12 23 c-9 16 -9 23 0 26 6 2 11 10 11 18 0 8 4 14 10
14 11 0 40 53 40 73 0 8 -10 18 -22 21 -23 6 -23 6 -3 24 11 9 26 32 32 51 11
30 10 36 -5 47 -20 15 -52 18 -52 5z m-43 -353 c-12 -10 -27 -22 -34 -28 -8
-6 -14 -6 -18 0 -10 16 57 72 67 57 5 -7 -1 -19 -15 -29z m-102 -408 c3 -5 1
-10 -4 -10 -6 0 -11 5 -11 10 0 6 2 10 4 10 3 0 8 -4 11 -10z"/>
<path d="M3526 7683 c-11 -11 -7 -43 6 -43 9 0 9 -3 0 -12 -7 -7 -12 -19 -12
-27 0 -9 -19 -25 -42 -36 l-42 -20 31 -3 c52 -5 98 11 101 36 2 12 10 22 18
22 38 0 93 26 109 52 l16 28 -39 0 c-22 0 -56 -7 -75 -15 -45 -18 -47 -19 -47
-1 0 17 -14 28 -24 19z"/>
<path d="M6360 7610 c0 -34 22 -49 45 -30 22 18 18 35 -10 48 -35 16 -35 16
-35 -18z"/>
<path d="M5477 7550 c-44 -13 -67 -46 -60 -84 7 -37 28 -82 43 -91 18 -11 60
4 60 21 0 10 -6 14 -14 11 -10 -4 -14 3 -14 27 0 41 12 61 35 61 22 0 31 44
11 56 -15 10 -24 10 -61 -1z"/>
<path d="M5803 7513 c-15 -6 -17 -39 -3 -48 6 -3 10 -23 10 -44 0 -31 5 -42
26 -56 19 -12 23 -20 15 -28 -18 -18 -13 -27 18 -27 46 0 92 21 101 46 8 21
16 24 60 24 27 0 50 5 50 10 0 16 28 12 38 -5 7 -14 12 -14 41 -2 25 11 39 11
57 3 13 -6 24 -14 24 -18 0 -5 9 -8 21 -8 11 0 46 -18 78 -40 65 -46 76 -48
91 -20 11 21 8 24 -23 21 -10 -2 -21 8 -26 22 -15 38 -54 57 -119 57 -32 0
-62 4 -68 10 -11 11 -65 17 -80 8 -5 -4 -31 -2 -58 4 -34 7 -51 7 -59 -1 -25
-25 -68 -9 -74 28 -1 8 -6 17 -11 20 -5 3 -14 16 -21 29 -9 16 -20 22 -44 21
-18 0 -38 -3 -44 -6z m105 -115 c21 -21 14 -40 -8 -21 -21 18 -26 33 -12 33 4
0 13 -5 20 -12z"/>
<path d="M5670 7490 c-12 -7 -12 -12 4 -29 22 -24 43 -26 70 -6 22 16 22 16
-17 33 -33 14 -38 14 -57 2z"/>
<path d="M3980 7480 c0 -5 5 -10 10 -10 6 0 10 5 10 10 0 6 -4 10 -10 10 -5 0
-10 -4 -10 -10z"/>
<path d="M5266 7465 c-22 -8 -51 -25 -65 -39 -23 -24 -24 -26 -8 -44 24 -26
22 -34 -19 -61 -31 -21 -40 -23 -65 -14 -22 9 -39 9 -61 1 -27 -10 -33 -8 -49
10 -23 29 -39 28 -39 -3 0 -14 5 -25 11 -25 5 0 7 -4 4 -10 -3 -6 4 -10 17
-10 13 0 36 -14 52 -30 16 -17 40 -30 53 -30 29 0 30 -21 2 -46 -33 -30 -9
-94 36 -94 34 0 51 25 36 56 -14 32 -14 71 0 80 6 3 9 17 6 30 -6 32 20 39 44
12 13 -17 17 -32 13 -56 -6 -30 -3 -33 31 -48 49 -20 87 -15 101 15 7 13 17
26 22 30 5 3 12 17 13 31 3 21 0 25 -20 22 -21 -2 -23 1 -16 25 4 16 8 44 8
63 2 31 -1 35 -25 38 -29 3 -32 13 -28 74 2 35 -8 39 -54 23z"/>
<path d="M2760 7441 c0 -19 6 -34 15 -38 23 -8 28 2 18 33 -13 40 -33 42 -33
5z"/>
<path d="M4936 7421 c-37 -8 -68 -48 -60 -79 8 -30 44 -26 60 6 6 12 21 33 33
46 18 20 20 38 2 35 -3 -1 -19 -4 -35 -8z"/>
<path d="M5103 7413 c-18 -7 -16 -40 3 -47 23 -9 24 -8 24 18 0 27 -8 36 -27
29z"/>
<path d="M3907 7365 c-4 -8 -2 -17 3 -20 6 -4 10 -15 10 -26 0 -13 7 -19 24
-19 33 0 53 25 36 45 -10 12 -10 15 4 15 9 0 16 5 16 10 0 17 -87 12 -93 -5z"/>
<path d="M4782 7353 c-36 -17 -45 -42 -45 -112 1 -57 6 -86 20 -103 5 -7 13
-21 16 -31 5 -12 13 -16 24 -13 10 3 25 1 33 -4 12 -7 12 -12 2 -22 -7 -7 -20
-13 -30 -13 -25 0 -21 -38 6 -50 12 -5 22 -15 22 -22 0 -6 10 -19 22 -27 17
-12 24 -13 30 -3 12 18 10 67 -3 67 -6 0 -8 7 -5 16 4 9 0 24 -7 33 -8 9 -17
28 -21 43 -3 15 -19 41 -35 57 -28 28 -28 31 -17 79 6 27 19 59 30 71 17 19
17 51 -1 51 -4 0 -23 -8 -41 -17z"/>
<path d="M8067 7315 c-25 -35 -46 -100 -40 -123 2 -11 -1 -30 -7 -42 -8 -16
-9 -25 -1 -29 6 -4 -8 -26 -35 -53 -27 -28 -44 -54 -42 -65 12 -63 118 33 118
108 0 21 5 41 10 44 6 3 10 16 10 28 0 12 7 40 15 62 29 81 12 124 -28 70z"/>
<path d="M4602 7307 c-29 -30 -28 -47 4 -72 22 -18 25 -25 16 -41 -6 -11 -7
-26 -2 -33 11 -19 57 -6 71 20 9 17 7 25 -12 45 -21 22 -22 28 -11 56 9 25 9
34 -1 40 -21 14 -43 9 -65 -15z"/>
<path d="M5956 7304 c-16 -15 -13 -34 4 -34 5 0 14 9 20 19 13 26 -3 36 -24
15z"/>
<path d="M5443 7297 c-31 -14 -29 -33 5 -53 15 -10 39 -31 54 -48 22 -26 33
-30 68 -29 44 2 125 -16 171 -37 22 -10 31 -9 52 5 25 16 27 16 48 -9 13 -14
30 -26 38 -26 9 0 21 -10 26 -22 7 -16 23 -25 54 -31 38 -8 48 -6 78 16 40 29
73 25 73 -8 0 -12 9 -30 19 -39 24 -21 66 -18 66 6 0 9 7 24 16 35 9 10 14 24
12 31 -3 6 0 12 6 12 14 0 14 -47 1 -55 -5 -3 -10 -19 -10 -35 0 -22 6 -30 31
-39 17 -6 40 -22 51 -36 22 -29 48 -32 83 -9 18 12 28 13 44 5 41 -22 68 -14
84 27 9 20 30 52 47 71 17 19 33 46 36 60 3 14 10 36 15 49 21 53 0 92 -51 92
-20 0 -35 9 -50 30 -25 36 -43 39 -35 7 4 -16 -1 -29 -19 -47 -33 -30 -33 -43
2 -72 16 -13 32 -36 36 -51 5 -23 2 -29 -18 -37 -18 -6 -35 -5 -55 3 -29 12
-30 14 -16 39 13 27 13 27 -28 33 -23 3 -51 4 -62 3 -14 -2 -20 3 -20 17 0 18
-7 20 -60 21 -36 1 -69 -4 -82 -12 -27 -17 -83 -15 -90 3 -7 19 -86 16 -123
-4 -31 -18 -31 -18 -53 10 -24 29 -57 36 -57 13 0 -24 -22 -30 -36 -11 -12 16
-12 22 1 41 8 13 15 30 15 39 0 8 5 15 10 15 7 0 7 6 0 20 -15 28 -40 25 -40
-4 0 -14 -4 -36 -10 -50 -10 -28 -85 -72 -95 -56 -3 6 -15 10 -26 10 -11 0
-39 10 -62 22 -23 12 -55 22 -72 22 -26 1 -30 5 -30 28 0 36 -14 48 -42 35z
m597 -141 c0 -3 -4 -8 -10 -11 -5 -3 -10 -1 -10 4 0 6 5 11 10 11 6 0 10 -2
10 -4z"/>
<path d="M6042 7258 c3 -25 25 -33 48 -18 13 8 12 11 -5 24 -29 22 -47 20 -43
-6z"/>
<path d="M4517 7253 c-11 -10 -8 -71 3 -78 18 -11 50 6 50 26 0 42 -32 73 -53
52z"/>
<path d="M4945 7250 c-3 -5 -19 -10 -35 -10 -22 0 -30 -6 -38 -28 -6 -17 -6
-35 -1 -45 11 -19 68 -49 80 -41 17 10 9 46 -11 51 -11 3 -20 8 -20 12 1 14
16 29 35 32 24 5 34 39 11 39 -8 0 -18 -4 -21 -10z"/>
<path d="M4234 7222 c-21 -13 -90 -157 -102 -212 -60 -270 -60 -276 -26 -396
21 -75 39 -113 73 -160 51 -69 85 -94 102 -77 14 14 5 67 -20 117 -11 20 -23
72 -27 114 -4 42 -13 94 -20 116 -8 21 -14 48 -14 59 0 19 30 129 49 182 63
171 67 265 12 265 -9 0 -21 -4 -27 -8z"/>
<path d="M5412 7170 c-17 -28 -15 -47 8 -53 24 -6 36 24 20 53 -13 25 -12 24
-28 0z"/>
<path d="M4491 7141 c-13 -8 -6 -57 10 -67 5 -3 9 -16 9 -29 0 -29 22 -38 49
-19 25 18 27 42 6 50 -10 4 -13 13 -10 25 4 13 1 19 -9 19 -9 0 -16 4 -16 9 0
13 -25 20 -39 12z"/>
<path d="M4633 7083 c-21 -7 -15 -33 7 -33 11 0 20 6 20 14 0 18 -11 25 -27
19z"/>
<path d="M3866 7064 c-9 -22 -8 -24 9 -24 8 0 15 6 15 14 0 22 -17 28 -24 10z"/>
<path d="M4960 7047 c0 -20 7 -41 19 -51 17 -15 20 -15 42 3 20 16 22 23 14
47 -8 23 -17 30 -43 32 -30 3 -32 2 -32 -31z"/>
<path d="M5275 6979 c-15 -28 -19 -30 -56 -24 -37 6 -92 -15 -214 -83 -11 -6
-56 -23 -100 -38 -89 -29 -196 -80 -207 -98 -8 -14 -83 -13 -121 3 -69 27 -97
0 -97 -96 0 -80 23 -108 70 -83 16 8 30 2 77 -36 32 -26 63 -51 69 -56 6 -4
38 -13 70 -19 32 -6 70 -17 84 -24 23 -12 24 -14 6 -21 -10 -4 -27 -2 -37 5
-11 6 -19 7 -19 1 0 -5 18 -14 40 -20 21 -6 42 -15 45 -20 3 -5 49 -23 103
-40 53 -17 101 -36 107 -41 5 -5 18 -9 28 -9 11 0 48 -14 82 -30 85 -40 206
-80 278 -90 47 -7 73 -5 130 11 49 14 126 23 242 29 132 7 191 15 265 35 52
15 114 31 137 37 23 6 56 24 75 40 18 16 59 43 91 60 66 35 107 79 107 112 0
26 -29 56 -54 56 -19 0 -147 -67 -211 -111 -46 -31 -178 -73 -277 -89 -128
-20 -374 -40 -494 -40 -128 0 -158 7 -264 57 -65 30 -79 36 -145 62 -86 33
-165 71 -165 80 0 5 22 16 49 25 37 12 89 16 207 16 149 0 159 -1 199 -25 80
-46 130 -58 235 -52 267 15 441 30 596 52 216 31 251 39 277 63 12 11 37 22
56 24 72 7 63 78 -14 107 -22 8 -42 18 -45 22 -11 14 -68 38 -115 47 -146 30
-248 58 -346 94 -15 5 -31 20 -37 33 -14 30 -48 47 -137 69 -87 22 -194 14
-281 -20 -66 -26 -125 -31 -146 -11 -36 34 -89 67 -107 67 -13 0 -27 -12 -36
-31z m446 -113 c19 -8 49 -30 68 -50 23 -24 46 -37 75 -41 47 -8 307 -93 319
-105 18 -16 -142 -39 -363 -51 -96 -5 -212 -12 -257 -15 -80 -6 -84 -5 -146
29 l-64 35 -199 -2 c-141 -1 -210 -6 -236 -16 -27 -10 -46 -11 -65 -4 -38 13
-39 30 -1 38 113 22 299 89 364 132 28 19 59 34 68 34 9 0 43 -11 76 -25 94
-39 190 -31 264 24 47 35 52 36 97 17z"/>
<path d="M4700 6971 c0 -24 22 -42 39 -32 8 5 11 17 6 30 -8 27 -45 29 -45 2z"/>
<path d="M6175 6970 c-4 -6 5 -10 20 -10 15 0 24 4 20 10 -3 6 -12 10 -20 10
-8 0 -17 -4 -20 -10z"/>
<path d="M4487 6963 c-4 -3 -7 -23 -7 -43 0 -47 35 -83 76 -78 23 2 30 9 32
31 3 25 32 41 32 17 0 -16 46 -41 64 -34 19 7 21 43 4 66 -7 9 -30 20 -50 23
-31 6 -38 4 -38 -9 0 -22 -10 -20 -50 9 -34 25 -51 30 -63 18z"/>
<path d="M3330 6830 c0 -5 7 -10 16 -10 8 0 12 5 9 10 -3 6 -10 10 -16 10 -5
0 -9 -4 -9 -10z"/>
<path d="M3340 6795 c0 -3 4 -13 9 -23 5 -9 12 -25 15 -34 6 -21 39 -24 54 -5
15 17 -31 70 -47 54 -8 -8 -11 -8 -11 1 0 7 -4 12 -10 12 -5 0 -10 -2 -10 -5z"/>
<path d="M3490 6531 c0 -5 7 -11 15 -15 9 -3 15 0 15 9 0 8 -7 15 -15 15 -8 0
-15 -4 -15 -9z"/>
<path d="M3664 6405 c-8 -21 3 -47 19 -43 6 3 13 14 15 25 4 24 -26 40 -34 18z"/>
<path d="M3820 6406 c0 -8 5 -18 10 -21 6 -3 10 3 10 14 0 12 -4 21 -10 21 -5
0 -10 -6 -10 -14z"/>
<path d="M4748 6403 c6 -2 18 -2 25 0 6 3 1 5 -13 5 -14 0 -19 -2 -12 -5z"/>
<path d="M4880 5816 c0 -8 11 -17 24 -20 13 -3 31 -9 40 -12 32 -12 15 13 -19
29 -43 21 -45 21 -45 3z"/>
<path d="M4925 5608 c-32 -18 -45 -35 -45 -56 0 -24 16 -38 55 -47 17 -4 39
-13 51 -20 18 -12 26 -10 62 13 62 40 64 71 5 72 -13 0 -23 6 -23 14 0 8 -12
17 -27 20 -16 4 -35 9 -43 11 -8 2 -24 -1 -35 -7z"/>
<path d="M7383 5578 c-21 -44 -23 -58 -8 -58 8 0 15 5 15 10 0 6 9 10 21 10
15 0 19 4 15 16 -3 9 -6 22 -6 30 0 22 -25 16 -37 -8z"/>
<path d="M7223 5496 c-34 -17 -72 -40 -85 -51 -13 -11 -40 -31 -61 -45 -20
-14 -37 -28 -37 -32 0 -10 -6 -12 83 21 87 33 173 87 180 113 8 28 -15 26 -80
-6z"/>
<path d="M5304 5485 c-3 -8 -21 -19 -39 -25 -18 -6 -40 -19 -49 -29 -15 -16
-15 -19 2 -34 17 -15 20 -15 50 3 18 11 32 24 32 30 0 7 6 8 19 0 32 -17 51
-12 61 16 7 19 7 31 -1 40 -15 18 -68 18 -75 -1z"/>
<path d="M4865 5451 c-6 -5 -23 -11 -40 -13 -25 -2 -30 -7 -27 -28 3 -31 49
-70 83 -70 28 0 68 24 57 35 -4 4 0 21 8 36 14 28 14 30 -11 39 -33 12 -58 13
-70 1z"/>
<path d="M6030 5440 c-13 -11 -36 -20 -52 -20 -22 0 -28 -5 -28 -21 0 -15 6
-20 23 -19 44 4 57 0 57 -19 0 -10 -7 -24 -15 -31 -18 -15 -20 -40 -2 -40 21
0 -16 -20 -39 -20 -28 0 -54 -30 -54 -62 0 -20 8 -30 36 -43 33 -15 37 -15 53
-1 11 10 21 38 24 68 7 54 29 98 51 98 22 0 66 40 66 59 0 17 -68 71 -88 71
-5 0 -19 -9 -32 -20z"/>
<path d="M5453 5433 c-7 -2 -13 -10 -13 -18 0 -7 -17 -15 -40 -19 -44 -7 -44
-6 -29 -58 12 -46 22 -47 46 -8 9 17 21 30 25 30 4 0 8 8 8 18 0 11 11 24 25
30 43 20 22 43 -22 25z"/>
<path d="M4977 5404 c-11 -11 -7 -44 12 -103 14 -43 16 -62 8 -89 -10 -32 -9
-35 34 -73 50 -44 89 -50 128 -20 23 17 23 21 11 50 -8 20 -19 31 -33 31 -11
0 -38 8 -59 18 -36 16 -39 20 -36 54 2 20 0 36 -3 35 -4 -1 -8 3 -9 8 -1 6 -8
17 -16 26 -9 10 -11 19 -6 20 6 2 12 13 14 24 2 14 -3 21 -17 23 -12 2 -24 0
-28 -4z"/>
<path d="M4776 5321 c-10 -16 5 -41 24 -41 32 0 50 11 50 31 0 15 -7 19 -34
19 -19 0 -37 -4 -40 -9z"/>
<path d="M5394 5267 c-9 -24 12 -61 42 -78 29 -15 46 -3 21 15 -9 7 -17 17
-17 22 0 5 -9 20 -20 34 -17 23 -19 23 -26 7z"/>
<path d="M4880 5246 c0 -18 31 -29 44 -16 8 8 7 14 -4 20 -22 14 -40 12 -40
-4z"/>
<path d="M5452 5108 c-7 -7 -12 -24 -12 -38 0 -33 17 -50 50 -50 34 1 60 22
60 52 0 32 -18 48 -55 48 -17 0 -36 -5 -43 -12z"/>
<path d="M5250 5091 c-14 -28 -12 -51 5 -51 18 0 38 37 31 56 -8 20 -23 17
-36 -5z"/>
</g>
</svg>
