%TF.GenerationSoftware,KiCad,Pcbnew,8.0.1*%
%TF.CreationDate,2024-08-11T00:03:08+09:00*%
%TF.ProjectId,main,6d61696e-2e6b-4696-9361-645f70636258,rev?*%
%TF.SameCoordinates,Original*%
%TF.FileFunction,Soldermask,Bot*%
%TF.FilePolarity,Negative*%
%FSLAX46Y46*%
G04 Gerber Fmt 4.6, Leading zero omitted, Abs format (unit mm)*
G04 Created by KiCad (PCBNEW 8.0.1) date 2024-08-11 00:03:08*
%MOMM*%
%LPD*%
G01*
G04 APERTURE LIST*
G04 Aperture macros list*
%AMRoundRect*
0 Rectangle with rounded corners*
0 $1 Rounding radius*
0 $2 $3 $4 $5 $6 $7 $8 $9 X,Y pos of 4 corners*
0 Add a 4 corners polygon primitive as box body*
4,1,4,$2,$3,$4,$5,$6,$7,$8,$9,$2,$3,0*
0 Add four circle primitives for the rounded corners*
1,1,$1+$1,$2,$3*
1,1,$1+$1,$4,$5*
1,1,$1+$1,$6,$7*
1,1,$1+$1,$8,$9*
0 Add four rect primitives between the rounded corners*
20,1,$1+$1,$2,$3,$4,$5,0*
20,1,$1+$1,$4,$5,$6,$7,0*
20,1,$1+$1,$6,$7,$8,$9,0*
20,1,$1+$1,$8,$9,$2,$3,0*%
%AMHorizOval*
0 Thick line with rounded ends*
0 $1 width*
0 $2 $3 position (X,Y) of the first rounded end (center of the circle)*
0 $4 $5 position (X,Y) of the second rounded end (center of the circle)*
0 Add line between two ends*
20,1,$1,$2,$3,$4,$5,0*
0 Add two circle primitives to create the rounded ends*
1,1,$1,$2,$3*
1,1,$1,$4,$5*%
%AMFreePoly0*
4,1,19,0.500000,-0.750000,0.000000,-0.750000,0.000000,-0.744911,-0.071157,-0.744911,-0.207708,-0.704816,-0.327430,-0.627875,-0.420627,-0.520320,-0.479746,-0.390866,-0.500000,-0.250000,-0.500000,0.250000,-0.479746,0.390866,-0.420627,0.520320,-0.327430,0.627875,-0.207708,0.704816,-0.071157,0.744911,0.000000,0.744911,0.000000,0.750000,0.500000,0.750000,0.500000,-0.750000,0.500000,-0.750000,
$1*%
%AMFreePoly1*
4,1,19,0.000000,0.744911,0.071157,0.744911,0.207708,0.704816,0.327430,0.627875,0.420627,0.520320,0.479746,0.390866,0.500000,0.250000,0.500000,-0.250000,0.479746,-0.390866,0.420627,-0.520320,0.327430,-0.627875,0.207708,-0.704816,0.071157,-0.744911,0.000000,-0.744911,0.000000,-0.750000,-0.500000,-0.750000,-0.500000,0.750000,0.000000,0.750000,0.000000,0.744911,0.000000,0.744911,
$1*%
G04 Aperture macros list end*
%ADD10R,1.000000X1.000000*%
%ADD11O,1.000000X1.000000*%
%ADD12O,1.400000X2.100000*%
%ADD13O,2.100000X1.400000*%
%ADD14O,1.000000X3.000000*%
%ADD15O,3.000000X1.000000*%
%ADD16R,1.350000X1.350000*%
%ADD17C,1.350000*%
%ADD18R,1.700000X1.700000*%
%ADD19O,1.700000X1.700000*%
%ADD20C,1.500000*%
%ADD21HorizOval,3.100000X-0.424264X-0.424264X0.424264X0.424264X0*%
%ADD22R,1.600000X1.600000*%
%ADD23C,1.600000*%
%ADD24O,4.500000X1.800000*%
%ADD25FreePoly0,270.000000*%
%ADD26FreePoly1,270.000000*%
%ADD27RoundRect,0.250000X0.450000X-0.262500X0.450000X0.262500X-0.450000X0.262500X-0.450000X-0.262500X0*%
%ADD28FreePoly0,0.000000*%
%ADD29FreePoly1,0.000000*%
%ADD30FreePoly0,90.000000*%
%ADD31FreePoly1,90.000000*%
%ADD32RoundRect,0.218750X-0.218750X-0.256250X0.218750X-0.256250X0.218750X0.256250X-0.218750X0.256250X0*%
G04 APERTURE END LIST*
D10*
%TO.C,J2*%
X16444999Y20065772D03*
D11*
X15174999Y20065772D03*
X13904999Y20065772D03*
X12634999Y20065772D03*
X11364999Y20065772D03*
X10094999Y20065772D03*
X8824999Y20065772D03*
X7554999Y20065772D03*
%TD*%
D12*
%TO.C,SW1*%
X15250000Y-10997655D03*
X8750000Y-10997655D03*
%TD*%
D10*
%TO.C,J3*%
X2436572Y14947345D03*
D11*
X2436572Y13677345D03*
X2436572Y12407345D03*
X2436572Y11137345D03*
X2436572Y9867345D03*
X2436572Y8597345D03*
X2436572Y7327345D03*
X2436572Y6057345D03*
%TD*%
D10*
%TO.C,J4*%
X7555000Y938917D03*
D11*
X8825000Y938917D03*
X10095000Y938917D03*
X11365000Y938917D03*
X12635000Y938917D03*
X13905000Y938917D03*
X15175000Y938917D03*
X16445000Y938917D03*
%TD*%
D13*
%TO.C,SW3*%
X4000000Y-7747655D03*
X4000000Y-14247655D03*
%TD*%
D10*
%TO.C,J5*%
X21563427Y6057345D03*
D11*
X21563427Y7327345D03*
X21563427Y8597345D03*
X21563427Y9867345D03*
X21563427Y11137345D03*
X21563427Y12407345D03*
X21563427Y13677345D03*
X21563427Y14947345D03*
%TD*%
D12*
%TO.C,SW2*%
X15250000Y-3997655D03*
X8750000Y-3997655D03*
%TD*%
D14*
%TO.C,U4*%
X-23700000Y-8997655D03*
D15*
X-13500000Y1202345D03*
X-13500000Y-19197655D03*
D14*
X-3300000Y-8997655D03*
D16*
X-20500000Y-497655D03*
D17*
X-18500000Y-497655D03*
X-20500000Y-2497655D03*
X-18500000Y-2497655D03*
X-20500000Y-4497655D03*
X-18500000Y-4497655D03*
X-20500000Y-6497655D03*
X-18500000Y-6497655D03*
%TD*%
D18*
%TO.C,J6*%
X-5750000Y-27475000D03*
D19*
X-3210000Y-27475000D03*
%TD*%
D20*
%TO.C,SW8*%
X-26700000Y-2497655D03*
X-26700000Y2345D03*
X-26700000Y2502345D03*
%TD*%
D12*
%TO.C,SW4*%
X15250000Y-17997655D03*
X8750000Y-17997655D03*
%TD*%
D18*
%TO.C,U3*%
X-3810000Y27502345D03*
D19*
X-1270000Y27502345D03*
X1270000Y27502345D03*
X3810000Y27502345D03*
%TD*%
D13*
%TO.C,SW5*%
X20000000Y-7747655D03*
X20000000Y-14247655D03*
%TD*%
D21*
%TO.C,U1*%
X15900000Y14202345D03*
%TD*%
D18*
%TO.C,J1*%
X26000000Y7622345D03*
D19*
X26000000Y5082345D03*
X26000000Y2542345D03*
X26000000Y2345D03*
X26000000Y-2537655D03*
X26000000Y-5077655D03*
X26000000Y-7617655D03*
%TD*%
D22*
%TO.C,C4*%
X-20500000Y9852345D03*
D23*
X-23000000Y9852345D03*
%TD*%
D24*
%TO.C,BT2*%
X0Y-24247655D03*
X0Y24252345D03*
%TD*%
D25*
%TO.C,3.3V        VBUS*%
X23450000Y652345D03*
D26*
X23450000Y-647655D03*
%TD*%
D25*
%TO.C,JP6*%
X-18850000Y-9047655D03*
D26*
X-18850000Y-10347655D03*
%TD*%
D27*
%TO.C,R19*%
X-21350000Y-17410155D03*
X-21350000Y-15585155D03*
%TD*%
D28*
%TO.C,M2*%
X-3150000Y11502345D03*
D29*
X-1850000Y11502345D03*
%TD*%
D30*
%TO.C,JP7*%
X-21350000Y-13747655D03*
D31*
X-21350000Y-12447655D03*
%TD*%
D32*
%TO.C,FB1*%
X-27537500Y-5497655D03*
X-25962500Y-5497655D03*
%TD*%
D28*
%TO.C,M3*%
X-3150000Y7002345D03*
D29*
X-1850000Y7002345D03*
%TD*%
D24*
%TO.C,BT1*%
X12000000Y24252345D03*
X12000000Y-24247655D03*
%TD*%
%TO.C,BT3*%
X-12000000Y24252345D03*
X-12000000Y-24247655D03*
%TD*%
D30*
%TO.C,JP5*%
X-18850000Y-13747655D03*
D31*
X-18850000Y-12447655D03*
%TD*%
D27*
%TO.C,R18*%
X-18850000Y-17410155D03*
X-18850000Y-15585155D03*
%TD*%
D25*
%TO.C,JP8*%
X-21350000Y-9047655D03*
D26*
X-21350000Y-10347655D03*
%TD*%
D28*
%TO.C,M1*%
X-3150000Y16002345D03*
D29*
X-1850000Y16002345D03*
%TD*%
M02*
