%TF.GenerationSoftware,KiCad,Pcbnew,8.0.1*%
%TF.CreationDate,2024-07-13T16:03:54+09:00*%
%TF.ProjectId,main,6d61696e-2e6b-4696-9361-645f70636258,rev?*%
%TF.SameCoordinates,Original*%
%TF.FileFunction,Soldermask,Top*%
%TF.FilePolarity,Negative*%
%FSLAX46Y46*%
G04 Gerber Fmt 4.6, Leading zero omitted, Abs format (unit mm)*
G04 Created by KiCad (PCBNEW 8.0.1) date 2024-07-13 16:03:54*
%MOMM*%
%LPD*%
G01*
G04 APERTURE LIST*
G04 Aperture macros list*
%AMRoundRect*
0 Rectangle with rounded corners*
0 $1 Rounding radius*
0 $2 $3 $4 $5 $6 $7 $8 $9 X,Y pos of 4 corners*
0 Add a 4 corners polygon primitive as box body*
4,1,4,$2,$3,$4,$5,$6,$7,$8,$9,$2,$3,0*
0 Add four circle primitives for the rounded corners*
1,1,$1+$1,$2,$3*
1,1,$1+$1,$4,$5*
1,1,$1+$1,$6,$7*
1,1,$1+$1,$8,$9*
0 Add four rect primitives between the rounded corners*
20,1,$1+$1,$2,$3,$4,$5,0*
20,1,$1+$1,$4,$5,$6,$7,0*
20,1,$1+$1,$6,$7,$8,$9,0*
20,1,$1+$1,$8,$9,$2,$3,0*%
%AMHorizOval*
0 Thick line with rounded ends*
0 $1 width*
0 $2 $3 position (X,Y) of the first rounded end (center of the circle)*
0 $4 $5 position (X,Y) of the second rounded end (center of the circle)*
0 Add line between two ends*
20,1,$1,$2,$3,$4,$5,0*
0 Add two circle primitives to create the rounded ends*
1,1,$1,$2,$3*
1,1,$1,$4,$5*%
G04 Aperture macros list end*
%ADD10O,1.400000X2.100000*%
%ADD11RoundRect,0.350000X-0.350000X-0.350000X0.350000X-0.350000X0.350000X0.350000X-0.350000X0.350000X0*%
%ADD12RoundRect,0.375000X-0.375000X0.625000X-0.375000X-0.625000X0.375000X-0.625000X0.375000X0.625000X0*%
%ADD13RoundRect,0.500000X-1.400000X0.500000X-1.400000X-0.500000X1.400000X-0.500000X1.400000X0.500000X0*%
%ADD14RoundRect,0.250000X0.475000X-0.250000X0.475000X0.250000X-0.475000X0.250000X-0.475000X-0.250000X0*%
%ADD15R,1.000000X1.000000*%
%ADD16O,1.000000X1.000000*%
%ADD17RoundRect,0.250000X-0.475000X0.250000X-0.475000X-0.250000X0.475000X-0.250000X0.475000X0.250000X0*%
%ADD18RoundRect,0.250000X-0.450000X0.262500X-0.450000X-0.262500X0.450000X-0.262500X0.450000X0.262500X0*%
%ADD19RoundRect,0.250000X0.262500X0.450000X-0.262500X0.450000X-0.262500X-0.450000X0.262500X-0.450000X0*%
%ADD20RoundRect,0.250000X-0.262500X-0.450000X0.262500X-0.450000X0.262500X0.450000X-0.262500X0.450000X0*%
%ADD21RoundRect,0.243750X0.456250X-0.243750X0.456250X0.243750X-0.456250X0.243750X-0.456250X-0.243750X0*%
%ADD22RoundRect,0.250000X-0.250000X-0.475000X0.250000X-0.475000X0.250000X0.475000X-0.250000X0.475000X0*%
%ADD23O,2.100000X1.400000*%
%ADD24RoundRect,0.243750X-0.243750X-0.456250X0.243750X-0.456250X0.243750X0.456250X-0.243750X0.456250X0*%
%ADD25RoundRect,0.250000X0.450000X-0.262500X0.450000X0.262500X-0.450000X0.262500X-0.450000X-0.262500X0*%
%ADD26R,1.350000X1.350000*%
%ADD27C,1.350000*%
%ADD28C,1.500000*%
%ADD29R,1.700000X1.700000*%
%ADD30O,1.700000X1.700000*%
%ADD31HorizOval,3.100000X-0.424264X-0.424264X0.424264X0.424264X0*%
%ADD32O,0.900000X1.400000*%
%ADD33O,1.400000X0.900000*%
%ADD34O,1.200000X0.900000*%
%ADD35R,1.600000X1.600000*%
%ADD36C,1.600000*%
%ADD37O,4.500000X1.800000*%
G04 APERTURE END LIST*
D10*
%TO.C,SW2*%
X14762500Y-4037500D03*
X8262500Y-4037500D03*
%TD*%
D11*
%TO.C,PRG*%
X-2187500Y-4037500D03*
X4212500Y-4037500D03*
%TD*%
%TO.C,RST*%
X-2187500Y462500D03*
X4212500Y462500D03*
%TD*%
D12*
%TO.C,U2*%
X-9187500Y16112500D03*
X-11487500Y16112500D03*
D13*
X-11487500Y9812500D03*
D12*
X-13787500Y16112500D03*
%TD*%
D14*
%TO.C,C7*%
X512500Y-13987500D03*
X512500Y-12087500D03*
%TD*%
D15*
%TO.C,J2*%
X15957499Y20025927D03*
D16*
X14687499Y20025927D03*
X13417499Y20025927D03*
X12147499Y20025927D03*
X10877499Y20025927D03*
X9607499Y20025927D03*
X8337499Y20025927D03*
X7067499Y20025927D03*
%TD*%
D17*
%TO.C,C10*%
X5012498Y20850000D03*
X5012498Y22750000D03*
%TD*%
D18*
%TO.C,R13*%
X22512500Y-8125000D03*
X22512500Y-9950000D03*
%TD*%
D19*
%TO.C,R9*%
X14425000Y-8037500D03*
X12600000Y-8037500D03*
%TD*%
D10*
%TO.C,SW1*%
X14762500Y-11037500D03*
X8262500Y-11037500D03*
%TD*%
D20*
%TO.C,R16*%
X-400000Y-17037500D03*
X1425000Y-17037500D03*
%TD*%
D21*
%TO.C,PWR*%
X-23587500Y3587500D03*
X-23587500Y5462500D03*
%TD*%
D22*
%TO.C,C8*%
X8562500Y-15037500D03*
X10462500Y-15037500D03*
%TD*%
D15*
%TO.C,J3*%
X1949072Y14907500D03*
D16*
X1949072Y13637500D03*
X1949072Y12367500D03*
X1949072Y11097500D03*
X1949072Y9827500D03*
X1949072Y8557500D03*
X1949072Y7287500D03*
X1949072Y6017500D03*
%TD*%
D20*
%TO.C,R14*%
X-3900000Y3712500D03*
X-2075000Y3712500D03*
%TD*%
D15*
%TO.C,J4*%
X7067500Y899072D03*
D16*
X8337500Y899072D03*
X9607500Y899072D03*
X10877500Y899072D03*
X12147500Y899072D03*
X13417500Y899072D03*
X14687500Y899072D03*
X15957500Y899072D03*
%TD*%
D19*
%TO.C,R5*%
X-2075000Y7962500D03*
X-3900000Y7962500D03*
%TD*%
D23*
%TO.C,SW3*%
X3512500Y-7787500D03*
X3512500Y-14287500D03*
%TD*%
D24*
%TO.C,DIO13*%
X-425000Y-19037500D03*
X1450000Y-19037500D03*
%TD*%
D15*
%TO.C,J5*%
X21075927Y6017500D03*
D16*
X21075927Y7287500D03*
X21075927Y8557500D03*
X21075927Y9827500D03*
X21075927Y11097500D03*
X21075927Y12367500D03*
X21075927Y13637500D03*
X21075927Y14907500D03*
%TD*%
D20*
%TO.C,R2*%
X-3900000Y14962500D03*
X-2075000Y14962500D03*
%TD*%
D18*
%TO.C,R11*%
X512500Y-8125000D03*
X512500Y-9950000D03*
%TD*%
D22*
%TO.C,C6*%
X8562500Y-1037500D03*
X10462500Y-1037500D03*
%TD*%
D25*
%TO.C,R7*%
X-7487500Y24550000D03*
X-7487500Y26375000D03*
%TD*%
D20*
%TO.C,R4*%
X-3900000Y10462500D03*
X-2075000Y10462500D03*
%TD*%
%TO.C,R6*%
X-3900000Y5962500D03*
X-2075000Y5962500D03*
%TD*%
D14*
%TO.C,C1*%
X-16487500Y15512500D03*
X-16487500Y17412500D03*
%TD*%
D19*
%TO.C,R1*%
X-2075000Y16962500D03*
X-3900000Y16962500D03*
%TD*%
D17*
%TO.C,C3*%
X-11487500Y6912500D03*
X-11487500Y5012500D03*
%TD*%
D26*
%TO.C,U4*%
X-20987500Y-537500D03*
D27*
X-18987500Y-537500D03*
X-20987500Y-2537500D03*
X-18987500Y-2537500D03*
X-20987500Y-4537500D03*
X-18987500Y-4537500D03*
X-20987500Y-6537500D03*
X-18987500Y-6537500D03*
%TD*%
D25*
%TO.C,R8*%
X6512500Y24550000D03*
X6512500Y26375000D03*
%TD*%
D19*
%TO.C,R12*%
X14425000Y-15037500D03*
X12600000Y-15037500D03*
%TD*%
%TO.C,R3*%
X-2075000Y12462500D03*
X-3900000Y12462500D03*
%TD*%
D28*
%TO.C,SW8*%
X-27187500Y-2537500D03*
X-27187500Y-37500D03*
X-27187500Y2462500D03*
%TD*%
D10*
%TO.C,SW4*%
X14762500Y-18037500D03*
X8262500Y-18037500D03*
%TD*%
D29*
%TO.C,U3*%
X-4297500Y27462500D03*
D30*
X-1757500Y27462500D03*
X782500Y27462500D03*
X3322500Y27462500D03*
%TD*%
D19*
%TO.C,R15*%
X-19075000Y5462500D03*
X-20900000Y5462500D03*
%TD*%
D23*
%TO.C,SW5*%
X19512500Y-7787500D03*
X19512500Y-14287500D03*
%TD*%
D31*
%TO.C,U1*%
X15412500Y14162500D03*
D32*
X15957500Y17197500D03*
X14687500Y17197500D03*
X13417500Y17197500D03*
X12147500Y17197500D03*
X10877500Y17197500D03*
X9607500Y17197500D03*
X8337500Y17197500D03*
X7067500Y17197500D03*
D33*
X4777500Y14907500D03*
X4777500Y13637500D03*
X4777500Y12367500D03*
X4777500Y11097500D03*
X4777500Y9827500D03*
X4777500Y8557500D03*
X4777500Y7287500D03*
X4777500Y6017500D03*
D32*
X7067500Y3727500D03*
X8337500Y3727500D03*
X9607500Y3727500D03*
X10877500Y3727500D03*
X12147500Y3727500D03*
X13417500Y3727500D03*
X14687500Y3727500D03*
X15957500Y3727500D03*
D33*
X18247500Y6017500D03*
X18247500Y7287500D03*
X18247500Y8557500D03*
X18247500Y9827500D03*
X18247500Y11097500D03*
X18247500Y12367500D03*
D34*
X18347500Y13637500D03*
X18347500Y14907500D03*
%TD*%
D29*
%TO.C,J1*%
X25512500Y7582500D03*
D30*
X25512500Y5042500D03*
X25512500Y2502500D03*
X25512500Y-37500D03*
X25512500Y-2577500D03*
X25512500Y-5117500D03*
X25512500Y-7657500D03*
%TD*%
D19*
%TO.C,R10*%
X14425000Y-1037500D03*
X12600000Y-1037500D03*
%TD*%
D22*
%TO.C,C5*%
X8562500Y-8037500D03*
X10462500Y-8037500D03*
%TD*%
D17*
%TO.C,C2*%
X-16487500Y13912500D03*
X-16487500Y12012500D03*
%TD*%
D14*
%TO.C,C9*%
X22512500Y-13987500D03*
X22512500Y-12087500D03*
%TD*%
D35*
%TO.C,C4*%
X-20987500Y9812500D03*
D36*
X-23487500Y9812500D03*
%TD*%
D37*
%TO.C,BT2*%
X-487500Y-24287500D03*
X-487500Y24212500D03*
%TD*%
%TO.C,BT1*%
X11512500Y24212500D03*
X11512500Y-24287500D03*
%TD*%
%TO.C,BT3*%
X-12487500Y24212500D03*
X-12487500Y-24287500D03*
%TD*%
M02*
