%TF.GenerationSoftware,KiCad,Pcbnew,8.0.1*%
%TF.CreationDate,2024-07-13T16:03:54+09:00*%
%TF.ProjectId,main,6d61696e-2e6b-4696-9361-645f70636258,rev?*%
%TF.SameCoordinates,Original*%
%TF.FileFunction,Soldermask,Bot*%
%TF.FilePolarity,Negative*%
%FSLAX46Y46*%
G04 Gerber Fmt 4.6, Leading zero omitted, Abs format (unit mm)*
G04 Created by KiCad (PCBNEW 8.0.1) date 2024-07-13 16:03:54*
%MOMM*%
%LPD*%
G01*
G04 APERTURE LIST*
G04 Aperture macros list*
%AMRoundRect*
0 Rectangle with rounded corners*
0 $1 Rounding radius*
0 $2 $3 $4 $5 $6 $7 $8 $9 X,Y pos of 4 corners*
0 Add a 4 corners polygon primitive as box body*
4,1,4,$2,$3,$4,$5,$6,$7,$8,$9,$2,$3,0*
0 Add four circle primitives for the rounded corners*
1,1,$1+$1,$2,$3*
1,1,$1+$1,$4,$5*
1,1,$1+$1,$6,$7*
1,1,$1+$1,$8,$9*
0 Add four rect primitives between the rounded corners*
20,1,$1+$1,$2,$3,$4,$5,0*
20,1,$1+$1,$4,$5,$6,$7,0*
20,1,$1+$1,$6,$7,$8,$9,0*
20,1,$1+$1,$8,$9,$2,$3,0*%
%AMHorizOval*
0 Thick line with rounded ends*
0 $1 width*
0 $2 $3 position (X,Y) of the first rounded end (center of the circle)*
0 $4 $5 position (X,Y) of the second rounded end (center of the circle)*
0 Add line between two ends*
20,1,$1,$2,$3,$4,$5,0*
0 Add two circle primitives to create the rounded ends*
1,1,$1,$2,$3*
1,1,$1,$4,$5*%
%AMFreePoly0*
4,1,19,0.000000,0.744911,0.071157,0.744911,0.207708,0.704816,0.327430,0.627875,0.420627,0.520320,0.479746,0.390866,0.500000,0.250000,0.500000,-0.250000,0.479746,-0.390866,0.420627,-0.520320,0.327430,-0.627875,0.207708,-0.704816,0.071157,-0.744911,0.000000,-0.744911,0.000000,-0.750000,-0.500000,-0.750000,-0.500000,0.750000,0.000000,0.750000,0.000000,0.744911,0.000000,0.744911,
$1*%
%AMFreePoly1*
4,1,19,0.500000,-0.750000,0.000000,-0.750000,0.000000,-0.744911,-0.071157,-0.744911,-0.207708,-0.704816,-0.327430,-0.627875,-0.420627,-0.520320,-0.479746,-0.390866,-0.500000,-0.250000,-0.500000,0.250000,-0.479746,0.390866,-0.420627,0.520320,-0.327430,0.627875,-0.207708,0.704816,-0.071157,0.744911,0.000000,0.744911,0.000000,0.750000,0.500000,0.750000,0.500000,-0.750000,0.500000,-0.750000,
$1*%
G04 Aperture macros list end*
%ADD10O,1.400000X2.100000*%
%ADD11R,1.000000X1.000000*%
%ADD12O,1.000000X1.000000*%
%ADD13O,2.100000X1.400000*%
%ADD14R,1.350000X1.350000*%
%ADD15C,1.350000*%
%ADD16C,1.500000*%
%ADD17R,1.700000X1.700000*%
%ADD18O,1.700000X1.700000*%
%ADD19HorizOval,3.100000X-0.424264X-0.424264X0.424264X0.424264X0*%
%ADD20R,1.600000X1.600000*%
%ADD21C,1.600000*%
%ADD22O,4.500000X1.800000*%
%ADD23FreePoly0,270.000000*%
%ADD24FreePoly1,270.000000*%
%ADD25FreePoly1,0.000000*%
%ADD26FreePoly0,0.000000*%
%ADD27RoundRect,0.218750X-0.218750X-0.256250X0.218750X-0.256250X0.218750X0.256250X-0.218750X0.256250X0*%
G04 APERTURE END LIST*
D10*
%TO.C,SW2*%
X14762500Y-4037500D03*
X8262500Y-4037500D03*
%TD*%
D11*
%TO.C,J2*%
X15957499Y20025927D03*
D12*
X14687499Y20025927D03*
X13417499Y20025927D03*
X12147499Y20025927D03*
X10877499Y20025927D03*
X9607499Y20025927D03*
X8337499Y20025927D03*
X7067499Y20025927D03*
%TD*%
D10*
%TO.C,SW1*%
X14762500Y-11037500D03*
X8262500Y-11037500D03*
%TD*%
D11*
%TO.C,J3*%
X1949072Y14907500D03*
D12*
X1949072Y13637500D03*
X1949072Y12367500D03*
X1949072Y11097500D03*
X1949072Y9827500D03*
X1949072Y8557500D03*
X1949072Y7287500D03*
X1949072Y6017500D03*
%TD*%
D11*
%TO.C,J4*%
X7067500Y899072D03*
D12*
X8337500Y899072D03*
X9607500Y899072D03*
X10877500Y899072D03*
X12147500Y899072D03*
X13417500Y899072D03*
X14687500Y899072D03*
X15957500Y899072D03*
%TD*%
D13*
%TO.C,SW3*%
X3512500Y-7787500D03*
X3512500Y-14287500D03*
%TD*%
D11*
%TO.C,J5*%
X21075927Y6017500D03*
D12*
X21075927Y7287500D03*
X21075927Y8557500D03*
X21075927Y9827500D03*
X21075927Y11097500D03*
X21075927Y12367500D03*
X21075927Y13637500D03*
X21075927Y14907500D03*
%TD*%
D14*
%TO.C,U4*%
X-20987500Y-537500D03*
D15*
X-18987500Y-537500D03*
X-20987500Y-2537500D03*
X-18987500Y-2537500D03*
X-20987500Y-4537500D03*
X-18987500Y-4537500D03*
X-20987500Y-6537500D03*
X-18987500Y-6537500D03*
%TD*%
D16*
%TO.C,SW8*%
X-27187500Y-2537500D03*
X-27187500Y-37500D03*
X-27187500Y2462500D03*
%TD*%
D10*
%TO.C,SW4*%
X14762500Y-18037500D03*
X8262500Y-18037500D03*
%TD*%
D17*
%TO.C,U3*%
X-4297500Y27462500D03*
D18*
X-1757500Y27462500D03*
X782500Y27462500D03*
X3322500Y27462500D03*
%TD*%
D13*
%TO.C,SW5*%
X19512500Y-7787500D03*
X19512500Y-14287500D03*
%TD*%
D19*
%TO.C,U1*%
X15412500Y14162500D03*
%TD*%
D17*
%TO.C,J1*%
X25512500Y7582500D03*
D18*
X25512500Y5042500D03*
X25512500Y2502500D03*
X25512500Y-37500D03*
X25512500Y-2577500D03*
X25512500Y-5117500D03*
X25512500Y-7657500D03*
%TD*%
D20*
%TO.C,C4*%
X-20987500Y9812500D03*
D21*
X-23487500Y9812500D03*
%TD*%
D22*
%TO.C,BT2*%
X-487500Y-24287500D03*
X-487500Y24212500D03*
%TD*%
D23*
%TO.C,3.3V        VBUS*%
X22962500Y-687500D03*
D24*
X22962500Y612500D03*
%TD*%
D25*
%TO.C,M2*%
X-3637500Y11462500D03*
D26*
X-2337500Y11462500D03*
%TD*%
D25*
%TO.C,M3*%
X-3637500Y6962500D03*
D26*
X-2337500Y6962500D03*
%TD*%
D22*
%TO.C,BT1*%
X11512500Y24212500D03*
X11512500Y-24287500D03*
%TD*%
%TO.C,BT3*%
X-12487500Y24212500D03*
X-12487500Y-24287500D03*
%TD*%
D27*
%TO.C,FB1*%
X-27975000Y-5537500D03*
X-26400000Y-5537500D03*
%TD*%
D25*
%TO.C,M1*%
X-3637500Y15962500D03*
D26*
X-2337500Y15962500D03*
%TD*%
M02*
