%TF.GenerationSoftware,KiCad,Pcbnew,8.0.1*%
%TF.CreationDate,2024-08-14T10:44:39+09:00*%
%TF.ProjectId,main,6d61696e-2e6b-4696-9361-645f70636258,rev?*%
%TF.SameCoordinates,Original*%
%TF.FileFunction,Legend,Top*%
%TF.FilePolarity,Positive*%
%FSLAX46Y46*%
G04 Gerber Fmt 4.6, Leading zero omitted, Abs format (unit mm)*
G04 Created by KiCad (PCBNEW 8.0.1) date 2024-08-14 10:44:39*
%MOMM*%
%LPD*%
G01*
G04 APERTURE LIST*
G04 Aperture macros list*
%AMRoundRect*
0 Rectangle with rounded corners*
0 $1 Rounding radius*
0 $2 $3 $4 $5 $6 $7 $8 $9 X,Y pos of 4 corners*
0 Add a 4 corners polygon primitive as box body*
4,1,4,$2,$3,$4,$5,$6,$7,$8,$9,$2,$3,0*
0 Add four circle primitives for the rounded corners*
1,1,$1+$1,$2,$3*
1,1,$1+$1,$4,$5*
1,1,$1+$1,$6,$7*
1,1,$1+$1,$8,$9*
0 Add four rect primitives between the rounded corners*
20,1,$1+$1,$2,$3,$4,$5,0*
20,1,$1+$1,$4,$5,$6,$7,0*
20,1,$1+$1,$6,$7,$8,$9,0*
20,1,$1+$1,$8,$9,$2,$3,0*%
%AMHorizOval*
0 Thick line with rounded ends*
0 $1 width*
0 $2 $3 position (X,Y) of the first rounded end (center of the circle)*
0 $4 $5 position (X,Y) of the second rounded end (center of the circle)*
0 Add line between two ends*
20,1,$1,$2,$3,$4,$5,0*
0 Add two circle primitives to create the rounded ends*
1,1,$1,$2,$3*
1,1,$1,$4,$5*%
G04 Aperture macros list end*
%ADD10C,0.100000*%
%ADD11C,0.300000*%
%ADD12C,0.150000*%
%ADD13C,0.120000*%
%ADD14RoundRect,0.250000X-0.262500X-0.450000X0.262500X-0.450000X0.262500X0.450000X-0.262500X0.450000X0*%
%ADD15RoundRect,0.350000X-0.350000X-0.350000X0.350000X-0.350000X0.350000X0.350000X-0.350000X0.350000X0*%
%ADD16RoundRect,0.375000X-0.375000X0.625000X-0.375000X-0.625000X0.375000X-0.625000X0.375000X0.625000X0*%
%ADD17RoundRect,0.500000X-1.400000X0.500000X-1.400000X-0.500000X1.400000X-0.500000X1.400000X0.500000X0*%
%ADD18RoundRect,0.250000X0.475000X-0.250000X0.475000X0.250000X-0.475000X0.250000X-0.475000X-0.250000X0*%
%ADD19RoundRect,0.243750X-0.243750X-0.456250X0.243750X-0.456250X0.243750X0.456250X-0.243750X0.456250X0*%
%ADD20R,1.000000X1.000000*%
%ADD21O,1.000000X1.000000*%
%ADD22RoundRect,0.250000X-0.475000X0.250000X-0.475000X-0.250000X0.475000X-0.250000X0.475000X0.250000X0*%
%ADD23RoundRect,0.250000X-0.450000X0.262500X-0.450000X-0.262500X0.450000X-0.262500X0.450000X0.262500X0*%
%ADD24RoundRect,0.250000X0.262500X0.450000X-0.262500X0.450000X-0.262500X-0.450000X0.262500X-0.450000X0*%
%ADD25O,1.400000X2.100000*%
%ADD26RoundRect,0.243750X0.456250X-0.243750X0.456250X0.243750X-0.456250X0.243750X-0.456250X-0.243750X0*%
%ADD27RoundRect,0.250000X-0.250000X-0.475000X0.250000X-0.475000X0.250000X0.475000X-0.250000X0.475000X0*%
%ADD28O,2.100000X1.400000*%
%ADD29RoundRect,0.250000X0.450000X-0.262500X0.450000X0.262500X-0.450000X0.262500X-0.450000X-0.262500X0*%
%ADD30O,1.000000X3.000000*%
%ADD31O,3.000000X1.000000*%
%ADD32R,1.350000X1.350000*%
%ADD33C,1.350000*%
%ADD34R,1.700000X1.700000*%
%ADD35O,1.700000X1.700000*%
%ADD36C,1.500000*%
%ADD37HorizOval,3.100000X-0.424264X-0.424264X0.424264X0.424264X0*%
%ADD38O,0.900000X1.400000*%
%ADD39O,1.400000X0.900000*%
%ADD40O,1.200000X0.900000*%
%ADD41R,1.600000X1.600000*%
%ADD42C,1.600000*%
%ADD43O,4.500000X1.800000*%
%ADD44RoundRect,0.218750X-0.218750X-0.256250X0.218750X-0.256250X0.218750X0.256250X-0.218750X0.256250X0*%
G04 APERTURE END LIST*
D10*
X26000000Y10002345D02*
X25500000Y11002345D01*
X26500000Y11002345D01*
X26000000Y10002345D01*
G36*
X26000000Y10002345D02*
G01*
X25500000Y11002345D01*
X26500000Y11002345D01*
X26000000Y10002345D01*
G37*
G36*
X1080270Y28951483D02*
G01*
X1298330Y28888370D01*
X1287540Y28850050D01*
X1272232Y28809759D01*
X1253749Y28773205D01*
X1232091Y28740388D01*
X1229161Y28736549D01*
X1200754Y28704716D01*
X1168731Y28677583D01*
X1133091Y28655147D01*
X1111729Y28644714D01*
X1074360Y28631207D01*
X1032203Y28621559D01*
X991389Y28616283D01*
X946911Y28613962D01*
X933529Y28613841D01*
X893670Y28614762D01*
X848937Y28618297D01*
X807583Y28624484D01*
X763609Y28635054D01*
X724235Y28649232D01*
X718986Y28651552D01*
X683654Y28670876D01*
X650491Y28695679D01*
X619498Y28725960D01*
X594658Y28756277D01*
X575176Y28784616D01*
X554657Y28822241D01*
X538384Y28863604D01*
X526356Y28908703D01*
X519575Y28949141D01*
X515743Y28992173D01*
X514799Y29028468D01*
X516460Y29076520D01*
X521443Y29121708D01*
X529747Y29164032D01*
X541373Y29203492D01*
X556320Y29240089D01*
X579676Y29281808D01*
X608222Y29319052D01*
X621094Y29332697D01*
X656467Y29363375D01*
X696153Y29388854D01*
X740151Y29409132D01*
X778454Y29421612D01*
X819517Y29430763D01*
X863341Y29436587D01*
X909924Y29439083D01*
X922001Y29439187D01*
X967974Y29437679D01*
X1010760Y29433157D01*
X1050360Y29425620D01*
X1093673Y29412596D01*
X1132398Y29395230D01*
X1161163Y29377442D01*
X1192270Y29351959D01*
X1220230Y29321819D01*
X1245045Y29287021D01*
X1266713Y29247566D01*
X1282366Y29211129D01*
X1290710Y29187714D01*
X1070891Y29139061D01*
X1056788Y29175562D01*
X1046662Y29192599D01*
X1018529Y29221628D01*
X995469Y29236172D01*
X957188Y29249061D01*
X928058Y29251608D01*
X888222Y29247444D01*
X849304Y29232804D01*
X816630Y29207622D01*
X798316Y29184979D01*
X780387Y29148567D01*
X769929Y29106367D01*
X765513Y29067369D01*
X764318Y29029640D01*
X765746Y28983439D01*
X770033Y28943023D01*
X778646Y28903180D01*
X795434Y28863522D01*
X804960Y28850073D01*
X836803Y28822373D01*
X876450Y28806171D01*
X919265Y28801420D01*
X960546Y28805160D01*
X998065Y28817913D01*
X1027318Y28839717D01*
X1051892Y28873478D01*
X1068047Y28909084D01*
X1079225Y28946937D01*
X1080270Y28951483D01*
G37*
G36*
X1414590Y29426681D02*
G01*
X1663522Y29426681D01*
X1663522Y28826430D01*
X2051966Y28826430D01*
X2051966Y28626347D01*
X1414590Y28626347D01*
X1414590Y29426681D01*
G37*
G36*
X-4690252Y28888956D02*
G01*
X-4690252Y29076535D01*
X-4305716Y29076535D01*
X-4305716Y28751790D01*
X-4339595Y28728005D01*
X-4378613Y28702762D01*
X-4415845Y28681119D01*
X-4451290Y28663076D01*
X-4490386Y28646574D01*
X-4501110Y28642760D01*
X-4539735Y28631492D01*
X-4581407Y28622991D01*
X-4626128Y28617258D01*
X-4666886Y28614547D01*
X-4702562Y28613841D01*
X-4746087Y28615024D01*
X-4787028Y28618573D01*
X-4832743Y28625956D01*
X-4874735Y28636745D01*
X-4913004Y28650942D01*
X-4936449Y28662299D01*
X-4974007Y28685762D01*
X-5007695Y28713750D01*
X-5037512Y28746264D01*
X-5063458Y28783303D01*
X-5076546Y28806500D01*
X-5093413Y28843466D01*
X-5106790Y28882411D01*
X-5116677Y28923334D01*
X-5123075Y28966235D01*
X-5125983Y29011114D01*
X-5126176Y29026514D01*
X-5124850Y29066529D01*
X-5119758Y29112343D01*
X-5110846Y29155752D01*
X-5098115Y29196758D01*
X-5081564Y29235359D01*
X-5071857Y29253758D01*
X-5049641Y29288386D01*
X-5023881Y29319731D01*
X-4994577Y29347792D01*
X-4961728Y29372569D01*
X-4925334Y29394064D01*
X-4912415Y29400499D01*
X-4873885Y29415573D01*
X-4829933Y29426946D01*
X-4787943Y29433746D01*
X-4741969Y29437827D01*
X-4700613Y29439149D01*
X-4692010Y29439187D01*
X-4651947Y29438576D01*
X-4608203Y29436231D01*
X-4569185Y29432128D01*
X-4529638Y29425118D01*
X-4492317Y29414176D01*
X-4453132Y29395957D01*
X-4418373Y29372319D01*
X-4388041Y29343262D01*
X-4382506Y29336800D01*
X-4359602Y29305119D01*
X-4340129Y29268986D01*
X-4324087Y29228402D01*
X-4316658Y29203932D01*
X-4556797Y29164072D01*
X-4575270Y29199443D01*
X-4605007Y29227519D01*
X-4607209Y29228942D01*
X-4644659Y29245211D01*
X-4684060Y29251254D01*
X-4697481Y29251608D01*
X-4740906Y29247389D01*
X-4779075Y29234730D01*
X-4811990Y29213633D01*
X-4828005Y29198266D01*
X-4851524Y29163345D01*
X-4865968Y29124053D01*
X-4873617Y29083300D01*
X-4876468Y29043637D01*
X-4876658Y29029445D01*
X-4874927Y28985829D01*
X-4868532Y28941195D01*
X-4857424Y28903293D01*
X-4838959Y28868220D01*
X-4827419Y28853981D01*
X-4796661Y28828573D01*
X-4759783Y28811480D01*
X-4716785Y28802703D01*
X-4690252Y28801420D01*
X-4649561Y28803471D01*
X-4610726Y28809626D01*
X-4572644Y28819853D01*
X-4532841Y28833969D01*
X-4523776Y28837568D01*
X-4523776Y28888956D01*
X-4690252Y28888956D01*
G37*
G36*
X-4161319Y29426681D02*
G01*
X-3928800Y29426681D01*
X-3625353Y28975711D01*
X-3625353Y29426681D01*
X-3390880Y29426681D01*
X-3390880Y28626347D01*
X-3625353Y28626347D01*
X-3927237Y29074972D01*
X-3927237Y28626347D01*
X-4161319Y28626347D01*
X-4161319Y29426681D01*
G37*
G36*
X-2817769Y29425644D02*
G01*
X-2775413Y29421812D01*
X-2731908Y29413975D01*
X-2693629Y29402450D01*
X-2680622Y29397177D01*
X-2644558Y29378556D01*
X-2612203Y29355885D01*
X-2583558Y29329165D01*
X-2569247Y29312571D01*
X-2546434Y29280139D01*
X-2527454Y29244833D01*
X-2512307Y29206651D01*
X-2505548Y29184197D01*
X-2496009Y29142396D01*
X-2489591Y29099203D01*
X-2486507Y29059642D01*
X-2485814Y29029250D01*
X-2486851Y28983136D01*
X-2489963Y28941075D01*
X-2496215Y28897126D01*
X-2505291Y28858694D01*
X-2515318Y28830143D01*
X-2533613Y28792258D01*
X-2555524Y28757960D01*
X-2581052Y28727247D01*
X-2596797Y28711734D01*
X-2630167Y28685046D01*
X-2665063Y28664580D01*
X-2701486Y28650333D01*
X-2708954Y28648231D01*
X-2748924Y28638656D01*
X-2791584Y28631155D01*
X-2831803Y28627116D01*
X-2857258Y28626347D01*
X-3227139Y28626347D01*
X-3227139Y29239103D01*
X-2978207Y29239103D01*
X-2978207Y28813925D01*
X-2917244Y28813925D01*
X-2876945Y28815239D01*
X-2837346Y28820413D01*
X-2806260Y28830534D01*
X-2775255Y28855391D01*
X-2754676Y28888956D01*
X-2743245Y28927571D01*
X-2737750Y28970833D01*
X-2735991Y29012696D01*
X-2735918Y29024169D01*
X-2737388Y29067803D01*
X-2742819Y29111764D01*
X-2753926Y29152846D01*
X-2772669Y29187385D01*
X-2777733Y29193381D01*
X-2809125Y29217492D01*
X-2846580Y29231557D01*
X-2887192Y29237987D01*
X-2916072Y29239103D01*
X-2978207Y29239103D01*
X-3227139Y29239103D01*
X-3227139Y29426681D01*
X-2857258Y29426681D01*
X-2817769Y29425644D01*
G37*
G36*
X3458308Y29425644D02*
G01*
X3500664Y29421812D01*
X3544169Y29413975D01*
X3582448Y29402450D01*
X3595455Y29397177D01*
X3631519Y29378556D01*
X3663874Y29355885D01*
X3692519Y29329165D01*
X3706830Y29312571D01*
X3729643Y29280139D01*
X3748623Y29244833D01*
X3763770Y29206651D01*
X3770529Y29184197D01*
X3780068Y29142396D01*
X3786486Y29099203D01*
X3789570Y29059642D01*
X3790263Y29029250D01*
X3789226Y28983136D01*
X3786114Y28941075D01*
X3779862Y28897126D01*
X3770786Y28858694D01*
X3760759Y28830143D01*
X3742464Y28792258D01*
X3720553Y28757960D01*
X3695025Y28727247D01*
X3679280Y28711734D01*
X3645910Y28685046D01*
X3611014Y28664580D01*
X3574591Y28650333D01*
X3567123Y28648231D01*
X3527153Y28638656D01*
X3484493Y28631155D01*
X3444274Y28627116D01*
X3418819Y28626347D01*
X3048938Y28626347D01*
X3048938Y29239103D01*
X3297870Y29239103D01*
X3297870Y28813925D01*
X3358833Y28813925D01*
X3399132Y28815239D01*
X3438731Y28820413D01*
X3469817Y28830534D01*
X3500822Y28855391D01*
X3521401Y28888956D01*
X3532832Y28927571D01*
X3538327Y28970833D01*
X3540086Y29012696D01*
X3540159Y29024169D01*
X3538689Y29067803D01*
X3533258Y29111764D01*
X3522151Y29152846D01*
X3503408Y29187385D01*
X3498344Y29193381D01*
X3466952Y29217492D01*
X3429497Y29231557D01*
X3388885Y29237987D01*
X3360005Y29239103D01*
X3297870Y29239103D01*
X3048938Y29239103D01*
X3048938Y29426681D01*
X3418819Y29426681D01*
X3458308Y29425644D01*
G37*
G36*
X4664262Y28626347D02*
G01*
X4403802Y28626347D01*
X4364332Y28763904D01*
X4080815Y28763904D01*
X4041736Y28626347D01*
X3787333Y28626347D01*
X3905561Y28938977D01*
X4134548Y28938977D01*
X4312162Y28938977D01*
X4223062Y29222299D01*
X4134548Y28938977D01*
X3905561Y28938977D01*
X4089998Y29426681D01*
X4361596Y29426681D01*
X4664262Y28626347D01*
G37*
G36*
X16836301Y20976236D02*
G01*
X16037178Y20976236D01*
X16037178Y21603187D01*
X16148289Y21603187D01*
X16160252Y21606984D01*
X16210945Y21624327D01*
X16261244Y21644095D01*
X16309245Y21666446D01*
X16313264Y21668527D01*
X16358040Y21694027D01*
X16399647Y21721366D01*
X16442113Y21752664D01*
X16442113Y21087347D01*
X16725190Y21087347D01*
X16725190Y22103397D01*
X16493648Y22103397D01*
X16469163Y22058593D01*
X16440403Y22017484D01*
X16407369Y21980069D01*
X16370061Y21946349D01*
X16338228Y21923179D01*
X16295402Y21897776D01*
X16246451Y21874125D01*
X16199620Y21855249D01*
X16148289Y21837661D01*
X16148289Y21603187D01*
X16037178Y21603187D01*
X16037178Y22214508D01*
X16836301Y22214508D01*
X16836301Y20976236D01*
G37*
D11*
G36*
X-27788444Y6448698D02*
G01*
X-27716659Y6440856D01*
X-27649378Y6427785D01*
X-27586600Y6409486D01*
X-27528325Y6385958D01*
X-27461814Y6349197D01*
X-27402340Y6304266D01*
X-27380520Y6284006D01*
X-27331530Y6228546D01*
X-27290843Y6166542D01*
X-27258460Y6097993D01*
X-27238532Y6038442D01*
X-27223918Y5974703D01*
X-27214618Y5906775D01*
X-27210632Y5834659D01*
X-27210466Y5815976D01*
X-27212285Y5749580D01*
X-27217741Y5687015D01*
X-27229090Y5616994D01*
X-27245676Y5552490D01*
X-27267501Y5493503D01*
X-27284960Y5457244D01*
X-27320588Y5399034D01*
X-27362556Y5346756D01*
X-27410865Y5300409D01*
X-27465514Y5259994D01*
X-27499589Y5239562D01*
X-27564214Y5209227D01*
X-27624886Y5189156D01*
X-27690430Y5174559D01*
X-27760848Y5165435D01*
X-27823252Y5162014D01*
X-27849161Y5161710D01*
X-27913959Y5163350D01*
X-27975165Y5168269D01*
X-28043869Y5178502D01*
X-28107399Y5193457D01*
X-28165756Y5213135D01*
X-28201787Y5228877D01*
X-28260301Y5262002D01*
X-28313760Y5302608D01*
X-28362165Y5350693D01*
X-28405515Y5406258D01*
X-28428017Y5441368D01*
X-28457483Y5498545D01*
X-28480853Y5560852D01*
X-28498127Y5628289D01*
X-28509304Y5700857D01*
X-28513961Y5765250D01*
X-28514723Y5805595D01*
X-28125766Y5805595D01*
X-28123276Y5739117D01*
X-28114076Y5670919D01*
X-28095262Y5605321D01*
X-28063513Y5547262D01*
X-28054936Y5536623D01*
X-28005688Y5493475D01*
X-27946481Y5466308D01*
X-27884682Y5455521D01*
X-27862289Y5454801D01*
X-27796199Y5461129D01*
X-27733301Y5483001D01*
X-27681495Y5520496D01*
X-27668116Y5534791D01*
X-27634910Y5590003D01*
X-27614517Y5655949D01*
X-27603716Y5726674D01*
X-27599691Y5796970D01*
X-27599423Y5822387D01*
X-27601945Y5884569D01*
X-27611264Y5948758D01*
X-27630321Y6011097D01*
X-27662481Y6067178D01*
X-27671169Y6077621D01*
X-27720990Y6120125D01*
X-27780768Y6146886D01*
X-27843083Y6157512D01*
X-27865648Y6158221D01*
X-27928118Y6151749D01*
X-27988976Y6129376D01*
X-28040830Y6091022D01*
X-28054631Y6076400D01*
X-28089017Y6021898D01*
X-28110136Y5959221D01*
X-28121320Y5893389D01*
X-28125488Y5828800D01*
X-28125766Y5805595D01*
X-28514723Y5805595D01*
X-28512042Y5879808D01*
X-28503999Y5949794D01*
X-28490594Y6015553D01*
X-28471828Y6077086D01*
X-28447699Y6134393D01*
X-28409998Y6200082D01*
X-28363920Y6259168D01*
X-28343142Y6280953D01*
X-28286141Y6330031D01*
X-28222565Y6370791D01*
X-28166971Y6397410D01*
X-28107170Y6418704D01*
X-28043161Y6434676D01*
X-27974945Y6445323D01*
X-27902521Y6450647D01*
X-27864732Y6451312D01*
X-27788444Y6448698D01*
G37*
G36*
X-27007134Y6431773D02*
G01*
X-26045428Y6431773D01*
X-26045428Y6138681D01*
X-26616651Y6138681D01*
X-26616651Y5943287D01*
X-26128776Y5943287D01*
X-26128776Y5689275D01*
X-26616651Y5689275D01*
X-26616651Y5181250D01*
X-27007134Y5181250D01*
X-27007134Y6431773D01*
G37*
G36*
X-25840874Y6431773D02*
G01*
X-24879168Y6431773D01*
X-24879168Y6138681D01*
X-25450391Y6138681D01*
X-25450391Y5943287D01*
X-24962516Y5943287D01*
X-24962516Y5689275D01*
X-25450391Y5689275D01*
X-25450391Y5181250D01*
X-25840874Y5181250D01*
X-25840874Y6431773D01*
G37*
D10*
G36*
X23712159Y5007808D02*
G01*
X22458255Y5007808D01*
X22458255Y5532423D01*
X22569366Y5532423D01*
X22569549Y5515276D01*
X22573075Y5458328D01*
X22581090Y5406149D01*
X22595744Y5352355D01*
X22616261Y5304788D01*
X22635415Y5272874D01*
X22669684Y5230349D01*
X22710599Y5194238D01*
X22752548Y5167524D01*
X22780592Y5153522D01*
X22832002Y5134298D01*
X22884611Y5122764D01*
X22938417Y5118919D01*
X22972061Y5120393D01*
X23027413Y5130060D01*
X23078276Y5148750D01*
X23124652Y5176462D01*
X23166540Y5213197D01*
X23201847Y5257072D01*
X23228483Y5306416D01*
X23244411Y5353064D01*
X23253968Y5403731D01*
X23257154Y5458417D01*
X23254524Y5500535D01*
X23245186Y5548787D01*
X23230409Y5594705D01*
X23209526Y5641111D01*
X23350943Y5616931D01*
X23350943Y5167035D01*
X23585416Y5167035D01*
X23585416Y5831376D01*
X23035870Y5919792D01*
X23005095Y5681655D01*
X23024134Y5661138D01*
X23051746Y5619862D01*
X23062611Y5591090D01*
X23069575Y5541460D01*
X23069247Y5529687D01*
X23059029Y5480706D01*
X23032206Y5439122D01*
X23010835Y5422239D01*
X22964646Y5405091D01*
X22914481Y5400531D01*
X22886446Y5401871D01*
X22838566Y5412587D01*
X22796512Y5438633D01*
X22791720Y5443475D01*
X22765638Y5484838D01*
X22756944Y5535109D01*
X22763921Y5580944D01*
X22788696Y5625235D01*
X22792810Y5629859D01*
X22833965Y5659092D01*
X22881997Y5673351D01*
X22854153Y5956428D01*
X22823562Y5946950D01*
X22776450Y5928362D01*
X22733009Y5904893D01*
X22718141Y5894746D01*
X22679111Y5861514D01*
X22646302Y5824293D01*
X22626240Y5794585D01*
X22604178Y5749746D01*
X22588661Y5703393D01*
X22584139Y5685120D01*
X22575471Y5635566D01*
X22570892Y5586235D01*
X22569366Y5532423D01*
X22458255Y5532423D01*
X22458255Y6898229D01*
X22584998Y6898229D01*
X22584998Y6058766D01*
X22819471Y6058766D01*
X22819471Y6495716D01*
X22847297Y6466055D01*
X22879554Y6428794D01*
X22901616Y6399496D01*
X22930349Y6358821D01*
X22959910Y6315709D01*
X22990276Y6273440D01*
X23025676Y6228400D01*
X23059943Y6189560D01*
X23098488Y6152082D01*
X23140650Y6119582D01*
X23166563Y6104032D01*
X23214167Y6082684D01*
X23263008Y6069874D01*
X23313085Y6065605D01*
X23323645Y6065789D01*
X23374497Y6072234D01*
X23422106Y6087885D01*
X23466470Y6112744D01*
X23474880Y6118744D01*
X23512781Y6152895D01*
X23543764Y6193963D01*
X23567831Y6241948D01*
X23575616Y6263487D01*
X23588072Y6312702D01*
X23595566Y6362477D01*
X23599880Y6418517D01*
X23601048Y6471536D01*
X23600909Y6489004D01*
X23598834Y6538520D01*
X23593266Y6590819D01*
X23582752Y6643377D01*
X23565633Y6693309D01*
X23561115Y6703152D01*
X23534892Y6748160D01*
X23502611Y6786156D01*
X23464272Y6817140D01*
X23428047Y6837412D01*
X23379522Y6856131D01*
X23329479Y6869137D01*
X23280357Y6877712D01*
X23257154Y6597321D01*
X23283114Y6593115D01*
X23334909Y6578592D01*
X23378787Y6551648D01*
X23404799Y6512752D01*
X23413469Y6463965D01*
X23407345Y6422237D01*
X23381473Y6378480D01*
X23353260Y6356499D01*
X23304048Y6344530D01*
X23258294Y6354249D01*
X23215633Y6378968D01*
X23178591Y6412982D01*
X23145199Y6450916D01*
X23111522Y6493224D01*
X23079345Y6536261D01*
X23043262Y6584575D01*
X23008286Y6628890D01*
X22974416Y6669205D01*
X22941653Y6705521D01*
X22902256Y6745292D01*
X22864588Y6778813D01*
X22821669Y6810790D01*
X22793714Y6828131D01*
X22743674Y6854070D01*
X22692208Y6874400D01*
X22639316Y6889119D01*
X22584998Y6898229D01*
X22458255Y6898229D01*
X22458255Y7009340D01*
X23712159Y7009340D01*
X23712159Y5007808D01*
G37*
G36*
X755217Y15120435D02*
G01*
X803511Y15109951D01*
X845912Y15081726D01*
X850466Y15076764D01*
X875260Y15034622D01*
X883525Y14983785D01*
X883487Y14980231D01*
X873816Y14931395D01*
X844690Y14888530D01*
X828908Y14875581D01*
X782599Y14855786D01*
X732339Y14850428D01*
X714654Y14851001D01*
X665086Y14860768D01*
X622918Y14887065D01*
X595624Y14928647D01*
X586526Y14979633D01*
X586683Y14986950D01*
X597900Y15037333D01*
X626826Y15079772D01*
X643020Y15093800D01*
X689222Y15115245D01*
X738201Y15121049D01*
X755217Y15120435D01*
G37*
G36*
X1541740Y14473581D02*
G01*
X287836Y14473581D01*
X287836Y14971328D01*
X398947Y14971328D01*
X400922Y14918426D01*
X408017Y14862918D01*
X420271Y14812692D01*
X440224Y14762501D01*
X454013Y14737421D01*
X483701Y14696664D01*
X519649Y14661549D01*
X561857Y14632075D01*
X587398Y14618425D01*
X635535Y14599684D01*
X686454Y14588440D01*
X740155Y14584692D01*
X783747Y14586964D01*
X832863Y14595688D01*
X885759Y14614136D01*
X933909Y14641489D01*
X977314Y14677749D01*
X1004334Y14707860D01*
X1034467Y14753483D01*
X1055625Y14803149D01*
X1067806Y14856860D01*
X1071104Y14906116D01*
X1070471Y14927387D01*
X1062912Y14978896D01*
X1045214Y15028237D01*
X1028156Y15057818D01*
X998080Y15096538D01*
X963148Y15131308D01*
X1019940Y15125689D01*
X1076257Y15117897D01*
X1127510Y15107360D01*
X1175151Y15090031D01*
X1198226Y15074878D01*
X1231844Y15034860D01*
X1243051Y14985006D01*
X1241738Y14966917D01*
X1222046Y14921259D01*
X1195470Y14900085D01*
X1149261Y14884134D01*
X1180036Y14605941D01*
X1229090Y14623434D01*
X1276823Y14647470D01*
X1318033Y14676527D01*
X1349956Y14707644D01*
X1379121Y14747108D01*
X1402053Y14792054D01*
X1414555Y14829912D01*
X1424350Y14880092D01*
X1429262Y14931444D01*
X1430629Y14981587D01*
X1430139Y15006671D01*
X1424622Y15066344D01*
X1412975Y15121675D01*
X1395198Y15172666D01*
X1371291Y15219315D01*
X1341255Y15261624D01*
X1305088Y15299591D01*
X1280278Y15320106D01*
X1233281Y15349813D01*
X1179223Y15373916D01*
X1130893Y15389162D01*
X1078045Y15400820D01*
X1020679Y15408892D01*
X958794Y15413376D01*
X909415Y15414385D01*
X875564Y15413904D01*
X821961Y15410966D01*
X771875Y15405356D01*
X716417Y15395097D01*
X666025Y15380992D01*
X613637Y15359675D01*
X599890Y15352722D01*
X555505Y15326120D01*
X516917Y15295988D01*
X479914Y15257230D01*
X450482Y15213862D01*
X432969Y15177503D01*
X417115Y15129766D01*
X406194Y15076303D01*
X400759Y15025920D01*
X399223Y14979633D01*
X398947Y14971328D01*
X287836Y14971328D01*
X287836Y15525496D01*
X1541740Y15525496D01*
X1541740Y14473581D01*
G37*
G36*
X8429321Y-1209814D02*
G01*
X6509612Y-1209814D01*
X6509612Y-1083071D01*
X6620723Y-1083071D01*
X7437471Y-1083071D01*
X7437471Y-848598D01*
X6940192Y-848598D01*
X6959013Y-825057D01*
X6994726Y-778514D01*
X7027867Y-732688D01*
X7058435Y-687579D01*
X7086432Y-643188D01*
X7111856Y-599514D01*
X7140019Y-545931D01*
X7164163Y-493469D01*
X7177067Y-461678D01*
X7197105Y-405603D01*
X7211813Y-357960D01*
X7225346Y-307844D01*
X7237703Y-255256D01*
X7248885Y-200194D01*
X7258891Y-142660D01*
X7267722Y-82653D01*
X7741309Y-82653D01*
X7741309Y-1098703D01*
X7972851Y-1098703D01*
X7997336Y-1053899D01*
X8026096Y-1012790D01*
X8059130Y-975375D01*
X8096438Y-941655D01*
X8128271Y-918485D01*
X8171097Y-893082D01*
X8220048Y-869431D01*
X8266879Y-850555D01*
X8318210Y-832967D01*
X8318210Y-598493D01*
X8306247Y-602290D01*
X8255554Y-619633D01*
X8205255Y-639401D01*
X8157254Y-661752D01*
X8153235Y-663833D01*
X8108459Y-689333D01*
X8066852Y-716672D01*
X8024386Y-747970D01*
X8024386Y-82653D01*
X7741309Y-82653D01*
X7267722Y-82653D01*
X6988797Y-82653D01*
X6984969Y-125941D01*
X6979036Y-177979D01*
X6971826Y-227717D01*
X6961491Y-284363D01*
X6949318Y-337695D01*
X6935307Y-387712D01*
X6928877Y-408351D01*
X6911565Y-458890D01*
X6892489Y-507914D01*
X6871647Y-555423D01*
X6849040Y-601418D01*
X6824668Y-645898D01*
X6798531Y-688863D01*
X6789479Y-702723D01*
X6760674Y-743558D01*
X6729395Y-783277D01*
X6695644Y-821880D01*
X6659420Y-859367D01*
X6620723Y-895737D01*
X6620723Y-1083071D01*
X6509612Y-1083071D01*
X6509612Y28458D01*
X8429321Y28458D01*
X8429321Y-1209814D01*
G37*
G36*
X-1644914Y29152977D02*
G01*
X-1381864Y29152977D01*
X-1381864Y29418713D01*
X-1159848Y29418713D01*
X-1159848Y29152977D01*
X-895333Y29152977D01*
X-895333Y28934135D01*
X-1159848Y28934135D01*
X-1159848Y28668399D01*
X-1381864Y28668399D01*
X-1381864Y28934135D01*
X-1644914Y28934135D01*
X-1644914Y29152977D01*
G37*
D12*
G36*
X498498Y-3932358D02*
G01*
X541939Y-3934922D01*
X585198Y-3940164D01*
X625718Y-3949010D01*
X633552Y-3951399D01*
X672670Y-3968827D01*
X706201Y-3994243D01*
X731835Y-4024281D01*
X751619Y-4059769D01*
X764075Y-4099798D01*
X769021Y-4139707D01*
X769351Y-4153828D01*
X766546Y-4193678D01*
X756981Y-4233369D01*
X740628Y-4268720D01*
X716210Y-4302361D01*
X685746Y-4330892D01*
X662079Y-4347073D01*
X624319Y-4364561D01*
X584935Y-4376324D01*
X574738Y-4378727D01*
X613231Y-4393723D01*
X639609Y-4408622D01*
X667050Y-4436612D01*
X679274Y-4451609D01*
X703227Y-4483620D01*
X714250Y-4502020D01*
X834612Y-4732000D01*
X553245Y-4732000D01*
X420377Y-4487170D01*
X399235Y-4451983D01*
X375240Y-4425426D01*
X338787Y-4409474D01*
X314277Y-4406863D01*
X292198Y-4406863D01*
X292198Y-4732000D01*
X42289Y-4732000D01*
X42289Y-4094233D01*
X292198Y-4094233D01*
X292198Y-4256801D01*
X397125Y-4256801D01*
X438194Y-4251148D01*
X463168Y-4245859D01*
X498505Y-4226765D01*
X503614Y-4220848D01*
X518696Y-4183957D01*
X519246Y-4174344D01*
X510498Y-4134739D01*
X494431Y-4114944D01*
X455975Y-4098784D01*
X414022Y-4094415D01*
X401619Y-4094233D01*
X292198Y-4094233D01*
X42289Y-4094233D01*
X42289Y-3931665D01*
X457111Y-3931665D01*
X498498Y-3932358D01*
G37*
G36*
X866266Y-4459815D02*
G01*
X1103084Y-4444379D01*
X1111053Y-4485238D01*
X1126044Y-4522835D01*
X1134347Y-4535628D01*
X1164713Y-4564441D01*
X1202883Y-4581293D01*
X1244354Y-4586235D01*
X1283632Y-4582172D01*
X1320818Y-4566015D01*
X1326420Y-4561616D01*
X1350565Y-4529556D01*
X1355338Y-4504365D01*
X1343473Y-4466706D01*
X1327788Y-4449264D01*
X1293565Y-4429871D01*
X1255818Y-4416974D01*
X1212612Y-4405873D01*
X1200390Y-4403151D01*
X1160921Y-4393735D01*
X1115705Y-4380901D01*
X1075069Y-4366884D01*
X1039013Y-4351684D01*
X1001791Y-4331882D01*
X966699Y-4306626D01*
X939290Y-4278622D01*
X916209Y-4242724D01*
X901921Y-4202674D01*
X896426Y-4158473D01*
X896357Y-4152655D01*
X900605Y-4111148D01*
X913350Y-4071258D01*
X932310Y-4036396D01*
X958329Y-4004492D01*
X991447Y-3977167D01*
X1027322Y-3956490D01*
X1040558Y-3950422D01*
X1080052Y-3936745D01*
X1120099Y-3927983D01*
X1165270Y-3922212D01*
X1208066Y-3919648D01*
X1238688Y-3919159D01*
X1285188Y-3920543D01*
X1328092Y-3924693D01*
X1367399Y-3931610D01*
X1409819Y-3943563D01*
X1447060Y-3959499D01*
X1474138Y-3975824D01*
X1506473Y-4003812D01*
X1532524Y-4038196D01*
X1552293Y-4078975D01*
X1564236Y-4119018D01*
X1570663Y-4155977D01*
X1335994Y-4169264D01*
X1324988Y-4131425D01*
X1302145Y-4097781D01*
X1296720Y-4093060D01*
X1261109Y-4075182D01*
X1220573Y-4069315D01*
X1214068Y-4069222D01*
X1173990Y-4074351D01*
X1148611Y-4087394D01*
X1127774Y-4120557D01*
X1126727Y-4131553D01*
X1144898Y-4165747D01*
X1182796Y-4183552D01*
X1224263Y-4194016D01*
X1228332Y-4194861D01*
X1267673Y-4203525D01*
X1312780Y-4214407D01*
X1353364Y-4225347D01*
X1396096Y-4238550D01*
X1437719Y-4254057D01*
X1462023Y-4265203D01*
X1498750Y-4286566D01*
X1532379Y-4313494D01*
X1558452Y-4343780D01*
X1564801Y-4353521D01*
X1583156Y-4391269D01*
X1593892Y-4431972D01*
X1597041Y-4471539D01*
X1593641Y-4513696D01*
X1583440Y-4553998D01*
X1566438Y-4592446D01*
X1554054Y-4613004D01*
X1527279Y-4646911D01*
X1495095Y-4675872D01*
X1461945Y-4697464D01*
X1434277Y-4711092D01*
X1393367Y-4725710D01*
X1353443Y-4735075D01*
X1309666Y-4741242D01*
X1269078Y-4743983D01*
X1240446Y-4744505D01*
X1191033Y-4743250D01*
X1145570Y-4739486D01*
X1104058Y-4733212D01*
X1057723Y-4721840D01*
X1017562Y-4706547D01*
X977516Y-4683020D01*
X955757Y-4664198D01*
X928499Y-4632484D01*
X906078Y-4597721D01*
X888492Y-4559908D01*
X875743Y-4519044D01*
X867829Y-4475131D01*
X866266Y-4459815D01*
G37*
G36*
X1661130Y-3931665D02*
G01*
X2417892Y-3931665D01*
X2417892Y-4119243D01*
X2164075Y-4119243D01*
X2164075Y-4732000D01*
X1915143Y-4732000D01*
X1915143Y-4119243D01*
X1661130Y-4119243D01*
X1661130Y-3931665D01*
G37*
G36*
X3245760Y-20901032D02*
G01*
X3298704Y-20905823D01*
X3353086Y-20915619D01*
X3400935Y-20930025D01*
X3417193Y-20936616D01*
X3462273Y-20959893D01*
X3502717Y-20988231D01*
X3538523Y-21021631D01*
X3556412Y-21042374D01*
X3584928Y-21082913D01*
X3608653Y-21127047D01*
X3627587Y-21174774D01*
X3636035Y-21202841D01*
X3647960Y-21255093D01*
X3655982Y-21309084D01*
X3659836Y-21358535D01*
X3660703Y-21396526D01*
X3659407Y-21454168D01*
X3655517Y-21506744D01*
X3647702Y-21561680D01*
X3636356Y-21609720D01*
X3623823Y-21645409D01*
X3600954Y-21692765D01*
X3573565Y-21735638D01*
X3541655Y-21774029D01*
X3521974Y-21793420D01*
X3480261Y-21826780D01*
X3436641Y-21852363D01*
X3391113Y-21870171D01*
X3381778Y-21872799D01*
X3331815Y-21884767D01*
X3278490Y-21894144D01*
X3228217Y-21899193D01*
X3196398Y-21900155D01*
X2734046Y-21900155D01*
X2734046Y-21134209D01*
X3045211Y-21134209D01*
X3045211Y-21665681D01*
X3121415Y-21665681D01*
X3171789Y-21664039D01*
X3221288Y-21657572D01*
X3260145Y-21644921D01*
X3298901Y-21613849D01*
X3324625Y-21571892D01*
X3338914Y-21523624D01*
X3345783Y-21469547D01*
X3347981Y-21417218D01*
X3348073Y-21402876D01*
X3346235Y-21348334D01*
X3339446Y-21293383D01*
X3325563Y-21242031D01*
X3302134Y-21198857D01*
X3295805Y-21191362D01*
X3256564Y-21161223D01*
X3209745Y-21143641D01*
X3158980Y-21135604D01*
X3122881Y-21134209D01*
X3045211Y-21134209D01*
X2734046Y-21134209D01*
X2734046Y-20899736D01*
X3196398Y-20899736D01*
X3245760Y-20901032D01*
G37*
G36*
X4044165Y-21196735D02*
G01*
X3779650Y-21152771D01*
X3794153Y-21106100D01*
X3816477Y-21057076D01*
X3844622Y-21013896D01*
X3878587Y-20976560D01*
X3906412Y-20953469D01*
X3951173Y-20926441D01*
X4003390Y-20906052D01*
X4054083Y-20893859D01*
X4110254Y-20886543D01*
X4161248Y-20884172D01*
X4171904Y-20884104D01*
X4230904Y-20885845D01*
X4284561Y-20891069D01*
X4332875Y-20899775D01*
X4383800Y-20914819D01*
X4433488Y-20938708D01*
X4457179Y-20955423D01*
X4495648Y-20993266D01*
X4523125Y-21035718D01*
X4539611Y-21082781D01*
X4545107Y-21134453D01*
X4539181Y-21183718D01*
X4519546Y-21232444D01*
X4509203Y-21248759D01*
X4474224Y-21288337D01*
X4435243Y-21318551D01*
X4401492Y-21338640D01*
X4450153Y-21353399D01*
X4490641Y-21372590D01*
X4530198Y-21403732D01*
X4561246Y-21442447D01*
X4568554Y-21454900D01*
X4587588Y-21503139D01*
X4595718Y-21554713D01*
X4596398Y-21576288D01*
X4592746Y-21625600D01*
X4581792Y-21673790D01*
X4563535Y-21720860D01*
X4550236Y-21746526D01*
X4521200Y-21789320D01*
X4485750Y-21826201D01*
X4443886Y-21857171D01*
X4417856Y-21871822D01*
X4371221Y-21891056D01*
X4317778Y-21904795D01*
X4265430Y-21912308D01*
X4216412Y-21915400D01*
X4190466Y-21915786D01*
X4141027Y-21914661D01*
X4088492Y-21910505D01*
X4035236Y-21902007D01*
X3983971Y-21887665D01*
X3973823Y-21883790D01*
X3926954Y-21860754D01*
X3885571Y-21831946D01*
X3849674Y-21797365D01*
X3843153Y-21789757D01*
X3813562Y-21747906D01*
X3788599Y-21699902D01*
X3770088Y-21651437D01*
X3764751Y-21634174D01*
X4044165Y-21603155D01*
X4059014Y-21650015D01*
X4084820Y-21691493D01*
X4095211Y-21701097D01*
X4140377Y-21723018D01*
X4183627Y-21728208D01*
X4232160Y-21719675D01*
X4274818Y-21691762D01*
X4277172Y-21689373D01*
X4304170Y-21647101D01*
X4314455Y-21597480D01*
X4314786Y-21585570D01*
X4308820Y-21536749D01*
X4287110Y-21492738D01*
X4278638Y-21483232D01*
X4236262Y-21455938D01*
X4184778Y-21446875D01*
X4180941Y-21446840D01*
X4130089Y-21452946D01*
X4090327Y-21462471D01*
X4104737Y-21256330D01*
X4141129Y-21259261D01*
X4191504Y-21251751D01*
X4232720Y-21229219D01*
X4263514Y-21189670D01*
X4269601Y-21158145D01*
X4255343Y-21109819D01*
X4242001Y-21095374D01*
X4197157Y-21074482D01*
X4166530Y-21071683D01*
X4116625Y-21080493D01*
X4085930Y-21099526D01*
X4058816Y-21140707D01*
X4045616Y-21188198D01*
X4044165Y-21196735D01*
G37*
G36*
X-20979613Y4085825D02*
G01*
X-20924200Y4078383D01*
X-20874764Y4065360D01*
X-20824642Y4043113D01*
X-20782654Y4013268D01*
X-20777320Y4008384D01*
X-20744486Y3970454D01*
X-20719717Y3926118D01*
X-20703013Y3875378D01*
X-20695113Y3826789D01*
X-20693056Y3782704D01*
X-20696284Y3728511D01*
X-20705970Y3678954D01*
X-20725431Y3626999D01*
X-20753681Y3581354D01*
X-20784891Y3547254D01*
X-20829590Y3514230D01*
X-20875271Y3492380D01*
X-20927753Y3476489D01*
X-20976683Y3467799D01*
X-21030335Y3463246D01*
X-21064793Y3462502D01*
X-21235031Y3462502D01*
X-21235031Y3087345D01*
X-21547661Y3087345D01*
X-21547661Y3884553D01*
X-21235031Y3884553D01*
X-21235031Y3665712D01*
X-21158827Y3665712D01*
X-21107746Y3668669D01*
X-21057030Y3681357D01*
X-21032309Y3695998D01*
X-21002883Y3735754D01*
X-20995917Y3774155D01*
X-21007111Y3823979D01*
X-21027668Y3852313D01*
X-21073098Y3876493D01*
X-21125442Y3884049D01*
X-21146370Y3884553D01*
X-21235031Y3884553D01*
X-21547661Y3884553D01*
X-21547661Y4087763D01*
X-21030355Y4087763D01*
X-20979613Y4085825D01*
G37*
G36*
X-20639811Y4087763D02*
G01*
X-20344277Y4087763D01*
X-20237787Y3528936D01*
X-20082693Y4087763D01*
X-19787892Y4087763D01*
X-19632065Y3528936D01*
X-19525575Y4087763D01*
X-19231507Y4087763D01*
X-19453523Y3087345D01*
X-19758338Y3087345D01*
X-19934926Y3717247D01*
X-20110781Y3087345D01*
X-20415840Y3087345D01*
X-20639811Y4087763D01*
G37*
G36*
X-18561593Y4086896D02*
G01*
X-18507292Y4083692D01*
X-18453219Y4077139D01*
X-18402568Y4066082D01*
X-18392777Y4063095D01*
X-18343879Y4041310D01*
X-18301965Y4009540D01*
X-18269922Y3971992D01*
X-18245193Y3927632D01*
X-18229622Y3877596D01*
X-18223440Y3827710D01*
X-18223028Y3810059D01*
X-18226534Y3760247D01*
X-18238490Y3710633D01*
X-18258932Y3666444D01*
X-18289454Y3624393D01*
X-18327533Y3588729D01*
X-18357117Y3568503D01*
X-18404317Y3546643D01*
X-18453548Y3531939D01*
X-18466294Y3528936D01*
X-18418178Y3510190D01*
X-18385205Y3491566D01*
X-18350904Y3456579D01*
X-18335624Y3437833D01*
X-18305682Y3397819D01*
X-18291904Y3374818D01*
X-18141451Y3087345D01*
X-18493160Y3087345D01*
X-18659246Y3393381D01*
X-18685672Y3437365D01*
X-18715666Y3470562D01*
X-18761232Y3490502D01*
X-18791869Y3493765D01*
X-18819469Y3493765D01*
X-18819469Y3087345D01*
X-19131855Y3087345D01*
X-19131855Y3884553D01*
X-18819469Y3884553D01*
X-18819469Y3681343D01*
X-18688310Y3681343D01*
X-18636973Y3688409D01*
X-18605756Y3695021D01*
X-18561584Y3718887D01*
X-18555198Y3726284D01*
X-18536346Y3772398D01*
X-18535659Y3784414D01*
X-18546594Y3833920D01*
X-18566678Y3858663D01*
X-18614747Y3878864D01*
X-18667189Y3884326D01*
X-18682693Y3884553D01*
X-18819469Y3884553D01*
X-19131855Y3884553D01*
X-19131855Y4087763D01*
X-18613328Y4087763D01*
X-18561593Y4086896D01*
G37*
G36*
X-504239Y-20901032D02*
G01*
X-451295Y-20905823D01*
X-396913Y-20915619D01*
X-349064Y-20930025D01*
X-332806Y-20936616D01*
X-287726Y-20959893D01*
X-247282Y-20988231D01*
X-211476Y-21021631D01*
X-193587Y-21042374D01*
X-165071Y-21082913D01*
X-141346Y-21127047D01*
X-122412Y-21174774D01*
X-113964Y-21202841D01*
X-102039Y-21255093D01*
X-94017Y-21309084D01*
X-90163Y-21358535D01*
X-89296Y-21396526D01*
X-90592Y-21454168D01*
X-94482Y-21506744D01*
X-102297Y-21561680D01*
X-113643Y-21609720D01*
X-126176Y-21645409D01*
X-149045Y-21692765D01*
X-176434Y-21735638D01*
X-208344Y-21774029D01*
X-228025Y-21793420D01*
X-269738Y-21826780D01*
X-313358Y-21852363D01*
X-358886Y-21870171D01*
X-368221Y-21872799D01*
X-418184Y-21884767D01*
X-471509Y-21894144D01*
X-521782Y-21899193D01*
X-553601Y-21900155D01*
X-1015953Y-21900155D01*
X-1015953Y-21134209D01*
X-704788Y-21134209D01*
X-704788Y-21665681D01*
X-628584Y-21665681D01*
X-578210Y-21664039D01*
X-528711Y-21657572D01*
X-489854Y-21644921D01*
X-451098Y-21613849D01*
X-425374Y-21571892D01*
X-411085Y-21523624D01*
X-404216Y-21469547D01*
X-402018Y-21417218D01*
X-401926Y-21402876D01*
X-403764Y-21348334D01*
X-410553Y-21293383D01*
X-424436Y-21242031D01*
X-447865Y-21198857D01*
X-454194Y-21191362D01*
X-493435Y-21161223D01*
X-540254Y-21143641D01*
X-591019Y-21135604D01*
X-627118Y-21134209D01*
X-704788Y-21134209D01*
X-1015953Y-21134209D01*
X-1015953Y-20899736D01*
X-553601Y-20899736D01*
X-504239Y-20901032D01*
G37*
G36*
X841757Y-21900155D02*
G01*
X2295Y-21900155D01*
X11404Y-21845836D01*
X26123Y-21792944D01*
X46453Y-21741478D01*
X72392Y-21691438D01*
X89733Y-21663483D01*
X121710Y-21620564D01*
X155232Y-21582896D01*
X195002Y-21543499D01*
X231318Y-21510736D01*
X271633Y-21476866D01*
X315948Y-21441890D01*
X364262Y-21405807D01*
X407299Y-21373630D01*
X449607Y-21339953D01*
X487541Y-21306561D01*
X521555Y-21269519D01*
X546274Y-21226858D01*
X555993Y-21181104D01*
X544024Y-21131892D01*
X522043Y-21103679D01*
X478286Y-21077807D01*
X436558Y-21071683D01*
X387771Y-21080353D01*
X348875Y-21106365D01*
X321931Y-21150243D01*
X307408Y-21202038D01*
X303202Y-21227998D01*
X22811Y-21204795D01*
X31386Y-21155673D01*
X44392Y-21105630D01*
X63111Y-21057105D01*
X83383Y-21020880D01*
X114367Y-20982541D01*
X152363Y-20950260D01*
X197371Y-20924037D01*
X207214Y-20919519D01*
X257146Y-20902400D01*
X309704Y-20891886D01*
X362003Y-20886318D01*
X411520Y-20884243D01*
X428987Y-20884104D01*
X482007Y-20885272D01*
X538046Y-20889586D01*
X587821Y-20897080D01*
X637036Y-20909536D01*
X658575Y-20917321D01*
X706560Y-20941388D01*
X747628Y-20972371D01*
X781779Y-21010272D01*
X787780Y-21018682D01*
X812638Y-21063046D01*
X828290Y-21110655D01*
X834734Y-21161507D01*
X834918Y-21172067D01*
X830649Y-21222144D01*
X817840Y-21270985D01*
X796491Y-21318589D01*
X780941Y-21344502D01*
X748441Y-21386664D01*
X710963Y-21425209D01*
X672123Y-21459476D01*
X627083Y-21494876D01*
X584814Y-21525242D01*
X541702Y-21554803D01*
X501027Y-21583536D01*
X471729Y-21605598D01*
X434468Y-21637855D01*
X404807Y-21665681D01*
X841757Y-21665681D01*
X841757Y-21900155D01*
G37*
G36*
X-28122644Y-6514581D02*
G01*
X-27353279Y-6514581D01*
X-27353279Y-6749054D01*
X-27810257Y-6749054D01*
X-27810257Y-6905369D01*
X-27419957Y-6905369D01*
X-27419957Y-7108579D01*
X-27810257Y-7108579D01*
X-27810257Y-7515000D01*
X-28122644Y-7515000D01*
X-28122644Y-6514581D01*
G37*
G36*
X-26555640Y-6517002D02*
G01*
X-26500741Y-6525948D01*
X-26452316Y-6541486D01*
X-26404903Y-6567314D01*
X-26384367Y-6583457D01*
X-26350280Y-6619941D01*
X-26323573Y-6665875D01*
X-26309193Y-6716988D01*
X-26306454Y-6753939D01*
X-26311892Y-6804853D01*
X-26328207Y-6851044D01*
X-26355398Y-6892513D01*
X-26362141Y-6900240D01*
X-26401170Y-6932491D01*
X-26445042Y-6954999D01*
X-26470585Y-6964476D01*
X-26419843Y-6980306D01*
X-26371372Y-7003844D01*
X-26332019Y-7033449D01*
X-26310850Y-7056556D01*
X-26283802Y-7100605D01*
X-26266772Y-7151238D01*
X-26260010Y-7202436D01*
X-26259559Y-7220687D01*
X-26263859Y-7274027D01*
X-26276760Y-7323557D01*
X-26295951Y-7365279D01*
X-26324146Y-7406266D01*
X-26358689Y-7440904D01*
X-26395602Y-7466884D01*
X-26441040Y-7486021D01*
X-26490064Y-7497235D01*
X-26513816Y-7500833D01*
X-26567309Y-7507681D01*
X-26617524Y-7513007D01*
X-26653279Y-7515000D01*
X-27190369Y-7515000D01*
X-27190369Y-7077316D01*
X-26876517Y-7077316D01*
X-26876517Y-7280526D01*
X-26717759Y-7280526D01*
X-26668113Y-7277179D01*
X-26621123Y-7263234D01*
X-26604430Y-7252194D01*
X-26576899Y-7211457D01*
X-26571457Y-7175746D01*
X-26584242Y-7127050D01*
X-26604186Y-7104427D01*
X-26649004Y-7084094D01*
X-26698807Y-7077740D01*
X-26718491Y-7077316D01*
X-26876517Y-7077316D01*
X-27190369Y-7077316D01*
X-27190369Y-6717791D01*
X-26876517Y-6717791D01*
X-26876517Y-6889738D01*
X-26741206Y-6889738D01*
X-26689365Y-6886029D01*
X-26641674Y-6868650D01*
X-26639845Y-6867267D01*
X-26613529Y-6824269D01*
X-26611269Y-6801810D01*
X-26626031Y-6753891D01*
X-26639845Y-6740017D01*
X-26685286Y-6722045D01*
X-26734637Y-6717813D01*
X-26739008Y-6717791D01*
X-26876517Y-6717791D01*
X-27190369Y-6717791D01*
X-27190369Y-6514581D01*
X-26607849Y-6514581D01*
X-26555640Y-6517002D01*
G37*
G36*
X-25514130Y-6498949D02*
G01*
X-25514130Y-7515000D01*
X-25797207Y-7515000D01*
X-25797207Y-6849682D01*
X-25839673Y-6880980D01*
X-25881280Y-6908319D01*
X-25926056Y-6933819D01*
X-25930076Y-6935900D01*
X-25978076Y-6958251D01*
X-26028375Y-6978019D01*
X-26079068Y-6995362D01*
X-26091032Y-6999159D01*
X-26091032Y-6764685D01*
X-26039700Y-6747097D01*
X-25992869Y-6728221D01*
X-25943919Y-6704570D01*
X-25901093Y-6679167D01*
X-25869259Y-6655997D01*
X-25831951Y-6622277D01*
X-25798917Y-6584862D01*
X-25770158Y-6543753D01*
X-25745672Y-6498949D01*
X-25514130Y-6498949D01*
G37*
D13*
%TO.C,R17*%
X3435436Y-16750155D02*
X3889564Y-16750155D01*
X3435436Y-18220155D02*
X3889564Y-18220155D01*
%TO.C,RST*%
X-1800000Y800000D02*
X4200000Y800000D01*
X4200000Y-3200000D01*
X-1800000Y-3200000D01*
X-1800000Y800000D01*
X2100000Y-1200000D02*
G75*
G02*
X300000Y-1200000I-900000J0D01*
G01*
X300000Y-1200000D02*
G75*
G02*
X2100000Y-1200000I900000J0D01*
G01*
%TO.C,U2*%
X-14410000Y14852345D02*
X-14410000Y11092345D01*
X-14410000Y11092345D02*
X-13150000Y11092345D01*
X-7590000Y14852345D02*
X-7590000Y11092345D01*
X-7590000Y11092345D02*
X-8850000Y11092345D01*
X-7360000Y15892345D02*
X-7690000Y16132345D01*
X-7360000Y16372345D01*
X-7360000Y15892345D01*
G36*
X-7360000Y15892345D02*
G01*
X-7690000Y16132345D01*
X-7360000Y16372345D01*
X-7360000Y15892345D01*
G37*
%TO.C,C7*%
X265000Y-13258907D02*
X265000Y-12736403D01*
X1735000Y-13258907D02*
X1735000Y-12736403D01*
%TO.C,D3*%
X1952500Y-18525155D02*
X1952500Y-20445155D01*
X1952500Y-20445155D02*
X4637500Y-20445155D01*
X4637500Y-18525155D02*
X1952500Y-18525155D01*
%TO.C,J2*%
X18444999Y19565772D02*
X17444999Y20065772D01*
X18444999Y20565772D01*
X18444999Y19565772D01*
G36*
X18444999Y19565772D02*
G01*
X17444999Y20065772D01*
X18444999Y20565772D01*
X18444999Y19565772D01*
G37*
%TO.C,C10*%
X4764998Y22101097D02*
X4764998Y21578593D01*
X6234998Y22101097D02*
X6234998Y21578593D01*
%TO.C,R13*%
X22265000Y-8770591D02*
X22265000Y-9224719D01*
X23735000Y-8770591D02*
X23735000Y-9224719D01*
%TO.C,R9*%
X14227064Y-7262655D02*
X13772936Y-7262655D01*
X14227064Y-8732655D02*
X13772936Y-8732655D01*
%TO.C,SW1*%
X9000000Y-12747655D02*
X15000000Y-12747655D01*
X15000000Y-9247655D01*
X9000000Y-9247655D01*
X9000000Y-12747655D01*
X13475000Y-11722655D02*
X10525000Y-11722655D01*
X10525000Y-10272655D01*
X13475000Y-10272655D01*
X13475000Y-11722655D01*
%TO.C,R16*%
X-314564Y-16750155D02*
X139564Y-16750155D01*
X-314564Y-18220155D02*
X139564Y-18220155D01*
%TO.C,PWR*%
X-24060000Y5564845D02*
X-24060000Y2879845D01*
X-24060000Y2879845D02*
X-22140000Y2879845D01*
X-22140000Y2879845D02*
X-22140000Y5564845D01*
%TO.C,C8*%
X9738748Y-14262655D02*
X10261252Y-14262655D01*
X9738748Y-15732655D02*
X10261252Y-15732655D01*
%TO.C,J3*%
X2436572Y15947345D02*
X1936572Y16947345D01*
X2936572Y16947345D01*
X2436572Y15947345D01*
G36*
X2436572Y15947345D02*
G01*
X1936572Y16947345D01*
X2936572Y16947345D01*
X2436572Y15947345D01*
G37*
%TO.C,R14*%
X-2727064Y3985000D02*
X-2272936Y3985000D01*
X-2727064Y2515000D02*
X-2272936Y2515000D01*
%TO.C,J4*%
X6555000Y938917D02*
X5555000Y438917D01*
X5555000Y1438917D01*
X6555000Y938917D01*
G36*
X6555000Y938917D02*
G01*
X5555000Y438917D01*
X5555000Y1438917D01*
X6555000Y938917D01*
G37*
%TO.C,R5*%
X-2272936Y8737345D02*
X-2727064Y8737345D01*
X-2272936Y7267345D02*
X-2727064Y7267345D01*
%TO.C,SW3*%
X4725000Y-9522655D02*
X3275000Y-9522655D01*
X3275000Y-12472655D01*
X4725000Y-12472655D01*
X4725000Y-9522655D01*
X5750000Y-13997655D02*
X2250000Y-13997655D01*
X2250000Y-7997655D01*
X5750000Y-7997655D01*
X5750000Y-13997655D01*
%TO.C,D2*%
X-1797500Y-18525155D02*
X-1797500Y-20445155D01*
X-1797500Y-20445155D02*
X887500Y-20445155D01*
X887500Y-18525155D02*
X-1797500Y-18525155D01*
%TO.C,J5*%
X22063427Y4057345D02*
X21063427Y4057345D01*
X21563427Y5057345D01*
X22063427Y4057345D01*
G36*
X22063427Y4057345D02*
G01*
X21063427Y4057345D01*
X21563427Y5057345D01*
X22063427Y4057345D01*
G37*
%TO.C,R2*%
X-2727064Y15737345D02*
X-2272936Y15737345D01*
X-2727064Y14267345D02*
X-2272936Y14267345D01*
%TO.C,SW2*%
X9000000Y-5747655D02*
X15000000Y-5747655D01*
X15000000Y-2247655D01*
X9000000Y-2247655D01*
X9000000Y-5747655D01*
X13475000Y-4722655D02*
X10525000Y-4722655D01*
X10525000Y-3272655D01*
X13475000Y-3272655D01*
X13475000Y-4722655D01*
%TO.C,R11*%
X265000Y-8770591D02*
X265000Y-9224719D01*
X1735000Y-8770591D02*
X1735000Y-9224719D01*
%TO.C,C6*%
X9738748Y-262655D02*
X10261252Y-262655D01*
X9738748Y-1732655D02*
X10261252Y-1732655D01*
%TO.C,R7*%
X-7735000Y25275281D02*
X-7735000Y25729409D01*
X-6265000Y25275281D02*
X-6265000Y25729409D01*
%TO.C,R4*%
X-2727064Y11237345D02*
X-2272936Y11237345D01*
X-2727064Y9767345D02*
X-2272936Y9767345D01*
%TO.C,R6*%
X-2727064Y6737345D02*
X-2272936Y6737345D01*
X-2727064Y5267345D02*
X-2272936Y5267345D01*
%TO.C,C1*%
X-16735000Y16241093D02*
X-16735000Y16763597D01*
X-15265000Y16241093D02*
X-15265000Y16763597D01*
%TO.C,R1*%
X-2272936Y17737345D02*
X-2727064Y17737345D01*
X-2272936Y16267345D02*
X-2727064Y16267345D01*
%TO.C,C3*%
X-11735000Y6263597D02*
X-11735000Y5741093D01*
X-10265000Y6263597D02*
X-10265000Y5741093D01*
D10*
%TO.C,U4*%
X-23900000Y-197655D02*
X-22300000Y1402345D01*
X-3100000Y-197655D02*
X-3100000Y-17797655D01*
X-4700000Y-19397655D01*
X-22300000Y-19397655D01*
X-23900000Y-17797655D01*
X-23900000Y-197655D01*
X-22300000Y1402345D01*
X-4700000Y1402345D01*
X-3100000Y-197655D01*
D13*
%TO.C,R8*%
X6265000Y25275281D02*
X6265000Y25729409D01*
X7735000Y25275281D02*
X7735000Y25729409D01*
%TO.C,R12*%
X14227064Y-14262655D02*
X13772936Y-14262655D01*
X14227064Y-15732655D02*
X13772936Y-15732655D01*
%TO.C,R3*%
X-2272936Y13237345D02*
X-2727064Y13237345D01*
X-2272936Y11767345D02*
X-2727064Y11767345D01*
%TO.C,J6*%
X-7080000Y-26145000D02*
X-5750000Y-26145000D01*
X-7080000Y-27475000D02*
X-7080000Y-26145000D01*
X-4480000Y-26145000D02*
X-1880000Y-26145000D01*
X-4480000Y-28805000D02*
X-4480000Y-26145000D01*
X-4480000Y-28805000D02*
X-1880000Y-28805000D01*
X-1880000Y-28805000D02*
X-1880000Y-26145000D01*
%TO.C,SW8*%
X-28650000Y4402345D02*
X-24750000Y4402345D01*
X-24750000Y-4397655D01*
X-28650000Y-4397655D01*
X-28650000Y4402345D01*
%TO.C,SW4*%
X9000000Y-19747655D02*
X15000000Y-19747655D01*
X15000000Y-16247655D01*
X9000000Y-16247655D01*
X9000000Y-19747655D01*
X13475000Y-18722655D02*
X10525000Y-18722655D01*
X10525000Y-17272655D01*
X13475000Y-17272655D01*
X13475000Y-18722655D01*
%TO.C,U3*%
X-3310000Y24978345D02*
X-4310000Y24978345D01*
X-3810000Y25978345D01*
X-3310000Y24978345D01*
G36*
X-3310000Y24978345D02*
G01*
X-4310000Y24978345D01*
X-3810000Y25978345D01*
X-3310000Y24978345D01*
G37*
%TO.C,R15*%
X-19272936Y6237345D02*
X-19727064Y6237345D01*
X-19272936Y4767345D02*
X-19727064Y4767345D01*
%TO.C,SW5*%
X20725000Y-9522655D02*
X19275000Y-9522655D01*
X19275000Y-12472655D01*
X20725000Y-12472655D01*
X20725000Y-9522655D01*
X21750000Y-13997655D02*
X18250000Y-13997655D01*
X18250000Y-7997655D01*
X21750000Y-7997655D01*
X21750000Y-13997655D01*
%TO.C,U1*%
X4900000Y17602345D02*
X4900000Y15702345D01*
X4900000Y5302345D02*
X4900000Y3402345D01*
X4900000Y3402345D02*
X6800000Y3402345D01*
X6800000Y17602345D02*
X4900000Y17602345D01*
X19100000Y17602345D02*
X17900000Y17602345D01*
X19100000Y15702345D02*
X19100000Y17602345D01*
X19100000Y5302345D02*
X19100000Y3402345D01*
X19100000Y3402345D02*
X17200000Y3402345D01*
X17700000Y17602345D02*
X17200000Y17602345D01*
X17200000Y18102345D01*
X17700000Y17602345D01*
G36*
X17700000Y17602345D02*
G01*
X17200000Y17602345D01*
X17200000Y18102345D01*
X17700000Y17602345D01*
G37*
%TO.C,J1*%
X24670000Y6352345D02*
X24670000Y-8947655D01*
X24670000Y6352345D02*
X27330000Y6352345D01*
X24670000Y-8947655D02*
X27330000Y-8947655D01*
X26000000Y8952345D02*
X27330000Y8952345D01*
X27330000Y8952345D02*
X27330000Y7622345D01*
X27330000Y6352345D02*
X27330000Y-8947655D01*
%TO.C,R10*%
X14227064Y-262655D02*
X13772936Y-262655D01*
X14227064Y-1732655D02*
X13772936Y-1732655D01*
%TO.C,C5*%
X9738748Y-7262655D02*
X10261252Y-7262655D01*
X9738748Y-8732655D02*
X10261252Y-8732655D01*
%TO.C,C2*%
X-16735000Y13263597D02*
X-16735000Y12741093D01*
X-15265000Y13263597D02*
X-15265000Y12741093D01*
%TO.C,C9*%
X22265000Y-13258907D02*
X22265000Y-12736403D01*
X23735000Y-13258907D02*
X23735000Y-12736403D01*
%TO.C,C4*%
X-24991000Y9450345D02*
X-24991000Y10254345D01*
X-24951000Y9219345D02*
X-24951000Y10485345D01*
X-24911000Y9050345D02*
X-24911000Y10654345D01*
X-24871000Y8912345D02*
X-24871000Y10792345D01*
X-24831000Y8793345D02*
X-24831000Y10911345D01*
X-24791000Y8687345D02*
X-24791000Y11017345D01*
X-24751000Y8590345D02*
X-24751000Y11114345D01*
X-24711000Y8502345D02*
X-24711000Y11202345D01*
X-24671000Y8420345D02*
X-24671000Y11284345D01*
X-24631000Y8343345D02*
X-24631000Y11361345D01*
X-24591000Y8271345D02*
X-24591000Y11433345D01*
X-24551000Y8202345D02*
X-24551000Y11502345D01*
X-24511000Y8138345D02*
X-24511000Y11566345D01*
X-24471000Y8076345D02*
X-24471000Y11628345D01*
X-24431000Y8018345D02*
X-24431000Y11686345D01*
X-24391000Y7962345D02*
X-24391000Y11742345D01*
X-24351000Y7908345D02*
X-24351000Y11796345D01*
X-24311000Y7857345D02*
X-24311000Y11847345D01*
X-24271000Y7808345D02*
X-24271000Y11896345D01*
X-24231000Y7760345D02*
X-24231000Y11944345D01*
X-24191000Y7715345D02*
X-24191000Y11989345D01*
X-24151000Y7670345D02*
X-24151000Y12034345D01*
X-24111000Y7628345D02*
X-24111000Y12076345D01*
X-24071000Y7587345D02*
X-24071000Y12117345D01*
X-24031000Y10892345D02*
X-24031000Y12157345D01*
X-24031000Y7547345D02*
X-24031000Y8812345D01*
X-23991000Y10892345D02*
X-23991000Y12195345D01*
X-23991000Y7509345D02*
X-23991000Y8812345D01*
X-23951000Y10892345D02*
X-23951000Y12232345D01*
X-23951000Y7472345D02*
X-23951000Y8812345D01*
X-23911000Y10892345D02*
X-23911000Y12268345D01*
X-23911000Y7436345D02*
X-23911000Y8812345D01*
X-23871000Y10892345D02*
X-23871000Y12302345D01*
X-23871000Y7402345D02*
X-23871000Y8812345D01*
X-23831000Y10892345D02*
X-23831000Y12336345D01*
X-23831000Y7368345D02*
X-23831000Y8812345D01*
X-23791000Y10892345D02*
X-23791000Y12368345D01*
X-23791000Y7336345D02*
X-23791000Y8812345D01*
X-23751000Y10892345D02*
X-23751000Y12400345D01*
X-23751000Y7304345D02*
X-23751000Y8812345D01*
X-23711000Y10892345D02*
X-23711000Y12430345D01*
X-23711000Y7274345D02*
X-23711000Y8812345D01*
X-23671000Y10892345D02*
X-23671000Y12459345D01*
X-23671000Y7245345D02*
X-23671000Y8812345D01*
X-23631000Y10892345D02*
X-23631000Y12488345D01*
X-23631000Y7216345D02*
X-23631000Y8812345D01*
X-23591000Y10892345D02*
X-23591000Y12516345D01*
X-23591000Y7188345D02*
X-23591000Y8812345D01*
X-23551000Y10892345D02*
X-23551000Y12542345D01*
X-23551000Y7162345D02*
X-23551000Y8812345D01*
X-23511000Y10892345D02*
X-23511000Y12568345D01*
X-23511000Y7136345D02*
X-23511000Y8812345D01*
X-23471000Y10892345D02*
X-23471000Y12594345D01*
X-23471000Y7110345D02*
X-23471000Y8812345D01*
X-23431000Y10892345D02*
X-23431000Y12618345D01*
X-23431000Y7086345D02*
X-23431000Y8812345D01*
X-23391000Y10892345D02*
X-23391000Y12642345D01*
X-23391000Y7062345D02*
X-23391000Y8812345D01*
X-23351000Y10892345D02*
X-23351000Y12664345D01*
X-23351000Y7040345D02*
X-23351000Y8812345D01*
X-23311000Y10892345D02*
X-23311000Y12686345D01*
X-23311000Y7018345D02*
X-23311000Y8812345D01*
X-23271000Y10892345D02*
X-23271000Y12708345D01*
X-23271000Y6996345D02*
X-23271000Y8812345D01*
X-23231000Y10892345D02*
X-23231000Y12728345D01*
X-23231000Y6976345D02*
X-23231000Y8812345D01*
X-23191000Y10892345D02*
X-23191000Y12748345D01*
X-23191000Y6956345D02*
X-23191000Y8812345D01*
X-23151000Y10892345D02*
X-23151000Y12768345D01*
X-23151000Y6936345D02*
X-23151000Y8812345D01*
X-23111000Y10892345D02*
X-23111000Y12786345D01*
X-23111000Y6918345D02*
X-23111000Y8812345D01*
X-23071000Y10892345D02*
X-23071000Y12804345D01*
X-23071000Y6900345D02*
X-23071000Y8812345D01*
X-23031000Y10892345D02*
X-23031000Y12822345D01*
X-23031000Y6882345D02*
X-23031000Y8812345D01*
X-22991000Y10892345D02*
X-22991000Y12838345D01*
X-22991000Y6866345D02*
X-22991000Y8812345D01*
X-22951000Y10892345D02*
X-22951000Y12854345D01*
X-22951000Y6850345D02*
X-22951000Y8812345D01*
X-22911000Y10892345D02*
X-22911000Y12870345D01*
X-22911000Y6834345D02*
X-22911000Y8812345D01*
X-22871000Y10892345D02*
X-22871000Y12885345D01*
X-22871000Y6819345D02*
X-22871000Y8812345D01*
X-22831000Y10892345D02*
X-22831000Y12899345D01*
X-22831000Y6805345D02*
X-22831000Y8812345D01*
X-22791000Y10892345D02*
X-22791000Y12913345D01*
X-22791000Y6791345D02*
X-22791000Y8812345D01*
X-22751000Y10892345D02*
X-22751000Y12926345D01*
X-22751000Y6778345D02*
X-22751000Y8812345D01*
X-22711000Y10892345D02*
X-22711000Y12938345D01*
X-22711000Y6766345D02*
X-22711000Y8812345D01*
X-22671000Y10892345D02*
X-22671000Y12950345D01*
X-22671000Y6754345D02*
X-22671000Y8812345D01*
X-22631000Y10892345D02*
X-22631000Y12962345D01*
X-22631000Y6742345D02*
X-22631000Y8812345D01*
X-22591000Y10892345D02*
X-22591000Y12973345D01*
X-22591000Y6731345D02*
X-22591000Y8812345D01*
X-22551000Y10892345D02*
X-22551000Y12983345D01*
X-22551000Y6721345D02*
X-22551000Y8812345D01*
X-22511000Y10892345D02*
X-22511000Y12993345D01*
X-22511000Y6711345D02*
X-22511000Y8812345D01*
X-22471000Y10892345D02*
X-22471000Y13002345D01*
X-22471000Y6702345D02*
X-22471000Y8812345D01*
X-22430000Y10892345D02*
X-22430000Y13011345D01*
X-22430000Y6693345D02*
X-22430000Y8812345D01*
X-22390000Y10892345D02*
X-22390000Y13019345D01*
X-22390000Y6685345D02*
X-22390000Y8812345D01*
X-22350000Y10892345D02*
X-22350000Y13027345D01*
X-22350000Y6677345D02*
X-22350000Y8812345D01*
X-22310000Y10892345D02*
X-22310000Y13034345D01*
X-22310000Y6670345D02*
X-22310000Y8812345D01*
X-22270000Y10892345D02*
X-22270000Y13041345D01*
X-22270000Y6663345D02*
X-22270000Y8812345D01*
X-22230000Y10892345D02*
X-22230000Y13047345D01*
X-22230000Y6657345D02*
X-22230000Y8812345D01*
X-22190000Y10892345D02*
X-22190000Y13053345D01*
X-22190000Y6651345D02*
X-22190000Y8812345D01*
X-22150000Y10892345D02*
X-22150000Y13058345D01*
X-22150000Y6646345D02*
X-22150000Y8812345D01*
X-22110000Y10892345D02*
X-22110000Y13063345D01*
X-22110000Y6641345D02*
X-22110000Y8812345D01*
X-22070000Y10892345D02*
X-22070000Y13067345D01*
X-22070000Y6637345D02*
X-22070000Y8812345D01*
X-22030000Y10892345D02*
X-22030000Y13070345D01*
X-22030000Y6634345D02*
X-22030000Y8812345D01*
X-21990000Y10892345D02*
X-21990000Y13074345D01*
X-21990000Y6630345D02*
X-21990000Y8812345D01*
X-21950000Y6628345D02*
X-21950000Y13076345D01*
X-21910000Y6625345D02*
X-21910000Y13079345D01*
X-21870000Y6624345D02*
X-21870000Y13080345D01*
X-21830000Y6622345D02*
X-21830000Y13082345D01*
X-21790000Y6622345D02*
X-21790000Y13082345D01*
X-21750000Y6622345D02*
X-21750000Y13082345D01*
X-18564759Y7698345D02*
X-18564759Y8328345D01*
X-18249759Y8013345D02*
X-18879759Y8013345D01*
X-18480000Y9852345D02*
G75*
G02*
X-25020000Y9852345I-3270000J0D01*
G01*
X-25020000Y9852345D02*
G75*
G02*
X-18480000Y9852345I3270000J0D01*
G01*
%TO.C,R19*%
X-17727064Y-22035000D02*
X-17272936Y-22035000D01*
X-17727064Y-20565000D02*
X-17272936Y-20565000D01*
%TO.C,FB1*%
X-26912779Y-6010000D02*
X-26587221Y-6010000D01*
X-26912779Y-4990000D02*
X-26587221Y-4990000D01*
%TO.C,R18*%
X-13672936Y-20565000D02*
X-14127064Y-20565000D01*
X-13672936Y-22035000D02*
X-14127064Y-22035000D01*
%TD*%
%LPC*%
D14*
%TO.C,R17*%
X2750000Y-17485155D03*
X4575000Y-17485155D03*
%TD*%
D15*
%TO.C,RST*%
X-2000000Y-1200000D03*
X4400000Y-1200000D03*
%TD*%
D16*
%TO.C,U2*%
X-8700000Y16152345D03*
X-11000000Y16152345D03*
D17*
X-11000000Y9852345D03*
D16*
X-13300000Y16152345D03*
%TD*%
D18*
%TO.C,C7*%
X1000000Y-13947655D03*
X1000000Y-12047655D03*
%TD*%
D19*
%TO.C,D3*%
X2700000Y-19485155D03*
X4575000Y-19485155D03*
%TD*%
D20*
%TO.C,J2*%
X16444999Y20065772D03*
D21*
X15174999Y20065772D03*
X13904999Y20065772D03*
X12634999Y20065772D03*
X11364999Y20065772D03*
X10094999Y20065772D03*
X8824999Y20065772D03*
X7554999Y20065772D03*
%TD*%
D22*
%TO.C,C10*%
X5499998Y22789845D03*
X5499998Y20889845D03*
%TD*%
D23*
%TO.C,R13*%
X23000000Y-8085155D03*
X23000000Y-9910155D03*
%TD*%
D24*
%TO.C,R9*%
X14912500Y-7997655D03*
X13087500Y-7997655D03*
%TD*%
D25*
%TO.C,SW1*%
X15250000Y-10997655D03*
X8750000Y-10997655D03*
%TD*%
D14*
%TO.C,R16*%
X-1000000Y-17485155D03*
X825000Y-17485155D03*
%TD*%
D26*
%TO.C,PWR*%
X-23100000Y3627345D03*
X-23100000Y5502345D03*
%TD*%
D27*
%TO.C,C8*%
X9050000Y-14997655D03*
X10950000Y-14997655D03*
%TD*%
D20*
%TO.C,J3*%
X2436572Y14947345D03*
D21*
X2436572Y13677345D03*
X2436572Y12407345D03*
X2436572Y11137345D03*
X2436572Y9867345D03*
X2436572Y8597345D03*
X2436572Y7327345D03*
X2436572Y6057345D03*
%TD*%
D14*
%TO.C,R14*%
X-3412500Y3250000D03*
X-1587500Y3250000D03*
%TD*%
D20*
%TO.C,J4*%
X7555000Y938917D03*
D21*
X8825000Y938917D03*
X10095000Y938917D03*
X11365000Y938917D03*
X12635000Y938917D03*
X13905000Y938917D03*
X15175000Y938917D03*
X16445000Y938917D03*
%TD*%
D24*
%TO.C,R5*%
X-1587500Y8002345D03*
X-3412500Y8002345D03*
%TD*%
D28*
%TO.C,SW3*%
X4000000Y-7747655D03*
X4000000Y-14247655D03*
%TD*%
D19*
%TO.C,D2*%
X-1050000Y-19485155D03*
X825000Y-19485155D03*
%TD*%
D20*
%TO.C,J5*%
X21563427Y6057345D03*
D21*
X21563427Y7327345D03*
X21563427Y8597345D03*
X21563427Y9867345D03*
X21563427Y11137345D03*
X21563427Y12407345D03*
X21563427Y13677345D03*
X21563427Y14947345D03*
%TD*%
D14*
%TO.C,R2*%
X-3412500Y15002345D03*
X-1587500Y15002345D03*
%TD*%
D25*
%TO.C,SW2*%
X15250000Y-3997655D03*
X8750000Y-3997655D03*
%TD*%
D23*
%TO.C,R11*%
X1000000Y-8085155D03*
X1000000Y-9910155D03*
%TD*%
D27*
%TO.C,C6*%
X9050000Y-997655D03*
X10950000Y-997655D03*
%TD*%
D29*
%TO.C,R7*%
X-7000000Y24589845D03*
X-7000000Y26414845D03*
%TD*%
D14*
%TO.C,R4*%
X-3412500Y10502345D03*
X-1587500Y10502345D03*
%TD*%
%TO.C,R6*%
X-3412500Y6002345D03*
X-1587500Y6002345D03*
%TD*%
D18*
%TO.C,C1*%
X-16000000Y15552345D03*
X-16000000Y17452345D03*
%TD*%
D24*
%TO.C,R1*%
X-1587500Y17002345D03*
X-3412500Y17002345D03*
%TD*%
D22*
%TO.C,C3*%
X-11000000Y6952345D03*
X-11000000Y5052345D03*
%TD*%
D30*
%TO.C,U4*%
X-23700000Y-8997655D03*
D31*
X-13500000Y1202345D03*
X-13500000Y-19197655D03*
D30*
X-3300000Y-8997655D03*
D32*
X-20500000Y-497655D03*
D33*
X-18500000Y-497655D03*
X-20500000Y-2497655D03*
X-18500000Y-2497655D03*
X-20500000Y-4497655D03*
X-18500000Y-4497655D03*
X-20500000Y-6497655D03*
X-18500000Y-6497655D03*
%TD*%
D29*
%TO.C,R8*%
X7000000Y24589845D03*
X7000000Y26414845D03*
%TD*%
D24*
%TO.C,R12*%
X14912500Y-14997655D03*
X13087500Y-14997655D03*
%TD*%
%TO.C,R3*%
X-1587500Y12502345D03*
X-3412500Y12502345D03*
%TD*%
D34*
%TO.C,J6*%
X-5750000Y-27475000D03*
D35*
X-3210000Y-27475000D03*
%TD*%
D36*
%TO.C,SW8*%
X-26700000Y-2497655D03*
X-26700000Y2345D03*
X-26700000Y2502345D03*
%TD*%
D25*
%TO.C,SW4*%
X15250000Y-17997655D03*
X8750000Y-17997655D03*
%TD*%
D34*
%TO.C,U3*%
X-3810000Y27502345D03*
D35*
X-1270000Y27502345D03*
X1270000Y27502345D03*
X3810000Y27502345D03*
%TD*%
D24*
%TO.C,R15*%
X-18587500Y5502345D03*
X-20412500Y5502345D03*
%TD*%
D28*
%TO.C,SW5*%
X20000000Y-7747655D03*
X20000000Y-14247655D03*
%TD*%
D37*
%TO.C,U1*%
X15900000Y14202345D03*
D38*
X16445000Y17237345D03*
X15175000Y17237345D03*
X13905000Y17237345D03*
X12635000Y17237345D03*
X11365000Y17237345D03*
X10095000Y17237345D03*
X8825000Y17237345D03*
X7555000Y17237345D03*
D39*
X5265000Y14947345D03*
X5265000Y13677345D03*
X5265000Y12407345D03*
X5265000Y11137345D03*
X5265000Y9867345D03*
X5265000Y8597345D03*
X5265000Y7327345D03*
X5265000Y6057345D03*
D38*
X7555000Y3767345D03*
X8825000Y3767345D03*
X10095000Y3767345D03*
X11365000Y3767345D03*
X12635000Y3767345D03*
X13905000Y3767345D03*
X15175000Y3767345D03*
X16445000Y3767345D03*
D39*
X18735000Y6057345D03*
X18735000Y7327345D03*
X18735000Y8597345D03*
X18735000Y9867345D03*
X18735000Y11137345D03*
X18735000Y12407345D03*
D40*
X18835000Y13677345D03*
X18835000Y14947345D03*
%TD*%
D34*
%TO.C,J1*%
X26000000Y7622345D03*
D35*
X26000000Y5082345D03*
X26000000Y2542345D03*
X26000000Y2345D03*
X26000000Y-2537655D03*
X26000000Y-5077655D03*
X26000000Y-7617655D03*
%TD*%
D24*
%TO.C,R10*%
X14912500Y-997655D03*
X13087500Y-997655D03*
%TD*%
D27*
%TO.C,C5*%
X9050000Y-7997655D03*
X10950000Y-7997655D03*
%TD*%
D22*
%TO.C,C2*%
X-16000000Y13952345D03*
X-16000000Y12052345D03*
%TD*%
D18*
%TO.C,C9*%
X23000000Y-13947655D03*
X23000000Y-12047655D03*
%TD*%
D41*
%TO.C,C4*%
X-20500000Y9852345D03*
D42*
X-23000000Y9852345D03*
%TD*%
D43*
%TO.C,BT2*%
X0Y-24247655D03*
X0Y24252345D03*
%TD*%
D14*
%TO.C,R19*%
X-18412500Y-21300000D03*
X-16587500Y-21300000D03*
%TD*%
D44*
%TO.C,FB1*%
X-27537500Y-5500000D03*
X-25962500Y-5500000D03*
%TD*%
D43*
%TO.C,BT1*%
X12000000Y24252345D03*
X12000000Y-24247655D03*
%TD*%
%TO.C,BT3*%
X-12000000Y24252345D03*
X-12000000Y-24247655D03*
%TD*%
D24*
%TO.C,R18*%
X-12987500Y-21300000D03*
X-14812500Y-21300000D03*
%TD*%
%LPD*%
M02*
