%TF.GenerationSoftware,KiCad,Pcbnew,8.0.1*%
%TF.CreationDate,2024-08-11T00:03:07+09:00*%
%TF.ProjectId,main,6d61696e-2e6b-4696-9361-645f70636258,rev?*%
%TF.SameCoordinates,Original*%
%TF.FileFunction,Soldermask,Top*%
%TF.FilePolarity,Negative*%
%FSLAX46Y46*%
G04 Gerber Fmt 4.6, Leading zero omitted, Abs format (unit mm)*
G04 Created by KiCad (PCBNEW 8.0.1) date 2024-08-11 00:03:07*
%MOMM*%
%LPD*%
G01*
G04 APERTURE LIST*
G04 Aperture macros list*
%AMRoundRect*
0 Rectangle with rounded corners*
0 $1 Rounding radius*
0 $2 $3 $4 $5 $6 $7 $8 $9 X,Y pos of 4 corners*
0 Add a 4 corners polygon primitive as box body*
4,1,4,$2,$3,$4,$5,$6,$7,$8,$9,$2,$3,0*
0 Add four circle primitives for the rounded corners*
1,1,$1+$1,$2,$3*
1,1,$1+$1,$4,$5*
1,1,$1+$1,$6,$7*
1,1,$1+$1,$8,$9*
0 Add four rect primitives between the rounded corners*
20,1,$1+$1,$2,$3,$4,$5,0*
20,1,$1+$1,$4,$5,$6,$7,0*
20,1,$1+$1,$6,$7,$8,$9,0*
20,1,$1+$1,$8,$9,$2,$3,0*%
%AMHorizOval*
0 Thick line with rounded ends*
0 $1 width*
0 $2 $3 position (X,Y) of the first rounded end (center of the circle)*
0 $4 $5 position (X,Y) of the second rounded end (center of the circle)*
0 Add line between two ends*
20,1,$1,$2,$3,$4,$5,0*
0 Add two circle primitives to create the rounded ends*
1,1,$1,$2,$3*
1,1,$1,$4,$5*%
G04 Aperture macros list end*
%ADD10RoundRect,0.250000X-0.262500X-0.450000X0.262500X-0.450000X0.262500X0.450000X-0.262500X0.450000X0*%
%ADD11RoundRect,0.350000X-0.350000X-0.350000X0.350000X-0.350000X0.350000X0.350000X-0.350000X0.350000X0*%
%ADD12RoundRect,0.375000X-0.375000X0.625000X-0.375000X-0.625000X0.375000X-0.625000X0.375000X0.625000X0*%
%ADD13RoundRect,0.500000X-1.400000X0.500000X-1.400000X-0.500000X1.400000X-0.500000X1.400000X0.500000X0*%
%ADD14RoundRect,0.250000X0.475000X-0.250000X0.475000X0.250000X-0.475000X0.250000X-0.475000X-0.250000X0*%
%ADD15RoundRect,0.243750X-0.243750X-0.456250X0.243750X-0.456250X0.243750X0.456250X-0.243750X0.456250X0*%
%ADD16R,1.000000X1.000000*%
%ADD17O,1.000000X1.000000*%
%ADD18RoundRect,0.250000X-0.475000X0.250000X-0.475000X-0.250000X0.475000X-0.250000X0.475000X0.250000X0*%
%ADD19RoundRect,0.250000X-0.450000X0.262500X-0.450000X-0.262500X0.450000X-0.262500X0.450000X0.262500X0*%
%ADD20RoundRect,0.250000X0.262500X0.450000X-0.262500X0.450000X-0.262500X-0.450000X0.262500X-0.450000X0*%
%ADD21O,1.400000X2.100000*%
%ADD22RoundRect,0.243750X0.456250X-0.243750X0.456250X0.243750X-0.456250X0.243750X-0.456250X-0.243750X0*%
%ADD23RoundRect,0.250000X-0.250000X-0.475000X0.250000X-0.475000X0.250000X0.475000X-0.250000X0.475000X0*%
%ADD24O,2.100000X1.400000*%
%ADD25RoundRect,0.250000X0.450000X-0.262500X0.450000X0.262500X-0.450000X0.262500X-0.450000X-0.262500X0*%
%ADD26O,1.000000X3.000000*%
%ADD27O,3.000000X1.000000*%
%ADD28R,1.350000X1.350000*%
%ADD29C,1.350000*%
%ADD30R,1.700000X1.700000*%
%ADD31O,1.700000X1.700000*%
%ADD32C,1.500000*%
%ADD33HorizOval,3.100000X-0.424264X-0.424264X0.424264X0.424264X0*%
%ADD34O,0.900000X1.400000*%
%ADD35O,1.400000X0.900000*%
%ADD36O,1.200000X0.900000*%
%ADD37R,1.600000X1.600000*%
%ADD38C,1.600000*%
%ADD39O,4.500000X1.800000*%
G04 APERTURE END LIST*
D10*
%TO.C,R17*%
X2750000Y-17485155D03*
X4575000Y-17485155D03*
%TD*%
D11*
%TO.C,RST*%
X-2000000Y-1200000D03*
X4400000Y-1200000D03*
%TD*%
D12*
%TO.C,U2*%
X-8700000Y16152345D03*
X-11000000Y16152345D03*
D13*
X-11000000Y9852345D03*
D12*
X-13300000Y16152345D03*
%TD*%
D14*
%TO.C,C7*%
X1000000Y-13947655D03*
X1000000Y-12047655D03*
%TD*%
D15*
%TO.C,D3*%
X2700000Y-19485155D03*
X4575000Y-19485155D03*
%TD*%
D16*
%TO.C,J2*%
X16444999Y20065772D03*
D17*
X15174999Y20065772D03*
X13904999Y20065772D03*
X12634999Y20065772D03*
X11364999Y20065772D03*
X10094999Y20065772D03*
X8824999Y20065772D03*
X7554999Y20065772D03*
%TD*%
D18*
%TO.C,C10*%
X5499998Y22789845D03*
X5499998Y20889845D03*
%TD*%
D19*
%TO.C,R13*%
X23000000Y-8085155D03*
X23000000Y-9910155D03*
%TD*%
D20*
%TO.C,R9*%
X14912500Y-7997655D03*
X13087500Y-7997655D03*
%TD*%
D21*
%TO.C,SW1*%
X15250000Y-10997655D03*
X8750000Y-10997655D03*
%TD*%
D10*
%TO.C,R16*%
X-1000000Y-17485155D03*
X825000Y-17485155D03*
%TD*%
D22*
%TO.C,PWR*%
X-23100000Y3627345D03*
X-23100000Y5502345D03*
%TD*%
D23*
%TO.C,C8*%
X9050000Y-14997655D03*
X10950000Y-14997655D03*
%TD*%
D16*
%TO.C,J3*%
X2436572Y14947345D03*
D17*
X2436572Y13677345D03*
X2436572Y12407345D03*
X2436572Y11137345D03*
X2436572Y9867345D03*
X2436572Y8597345D03*
X2436572Y7327345D03*
X2436572Y6057345D03*
%TD*%
D10*
%TO.C,R14*%
X-3412500Y3250000D03*
X-1587500Y3250000D03*
%TD*%
D16*
%TO.C,J4*%
X7555000Y938917D03*
D17*
X8825000Y938917D03*
X10095000Y938917D03*
X11365000Y938917D03*
X12635000Y938917D03*
X13905000Y938917D03*
X15175000Y938917D03*
X16445000Y938917D03*
%TD*%
D20*
%TO.C,R5*%
X-1587500Y8002345D03*
X-3412500Y8002345D03*
%TD*%
D24*
%TO.C,SW3*%
X4000000Y-7747655D03*
X4000000Y-14247655D03*
%TD*%
D15*
%TO.C,D2*%
X-1050000Y-19485155D03*
X825000Y-19485155D03*
%TD*%
D16*
%TO.C,J5*%
X21563427Y6057345D03*
D17*
X21563427Y7327345D03*
X21563427Y8597345D03*
X21563427Y9867345D03*
X21563427Y11137345D03*
X21563427Y12407345D03*
X21563427Y13677345D03*
X21563427Y14947345D03*
%TD*%
D10*
%TO.C,R2*%
X-3412500Y15002345D03*
X-1587500Y15002345D03*
%TD*%
D21*
%TO.C,SW2*%
X15250000Y-3997655D03*
X8750000Y-3997655D03*
%TD*%
D19*
%TO.C,R11*%
X1000000Y-8085155D03*
X1000000Y-9910155D03*
%TD*%
D23*
%TO.C,C6*%
X9050000Y-997655D03*
X10950000Y-997655D03*
%TD*%
D25*
%TO.C,R7*%
X-7000000Y24589845D03*
X-7000000Y26414845D03*
%TD*%
D10*
%TO.C,R4*%
X-3412500Y10502345D03*
X-1587500Y10502345D03*
%TD*%
%TO.C,R6*%
X-3412500Y6002345D03*
X-1587500Y6002345D03*
%TD*%
D14*
%TO.C,C1*%
X-16000000Y15552345D03*
X-16000000Y17452345D03*
%TD*%
D20*
%TO.C,R1*%
X-1587500Y17002345D03*
X-3412500Y17002345D03*
%TD*%
D18*
%TO.C,C3*%
X-11000000Y6952345D03*
X-11000000Y5052345D03*
%TD*%
D26*
%TO.C,U4*%
X-23700000Y-8997655D03*
D27*
X-13500000Y1202345D03*
X-13500000Y-19197655D03*
D26*
X-3300000Y-8997655D03*
D28*
X-20500000Y-497655D03*
D29*
X-18500000Y-497655D03*
X-20500000Y-2497655D03*
X-18500000Y-2497655D03*
X-20500000Y-4497655D03*
X-18500000Y-4497655D03*
X-20500000Y-6497655D03*
X-18500000Y-6497655D03*
%TD*%
D25*
%TO.C,R8*%
X7000000Y24589845D03*
X7000000Y26414845D03*
%TD*%
D20*
%TO.C,R12*%
X14912500Y-14997655D03*
X13087500Y-14997655D03*
%TD*%
%TO.C,R3*%
X-1587500Y12502345D03*
X-3412500Y12502345D03*
%TD*%
D30*
%TO.C,J6*%
X-5750000Y-27475000D03*
D31*
X-3210000Y-27475000D03*
%TD*%
D32*
%TO.C,SW8*%
X-26700000Y-2497655D03*
X-26700000Y2345D03*
X-26700000Y2502345D03*
%TD*%
D21*
%TO.C,SW4*%
X15250000Y-17997655D03*
X8750000Y-17997655D03*
%TD*%
D30*
%TO.C,U3*%
X-3810000Y27502345D03*
D31*
X-1270000Y27502345D03*
X1270000Y27502345D03*
X3810000Y27502345D03*
%TD*%
D20*
%TO.C,R15*%
X-18587500Y5502345D03*
X-20412500Y5502345D03*
%TD*%
D24*
%TO.C,SW5*%
X20000000Y-7747655D03*
X20000000Y-14247655D03*
%TD*%
D33*
%TO.C,U1*%
X15900000Y14202345D03*
D34*
X16445000Y17237345D03*
X15175000Y17237345D03*
X13905000Y17237345D03*
X12635000Y17237345D03*
X11365000Y17237345D03*
X10095000Y17237345D03*
X8825000Y17237345D03*
X7555000Y17237345D03*
D35*
X5265000Y14947345D03*
X5265000Y13677345D03*
X5265000Y12407345D03*
X5265000Y11137345D03*
X5265000Y9867345D03*
X5265000Y8597345D03*
X5265000Y7327345D03*
X5265000Y6057345D03*
D34*
X7555000Y3767345D03*
X8825000Y3767345D03*
X10095000Y3767345D03*
X11365000Y3767345D03*
X12635000Y3767345D03*
X13905000Y3767345D03*
X15175000Y3767345D03*
X16445000Y3767345D03*
D35*
X18735000Y6057345D03*
X18735000Y7327345D03*
X18735000Y8597345D03*
X18735000Y9867345D03*
X18735000Y11137345D03*
X18735000Y12407345D03*
D36*
X18835000Y13677345D03*
X18835000Y14947345D03*
%TD*%
D30*
%TO.C,J1*%
X26000000Y7622345D03*
D31*
X26000000Y5082345D03*
X26000000Y2542345D03*
X26000000Y2345D03*
X26000000Y-2537655D03*
X26000000Y-5077655D03*
X26000000Y-7617655D03*
%TD*%
D20*
%TO.C,R10*%
X14912500Y-997655D03*
X13087500Y-997655D03*
%TD*%
D23*
%TO.C,C5*%
X9050000Y-7997655D03*
X10950000Y-7997655D03*
%TD*%
D18*
%TO.C,C2*%
X-16000000Y13952345D03*
X-16000000Y12052345D03*
%TD*%
D14*
%TO.C,C9*%
X23000000Y-13947655D03*
X23000000Y-12047655D03*
%TD*%
D37*
%TO.C,C4*%
X-20500000Y9852345D03*
D38*
X-23000000Y9852345D03*
%TD*%
D39*
%TO.C,BT2*%
X0Y-24247655D03*
X0Y24252345D03*
%TD*%
%TO.C,BT1*%
X12000000Y24252345D03*
X12000000Y-24247655D03*
%TD*%
%TO.C,BT3*%
X-12000000Y24252345D03*
X-12000000Y-24247655D03*
%TD*%
M02*
