M48
; DRILL file {KiCad 8.0.1} date 2024-08-14T10:44:39+0900
; FORMAT={-:-/ absolute / inch / decimal}
; #@! TF.CreationDate,2024-08-14T10:44:39+09:00
; #@! TF.GenerationSoftware,Kicad,Pcbnew,8.0.1
; #@! TF.FileFunction,Plated,1,2,PTH
FMAT,2
INCH
; #@! TA.AperFunction,Plated,PTH,ViaDrill
T1C0.0118
; #@! TA.AperFunction,Plated,PTH,ComponentDrill
T2C0.0276
; #@! TA.AperFunction,Plated,PTH,ComponentDrill
T3C0.0315
; #@! TA.AperFunction,Plated,PTH,ComponentDrill
T4C0.0394
%
G90
G05
T1
X-0.8957Y-0.5157
X-0.8465Y0.689
X-0.8465Y0.6496
X-0.8465Y0.6102
X-0.8071Y0.689
X-0.8071Y0.6496
X-0.8071Y0.6102
X-0.7677Y0.689
X-0.7677Y0.6496
X-0.7677Y0.6102
X-0.7249Y-0.7835
X-0.6594Y-0.5157
X-0.6531Y-0.7835
X-0.628Y-0.5157
X-0.6235Y-0.7322
X-0.4493Y-0.8386
X-0.3445Y-0.0393
X-0.3155Y0.4055
X-0.2474Y-0.0375
X-0.2264Y-0.6004
X-0.1973Y0.4055
X-0.1772Y0.63
X-0.1772Y0.4528
X-0.1772Y0.2757
X-0.1772Y0.2363
X-0.1771Y0.128
X-0.1181Y-0.1181
X-0.0787Y-0.1575
X-0.0394Y0.8268
X-0.0394Y0.7874
X-0.0394Y0.748
X-0.0394Y-0.1969
X0.0Y0.8268
X0.0Y0.7874
X0.0Y0.748
X0.0Y-0.2362
X0.0098Y0.384
X0.0098Y0.1969
X0.029Y0.5189
X0.0394Y0.8268
X0.0394Y0.7874
X0.0394Y0.748
X0.0472Y-0.0472
X0.0689Y-0.2264
X0.0699Y-0.1781
X0.1373Y0.6387
X0.187Y0.1969
X0.187Y0.1477
X0.2756Y0.8977
X0.3213Y0.2375
X0.4331Y0.4528
X0.4331Y0.4135
X0.4331Y0.3741
X0.4724Y0.4528
X0.4724Y0.4135
X0.4724Y0.3741
X0.5118Y0.4528
X0.5118Y0.4135
X0.5118Y0.3741
X0.6496Y-0.3149
X0.6496Y-0.5905
X0.69Y0.0901
X0.8268Y-0.1574
X0.9902Y0.0493
T2
X0.0959Y0.5885
X0.0959Y0.5385
X0.0959Y0.4885
X0.0959Y0.4385
X0.0959Y0.3885
X0.0959Y0.3385
X0.0959Y0.2885
X0.0959Y0.2385
X0.2974Y0.79
X0.2974Y0.037
X0.3474Y0.79
X0.3474Y0.037
X0.3974Y0.79
X0.3974Y0.037
X0.4474Y0.79
X0.4474Y0.037
X0.4974Y0.79
X0.4974Y0.037
X0.5474Y0.79
X0.5474Y0.037
X0.5974Y0.79
X0.5974Y0.037
X0.6474Y0.79
X0.6474Y0.037
X0.849Y0.5885
X0.849Y0.5385
X0.849Y0.4885
X0.849Y0.4385
X0.849Y0.3885
X0.849Y0.3385
X0.849Y0.2885
X0.849Y0.2385
T3
X-1.0512Y0.0985
X-1.0512Y0.0001
X-1.0512Y-0.0983
X-0.9055Y0.3879
X-0.8071Y0.3879
X-0.8071Y-0.0196
X-0.8071Y-0.0983
X-0.8071Y-0.1771
X-0.8071Y-0.2558
X-0.7283Y-0.0196
X-0.7283Y-0.0983
X-0.7283Y-0.1771
X-0.7283Y-0.2558
T4
X-0.2264Y-1.0817
X-0.15Y1.0828
X-0.1264Y-1.0817
X-0.05Y1.0828
X0.05Y1.0828
X0.15Y1.0828
X1.0236Y0.3001
X1.0236Y0.2001
X1.0236Y0.1001
X1.0236Y0.0001
X1.0236Y-0.0999
X1.0236Y-0.1999
X1.0236Y-0.2999
T3
G00X0.1713Y-0.305
M15
G01X0.1437Y-0.305
M16
G05
G00X0.1713Y-0.5609
M15
G01X0.1437Y-0.5609
M16
G05
G00X0.3445Y-0.1712
M15
G01X0.3445Y-0.1436
M16
G05
G00X0.3445Y-0.4468
M15
G01X0.3445Y-0.4192
M16
G05
G00X0.3445Y-0.7223
M15
G01X0.3445Y-0.6948
M16
G05
G00X0.6004Y-0.1712
M15
G01X0.6004Y-0.1436
M16
G05
G00X0.6004Y-0.4468
M15
G01X0.6004Y-0.4192
M16
G05
G00X0.6004Y-0.7223
M15
G01X0.6004Y-0.6948
M16
G05
G00X0.8012Y-0.305
M15
G01X0.7736Y-0.305
M16
G05
G00X0.8012Y-0.5609
M15
G01X0.7736Y-0.5609
M16
G05
T4
G00X-0.4193Y0.9548
M15
G01X-0.5256Y0.9548
M16
G05
G00X-0.4193Y-0.9546
M15
G01X-0.5256Y-0.9546
M16
G05
G00X-0.0531Y0.9548
M15
G01X0.0531Y0.9548
M16
G05
G00X-0.0531Y-0.9546
M15
G01X0.0531Y-0.9546
M16
G05
G00X0.5256Y0.9548
M15
G01X0.4193Y0.9548
M16
G05
G00X0.5256Y-0.9546
M15
G01X0.4193Y-0.9546
M16
G05
M30
