%TF.GenerationSoftware,KiCad,Pcbnew,8.0.1*%
%TF.CreationDate,2024-05-14T23:10:40+09:00*%
%TF.ProjectId,main,6d61696e-2e6b-4696-9361-645f70636258,rev?*%
%TF.SameCoordinates,Original*%
%TF.FileFunction,Copper,L2,Bot*%
%TF.FilePolarity,Positive*%
%FSLAX46Y46*%
G04 Gerber Fmt 4.6, Leading zero omitted, Abs format (unit mm)*
G04 Created by KiCad (PCBNEW 8.0.1) date 2024-05-14 23:10:40*
%MOMM*%
%LPD*%
G01*
G04 APERTURE LIST*
G04 Aperture macros list*
%AMRoundRect*
0 Rectangle with rounded corners*
0 $1 Rounding radius*
0 $2 $3 $4 $5 $6 $7 $8 $9 X,Y pos of 4 corners*
0 Add a 4 corners polygon primitive as box body*
4,1,4,$2,$3,$4,$5,$6,$7,$8,$9,$2,$3,0*
0 Add four circle primitives for the rounded corners*
1,1,$1+$1,$2,$3*
1,1,$1+$1,$4,$5*
1,1,$1+$1,$6,$7*
1,1,$1+$1,$8,$9*
0 Add four rect primitives between the rounded corners*
20,1,$1+$1,$2,$3,$4,$5,0*
20,1,$1+$1,$4,$5,$6,$7,0*
20,1,$1+$1,$6,$7,$8,$9,0*
20,1,$1+$1,$8,$9,$2,$3,0*%
%AMHorizOval*
0 Thick line with rounded ends*
0 $1 width*
0 $2 $3 position (X,Y) of the first rounded end (center of the circle)*
0 $4 $5 position (X,Y) of the second rounded end (center of the circle)*
0 Add line between two ends*
20,1,$1,$2,$3,$4,$5,0*
0 Add two circle primitives to create the rounded ends*
1,1,$1,$2,$3*
1,1,$1,$4,$5*%
%AMRotRect*
0 Rectangle, with rotation*
0 The origin of the aperture is its center*
0 $1 length*
0 $2 width*
0 $3 Rotation angle, in degrees counterclockwise*
0 Add horizontal line*
21,1,$1,$2,0,0,$3*%
G04 Aperture macros list end*
%TA.AperFunction,EtchedComponent*%
%ADD10C,0.000000*%
%TD*%
%TA.AperFunction,ComponentPad*%
%ADD11O,2.700000X2.000000*%
%TD*%
%TA.AperFunction,ComponentPad*%
%ADD12O,1.700000X1.700000*%
%TD*%
%TA.AperFunction,ComponentPad*%
%ADD13R,1.700000X1.700000*%
%TD*%
%TA.AperFunction,ComponentPad*%
%ADD14C,1.350000*%
%TD*%
%TA.AperFunction,ComponentPad*%
%ADD15O,2.000000X2.700000*%
%TD*%
%TA.AperFunction,SMDPad,CuDef*%
%ADD16R,3.048000X4.572000*%
%TD*%
%TA.AperFunction,SMDPad,CuDef*%
%ADD17RoundRect,0.250000X0.450000X-0.262500X0.450000X0.262500X-0.450000X0.262500X-0.450000X-0.262500X0*%
%TD*%
%TA.AperFunction,SMDPad,CuDef*%
%ADD18RoundRect,0.250000X-0.132583X0.503814X-0.503814X0.132583X0.132583X-0.503814X0.503814X-0.132583X0*%
%TD*%
%TA.AperFunction,SMDPad,CuDef*%
%ADD19RoundRect,0.250000X-0.250000X-0.475000X0.250000X-0.475000X0.250000X0.475000X-0.250000X0.475000X0*%
%TD*%
%TA.AperFunction,SMDPad,CuDef*%
%ADD20RoundRect,0.250000X0.475000X-0.250000X0.475000X0.250000X-0.475000X0.250000X-0.475000X-0.250000X0*%
%TD*%
%TA.AperFunction,ComponentPad*%
%ADD21C,1.500000*%
%TD*%
%TA.AperFunction,SMDPad,CuDef*%
%ADD22RoundRect,0.250000X0.262500X0.450000X-0.262500X0.450000X-0.262500X-0.450000X0.262500X-0.450000X0*%
%TD*%
%TA.AperFunction,SMDPad,CuDef*%
%ADD23RoundRect,0.250000X-0.262500X-0.450000X0.262500X-0.450000X0.262500X0.450000X-0.262500X0.450000X0*%
%TD*%
%TA.AperFunction,SMDPad,CuDef*%
%ADD24R,1.000000X1.500000*%
%TD*%
%TA.AperFunction,ComponentPad*%
%ADD25RotRect,1.700000X1.700000X225.000000*%
%TD*%
%TA.AperFunction,ComponentPad*%
%ADD26HorizOval,1.700000X0.000000X0.000000X0.000000X0.000000X0*%
%TD*%
%TA.AperFunction,SMDPad,CuDef*%
%ADD27RoundRect,0.250000X0.132583X-0.503814X0.503814X-0.132583X-0.132583X0.503814X-0.503814X0.132583X0*%
%TD*%
%TA.AperFunction,SMDPad,CuDef*%
%ADD28RoundRect,0.218750X-0.218750X-0.256250X0.218750X-0.256250X0.218750X0.256250X-0.218750X0.256250X0*%
%TD*%
%TA.AperFunction,ViaPad*%
%ADD29C,0.600000*%
%TD*%
%TA.AperFunction,Conductor*%
%ADD30C,0.200000*%
%TD*%
%TA.AperFunction,Conductor*%
%ADD31C,2.000000*%
%TD*%
%TA.AperFunction,Conductor*%
%ADD32C,1.000000*%
%TD*%
%TA.AperFunction,Conductor*%
%ADD33C,0.500000*%
%TD*%
G04 APERTURE END LIST*
D10*
%TA.AperFunction,EtchedComponent*%
%TO.C,N-R*%
G36*
X97658237Y-80741763D02*
G01*
X97158237Y-80741763D01*
X97158237Y-80141763D01*
X97658237Y-80141763D01*
X97658237Y-80741763D01*
G37*
%TD.AperFunction*%
%TA.AperFunction,EtchedComponent*%
G36*
X97658237Y-83241763D02*
G01*
X97158237Y-83241763D01*
X97158237Y-82641763D01*
X97658237Y-82641763D01*
X97658237Y-83241763D01*
G37*
%TD.AperFunction*%
%TD*%
D11*
%TO.P,SW5,1,1*%
%TO.N,BTN-RIGHT*%
X59658237Y-108191763D03*
%TO.P,SW5,2,2*%
%TO.N,Net-(C10-Pad1)*%
X59658237Y-114691763D03*
%TD*%
%TO.P,SW3,1,1*%
%TO.N,BTN-LEFT*%
X72658237Y-108191763D03*
%TO.P,SW3,2,2*%
%TO.N,Net-(C10-Pad1)*%
X72658237Y-114691763D03*
%TD*%
D12*
%TO.P,U2,4,SDA*%
%TO.N,SDA*%
X69978237Y-80916763D03*
%TO.P,U2,3,SCL*%
%TO.N,SCL*%
X67438237Y-80916763D03*
%TO.P,U2,2,VCC*%
%TO.N,+3.3V*%
X64898237Y-80916763D03*
D13*
%TO.P,U2,1,GND*%
%TO.N,GND*%
X62358237Y-80916763D03*
%TD*%
D14*
%TO.P,U4,1,RX*%
%TO.N,GPS-TX=main*%
X90158237Y-112441763D03*
%TO.P,U4,2,GND*%
%TO.N,GND*%
X90158236Y-110441763D03*
%TO.P,U4,3,TX*%
%TO.N,GPS-RX=main*%
X92158236Y-112441763D03*
%TO.P,U4,4,BATT*%
%TO.N,unconnected-(U4-BATT-Pad4)*%
X92158237Y-110441763D03*
%TO.P,U4,5,VCC*%
%TO.N,Net-(U4-VCC)*%
X94158237Y-112441763D03*
%TO.P,U4,6,NC*%
%TO.N,unconnected-(U4-NC-Pad6)*%
X94158237Y-110441762D03*
%TO.P,U4,7,NC*%
%TO.N,unconnected-(U4-NC-Pad7)*%
X96158238Y-112441763D03*
%TO.P,U4,8,NC*%
%TO.N,unconnected-(U4-NC-Pad8)*%
X96158237Y-110441763D03*
%TD*%
D15*
%TO.P,SW2,1,1*%
%TO.N,BTN-UP*%
X69408237Y-115941763D03*
%TO.P,SW2,2,2*%
%TO.N,Net-(C10-Pad1)*%
X62908237Y-115941763D03*
%TD*%
%TO.P,SW1,1,1*%
%TO.N,BTN-CENTER*%
X69408237Y-111441763D03*
%TO.P,SW1,2,2*%
%TO.N,Net-(C10-Pad1)*%
X62908237Y-111441763D03*
%TD*%
%TO.P,SW4,1,1*%
%TO.N,BTN-DOWN*%
X69408237Y-107441763D03*
%TO.P,SW4,2,2*%
%TO.N,Net-(C10-Pad1)*%
X62908237Y-107441763D03*
%TD*%
D16*
%TO.P,BT1,1,+*%
%TO.N,VCC*%
X50918237Y-94941763D03*
%TO.P,BT1,2,-*%
%TO.N,Net-(BT1--)*%
X81398237Y-94941763D03*
%TD*%
D17*
%TO.P,R6,1*%
%TO.N,GND*%
X74658237Y-112354263D03*
%TO.P,R6,2*%
%TO.N,BTN-LEFT*%
X74658237Y-110529263D03*
%TD*%
D18*
%TO.P,R7,1*%
%TO.N,UART-USB=ON*%
X93890470Y-63709530D03*
%TO.P,R7,2*%
%TO.N,GND*%
X92600000Y-65000000D03*
%TD*%
D19*
%TO.P,C6,1*%
%TO.N,Net-(C10-Pad1)*%
X65208237Y-111441763D03*
%TO.P,C6,2*%
%TO.N,BTN-CENTER*%
X67108237Y-111441763D03*
%TD*%
%TO.P,C9,1*%
%TO.N,Net-(C10-Pad1)*%
X65208237Y-107441763D03*
%TO.P,C9,2*%
%TO.N,BTN-DOWN*%
X67108237Y-107441763D03*
%TD*%
D20*
%TO.P,C10,1*%
%TO.N,Net-(C10-Pad1)*%
X59658237Y-112391763D03*
%TO.P,C10,2*%
%TO.N,BTN-RIGHT*%
X59658237Y-110491763D03*
%TD*%
D18*
%TO.P,R9,1*%
%TO.N,UART-GPS=ON*%
X92390470Y-62209530D03*
%TO.P,R9,2*%
%TO.N,GND*%
X91100000Y-63500000D03*
%TD*%
D21*
%TO.P,SW6,1,A*%
%TO.N,UART-USB=ON*%
X93890470Y-68709530D03*
%TO.P,SW6,2,B*%
%TO.N,Net-(SW6-B)*%
X95658237Y-66941763D03*
%TO.P,SW6,3,C*%
%TO.N,UART-GPS=ON*%
X97426004Y-65173996D03*
%TD*%
D22*
%TO.P,R13,1*%
%TO.N,Net-(JP4-B)*%
X110320737Y-84941763D03*
%TO.P,R13,2*%
%TO.N,USB-RX=main*%
X108495737Y-84941763D03*
%TD*%
D23*
%TO.P,R8,1*%
%TO.N,GND*%
X65245737Y-105441763D03*
%TO.P,R8,2*%
%TO.N,BTN-DOWN*%
X67070737Y-105441763D03*
%TD*%
D17*
%TO.P,R11,1*%
%TO.N,+3.3V*%
X69978237Y-78329263D03*
%TO.P,R11,2*%
%TO.N,SDA*%
X69978237Y-76504263D03*
%TD*%
D19*
%TO.P,C8,1*%
%TO.N,Net-(C10-Pad1)*%
X65208237Y-115941763D03*
%TO.P,C8,2*%
%TO.N,BTN-UP*%
X67108237Y-115941763D03*
%TD*%
D24*
%TO.P,N-R,1,A*%
%TO.N,Net-(J2-Pin_4)*%
X98058237Y-80441763D03*
%TO.P,N-R,2,B*%
%TO.N,USB-TX=main*%
X96758237Y-80441763D03*
%TD*%
D23*
%TO.P,R3,1*%
%TO.N,GND*%
X65245737Y-117941763D03*
%TO.P,R3,2*%
%TO.N,BTN-UP*%
X67070737Y-117941763D03*
%TD*%
D20*
%TO.P,C7,1*%
%TO.N,Net-(C10-Pad1)*%
X72658237Y-112391763D03*
%TO.P,C7,2*%
%TO.N,BTN-LEFT*%
X72658237Y-110491763D03*
%TD*%
D23*
%TO.P,R1,1*%
%TO.N,GND*%
X65245737Y-119941763D03*
%TO.P,R1,2*%
%TO.N,BTN-CENTER*%
X67070737Y-119941763D03*
%TD*%
D17*
%TO.P,R4,1*%
%TO.N,GND*%
X57658237Y-112354263D03*
%TO.P,R4,2*%
%TO.N,BTN-RIGHT*%
X57658237Y-110529263D03*
%TD*%
D25*
%TO.P,J2,1,Pin_1*%
%TO.N,GND*%
X95574517Y-73080583D03*
D26*
%TO.P,J2,2,Pin_2*%
%TO.N,CTS=main*%
X97370568Y-74876634D03*
%TO.P,J2,3,Pin_3*%
%TO.N,unconnected-(J2-Pin_3-Pad3)*%
X99166619Y-76672685D03*
%TO.P,J2,4,Pin_4*%
%TO.N,Net-(J2-Pin_4)*%
X100962671Y-78468737D03*
%TO.P,J2,5,Pin_5*%
%TO.N,Net-(J2-Pin_5)*%
X102758722Y-80264788D03*
%TO.P,J2,6,Pin_6*%
%TO.N,RTS=main*%
X104554773Y-82060839D03*
%TD*%
D27*
%TO.P,R5,1*%
%TO.N,+3.3V*%
X88309530Y-63290470D03*
%TO.P,R5,2*%
%TO.N,Net-(SW6-B)*%
X89600000Y-62000000D03*
%TD*%
D24*
%TO.P,N-R,1,A*%
%TO.N,Net-(J2-Pin_5)*%
X98058237Y-82941763D03*
%TO.P,N-R,2,B*%
%TO.N,USB-RX=main*%
X96758237Y-82941763D03*
%TD*%
%TO.P,R,1,A*%
%TO.N,Net-(J2-Pin_4)*%
X113808237Y-82441763D03*
%TO.P,R,2,B*%
%TO.N,Net-(JP2-B)*%
X112508237Y-82441763D03*
%TD*%
D22*
%TO.P,R2,1*%
%TO.N,+3.3V*%
X67070737Y-121941763D03*
%TO.P,R2,2*%
%TO.N,Net-(C10-Pad1)*%
X65245737Y-121941763D03*
%TD*%
D28*
%TO.P,FB,1*%
%TO.N,+3.3V*%
X91370737Y-114691763D03*
%TO.P,FB,2*%
%TO.N,Net-(U4-VCC)*%
X92945737Y-114691763D03*
%TD*%
D22*
%TO.P,R12,1*%
%TO.N,Net-(JP2-B)*%
X110320737Y-82441763D03*
%TO.P,R12,2*%
%TO.N,USB-TX=main*%
X108495737Y-82441763D03*
%TD*%
D17*
%TO.P,R10,1*%
%TO.N,+3.3V*%
X67478237Y-78329263D03*
%TO.P,R10,2*%
%TO.N,SCL*%
X67478237Y-76504263D03*
%TD*%
D16*
%TO.P,BT2,1,+*%
%TO.N,Net-(BT1--)*%
X84918237Y-94941763D03*
%TO.P,BT2,2,-*%
%TO.N,GND*%
X115398237Y-94941763D03*
%TD*%
D24*
%TO.P,R,1,A*%
%TO.N,Net-(J2-Pin_5)*%
X113808237Y-84941763D03*
%TO.P,R,2,B*%
%TO.N,Net-(JP4-B)*%
X112508237Y-84941763D03*
%TD*%
D29*
%TO.N,GND*%
X78858237Y-72591763D03*
X78858237Y-73991763D03*
X86058237Y-75191763D03*
X86058237Y-73991763D03*
X81658237Y-73991763D03*
X80258237Y-73991763D03*
X80258237Y-72591763D03*
X80258237Y-71191763D03*
X81658237Y-69991763D03*
X81658237Y-71191763D03*
X81658237Y-72591763D03*
X86058237Y-72591763D03*
X86058237Y-71191763D03*
X86058237Y-69991763D03*
%TO.N,VCC*%
X61658237Y-94941763D03*
X83158237Y-89741763D03*
%TO.N,+3.3V*%
X84120737Y-121941763D03*
X83793237Y-78576763D03*
X68728237Y-78329263D03*
%TO.N,CTS=main*%
X88393237Y-75286763D03*
%TO.N,USB-TX=main*%
X93658237Y-78691763D03*
%TO.N,RTS=main*%
X95593237Y-76686763D03*
X88393237Y-76686763D03*
%TO.N,USB-RX=main*%
X93658237Y-81191763D03*
%TO.N,RX=main*%
X93658237Y-79941763D03*
X83908237Y-112441763D03*
X88393237Y-77886763D03*
%TO.N,UART-GPS=ON*%
X83908237Y-110691763D03*
%TO.N,BTN-CENTER*%
X57658237Y-93591763D03*
X82458237Y-63591763D03*
%TO.N,BTN-UP*%
X58658237Y-93591763D03*
X83458237Y-63591763D03*
%TO.N,BTN-RIGHT*%
X61658237Y-93591763D03*
X86333237Y-63506763D03*
%TO.N,BTN-LEFT*%
X59658237Y-93591763D03*
X84458237Y-63591763D03*
%TO.N,BTN-DOWN*%
X85428972Y-63562498D03*
X60658237Y-93591763D03*
%TD*%
D30*
%TO.N,Net-(C10-Pad1)*%
X66058237Y-121129263D02*
X66058237Y-116791763D01*
X66058237Y-116791763D02*
X65208237Y-115941763D01*
X65245737Y-121941763D02*
X66058237Y-121129263D01*
%TO.N,BTN-CENTER*%
X70708237Y-112741763D02*
X69408237Y-111441763D01*
X70708237Y-116830241D02*
X70708237Y-112741763D01*
X67596715Y-119941763D02*
X70708237Y-116830241D01*
X67070737Y-119941763D02*
X67596715Y-119941763D01*
D31*
%TO.N,Net-(BT1--)*%
X81398237Y-94941763D02*
X84918237Y-94941763D01*
D32*
%TO.N,VCC*%
X61658237Y-94941763D02*
X50918237Y-94941763D01*
X83158237Y-89741763D02*
X80858237Y-89741763D01*
X80858237Y-89741763D02*
X75658237Y-94941763D01*
X75658237Y-94941763D02*
X61658237Y-94941763D01*
%TO.N,+3.3V*%
X67070737Y-121941763D02*
X84120737Y-121941763D01*
X83793237Y-67806763D02*
X88309530Y-63290470D01*
X83793237Y-78576763D02*
X83793237Y-67806763D01*
X84120737Y-121941763D02*
X91370737Y-114691763D01*
X67478237Y-78329263D02*
X69978237Y-78329263D01*
D30*
%TO.N,CTS=main*%
X96960439Y-75286763D02*
X97370568Y-74876634D01*
X88393237Y-75286763D02*
X96960439Y-75286763D01*
%TO.N,USB-TX=main*%
X95408237Y-80441763D02*
X96758237Y-80441763D01*
X101576659Y-75522685D02*
X98690273Y-75522685D01*
X93658237Y-78691763D02*
X95408237Y-80441763D01*
X98690273Y-75522685D02*
X96758237Y-77454721D01*
X108495737Y-82441763D02*
X101576659Y-75522685D01*
X96758237Y-77454721D02*
X96758237Y-80441763D01*
%TO.N,RTS=main*%
X95593237Y-76686763D02*
X88393237Y-76686763D01*
%TO.N,USB-RX=main*%
X95408237Y-82941763D02*
X96758237Y-82941763D01*
X96758237Y-83491763D02*
X96758237Y-82941763D01*
X93658237Y-81191763D02*
X95408237Y-82941763D01*
X108495737Y-84941763D02*
X107845737Y-84291763D01*
X97558237Y-84291763D02*
X96758237Y-83491763D01*
X107845737Y-84291763D02*
X97558237Y-84291763D01*
%TO.N,RX=main*%
X88393237Y-107956763D02*
X83908237Y-112441763D01*
X93658237Y-79941763D02*
X91603237Y-77886763D01*
X91603237Y-77886763D02*
X88393237Y-77886763D01*
X88393237Y-77886763D02*
X88393237Y-107956763D01*
%TO.N,UART-USB=ON*%
X96708237Y-67891763D02*
X95890470Y-68709530D01*
X95890470Y-68709530D02*
X93890470Y-68709530D01*
X93890470Y-63709530D02*
X93910929Y-63709530D01*
X96708237Y-66506838D02*
X96708237Y-67891763D01*
X93910929Y-63709530D02*
X96708237Y-66506838D01*
%TO.N,UART-GPS=ON*%
X89244497Y-60941289D02*
X91122229Y-60941289D01*
X92390470Y-62209530D02*
X94461538Y-62209530D01*
X89368241Y-63200131D02*
X88541289Y-62373179D01*
X87793237Y-65220977D02*
X89368241Y-63645973D01*
X91122229Y-60941289D02*
X92390470Y-62209530D01*
X89368241Y-63645973D02*
X89368241Y-63200131D01*
X88541289Y-62373179D02*
X88541289Y-61644497D01*
X83908237Y-110691763D02*
X87793237Y-106806763D01*
X87793237Y-106806763D02*
X87793237Y-65220977D01*
X88541289Y-61644497D02*
X89244497Y-60941289D01*
X94461538Y-62209530D02*
X97426004Y-65173996D01*
%TO.N,BTN-CENTER*%
X70454583Y-82066763D02*
X71378237Y-81143109D01*
X71378237Y-74671763D02*
X82458237Y-63591763D01*
X67108237Y-111441763D02*
X69408237Y-111441763D01*
X71378237Y-81143109D02*
X71378237Y-74671763D01*
X57658237Y-93591763D02*
X69183237Y-82066763D01*
X69183237Y-82066763D02*
X70454583Y-82066763D01*
%TO.N,Net-(C10-Pad1)*%
X59658237Y-112391763D02*
X59658237Y-114691763D01*
X61403237Y-111441763D02*
X62908237Y-111441763D01*
X60453237Y-112391763D02*
X61403237Y-111441763D01*
X65208237Y-111441763D02*
X65208237Y-115941763D01*
X65208237Y-111441763D02*
X65208237Y-107441763D01*
X59658237Y-112391763D02*
X60453237Y-112391763D01*
X72658237Y-112391763D02*
X72658237Y-114691763D01*
X65208237Y-111441763D02*
X62908237Y-111441763D01*
X65208237Y-115941763D02*
X62908237Y-115941763D01*
X72258237Y-114291763D02*
X72658237Y-114691763D01*
X65208237Y-107441763D02*
X62908237Y-107441763D01*
%TO.N,BTN-UP*%
X67070737Y-117941763D02*
X67070737Y-115979263D01*
X71778237Y-81308795D02*
X71778237Y-75271763D01*
X67070737Y-115979263D02*
X67108237Y-115941763D01*
X69783237Y-82466763D02*
X70620268Y-82466763D01*
X70620268Y-82466763D02*
X71778237Y-81308795D01*
X71778237Y-75271763D02*
X83458237Y-63591763D01*
X58658237Y-93591763D02*
X69783237Y-82466763D01*
X67108237Y-115941763D02*
X69408237Y-115941763D01*
%TO.N,BTN-RIGHT*%
X72978237Y-76861763D02*
X86333237Y-63506763D01*
X61658237Y-93591763D02*
X72978236Y-82271764D01*
X72978236Y-82271764D02*
X72978237Y-76861763D01*
X59620737Y-110529263D02*
X59658237Y-110491763D01*
X59658237Y-110491763D02*
X59658237Y-108191763D01*
X57658237Y-110529263D02*
X59620737Y-110529263D01*
%TO.N,Net-(SW6-B)*%
X95658237Y-66909187D02*
X95658237Y-66941763D01*
X89600000Y-62000000D02*
X90749050Y-62000000D01*
X90749050Y-62000000D02*
X95658237Y-66909187D01*
%TO.N,BTN-LEFT*%
X74658237Y-110529263D02*
X72695737Y-110529263D01*
X70785953Y-82866763D02*
X72178237Y-81474481D01*
X72695737Y-110529263D02*
X72658237Y-110491763D01*
X72658237Y-110491763D02*
X72658237Y-108191763D01*
X72178237Y-75871763D02*
X84458237Y-63591763D01*
X59658237Y-93591763D02*
X70383237Y-82866763D01*
X72178237Y-81474481D02*
X72178237Y-75871763D01*
X70383237Y-82866763D02*
X70785953Y-82866763D01*
%TO.N,BTN-DOWN*%
X72578236Y-81671764D02*
X72578237Y-76413233D01*
X60658237Y-93591763D02*
X72578236Y-81671764D01*
X67108237Y-107441763D02*
X69408237Y-107441763D01*
X67070737Y-105441763D02*
X67070737Y-107404263D01*
X67070737Y-107404263D02*
X67108237Y-107441763D01*
X72578237Y-76413233D02*
X85428972Y-63562498D01*
%TO.N,SCL*%
X66478237Y-79956763D02*
X66478237Y-77504263D01*
X66478237Y-77504263D02*
X67478237Y-76504263D01*
D32*
X67240307Y-76504263D02*
X67478237Y-76504263D01*
D30*
X67438237Y-80916763D02*
X66478237Y-79956763D01*
%TO.N,SDA*%
X70978237Y-79916763D02*
X70978237Y-77504263D01*
X70978237Y-77504263D02*
X69978237Y-76504263D01*
X69978237Y-80916763D02*
X70978237Y-79916763D01*
D33*
%TO.N,Net-(U4-VCC)*%
X94158237Y-113479263D02*
X92945737Y-114691763D01*
X94158237Y-112441763D02*
X94158237Y-113479263D01*
D30*
%TO.N,Net-(J2-Pin_4)*%
X98989645Y-80441763D02*
X100962671Y-78468737D01*
X113308237Y-83491763D02*
X107612043Y-83491763D01*
X107612043Y-83491763D02*
X102589017Y-78468737D01*
X102589017Y-78468737D02*
X100962671Y-78468737D01*
X113808237Y-82441763D02*
X113808237Y-82991763D01*
X98058237Y-80441763D02*
X98989645Y-80441763D01*
X113808237Y-82991763D02*
X113308237Y-83491763D01*
%TO.N,Net-(J2-Pin_5)*%
X98058237Y-82941763D02*
X100081747Y-82941763D01*
X108942981Y-83891763D02*
X109408237Y-84357019D01*
X102758722Y-80264788D02*
X102758722Y-81891134D01*
X109408237Y-85526507D02*
X110073493Y-86191763D01*
X100081747Y-82941763D02*
X102758722Y-80264788D01*
X113108237Y-86191763D02*
X113808237Y-85491763D01*
X110073493Y-86191763D02*
X113108237Y-86191763D01*
X104759351Y-83891763D02*
X108942981Y-83891763D01*
X109408237Y-84357019D02*
X109408237Y-85526507D01*
X113808237Y-85491763D02*
X113808237Y-84941763D01*
X102758722Y-81891134D02*
X104759351Y-83891763D01*
%TO.N,Net-(JP2-B)*%
X112508237Y-82441763D02*
X110320737Y-82441763D01*
%TO.N,Net-(JP4-B)*%
X112508237Y-84941763D02*
X110320737Y-84941763D01*
%TD*%
%TA.AperFunction,Conductor*%
%TO.N,GND*%
G36*
X94961872Y-61527179D02*
G01*
X95056432Y-61560394D01*
X95138138Y-61589095D01*
X95142019Y-61590533D01*
X95784283Y-61840816D01*
X96223958Y-62012153D01*
X96227834Y-62013739D01*
X96374357Y-62076617D01*
X97294960Y-62471679D01*
X97298691Y-62473355D01*
X98287026Y-62937615D01*
X98349710Y-62967060D01*
X98353464Y-62968901D01*
X99387228Y-63497831D01*
X99390857Y-63499766D01*
X100406180Y-64063317D01*
X100409756Y-64065381D01*
X100912575Y-64367120D01*
X101405438Y-64662884D01*
X101408991Y-64665099D01*
X102383931Y-65295894D01*
X102387338Y-65298181D01*
X103340424Y-65961548D01*
X103343816Y-65963996D01*
X104189272Y-66595884D01*
X104273915Y-66659145D01*
X104277214Y-66661699D01*
X105183301Y-67387863D01*
X105186516Y-67390530D01*
X105862473Y-67970819D01*
X106067579Y-68146897D01*
X106070711Y-68149679D01*
X106917166Y-68927507D01*
X106925694Y-68935343D01*
X106928723Y-68938221D01*
X107756756Y-69752386D01*
X107759647Y-69755327D01*
X108111281Y-70125245D01*
X108559661Y-70596941D01*
X108562495Y-70600025D01*
X109320631Y-71453547D01*
X109333610Y-71468158D01*
X109336327Y-71471322D01*
X109352760Y-71491131D01*
X110077727Y-72365060D01*
X110080346Y-72368329D01*
X110791084Y-73286527D01*
X110793592Y-73289882D01*
X111195893Y-73847553D01*
X111443827Y-74191241D01*
X111472938Y-74231594D01*
X111475329Y-74235029D01*
X112092155Y-75153969D01*
X112122478Y-75199143D01*
X112124745Y-75202648D01*
X112736739Y-76184501D01*
X112738978Y-76188092D01*
X112741124Y-76191669D01*
X113286073Y-77135547D01*
X113321705Y-77197264D01*
X113323736Y-77200923D01*
X113850800Y-78189500D01*
X113870032Y-78225571D01*
X113871932Y-78229285D01*
X114358768Y-79221766D01*
X114383310Y-79271798D01*
X114385088Y-79275583D01*
X114466361Y-79456477D01*
X114860971Y-80334790D01*
X114862622Y-80338639D01*
X115302441Y-81413266D01*
X115303962Y-81417169D01*
X115707243Y-82506064D01*
X115708631Y-82510016D01*
X115968323Y-83291263D01*
X116051756Y-83542263D01*
X116074901Y-83611890D01*
X116076155Y-83615887D01*
X116405001Y-84729505D01*
X116406120Y-84733541D01*
X116697176Y-85857665D01*
X116698157Y-85861737D01*
X116951074Y-86995025D01*
X116951917Y-86999128D01*
X117166415Y-88140310D01*
X117167119Y-88144439D01*
X117342953Y-89292220D01*
X117343517Y-89296370D01*
X117480483Y-90449418D01*
X117480907Y-90453586D01*
X117578852Y-91610617D01*
X117579135Y-91614795D01*
X117618947Y-92399810D01*
X117602683Y-92467761D01*
X117552264Y-92516132D01*
X117483698Y-92529565D01*
X117418754Y-92503797D01*
X117378924Y-92449423D01*
X117365592Y-92413678D01*
X117365587Y-92413669D01*
X117279427Y-92298575D01*
X117279424Y-92298572D01*
X117164330Y-92212412D01*
X117164323Y-92212408D01*
X117029616Y-92162166D01*
X117029609Y-92162164D01*
X116970081Y-92155763D01*
X113826392Y-92155763D01*
X113766864Y-92162164D01*
X113766857Y-92162166D01*
X113632150Y-92212408D01*
X113632143Y-92212412D01*
X113517049Y-92298572D01*
X113517046Y-92298575D01*
X113430886Y-92413669D01*
X113430882Y-92413676D01*
X113380638Y-92548389D01*
X113378480Y-92568453D01*
X113378481Y-92568455D01*
X115398237Y-94588210D01*
X115664108Y-94854081D01*
X115697593Y-94915404D01*
X115692609Y-94985096D01*
X115664108Y-95029443D01*
X113378480Y-97315070D01*
X113380638Y-97335136D01*
X113430882Y-97469849D01*
X113430886Y-97469856D01*
X113517046Y-97584950D01*
X113517049Y-97584953D01*
X113632143Y-97671113D01*
X113632150Y-97671117D01*
X113766857Y-97721359D01*
X113766864Y-97721361D01*
X113826392Y-97727762D01*
X113826409Y-97727763D01*
X116970065Y-97727763D01*
X116970081Y-97727762D01*
X117029609Y-97721361D01*
X117029616Y-97721359D01*
X117164323Y-97671117D01*
X117164326Y-97671115D01*
X117248873Y-97607823D01*
X117314337Y-97583405D01*
X117382610Y-97598256D01*
X117432016Y-97647660D01*
X117446869Y-97715933D01*
X117446319Y-97721716D01*
X117343517Y-98587155D01*
X117342953Y-98591305D01*
X117167119Y-99739086D01*
X117166415Y-99743215D01*
X116951917Y-100884397D01*
X116951074Y-100888500D01*
X116698157Y-102021788D01*
X116697176Y-102025860D01*
X116406120Y-103149984D01*
X116405001Y-103154020D01*
X116076155Y-104267638D01*
X116074901Y-104271635D01*
X115708631Y-105373509D01*
X115707243Y-105377461D01*
X115303962Y-106466356D01*
X115302441Y-106470259D01*
X114862622Y-107544886D01*
X114860971Y-107548735D01*
X114385091Y-108607936D01*
X114383310Y-108611727D01*
X113871940Y-109654225D01*
X113870032Y-109657954D01*
X113323738Y-110682599D01*
X113321705Y-110686261D01*
X112741133Y-111691841D01*
X112738978Y-111695433D01*
X112124753Y-112680866D01*
X112122478Y-112684382D01*
X111475331Y-113648493D01*
X111472938Y-113651931D01*
X110793592Y-114593643D01*
X110791084Y-114596998D01*
X110080346Y-115515196D01*
X110077727Y-115518465D01*
X109336339Y-116412189D01*
X109333610Y-116415367D01*
X108562495Y-117283500D01*
X108559661Y-117286584D01*
X107759670Y-118128175D01*
X107756734Y-118131162D01*
X106928730Y-118945297D01*
X106925694Y-118948182D01*
X106070711Y-119733846D01*
X106067579Y-119736628D01*
X105186525Y-120492988D01*
X105183301Y-120495662D01*
X104277227Y-121221816D01*
X104273915Y-121224380D01*
X103343821Y-121919526D01*
X103340424Y-121921977D01*
X102387373Y-122585320D01*
X102383896Y-122587654D01*
X101408993Y-123218425D01*
X101405438Y-123220641D01*
X100409781Y-123818129D01*
X100406154Y-123820223D01*
X99390891Y-124383741D01*
X99387194Y-124385712D01*
X98353470Y-124914621D01*
X98349710Y-124916465D01*
X97298736Y-125410149D01*
X97294915Y-125411866D01*
X96227834Y-125869786D01*
X96223958Y-125871372D01*
X95142052Y-126292980D01*
X95138124Y-126294435D01*
X94042566Y-126679271D01*
X94038591Y-126680592D01*
X92930678Y-127028202D01*
X92926661Y-127029388D01*
X91807645Y-127339380D01*
X91803590Y-127340430D01*
X90674751Y-127612448D01*
X90670663Y-127613361D01*
X89533226Y-127847110D01*
X89529110Y-127847883D01*
X88384503Y-128043070D01*
X88380362Y-128043705D01*
X87229759Y-128200130D01*
X87225600Y-128200624D01*
X86070381Y-128318099D01*
X86066207Y-128318452D01*
X84907693Y-128396841D01*
X84903510Y-128397053D01*
X83743017Y-128436271D01*
X83738829Y-128436342D01*
X82577645Y-128436342D01*
X82573457Y-128436271D01*
X81412963Y-128397053D01*
X81408780Y-128396841D01*
X80250266Y-128318452D01*
X80246092Y-128318099D01*
X79090873Y-128200624D01*
X79086714Y-128200130D01*
X77936111Y-128043705D01*
X77931970Y-128043070D01*
X76787363Y-127847883D01*
X76783247Y-127847110D01*
X75645810Y-127613361D01*
X75641722Y-127612448D01*
X74512883Y-127340430D01*
X74508828Y-127339380D01*
X73389812Y-127029388D01*
X73385795Y-127028202D01*
X72277882Y-126680592D01*
X72273907Y-126679271D01*
X71178349Y-126294435D01*
X71174421Y-126292980D01*
X70092515Y-125871372D01*
X70088639Y-125869786D01*
X69352115Y-125553719D01*
X69021540Y-125411858D01*
X69017755Y-125410157D01*
X68311222Y-125078271D01*
X67966763Y-124916465D01*
X67963003Y-124914621D01*
X66929279Y-124385712D01*
X66925595Y-124383748D01*
X65910312Y-123820218D01*
X65906692Y-123818129D01*
X65164239Y-123372587D01*
X65116884Y-123321213D01*
X65104822Y-123252392D01*
X65131882Y-123187975D01*
X65189472Y-123148414D01*
X65228040Y-123142262D01*
X65558245Y-123142262D01*
X65558253Y-123142261D01*
X65558256Y-123142261D01*
X65614539Y-123136511D01*
X65661034Y-123131762D01*
X65827571Y-123076577D01*
X65976893Y-122984475D01*
X66070556Y-122890812D01*
X66131879Y-122857327D01*
X66201571Y-122862311D01*
X66245918Y-122890812D01*
X66339581Y-122984475D01*
X66488903Y-123076577D01*
X66655440Y-123131762D01*
X66758228Y-123142263D01*
X67383245Y-123142262D01*
X67383253Y-123142261D01*
X67383256Y-123142261D01*
X67439539Y-123136511D01*
X67486034Y-123131762D01*
X67652571Y-123076577D01*
X67801893Y-122984475D01*
X67807786Y-122978582D01*
X67869109Y-122945097D01*
X67895467Y-122942263D01*
X84219279Y-122942263D01*
X84238607Y-122938418D01*
X84315925Y-122923038D01*
X84412573Y-122903814D01*
X84465902Y-122881724D01*
X84594651Y-122828395D01*
X84758519Y-122718902D01*
X84897876Y-122579545D01*
X84897876Y-122579543D01*
X84908084Y-122569336D01*
X84908085Y-122569333D01*
X91841219Y-115636200D01*
X91889901Y-115606175D01*
X91895524Y-115604312D01*
X92038628Y-115516044D01*
X92070556Y-115484116D01*
X92131879Y-115450631D01*
X92201571Y-115455615D01*
X92245918Y-115484116D01*
X92277845Y-115516043D01*
X92277849Y-115516046D01*
X92420941Y-115604307D01*
X92420944Y-115604308D01*
X92420950Y-115604312D01*
X92580552Y-115657199D01*
X92679063Y-115667263D01*
X92679068Y-115667263D01*
X93212406Y-115667263D01*
X93212411Y-115667263D01*
X93310922Y-115657199D01*
X93470524Y-115604312D01*
X93613628Y-115516044D01*
X93732518Y-115397154D01*
X93820786Y-115254050D01*
X93873673Y-115094448D01*
X93883737Y-114995937D01*
X93883737Y-114866493D01*
X93903422Y-114799454D01*
X93920056Y-114778812D01*
X94251622Y-114447246D01*
X94741189Y-113957679D01*
X94790423Y-113883992D01*
X94823321Y-113834758D01*
X94879895Y-113698176D01*
X94904783Y-113573059D01*
X94908737Y-113553183D01*
X94908737Y-113402987D01*
X94928422Y-113335948D01*
X94949199Y-113311350D01*
X95030664Y-113237085D01*
X95059282Y-113199187D01*
X95115390Y-113157551D01*
X95185102Y-113152858D01*
X95246284Y-113186599D01*
X95257191Y-113199186D01*
X95285811Y-113237085D01*
X95446806Y-113383851D01*
X95446813Y-113383855D01*
X95446814Y-113383856D01*
X95632024Y-113498533D01*
X95632030Y-113498536D01*
X95654902Y-113507396D01*
X95835169Y-113577233D01*
X96049312Y-113617263D01*
X96049314Y-113617263D01*
X96267162Y-113617263D01*
X96267164Y-113617263D01*
X96481307Y-113577233D01*
X96684448Y-113498535D01*
X96869670Y-113383851D01*
X97030665Y-113237085D01*
X97161950Y-113063235D01*
X97259055Y-112868222D01*
X97318673Y-112658686D01*
X97338774Y-112441763D01*
X97318673Y-112224840D01*
X97259055Y-112015304D01*
X97161950Y-111820291D01*
X97066328Y-111693667D01*
X97030663Y-111646438D01*
X96906664Y-111533399D01*
X96870382Y-111473688D01*
X96872143Y-111403841D01*
X96906661Y-111350128D01*
X97030664Y-111237085D01*
X97161949Y-111063235D01*
X97259054Y-110868222D01*
X97318672Y-110658686D01*
X97338773Y-110441763D01*
X97318672Y-110224840D01*
X97259054Y-110015304D01*
X97161949Y-109820291D01*
X97030664Y-109646441D01*
X97030657Y-109646435D01*
X96869670Y-109499676D01*
X96869660Y-109499669D01*
X96684450Y-109384992D01*
X96684444Y-109384989D01*
X96599350Y-109352023D01*
X96481306Y-109306293D01*
X96267163Y-109266263D01*
X96049311Y-109266263D01*
X95835168Y-109306293D01*
X95786367Y-109325198D01*
X95632029Y-109384989D01*
X95632023Y-109384992D01*
X95446813Y-109499669D01*
X95446803Y-109499676D01*
X95285810Y-109646440D01*
X95285808Y-109646442D01*
X95257188Y-109684340D01*
X95201078Y-109725975D01*
X95131366Y-109730665D01*
X95070185Y-109696921D01*
X95059291Y-109684348D01*
X95030664Y-109646440D01*
X95030659Y-109646435D01*
X95030658Y-109646434D01*
X94869670Y-109499675D01*
X94869660Y-109499668D01*
X94684450Y-109384991D01*
X94684444Y-109384988D01*
X94599350Y-109352022D01*
X94481306Y-109306292D01*
X94267163Y-109266262D01*
X94049311Y-109266262D01*
X93835168Y-109306292D01*
X93786367Y-109325197D01*
X93632029Y-109384988D01*
X93632023Y-109384991D01*
X93446813Y-109499668D01*
X93446803Y-109499675D01*
X93285810Y-109646439D01*
X93257189Y-109684339D01*
X93201080Y-109725974D01*
X93131368Y-109730665D01*
X93070186Y-109696922D01*
X93059281Y-109684337D01*
X93051514Y-109674052D01*
X93030664Y-109646441D01*
X93030662Y-109646438D01*
X92869670Y-109499676D01*
X92869660Y-109499669D01*
X92684450Y-109384992D01*
X92684444Y-109384989D01*
X92599350Y-109352023D01*
X92481306Y-109306293D01*
X92267163Y-109266263D01*
X92049311Y-109266263D01*
X91835168Y-109306293D01*
X91786367Y-109325198D01*
X91632029Y-109384989D01*
X91632023Y-109384992D01*
X91446813Y-109499669D01*
X91446803Y-109499676D01*
X91285810Y-109646439D01*
X91206229Y-109751821D01*
X91188792Y-109764759D01*
X90558236Y-110395315D01*
X90558236Y-110389102D01*
X90530977Y-110287369D01*
X90478316Y-110196157D01*
X90403842Y-110121683D01*
X90312630Y-110069022D01*
X90210897Y-110041763D01*
X90204683Y-110041763D01*
X90793402Y-109453042D01*
X90684223Y-109385440D01*
X90684221Y-109385439D01*
X90481175Y-109306779D01*
X90481165Y-109306776D01*
X90267114Y-109266763D01*
X90049358Y-109266763D01*
X89835306Y-109306776D01*
X89835305Y-109306776D01*
X89632252Y-109385439D01*
X89632251Y-109385439D01*
X89523068Y-109453042D01*
X90111790Y-110041763D01*
X90105575Y-110041763D01*
X90003842Y-110069022D01*
X89912630Y-110121683D01*
X89838156Y-110196157D01*
X89785495Y-110287369D01*
X89758236Y-110389102D01*
X89758236Y-110395316D01*
X89167223Y-109804303D01*
X89154955Y-109820548D01*
X89154947Y-109820561D01*
X89057891Y-110015475D01*
X89057886Y-110015488D01*
X88998293Y-110224932D01*
X88978202Y-110441762D01*
X88978202Y-110441763D01*
X88998293Y-110658593D01*
X89057886Y-110868037D01*
X89057891Y-110868050D01*
X89154947Y-111062965D01*
X89154949Y-111062967D01*
X89167223Y-111079220D01*
X89758236Y-110488208D01*
X89758236Y-110494424D01*
X89785495Y-110596157D01*
X89838156Y-110687369D01*
X89912630Y-110761843D01*
X90003842Y-110814504D01*
X90105575Y-110841763D01*
X90111789Y-110841763D01*
X89480666Y-111472886D01*
X89478325Y-111470545D01*
X89458475Y-111492448D01*
X89446809Y-111499671D01*
X89446804Y-111499675D01*
X89285811Y-111646438D01*
X89154525Y-111820290D01*
X89057421Y-112015300D01*
X88997801Y-112224844D01*
X88977701Y-112441762D01*
X88977701Y-112441763D01*
X88997801Y-112658681D01*
X88997801Y-112658683D01*
X88997802Y-112658686D01*
X89055650Y-112862002D01*
X89057421Y-112868225D01*
X89091113Y-112935887D01*
X89154525Y-113063235D01*
X89285810Y-113237085D01*
X89446805Y-113383851D01*
X89446812Y-113383855D01*
X89446813Y-113383856D01*
X89632023Y-113498533D01*
X89632029Y-113498536D01*
X89654901Y-113507396D01*
X89835168Y-113577233D01*
X90049311Y-113617263D01*
X90049313Y-113617263D01*
X90267161Y-113617263D01*
X90267163Y-113617263D01*
X90481306Y-113577233D01*
X90684447Y-113498535D01*
X90869669Y-113383851D01*
X91019428Y-113247328D01*
X91030661Y-113237088D01*
X91030663Y-113237086D01*
X91030664Y-113237085D01*
X91059283Y-113199186D01*
X91115388Y-113157552D01*
X91185100Y-113152859D01*
X91246283Y-113186600D01*
X91257188Y-113199184D01*
X91285809Y-113237085D01*
X91446804Y-113383851D01*
X91585054Y-113469451D01*
X91631690Y-113521478D01*
X91642794Y-113590460D01*
X91614841Y-113654494D01*
X91556706Y-113693251D01*
X91495588Y-113696496D01*
X91469278Y-113691263D01*
X91469277Y-113691263D01*
X91272196Y-113691263D01*
X91272194Y-113691263D01*
X91193683Y-113706880D01*
X91158492Y-113713880D01*
X91134302Y-113716263D01*
X91104055Y-113716263D01*
X91005553Y-113726326D01*
X91005552Y-113726327D01*
X90926456Y-113752536D01*
X90845952Y-113779213D01*
X90845941Y-113779218D01*
X90702849Y-113867479D01*
X90702845Y-113867482D01*
X90583956Y-113986371D01*
X90583953Y-113986375D01*
X90495689Y-114129472D01*
X90495686Y-114129478D01*
X90493821Y-114135107D01*
X90463798Y-114183779D01*
X83742636Y-120904944D01*
X83681313Y-120938429D01*
X83654955Y-120941263D01*
X68098258Y-120941263D01*
X68031219Y-120921578D01*
X67985464Y-120868774D01*
X67975520Y-120799616D01*
X67992718Y-120752168D01*
X68018051Y-120711097D01*
X68073236Y-120544560D01*
X68083737Y-120441772D01*
X68083736Y-120355336D01*
X68103420Y-120288299D01*
X68120050Y-120267661D01*
X71188757Y-117198957D01*
X71267814Y-117062025D01*
X71308738Y-116909298D01*
X71308738Y-116751183D01*
X71308738Y-116743588D01*
X71308737Y-116743570D01*
X71308737Y-116063667D01*
X71328422Y-115996628D01*
X71381226Y-115950873D01*
X71450384Y-115940929D01*
X71505624Y-115963350D01*
X71521804Y-115975106D01*
X71619152Y-116024707D01*
X71732240Y-116082329D01*
X71732242Y-116082329D01*
X71732245Y-116082331D01*
X71852649Y-116121452D01*
X71956868Y-116155316D01*
X72190140Y-116192263D01*
X72190145Y-116192263D01*
X73126334Y-116192263D01*
X73359605Y-116155316D01*
X73584229Y-116082331D01*
X73794670Y-115975106D01*
X73985747Y-115836280D01*
X74152754Y-115669273D01*
X74291580Y-115478196D01*
X74398805Y-115267755D01*
X74471790Y-115043131D01*
X74476123Y-115015771D01*
X74508737Y-114809860D01*
X74508737Y-114573665D01*
X74471790Y-114340394D01*
X74414150Y-114162999D01*
X74398805Y-114115771D01*
X74398803Y-114115768D01*
X74398803Y-114115766D01*
X74342239Y-114004754D01*
X74291580Y-113905330D01*
X74152754Y-113714253D01*
X74011560Y-113573059D01*
X73978076Y-113511737D01*
X73983060Y-113442045D01*
X74024932Y-113386112D01*
X74090396Y-113361695D01*
X74111846Y-113362021D01*
X74158258Y-113366762D01*
X74408236Y-113366762D01*
X74408237Y-113366761D01*
X74408237Y-112604263D01*
X74908237Y-112604263D01*
X74908237Y-113366762D01*
X75158209Y-113366762D01*
X75158223Y-113366761D01*
X75260934Y-113356268D01*
X75427356Y-113301121D01*
X75427361Y-113301119D01*
X75576582Y-113209078D01*
X75700552Y-113085108D01*
X75792593Y-112935887D01*
X75792595Y-112935882D01*
X75847742Y-112769460D01*
X75847743Y-112769453D01*
X75858236Y-112666749D01*
X75858237Y-112666736D01*
X75858237Y-112604263D01*
X74908237Y-112604263D01*
X74408237Y-112604263D01*
X74408237Y-112228263D01*
X74427922Y-112161224D01*
X74480726Y-112115469D01*
X74532237Y-112104263D01*
X75858236Y-112104263D01*
X75858236Y-112041791D01*
X75858235Y-112041776D01*
X75847742Y-111939065D01*
X75792595Y-111772643D01*
X75792593Y-111772638D01*
X75700552Y-111623417D01*
X75606932Y-111529797D01*
X75573447Y-111468474D01*
X75578431Y-111398782D01*
X75606928Y-111354439D01*
X75700949Y-111260419D01*
X75793051Y-111111097D01*
X75848236Y-110944560D01*
X75858737Y-110841772D01*
X75858736Y-110216755D01*
X75848236Y-110113966D01*
X75793051Y-109947429D01*
X75700949Y-109798107D01*
X75576893Y-109674051D01*
X75459418Y-109601592D01*
X75427573Y-109581950D01*
X75427568Y-109581948D01*
X75389643Y-109569381D01*
X75261034Y-109526764D01*
X75261032Y-109526763D01*
X75158247Y-109516263D01*
X74158235Y-109516263D01*
X74158217Y-109516264D01*
X74112402Y-109520945D01*
X74043709Y-109508175D01*
X73992825Y-109460294D01*
X73975905Y-109392504D01*
X73998321Y-109326328D01*
X74012109Y-109309917D01*
X74152754Y-109169273D01*
X74291580Y-108978196D01*
X74398805Y-108767755D01*
X74471790Y-108543131D01*
X74477121Y-108509473D01*
X74508737Y-108309860D01*
X74508737Y-108073665D01*
X74471790Y-107840394D01*
X74412038Y-107656498D01*
X74398805Y-107615771D01*
X74398803Y-107615768D01*
X74398803Y-107615766D01*
X74291579Y-107405329D01*
X74152754Y-107214253D01*
X73985747Y-107047246D01*
X73794670Y-106908420D01*
X73584233Y-106801196D01*
X73359605Y-106728209D01*
X73126334Y-106691263D01*
X73126329Y-106691263D01*
X72190145Y-106691263D01*
X72190140Y-106691263D01*
X71956868Y-106728209D01*
X71732240Y-106801196D01*
X71521803Y-106908420D01*
X71432002Y-106973665D01*
X71330727Y-107047246D01*
X71330725Y-107047248D01*
X71330724Y-107047248D01*
X71163721Y-107214251D01*
X71133055Y-107256460D01*
X71077724Y-107299125D01*
X71008111Y-107305104D01*
X70946316Y-107272498D01*
X70911959Y-107211659D01*
X70908737Y-107183574D01*
X70908737Y-106973665D01*
X70871790Y-106740394D01*
X70818066Y-106575050D01*
X70798805Y-106515771D01*
X70798803Y-106515768D01*
X70798803Y-106515766D01*
X70691579Y-106305329D01*
X70552754Y-106114253D01*
X70385747Y-105947246D01*
X70194670Y-105808420D01*
X69984233Y-105701196D01*
X69759605Y-105628209D01*
X69526334Y-105591263D01*
X69526329Y-105591263D01*
X69290145Y-105591263D01*
X69290140Y-105591263D01*
X69056868Y-105628209D01*
X68832240Y-105701196D01*
X68621803Y-105808420D01*
X68430728Y-105947245D01*
X68290094Y-106087879D01*
X68228771Y-106121363D01*
X68159079Y-106116379D01*
X68103146Y-106074507D01*
X68078729Y-106009043D01*
X68079054Y-105987602D01*
X68083737Y-105941772D01*
X68083736Y-104941755D01*
X68073236Y-104838966D01*
X68018051Y-104672429D01*
X67925949Y-104523107D01*
X67801893Y-104399051D01*
X67652571Y-104306949D01*
X67486034Y-104251764D01*
X67486032Y-104251763D01*
X67383247Y-104241263D01*
X66758235Y-104241263D01*
X66758217Y-104241264D01*
X66655440Y-104251763D01*
X66655437Y-104251764D01*
X66488905Y-104306948D01*
X66488900Y-104306950D01*
X66339582Y-104399050D01*
X66245564Y-104493068D01*
X66184240Y-104526552D01*
X66114549Y-104521568D01*
X66070202Y-104493067D01*
X65976582Y-104399447D01*
X65827361Y-104307406D01*
X65827356Y-104307404D01*
X65660934Y-104252257D01*
X65660927Y-104252256D01*
X65558223Y-104241763D01*
X65495737Y-104241763D01*
X65495737Y-105567763D01*
X65476052Y-105634802D01*
X65423248Y-105680557D01*
X65371737Y-105691763D01*
X64233238Y-105691763D01*
X64233238Y-105941752D01*
X64237979Y-105988157D01*
X64225209Y-106056850D01*
X64177328Y-106107734D01*
X64109538Y-106124654D01*
X64043362Y-106102238D01*
X64026940Y-106088439D01*
X63885749Y-105947248D01*
X63885747Y-105947246D01*
X63694670Y-105808420D01*
X63484233Y-105701196D01*
X63259605Y-105628209D01*
X63026334Y-105591263D01*
X63026329Y-105591263D01*
X62790145Y-105591263D01*
X62790140Y-105591263D01*
X62556868Y-105628209D01*
X62332240Y-105701196D01*
X62121803Y-105808420D01*
X62012787Y-105887625D01*
X61930727Y-105947246D01*
X61930725Y-105947248D01*
X61930724Y-105947248D01*
X61763722Y-106114250D01*
X61763722Y-106114251D01*
X61763720Y-106114253D01*
X61704099Y-106196313D01*
X61624894Y-106305329D01*
X61517670Y-106515766D01*
X61444683Y-106740394D01*
X61407737Y-106973665D01*
X61407737Y-107183574D01*
X61388052Y-107250613D01*
X61335248Y-107296368D01*
X61266090Y-107306312D01*
X61202534Y-107277287D01*
X61183419Y-107256460D01*
X61179171Y-107250613D01*
X61152754Y-107214253D01*
X60985747Y-107047246D01*
X60794670Y-106908420D01*
X60584233Y-106801196D01*
X60359605Y-106728209D01*
X60126334Y-106691263D01*
X60126329Y-106691263D01*
X59190145Y-106691263D01*
X59190140Y-106691263D01*
X58956868Y-106728209D01*
X58732240Y-106801196D01*
X58521803Y-106908420D01*
X58432002Y-106973665D01*
X58330727Y-107047246D01*
X58330725Y-107047248D01*
X58330724Y-107047248D01*
X58163722Y-107214250D01*
X58163722Y-107214251D01*
X58163720Y-107214253D01*
X58117923Y-107277287D01*
X58024894Y-107405329D01*
X57917670Y-107615766D01*
X57844683Y-107840394D01*
X57807737Y-108073665D01*
X57807737Y-108309860D01*
X57844683Y-108543131D01*
X57917670Y-108767759D01*
X58003535Y-108936277D01*
X58024894Y-108978196D01*
X58163720Y-109169273D01*
X58163722Y-109169275D01*
X58304352Y-109309905D01*
X58337837Y-109371228D01*
X58332853Y-109440920D01*
X58290981Y-109496853D01*
X58225517Y-109521270D01*
X58204069Y-109520944D01*
X58158248Y-109516263D01*
X57158235Y-109516263D01*
X57158217Y-109516264D01*
X57055440Y-109526763D01*
X57055437Y-109526764D01*
X56888905Y-109581948D01*
X56888900Y-109581950D01*
X56739579Y-109674052D01*
X56615526Y-109798105D01*
X56523424Y-109947426D01*
X56523422Y-109947431D01*
X56517278Y-109965973D01*
X56468238Y-110113966D01*
X56468238Y-110113967D01*
X56468237Y-110113967D01*
X56457737Y-110216746D01*
X56457737Y-110841764D01*
X56457738Y-110841782D01*
X56468237Y-110944559D01*
X56468238Y-110944562D01*
X56507474Y-111062967D01*
X56523423Y-111111097D01*
X56601131Y-111237083D01*
X56615526Y-111260420D01*
X56709541Y-111354435D01*
X56743026Y-111415758D01*
X56738042Y-111485450D01*
X56709542Y-111529797D01*
X56615919Y-111623420D01*
X56523880Y-111772638D01*
X56523878Y-111772643D01*
X56468731Y-111939065D01*
X56468730Y-111939072D01*
X56458237Y-112041776D01*
X56458237Y-112104263D01*
X57784237Y-112104263D01*
X57851276Y-112123948D01*
X57897031Y-112176752D01*
X57908237Y-112228263D01*
X57908237Y-113366762D01*
X58158209Y-113366762D01*
X58158221Y-113366761D01*
X58204629Y-113362020D01*
X58273322Y-113374789D01*
X58324207Y-113422669D01*
X58341128Y-113490459D01*
X58318713Y-113556635D01*
X58304914Y-113573059D01*
X58163719Y-113714254D01*
X58024894Y-113905329D01*
X57917670Y-114115766D01*
X57844683Y-114340394D01*
X57807737Y-114573665D01*
X57807737Y-114809860D01*
X57844683Y-115043131D01*
X57917670Y-115267759D01*
X57983007Y-115395988D01*
X58024894Y-115478196D01*
X58163720Y-115669273D01*
X58330727Y-115836280D01*
X58521804Y-115975106D01*
X58621228Y-116025765D01*
X58732240Y-116082329D01*
X58732242Y-116082329D01*
X58732245Y-116082331D01*
X58852649Y-116121452D01*
X58956868Y-116155316D01*
X59190140Y-116192263D01*
X59190145Y-116192263D01*
X60126334Y-116192263D01*
X60359605Y-116155316D01*
X60584229Y-116082331D01*
X60794670Y-115975106D01*
X60985747Y-115836280D01*
X61152754Y-115669273D01*
X61183419Y-115627065D01*
X61238748Y-115584400D01*
X61308362Y-115578421D01*
X61370157Y-115611026D01*
X61404514Y-115671865D01*
X61407737Y-115699951D01*
X61407737Y-116409860D01*
X61444683Y-116643131D01*
X61517670Y-116867759D01*
X61624894Y-117078196D01*
X61763720Y-117269273D01*
X61930727Y-117436280D01*
X62121804Y-117575106D01*
X62221228Y-117625765D01*
X62332240Y-117682329D01*
X62332242Y-117682329D01*
X62332245Y-117682331D01*
X62452649Y-117721452D01*
X62556868Y-117755316D01*
X62790140Y-117792263D01*
X62790145Y-117792263D01*
X63026334Y-117792263D01*
X63259605Y-117755316D01*
X63484229Y-117682331D01*
X63694670Y-117575106D01*
X63885747Y-117436280D01*
X64026942Y-117295084D01*
X64088261Y-117261602D01*
X64157953Y-117266586D01*
X64213887Y-117308457D01*
X64238304Y-117373922D01*
X64237978Y-117395369D01*
X64233237Y-117441771D01*
X64233237Y-117691763D01*
X65333737Y-117691763D01*
X65400776Y-117711448D01*
X65446531Y-117764252D01*
X65457737Y-117815763D01*
X65457737Y-120067763D01*
X65438052Y-120134802D01*
X65385248Y-120180557D01*
X65333737Y-120191763D01*
X64233238Y-120191763D01*
X64233238Y-120441749D01*
X64243731Y-120544460D01*
X64298878Y-120710882D01*
X64298880Y-120710887D01*
X64390921Y-120860109D01*
X64394351Y-120864446D01*
X64420491Y-120929242D01*
X64407450Y-120997884D01*
X64394363Y-121018250D01*
X64390534Y-121023093D01*
X64298424Y-121172426D01*
X64298423Y-121172429D01*
X64243238Y-121338966D01*
X64243238Y-121338967D01*
X64243237Y-121338967D01*
X64232737Y-121441746D01*
X64232737Y-122441764D01*
X64232738Y-122441782D01*
X64243674Y-122548829D01*
X64230904Y-122617521D01*
X64183023Y-122668406D01*
X64115233Y-122685326D01*
X64052957Y-122665540D01*
X63978739Y-122617521D01*
X63932543Y-122587631D01*
X63929122Y-122585334D01*
X62976049Y-121921977D01*
X62972652Y-121919526D01*
X62042558Y-121224380D01*
X62039246Y-121221816D01*
X61977622Y-121172429D01*
X61133170Y-120495660D01*
X61129948Y-120492988D01*
X61070295Y-120441778D01*
X60248894Y-119736628D01*
X60245762Y-119733846D01*
X60199966Y-119691763D01*
X64233237Y-119691763D01*
X64995737Y-119691763D01*
X64995737Y-118191763D01*
X64233238Y-118191763D01*
X64233238Y-118441749D01*
X64243731Y-118544460D01*
X64298878Y-118710882D01*
X64298880Y-118710887D01*
X64390922Y-118860109D01*
X64394672Y-118864852D01*
X64420813Y-118929648D01*
X64407772Y-118998290D01*
X64394672Y-119018674D01*
X64390922Y-119023416D01*
X64298880Y-119172638D01*
X64298878Y-119172643D01*
X64243731Y-119339065D01*
X64243730Y-119339072D01*
X64233237Y-119441776D01*
X64233237Y-119691763D01*
X60199966Y-119691763D01*
X59472651Y-119023416D01*
X59390774Y-118948177D01*
X59387743Y-118945297D01*
X58559716Y-118131139D01*
X58556826Y-118128198D01*
X57756812Y-117286584D01*
X57753978Y-117283500D01*
X57421593Y-116909296D01*
X56982847Y-116415348D01*
X56980150Y-116412207D01*
X56238746Y-115518465D01*
X56236127Y-115515196D01*
X55525389Y-114596998D01*
X55522881Y-114593643D01*
X55317123Y-114308420D01*
X54843524Y-113651916D01*
X54841142Y-113648493D01*
X54193978Y-112684356D01*
X54191737Y-112680892D01*
X54143974Y-112604263D01*
X56458238Y-112604263D01*
X56458238Y-112666749D01*
X56468731Y-112769460D01*
X56523878Y-112935882D01*
X56523880Y-112935887D01*
X56615921Y-113085108D01*
X56739891Y-113209078D01*
X56889112Y-113301119D01*
X56889117Y-113301121D01*
X57055539Y-113356268D01*
X57055546Y-113356269D01*
X57158256Y-113366762D01*
X57408236Y-113366762D01*
X57408237Y-113366761D01*
X57408237Y-112604263D01*
X56458238Y-112604263D01*
X54143974Y-112604263D01*
X53577475Y-111695400D01*
X53575360Y-111691874D01*
X52994755Y-110686238D01*
X52992748Y-110682623D01*
X52446421Y-109657916D01*
X52444552Y-109654263D01*
X51933148Y-108611696D01*
X51931397Y-108607968D01*
X51455501Y-107548732D01*
X51453851Y-107544886D01*
X51396734Y-107405329D01*
X51014020Y-106470229D01*
X51012523Y-106466387D01*
X50609227Y-105377452D01*
X50607842Y-105373509D01*
X50547429Y-105191763D01*
X64233237Y-105191763D01*
X64995737Y-105191763D01*
X64995737Y-104241763D01*
X64995736Y-104241762D01*
X64933265Y-104241763D01*
X64933248Y-104241764D01*
X64830539Y-104252257D01*
X64664117Y-104307404D01*
X64664112Y-104307406D01*
X64514891Y-104399447D01*
X64390921Y-104523417D01*
X64298880Y-104672638D01*
X64298878Y-104672643D01*
X64243731Y-104839065D01*
X64243730Y-104839072D01*
X64233237Y-104941776D01*
X64233237Y-105191763D01*
X50547429Y-105191763D01*
X50241558Y-104271591D01*
X50240326Y-104267666D01*
X49911467Y-103154005D01*
X49910361Y-103150015D01*
X49619293Y-102025844D01*
X49618316Y-102021788D01*
X49365399Y-100888500D01*
X49364556Y-100884397D01*
X49150058Y-99743215D01*
X49149354Y-99739086D01*
X48973520Y-98591305D01*
X48972956Y-98587155D01*
X48870236Y-97722401D01*
X48881875Y-97653507D01*
X48928913Y-97601843D01*
X48996416Y-97583811D01*
X49062952Y-97605137D01*
X49067657Y-97608490D01*
X49151313Y-97671115D01*
X49151905Y-97671558D01*
X49151908Y-97671560D01*
X49286754Y-97721854D01*
X49286753Y-97721854D01*
X49293681Y-97722598D01*
X49346364Y-97728263D01*
X52490109Y-97728262D01*
X52549720Y-97721854D01*
X52684568Y-97671559D01*
X52799783Y-97585309D01*
X52886033Y-97470094D01*
X52936328Y-97335246D01*
X52942737Y-97275636D01*
X52942737Y-96066263D01*
X52962422Y-95999224D01*
X53015226Y-95953469D01*
X53066737Y-95942263D01*
X75756780Y-95942263D01*
X75789800Y-95935694D01*
X75872355Y-95919273D01*
X75950073Y-95903814D01*
X76003402Y-95881724D01*
X76132151Y-95828395D01*
X76296019Y-95718902D01*
X76435376Y-95579545D01*
X76435376Y-95579543D01*
X76445584Y-95569336D01*
X76445585Y-95569333D01*
X79162058Y-92852861D01*
X79223379Y-92819378D01*
X79293071Y-92824362D01*
X79349004Y-92866234D01*
X79373421Y-92931698D01*
X79373737Y-92940544D01*
X79373737Y-97275633D01*
X79373738Y-97275639D01*
X79380145Y-97335246D01*
X79430439Y-97470091D01*
X79430443Y-97470098D01*
X79516689Y-97585307D01*
X79516692Y-97585310D01*
X79631901Y-97671556D01*
X79631908Y-97671560D01*
X79766754Y-97721854D01*
X79766753Y-97721854D01*
X79773681Y-97722598D01*
X79826364Y-97728263D01*
X82970109Y-97728262D01*
X83029720Y-97721854D01*
X83114905Y-97690081D01*
X83184593Y-97685098D01*
X83201566Y-97690081D01*
X83286754Y-97721854D01*
X83346364Y-97728263D01*
X86490109Y-97728262D01*
X86549720Y-97721854D01*
X86684568Y-97671559D01*
X86799783Y-97585309D01*
X86886033Y-97470094D01*
X86936328Y-97335246D01*
X86942737Y-97275636D01*
X86942736Y-92607891D01*
X86936328Y-92548280D01*
X86928809Y-92528121D01*
X86886034Y-92413434D01*
X86886030Y-92413427D01*
X86799784Y-92298218D01*
X86799781Y-92298215D01*
X86684572Y-92211969D01*
X86684565Y-92211965D01*
X86549719Y-92161671D01*
X86549720Y-92161671D01*
X86490120Y-92155264D01*
X86490118Y-92155263D01*
X86490110Y-92155263D01*
X86490101Y-92155263D01*
X83346366Y-92155263D01*
X83346360Y-92155264D01*
X83286753Y-92161671D01*
X83201569Y-92193443D01*
X83131878Y-92198427D01*
X83114904Y-92193443D01*
X83029719Y-92161671D01*
X83029720Y-92161671D01*
X82970120Y-92155264D01*
X82970118Y-92155263D01*
X82970110Y-92155263D01*
X82970102Y-92155263D01*
X80159018Y-92155263D01*
X80091979Y-92135578D01*
X80046224Y-92082774D01*
X80036280Y-92013616D01*
X80065305Y-91950060D01*
X80071337Y-91943582D01*
X81236339Y-90778582D01*
X81297662Y-90745097D01*
X81324020Y-90742263D01*
X83256780Y-90742263D01*
X83386819Y-90716395D01*
X83450072Y-90703814D01*
X83632151Y-90628395D01*
X83796019Y-90518902D01*
X83935376Y-90379545D01*
X84044869Y-90215677D01*
X84120288Y-90033598D01*
X84158737Y-89840304D01*
X84158737Y-89643222D01*
X84158737Y-89643219D01*
X84120289Y-89449933D01*
X84120288Y-89449932D01*
X84120288Y-89449928D01*
X84056683Y-89296370D01*
X84044872Y-89267855D01*
X84044865Y-89267842D01*
X83935376Y-89103981D01*
X83935373Y-89103977D01*
X83796022Y-88964626D01*
X83796018Y-88964623D01*
X83632157Y-88855134D01*
X83632144Y-88855127D01*
X83450076Y-88779713D01*
X83450066Y-88779710D01*
X83256780Y-88741263D01*
X83256778Y-88741263D01*
X80962912Y-88741263D01*
X80962892Y-88741262D01*
X80956778Y-88741262D01*
X80759697Y-88741262D01*
X80759694Y-88741262D01*
X80566409Y-88779709D01*
X80566401Y-88779711D01*
X80384325Y-88855129D01*
X80384316Y-88855134D01*
X80220456Y-88964622D01*
X80220452Y-88964625D01*
X75280136Y-93904944D01*
X75218813Y-93938429D01*
X75192455Y-93941263D01*
X62558796Y-93941263D01*
X62491757Y-93921578D01*
X62446002Y-93868774D01*
X62436058Y-93799616D01*
X62441753Y-93776312D01*
X62443604Y-93771020D01*
X62443605Y-93771018D01*
X62453398Y-93684092D01*
X62480463Y-93619681D01*
X62488927Y-93610306D01*
X73336742Y-82762492D01*
X73336747Y-82762488D01*
X73346950Y-82752284D01*
X73346952Y-82752284D01*
X73458756Y-82640480D01*
X73512563Y-82547282D01*
X73537813Y-82503549D01*
X73578736Y-82350821D01*
X73578736Y-82192707D01*
X73578736Y-77684045D01*
X77033473Y-77684045D01*
X77064280Y-77918037D01*
X77064281Y-77918041D01*
X77121781Y-78132635D01*
X77125369Y-78146023D01*
X77125373Y-78146036D01*
X77215684Y-78364068D01*
X77215692Y-78364084D01*
X77333695Y-78568469D01*
X77333706Y-78568485D01*
X77477379Y-78755724D01*
X77477385Y-78755731D01*
X77644268Y-78922614D01*
X77644274Y-78922619D01*
X77831523Y-79066300D01*
X77831530Y-79066304D01*
X78035915Y-79184307D01*
X78035931Y-79184315D01*
X78253963Y-79274626D01*
X78253968Y-79274627D01*
X78253979Y-79274632D01*
X78481959Y-79335719D01*
X78715962Y-79366527D01*
X78715969Y-79366527D01*
X78951977Y-79366527D01*
X78951984Y-79366527D01*
X79185987Y-79335719D01*
X79413967Y-79274632D01*
X79413979Y-79274626D01*
X79413982Y-79274626D01*
X79632014Y-79184315D01*
X79632017Y-79184313D01*
X79632023Y-79184311D01*
X79836423Y-79066300D01*
X80023672Y-78922619D01*
X80477555Y-78468736D01*
X81039085Y-77907207D01*
X81039088Y-77907202D01*
X81039093Y-77907198D01*
X81182775Y-77719949D01*
X81300785Y-77515549D01*
X81391107Y-77297493D01*
X81452194Y-77069513D01*
X81483001Y-76835510D01*
X81483001Y-76599488D01*
X81452194Y-76365485D01*
X81391107Y-76137505D01*
X81347497Y-76032222D01*
X81300790Y-75919460D01*
X81300787Y-75919454D01*
X81300785Y-75919449D01*
X81298291Y-75915129D01*
X81182778Y-75715052D01*
X81182776Y-75715048D01*
X81039092Y-75527798D01*
X81039085Y-75527790D01*
X80872210Y-75360915D01*
X80872201Y-75360907D01*
X80684951Y-75217223D01*
X80684947Y-75217221D01*
X80480561Y-75099220D01*
X80480539Y-75099209D01*
X80262493Y-75008892D01*
X80034513Y-74947805D01*
X79800521Y-74917000D01*
X79800518Y-74916999D01*
X79800512Y-74916999D01*
X79564490Y-74916999D01*
X79564484Y-74916999D01*
X79564480Y-74917000D01*
X79330488Y-74947805D01*
X79102508Y-75008892D01*
X78884462Y-75099209D01*
X78884447Y-75099216D01*
X78680050Y-75217224D01*
X78492801Y-75360907D01*
X78492793Y-75360915D01*
X77477385Y-76376322D01*
X77477379Y-76376329D01*
X77333706Y-76563568D01*
X77333695Y-76563584D01*
X77215692Y-76767969D01*
X77215684Y-76767985D01*
X77125373Y-76986017D01*
X77125369Y-76986030D01*
X77064280Y-77214016D01*
X77033473Y-77448008D01*
X77033473Y-77684045D01*
X73578736Y-77684045D01*
X73578736Y-77161860D01*
X73598421Y-77094821D01*
X73615055Y-77074179D01*
X78108651Y-72580583D01*
X82581058Y-68108176D01*
X82642379Y-68074693D01*
X82712071Y-68079677D01*
X82768004Y-68121549D01*
X82792421Y-68187013D01*
X82792737Y-68195859D01*
X82792737Y-78675304D01*
X82792737Y-78675306D01*
X82792736Y-78675306D01*
X82831184Y-78868592D01*
X82831187Y-78868602D01*
X82906601Y-79050670D01*
X82906608Y-79050683D01*
X83016097Y-79214544D01*
X83016100Y-79214548D01*
X83155451Y-79353899D01*
X83155455Y-79353902D01*
X83319316Y-79463391D01*
X83319329Y-79463398D01*
X83375888Y-79486825D01*
X83501402Y-79538814D01*
X83501406Y-79538814D01*
X83501407Y-79538815D01*
X83694693Y-79577263D01*
X83694696Y-79577263D01*
X83891780Y-79577263D01*
X84055823Y-79544632D01*
X84085072Y-79538814D01*
X84267151Y-79463395D01*
X84431019Y-79353902D01*
X84570376Y-79214545D01*
X84679869Y-79050677D01*
X84755288Y-78868598D01*
X84793737Y-78675304D01*
X84793737Y-68272545D01*
X84813422Y-68205506D01*
X84830056Y-68184864D01*
X86981056Y-66033864D01*
X87042379Y-66000379D01*
X87112071Y-66005363D01*
X87168004Y-66047235D01*
X87192421Y-66112699D01*
X87192737Y-66121545D01*
X87192737Y-106506665D01*
X87173052Y-106573704D01*
X87156418Y-106594346D01*
X83889702Y-109861061D01*
X83828379Y-109894546D01*
X83815905Y-109896600D01*
X83728987Y-109906393D01*
X83558715Y-109965973D01*
X83405974Y-110061947D01*
X83278421Y-110189500D01*
X83182448Y-110342239D01*
X83122868Y-110512508D01*
X83122867Y-110512513D01*
X83102672Y-110691759D01*
X83102672Y-110691766D01*
X83122867Y-110871012D01*
X83122868Y-110871017D01*
X83182448Y-111041286D01*
X83226315Y-111111099D01*
X83278421Y-111194025D01*
X83405975Y-111321579D01*
X83458265Y-111354435D01*
X83555859Y-111415758D01*
X83558715Y-111417552D01*
X83627906Y-111441763D01*
X83650649Y-111449721D01*
X83707425Y-111490443D01*
X83733172Y-111555396D01*
X83719716Y-111623957D01*
X83671329Y-111674360D01*
X83650649Y-111683804D01*
X83649123Y-111684339D01*
X83558713Y-111715974D01*
X83405974Y-111811947D01*
X83278421Y-111939500D01*
X83182448Y-112092239D01*
X83122868Y-112262508D01*
X83122867Y-112262513D01*
X83102672Y-112441759D01*
X83102672Y-112441766D01*
X83122867Y-112621012D01*
X83122868Y-112621017D01*
X83182448Y-112791286D01*
X83273304Y-112935882D01*
X83278421Y-112944025D01*
X83405975Y-113071579D01*
X83467790Y-113110420D01*
X83552985Y-113163952D01*
X83558715Y-113167552D01*
X83728982Y-113227131D01*
X83728987Y-113227132D01*
X83908233Y-113247328D01*
X83908237Y-113247328D01*
X83908241Y-113247328D01*
X84087486Y-113227132D01*
X84087489Y-113227131D01*
X84087492Y-113227131D01*
X84257759Y-113167552D01*
X84410499Y-113071579D01*
X84538053Y-112944025D01*
X84634026Y-112791285D01*
X84693605Y-112621018D01*
X84703398Y-112534092D01*
X84730463Y-112469681D01*
X84738927Y-112460306D01*
X88751743Y-108447491D01*
X88751748Y-108447487D01*
X88761951Y-108437283D01*
X88761953Y-108437283D01*
X88873757Y-108325479D01*
X88926917Y-108233402D01*
X88952814Y-108188548D01*
X88993738Y-108035820D01*
X88993738Y-107877706D01*
X88993738Y-107870111D01*
X88993737Y-107870093D01*
X88993737Y-93271315D01*
X113374237Y-93271315D01*
X113374237Y-96612210D01*
X115044684Y-94941763D01*
X115044684Y-94941762D01*
X113374237Y-93271315D01*
X88993737Y-93271315D01*
X88993737Y-78611263D01*
X89013422Y-78544224D01*
X89066226Y-78498469D01*
X89117737Y-78487263D01*
X91303140Y-78487263D01*
X91370179Y-78506948D01*
X91390821Y-78523582D01*
X92827535Y-79960296D01*
X92861020Y-80021619D01*
X92863074Y-80034093D01*
X92872867Y-80121012D01*
X92932447Y-80291284D01*
X93028421Y-80444025D01*
X93063478Y-80479082D01*
X93096963Y-80540405D01*
X93091979Y-80610097D01*
X93063478Y-80654444D01*
X93028421Y-80689500D01*
X92932448Y-80842239D01*
X92872868Y-81012508D01*
X92872867Y-81012513D01*
X92852672Y-81191759D01*
X92852672Y-81191766D01*
X92872867Y-81371012D01*
X92872868Y-81371017D01*
X92932448Y-81541286D01*
X93014849Y-81672426D01*
X93028421Y-81694025D01*
X93155975Y-81821579D01*
X93308715Y-81917552D01*
X93478982Y-81977131D01*
X93565906Y-81986924D01*
X93630317Y-82013989D01*
X93639701Y-82022462D01*
X95039521Y-83422283D01*
X95039523Y-83422284D01*
X95039527Y-83422287D01*
X95149987Y-83486060D01*
X95176453Y-83501340D01*
X95329180Y-83542264D01*
X95329182Y-83542264D01*
X95494891Y-83542264D01*
X95494907Y-83542263D01*
X95633738Y-83542263D01*
X95700777Y-83561948D01*
X95746532Y-83614752D01*
X95757738Y-83666263D01*
X95757738Y-83739639D01*
X95764145Y-83799246D01*
X95814439Y-83934091D01*
X95814443Y-83934098D01*
X95900689Y-84049307D01*
X95900692Y-84049310D01*
X96015901Y-84135556D01*
X96015908Y-84135560D01*
X96038245Y-84143891D01*
X96150754Y-84185854D01*
X96210364Y-84192263D01*
X96558139Y-84192262D01*
X96625178Y-84211946D01*
X96645820Y-84228581D01*
X97073376Y-84656137D01*
X97073386Y-84656148D01*
X97077716Y-84660478D01*
X97077717Y-84660479D01*
X97189521Y-84772283D01*
X97276332Y-84822402D01*
X97276334Y-84822404D01*
X97314388Y-84844374D01*
X97326452Y-84851340D01*
X97479180Y-84892264D01*
X97479183Y-84892264D01*
X97644890Y-84892264D01*
X97644906Y-84892263D01*
X107358737Y-84892263D01*
X107425776Y-84911948D01*
X107471531Y-84964752D01*
X107482737Y-85016263D01*
X107482737Y-85441764D01*
X107482738Y-85441782D01*
X107493237Y-85544559D01*
X107493238Y-85544562D01*
X107548352Y-85710883D01*
X107548423Y-85711097D01*
X107640525Y-85860419D01*
X107764581Y-85984475D01*
X107913903Y-86076577D01*
X108080440Y-86131762D01*
X108183228Y-86142263D01*
X108808245Y-86142262D01*
X108808253Y-86142261D01*
X108808256Y-86142261D01*
X108873854Y-86135560D01*
X108911034Y-86131762D01*
X109028631Y-86092793D01*
X109098456Y-86090392D01*
X109155314Y-86122819D01*
X109588632Y-86556137D01*
X109588642Y-86556148D01*
X109592972Y-86560478D01*
X109592973Y-86560479D01*
X109704777Y-86672283D01*
X109791588Y-86722402D01*
X109791590Y-86722404D01*
X109829644Y-86744374D01*
X109841708Y-86751340D01*
X109994436Y-86792263D01*
X113021568Y-86792263D01*
X113021584Y-86792264D01*
X113029180Y-86792264D01*
X113187291Y-86792264D01*
X113187294Y-86792264D01*
X113340022Y-86751340D01*
X113390141Y-86722402D01*
X113476953Y-86672283D01*
X113588757Y-86560479D01*
X113588757Y-86560477D01*
X113598965Y-86550270D01*
X113598967Y-86550267D01*
X113920653Y-86228581D01*
X113981976Y-86195096D01*
X114008334Y-86192262D01*
X114356108Y-86192262D01*
X114356109Y-86192262D01*
X114415720Y-86185854D01*
X114550568Y-86135559D01*
X114665783Y-86049309D01*
X114752033Y-85934094D01*
X114802328Y-85799246D01*
X114808737Y-85739636D01*
X114808736Y-84143891D01*
X114802328Y-84084280D01*
X114752033Y-83949432D01*
X114752032Y-83949431D01*
X114752030Y-83949427D01*
X114665784Y-83834219D01*
X114665785Y-83834219D01*
X114665783Y-83834217D01*
X114608091Y-83791028D01*
X114566221Y-83735096D01*
X114561237Y-83665404D01*
X114594722Y-83604081D01*
X114608087Y-83592499D01*
X114665783Y-83549309D01*
X114752033Y-83434094D01*
X114802328Y-83299246D01*
X114808737Y-83239636D01*
X114808736Y-81643891D01*
X114802328Y-81584280D01*
X114786292Y-81541286D01*
X114752034Y-81449434D01*
X114752030Y-81449427D01*
X114665784Y-81334218D01*
X114665781Y-81334215D01*
X114550572Y-81247969D01*
X114550565Y-81247965D01*
X114415719Y-81197671D01*
X114415720Y-81197671D01*
X114356120Y-81191264D01*
X114356118Y-81191263D01*
X114356110Y-81191263D01*
X114356101Y-81191263D01*
X113260366Y-81191263D01*
X113260360Y-81191264D01*
X113200757Y-81197671D01*
X113193211Y-81199455D01*
X113192865Y-81197993D01*
X113131859Y-81202347D01*
X113116837Y-81197935D01*
X113115719Y-81197671D01*
X113056120Y-81191264D01*
X113056118Y-81191263D01*
X113056110Y-81191263D01*
X113056101Y-81191263D01*
X111960366Y-81191263D01*
X111960360Y-81191264D01*
X111900753Y-81197671D01*
X111765908Y-81247965D01*
X111765901Y-81247969D01*
X111650692Y-81334215D01*
X111650689Y-81334218D01*
X111564443Y-81449427D01*
X111564439Y-81449434D01*
X111514145Y-81584279D01*
X111507830Y-81643016D01*
X111481091Y-81707567D01*
X111423698Y-81747414D01*
X111353873Y-81749907D01*
X111293785Y-81714253D01*
X111272501Y-81678319D01*
X111271101Y-81678972D01*
X111268052Y-81672433D01*
X111268051Y-81672429D01*
X111175949Y-81523107D01*
X111051893Y-81399051D01*
X110946780Y-81334217D01*
X110902573Y-81306950D01*
X110902568Y-81306948D01*
X110879322Y-81299245D01*
X110736034Y-81251764D01*
X110736032Y-81251763D01*
X110633247Y-81241263D01*
X110008235Y-81241263D01*
X110008217Y-81241264D01*
X109905440Y-81251763D01*
X109905437Y-81251764D01*
X109738905Y-81306948D01*
X109738900Y-81306950D01*
X109589579Y-81399052D01*
X109495918Y-81492714D01*
X109434595Y-81526199D01*
X109364903Y-81521215D01*
X109320556Y-81492714D01*
X109226894Y-81399052D01*
X109226893Y-81399051D01*
X109121780Y-81334217D01*
X109077573Y-81306950D01*
X109077568Y-81306948D01*
X109054322Y-81299245D01*
X108911034Y-81251764D01*
X108911032Y-81251763D01*
X108808253Y-81241263D01*
X108195834Y-81241263D01*
X108128795Y-81221578D01*
X108108153Y-81204944D01*
X102064249Y-75161040D01*
X102064247Y-75161037D01*
X101945376Y-75042166D01*
X101945368Y-75042160D01*
X101829345Y-74975175D01*
X101829345Y-74975174D01*
X101829340Y-74975173D01*
X101822048Y-74970962D01*
X101808445Y-74963108D01*
X101751333Y-74947805D01*
X101655716Y-74922184D01*
X101497602Y-74922184D01*
X101490006Y-74922184D01*
X101489990Y-74922185D01*
X98843837Y-74922185D01*
X98776798Y-74902500D01*
X98731043Y-74849696D01*
X98720309Y-74808993D01*
X98705631Y-74641226D01*
X98644471Y-74412971D01*
X98544603Y-74198805D01*
X98409063Y-74005233D01*
X98409062Y-74005231D01*
X98241970Y-73838140D01*
X98241963Y-73838135D01*
X98048402Y-73702601D01*
X98048398Y-73702599D01*
X97834231Y-73602731D01*
X97834227Y-73602730D01*
X97834223Y-73602728D01*
X97605981Y-73541572D01*
X97605971Y-73541570D01*
X97370569Y-73520975D01*
X97370566Y-73520975D01*
X97326947Y-73524791D01*
X97258447Y-73511024D01*
X97208264Y-73462409D01*
X97192331Y-73394380D01*
X97203346Y-73349750D01*
X97261278Y-73222897D01*
X97261279Y-73222896D01*
X97281739Y-73080583D01*
X97261279Y-72938269D01*
X97261278Y-72938264D01*
X97201552Y-72807485D01*
X97163972Y-72760850D01*
X96705887Y-72302765D01*
X96705886Y-72302765D01*
X96057479Y-72951172D01*
X96040442Y-72887590D01*
X95974616Y-72773576D01*
X95881524Y-72680484D01*
X95767510Y-72614658D01*
X95703927Y-72597620D01*
X96352334Y-71949212D01*
X96352334Y-71949211D01*
X95894253Y-71491131D01*
X95894249Y-71491127D01*
X95847614Y-71453547D01*
X95716835Y-71393821D01*
X95716830Y-71393820D01*
X95574517Y-71373360D01*
X95432203Y-71393820D01*
X95432198Y-71393821D01*
X95301419Y-71453547D01*
X95254779Y-71491131D01*
X94796699Y-71949211D01*
X94796699Y-71949212D01*
X95445107Y-72597620D01*
X95381524Y-72614658D01*
X95267510Y-72680484D01*
X95174418Y-72773576D01*
X95108592Y-72887590D01*
X95091554Y-72951173D01*
X94443146Y-72302765D01*
X94443145Y-72302765D01*
X93985065Y-72760845D01*
X93947481Y-72807485D01*
X93887755Y-72938264D01*
X93887754Y-72938269D01*
X93867294Y-73080583D01*
X93887754Y-73222896D01*
X93887755Y-73222901D01*
X93947481Y-73353680D01*
X93985061Y-73400315D01*
X94443146Y-73858400D01*
X95091554Y-73209992D01*
X95108592Y-73273576D01*
X95174418Y-73387590D01*
X95267510Y-73480682D01*
X95381524Y-73546508D01*
X95445107Y-73563545D01*
X94796699Y-74211953D01*
X95059328Y-74474582D01*
X95092813Y-74535905D01*
X95087829Y-74605597D01*
X95045957Y-74661530D01*
X94980493Y-74685947D01*
X94971647Y-74686263D01*
X88975649Y-74686263D01*
X88908610Y-74666578D01*
X88898334Y-74659208D01*
X88895500Y-74656948D01*
X88895499Y-74656947D01*
X88813776Y-74605597D01*
X88742758Y-74560973D01*
X88572486Y-74501393D01*
X88503853Y-74493660D01*
X88439439Y-74466593D01*
X88399884Y-74408998D01*
X88393737Y-74370440D01*
X88393737Y-65892721D01*
X92060831Y-65892721D01*
X92237585Y-66069475D01*
X92237606Y-66069494D01*
X92317637Y-66134690D01*
X92317643Y-66134694D01*
X92474320Y-66213380D01*
X92644923Y-66253814D01*
X92820242Y-66253814D01*
X92990844Y-66213380D01*
X93147522Y-66134694D01*
X93227566Y-66069488D01*
X93227574Y-66069481D01*
X93271751Y-66025303D01*
X92599999Y-65353553D01*
X92599998Y-65353553D01*
X92060831Y-65892720D01*
X92060831Y-65892721D01*
X88393737Y-65892721D01*
X88393737Y-65521073D01*
X88413422Y-65454034D01*
X88430051Y-65433397D01*
X89470726Y-64392721D01*
X90560831Y-64392721D01*
X90737585Y-64569475D01*
X90737606Y-64569494D01*
X90817637Y-64634690D01*
X90817643Y-64634694D01*
X90974320Y-64713380D01*
X91144923Y-64753814D01*
X91222186Y-64753814D01*
X91289225Y-64773499D01*
X91334980Y-64826303D01*
X91346186Y-64877814D01*
X91346186Y-64955077D01*
X91386619Y-65125679D01*
X91465305Y-65282356D01*
X91530504Y-65362393D01*
X91530517Y-65362408D01*
X91707277Y-65539168D01*
X92246447Y-65000000D01*
X92025821Y-64779374D01*
X92025818Y-64779372D01*
X91099999Y-63853553D01*
X90560831Y-64392721D01*
X89470726Y-64392721D01*
X89726747Y-64136700D01*
X89726752Y-64136697D01*
X89736955Y-64126493D01*
X89736957Y-64126493D01*
X89848761Y-64014689D01*
X89890228Y-63942864D01*
X89940792Y-63894651D01*
X90009399Y-63881427D01*
X90074264Y-63907394D01*
X90085295Y-63917185D01*
X90207277Y-64039167D01*
X90985449Y-63260996D01*
X91046772Y-63227511D01*
X91116463Y-63232495D01*
X91160811Y-63260996D01*
X94414003Y-66514188D01*
X94447488Y-66575511D01*
X94446097Y-66633961D01*
X94422031Y-66723780D01*
X94422030Y-66723787D01*
X94402960Y-66941760D01*
X94402960Y-66941765D01*
X94422030Y-67159738D01*
X94422030Y-67159742D01*
X94480063Y-67376323D01*
X94478979Y-67376613D01*
X94483052Y-67440713D01*
X94449080Y-67501768D01*
X94387493Y-67534764D01*
X94325308Y-67530316D01*
X94325030Y-67531356D01*
X94108447Y-67473323D01*
X93890472Y-67454253D01*
X93890468Y-67454253D01*
X93745152Y-67466966D01*
X93672493Y-67473323D01*
X93672490Y-67473323D01*
X93461147Y-67529952D01*
X93461138Y-67529956D01*
X93262831Y-67622428D01*
X93262827Y-67622430D01*
X93083591Y-67747932D01*
X92928872Y-67902651D01*
X92803370Y-68081887D01*
X92803368Y-68081891D01*
X92710896Y-68280198D01*
X92710892Y-68280207D01*
X92654263Y-68491550D01*
X92654263Y-68491554D01*
X92635193Y-68709527D01*
X92635193Y-68709532D01*
X92654263Y-68927505D01*
X92654263Y-68927509D01*
X92710892Y-69138852D01*
X92710894Y-69138856D01*
X92710895Y-69138860D01*
X92757131Y-69238014D01*
X92803367Y-69337168D01*
X92803368Y-69337169D01*
X92928872Y-69516407D01*
X93083593Y-69671128D01*
X93262831Y-69796632D01*
X93461140Y-69889105D01*
X93672493Y-69945737D01*
X93855396Y-69961738D01*
X93890468Y-69964807D01*
X93890470Y-69964807D01*
X93890472Y-69964807D01*
X93918724Y-69962335D01*
X94108447Y-69945737D01*
X94319800Y-69889105D01*
X94518109Y-69796632D01*
X94697347Y-69671128D01*
X94852068Y-69516407D01*
X94959551Y-69362904D01*
X95014127Y-69319281D01*
X95061125Y-69310030D01*
X95803801Y-69310030D01*
X95803817Y-69310031D01*
X95811413Y-69310031D01*
X95969524Y-69310031D01*
X95969527Y-69310031D01*
X96122255Y-69269107D01*
X96172374Y-69240169D01*
X96259186Y-69190050D01*
X96370990Y-69078246D01*
X96370990Y-69078244D01*
X96381198Y-69068037D01*
X96381200Y-69068034D01*
X97066743Y-68382491D01*
X97066748Y-68382487D01*
X97076951Y-68372283D01*
X97076953Y-68372283D01*
X97188757Y-68260479D01*
X97260916Y-68135495D01*
X97267814Y-68123548D01*
X97308737Y-67970820D01*
X97308737Y-67812706D01*
X97308737Y-66595897D01*
X97308738Y-66595884D01*
X97308738Y-66553157D01*
X97328423Y-66486118D01*
X97381227Y-66440363D01*
X97421931Y-66429629D01*
X97426002Y-66429272D01*
X97426004Y-66429273D01*
X97643981Y-66410203D01*
X97855334Y-66353571D01*
X98053643Y-66261098D01*
X98232881Y-66135594D01*
X98387602Y-65980873D01*
X98513106Y-65801635D01*
X98605579Y-65603326D01*
X98662211Y-65391973D01*
X98681281Y-65173996D01*
X98662211Y-64956019D01*
X98614879Y-64779374D01*
X98605581Y-64744673D01*
X98605580Y-64744672D01*
X98605579Y-64744666D01*
X98513106Y-64546358D01*
X98513104Y-64546355D01*
X98513103Y-64546353D01*
X98387603Y-64367120D01*
X98387602Y-64367119D01*
X98232881Y-64212398D01*
X98053643Y-64086894D01*
X98053644Y-64086894D01*
X98053642Y-64086893D01*
X97951292Y-64039167D01*
X97855334Y-63994421D01*
X97855330Y-63994420D01*
X97855326Y-63994418D01*
X97643981Y-63937789D01*
X97426006Y-63918719D01*
X97426002Y-63918719D01*
X97208033Y-63937788D01*
X97208015Y-63937791D01*
X97143893Y-63954972D01*
X97074043Y-63953308D01*
X97024121Y-63922878D01*
X94949128Y-61847885D01*
X94949126Y-61847882D01*
X94833096Y-61731852D01*
X94799611Y-61670529D01*
X94804595Y-61600837D01*
X94846467Y-61544904D01*
X94911931Y-61520487D01*
X94961872Y-61527179D01*
G37*
%TD.AperFunction*%
%TA.AperFunction,Conductor*%
G36*
X91172979Y-111102952D02*
G01*
X91206230Y-111131704D01*
X91285811Y-111237087D01*
X91409809Y-111350125D01*
X91446091Y-111409836D01*
X91444330Y-111479683D01*
X91409809Y-111533399D01*
X91285809Y-111646439D01*
X91257189Y-111684339D01*
X91201080Y-111725974D01*
X91131368Y-111730665D01*
X91070186Y-111696922D01*
X91059283Y-111684339D01*
X91030664Y-111646441D01*
X91030657Y-111646435D01*
X90869670Y-111499676D01*
X90869657Y-111499666D01*
X90857997Y-111492447D01*
X90838261Y-111470429D01*
X90835805Y-111472886D01*
X90204684Y-110841763D01*
X90210897Y-110841763D01*
X90312630Y-110814504D01*
X90403842Y-110761843D01*
X90478316Y-110687369D01*
X90530977Y-110596157D01*
X90558236Y-110494424D01*
X90558236Y-110488209D01*
X91172979Y-111102952D01*
G37*
%TD.AperFunction*%
%TA.AperFunction,Conductor*%
G36*
X83743016Y-59447254D02*
G01*
X84903515Y-59486472D01*
X84907688Y-59486683D01*
X86066260Y-59565077D01*
X86070328Y-59565421D01*
X87196498Y-59679941D01*
X87225600Y-59682901D01*
X87229761Y-59683395D01*
X88380374Y-59839821D01*
X88384490Y-59840453D01*
X89529145Y-60035648D01*
X89533192Y-60036408D01*
X89817366Y-60094807D01*
X89819893Y-60095327D01*
X89881598Y-60128104D01*
X89915787Y-60189037D01*
X89911605Y-60258782D01*
X89870381Y-60315194D01*
X89805202Y-60340363D01*
X89794932Y-60340789D01*
X89165439Y-60340789D01*
X89012711Y-60381712D01*
X88979556Y-60400855D01*
X88979555Y-60400855D01*
X88875784Y-60460766D01*
X88875779Y-60460770D01*
X88060770Y-61275779D01*
X88060768Y-61275782D01*
X88010650Y-61362591D01*
X88010648Y-61362593D01*
X87981714Y-61412706D01*
X87981713Y-61412707D01*
X87981712Y-61412712D01*
X87940788Y-61565440D01*
X87940788Y-61565442D01*
X87940788Y-61733543D01*
X87940789Y-61733556D01*
X87940789Y-61988945D01*
X87921104Y-62055984D01*
X87872440Y-62099755D01*
X87761739Y-62155350D01*
X87761726Y-62155359D01*
X87681636Y-62220602D01*
X87681618Y-62220618D01*
X87239679Y-62662558D01*
X87239660Y-62662579D01*
X87174419Y-62742665D01*
X87174415Y-62742671D01*
X87093287Y-62904213D01*
X87045609Y-62955287D01*
X86977887Y-62972477D01*
X86911622Y-62950325D01*
X86894795Y-62936243D01*
X86835499Y-62876947D01*
X86682760Y-62780974D01*
X86512491Y-62721394D01*
X86512486Y-62721393D01*
X86333241Y-62701198D01*
X86333233Y-62701198D01*
X86153987Y-62721393D01*
X86153974Y-62721396D01*
X85983718Y-62780972D01*
X85983714Y-62780974D01*
X85902484Y-62832014D01*
X85835247Y-62851014D01*
X85782699Y-62838735D01*
X85778490Y-62836707D01*
X85608226Y-62777129D01*
X85608221Y-62777128D01*
X85428976Y-62756933D01*
X85428968Y-62756933D01*
X85249722Y-62777128D01*
X85249717Y-62777129D01*
X85079446Y-62836710D01*
X84986287Y-62895245D01*
X84919050Y-62914245D01*
X84854345Y-62895245D01*
X84807757Y-62865972D01*
X84637499Y-62806396D01*
X84637486Y-62806393D01*
X84458241Y-62786198D01*
X84458233Y-62786198D01*
X84278987Y-62806393D01*
X84278974Y-62806396D01*
X84108716Y-62865972D01*
X84024208Y-62919072D01*
X83956971Y-62938072D01*
X83892266Y-62919072D01*
X83807757Y-62865972D01*
X83637499Y-62806396D01*
X83637486Y-62806393D01*
X83458241Y-62786198D01*
X83458233Y-62786198D01*
X83278987Y-62806393D01*
X83278974Y-62806396D01*
X83108716Y-62865972D01*
X83024208Y-62919072D01*
X82956971Y-62938072D01*
X82892266Y-62919072D01*
X82807757Y-62865972D01*
X82637499Y-62806396D01*
X82637486Y-62806393D01*
X82458241Y-62786198D01*
X82458233Y-62786198D01*
X82278987Y-62806393D01*
X82278982Y-62806394D01*
X82108713Y-62865974D01*
X81955974Y-62961947D01*
X81828421Y-63089500D01*
X81732447Y-63242241D01*
X81672867Y-63412513D01*
X81663074Y-63499431D01*
X81636007Y-63563845D01*
X81627535Y-63573228D01*
X71009523Y-74191241D01*
X70897718Y-74303045D01*
X70897716Y-74303048D01*
X70847598Y-74389857D01*
X70847596Y-74389859D01*
X70818662Y-74439972D01*
X70818661Y-74439973D01*
X70818660Y-74439978D01*
X70777736Y-74592706D01*
X70777736Y-74592708D01*
X70777736Y-74760809D01*
X70777737Y-74760822D01*
X70777737Y-75395225D01*
X70758052Y-75462264D01*
X70705248Y-75508019D01*
X70636090Y-75517963D01*
X70614735Y-75512931D01*
X70581034Y-75501764D01*
X70581032Y-75501763D01*
X70478247Y-75491263D01*
X69478235Y-75491263D01*
X69478217Y-75491264D01*
X69375440Y-75501763D01*
X69375437Y-75501764D01*
X69208905Y-75556948D01*
X69208900Y-75556950D01*
X69059579Y-75649052D01*
X68935526Y-75773105D01*
X68843420Y-75922433D01*
X68840620Y-75928440D01*
X68794449Y-75980880D01*
X68727256Y-76000034D01*
X68660375Y-75979820D01*
X68615854Y-75928440D01*
X68613053Y-75922433D01*
X68613049Y-75922426D01*
X68520949Y-75773107D01*
X68396893Y-75649051D01*
X68247571Y-75556949D01*
X68081034Y-75501764D01*
X68081032Y-75501763D01*
X67978247Y-75491263D01*
X66978235Y-75491263D01*
X66978217Y-75491264D01*
X66875440Y-75501763D01*
X66875437Y-75501764D01*
X66708905Y-75556948D01*
X66708900Y-75556950D01*
X66559579Y-75649052D01*
X66435526Y-75773105D01*
X66343424Y-75922426D01*
X66343422Y-75922431D01*
X66341431Y-75928440D01*
X66288238Y-76088966D01*
X66288238Y-76088967D01*
X66288237Y-76088967D01*
X66277737Y-76191746D01*
X66277737Y-76202824D01*
X66275354Y-76227016D01*
X66239807Y-76405719D01*
X66239807Y-76602808D01*
X66275098Y-76780229D01*
X66268871Y-76849821D01*
X66241163Y-76892101D01*
X66109523Y-77023741D01*
X65997718Y-77135545D01*
X65997716Y-77135547D01*
X65982525Y-77161860D01*
X65966842Y-77189025D01*
X65918660Y-77272478D01*
X65877736Y-77425206D01*
X65877736Y-77425208D01*
X65877736Y-77593309D01*
X65877737Y-77593322D01*
X65877737Y-79715757D01*
X65858052Y-79782796D01*
X65805248Y-79828551D01*
X65736090Y-79838495D01*
X65682614Y-79817332D01*
X65576071Y-79742730D01*
X65576067Y-79742728D01*
X65549514Y-79730346D01*
X65361900Y-79642860D01*
X65361896Y-79642859D01*
X65361892Y-79642857D01*
X65133650Y-79581701D01*
X65133640Y-79581699D01*
X64898238Y-79561104D01*
X64898236Y-79561104D01*
X64662833Y-79581699D01*
X64662823Y-79581701D01*
X64434581Y-79642857D01*
X64434572Y-79642861D01*
X64220408Y-79742727D01*
X64220406Y-79742728D01*
X64026837Y-79878266D01*
X63904521Y-80000582D01*
X63843198Y-80034066D01*
X63773506Y-80029082D01*
X63717573Y-79987210D01*
X63700658Y-79956233D01*
X63651591Y-79824676D01*
X63651587Y-79824669D01*
X63565427Y-79709575D01*
X63565424Y-79709572D01*
X63450330Y-79623412D01*
X63450323Y-79623408D01*
X63315616Y-79573166D01*
X63315609Y-79573164D01*
X63256081Y-79566763D01*
X62608237Y-79566763D01*
X62608237Y-80483751D01*
X62551230Y-80450838D01*
X62424063Y-80416763D01*
X62292411Y-80416763D01*
X62165244Y-80450838D01*
X62108237Y-80483751D01*
X62108237Y-79566763D01*
X61460392Y-79566763D01*
X61400864Y-79573164D01*
X61400857Y-79573166D01*
X61266150Y-79623408D01*
X61266143Y-79623412D01*
X61151049Y-79709572D01*
X61151046Y-79709575D01*
X61064886Y-79824669D01*
X61064882Y-79824676D01*
X61014640Y-79959383D01*
X61014638Y-79959390D01*
X61008237Y-80018918D01*
X61008237Y-80666763D01*
X61925225Y-80666763D01*
X61892312Y-80723770D01*
X61858237Y-80850937D01*
X61858237Y-80982589D01*
X61892312Y-81109756D01*
X61925225Y-81166763D01*
X61008237Y-81166763D01*
X61008237Y-81814607D01*
X61014638Y-81874135D01*
X61014640Y-81874142D01*
X61064882Y-82008849D01*
X61064886Y-82008856D01*
X61151046Y-82123950D01*
X61151049Y-82123953D01*
X61266143Y-82210113D01*
X61266150Y-82210117D01*
X61400857Y-82260359D01*
X61400864Y-82260361D01*
X61460392Y-82266762D01*
X61460409Y-82266763D01*
X62108237Y-82266763D01*
X62108237Y-81349775D01*
X62165244Y-81382688D01*
X62292411Y-81416763D01*
X62424063Y-81416763D01*
X62551230Y-81382688D01*
X62608237Y-81349775D01*
X62608237Y-82266763D01*
X63256065Y-82266763D01*
X63256081Y-82266762D01*
X63315609Y-82260361D01*
X63315616Y-82260359D01*
X63450323Y-82210117D01*
X63450330Y-82210113D01*
X63565424Y-82123953D01*
X63565427Y-82123950D01*
X63651587Y-82008856D01*
X63651591Y-82008849D01*
X63700659Y-81877292D01*
X63742530Y-81821358D01*
X63807994Y-81796941D01*
X63876267Y-81811793D01*
X63904522Y-81832944D01*
X64026836Y-81955258D01*
X64122815Y-82022463D01*
X64220402Y-82090795D01*
X64220404Y-82090796D01*
X64220407Y-82090798D01*
X64434574Y-82190666D01*
X64662829Y-82251826D01*
X64833556Y-82266763D01*
X64898236Y-82272422D01*
X64898237Y-82272422D01*
X64898238Y-82272422D01*
X64962918Y-82266763D01*
X65133645Y-82251826D01*
X65361900Y-82190666D01*
X65576067Y-82090798D01*
X65769638Y-81955258D01*
X65936732Y-81788164D01*
X66066662Y-81602605D01*
X66121239Y-81558980D01*
X66190737Y-81551786D01*
X66253092Y-81583309D01*
X66269812Y-81602605D01*
X66393637Y-81779446D01*
X66399742Y-81788164D01*
X66566836Y-81955258D01*
X66662815Y-82022463D01*
X66760402Y-82090795D01*
X66760404Y-82090796D01*
X66760407Y-82090798D01*
X66974574Y-82190666D01*
X67202829Y-82251826D01*
X67373556Y-82266763D01*
X67438236Y-82272422D01*
X67438237Y-82272422D01*
X67438238Y-82272422D01*
X67502918Y-82266763D01*
X67673645Y-82251826D01*
X67875902Y-82197632D01*
X67945751Y-82199295D01*
X68003613Y-82238458D01*
X68031117Y-82302686D01*
X68019530Y-82371588D01*
X67995675Y-82405088D01*
X57639702Y-92761061D01*
X57578379Y-92794546D01*
X57565905Y-92796600D01*
X57478987Y-92806393D01*
X57308715Y-92865973D01*
X57155974Y-92961947D01*
X57028421Y-93089500D01*
X56932448Y-93242239D01*
X56872868Y-93412508D01*
X56872867Y-93412513D01*
X56852672Y-93591759D01*
X56852672Y-93591766D01*
X56872867Y-93771012D01*
X56872869Y-93771020D01*
X56874720Y-93776309D01*
X56878281Y-93846088D01*
X56843552Y-93906715D01*
X56781559Y-93938942D01*
X56757678Y-93941263D01*
X53066736Y-93941263D01*
X52999697Y-93921578D01*
X52953942Y-93868774D01*
X52942736Y-93817263D01*
X52942736Y-92607892D01*
X52942735Y-92607886D01*
X52938496Y-92568453D01*
X52936328Y-92548280D01*
X52928809Y-92528121D01*
X52886034Y-92413434D01*
X52886030Y-92413427D01*
X52799784Y-92298218D01*
X52799781Y-92298215D01*
X52684572Y-92211969D01*
X52684565Y-92211965D01*
X52549719Y-92161671D01*
X52549720Y-92161671D01*
X52490120Y-92155264D01*
X52490118Y-92155263D01*
X52490110Y-92155263D01*
X52490101Y-92155263D01*
X49346366Y-92155263D01*
X49346360Y-92155264D01*
X49286753Y-92161671D01*
X49151908Y-92211965D01*
X49151901Y-92211969D01*
X49036692Y-92298215D01*
X49036689Y-92298218D01*
X48950443Y-92413427D01*
X48950440Y-92413432D01*
X48937633Y-92447771D01*
X48895761Y-92503704D01*
X48830297Y-92528121D01*
X48762024Y-92513269D01*
X48712619Y-92463864D01*
X48697610Y-92398156D01*
X48702661Y-92298575D01*
X48737339Y-91614779D01*
X48737621Y-91610617D01*
X48835571Y-90453531D01*
X48835983Y-90449478D01*
X48972958Y-89296350D01*
X48973520Y-89292220D01*
X48977255Y-89267842D01*
X49149358Y-88144414D01*
X49150058Y-88140310D01*
X49364556Y-86999128D01*
X49365399Y-86995025D01*
X49393396Y-86869574D01*
X49618322Y-85861708D01*
X49619289Y-85857694D01*
X49910365Y-84733495D01*
X49911463Y-84729536D01*
X50240331Y-83615842D01*
X50241552Y-83611951D01*
X50607851Y-82509988D01*
X50609220Y-82506091D01*
X51012530Y-81417118D01*
X51014012Y-81413316D01*
X51453860Y-80338615D01*
X51455502Y-80334790D01*
X51931407Y-79275534D01*
X51933137Y-79271852D01*
X52444564Y-78229238D01*
X52446412Y-78225628D01*
X52992761Y-77200877D01*
X52994740Y-77197313D01*
X53575375Y-76191624D01*
X53577459Y-76188151D01*
X54191754Y-75202606D01*
X54193960Y-75199196D01*
X54841171Y-74234989D01*
X54843505Y-74231637D01*
X55522897Y-73289860D01*
X55525372Y-73286548D01*
X56236149Y-72368300D01*
X56238723Y-72365087D01*
X56980174Y-71471288D01*
X56982821Y-71468206D01*
X57754004Y-70599995D01*
X57756785Y-70596969D01*
X58556855Y-69755296D01*
X58559687Y-69752415D01*
X59387779Y-68938193D01*
X59390742Y-68935378D01*
X60245791Y-68149652D01*
X60248864Y-68146923D01*
X61129985Y-67390505D01*
X61133134Y-67387894D01*
X62039287Y-66661676D01*
X62042516Y-66659176D01*
X62972684Y-65963975D01*
X62976017Y-65961570D01*
X63929162Y-65298163D01*
X63932515Y-65295912D01*
X64907508Y-64665082D01*
X64911007Y-64662900D01*
X65906743Y-64065366D01*
X65910267Y-64063331D01*
X66925640Y-63499752D01*
X66929220Y-63497844D01*
X67963032Y-62968889D01*
X67966733Y-62967074D01*
X69017804Y-62473345D01*
X69021491Y-62471688D01*
X70088650Y-62013734D01*
X70092504Y-62012157D01*
X71174473Y-61590525D01*
X71178296Y-61589109D01*
X72273941Y-61204242D01*
X72277848Y-61202943D01*
X73385828Y-60855313D01*
X73389779Y-60854146D01*
X74508890Y-60544128D01*
X74512821Y-60543110D01*
X75641746Y-60271071D01*
X75645786Y-60270169D01*
X76783291Y-60036406D01*
X76787317Y-60035650D01*
X77931992Y-59840451D01*
X77936090Y-59839823D01*
X79086719Y-59683394D01*
X79090868Y-59682901D01*
X80246150Y-59565421D01*
X80250208Y-59565077D01*
X81408788Y-59486683D01*
X81412955Y-59486472D01*
X82573457Y-59447254D01*
X82577645Y-59447184D01*
X83738829Y-59447184D01*
X83743016Y-59447254D01*
G37*
%TD.AperFunction*%
%TD*%
M02*
