%TF.GenerationSoftware,KiCad,Pcbnew,8.0.1*%
%TF.CreationDate,2024-06-09T17:00:22+09:00*%
%TF.ProjectId,main,6d61696e-2e6b-4696-9361-645f70636258,rev?*%
%TF.SameCoordinates,Original*%
%TF.FileFunction,Soldermask,Bot*%
%TF.FilePolarity,Negative*%
%FSLAX46Y46*%
G04 Gerber Fmt 4.6, Leading zero omitted, Abs format (unit mm)*
G04 Created by KiCad (PCBNEW 8.0.1) date 2024-06-09 17:00:22*
%MOMM*%
%LPD*%
G01*
G04 APERTURE LIST*
G04 Aperture macros list*
%AMHorizOval*
0 Thick line with rounded ends*
0 $1 width*
0 $2 $3 position (X,Y) of the first rounded end (center of the circle)*
0 $4 $5 position (X,Y) of the second rounded end (center of the circle)*
0 Add line between two ends*
20,1,$1,$2,$3,$4,$5,0*
0 Add two circle primitives to create the rounded ends*
1,1,$1,$2,$3*
1,1,$1,$4,$5*%
%AMFreePoly0*
4,1,19,0.500000,-0.750000,0.000000,-0.750000,0.000000,-0.744911,-0.071157,-0.744911,-0.207708,-0.704816,-0.327430,-0.627875,-0.420627,-0.520320,-0.479746,-0.390866,-0.500000,-0.250000,-0.500000,0.250000,-0.479746,0.390866,-0.420627,0.520320,-0.327430,0.627875,-0.207708,0.704816,-0.071157,0.744911,0.000000,0.744911,0.000000,0.750000,0.500000,0.750000,0.500000,-0.750000,0.500000,-0.750000,
$1*%
%AMFreePoly1*
4,1,19,0.000000,0.744911,0.071157,0.744911,0.207708,0.704816,0.327430,0.627875,0.420627,0.520320,0.479746,0.390866,0.500000,0.250000,0.500000,-0.250000,0.479746,-0.390866,0.420627,-0.520320,0.327430,-0.627875,0.207708,-0.704816,0.071157,-0.744911,0.000000,-0.744911,0.000000,-0.750000,-0.500000,-0.750000,-0.500000,0.750000,0.000000,0.750000,0.000000,0.744911,0.000000,0.744911,
$1*%
G04 Aperture macros list end*
%ADD10R,1.000000X1.000000*%
%ADD11O,1.000000X1.000000*%
%ADD12C,3.200000*%
%ADD13O,1.400000X2.100000*%
%ADD14O,2.100000X1.400000*%
%ADD15R,1.350000X1.350000*%
%ADD16C,1.350000*%
%ADD17R,1.700000X1.700000*%
%ADD18O,1.700000X1.700000*%
%ADD19HorizOval,3.100000X-0.424264X-0.424264X0.424264X0.424264X0*%
%ADD20R,1.600000X1.600000*%
%ADD21C,1.600000*%
%ADD22O,4.500000X1.800000*%
%ADD23FreePoly0,0.000000*%
%ADD24FreePoly1,0.000000*%
%ADD25FreePoly0,270.000000*%
%ADD26FreePoly1,270.000000*%
G04 APERTURE END LIST*
D10*
%TO.C,J2*%
X16444999Y20063427D03*
D11*
X15174999Y20063427D03*
X13904999Y20063427D03*
X12634999Y20063427D03*
X11364999Y20063427D03*
X10094999Y20063427D03*
X8824999Y20063427D03*
X7554999Y20063427D03*
%TD*%
D12*
%TO.C,REF\u002A\u002A*%
X2Y-27000000D03*
%TD*%
D13*
%TO.C,SW1*%
X15250000Y-11000000D03*
X8750000Y-11000000D03*
%TD*%
D10*
%TO.C,J3*%
X2436572Y14945000D03*
D11*
X2436572Y13675000D03*
X2436572Y12405000D03*
X2436572Y11135000D03*
X2436572Y9865000D03*
X2436572Y8595000D03*
X2436572Y7325000D03*
X2436572Y6055000D03*
%TD*%
D10*
%TO.C,J4*%
X7555000Y936572D03*
D11*
X8825000Y936572D03*
X10095000Y936572D03*
X11365000Y936572D03*
X12635000Y936572D03*
X13905000Y936572D03*
X15175000Y936572D03*
X16445000Y936572D03*
%TD*%
D14*
%TO.C,SW3*%
X4000000Y-7750000D03*
X4000000Y-14250000D03*
%TD*%
D10*
%TO.C,J5*%
X21563427Y6055000D03*
D11*
X21563427Y7325000D03*
X21563427Y8595000D03*
X21563427Y9865000D03*
X21563427Y11135000D03*
X21563427Y12405000D03*
X21563427Y13675000D03*
X21563427Y14945000D03*
%TD*%
D13*
%TO.C,SW2*%
X15250000Y-4000000D03*
X8750000Y-4000000D03*
%TD*%
D12*
%TO.C,REF\u002A\u002A*%
X-19906489Y18240934D03*
%TD*%
D15*
%TO.C,U4*%
X-20500000Y-500000D03*
D16*
X-18500000Y-500000D03*
X-20500000Y-2500000D03*
X-18500000Y-2500000D03*
X-20500000Y-4500000D03*
X-18500000Y-4500000D03*
X-20500000Y-6500000D03*
X-18500000Y-6500000D03*
%TD*%
D13*
%TO.C,SW4*%
X15250000Y-18000000D03*
X8750000Y-18000000D03*
%TD*%
D17*
%TO.C,U3*%
X-3810000Y27500000D03*
D18*
X-1270000Y27500000D03*
X1270000Y27500000D03*
X3810000Y27500000D03*
%TD*%
D14*
%TO.C,SW5*%
X20000000Y-7750000D03*
X20000000Y-14250000D03*
%TD*%
D19*
%TO.C,U1*%
X15900000Y14200000D03*
%TD*%
D17*
%TO.C,J1*%
X26000000Y7620000D03*
D18*
X26000000Y5080000D03*
X26000000Y2540000D03*
X26000000Y0D03*
X26000000Y-2540000D03*
X26000000Y-5080000D03*
X26000000Y-7620000D03*
%TD*%
D20*
%TO.C,C4*%
X-20500000Y9850000D03*
D21*
X-23000000Y9850000D03*
%TD*%
D22*
%TO.C,BT2*%
X0Y-22350000D03*
X0Y22350000D03*
%TD*%
D23*
%TO.C,M2*%
X-3150000Y11500000D03*
D24*
X-1850000Y11500000D03*
%TD*%
D25*
%TO.C,VBUS/+3.3V*%
X22912500Y150000D03*
D26*
X22912500Y-1150000D03*
%TD*%
D23*
%TO.C,M3*%
X-3150000Y7000000D03*
D24*
X-1850000Y7000000D03*
%TD*%
D22*
%TO.C,BT1*%
X12000000Y22350000D03*
X12000000Y-22350000D03*
%TD*%
%TO.C,BT3*%
X-12000000Y22350000D03*
X-12000000Y-22350000D03*
%TD*%
D23*
%TO.C,M1*%
X-3150000Y16000000D03*
D24*
X-1850000Y16000000D03*
%TD*%
M02*
