%TF.GenerationSoftware,KiCad,Pcbnew,8.0.1*%
%TF.CreationDate,2024-05-14T23:10:40+09:00*%
%TF.ProjectId,main,6d61696e-2e6b-4696-9361-645f70636258,rev?*%
%TF.SameCoordinates,Original*%
%TF.FileFunction,Legend,Top*%
%TF.FilePolarity,Positive*%
%FSLAX46Y46*%
G04 Gerber Fmt 4.6, Leading zero omitted, Abs format (unit mm)*
G04 Created by KiCad (PCBNEW 8.0.1) date 2024-05-14 23:10:40*
%MOMM*%
%LPD*%
G01*
G04 APERTURE LIST*
G04 Aperture macros list*
%AMRoundRect*
0 Rectangle with rounded corners*
0 $1 Rounding radius*
0 $2 $3 $4 $5 $6 $7 $8 $9 X,Y pos of 4 corners*
0 Add a 4 corners polygon primitive as box body*
4,1,4,$2,$3,$4,$5,$6,$7,$8,$9,$2,$3,0*
0 Add four circle primitives for the rounded corners*
1,1,$1+$1,$2,$3*
1,1,$1+$1,$4,$5*
1,1,$1+$1,$6,$7*
1,1,$1+$1,$8,$9*
0 Add four rect primitives between the rounded corners*
20,1,$1+$1,$2,$3,$4,$5,0*
20,1,$1+$1,$4,$5,$6,$7,0*
20,1,$1+$1,$6,$7,$8,$9,0*
20,1,$1+$1,$8,$9,$2,$3,0*%
%AMHorizOval*
0 Thick line with rounded ends*
0 $1 width*
0 $2 $3 position (X,Y) of the first rounded end (center of the circle)*
0 $4 $5 position (X,Y) of the second rounded end (center of the circle)*
0 Add line between two ends*
20,1,$1,$2,$3,$4,$5,0*
0 Add two circle primitives to create the rounded ends*
1,1,$1,$2,$3*
1,1,$1,$4,$5*%
%AMRotRect*
0 Rectangle, with rotation*
0 The origin of the aperture is its center*
0 $1 length*
0 $2 width*
0 $3 Rotation angle, in degrees counterclockwise*
0 Add horizontal line*
21,1,$1,$2,0,0,$3*%
G04 Aperture macros list end*
%ADD10C,0.150000*%
%ADD11C,0.120000*%
%ADD12RoundRect,0.200000X-0.250000X-0.200000X0.250000X-0.200000X0.250000X0.200000X-0.250000X0.200000X0*%
%ADD13O,2.700000X2.000000*%
%ADD14RoundRect,0.250000X0.475000X-0.250000X0.475000X0.250000X-0.475000X0.250000X-0.475000X-0.250000X0*%
%ADD15RoundRect,0.112500X-0.237500X0.112500X-0.237500X-0.112500X0.237500X-0.112500X0.237500X0.112500X0*%
%ADD16HorizOval,3.100000X0.424264X0.424264X-0.424264X-0.424264X0*%
%ADD17O,0.900000X1.400000*%
%ADD18O,1.400000X0.900000*%
%ADD19O,1.200000X0.900000*%
%ADD20O,1.700000X1.700000*%
%ADD21R,1.700000X1.700000*%
%ADD22C,1.350000*%
%ADD23RoundRect,0.375000X-0.625000X-0.375000X0.625000X-0.375000X0.625000X0.375000X-0.625000X0.375000X0*%
%ADD24RoundRect,0.500000X-0.500000X-1.400000X0.500000X-1.400000X0.500000X1.400000X-0.500000X1.400000X0*%
%ADD25O,2.000000X2.700000*%
%ADD26C,1.500000*%
%ADD27RotRect,1.700000X1.700000X225.000000*%
%ADD28HorizOval,1.700000X0.000000X0.000000X0.000000X0.000000X0*%
G04 APERTURE END LIST*
D10*
G36*
X92034403Y-74614581D02*
G01*
X92325052Y-74614581D01*
X92704361Y-75178293D01*
X92704361Y-74614581D01*
X92997452Y-74614581D01*
X92997452Y-75615000D01*
X92704361Y-75615000D01*
X92327006Y-75054218D01*
X92327006Y-75615000D01*
X92034403Y-75615000D01*
X92034403Y-74614581D01*
G37*
G36*
X93764559Y-74616519D02*
G01*
X93819972Y-74623961D01*
X93869408Y-74636984D01*
X93919530Y-74659231D01*
X93961518Y-74689076D01*
X93966852Y-74693960D01*
X93999686Y-74731890D01*
X94024455Y-74776226D01*
X94041159Y-74826966D01*
X94049059Y-74875555D01*
X94051116Y-74919640D01*
X94047888Y-74973833D01*
X94038202Y-75023390D01*
X94018741Y-75075345D01*
X93990490Y-75120990D01*
X93959281Y-75155090D01*
X93914581Y-75188114D01*
X93868900Y-75209964D01*
X93816419Y-75225855D01*
X93767489Y-75234545D01*
X93713837Y-75239098D01*
X93679379Y-75239842D01*
X93509141Y-75239842D01*
X93509141Y-75615000D01*
X93196510Y-75615000D01*
X93196510Y-74817791D01*
X93509141Y-74817791D01*
X93509141Y-75036632D01*
X93585345Y-75036632D01*
X93636426Y-75033675D01*
X93687142Y-75020987D01*
X93711863Y-75006346D01*
X93741289Y-74966590D01*
X93748255Y-74928189D01*
X93737061Y-74878365D01*
X93716503Y-74850031D01*
X93671074Y-74825851D01*
X93618730Y-74818295D01*
X93597801Y-74817791D01*
X93509141Y-74817791D01*
X93196510Y-74817791D01*
X93196510Y-74614581D01*
X93713817Y-74614581D01*
X93764559Y-74616519D01*
G37*
G36*
X94210118Y-74614581D02*
G01*
X94500767Y-74614581D01*
X94880076Y-75178293D01*
X94880076Y-74614581D01*
X95173168Y-74614581D01*
X95173168Y-75615000D01*
X94880076Y-75615000D01*
X94502721Y-75054218D01*
X94502721Y-75615000D01*
X94210118Y-75615000D01*
X94210118Y-74614581D01*
G37*
G36*
X66166816Y-91626482D02*
G01*
X66245707Y-91353907D01*
X66293607Y-91367395D01*
X66343970Y-91386530D01*
X66389663Y-91409633D01*
X66430684Y-91436706D01*
X66435484Y-91440369D01*
X66475274Y-91475877D01*
X66509191Y-91515906D01*
X66537235Y-91560456D01*
X66550278Y-91587159D01*
X66567161Y-91633871D01*
X66579220Y-91686566D01*
X66585815Y-91737583D01*
X66588717Y-91793182D01*
X66588868Y-91809909D01*
X66587717Y-91859733D01*
X66583298Y-91915649D01*
X66575564Y-91967341D01*
X66562352Y-92022308D01*
X66544629Y-92071526D01*
X66541729Y-92078087D01*
X66517575Y-92122252D01*
X66486571Y-92163706D01*
X66448719Y-92202448D01*
X66410823Y-92233497D01*
X66375400Y-92257850D01*
X66328368Y-92283499D01*
X66276665Y-92303840D01*
X66220290Y-92318876D01*
X66169744Y-92327351D01*
X66115953Y-92332142D01*
X66070585Y-92333321D01*
X66010520Y-92331245D01*
X65954035Y-92325017D01*
X65901130Y-92314637D01*
X65851804Y-92300104D01*
X65806058Y-92281420D01*
X65753910Y-92252225D01*
X65707355Y-92216543D01*
X65690299Y-92200453D01*
X65651951Y-92156237D01*
X65620103Y-92106629D01*
X65594754Y-92051632D01*
X65579155Y-92003753D01*
X65567716Y-91952424D01*
X65560436Y-91897644D01*
X65557316Y-91839415D01*
X65557186Y-91824319D01*
X65559071Y-91766853D01*
X65564723Y-91713370D01*
X65574145Y-91663870D01*
X65590425Y-91609728D01*
X65612132Y-91561323D01*
X65634367Y-91525366D01*
X65666221Y-91486483D01*
X65703896Y-91451532D01*
X65747393Y-91420514D01*
X65796712Y-91393429D01*
X65842258Y-91373862D01*
X65871527Y-91363433D01*
X65932343Y-91638206D01*
X65886717Y-91655835D01*
X65865421Y-91668492D01*
X65829134Y-91703659D01*
X65810955Y-91732484D01*
X65794844Y-91780336D01*
X65791659Y-91816748D01*
X65796865Y-91866543D01*
X65815165Y-91915190D01*
X65846642Y-91956033D01*
X65874946Y-91978925D01*
X65920460Y-92001336D01*
X65973210Y-92014409D01*
X66021958Y-92019929D01*
X66069119Y-92021423D01*
X66126870Y-92019637D01*
X66177391Y-92014279D01*
X66227195Y-92003513D01*
X66276768Y-91982527D01*
X66293578Y-91970621D01*
X66328203Y-91930816D01*
X66348456Y-91881257D01*
X66354395Y-91827739D01*
X66349720Y-91776137D01*
X66333778Y-91729239D01*
X66306523Y-91692672D01*
X66264323Y-91661955D01*
X66219815Y-91641762D01*
X66172498Y-91627789D01*
X66166816Y-91626482D01*
G37*
G36*
X66573237Y-90435066D02*
G01*
X66573237Y-91274528D01*
X66518918Y-91265419D01*
X66466026Y-91250700D01*
X66414560Y-91230370D01*
X66364520Y-91204431D01*
X66336565Y-91187090D01*
X66293646Y-91155113D01*
X66255978Y-91121591D01*
X66216581Y-91081821D01*
X66183818Y-91045505D01*
X66149948Y-91005190D01*
X66114972Y-90960875D01*
X66078889Y-90912561D01*
X66046712Y-90869524D01*
X66013035Y-90827216D01*
X65979643Y-90789282D01*
X65942601Y-90755268D01*
X65899940Y-90730549D01*
X65854186Y-90720830D01*
X65804974Y-90732799D01*
X65776761Y-90754780D01*
X65750889Y-90798537D01*
X65744765Y-90840265D01*
X65753435Y-90889052D01*
X65779447Y-90927948D01*
X65823325Y-90954892D01*
X65875120Y-90969415D01*
X65901080Y-90973621D01*
X65877877Y-91254012D01*
X65828755Y-91245437D01*
X65778712Y-91232431D01*
X65730187Y-91213712D01*
X65693962Y-91193440D01*
X65655623Y-91162456D01*
X65623342Y-91124460D01*
X65597119Y-91079452D01*
X65592601Y-91069609D01*
X65575482Y-91019677D01*
X65564968Y-90967119D01*
X65559400Y-90914820D01*
X65557325Y-90865303D01*
X65557186Y-90847836D01*
X65558354Y-90794816D01*
X65562668Y-90738777D01*
X65570162Y-90689002D01*
X65582618Y-90639787D01*
X65590403Y-90618248D01*
X65614470Y-90570263D01*
X65645453Y-90529195D01*
X65683354Y-90495044D01*
X65691764Y-90489043D01*
X65736128Y-90464185D01*
X65783737Y-90448533D01*
X65834589Y-90442089D01*
X65845149Y-90441905D01*
X65895226Y-90446174D01*
X65944067Y-90458983D01*
X65991671Y-90480332D01*
X66017584Y-90495882D01*
X66059746Y-90528382D01*
X66098291Y-90565860D01*
X66132558Y-90604700D01*
X66167958Y-90649740D01*
X66198324Y-90692009D01*
X66227885Y-90735121D01*
X66256618Y-90775796D01*
X66278680Y-90805094D01*
X66310937Y-90842355D01*
X66338763Y-90872016D01*
X66338763Y-90435066D01*
X66573237Y-90435066D01*
G37*
G36*
X82934939Y-116208282D02*
G01*
X82990352Y-116215724D01*
X83039788Y-116228747D01*
X83089910Y-116250994D01*
X83131898Y-116280839D01*
X83137232Y-116285723D01*
X83170066Y-116323653D01*
X83194835Y-116367989D01*
X83211539Y-116418729D01*
X83219439Y-116467318D01*
X83221496Y-116511403D01*
X83218268Y-116565596D01*
X83208582Y-116615153D01*
X83189121Y-116667108D01*
X83160871Y-116712753D01*
X83129661Y-116746853D01*
X83084962Y-116779877D01*
X83039281Y-116801727D01*
X82986799Y-116817618D01*
X82937869Y-116826308D01*
X82884217Y-116830861D01*
X82849759Y-116831605D01*
X82679521Y-116831605D01*
X82679521Y-117206763D01*
X82366891Y-117206763D01*
X82366891Y-116409554D01*
X82679521Y-116409554D01*
X82679521Y-116628395D01*
X82755725Y-116628395D01*
X82806806Y-116625438D01*
X82857522Y-116612750D01*
X82882243Y-116598109D01*
X82911669Y-116558353D01*
X82918635Y-116519952D01*
X82907441Y-116470128D01*
X82886884Y-116441794D01*
X82841454Y-116417614D01*
X82789110Y-116410058D01*
X82768182Y-116409554D01*
X82679521Y-116409554D01*
X82366891Y-116409554D01*
X82366891Y-116206344D01*
X82884197Y-116206344D01*
X82934939Y-116208282D01*
G37*
G36*
X83380498Y-116206344D02*
G01*
X83671147Y-116206344D01*
X84050456Y-116770056D01*
X84050456Y-116206344D01*
X84343548Y-116206344D01*
X84343548Y-117206763D01*
X84050456Y-117206763D01*
X83673101Y-116645981D01*
X83673101Y-117206763D01*
X83380498Y-117206763D01*
X83380498Y-116206344D01*
G37*
G36*
X85110655Y-116208282D02*
G01*
X85166067Y-116215724D01*
X85215503Y-116228747D01*
X85265626Y-116250994D01*
X85307614Y-116280839D01*
X85312948Y-116285723D01*
X85345781Y-116323653D01*
X85370550Y-116367989D01*
X85387255Y-116418729D01*
X85395154Y-116467318D01*
X85397212Y-116511403D01*
X85393983Y-116565596D01*
X85384297Y-116615153D01*
X85364836Y-116667108D01*
X85336586Y-116712753D01*
X85305376Y-116746853D01*
X85260677Y-116779877D01*
X85214996Y-116801727D01*
X85162514Y-116817618D01*
X85113585Y-116826308D01*
X85059932Y-116830861D01*
X85025474Y-116831605D01*
X84855237Y-116831605D01*
X84855237Y-117206763D01*
X84542606Y-117206763D01*
X84542606Y-116409554D01*
X84855237Y-116409554D01*
X84855237Y-116628395D01*
X84931440Y-116628395D01*
X84982522Y-116625438D01*
X85033237Y-116612750D01*
X85057958Y-116598109D01*
X85087385Y-116558353D01*
X85094350Y-116519952D01*
X85083157Y-116470128D01*
X85062599Y-116441794D01*
X85017170Y-116417614D01*
X84964825Y-116410058D01*
X84943897Y-116409554D01*
X84855237Y-116409554D01*
X84542606Y-116409554D01*
X84542606Y-116206344D01*
X85059912Y-116206344D01*
X85110655Y-116208282D01*
G37*
G36*
X71166816Y-91626482D02*
G01*
X71245707Y-91353907D01*
X71293607Y-91367395D01*
X71343970Y-91386530D01*
X71389663Y-91409633D01*
X71430684Y-91436706D01*
X71435484Y-91440369D01*
X71475274Y-91475877D01*
X71509191Y-91515906D01*
X71537235Y-91560456D01*
X71550278Y-91587159D01*
X71567161Y-91633871D01*
X71579220Y-91686566D01*
X71585815Y-91737583D01*
X71588717Y-91793182D01*
X71588868Y-91809909D01*
X71587717Y-91859733D01*
X71583298Y-91915649D01*
X71575564Y-91967341D01*
X71562352Y-92022308D01*
X71544629Y-92071526D01*
X71541729Y-92078087D01*
X71517575Y-92122252D01*
X71486571Y-92163706D01*
X71448719Y-92202448D01*
X71410823Y-92233497D01*
X71375400Y-92257850D01*
X71328368Y-92283499D01*
X71276665Y-92303840D01*
X71220290Y-92318876D01*
X71169744Y-92327351D01*
X71115953Y-92332142D01*
X71070585Y-92333321D01*
X71010520Y-92331245D01*
X70954035Y-92325017D01*
X70901130Y-92314637D01*
X70851804Y-92300104D01*
X70806058Y-92281420D01*
X70753910Y-92252225D01*
X70707355Y-92216543D01*
X70690299Y-92200453D01*
X70651951Y-92156237D01*
X70620103Y-92106629D01*
X70594754Y-92051632D01*
X70579155Y-92003753D01*
X70567716Y-91952424D01*
X70560436Y-91897644D01*
X70557316Y-91839415D01*
X70557186Y-91824319D01*
X70559071Y-91766853D01*
X70564723Y-91713370D01*
X70574145Y-91663870D01*
X70590425Y-91609728D01*
X70612132Y-91561323D01*
X70634367Y-91525366D01*
X70666221Y-91486483D01*
X70703896Y-91451532D01*
X70747393Y-91420514D01*
X70796712Y-91393429D01*
X70842258Y-91373862D01*
X70871527Y-91363433D01*
X70932343Y-91638206D01*
X70886717Y-91655835D01*
X70865421Y-91668492D01*
X70829134Y-91703659D01*
X70810955Y-91732484D01*
X70794844Y-91780336D01*
X70791659Y-91816748D01*
X70796865Y-91866543D01*
X70815165Y-91915190D01*
X70846642Y-91956033D01*
X70874946Y-91978925D01*
X70920460Y-92001336D01*
X70973210Y-92014409D01*
X71021958Y-92019929D01*
X71069119Y-92021423D01*
X71126870Y-92019637D01*
X71177391Y-92014279D01*
X71227195Y-92003513D01*
X71276768Y-91982527D01*
X71293578Y-91970621D01*
X71328203Y-91930816D01*
X71348456Y-91881257D01*
X71354395Y-91827739D01*
X71349720Y-91776137D01*
X71333778Y-91729239D01*
X71306523Y-91692672D01*
X71264323Y-91661955D01*
X71219815Y-91641762D01*
X71172498Y-91627789D01*
X71166816Y-91626482D01*
G37*
G36*
X71401290Y-90529344D02*
G01*
X71573237Y-90529344D01*
X71573237Y-90773098D01*
X71401290Y-90773098D01*
X71401290Y-91282833D01*
X71169015Y-91282833D01*
X70557186Y-90773098D01*
X70851499Y-90773098D01*
X71166816Y-91042254D01*
X71166816Y-90773098D01*
X70851499Y-90773098D01*
X70557186Y-90773098D01*
X70557186Y-90529344D01*
X71166816Y-90529344D01*
X71166816Y-90402826D01*
X71401290Y-90402826D01*
X71401290Y-90529344D01*
G37*
G36*
X73608579Y-91626482D02*
G01*
X73687470Y-91353907D01*
X73735370Y-91367395D01*
X73785733Y-91386530D01*
X73831426Y-91409633D01*
X73872447Y-91436706D01*
X73877247Y-91440369D01*
X73917037Y-91475877D01*
X73950954Y-91515906D01*
X73978998Y-91560456D01*
X73992041Y-91587159D01*
X74008924Y-91633871D01*
X74020983Y-91686566D01*
X74027578Y-91737583D01*
X74030480Y-91793182D01*
X74030631Y-91809909D01*
X74029480Y-91859733D01*
X74025061Y-91915649D01*
X74017327Y-91967341D01*
X74004115Y-92022308D01*
X73986392Y-92071526D01*
X73983492Y-92078087D01*
X73959338Y-92122252D01*
X73928334Y-92163706D01*
X73890482Y-92202448D01*
X73852586Y-92233497D01*
X73817163Y-92257850D01*
X73770131Y-92283499D01*
X73718428Y-92303840D01*
X73662053Y-92318876D01*
X73611507Y-92327351D01*
X73557716Y-92332142D01*
X73512348Y-92333321D01*
X73452283Y-92331245D01*
X73395798Y-92325017D01*
X73342893Y-92314637D01*
X73293567Y-92300104D01*
X73247821Y-92281420D01*
X73195673Y-92252225D01*
X73149118Y-92216543D01*
X73132062Y-92200453D01*
X73093714Y-92156237D01*
X73061866Y-92106629D01*
X73036517Y-92051632D01*
X73020918Y-92003753D01*
X73009479Y-91952424D01*
X73002199Y-91897644D01*
X72999079Y-91839415D01*
X72998949Y-91824319D01*
X73000834Y-91766853D01*
X73006486Y-91713370D01*
X73015908Y-91663870D01*
X73032188Y-91609728D01*
X73053895Y-91561323D01*
X73076130Y-91525366D01*
X73107984Y-91486483D01*
X73145659Y-91451532D01*
X73189156Y-91420514D01*
X73238475Y-91393429D01*
X73284021Y-91373862D01*
X73313290Y-91363433D01*
X73374106Y-91638206D01*
X73328480Y-91655835D01*
X73307184Y-91668492D01*
X73270897Y-91703659D01*
X73252718Y-91732484D01*
X73236607Y-91780336D01*
X73233422Y-91816748D01*
X73238628Y-91866543D01*
X73256928Y-91915190D01*
X73288405Y-91956033D01*
X73316709Y-91978925D01*
X73362223Y-92001336D01*
X73414973Y-92014409D01*
X73463721Y-92019929D01*
X73510882Y-92021423D01*
X73568633Y-92019637D01*
X73619154Y-92014279D01*
X73668958Y-92003513D01*
X73718531Y-91982527D01*
X73735341Y-91970621D01*
X73769966Y-91930816D01*
X73790219Y-91881257D01*
X73796158Y-91827739D01*
X73791483Y-91776137D01*
X73775541Y-91729239D01*
X73748286Y-91692672D01*
X73706086Y-91661955D01*
X73661578Y-91641762D01*
X73614261Y-91627789D01*
X73608579Y-91626482D01*
G37*
G36*
X73014581Y-91140683D02*
G01*
X73014581Y-90476343D01*
X73249054Y-90476343D01*
X73249054Y-90926238D01*
X73390471Y-90950418D01*
X73369588Y-90904012D01*
X73354811Y-90858094D01*
X73345473Y-90809842D01*
X73342843Y-90767725D01*
X73346029Y-90713039D01*
X73355586Y-90662372D01*
X73371514Y-90615723D01*
X73398150Y-90566379D01*
X73433457Y-90522505D01*
X73475345Y-90485770D01*
X73521721Y-90458057D01*
X73572584Y-90439367D01*
X73627936Y-90429700D01*
X73661580Y-90428227D01*
X73715386Y-90432072D01*
X73767995Y-90443606D01*
X73819405Y-90462829D01*
X73847449Y-90476831D01*
X73889398Y-90503545D01*
X73930313Y-90539657D01*
X73964582Y-90582182D01*
X73983736Y-90614096D01*
X74004253Y-90661662D01*
X74018907Y-90715457D01*
X74026922Y-90767636D01*
X74030448Y-90824584D01*
X74030631Y-90841730D01*
X74029105Y-90895543D01*
X74024526Y-90944873D01*
X74015858Y-90994428D01*
X74011336Y-91012700D01*
X73995819Y-91059053D01*
X73973757Y-91103893D01*
X73953695Y-91133600D01*
X73920886Y-91170822D01*
X73881856Y-91204054D01*
X73866988Y-91214200D01*
X73823547Y-91237670D01*
X73776435Y-91256257D01*
X73745844Y-91265736D01*
X73718000Y-90982658D01*
X73766032Y-90968400D01*
X73807187Y-90939167D01*
X73811301Y-90934542D01*
X73836076Y-90890252D01*
X73843053Y-90844417D01*
X73834359Y-90794145D01*
X73808277Y-90752783D01*
X73803485Y-90747941D01*
X73761431Y-90721895D01*
X73713551Y-90711179D01*
X73685516Y-90709839D01*
X73635351Y-90714399D01*
X73589162Y-90731546D01*
X73567791Y-90748429D01*
X73540968Y-90790014D01*
X73530750Y-90838994D01*
X73530422Y-90850767D01*
X73537386Y-90900398D01*
X73548251Y-90929169D01*
X73575863Y-90970445D01*
X73594902Y-90990963D01*
X73564127Y-91229099D01*
X73014581Y-91140683D01*
G37*
X82396332Y-82396582D02*
X82396332Y-83206105D01*
X82396332Y-83206105D02*
X82443951Y-83301343D01*
X82443951Y-83301343D02*
X82491570Y-83348963D01*
X82491570Y-83348963D02*
X82586808Y-83396582D01*
X82586808Y-83396582D02*
X82777284Y-83396582D01*
X82777284Y-83396582D02*
X82872522Y-83348963D01*
X82872522Y-83348963D02*
X82920141Y-83301343D01*
X82920141Y-83301343D02*
X82967760Y-83206105D01*
X82967760Y-83206105D02*
X82967760Y-82396582D01*
X83348713Y-82396582D02*
X83967760Y-82396582D01*
X83967760Y-82396582D02*
X83634427Y-82777534D01*
X83634427Y-82777534D02*
X83777284Y-82777534D01*
X83777284Y-82777534D02*
X83872522Y-82825153D01*
X83872522Y-82825153D02*
X83920141Y-82872772D01*
X83920141Y-82872772D02*
X83967760Y-82968010D01*
X83967760Y-82968010D02*
X83967760Y-83206105D01*
X83967760Y-83206105D02*
X83920141Y-83301343D01*
X83920141Y-83301343D02*
X83872522Y-83348963D01*
X83872522Y-83348963D02*
X83777284Y-83396582D01*
X83777284Y-83396582D02*
X83491570Y-83396582D01*
X83491570Y-83396582D02*
X83396332Y-83348963D01*
X83396332Y-83348963D02*
X83348713Y-83301343D01*
G36*
X82342640Y-107606344D02*
G01*
X82633289Y-107606344D01*
X83012598Y-108170056D01*
X83012598Y-107606344D01*
X83305689Y-107606344D01*
X83305689Y-108606763D01*
X83012598Y-108606763D01*
X82635243Y-108045981D01*
X82635243Y-108606763D01*
X82342640Y-108606763D01*
X82342640Y-107606344D01*
G37*
G36*
X84072796Y-107608282D02*
G01*
X84128209Y-107615724D01*
X84177645Y-107628747D01*
X84227767Y-107650994D01*
X84269755Y-107680839D01*
X84275089Y-107685723D01*
X84307923Y-107723653D01*
X84332692Y-107767989D01*
X84349396Y-107818729D01*
X84357296Y-107867318D01*
X84359353Y-107911403D01*
X84356125Y-107965596D01*
X84346439Y-108015153D01*
X84326978Y-108067108D01*
X84298727Y-108112753D01*
X84267518Y-108146853D01*
X84222818Y-108179877D01*
X84177137Y-108201727D01*
X84124656Y-108217618D01*
X84075726Y-108226308D01*
X84022074Y-108230861D01*
X83987616Y-108231605D01*
X83817378Y-108231605D01*
X83817378Y-108606763D01*
X83504747Y-108606763D01*
X83504747Y-107809554D01*
X83817378Y-107809554D01*
X83817378Y-108028395D01*
X83893582Y-108028395D01*
X83944663Y-108025438D01*
X83995379Y-108012750D01*
X84020100Y-107998109D01*
X84049526Y-107958353D01*
X84056492Y-107919952D01*
X84045298Y-107870128D01*
X84024740Y-107841794D01*
X83979311Y-107817614D01*
X83926967Y-107810058D01*
X83906038Y-107809554D01*
X83817378Y-107809554D01*
X83504747Y-107809554D01*
X83504747Y-107606344D01*
X84022054Y-107606344D01*
X84072796Y-107608282D01*
G37*
G36*
X84518355Y-107606344D02*
G01*
X84809004Y-107606344D01*
X85188313Y-108170056D01*
X85188313Y-107606344D01*
X85481405Y-107606344D01*
X85481405Y-108606763D01*
X85188313Y-108606763D01*
X84810958Y-108045981D01*
X84810958Y-108606763D01*
X84518355Y-108606763D01*
X84518355Y-107606344D01*
G37*
G36*
X63666816Y-91626482D02*
G01*
X63745707Y-91353907D01*
X63793607Y-91367395D01*
X63843970Y-91386530D01*
X63889663Y-91409633D01*
X63930684Y-91436706D01*
X63935484Y-91440369D01*
X63975274Y-91475877D01*
X64009191Y-91515906D01*
X64037235Y-91560456D01*
X64050278Y-91587159D01*
X64067161Y-91633871D01*
X64079220Y-91686566D01*
X64085815Y-91737583D01*
X64088717Y-91793182D01*
X64088868Y-91809909D01*
X64087717Y-91859733D01*
X64083298Y-91915649D01*
X64075564Y-91967341D01*
X64062352Y-92022308D01*
X64044629Y-92071526D01*
X64041729Y-92078087D01*
X64017575Y-92122252D01*
X63986571Y-92163706D01*
X63948719Y-92202448D01*
X63910823Y-92233497D01*
X63875400Y-92257850D01*
X63828368Y-92283499D01*
X63776665Y-92303840D01*
X63720290Y-92318876D01*
X63669744Y-92327351D01*
X63615953Y-92332142D01*
X63570585Y-92333321D01*
X63510520Y-92331245D01*
X63454035Y-92325017D01*
X63401130Y-92314637D01*
X63351804Y-92300104D01*
X63306058Y-92281420D01*
X63253910Y-92252225D01*
X63207355Y-92216543D01*
X63190299Y-92200453D01*
X63151951Y-92156237D01*
X63120103Y-92106629D01*
X63094754Y-92051632D01*
X63079155Y-92003753D01*
X63067716Y-91952424D01*
X63060436Y-91897644D01*
X63057316Y-91839415D01*
X63057186Y-91824319D01*
X63059071Y-91766853D01*
X63064723Y-91713370D01*
X63074145Y-91663870D01*
X63090425Y-91609728D01*
X63112132Y-91561323D01*
X63134367Y-91525366D01*
X63166221Y-91486483D01*
X63203896Y-91451532D01*
X63247393Y-91420514D01*
X63296712Y-91393429D01*
X63342258Y-91373862D01*
X63371527Y-91363433D01*
X63432343Y-91638206D01*
X63386717Y-91655835D01*
X63365421Y-91668492D01*
X63329134Y-91703659D01*
X63310955Y-91732484D01*
X63294844Y-91780336D01*
X63291659Y-91816748D01*
X63296865Y-91866543D01*
X63315165Y-91915190D01*
X63346642Y-91956033D01*
X63374946Y-91978925D01*
X63420460Y-92001336D01*
X63473210Y-92014409D01*
X63521958Y-92019929D01*
X63569119Y-92021423D01*
X63626870Y-92019637D01*
X63677391Y-92014279D01*
X63727195Y-92003513D01*
X63776768Y-91982527D01*
X63793578Y-91970621D01*
X63828203Y-91930816D01*
X63848456Y-91881257D01*
X63854395Y-91827739D01*
X63849720Y-91776137D01*
X63833778Y-91729239D01*
X63806523Y-91692672D01*
X63764323Y-91661955D01*
X63719815Y-91641762D01*
X63672498Y-91627789D01*
X63666816Y-91626482D01*
G37*
G36*
X63057186Y-90619958D02*
G01*
X64073237Y-90619958D01*
X64073237Y-90903035D01*
X63407919Y-90903035D01*
X63439217Y-90945501D01*
X63466556Y-90987108D01*
X63492056Y-91031884D01*
X63494137Y-91035903D01*
X63516488Y-91083904D01*
X63536256Y-91134203D01*
X63553599Y-91184896D01*
X63557396Y-91196859D01*
X63322922Y-91196859D01*
X63305334Y-91145528D01*
X63286458Y-91098697D01*
X63262807Y-91049746D01*
X63237404Y-91006920D01*
X63214234Y-90975087D01*
X63180514Y-90937779D01*
X63143099Y-90904745D01*
X63101990Y-90875985D01*
X63057186Y-90851500D01*
X63057186Y-90619958D01*
G37*
G36*
X92676702Y-83216519D02*
G01*
X92732115Y-83223961D01*
X92781551Y-83236984D01*
X92831673Y-83259231D01*
X92873661Y-83289076D01*
X92878995Y-83293960D01*
X92911829Y-83331890D01*
X92936598Y-83376226D01*
X92953302Y-83426966D01*
X92961202Y-83475555D01*
X92963259Y-83519640D01*
X92960031Y-83573833D01*
X92950345Y-83623390D01*
X92930884Y-83675345D01*
X92902634Y-83720990D01*
X92871424Y-83755090D01*
X92826725Y-83788114D01*
X92781044Y-83809964D01*
X92728562Y-83825855D01*
X92679632Y-83834545D01*
X92625980Y-83839098D01*
X92591522Y-83839842D01*
X92421284Y-83839842D01*
X92421284Y-84215000D01*
X92108654Y-84215000D01*
X92108654Y-83417791D01*
X92421284Y-83417791D01*
X92421284Y-83636632D01*
X92497488Y-83636632D01*
X92548569Y-83633675D01*
X92599285Y-83620987D01*
X92624006Y-83606346D01*
X92653432Y-83566590D01*
X92660398Y-83528189D01*
X92649204Y-83478365D01*
X92628647Y-83450031D01*
X92583217Y-83425851D01*
X92530873Y-83418295D01*
X92509945Y-83417791D01*
X92421284Y-83417791D01*
X92108654Y-83417791D01*
X92108654Y-83214581D01*
X92625960Y-83214581D01*
X92676702Y-83216519D01*
G37*
G36*
X93122261Y-83214581D02*
G01*
X93412910Y-83214581D01*
X93792219Y-83778293D01*
X93792219Y-83214581D01*
X94085311Y-83214581D01*
X94085311Y-84215000D01*
X93792219Y-84215000D01*
X93414864Y-83654218D01*
X93414864Y-84215000D01*
X93122261Y-84215000D01*
X93122261Y-83214581D01*
G37*
G36*
X94852418Y-83216519D02*
G01*
X94907830Y-83223961D01*
X94957266Y-83236984D01*
X95007389Y-83259231D01*
X95049377Y-83289076D01*
X95054711Y-83293960D01*
X95087544Y-83331890D01*
X95112313Y-83376226D01*
X95129018Y-83426966D01*
X95136917Y-83475555D01*
X95138975Y-83519640D01*
X95135746Y-83573833D01*
X95126060Y-83623390D01*
X95106599Y-83675345D01*
X95078349Y-83720990D01*
X95047139Y-83755090D01*
X95002440Y-83788114D01*
X94956759Y-83809964D01*
X94904277Y-83825855D01*
X94855348Y-83834545D01*
X94801695Y-83839098D01*
X94767237Y-83839842D01*
X94597000Y-83839842D01*
X94597000Y-84215000D01*
X94284369Y-84215000D01*
X94284369Y-83417791D01*
X94597000Y-83417791D01*
X94597000Y-83636632D01*
X94673203Y-83636632D01*
X94724285Y-83633675D01*
X94775000Y-83620987D01*
X94799721Y-83606346D01*
X94829148Y-83566590D01*
X94836113Y-83528189D01*
X94824920Y-83478365D01*
X94804362Y-83450031D01*
X94758933Y-83425851D01*
X94706588Y-83418295D01*
X94685660Y-83417791D01*
X94597000Y-83417791D01*
X94284369Y-83417791D01*
X94284369Y-83214581D01*
X94801675Y-83214581D01*
X94852418Y-83216519D01*
G37*
G36*
X68666816Y-91626482D02*
G01*
X68745707Y-91353907D01*
X68793607Y-91367395D01*
X68843970Y-91386530D01*
X68889663Y-91409633D01*
X68930684Y-91436706D01*
X68935484Y-91440369D01*
X68975274Y-91475877D01*
X69009191Y-91515906D01*
X69037235Y-91560456D01*
X69050278Y-91587159D01*
X69067161Y-91633871D01*
X69079220Y-91686566D01*
X69085815Y-91737583D01*
X69088717Y-91793182D01*
X69088868Y-91809909D01*
X69087717Y-91859733D01*
X69083298Y-91915649D01*
X69075564Y-91967341D01*
X69062352Y-92022308D01*
X69044629Y-92071526D01*
X69041729Y-92078087D01*
X69017575Y-92122252D01*
X68986571Y-92163706D01*
X68948719Y-92202448D01*
X68910823Y-92233497D01*
X68875400Y-92257850D01*
X68828368Y-92283499D01*
X68776665Y-92303840D01*
X68720290Y-92318876D01*
X68669744Y-92327351D01*
X68615953Y-92332142D01*
X68570585Y-92333321D01*
X68510520Y-92331245D01*
X68454035Y-92325017D01*
X68401130Y-92314637D01*
X68351804Y-92300104D01*
X68306058Y-92281420D01*
X68253910Y-92252225D01*
X68207355Y-92216543D01*
X68190299Y-92200453D01*
X68151951Y-92156237D01*
X68120103Y-92106629D01*
X68094754Y-92051632D01*
X68079155Y-92003753D01*
X68067716Y-91952424D01*
X68060436Y-91897644D01*
X68057316Y-91839415D01*
X68057186Y-91824319D01*
X68059071Y-91766853D01*
X68064723Y-91713370D01*
X68074145Y-91663870D01*
X68090425Y-91609728D01*
X68112132Y-91561323D01*
X68134367Y-91525366D01*
X68166221Y-91486483D01*
X68203896Y-91451532D01*
X68247393Y-91420514D01*
X68296712Y-91393429D01*
X68342258Y-91373862D01*
X68371527Y-91363433D01*
X68432343Y-91638206D01*
X68386717Y-91655835D01*
X68365421Y-91668492D01*
X68329134Y-91703659D01*
X68310955Y-91732484D01*
X68294844Y-91780336D01*
X68291659Y-91816748D01*
X68296865Y-91866543D01*
X68315165Y-91915190D01*
X68346642Y-91956033D01*
X68374946Y-91978925D01*
X68420460Y-92001336D01*
X68473210Y-92014409D01*
X68521958Y-92019929D01*
X68569119Y-92021423D01*
X68626870Y-92019637D01*
X68677391Y-92014279D01*
X68727195Y-92003513D01*
X68776768Y-91982527D01*
X68793578Y-91970621D01*
X68828203Y-91930816D01*
X68848456Y-91881257D01*
X68854395Y-91827739D01*
X68849720Y-91776137D01*
X68833778Y-91729239D01*
X68806523Y-91692672D01*
X68764323Y-91661955D01*
X68719815Y-91641762D01*
X68672498Y-91627789D01*
X68666816Y-91626482D01*
G37*
G36*
X68369817Y-90982658D02*
G01*
X68325853Y-91247173D01*
X68279182Y-91232670D01*
X68230158Y-91210346D01*
X68186978Y-91182201D01*
X68149642Y-91148236D01*
X68126551Y-91120411D01*
X68099523Y-91075650D01*
X68079134Y-91023433D01*
X68066941Y-90972740D01*
X68059625Y-90916569D01*
X68057254Y-90865575D01*
X68057186Y-90854919D01*
X68058927Y-90795919D01*
X68064151Y-90742262D01*
X68072857Y-90693948D01*
X68087901Y-90643023D01*
X68111790Y-90593335D01*
X68128505Y-90569644D01*
X68166348Y-90531175D01*
X68208800Y-90503698D01*
X68255863Y-90487212D01*
X68307535Y-90481716D01*
X68356800Y-90487642D01*
X68405526Y-90507277D01*
X68421841Y-90517620D01*
X68461419Y-90552599D01*
X68491633Y-90591580D01*
X68511722Y-90625331D01*
X68526481Y-90576670D01*
X68545672Y-90536182D01*
X68576814Y-90496625D01*
X68615529Y-90465577D01*
X68627982Y-90458269D01*
X68676221Y-90439235D01*
X68727795Y-90431105D01*
X68749370Y-90430425D01*
X68798682Y-90434077D01*
X68846872Y-90445031D01*
X68893942Y-90463288D01*
X68919608Y-90476587D01*
X68962402Y-90505623D01*
X68999283Y-90541073D01*
X69030253Y-90582937D01*
X69044904Y-90608967D01*
X69064138Y-90655602D01*
X69077877Y-90709045D01*
X69085390Y-90761393D01*
X69088482Y-90810411D01*
X69088868Y-90836357D01*
X69087743Y-90885796D01*
X69083587Y-90938331D01*
X69075089Y-90991587D01*
X69060747Y-91042852D01*
X69056872Y-91053000D01*
X69033836Y-91099869D01*
X69005028Y-91141252D01*
X68970447Y-91177149D01*
X68962839Y-91183670D01*
X68920988Y-91213261D01*
X68872984Y-91238224D01*
X68824519Y-91256735D01*
X68807256Y-91262072D01*
X68776237Y-90982658D01*
X68823097Y-90967809D01*
X68864575Y-90942003D01*
X68874179Y-90931612D01*
X68896100Y-90886446D01*
X68901290Y-90843196D01*
X68892757Y-90794663D01*
X68864844Y-90752005D01*
X68862455Y-90749651D01*
X68820183Y-90722653D01*
X68770562Y-90712368D01*
X68758652Y-90712037D01*
X68709831Y-90718003D01*
X68665820Y-90739713D01*
X68656314Y-90748185D01*
X68629020Y-90790561D01*
X68619957Y-90842045D01*
X68619922Y-90845882D01*
X68626028Y-90896734D01*
X68635553Y-90936496D01*
X68429412Y-90922086D01*
X68432343Y-90885694D01*
X68424833Y-90835319D01*
X68402301Y-90794103D01*
X68362752Y-90763309D01*
X68331227Y-90757222D01*
X68282901Y-90771480D01*
X68268456Y-90784822D01*
X68247564Y-90829666D01*
X68244765Y-90860293D01*
X68253575Y-90910198D01*
X68272608Y-90940893D01*
X68313789Y-90968007D01*
X68361280Y-90981207D01*
X68369817Y-90982658D01*
G37*
D11*
%TO.C,NPN*%
X92748237Y-76291763D02*
X94608237Y-76291763D01*
X92808237Y-79591763D02*
X94608237Y-79591763D01*
X94608237Y-76291763D02*
X94608237Y-77341763D01*
X94608237Y-79591763D02*
X94608237Y-78541763D01*
X92298237Y-76330087D02*
X92058237Y-76000087D01*
X92538237Y-76000087D01*
X92298237Y-76330087D01*
G36*
X92298237Y-76330087D02*
G01*
X92058237Y-76000087D01*
X92538237Y-76000087D01*
X92298237Y-76330087D01*
G37*
%TO.C,SW5*%
X60383237Y-109966763D02*
X58933237Y-109966763D01*
X58933237Y-112916763D01*
X60383237Y-112916763D01*
X60383237Y-109966763D01*
X61408237Y-114441763D02*
X57908237Y-114441763D01*
X57908237Y-108441763D01*
X61408237Y-108441763D01*
X61408237Y-114441763D01*
%TO.C,C2*%
X65423237Y-95203015D02*
X65423237Y-94680511D01*
X66893237Y-95203015D02*
X66893237Y-94680511D01*
%TO.C,SW3*%
X73383237Y-109966763D02*
X71933237Y-109966763D01*
X71933237Y-112916763D01*
X73383237Y-112916763D01*
X73383237Y-109966763D01*
X74408237Y-114441763D02*
X70908237Y-114441763D01*
X70908237Y-108441763D01*
X74408237Y-108441763D01*
X74408237Y-114441763D01*
%TO.C,PNP*%
X83228237Y-113281763D02*
X84638237Y-113281763D01*
X83228237Y-115601763D02*
X84638237Y-115601763D01*
X84638237Y-113281763D02*
X84638237Y-113941763D01*
X84638237Y-114941763D02*
X84638237Y-115601763D01*
X82858237Y-113301763D02*
X82618237Y-112971763D01*
X83098237Y-112971763D01*
X82858237Y-113301763D01*
G36*
X82858237Y-113301763D02*
G01*
X82618237Y-112971763D01*
X83098237Y-112971763D01*
X82858237Y-113301763D01*
G37*
%TO.C,U1*%
X76058237Y-66341763D02*
X77958237Y-66341763D01*
X76058237Y-68241763D02*
X76058237Y-66341763D01*
X76058237Y-78641763D02*
X76058237Y-80541763D01*
X76058237Y-80541763D02*
X77258237Y-80541763D01*
X88358237Y-80541763D02*
X90258237Y-80541763D01*
X90258237Y-66341763D02*
X88358237Y-66341763D01*
X90258237Y-68241763D02*
X90258237Y-66341763D01*
X90258237Y-80541763D02*
X90258237Y-78641763D01*
X77958237Y-81041763D02*
X77458237Y-80541763D01*
X77958237Y-80541763D01*
X77958237Y-81041763D01*
G36*
X77958237Y-81041763D02*
G01*
X77458237Y-80541763D01*
X77958237Y-80541763D01*
X77958237Y-81041763D01*
G37*
%TO.C,C4*%
X70423237Y-95203015D02*
X70423237Y-94680511D01*
X71893237Y-95203015D02*
X71893237Y-94680511D01*
%TO.C,C5*%
X72865000Y-95261252D02*
X72865000Y-94738748D01*
X74335000Y-95261252D02*
X74335000Y-94738748D01*
%TO.C,U2*%
X71308237Y-82246763D02*
X71308237Y-79586763D01*
X63628237Y-82246763D02*
X71308237Y-82246763D01*
X63628237Y-82246763D02*
X63628237Y-79586763D01*
X63628237Y-79586763D02*
X71308237Y-79586763D01*
X61028237Y-80916763D02*
X61028237Y-79586763D01*
X61028237Y-79586763D02*
X62358237Y-79586763D01*
%TO.C,U4*%
X87758237Y-105441763D02*
X87758237Y-94541763D01*
X109558237Y-116341763D02*
X87758237Y-116341763D01*
X87758237Y-94541763D01*
X109558237Y-94541763D01*
X109558237Y-116341763D01*
%TO.C,U3*%
X81308237Y-84031763D02*
X85068237Y-84031763D01*
X81308237Y-90851763D02*
X85068237Y-90851763D01*
X85068237Y-84031763D02*
X85068237Y-85291763D01*
X85068237Y-90851763D02*
X85068237Y-89591763D01*
X80028237Y-84131763D02*
X79788237Y-83801763D01*
X80268237Y-83801763D01*
X80028237Y-84131763D01*
G36*
X80028237Y-84131763D02*
G01*
X79788237Y-83801763D01*
X80268237Y-83801763D01*
X80028237Y-84131763D01*
G37*
%TO.C,SW2*%
X63158237Y-117691763D02*
X69158237Y-117691763D01*
X69158237Y-114191763D01*
X63158237Y-114191763D01*
X63158237Y-117691763D01*
X67633237Y-116666763D02*
X64683237Y-116666763D01*
X64683237Y-115216763D01*
X67633237Y-115216763D01*
X67633237Y-116666763D01*
%TO.C,NPN*%
X82998237Y-109041763D02*
X84858237Y-109041763D01*
X83058237Y-112341763D02*
X84858237Y-112341763D01*
X84858237Y-109041763D02*
X84858237Y-110091763D01*
X84858237Y-112341763D02*
X84858237Y-111291763D01*
X82548237Y-109080087D02*
X82308237Y-108750087D01*
X82788237Y-108750087D01*
X82548237Y-109080087D01*
G36*
X82548237Y-109080087D02*
G01*
X82308237Y-108750087D01*
X82788237Y-108750087D01*
X82548237Y-109080087D01*
G37*
%TO.C,SW1*%
X63158237Y-113191763D02*
X69158237Y-113191763D01*
X69158237Y-109691763D01*
X63158237Y-109691763D01*
X63158237Y-113191763D01*
X67633237Y-112166763D02*
X64683237Y-112166763D01*
X64683237Y-110716763D01*
X67633237Y-110716763D01*
X67633237Y-112166763D01*
%TO.C,C1*%
X62923237Y-95203015D02*
X62923237Y-94680511D01*
X64393237Y-95203015D02*
X64393237Y-94680511D01*
%TO.C,PNP*%
X92978237Y-80281763D02*
X94388237Y-80281763D01*
X92978237Y-82601763D02*
X94388237Y-82601763D01*
X94388237Y-80281763D02*
X94388237Y-80941763D01*
X94388237Y-81941763D02*
X94388237Y-82601763D01*
X92608237Y-80301763D02*
X92368237Y-79971763D01*
X92848237Y-79971763D01*
X92608237Y-80301763D01*
G36*
X92608237Y-80301763D02*
G01*
X92368237Y-79971763D01*
X92848237Y-79971763D01*
X92608237Y-80301763D01*
G37*
%TO.C,SW4*%
X63158237Y-109191763D02*
X69158237Y-109191763D01*
X69158237Y-105691763D01*
X63158237Y-105691763D01*
X63158237Y-109191763D01*
X67633237Y-108166763D02*
X64683237Y-108166763D01*
X64683237Y-106716763D01*
X67633237Y-106716763D01*
X67633237Y-108166763D01*
%TO.C,C3*%
X67923237Y-95203015D02*
X67923237Y-94680511D01*
X69393237Y-95203015D02*
X69393237Y-94680511D01*
%TD*%
%LPC*%
D12*
%TO.C,NPN*%
X92458237Y-76991763D03*
X92458237Y-78891763D03*
X94858237Y-77941763D03*
%TD*%
D13*
%TO.C,SW5*%
X59658237Y-108191763D03*
X59658237Y-114691763D03*
%TD*%
D14*
%TO.C,C2*%
X66158237Y-95891763D03*
X66158237Y-93991763D03*
%TD*%
D13*
%TO.C,SW3*%
X72658237Y-108191763D03*
X72658237Y-114691763D03*
%TD*%
D15*
%TO.C,PNP*%
X82908237Y-113791763D03*
X82908237Y-115091763D03*
X84908237Y-114441763D03*
%TD*%
D16*
%TO.C,U1*%
X79258237Y-77141763D03*
D17*
X78713237Y-80176763D03*
X79983237Y-80176763D03*
X81253237Y-80176763D03*
X82523237Y-80176763D03*
X83793237Y-80176763D03*
X85063237Y-80176763D03*
X86333237Y-80176763D03*
X87603237Y-80176763D03*
D18*
X89893237Y-77886763D03*
X89893237Y-76616763D03*
X89893237Y-75346763D03*
X89893237Y-74076763D03*
X89893237Y-72806763D03*
X89893237Y-71536763D03*
X89893237Y-70266763D03*
X89893237Y-68996763D03*
D17*
X87603237Y-66706763D03*
X86333237Y-66706763D03*
X85063237Y-66706763D03*
X83793237Y-66706763D03*
X82523237Y-66706763D03*
X81253237Y-66706763D03*
X79983237Y-66706763D03*
X78713237Y-66706763D03*
D18*
X76423237Y-68996763D03*
X76423237Y-70266763D03*
X76423237Y-71536763D03*
X76423237Y-72806763D03*
X76423237Y-74076763D03*
X76423237Y-75346763D03*
D19*
X76323237Y-76616763D03*
X76323237Y-77886763D03*
%TD*%
D14*
%TO.C,C4*%
X71158237Y-95891763D03*
X71158237Y-93991763D03*
%TD*%
%TO.C,C5*%
X73600000Y-95950000D03*
X73600000Y-94050000D03*
%TD*%
D20*
%TO.C,U2*%
X69978237Y-80916763D03*
X67438237Y-80916763D03*
X64898237Y-80916763D03*
D21*
X62358237Y-80916763D03*
%TD*%
D22*
%TO.C,U4*%
X90158237Y-112441763D03*
X90158236Y-110441763D03*
X92158236Y-112441763D03*
X92158237Y-110441763D03*
X94158237Y-112441763D03*
X94158237Y-110441762D03*
X96158238Y-112441763D03*
X96158237Y-110441763D03*
%TD*%
D23*
%TO.C,U3*%
X80008237Y-85141763D03*
X80008237Y-87441763D03*
D24*
X86308237Y-87441763D03*
D23*
X80008237Y-89741763D03*
%TD*%
D25*
%TO.C,SW2*%
X69408237Y-115941763D03*
X62908237Y-115941763D03*
%TD*%
D12*
%TO.C,NPN*%
X82708237Y-109741763D03*
X82708237Y-111641763D03*
X85108237Y-110691763D03*
%TD*%
D25*
%TO.C,SW1*%
X69408237Y-111441763D03*
X62908237Y-111441763D03*
%TD*%
D14*
%TO.C,C1*%
X63658237Y-95891763D03*
X63658237Y-93991763D03*
%TD*%
D15*
%TO.C,PNP*%
X92658237Y-80791763D03*
X92658237Y-82091763D03*
X94658237Y-81441763D03*
%TD*%
D25*
%TO.C,SW4*%
X69408237Y-107441763D03*
X62908237Y-107441763D03*
%TD*%
D14*
%TO.C,C3*%
X68658237Y-95891763D03*
X68658237Y-93991763D03*
%TD*%
D26*
%TO.C,SW6*%
X93890470Y-68709530D03*
X95658237Y-66941763D03*
X97426004Y-65173996D03*
%TD*%
D27*
%TO.C,J2*%
X95574517Y-73080583D03*
D28*
X97370568Y-74876634D03*
X99166619Y-76672685D03*
X100962671Y-78468737D03*
X102758722Y-80264788D03*
X104554773Y-82060839D03*
%TD*%
%LPD*%
M02*
