M48
; DRILL file {KiCad 8.0.1} date 2024-06-09T16:01:48+0900
; FORMAT={-:-/ absolute / inch / decimal}
; #@! TF.CreationDate,2024-06-09T16:01:48+09:00
; #@! TF.GenerationSoftware,Kicad,Pcbnew,8.0.1
; #@! TF.FileFunction,Plated,1,2,PTH
FMAT,2
INCH
; #@! TA.AperFunction,Plated,PTH,ViaDrill
T1C0.0118
; #@! TA.AperFunction,Plated,PTH,ComponentDrill
T2C0.0276
; #@! TA.AperFunction,Plated,PTH,ComponentDrill
T3C0.0315
; #@! TA.AperFunction,Plated,PTH,ComponentDrill
T4C0.0394
%
G90
G05
T1
X-0.2362Y0.0541
X-0.1969Y0.1476
X-0.1969Y0.0246
X-0.1772Y0.6299
X-0.1772Y0.4528
X-0.1772Y0.2756
X0.029Y0.4384
X0.0591Y0.0197
X0.1344Y0.1378
X0.1934Y0.1378
X0.2974Y0.5962
X0.315Y0.5315
X0.315Y0.4921
X0.315Y0.4528
X0.315Y0.4134
X0.315Y0.374
X0.315Y0.3346
X0.315Y0.2953
X0.315Y0.2559
X0.315Y0.2165
X0.3346Y0.968
X0.3543Y0.6102
X0.3543Y0.5709
X0.3543Y0.5315
X0.3543Y0.4921
X0.3543Y0.4528
X0.3543Y0.4134
X0.3543Y0.374
X0.3543Y0.3346
X0.3543Y0.2953
X0.3543Y0.2559
X0.3543Y0.2165
X0.3937Y0.6102
X0.3937Y0.5709
X0.3937Y0.5315
X0.3937Y0.4921
X0.3937Y0.4528
X0.3937Y0.4134
X0.3937Y0.374
X0.3937Y0.3346
X0.3937Y0.2953
X0.3937Y0.2559
X0.3937Y0.2165
X0.4331Y0.6102
X0.4331Y0.5709
X0.4331Y0.5315
X0.4331Y0.4921
X0.4331Y0.4528
X0.4331Y0.4134
X0.4331Y0.374
X0.4331Y0.3346
X0.4331Y0.2953
X0.4331Y0.2559
X0.4331Y0.2165
X0.4724Y0.6102
X0.4724Y0.5709
X0.4724Y0.5315
X0.4724Y0.4921
X0.4724Y0.4528
X0.4724Y0.4134
X0.4724Y0.374
X0.4724Y0.3346
X0.4724Y0.2953
X0.4724Y0.2559
X0.4724Y0.2165
X0.5118Y0.6102
X0.5118Y0.5709
X0.5118Y0.5315
X0.5118Y0.4921
X0.5118Y0.4528
X0.5118Y0.4134
X0.5118Y0.374
X0.5118Y0.3346
X0.5118Y0.2953
X0.5118Y0.2559
X0.5512Y0.4528
X0.5512Y0.4134
X0.5512Y0.374
X0.5512Y0.3346
X0.5512Y0.2953
X0.5512Y0.2559
X0.5906Y0.4528
X0.5906Y0.4134
X0.5906Y0.374
X0.5906Y0.3346
X0.5906Y0.2953
X0.5906Y0.2559
X0.6299Y0.4528
X0.6299Y0.4134
X0.6299Y0.374
X0.6299Y0.3346
X0.6299Y0.2953
X0.6299Y0.2559
X0.6496Y-0.0394
X0.6693Y0.4528
X0.6693Y0.4134
X0.6693Y0.374
X0.6693Y0.3346
X0.6693Y0.2953
X0.6693Y0.2559
X0.7241Y0.0548
X0.8878Y-0.1575
X0.9646Y0.0394
T2
X0.0959Y0.5884
X0.0959Y0.5384
X0.0959Y0.4884
X0.0959Y0.4384
X0.0959Y0.3884
X0.0959Y0.3384
X0.0959Y0.2884
X0.0959Y0.2384
X0.2974Y0.7899
X0.2974Y0.0369
X0.3474Y0.7899
X0.3474Y0.0369
X0.3974Y0.7899
X0.3974Y0.0369
X0.4474Y0.7899
X0.4474Y0.0369
X0.4974Y0.7899
X0.4974Y0.0369
X0.5474Y0.7899
X0.5474Y0.0369
X0.5974Y0.7899
X0.5974Y0.0369
X0.6474Y0.7899
X0.6474Y0.0369
X0.849Y0.5884
X0.849Y0.5384
X0.849Y0.4884
X0.849Y0.4384
X0.849Y0.3884
X0.849Y0.3384
X0.849Y0.2884
X0.849Y0.2384
T3
X-0.9055Y0.3878
X-0.8071Y0.3878
X-0.8071Y-0.0197
X-0.8071Y-0.0984
X-0.8071Y-0.1772
X-0.8071Y-0.2559
X-0.7283Y-0.0197
X-0.7283Y-0.0984
X-0.7283Y-0.1772
X-0.7283Y-0.2559
T4
X-0.15Y1.0827
X-0.05Y1.0827
X0.05Y1.0827
X0.15Y1.0827
X1.0236Y0.3
X1.0236Y0.2
X1.0236Y0.1
X1.0236Y0.0
X1.0236Y-0.1
X1.0236Y-0.2
X1.0236Y-0.3
T3
G00X0.1713Y-0.3051
M15
G01X0.1437Y-0.3051
M16
G05
G00X0.1713Y-0.561
M15
G01X0.1437Y-0.561
M16
G05
G00X0.3445Y-0.1713
M15
G01X0.3445Y-0.1437
M16
G05
G00X0.3445Y-0.4469
M15
G01X0.3445Y-0.4193
M16
G05
G00X0.3445Y-0.7224
M15
G01X0.3445Y-0.6949
M16
G05
G00X0.6004Y-0.1713
M15
G01X0.6004Y-0.1437
M16
G05
G00X0.6004Y-0.4469
M15
G01X0.6004Y-0.4193
M16
G05
G00X0.6004Y-0.7224
M15
G01X0.6004Y-0.6949
M16
G05
G00X0.8012Y-0.3051
M15
G01X0.7736Y-0.3051
M16
G05
G00X0.8012Y-0.561
M15
G01X0.7736Y-0.561
M16
G05
T4
G00X-0.4193Y0.8799
M15
G01X-0.5256Y0.8799
M16
G05
G00X-0.4193Y-0.8799
M15
G01X-0.5256Y-0.8799
M16
G05
G00X-0.0531Y0.8799
M15
G01X0.0531Y0.8799
M16
G05
G00X-0.0531Y-0.8799
M15
G01X0.0531Y-0.8799
M16
G05
G00X0.5256Y0.8799
M15
G01X0.4193Y0.8799
M16
G05
G00X0.5256Y-0.8799
M15
G01X0.4193Y-0.8799
M16
G05
M30
