%TF.GenerationSoftware,KiCad,Pcbnew,8.0.1*%
%TF.CreationDate,2024-06-30T14:52:12+09:00*%
%TF.ProjectId,main,6d61696e-2e6b-4696-9361-645f70636258,rev?*%
%TF.SameCoordinates,Original*%
%TF.FileFunction,Legend,Bot*%
%TF.FilePolarity,Positive*%
%FSLAX46Y46*%
G04 Gerber Fmt 4.6, Leading zero omitted, Abs format (unit mm)*
G04 Created by KiCad (PCBNEW 8.0.1) date 2024-06-30 14:52:12*
%MOMM*%
%LPD*%
G01*
G04 APERTURE LIST*
G04 Aperture macros list*
%AMRoundRect*
0 Rectangle with rounded corners*
0 $1 Rounding radius*
0 $2 $3 $4 $5 $6 $7 $8 $9 X,Y pos of 4 corners*
0 Add a 4 corners polygon primitive as box body*
4,1,4,$2,$3,$4,$5,$6,$7,$8,$9,$2,$3,0*
0 Add four circle primitives for the rounded corners*
1,1,$1+$1,$2,$3*
1,1,$1+$1,$4,$5*
1,1,$1+$1,$6,$7*
1,1,$1+$1,$8,$9*
0 Add four rect primitives between the rounded corners*
20,1,$1+$1,$2,$3,$4,$5,0*
20,1,$1+$1,$4,$5,$6,$7,0*
20,1,$1+$1,$6,$7,$8,$9,0*
20,1,$1+$1,$8,$9,$2,$3,0*%
%AMHorizOval*
0 Thick line with rounded ends*
0 $1 width*
0 $2 $3 position (X,Y) of the first rounded end (center of the circle)*
0 $4 $5 position (X,Y) of the second rounded end (center of the circle)*
0 Add line between two ends*
20,1,$1,$2,$3,$4,$5,0*
0 Add two circle primitives to create the rounded ends*
1,1,$1,$2,$3*
1,1,$1,$4,$5*%
%AMFreePoly0*
4,1,19,0.500000,-0.750000,0.000000,-0.750000,0.000000,-0.744911,-0.071157,-0.744911,-0.207708,-0.704816,-0.327430,-0.627875,-0.420627,-0.520320,-0.479746,-0.390866,-0.500000,-0.250000,-0.500000,0.250000,-0.479746,0.390866,-0.420627,0.520320,-0.327430,0.627875,-0.207708,0.704816,-0.071157,0.744911,0.000000,0.744911,0.000000,0.750000,0.500000,0.750000,0.500000,-0.750000,0.500000,-0.750000,
$1*%
%AMFreePoly1*
4,1,19,0.000000,0.744911,0.071157,0.744911,0.207708,0.704816,0.327430,0.627875,0.420627,0.520320,0.479746,0.390866,0.500000,0.250000,0.500000,-0.250000,0.479746,-0.390866,0.420627,-0.520320,0.327430,-0.627875,0.207708,-0.704816,0.071157,-0.744911,0.000000,-0.744911,0.000000,-0.750000,-0.500000,-0.750000,-0.500000,0.750000,0.000000,0.750000,0.000000,0.744911,0.000000,0.744911,
$1*%
G04 Aperture macros list end*
%ADD10C,0.150000*%
%ADD11C,0.120000*%
%ADD12R,1.000000X1.000000*%
%ADD13O,1.000000X1.000000*%
%ADD14C,3.200000*%
%ADD15O,1.400000X2.100000*%
%ADD16O,2.100000X1.400000*%
%ADD17R,1.350000X1.350000*%
%ADD18C,1.350000*%
%ADD19R,1.700000X1.700000*%
%ADD20O,1.700000X1.700000*%
%ADD21HorizOval,3.100000X-0.424264X-0.424264X0.424264X0.424264X0*%
%ADD22R,1.600000X1.600000*%
%ADD23C,1.600000*%
%ADD24O,4.500000X1.800000*%
%ADD25FreePoly0,270.000000*%
%ADD26FreePoly1,270.000000*%
%ADD27RoundRect,0.250000X0.450000X-0.262500X0.450000X0.262500X-0.450000X0.262500X-0.450000X-0.262500X0*%
%ADD28FreePoly0,0.000000*%
%ADD29FreePoly1,0.000000*%
%ADD30RoundRect,0.150000X-0.587500X-0.150000X0.587500X-0.150000X0.587500X0.150000X-0.587500X0.150000X0*%
%ADD31RoundRect,0.150000X-0.512500X-0.150000X0.512500X-0.150000X0.512500X0.150000X-0.512500X0.150000X0*%
%ADD32RoundRect,0.250000X-0.262500X-0.450000X0.262500X-0.450000X0.262500X0.450000X-0.262500X0.450000X0*%
G04 APERTURE END LIST*
D10*
G36*
X23711580Y15407291D02*
G01*
X23667616Y15671806D01*
X23620945Y15657304D01*
X23571921Y15634979D01*
X23528741Y15606834D01*
X23491405Y15572869D01*
X23468314Y15545044D01*
X23441286Y15500283D01*
X23420897Y15448066D01*
X23408704Y15397373D01*
X23401388Y15341202D01*
X23399017Y15290208D01*
X23398949Y15279552D01*
X23400690Y15220552D01*
X23405914Y15166895D01*
X23414620Y15118581D01*
X23429664Y15067656D01*
X23453553Y15017968D01*
X23470268Y14994277D01*
X23508111Y14955808D01*
X23550563Y14928331D01*
X23597626Y14911845D01*
X23649298Y14906349D01*
X23698563Y14912275D01*
X23747289Y14931910D01*
X23763604Y14942253D01*
X23803182Y14977232D01*
X23833396Y15016213D01*
X23853485Y15049964D01*
X23868244Y15001303D01*
X23887435Y14960815D01*
X23918577Y14921259D01*
X23957292Y14890210D01*
X23969745Y14882902D01*
X24017984Y14863868D01*
X24069558Y14855738D01*
X24091133Y14855058D01*
X24140445Y14858710D01*
X24188635Y14869664D01*
X24235705Y14887922D01*
X24261371Y14901220D01*
X24304165Y14930256D01*
X24341046Y14965706D01*
X24372016Y15007570D01*
X24386667Y15033600D01*
X24405901Y15080235D01*
X24419640Y15133678D01*
X24427153Y15186026D01*
X24430245Y15235045D01*
X24430631Y15260990D01*
X24429506Y15310429D01*
X24425350Y15362964D01*
X24416852Y15416220D01*
X24402510Y15467485D01*
X24398635Y15477633D01*
X24375599Y15524502D01*
X24346791Y15565885D01*
X24312210Y15601782D01*
X24304602Y15608303D01*
X24262751Y15637894D01*
X24214747Y15662857D01*
X24166282Y15681368D01*
X24149019Y15686705D01*
X24118000Y15407291D01*
X24164860Y15392442D01*
X24206338Y15366636D01*
X24215942Y15356245D01*
X24237863Y15311079D01*
X24243053Y15267829D01*
X24234520Y15219296D01*
X24206607Y15176638D01*
X24204218Y15174284D01*
X24161946Y15147286D01*
X24112325Y15137001D01*
X24100415Y15136670D01*
X24051594Y15142636D01*
X24007583Y15164346D01*
X23998077Y15172818D01*
X23970783Y15215194D01*
X23961720Y15266679D01*
X23961685Y15270515D01*
X23967791Y15321368D01*
X23977316Y15361129D01*
X23771175Y15346719D01*
X23774106Y15310327D01*
X23766596Y15259952D01*
X23744064Y15218736D01*
X23704515Y15187942D01*
X23672990Y15181855D01*
X23624664Y15196113D01*
X23610219Y15209455D01*
X23589327Y15254299D01*
X23586528Y15284926D01*
X23595338Y15334831D01*
X23614371Y15365526D01*
X23655552Y15392640D01*
X23703043Y15405840D01*
X23711580Y15407291D01*
G37*
G36*
X24133632Y14718038D02*
G01*
X24133632Y14419329D01*
X24415000Y14419329D01*
X24415000Y14718038D01*
X24133632Y14718038D01*
G37*
G36*
X23711580Y14008268D02*
G01*
X23667616Y14272783D01*
X23620945Y14258280D01*
X23571921Y14235956D01*
X23528741Y14207811D01*
X23491405Y14173846D01*
X23468314Y14146021D01*
X23441286Y14101260D01*
X23420897Y14049043D01*
X23408704Y13998350D01*
X23401388Y13942179D01*
X23399017Y13891185D01*
X23398949Y13880529D01*
X23400690Y13821529D01*
X23405914Y13767872D01*
X23414620Y13719558D01*
X23429664Y13668633D01*
X23453553Y13618945D01*
X23470268Y13595254D01*
X23508111Y13556785D01*
X23550563Y13529308D01*
X23597626Y13512822D01*
X23649298Y13507326D01*
X23698563Y13513252D01*
X23747289Y13532887D01*
X23763604Y13543230D01*
X23803182Y13578209D01*
X23833396Y13617190D01*
X23853485Y13650941D01*
X23868244Y13602280D01*
X23887435Y13561792D01*
X23918577Y13522236D01*
X23957292Y13491187D01*
X23969745Y13483879D01*
X24017984Y13464845D01*
X24069558Y13456715D01*
X24091133Y13456035D01*
X24140445Y13459687D01*
X24188635Y13470641D01*
X24235705Y13488899D01*
X24261371Y13502197D01*
X24304165Y13531233D01*
X24341046Y13566683D01*
X24372016Y13608547D01*
X24386667Y13634577D01*
X24405901Y13681212D01*
X24419640Y13734655D01*
X24427153Y13787003D01*
X24430245Y13836022D01*
X24430631Y13861967D01*
X24429506Y13911406D01*
X24425350Y13963941D01*
X24416852Y14017197D01*
X24402510Y14068462D01*
X24398635Y14078610D01*
X24375599Y14125479D01*
X24346791Y14166862D01*
X24312210Y14202759D01*
X24304602Y14209280D01*
X24262751Y14238871D01*
X24214747Y14263834D01*
X24166282Y14282345D01*
X24149019Y14287682D01*
X24118000Y14008268D01*
X24164860Y13993419D01*
X24206338Y13967613D01*
X24215942Y13957222D01*
X24237863Y13912056D01*
X24243053Y13868806D01*
X24234520Y13820273D01*
X24206607Y13777615D01*
X24204218Y13775261D01*
X24161946Y13748263D01*
X24112325Y13737978D01*
X24100415Y13737647D01*
X24051594Y13743613D01*
X24007583Y13765323D01*
X23998077Y13773795D01*
X23970783Y13816171D01*
X23961720Y13867656D01*
X23961685Y13871492D01*
X23967791Y13922344D01*
X23977316Y13962106D01*
X23771175Y13947696D01*
X23774106Y13911304D01*
X23766596Y13860929D01*
X23744064Y13819713D01*
X23704515Y13788919D01*
X23672990Y13782832D01*
X23624664Y13797090D01*
X23610219Y13810432D01*
X23589327Y13855276D01*
X23586528Y13885903D01*
X23595338Y13935808D01*
X23614371Y13966503D01*
X23655552Y13993617D01*
X23703043Y14006817D01*
X23711580Y14008268D01*
G37*
G36*
X23414581Y13400836D02*
G01*
X23414581Y13075261D01*
X24134609Y12848603D01*
X23414581Y12625365D01*
X23414581Y12309315D01*
X24415000Y12683007D01*
X24415000Y13020306D01*
X23414581Y13400836D01*
G37*
G36*
X23414581Y8576552D02*
G01*
X23414581Y8250976D01*
X24134609Y8024319D01*
X23414581Y7801081D01*
X23414581Y7485030D01*
X24415000Y7858722D01*
X24415000Y8196021D01*
X23414581Y8576552D01*
G37*
G36*
X24415000Y6850732D02*
G01*
X24413007Y6814977D01*
X24407681Y6764762D01*
X24400833Y6711269D01*
X24397235Y6687517D01*
X24386021Y6638493D01*
X24366884Y6593056D01*
X24340904Y6556142D01*
X24306266Y6521599D01*
X24265279Y6493404D01*
X24223557Y6474213D01*
X24174027Y6461312D01*
X24120687Y6457012D01*
X24102436Y6457463D01*
X24051238Y6464225D01*
X24000605Y6481255D01*
X23956556Y6508303D01*
X23933449Y6529472D01*
X23903844Y6568825D01*
X23880306Y6617297D01*
X23864476Y6668038D01*
X23854999Y6642496D01*
X23832491Y6598623D01*
X23800240Y6559594D01*
X23792513Y6552851D01*
X23751044Y6525660D01*
X23704853Y6509345D01*
X23653939Y6503907D01*
X23616988Y6506646D01*
X23565875Y6521027D01*
X23519941Y6547733D01*
X23483457Y6581820D01*
X23467314Y6602356D01*
X23441486Y6649769D01*
X23425948Y6698194D01*
X23417002Y6753093D01*
X23414581Y6805303D01*
X23414581Y7073970D01*
X23617791Y7073970D01*
X23617791Y6936461D01*
X23617813Y6932090D01*
X23622045Y6882739D01*
X23640017Y6837298D01*
X23653891Y6823485D01*
X23701810Y6808722D01*
X23724269Y6810982D01*
X23767267Y6837298D01*
X23768650Y6839128D01*
X23786029Y6886818D01*
X23789738Y6938659D01*
X23789738Y7073970D01*
X23977316Y7073970D01*
X23977316Y6915945D01*
X23977740Y6896260D01*
X23984094Y6846457D01*
X24004427Y6801639D01*
X24027050Y6781695D01*
X24075746Y6768910D01*
X24111457Y6774352D01*
X24152194Y6801883D01*
X24163234Y6818576D01*
X24177179Y6865566D01*
X24180526Y6915212D01*
X24180526Y7073970D01*
X23977316Y7073970D01*
X23789738Y7073970D01*
X23617791Y7073970D01*
X23414581Y7073970D01*
X23414581Y7387822D01*
X24415000Y7387822D01*
X24415000Y6850732D01*
G37*
G36*
X23414581Y5681053D02*
G01*
X23414581Y5370620D01*
X24009801Y5370620D01*
X24058762Y5372823D01*
X24111350Y5380436D01*
X24162031Y5393488D01*
X24176863Y5398464D01*
X24224108Y5418943D01*
X24267538Y5445576D01*
X24307151Y5478363D01*
X24314616Y5485658D01*
X24347970Y5523325D01*
X24376726Y5566081D01*
X24397170Y5610222D01*
X24411809Y5657911D01*
X24422266Y5710118D01*
X24427984Y5759505D01*
X24430500Y5812352D01*
X24430631Y5828087D01*
X24429419Y5880217D01*
X24426213Y5930363D01*
X24421004Y5983133D01*
X24420373Y5988554D01*
X24412006Y6039979D01*
X24398284Y6090155D01*
X24379829Y6133635D01*
X24353542Y6176041D01*
X24320111Y6215700D01*
X24293855Y6240613D01*
X24254998Y6270253D01*
X24211687Y6294359D01*
X24178572Y6306803D01*
X24126711Y6320735D01*
X24078289Y6330107D01*
X24028520Y6335173D01*
X24009801Y6335624D01*
X23414581Y6335624D01*
X23414581Y6025191D01*
X24022745Y6025191D01*
X24074616Y6019794D01*
X24121591Y6001596D01*
X24150240Y5979517D01*
X24179970Y5936563D01*
X24193961Y5886537D01*
X24196158Y5852755D01*
X24190819Y5801609D01*
X24172815Y5755161D01*
X24150973Y5726726D01*
X24108012Y5697154D01*
X24057265Y5683238D01*
X24022745Y5681053D01*
X23414581Y5681053D01*
G37*
G36*
X24074769Y5225051D02*
G01*
X24055474Y4929029D01*
X24106547Y4919068D01*
X24153544Y4900329D01*
X24169535Y4889950D01*
X24205551Y4851993D01*
X24226617Y4804281D01*
X24232794Y4752441D01*
X24227715Y4703344D01*
X24207519Y4656862D01*
X24202020Y4649859D01*
X24161945Y4619677D01*
X24130457Y4613711D01*
X24083383Y4628543D01*
X24061580Y4648150D01*
X24037339Y4690928D01*
X24021217Y4738111D01*
X24007341Y4792119D01*
X24003939Y4807396D01*
X23992169Y4856733D01*
X23976127Y4913252D01*
X23958605Y4964047D01*
X23939605Y5009118D01*
X23914852Y5055646D01*
X23883283Y5099511D01*
X23848277Y5133771D01*
X23803405Y5162622D01*
X23753343Y5180483D01*
X23698091Y5187352D01*
X23690819Y5187438D01*
X23638936Y5182128D01*
X23589072Y5166196D01*
X23545495Y5142497D01*
X23505615Y5109973D01*
X23471459Y5068576D01*
X23445613Y5023732D01*
X23438028Y5007187D01*
X23420931Y4957819D01*
X23409978Y4907760D01*
X23402766Y4851297D01*
X23399560Y4797802D01*
X23398949Y4759524D01*
X23400679Y4701399D01*
X23405866Y4647769D01*
X23414513Y4598635D01*
X23429453Y4545610D01*
X23449374Y4499059D01*
X23469780Y4465212D01*
X23504765Y4424793D01*
X23547745Y4392229D01*
X23598718Y4367519D01*
X23648773Y4352589D01*
X23694972Y4344556D01*
X23711580Y4637892D01*
X23664281Y4651650D01*
X23622226Y4680203D01*
X23616325Y4686984D01*
X23593977Y4731498D01*
X23586644Y4782167D01*
X23586528Y4790299D01*
X23592938Y4840396D01*
X23609242Y4872120D01*
X23650697Y4898167D01*
X23664441Y4899476D01*
X23707184Y4876761D01*
X23729440Y4829390D01*
X23742520Y4777555D01*
X23743576Y4772469D01*
X23754407Y4723293D01*
X23768009Y4666909D01*
X23781684Y4616179D01*
X23798187Y4562764D01*
X23817571Y4510735D01*
X23831503Y4480355D01*
X23858208Y4434446D01*
X23891868Y4392410D01*
X23929725Y4359819D01*
X23941901Y4351883D01*
X23989086Y4328939D01*
X24039965Y4315519D01*
X24089424Y4311583D01*
X24142120Y4315833D01*
X24192498Y4328585D01*
X24240558Y4349837D01*
X24266256Y4365317D01*
X24308639Y4398785D01*
X24344841Y4439016D01*
X24371830Y4480453D01*
X24388866Y4515037D01*
X24407138Y4566176D01*
X24418844Y4616081D01*
X24426552Y4670801D01*
X24429978Y4721537D01*
X24430631Y4757326D01*
X24429063Y4819093D01*
X24424357Y4875921D01*
X24416515Y4927812D01*
X24402300Y4985730D01*
X24383184Y5035932D01*
X24353775Y5085989D01*
X24330247Y5113188D01*
X24290605Y5147260D01*
X24247151Y5175287D01*
X24199885Y5197269D01*
X24148805Y5213206D01*
X24093914Y5223097D01*
X24074769Y5225051D01*
G37*
G36*
X28815000Y4257570D02*
G01*
X28408579Y4257570D01*
X28408579Y4229971D01*
X28411842Y4199334D01*
X28431782Y4153767D01*
X28464979Y4123774D01*
X28508963Y4097347D01*
X28815000Y3931262D01*
X28815000Y3579552D01*
X28527526Y3730006D01*
X28504525Y3743784D01*
X28464511Y3773725D01*
X28445765Y3789006D01*
X28410778Y3823307D01*
X28392154Y3856279D01*
X28373408Y3904395D01*
X28370405Y3891649D01*
X28355701Y3842419D01*
X28333841Y3795219D01*
X28313615Y3765635D01*
X28277951Y3727556D01*
X28235900Y3697033D01*
X28191711Y3676592D01*
X28142097Y3664635D01*
X28092285Y3661129D01*
X28074634Y3661541D01*
X28024748Y3667724D01*
X27974712Y3683294D01*
X27930352Y3708024D01*
X27892804Y3740066D01*
X27861034Y3781980D01*
X27839249Y3830878D01*
X27836262Y3840670D01*
X27825205Y3891320D01*
X27818652Y3945393D01*
X27815448Y3999695D01*
X27814581Y4051429D01*
X27814581Y4257570D01*
X28017791Y4257570D01*
X28017791Y4120794D01*
X28018018Y4105290D01*
X28023480Y4052849D01*
X28043681Y4004779D01*
X28068424Y3984695D01*
X28117930Y3973760D01*
X28129946Y3974447D01*
X28176060Y3993300D01*
X28183457Y3999686D01*
X28207323Y4043858D01*
X28213935Y4075075D01*
X28221001Y4126412D01*
X28221001Y4257570D01*
X28017791Y4257570D01*
X27814581Y4257570D01*
X27814581Y4569957D01*
X28815000Y4569957D01*
X28815000Y4257570D01*
G37*
G36*
X27798949Y2897138D02*
G01*
X28815000Y2897138D01*
X28815000Y3180215D01*
X28149682Y3180215D01*
X28180980Y3222681D01*
X28208319Y3264288D01*
X28233819Y3309064D01*
X28235900Y3313083D01*
X28258251Y3361084D01*
X28278019Y3411383D01*
X28295362Y3462076D01*
X28299159Y3474039D01*
X28064685Y3474039D01*
X28047097Y3422708D01*
X28028221Y3375877D01*
X28004570Y3326926D01*
X27979167Y3284100D01*
X27955997Y3252267D01*
X27922277Y3214959D01*
X27884862Y3181925D01*
X27843753Y3153165D01*
X27798949Y3128680D01*
X27798949Y2897138D01*
G37*
G36*
X27814581Y2593300D02*
G01*
X27814581Y1776551D01*
X28001915Y1776551D01*
X28038285Y1815249D01*
X28075772Y1851473D01*
X28114375Y1885224D01*
X28154094Y1916503D01*
X28194929Y1945308D01*
X28208789Y1954360D01*
X28251754Y1980497D01*
X28296234Y2004869D01*
X28342229Y2027476D01*
X28389738Y2048317D01*
X28438762Y2067394D01*
X28489301Y2084706D01*
X28509940Y2091136D01*
X28559957Y2105147D01*
X28613289Y2117320D01*
X28669935Y2127655D01*
X28719673Y2134865D01*
X28771711Y2140798D01*
X28815000Y2144625D01*
X28815000Y2423551D01*
X28754992Y2414720D01*
X28697458Y2404714D01*
X28642396Y2393532D01*
X28589808Y2381175D01*
X28539692Y2367642D01*
X28492049Y2352934D01*
X28435974Y2332896D01*
X28404183Y2319992D01*
X28351721Y2295848D01*
X28298138Y2267685D01*
X28254464Y2242261D01*
X28210073Y2214264D01*
X28164964Y2183696D01*
X28119138Y2150555D01*
X28072595Y2114842D01*
X28049054Y2096021D01*
X28049054Y2593300D01*
X27814581Y2593300D01*
G37*
G36*
X-1472715Y10085418D02*
G01*
X-1882066Y10085418D01*
X-2040091Y9479207D01*
X-2197383Y10085418D01*
X-2605513Y10085418D01*
X-2605513Y9085000D01*
X-2351256Y9085000D01*
X-2351256Y9852899D01*
X-2154152Y9085000D01*
X-1924075Y9085000D01*
X-1727460Y9852899D01*
X-1727460Y9085000D01*
X-1472715Y9085000D01*
X-1472715Y10085418D01*
G37*
G36*
X-3570516Y9085000D02*
G01*
X-2731054Y9085000D01*
X-2740163Y9139318D01*
X-2754883Y9192210D01*
X-2775212Y9243676D01*
X-2801151Y9293716D01*
X-2818493Y9321671D01*
X-2850469Y9364590D01*
X-2883991Y9402258D01*
X-2923761Y9441655D01*
X-2960077Y9474418D01*
X-3000393Y9508288D01*
X-3044707Y9543264D01*
X-3093022Y9579347D01*
X-3136058Y9611524D01*
X-3178366Y9645201D01*
X-3216300Y9678593D01*
X-3250314Y9715635D01*
X-3275033Y9758296D01*
X-3284752Y9804050D01*
X-3272784Y9853262D01*
X-3250803Y9881475D01*
X-3207045Y9907347D01*
X-3165318Y9913471D01*
X-3116530Y9904801D01*
X-3077634Y9878789D01*
X-3050690Y9834911D01*
X-3036167Y9783116D01*
X-3031961Y9757156D01*
X-2751570Y9780359D01*
X-2760145Y9829481D01*
X-2773151Y9879524D01*
X-2791870Y9928049D01*
X-2812142Y9964274D01*
X-2843126Y10002613D01*
X-2881122Y10034894D01*
X-2926130Y10061117D01*
X-2935973Y10065635D01*
X-2985905Y10082754D01*
X-3038463Y10093268D01*
X-3090762Y10098836D01*
X-3140279Y10100911D01*
X-3157746Y10101050D01*
X-3210766Y10099882D01*
X-3266805Y10095568D01*
X-3316580Y10088074D01*
X-3365795Y10075618D01*
X-3387334Y10067833D01*
X-3435319Y10043766D01*
X-3476387Y10012783D01*
X-3510539Y9974882D01*
X-3516539Y9966472D01*
X-3541397Y9922108D01*
X-3557049Y9874499D01*
X-3563493Y9823647D01*
X-3563678Y9813087D01*
X-3559408Y9763010D01*
X-3546599Y9714169D01*
X-3525250Y9666565D01*
X-3509700Y9640652D01*
X-3477200Y9598490D01*
X-3439722Y9559945D01*
X-3400882Y9525678D01*
X-3355842Y9490278D01*
X-3313573Y9459912D01*
X-3270461Y9430351D01*
X-3229786Y9401618D01*
X-3200488Y9379556D01*
X-3163228Y9347299D01*
X-3133566Y9319473D01*
X-3570516Y9319473D01*
X-3570516Y9085000D01*
G37*
G36*
X-23652477Y-9614581D02*
G01*
X-23943126Y-9614581D01*
X-24322435Y-10178293D01*
X-24322435Y-9614581D01*
X-24615526Y-9614581D01*
X-24615526Y-10615000D01*
X-24322435Y-10615000D01*
X-23945080Y-10054218D01*
X-23945080Y-10615000D01*
X-23652477Y-10615000D01*
X-23652477Y-9614581D01*
G37*
G36*
X-25266732Y-9599482D02*
G01*
X-25208793Y-9603741D01*
X-25154220Y-9612259D01*
X-25103013Y-9625036D01*
X-25055172Y-9642071D01*
X-25010697Y-9663366D01*
X-24959837Y-9695974D01*
X-24914235Y-9735237D01*
X-24897614Y-9752665D01*
X-24860751Y-9799933D01*
X-24830590Y-9852485D01*
X-24811287Y-9898330D01*
X-24796274Y-9947556D01*
X-24785550Y-10000164D01*
X-24779116Y-10056153D01*
X-24776971Y-10115523D01*
X-24777581Y-10147799D01*
X-24781306Y-10199313D01*
X-24790248Y-10257368D01*
X-24804067Y-10311318D01*
X-24822763Y-10361163D01*
X-24846336Y-10406905D01*
X-24864337Y-10434993D01*
X-24899017Y-10479445D01*
X-24937741Y-10517913D01*
X-24980509Y-10550397D01*
X-25027320Y-10576898D01*
X-25056144Y-10589491D01*
X-25102830Y-10605234D01*
X-25153655Y-10617198D01*
X-25208618Y-10625384D01*
X-25257582Y-10629319D01*
X-25309420Y-10630631D01*
X-25330148Y-10630388D01*
X-25380071Y-10627651D01*
X-25436405Y-10620352D01*
X-25488841Y-10608674D01*
X-25537378Y-10592617D01*
X-25589078Y-10568349D01*
X-25616338Y-10552004D01*
X-25660057Y-10519672D01*
X-25698704Y-10482594D01*
X-25732279Y-10440772D01*
X-25760781Y-10394204D01*
X-25774749Y-10365196D01*
X-25792208Y-10318007D01*
X-25805478Y-10266404D01*
X-25814557Y-10210387D01*
X-25818921Y-10160335D01*
X-25820376Y-10107219D01*
X-25820331Y-10102090D01*
X-25509211Y-10102090D01*
X-25508996Y-10122423D01*
X-25505776Y-10178660D01*
X-25497136Y-10235240D01*
X-25480821Y-10287996D01*
X-25454256Y-10332166D01*
X-25443553Y-10343602D01*
X-25402108Y-10373598D01*
X-25351790Y-10391096D01*
X-25298918Y-10396158D01*
X-25281004Y-10395583D01*
X-25231564Y-10386953D01*
X-25184199Y-10365219D01*
X-25144801Y-10330701D01*
X-25137939Y-10322190D01*
X-25112540Y-10275742D01*
X-25097488Y-10223264D01*
X-25090128Y-10168706D01*
X-25088136Y-10115523D01*
X-25088359Y-10096959D01*
X-25091693Y-10045288D01*
X-25100641Y-9992623D01*
X-25117535Y-9942480D01*
X-25145045Y-9898879D01*
X-25156085Y-9887182D01*
X-25197568Y-9856499D01*
X-25246255Y-9838600D01*
X-25296231Y-9833422D01*
X-25314283Y-9833989D01*
X-25364135Y-9842490D01*
X-25411958Y-9863899D01*
X-25451814Y-9897903D01*
X-25458764Y-9906256D01*
X-25484492Y-9951122D01*
X-25499738Y-10000993D01*
X-25507193Y-10052344D01*
X-25509211Y-10102090D01*
X-25820331Y-10102090D01*
X-25820244Y-10092272D01*
X-25817055Y-10034579D01*
X-25809615Y-9980237D01*
X-25797924Y-9929245D01*
X-25781981Y-9881605D01*
X-25756075Y-9826766D01*
X-25723525Y-9777162D01*
X-25684333Y-9732794D01*
X-25666877Y-9716587D01*
X-25619298Y-9680642D01*
X-25566089Y-9651232D01*
X-25519469Y-9632411D01*
X-25469247Y-9617771D01*
X-25415422Y-9607315D01*
X-25357994Y-9601041D01*
X-25296964Y-9598949D01*
X-25266732Y-9599482D01*
G37*
G36*
X-25874598Y-9614581D02*
G01*
X-26820551Y-9614581D01*
X-26820551Y-9849054D01*
X-26503279Y-9849054D01*
X-26503279Y-10615000D01*
X-26192114Y-10615000D01*
X-26192114Y-9849054D01*
X-25874598Y-9849054D01*
X-25874598Y-9614581D01*
G37*
G36*
X-1472715Y5585418D02*
G01*
X-1882066Y5585418D01*
X-2040091Y4979207D01*
X-2197383Y5585418D01*
X-2605513Y5585418D01*
X-2605513Y4585000D01*
X-2351256Y4585000D01*
X-2351256Y5352899D01*
X-2154152Y4585000D01*
X-1924075Y4585000D01*
X-1727460Y5352899D01*
X-1727460Y4585000D01*
X-1472715Y4585000D01*
X-1472715Y5585418D01*
G37*
G36*
X-3022924Y5288419D02*
G01*
X-2758409Y5332383D01*
X-2772912Y5379054D01*
X-2795236Y5428078D01*
X-2823381Y5471258D01*
X-2857347Y5508594D01*
X-2885171Y5531685D01*
X-2929932Y5558713D01*
X-2982150Y5579102D01*
X-3032842Y5591295D01*
X-3089014Y5598611D01*
X-3140008Y5600982D01*
X-3150663Y5601050D01*
X-3209663Y5599309D01*
X-3263320Y5594085D01*
X-3311634Y5585379D01*
X-3362559Y5570335D01*
X-3412247Y5546446D01*
X-3435939Y5529731D01*
X-3474407Y5491888D01*
X-3501884Y5449436D01*
X-3518371Y5402373D01*
X-3523866Y5350701D01*
X-3517940Y5301436D01*
X-3498306Y5252710D01*
X-3487962Y5236395D01*
X-3452983Y5196817D01*
X-3414003Y5166603D01*
X-3380251Y5146514D01*
X-3428913Y5131755D01*
X-3469400Y5112564D01*
X-3508957Y5081422D01*
X-3540005Y5042707D01*
X-3547313Y5030254D01*
X-3566347Y4982015D01*
X-3574477Y4930441D01*
X-3575157Y4908866D01*
X-3571506Y4859554D01*
X-3560551Y4811364D01*
X-3542294Y4764294D01*
X-3528995Y4738628D01*
X-3499959Y4695834D01*
X-3464509Y4658953D01*
X-3422645Y4627983D01*
X-3396615Y4613332D01*
X-3349980Y4594098D01*
X-3296537Y4580359D01*
X-3244189Y4572846D01*
X-3195171Y4569754D01*
X-3169225Y4569368D01*
X-3119786Y4570493D01*
X-3067251Y4574649D01*
X-3013995Y4583147D01*
X-2962730Y4597489D01*
X-2952582Y4601364D01*
X-2905713Y4624400D01*
X-2864330Y4653208D01*
X-2828433Y4687789D01*
X-2821912Y4695397D01*
X-2792321Y4737248D01*
X-2767358Y4785252D01*
X-2748847Y4833717D01*
X-2743510Y4850980D01*
X-3022924Y4881999D01*
X-3037773Y4835139D01*
X-3063580Y4793661D01*
X-3073971Y4784057D01*
X-3119137Y4762136D01*
X-3162387Y4756946D01*
X-3210919Y4765479D01*
X-3253578Y4793392D01*
X-3255932Y4795781D01*
X-3282930Y4838053D01*
X-3293214Y4887674D01*
X-3293545Y4899584D01*
X-3287579Y4948405D01*
X-3265869Y4992416D01*
X-3257397Y5001922D01*
X-3215021Y5029216D01*
X-3163537Y5038279D01*
X-3159700Y5038314D01*
X-3108848Y5032208D01*
X-3069086Y5022683D01*
X-3083496Y5228824D01*
X-3119888Y5225893D01*
X-3170263Y5233403D01*
X-3211479Y5255935D01*
X-3242273Y5295484D01*
X-3248360Y5327009D01*
X-3234102Y5375335D01*
X-3220761Y5389780D01*
X-3175916Y5410672D01*
X-3145290Y5413471D01*
X-3095384Y5404661D01*
X-3064689Y5385628D01*
X-3037575Y5344447D01*
X-3024375Y5296956D01*
X-3022924Y5288419D01*
G37*
G36*
X-23830042Y4385000D02*
G01*
X-24142429Y4385000D01*
X-24142429Y4791420D01*
X-24170028Y4791420D01*
X-24200665Y4788157D01*
X-24246232Y4768217D01*
X-24276225Y4735020D01*
X-24302652Y4691036D01*
X-24468737Y4385000D01*
X-24820447Y4385000D01*
X-24669993Y4672473D01*
X-24656215Y4695474D01*
X-24626274Y4735488D01*
X-24610993Y4754234D01*
X-24576692Y4789221D01*
X-24543720Y4807845D01*
X-24495604Y4826591D01*
X-24508350Y4829594D01*
X-24557580Y4844298D01*
X-24604780Y4866158D01*
X-24634364Y4886384D01*
X-24672443Y4922048D01*
X-24702966Y4964099D01*
X-24723407Y5008288D01*
X-24735364Y5057902D01*
X-24737065Y5082069D01*
X-24426239Y5082069D01*
X-24425552Y5070053D01*
X-24406699Y5023939D01*
X-24400313Y5016542D01*
X-24356141Y4992676D01*
X-24324924Y4986064D01*
X-24273587Y4978998D01*
X-24142429Y4978998D01*
X-24142429Y5182208D01*
X-24279205Y5182208D01*
X-24294709Y5181981D01*
X-24347150Y5176519D01*
X-24395220Y5156318D01*
X-24415304Y5131575D01*
X-24426239Y5082069D01*
X-24737065Y5082069D01*
X-24738870Y5107714D01*
X-24738458Y5125365D01*
X-24732275Y5175251D01*
X-24716705Y5225287D01*
X-24691975Y5269647D01*
X-24659933Y5307195D01*
X-24618019Y5338965D01*
X-24569121Y5360750D01*
X-24559329Y5363737D01*
X-24508679Y5374794D01*
X-24454606Y5381347D01*
X-24400304Y5384551D01*
X-24348570Y5385418D01*
X-23830042Y5385418D01*
X-23830042Y4385000D01*
G37*
G36*
X-25502861Y5401050D02*
G01*
X-25502861Y4385000D01*
X-25219784Y4385000D01*
X-25219784Y5050317D01*
X-25177318Y5019019D01*
X-25135711Y4991680D01*
X-25090935Y4966180D01*
X-25086916Y4964099D01*
X-25038915Y4941748D01*
X-24988616Y4921980D01*
X-24937923Y4904637D01*
X-24925960Y4900840D01*
X-24925960Y5135314D01*
X-24977291Y5152902D01*
X-25024122Y5171778D01*
X-25073073Y5195429D01*
X-25115899Y5220832D01*
X-25147732Y5244002D01*
X-25185040Y5277722D01*
X-25218074Y5315137D01*
X-25246834Y5356246D01*
X-25271319Y5401050D01*
X-25502861Y5401050D01*
G37*
G36*
X-26150763Y5399589D02*
G01*
X-26099151Y5393979D01*
X-26044277Y5382116D01*
X-25995153Y5364527D01*
X-25951780Y5341210D01*
X-25923902Y5321033D01*
X-25884059Y5282363D01*
X-25855601Y5239415D01*
X-25838525Y5192190D01*
X-25832833Y5140687D01*
X-25835413Y5104417D01*
X-25848957Y5054133D01*
X-25874110Y5008796D01*
X-25886638Y4993325D01*
X-25925688Y4959432D01*
X-25970098Y4932836D01*
X-25964768Y4930687D01*
X-25916273Y4906177D01*
X-25876507Y4876181D01*
X-25842847Y4836849D01*
X-25840323Y4832945D01*
X-25817843Y4786474D01*
X-25805822Y4738617D01*
X-25801815Y4685418D01*
X-25802201Y4668397D01*
X-25807997Y4619164D01*
X-25822594Y4567677D01*
X-25845778Y4519577D01*
X-25854378Y4506017D01*
X-25888190Y4465373D01*
X-25929921Y4431742D01*
X-25974250Y4407470D01*
X-26002507Y4396493D01*
X-26055409Y4382800D01*
X-26109461Y4374726D01*
X-26161560Y4370707D01*
X-26218981Y4369368D01*
X-26224284Y4369384D01*
X-26276262Y4371359D01*
X-26326332Y4376626D01*
X-26379205Y4386221D01*
X-26410936Y4394601D01*
X-26459840Y4413153D01*
X-26504990Y4439221D01*
X-26532173Y4461931D01*
X-26564510Y4499604D01*
X-26590231Y4541559D01*
X-26608520Y4583906D01*
X-26620815Y4632746D01*
X-26624913Y4683953D01*
X-26623793Y4697630D01*
X-26343789Y4697630D01*
X-26343634Y4690081D01*
X-26332554Y4638750D01*
X-26303978Y4596758D01*
X-26264401Y4568182D01*
X-26214097Y4556946D01*
X-26210841Y4556985D01*
X-26161871Y4567976D01*
X-26121284Y4596025D01*
X-26114039Y4603594D01*
X-26088500Y4647296D01*
X-26080740Y4696898D01*
X-26081081Y4708843D01*
X-26091700Y4758344D01*
X-26119575Y4799968D01*
X-26161706Y4828728D01*
X-26210433Y4838314D01*
X-26213733Y4838276D01*
X-26263093Y4827147D01*
X-26303489Y4798747D01*
X-26310691Y4791176D01*
X-26336076Y4747399D01*
X-26343789Y4697630D01*
X-26623793Y4697630D01*
X-26620977Y4732029D01*
X-26607557Y4781716D01*
X-26584613Y4828056D01*
X-26579443Y4836107D01*
X-26545175Y4876809D01*
X-26505457Y4908551D01*
X-26462736Y4932836D01*
X-26477669Y4942888D01*
X-26519085Y4976085D01*
X-26553350Y5015390D01*
X-26566465Y5037215D01*
X-26585571Y5086563D01*
X-26589405Y5117972D01*
X-26325227Y5117972D01*
X-26322198Y5093958D01*
X-26294208Y5051538D01*
X-26263961Y5034007D01*
X-26215318Y5025893D01*
X-26174810Y5030166D01*
X-26128367Y5051782D01*
X-26109873Y5071654D01*
X-26095883Y5120170D01*
X-26099635Y5146730D01*
X-26127635Y5187337D01*
X-26161763Y5206096D01*
X-26210433Y5213471D01*
X-26248330Y5209077D01*
X-26292987Y5186849D01*
X-26311342Y5166809D01*
X-26325227Y5117972D01*
X-26589405Y5117972D01*
X-26591940Y5138733D01*
X-26591846Y5145763D01*
X-26584309Y5199290D01*
X-26564712Y5247994D01*
X-26533056Y5291874D01*
X-26495464Y5326311D01*
X-26455576Y5351711D01*
X-26408270Y5371855D01*
X-26353544Y5386744D01*
X-26302272Y5395138D01*
X-26245848Y5399882D01*
X-26197000Y5401050D01*
X-26150763Y5399589D01*
G37*
G36*
X-1472715Y14585418D02*
G01*
X-1882066Y14585418D01*
X-2040091Y13979207D01*
X-2197383Y14585418D01*
X-2605513Y14585418D01*
X-2605513Y13585000D01*
X-2351256Y13585000D01*
X-2351256Y14352899D01*
X-2154152Y13585000D01*
X-1924075Y13585000D01*
X-1727460Y14352899D01*
X-1727460Y13585000D01*
X-1472715Y13585000D01*
X-1472715Y14585418D01*
G37*
G36*
X-3385625Y14601050D02*
G01*
X-3385625Y13585000D01*
X-3102547Y13585000D01*
X-3102547Y14250317D01*
X-3060081Y14219019D01*
X-3018474Y14191680D01*
X-2973698Y14166180D01*
X-2969679Y14164099D01*
X-2921678Y14141748D01*
X-2871380Y14121980D01*
X-2820686Y14104637D01*
X-2808723Y14100840D01*
X-2808723Y14335314D01*
X-2860054Y14352902D01*
X-2906886Y14371778D01*
X-2955836Y14395429D01*
X-2998662Y14420832D01*
X-3030495Y14444002D01*
X-3067804Y14477722D01*
X-3100837Y14515137D01*
X-3129597Y14556246D01*
X-3154082Y14601050D01*
X-3385625Y14601050D01*
G37*
D11*
%TO.C,J2*%
X18444999Y19563427D02*
X17444999Y20063427D01*
X18444999Y20563427D01*
X18444999Y19563427D01*
G36*
X18444999Y19563427D02*
G01*
X17444999Y20063427D01*
X18444999Y20563427D01*
X18444999Y19563427D01*
G37*
%TO.C,J3*%
X2436572Y15945000D02*
X1936572Y16945000D01*
X2936572Y16945000D01*
X2436572Y15945000D01*
G36*
X2436572Y15945000D02*
G01*
X1936572Y16945000D01*
X2936572Y16945000D01*
X2436572Y15945000D01*
G37*
%TO.C,J4*%
X6555000Y936572D02*
X5555000Y436572D01*
X5555000Y1436572D01*
X6555000Y936572D01*
G36*
X6555000Y936572D02*
G01*
X5555000Y436572D01*
X5555000Y1436572D01*
X6555000Y936572D01*
G37*
%TO.C,J5*%
X22063427Y4055000D02*
X21063427Y4055000D01*
X21563427Y5055000D01*
X22063427Y4055000D01*
G36*
X22063427Y4055000D02*
G01*
X21063427Y4055000D01*
X21563427Y5055000D01*
X22063427Y4055000D01*
G37*
%TO.C,U4*%
X-22000000Y-500000D02*
X-23000000Y-1000000D01*
X-23000000Y0D01*
X-22000000Y-500000D01*
G36*
X-22000000Y-500000D02*
G01*
X-23000000Y-1000000D01*
X-23000000Y0D01*
X-22000000Y-500000D01*
G37*
%TO.C,BT2*%
X-5250000Y21250000D02*
X5250000Y21250000D01*
X5250000Y-23250000D01*
X-5250000Y-23250000D01*
X-5250000Y21250000D01*
X-1250000Y-26500000D02*
X1250000Y-26500000D01*
X1250000Y-27000000D01*
X-1250000Y-27000000D01*
X-1250000Y-26500000D01*
G36*
X-1250000Y-26500000D02*
G01*
X1250000Y-26500000D01*
X1250000Y-27000000D01*
X-1250000Y-27000000D01*
X-1250000Y-26500000D01*
G37*
X-250000Y28000000D02*
X250000Y28000000D01*
X250000Y25500000D01*
X-250000Y25500000D01*
X-250000Y28000000D01*
G36*
X-250000Y28000000D02*
G01*
X250000Y28000000D01*
X250000Y25500000D01*
X-250000Y25500000D01*
X-250000Y28000000D01*
G37*
X-250000Y-25500000D02*
X250000Y-25500000D01*
X250000Y-28000000D01*
X-250000Y-28000000D01*
X-250000Y-25500000D01*
G36*
X-250000Y-25500000D02*
G01*
X250000Y-25500000D01*
X250000Y-28000000D01*
X-250000Y-28000000D01*
X-250000Y-25500000D01*
G37*
%TO.C,3.3V        VBUS*%
X23000000Y9800000D02*
X23000000Y11200000D01*
X23700000Y11900000D02*
X24300000Y11900000D01*
X24300000Y9100000D02*
X23700000Y9100000D01*
X25000000Y11200000D02*
X25000000Y9800000D01*
X23000000Y11200000D02*
G75*
G02*
X23700000Y11900000I699999J1D01*
G01*
X23700000Y9100000D02*
G75*
G02*
X23000000Y9800000I0J700000D01*
G01*
X24300000Y11900000D02*
G75*
G02*
X25000000Y11200000I1J-699999D01*
G01*
X25000000Y9800000D02*
G75*
G02*
X24300000Y9100000I-700000J0D01*
G01*
%TO.C,R17*%
X27665000Y227064D02*
X27665000Y-227064D01*
X29135000Y227064D02*
X29135000Y-227064D01*
%TO.C,M2*%
X-3900000Y11200000D02*
X-3900000Y11800000D01*
X-3200000Y12500000D02*
X-1800000Y12500000D01*
X-1800000Y10500000D02*
X-3200000Y10500000D01*
X-1100000Y11800000D02*
X-1100000Y11200000D01*
X-3900000Y11800000D02*
G75*
G02*
X-3200000Y12500000I699999J1D01*
G01*
X-3200000Y10500000D02*
G75*
G02*
X-3900000Y11200000I-1J699999D01*
G01*
X-1800000Y12500000D02*
G75*
G02*
X-1100000Y11800000I0J-700000D01*
G01*
X-1100000Y11200000D02*
G75*
G02*
X-1800000Y10500000I-700000J0D01*
G01*
%TO.C,Q2*%
X-25837500Y1060000D02*
X-25187500Y1060000D01*
X-25837500Y-2060000D02*
X-25187500Y-2060000D01*
X-24537500Y1060000D02*
X-25187500Y1060000D01*
X-24537500Y-2060000D02*
X-25187500Y-2060000D01*
X-26110000Y-2340000D02*
X-26590000Y-2340000D01*
X-26350000Y-2010000D01*
X-26110000Y-2340000D01*
G36*
X-26110000Y-2340000D02*
G01*
X-26590000Y-2340000D01*
X-26350000Y-2010000D01*
X-26110000Y-2340000D01*
G37*
%TO.C,NOT*%
X-26000000Y-6240000D02*
X-25200000Y-6240000D01*
X-26000000Y-9360000D02*
X-25200000Y-9360000D01*
X-24400000Y-6240000D02*
X-25200000Y-6240000D01*
X-24400000Y-9360000D02*
X-25200000Y-9360000D01*
X-26260000Y-9640000D02*
X-26740000Y-9640000D01*
X-26500000Y-9310000D01*
X-26260000Y-9640000D01*
G36*
X-26260000Y-9640000D02*
G01*
X-26740000Y-9640000D01*
X-26500000Y-9310000D01*
X-26260000Y-9640000D01*
G37*
%TO.C,M3*%
X-3900000Y6700000D02*
X-3900000Y7300000D01*
X-3200000Y8000000D02*
X-1800000Y8000000D01*
X-1800000Y6000000D02*
X-3200000Y6000000D01*
X-1100000Y7300000D02*
X-1100000Y6700000D01*
X-3900000Y7300000D02*
G75*
G02*
X-3200000Y8000000I699999J1D01*
G01*
X-3200000Y6000000D02*
G75*
G02*
X-3900000Y6700000I-1J699999D01*
G01*
X-1800000Y8000000D02*
G75*
G02*
X-1100000Y7300000I0J-700000D01*
G01*
X-1100000Y6700000D02*
G75*
G02*
X-1800000Y6000000I-700000J0D01*
G01*
%TO.C,BT1*%
X12250000Y25500000D02*
X11750000Y25500000D01*
X11750000Y28000000D01*
X12250000Y28000000D01*
X12250000Y25500000D01*
G36*
X12250000Y25500000D02*
G01*
X11750000Y25500000D01*
X11750000Y28000000D01*
X12250000Y28000000D01*
X12250000Y25500000D01*
G37*
X12250000Y-28000000D02*
X11750000Y-28000000D01*
X11750000Y-25500000D01*
X12250000Y-25500000D01*
X12250000Y-28000000D01*
G36*
X12250000Y-28000000D02*
G01*
X11750000Y-28000000D01*
X11750000Y-25500000D01*
X12250000Y-25500000D01*
X12250000Y-28000000D01*
G37*
X13250000Y26500000D02*
X10750000Y26500000D01*
X10750000Y27000000D01*
X13250000Y27000000D01*
X13250000Y26500000D01*
G36*
X13250000Y26500000D02*
G01*
X10750000Y26500000D01*
X10750000Y27000000D01*
X13250000Y27000000D01*
X13250000Y26500000D01*
G37*
X17250000Y-21250000D02*
X6750000Y-21250000D01*
X6750000Y23250000D01*
X17250000Y23250000D01*
X17250000Y-21250000D01*
%TO.C,R18*%
X-24972936Y3735000D02*
X-25427064Y3735000D01*
X-24972936Y2265000D02*
X-25427064Y2265000D01*
%TO.C,BT3*%
X-11750000Y25500000D02*
X-12250000Y25500000D01*
X-12250000Y28000000D01*
X-11750000Y28000000D01*
X-11750000Y25500000D01*
G36*
X-11750000Y25500000D02*
G01*
X-12250000Y25500000D01*
X-12250000Y28000000D01*
X-11750000Y28000000D01*
X-11750000Y25500000D01*
G37*
X-11750000Y-28000000D02*
X-12250000Y-28000000D01*
X-12250000Y-25500000D01*
X-11750000Y-25500000D01*
X-11750000Y-28000000D01*
G36*
X-11750000Y-28000000D02*
G01*
X-12250000Y-28000000D01*
X-12250000Y-25500000D01*
X-11750000Y-25500000D01*
X-11750000Y-28000000D01*
G37*
X-10750000Y26500000D02*
X-13250000Y26500000D01*
X-13250000Y27000000D01*
X-10750000Y27000000D01*
X-10750000Y26500000D01*
G36*
X-10750000Y26500000D02*
G01*
X-13250000Y26500000D01*
X-13250000Y27000000D01*
X-10750000Y27000000D01*
X-10750000Y26500000D01*
G37*
X-6750000Y-21250000D02*
X-17250000Y-21250000D01*
X-17250000Y23250000D01*
X-6750000Y23250000D01*
X-6750000Y-21250000D01*
%TO.C,Q1*%
X21350000Y-440000D02*
X22000000Y-440000D01*
X21350000Y-3560000D02*
X22000000Y-3560000D01*
X22650000Y-440000D02*
X22000000Y-440000D01*
X22650000Y-3560000D02*
X22000000Y-3560000D01*
X21077500Y-3840000D02*
X20597500Y-3840000D01*
X20837500Y-3510000D01*
X21077500Y-3840000D01*
G36*
X21077500Y-3840000D02*
G01*
X20597500Y-3840000D01*
X20837500Y-3510000D01*
X21077500Y-3840000D01*
G37*
%TO.C,Q3*%
X21350000Y3560000D02*
X22000000Y3560000D01*
X21350000Y440000D02*
X22000000Y440000D01*
X22650000Y3560000D02*
X22000000Y3560000D01*
X22650000Y440000D02*
X22000000Y440000D01*
X21077500Y160000D02*
X20597500Y160000D01*
X20837500Y490000D01*
X21077500Y160000D01*
G36*
X21077500Y160000D02*
G01*
X20597500Y160000D01*
X20837500Y490000D01*
X21077500Y160000D01*
G37*
%TO.C,M1*%
X-3900000Y15700000D02*
X-3900000Y16300000D01*
X-3200000Y17000000D02*
X-1800000Y17000000D01*
X-1800000Y15000000D02*
X-3200000Y15000000D01*
X-1100000Y16300000D02*
X-1100000Y15700000D01*
X-3900000Y16300000D02*
G75*
G02*
X-3200000Y17000000I699999J1D01*
G01*
X-3200000Y15000000D02*
G75*
G02*
X-3900000Y15700000I-1J699999D01*
G01*
X-1800000Y17000000D02*
G75*
G02*
X-1100000Y16300000I0J-700000D01*
G01*
X-1100000Y15700000D02*
G75*
G02*
X-1800000Y15000000I-700000J0D01*
G01*
%TO.C,Q4*%
X-25837500Y-2440000D02*
X-25187500Y-2440000D01*
X-25837500Y-5560000D02*
X-25187500Y-5560000D01*
X-24537500Y-2440000D02*
X-25187500Y-2440000D01*
X-24537500Y-5560000D02*
X-25187500Y-5560000D01*
X-26110000Y-5840000D02*
X-26590000Y-5840000D01*
X-26350000Y-5510000D01*
X-26110000Y-5840000D01*
G36*
X-26110000Y-5840000D02*
G01*
X-26590000Y-5840000D01*
X-26350000Y-5510000D01*
X-26110000Y-5840000D01*
G37*
%TD*%
%LPC*%
D12*
%TO.C,J2*%
X16444999Y20063427D03*
D13*
X15174999Y20063427D03*
X13904999Y20063427D03*
X12634999Y20063427D03*
X11364999Y20063427D03*
X10094999Y20063427D03*
X8824999Y20063427D03*
X7554999Y20063427D03*
%TD*%
D14*
%TO.C,REF\u002A\u002A*%
X2Y-27000000D03*
%TD*%
D15*
%TO.C,SW1*%
X15250000Y-11000000D03*
X8750000Y-11000000D03*
%TD*%
D12*
%TO.C,J3*%
X2436572Y14945000D03*
D13*
X2436572Y13675000D03*
X2436572Y12405000D03*
X2436572Y11135000D03*
X2436572Y9865000D03*
X2436572Y8595000D03*
X2436572Y7325000D03*
X2436572Y6055000D03*
%TD*%
D12*
%TO.C,J4*%
X7555000Y936572D03*
D13*
X8825000Y936572D03*
X10095000Y936572D03*
X11365000Y936572D03*
X12635000Y936572D03*
X13905000Y936572D03*
X15175000Y936572D03*
X16445000Y936572D03*
%TD*%
D16*
%TO.C,SW3*%
X4000000Y-7750000D03*
X4000000Y-14250000D03*
%TD*%
D12*
%TO.C,J5*%
X21563427Y6055000D03*
D13*
X21563427Y7325000D03*
X21563427Y8595000D03*
X21563427Y9865000D03*
X21563427Y11135000D03*
X21563427Y12405000D03*
X21563427Y13675000D03*
X21563427Y14945000D03*
%TD*%
D15*
%TO.C,SW2*%
X15250000Y-4000000D03*
X8750000Y-4000000D03*
%TD*%
D14*
%TO.C,REF\u002A\u002A*%
X-19906489Y18240934D03*
%TD*%
D17*
%TO.C,U4*%
X-20500000Y-500000D03*
D18*
X-18500000Y-500000D03*
X-20500000Y-2500000D03*
X-18500000Y-2500000D03*
X-20500000Y-4500000D03*
X-18500000Y-4500000D03*
X-20500000Y-6500000D03*
X-18500000Y-6500000D03*
%TD*%
D15*
%TO.C,SW4*%
X15250000Y-18000000D03*
X8750000Y-18000000D03*
%TD*%
D19*
%TO.C,U3*%
X-3810000Y27500000D03*
D20*
X-1270000Y27500000D03*
X1270000Y27500000D03*
X3810000Y27500000D03*
%TD*%
D16*
%TO.C,SW5*%
X20000000Y-7750000D03*
X20000000Y-14250000D03*
%TD*%
D21*
%TO.C,U1*%
X15900000Y14200000D03*
%TD*%
D19*
%TO.C,J1*%
X26000000Y7620000D03*
D20*
X26000000Y5080000D03*
X26000000Y2540000D03*
X26000000Y0D03*
X26000000Y-2540000D03*
X26000000Y-5080000D03*
X26000000Y-7620000D03*
%TD*%
D22*
%TO.C,C4*%
X-20500000Y9850000D03*
D23*
X-23000000Y9850000D03*
%TD*%
D24*
%TO.C,BT2*%
X0Y-24250000D03*
X0Y24250000D03*
%TD*%
D25*
%TO.C,3.3V        VBUS*%
X24000000Y11150000D03*
D26*
X24000000Y9850000D03*
%TD*%
D27*
%TO.C,R17*%
X28400000Y-912500D03*
X28400000Y912500D03*
%TD*%
D28*
%TO.C,M2*%
X-3150000Y11500000D03*
D29*
X-1850000Y11500000D03*
%TD*%
D30*
%TO.C,Q2*%
X-26125000Y-1450000D03*
X-26125000Y450000D03*
X-24250000Y-500000D03*
%TD*%
D31*
%TO.C,NOT*%
X-26337500Y-8750000D03*
X-26337500Y-7800000D03*
X-26337500Y-6850000D03*
X-24062500Y-6850000D03*
X-24062500Y-8750000D03*
%TD*%
D28*
%TO.C,M3*%
X-3150000Y7000000D03*
D29*
X-1850000Y7000000D03*
%TD*%
D24*
%TO.C,BT1*%
X12000000Y24250000D03*
X12000000Y-24250000D03*
%TD*%
D32*
%TO.C,R18*%
X-26112500Y3000000D03*
X-24287500Y3000000D03*
%TD*%
D24*
%TO.C,BT3*%
X-12000000Y24250000D03*
X-12000000Y-24250000D03*
%TD*%
D30*
%TO.C,Q1*%
X21062500Y-2950000D03*
X21062500Y-1050000D03*
X22937500Y-2000000D03*
%TD*%
%TO.C,Q3*%
X21062500Y1050000D03*
X21062500Y2950000D03*
X22937500Y2000000D03*
%TD*%
D28*
%TO.C,M1*%
X-3150000Y16000000D03*
D29*
X-1850000Y16000000D03*
%TD*%
D30*
%TO.C,Q4*%
X-26125000Y-4950000D03*
X-26125000Y-3050000D03*
X-24250000Y-4000000D03*
%TD*%
%LPD*%
M02*
