%TF.GenerationSoftware,KiCad,Pcbnew,8.0.1*%
%TF.CreationDate,2024-07-13T16:03:54+09:00*%
%TF.ProjectId,main,6d61696e-2e6b-4696-9361-645f70636258,rev?*%
%TF.SameCoordinates,Original*%
%TF.FileFunction,Legend,Bot*%
%TF.FilePolarity,Positive*%
%FSLAX46Y46*%
G04 Gerber Fmt 4.6, Leading zero omitted, Abs format (unit mm)*
G04 Created by KiCad (PCBNEW 8.0.1) date 2024-07-13 16:03:54*
%MOMM*%
%LPD*%
G01*
G04 APERTURE LIST*
G04 Aperture macros list*
%AMRoundRect*
0 Rectangle with rounded corners*
0 $1 Rounding radius*
0 $2 $3 $4 $5 $6 $7 $8 $9 X,Y pos of 4 corners*
0 Add a 4 corners polygon primitive as box body*
4,1,4,$2,$3,$4,$5,$6,$7,$8,$9,$2,$3,0*
0 Add four circle primitives for the rounded corners*
1,1,$1+$1,$2,$3*
1,1,$1+$1,$4,$5*
1,1,$1+$1,$6,$7*
1,1,$1+$1,$8,$9*
0 Add four rect primitives between the rounded corners*
20,1,$1+$1,$2,$3,$4,$5,0*
20,1,$1+$1,$4,$5,$6,$7,0*
20,1,$1+$1,$6,$7,$8,$9,0*
20,1,$1+$1,$8,$9,$2,$3,0*%
%AMHorizOval*
0 Thick line with rounded ends*
0 $1 width*
0 $2 $3 position (X,Y) of the first rounded end (center of the circle)*
0 $4 $5 position (X,Y) of the second rounded end (center of the circle)*
0 Add line between two ends*
20,1,$1,$2,$3,$4,$5,0*
0 Add two circle primitives to create the rounded ends*
1,1,$1,$2,$3*
1,1,$1,$4,$5*%
%AMFreePoly0*
4,1,19,0.000000,0.744911,0.071157,0.744911,0.207708,0.704816,0.327430,0.627875,0.420627,0.520320,0.479746,0.390866,0.500000,0.250000,0.500000,-0.250000,0.479746,-0.390866,0.420627,-0.520320,0.327430,-0.627875,0.207708,-0.704816,0.071157,-0.744911,0.000000,-0.744911,0.000000,-0.750000,-0.500000,-0.750000,-0.500000,0.750000,0.000000,0.750000,0.000000,0.744911,0.000000,0.744911,
$1*%
%AMFreePoly1*
4,1,19,0.500000,-0.750000,0.000000,-0.750000,0.000000,-0.744911,-0.071157,-0.744911,-0.207708,-0.704816,-0.327430,-0.627875,-0.420627,-0.520320,-0.479746,-0.390866,-0.500000,-0.250000,-0.500000,0.250000,-0.479746,0.390866,-0.420627,0.520320,-0.327430,0.627875,-0.207708,0.704816,-0.071157,0.744911,0.000000,0.744911,0.000000,0.750000,0.500000,0.750000,0.500000,-0.750000,0.500000,-0.750000,
$1*%
G04 Aperture macros list end*
%ADD10C,0.150000*%
%ADD11C,0.120000*%
%ADD12O,1.400000X2.100000*%
%ADD13R,1.000000X1.000000*%
%ADD14O,1.000000X1.000000*%
%ADD15O,2.100000X1.400000*%
%ADD16R,1.350000X1.350000*%
%ADD17C,1.350000*%
%ADD18C,1.500000*%
%ADD19R,1.700000X1.700000*%
%ADD20O,1.700000X1.700000*%
%ADD21HorizOval,3.100000X-0.424264X-0.424264X0.424264X0.424264X0*%
%ADD22R,1.600000X1.600000*%
%ADD23C,1.600000*%
%ADD24O,4.500000X1.800000*%
%ADD25FreePoly0,270.000000*%
%ADD26FreePoly1,270.000000*%
%ADD27FreePoly1,0.000000*%
%ADD28FreePoly0,0.000000*%
%ADD29RoundRect,0.218750X-0.218750X-0.256250X0.218750X-0.256250X0.218750X0.256250X-0.218750X0.256250X0*%
G04 APERTURE END LIST*
D10*
G36*
X22674080Y4869791D02*
G01*
X22630116Y5134306D01*
X22583445Y5119804D01*
X22534421Y5097479D01*
X22491241Y5069334D01*
X22453905Y5035369D01*
X22430814Y5007544D01*
X22403786Y4962783D01*
X22383397Y4910566D01*
X22371204Y4859873D01*
X22363888Y4803702D01*
X22361517Y4752708D01*
X22361449Y4742052D01*
X22363190Y4683052D01*
X22368414Y4629395D01*
X22377120Y4581081D01*
X22392164Y4530156D01*
X22416053Y4480468D01*
X22432768Y4456777D01*
X22470611Y4418308D01*
X22513063Y4390831D01*
X22560126Y4374345D01*
X22611798Y4368849D01*
X22661063Y4374775D01*
X22709789Y4394410D01*
X22726104Y4404753D01*
X22765682Y4439732D01*
X22795896Y4478713D01*
X22815985Y4512464D01*
X22830744Y4463803D01*
X22849935Y4423315D01*
X22881077Y4383759D01*
X22919792Y4352710D01*
X22932245Y4345402D01*
X22980484Y4326368D01*
X23032058Y4318238D01*
X23053633Y4317558D01*
X23102945Y4321210D01*
X23151135Y4332164D01*
X23198205Y4350422D01*
X23223871Y4363720D01*
X23266665Y4392756D01*
X23303546Y4428206D01*
X23334516Y4470070D01*
X23349167Y4496100D01*
X23368401Y4542735D01*
X23382140Y4596178D01*
X23389653Y4648526D01*
X23392745Y4697545D01*
X23393131Y4723490D01*
X23392006Y4772929D01*
X23387850Y4825464D01*
X23379352Y4878720D01*
X23365010Y4929985D01*
X23361135Y4940133D01*
X23338099Y4987002D01*
X23309291Y5028385D01*
X23274710Y5064282D01*
X23267102Y5070803D01*
X23225251Y5100394D01*
X23177247Y5125357D01*
X23128782Y5143868D01*
X23111519Y5149205D01*
X23080500Y4869791D01*
X23127360Y4854942D01*
X23168838Y4829136D01*
X23178442Y4818745D01*
X23200363Y4773579D01*
X23205553Y4730329D01*
X23197020Y4681796D01*
X23169107Y4639138D01*
X23166718Y4636784D01*
X23124446Y4609786D01*
X23074825Y4599501D01*
X23062915Y4599170D01*
X23014094Y4605136D01*
X22970083Y4626846D01*
X22960577Y4635318D01*
X22933283Y4677694D01*
X22924220Y4729179D01*
X22924185Y4733015D01*
X22930291Y4783868D01*
X22939816Y4823629D01*
X22733675Y4809219D01*
X22736606Y4772827D01*
X22729096Y4722452D01*
X22706564Y4681236D01*
X22667015Y4650442D01*
X22635490Y4644355D01*
X22587164Y4658613D01*
X22572719Y4671955D01*
X22551827Y4716799D01*
X22549028Y4747426D01*
X22557838Y4797331D01*
X22576871Y4828026D01*
X22618052Y4855140D01*
X22665543Y4868340D01*
X22674080Y4869791D01*
G37*
G36*
X23096132Y4180538D02*
G01*
X23096132Y3881829D01*
X23377500Y3881829D01*
X23377500Y4180538D01*
X23096132Y4180538D01*
G37*
G36*
X22674080Y3470768D02*
G01*
X22630116Y3735283D01*
X22583445Y3720780D01*
X22534421Y3698456D01*
X22491241Y3670311D01*
X22453905Y3636346D01*
X22430814Y3608521D01*
X22403786Y3563760D01*
X22383397Y3511543D01*
X22371204Y3460850D01*
X22363888Y3404679D01*
X22361517Y3353685D01*
X22361449Y3343029D01*
X22363190Y3284029D01*
X22368414Y3230372D01*
X22377120Y3182058D01*
X22392164Y3131133D01*
X22416053Y3081445D01*
X22432768Y3057754D01*
X22470611Y3019285D01*
X22513063Y2991808D01*
X22560126Y2975322D01*
X22611798Y2969826D01*
X22661063Y2975752D01*
X22709789Y2995387D01*
X22726104Y3005730D01*
X22765682Y3040709D01*
X22795896Y3079690D01*
X22815985Y3113441D01*
X22830744Y3064780D01*
X22849935Y3024292D01*
X22881077Y2984736D01*
X22919792Y2953687D01*
X22932245Y2946379D01*
X22980484Y2927345D01*
X23032058Y2919215D01*
X23053633Y2918535D01*
X23102945Y2922187D01*
X23151135Y2933141D01*
X23198205Y2951399D01*
X23223871Y2964697D01*
X23266665Y2993733D01*
X23303546Y3029183D01*
X23334516Y3071047D01*
X23349167Y3097077D01*
X23368401Y3143712D01*
X23382140Y3197155D01*
X23389653Y3249503D01*
X23392745Y3298522D01*
X23393131Y3324467D01*
X23392006Y3373906D01*
X23387850Y3426441D01*
X23379352Y3479697D01*
X23365010Y3530962D01*
X23361135Y3541110D01*
X23338099Y3587979D01*
X23309291Y3629362D01*
X23274710Y3665259D01*
X23267102Y3671780D01*
X23225251Y3701371D01*
X23177247Y3726334D01*
X23128782Y3744845D01*
X23111519Y3750182D01*
X23080500Y3470768D01*
X23127360Y3455919D01*
X23168838Y3430113D01*
X23178442Y3419722D01*
X23200363Y3374556D01*
X23205553Y3331306D01*
X23197020Y3282773D01*
X23169107Y3240115D01*
X23166718Y3237761D01*
X23124446Y3210763D01*
X23074825Y3200478D01*
X23062915Y3200147D01*
X23014094Y3206113D01*
X22970083Y3227823D01*
X22960577Y3236295D01*
X22933283Y3278671D01*
X22924220Y3330156D01*
X22924185Y3333992D01*
X22930291Y3384844D01*
X22939816Y3424606D01*
X22733675Y3410196D01*
X22736606Y3373804D01*
X22729096Y3323429D01*
X22706564Y3282213D01*
X22667015Y3251419D01*
X22635490Y3245332D01*
X22587164Y3259590D01*
X22572719Y3272932D01*
X22551827Y3317776D01*
X22549028Y3348403D01*
X22557838Y3398308D01*
X22576871Y3429003D01*
X22618052Y3456117D01*
X22665543Y3469317D01*
X22674080Y3470768D01*
G37*
G36*
X22377081Y2863336D02*
G01*
X22377081Y2537761D01*
X23097109Y2311103D01*
X22377081Y2087865D01*
X22377081Y1771815D01*
X23377500Y2145507D01*
X23377500Y2482806D01*
X22377081Y2863336D01*
G37*
G36*
X22377081Y-1960947D02*
G01*
X22377081Y-2286523D01*
X23097109Y-2513180D01*
X22377081Y-2736418D01*
X22377081Y-3052469D01*
X23377500Y-2678777D01*
X23377500Y-2341478D01*
X22377081Y-1960947D01*
G37*
G36*
X23377500Y-3686767D02*
G01*
X23375507Y-3722522D01*
X23370181Y-3772737D01*
X23363333Y-3826230D01*
X23359735Y-3849982D01*
X23348521Y-3899006D01*
X23329384Y-3944443D01*
X23303404Y-3981357D01*
X23268766Y-4015900D01*
X23227779Y-4044095D01*
X23186057Y-4063286D01*
X23136527Y-4076187D01*
X23083187Y-4080487D01*
X23064936Y-4080036D01*
X23013738Y-4073274D01*
X22963105Y-4056244D01*
X22919056Y-4029196D01*
X22895949Y-4008027D01*
X22866344Y-3968674D01*
X22842806Y-3920202D01*
X22826976Y-3869461D01*
X22817499Y-3895003D01*
X22794991Y-3938876D01*
X22762740Y-3977905D01*
X22755013Y-3984648D01*
X22713544Y-4011839D01*
X22667353Y-4028154D01*
X22616439Y-4033592D01*
X22579488Y-4030853D01*
X22528375Y-4016472D01*
X22482441Y-3989766D01*
X22445957Y-3955679D01*
X22429814Y-3935143D01*
X22403986Y-3887730D01*
X22388448Y-3839305D01*
X22379502Y-3784406D01*
X22377081Y-3732196D01*
X22377081Y-3463529D01*
X22580291Y-3463529D01*
X22580291Y-3601038D01*
X22580313Y-3605409D01*
X22584545Y-3654760D01*
X22602517Y-3700201D01*
X22616391Y-3714014D01*
X22664310Y-3728777D01*
X22686769Y-3726517D01*
X22729767Y-3700201D01*
X22731150Y-3698371D01*
X22748529Y-3650681D01*
X22752238Y-3598840D01*
X22752238Y-3463529D01*
X22939816Y-3463529D01*
X22939816Y-3621554D01*
X22940240Y-3641239D01*
X22946594Y-3691042D01*
X22966927Y-3735860D01*
X22989550Y-3755804D01*
X23038246Y-3768589D01*
X23073957Y-3763147D01*
X23114694Y-3735616D01*
X23125734Y-3718923D01*
X23139679Y-3671933D01*
X23143026Y-3622287D01*
X23143026Y-3463529D01*
X22939816Y-3463529D01*
X22752238Y-3463529D01*
X22580291Y-3463529D01*
X22377081Y-3463529D01*
X22377081Y-3149677D01*
X23377500Y-3149677D01*
X23377500Y-3686767D01*
G37*
G36*
X22377081Y-4856446D02*
G01*
X22377081Y-5166879D01*
X22972301Y-5166879D01*
X23021262Y-5164676D01*
X23073850Y-5157063D01*
X23124531Y-5144011D01*
X23139363Y-5139035D01*
X23186608Y-5118556D01*
X23230038Y-5091923D01*
X23269651Y-5059136D01*
X23277116Y-5051841D01*
X23310470Y-5014174D01*
X23339226Y-4971418D01*
X23359670Y-4927277D01*
X23374309Y-4879588D01*
X23384766Y-4827381D01*
X23390484Y-4777994D01*
X23393000Y-4725147D01*
X23393131Y-4709412D01*
X23391919Y-4657282D01*
X23388713Y-4607136D01*
X23383504Y-4554366D01*
X23382873Y-4548945D01*
X23374506Y-4497520D01*
X23360784Y-4447344D01*
X23342329Y-4403864D01*
X23316042Y-4361458D01*
X23282611Y-4321799D01*
X23256355Y-4296886D01*
X23217498Y-4267246D01*
X23174187Y-4243140D01*
X23141072Y-4230696D01*
X23089211Y-4216764D01*
X23040789Y-4207392D01*
X22991020Y-4202326D01*
X22972301Y-4201875D01*
X22377081Y-4201875D01*
X22377081Y-4512308D01*
X22985245Y-4512308D01*
X23037116Y-4517705D01*
X23084091Y-4535903D01*
X23112740Y-4557982D01*
X23142470Y-4600936D01*
X23156461Y-4650962D01*
X23158658Y-4684744D01*
X23153319Y-4735890D01*
X23135315Y-4782338D01*
X23113473Y-4810773D01*
X23070512Y-4840345D01*
X23019765Y-4854261D01*
X22985245Y-4856446D01*
X22377081Y-4856446D01*
G37*
G36*
X23037269Y-5312448D02*
G01*
X23017974Y-5608470D01*
X23069047Y-5618431D01*
X23116044Y-5637170D01*
X23132035Y-5647549D01*
X23168051Y-5685506D01*
X23189117Y-5733218D01*
X23195294Y-5785058D01*
X23190215Y-5834155D01*
X23170019Y-5880637D01*
X23164520Y-5887640D01*
X23124445Y-5917822D01*
X23092957Y-5923788D01*
X23045883Y-5908956D01*
X23024080Y-5889349D01*
X22999839Y-5846571D01*
X22983717Y-5799388D01*
X22969841Y-5745380D01*
X22966439Y-5730103D01*
X22954669Y-5680766D01*
X22938627Y-5624247D01*
X22921105Y-5573452D01*
X22902105Y-5528381D01*
X22877352Y-5481853D01*
X22845783Y-5437988D01*
X22810777Y-5403728D01*
X22765905Y-5374877D01*
X22715843Y-5357016D01*
X22660591Y-5350147D01*
X22653319Y-5350061D01*
X22601436Y-5355371D01*
X22551572Y-5371303D01*
X22507995Y-5395002D01*
X22468115Y-5427526D01*
X22433959Y-5468923D01*
X22408113Y-5513767D01*
X22400528Y-5530312D01*
X22383431Y-5579680D01*
X22372478Y-5629739D01*
X22365266Y-5686202D01*
X22362060Y-5739697D01*
X22361449Y-5777975D01*
X22363179Y-5836100D01*
X22368366Y-5889730D01*
X22377013Y-5938864D01*
X22391953Y-5991889D01*
X22411874Y-6038440D01*
X22432280Y-6072287D01*
X22467265Y-6112706D01*
X22510245Y-6145270D01*
X22561218Y-6169980D01*
X22611273Y-6184910D01*
X22657472Y-6192943D01*
X22674080Y-5899607D01*
X22626781Y-5885849D01*
X22584726Y-5857296D01*
X22578825Y-5850515D01*
X22556477Y-5806001D01*
X22549144Y-5755332D01*
X22549028Y-5747200D01*
X22555438Y-5697103D01*
X22571742Y-5665379D01*
X22613197Y-5639332D01*
X22626941Y-5638023D01*
X22669684Y-5660738D01*
X22691940Y-5708109D01*
X22705020Y-5759944D01*
X22706076Y-5765030D01*
X22716907Y-5814206D01*
X22730509Y-5870590D01*
X22744184Y-5921320D01*
X22760687Y-5974735D01*
X22780071Y-6026764D01*
X22794003Y-6057144D01*
X22820708Y-6103053D01*
X22854368Y-6145089D01*
X22892225Y-6177680D01*
X22904401Y-6185616D01*
X22951586Y-6208560D01*
X23002465Y-6221980D01*
X23051924Y-6225916D01*
X23104620Y-6221666D01*
X23154998Y-6208914D01*
X23203058Y-6187662D01*
X23228756Y-6172182D01*
X23271139Y-6138714D01*
X23307341Y-6098483D01*
X23334330Y-6057046D01*
X23351366Y-6022462D01*
X23369638Y-5971323D01*
X23381344Y-5921418D01*
X23389052Y-5866698D01*
X23392478Y-5815962D01*
X23393131Y-5780173D01*
X23391563Y-5718406D01*
X23386857Y-5661578D01*
X23379015Y-5609687D01*
X23364800Y-5551769D01*
X23345684Y-5501567D01*
X23316275Y-5451510D01*
X23292747Y-5424311D01*
X23253105Y-5390239D01*
X23209651Y-5362212D01*
X23162385Y-5340230D01*
X23111305Y-5324293D01*
X23056414Y-5314402D01*
X23037269Y-5312448D01*
G37*
G36*
X-1960215Y10047918D02*
G01*
X-2369566Y10047918D01*
X-2527591Y9441707D01*
X-2684883Y10047918D01*
X-3093013Y10047918D01*
X-3093013Y9047500D01*
X-2838756Y9047500D01*
X-2838756Y9815399D01*
X-2641652Y9047500D01*
X-2411575Y9047500D01*
X-2214960Y9815399D01*
X-2214960Y9047500D01*
X-1960215Y9047500D01*
X-1960215Y10047918D01*
G37*
G36*
X-4058016Y9047500D02*
G01*
X-3218554Y9047500D01*
X-3227663Y9101818D01*
X-3242383Y9154710D01*
X-3262712Y9206176D01*
X-3288651Y9256216D01*
X-3305993Y9284171D01*
X-3337969Y9327090D01*
X-3371491Y9364758D01*
X-3411261Y9404155D01*
X-3447577Y9436918D01*
X-3487893Y9470788D01*
X-3532207Y9505764D01*
X-3580522Y9541847D01*
X-3623558Y9574024D01*
X-3665866Y9607701D01*
X-3703800Y9641093D01*
X-3737814Y9678135D01*
X-3762533Y9720796D01*
X-3772252Y9766550D01*
X-3760284Y9815762D01*
X-3738303Y9843975D01*
X-3694545Y9869847D01*
X-3652818Y9875971D01*
X-3604030Y9867301D01*
X-3565134Y9841289D01*
X-3538190Y9797411D01*
X-3523667Y9745616D01*
X-3519461Y9719656D01*
X-3239070Y9742859D01*
X-3247645Y9791981D01*
X-3260651Y9842024D01*
X-3279370Y9890549D01*
X-3299642Y9926774D01*
X-3330626Y9965113D01*
X-3368622Y9997394D01*
X-3413630Y10023617D01*
X-3423473Y10028135D01*
X-3473405Y10045254D01*
X-3525963Y10055768D01*
X-3578262Y10061336D01*
X-3627779Y10063411D01*
X-3645246Y10063550D01*
X-3698266Y10062382D01*
X-3754305Y10058068D01*
X-3804080Y10050574D01*
X-3853295Y10038118D01*
X-3874834Y10030333D01*
X-3922819Y10006266D01*
X-3963887Y9975283D01*
X-3998039Y9937382D01*
X-4004039Y9928972D01*
X-4028897Y9884608D01*
X-4044549Y9836999D01*
X-4050993Y9786147D01*
X-4051178Y9775587D01*
X-4046908Y9725510D01*
X-4034099Y9676669D01*
X-4012750Y9629065D01*
X-3997200Y9603152D01*
X-3964700Y9560990D01*
X-3927222Y9522445D01*
X-3888382Y9488178D01*
X-3843342Y9452778D01*
X-3801073Y9422412D01*
X-3757961Y9392851D01*
X-3717286Y9364118D01*
X-3687988Y9342056D01*
X-3650728Y9309799D01*
X-3621066Y9281973D01*
X-4058016Y9281973D01*
X-4058016Y9047500D01*
G37*
G36*
X-1960215Y5547918D02*
G01*
X-2369566Y5547918D01*
X-2527591Y4941707D01*
X-2684883Y5547918D01*
X-3093013Y5547918D01*
X-3093013Y4547500D01*
X-2838756Y4547500D01*
X-2838756Y5315399D01*
X-2641652Y4547500D01*
X-2411575Y4547500D01*
X-2214960Y5315399D01*
X-2214960Y4547500D01*
X-1960215Y4547500D01*
X-1960215Y5547918D01*
G37*
G36*
X-3510424Y5250919D02*
G01*
X-3245909Y5294883D01*
X-3260412Y5341554D01*
X-3282736Y5390578D01*
X-3310881Y5433758D01*
X-3344847Y5471094D01*
X-3372671Y5494185D01*
X-3417432Y5521213D01*
X-3469650Y5541602D01*
X-3520342Y5553795D01*
X-3576514Y5561111D01*
X-3627508Y5563482D01*
X-3638163Y5563550D01*
X-3697163Y5561809D01*
X-3750820Y5556585D01*
X-3799134Y5547879D01*
X-3850059Y5532835D01*
X-3899747Y5508946D01*
X-3923439Y5492231D01*
X-3961907Y5454388D01*
X-3989384Y5411936D01*
X-4005871Y5364873D01*
X-4011366Y5313201D01*
X-4005440Y5263936D01*
X-3985806Y5215210D01*
X-3975462Y5198895D01*
X-3940483Y5159317D01*
X-3901503Y5129103D01*
X-3867751Y5109014D01*
X-3916413Y5094255D01*
X-3956900Y5075064D01*
X-3996457Y5043922D01*
X-4027505Y5005207D01*
X-4034813Y4992754D01*
X-4053847Y4944515D01*
X-4061977Y4892941D01*
X-4062657Y4871366D01*
X-4059006Y4822054D01*
X-4048051Y4773864D01*
X-4029794Y4726794D01*
X-4016495Y4701128D01*
X-3987459Y4658334D01*
X-3952009Y4621453D01*
X-3910145Y4590483D01*
X-3884115Y4575832D01*
X-3837480Y4556598D01*
X-3784037Y4542859D01*
X-3731689Y4535346D01*
X-3682671Y4532254D01*
X-3656725Y4531868D01*
X-3607286Y4532993D01*
X-3554751Y4537149D01*
X-3501495Y4545647D01*
X-3450230Y4559989D01*
X-3440082Y4563864D01*
X-3393213Y4586900D01*
X-3351830Y4615708D01*
X-3315933Y4650289D01*
X-3309412Y4657897D01*
X-3279821Y4699748D01*
X-3254858Y4747752D01*
X-3236347Y4796217D01*
X-3231010Y4813480D01*
X-3510424Y4844499D01*
X-3525273Y4797639D01*
X-3551080Y4756161D01*
X-3561471Y4746557D01*
X-3606637Y4724636D01*
X-3649887Y4719446D01*
X-3698419Y4727979D01*
X-3741078Y4755892D01*
X-3743432Y4758281D01*
X-3770430Y4800553D01*
X-3780714Y4850174D01*
X-3781045Y4862084D01*
X-3775079Y4910905D01*
X-3753369Y4954916D01*
X-3744897Y4964422D01*
X-3702521Y4991716D01*
X-3651037Y5000779D01*
X-3647200Y5000814D01*
X-3596348Y4994708D01*
X-3556586Y4985183D01*
X-3570996Y5191324D01*
X-3607388Y5188393D01*
X-3657763Y5195903D01*
X-3698979Y5218435D01*
X-3729773Y5257984D01*
X-3735860Y5289509D01*
X-3721602Y5337835D01*
X-3708261Y5352280D01*
X-3663416Y5373172D01*
X-3632790Y5375971D01*
X-3582884Y5367161D01*
X-3552189Y5348128D01*
X-3525075Y5306947D01*
X-3511875Y5259456D01*
X-3510424Y5250919D01*
G37*
G36*
X-25814855Y-6752081D02*
G01*
X-26584220Y-6752081D01*
X-26584220Y-6986554D01*
X-26127242Y-6986554D01*
X-26127242Y-7142869D01*
X-26517542Y-7142869D01*
X-26517542Y-7346079D01*
X-26127242Y-7346079D01*
X-26127242Y-7752500D01*
X-25814855Y-7752500D01*
X-25814855Y-6752081D01*
G37*
G36*
X-26747130Y-7752500D02*
G01*
X-27284220Y-7752500D01*
X-27319975Y-7750507D01*
X-27370190Y-7745181D01*
X-27423683Y-7738333D01*
X-27447435Y-7734735D01*
X-27496459Y-7723521D01*
X-27541897Y-7704384D01*
X-27578810Y-7678404D01*
X-27613353Y-7643766D01*
X-27641548Y-7602779D01*
X-27660739Y-7561057D01*
X-27673640Y-7511527D01*
X-27677940Y-7458187D01*
X-27677489Y-7439936D01*
X-27673964Y-7413246D01*
X-27366042Y-7413246D01*
X-27360600Y-7448957D01*
X-27333069Y-7489694D01*
X-27316376Y-7500734D01*
X-27269386Y-7514679D01*
X-27219740Y-7518026D01*
X-27060982Y-7518026D01*
X-27060982Y-7314816D01*
X-27219008Y-7314816D01*
X-27238692Y-7315240D01*
X-27288495Y-7321594D01*
X-27333313Y-7341927D01*
X-27353257Y-7364550D01*
X-27366042Y-7413246D01*
X-27673964Y-7413246D01*
X-27670727Y-7388738D01*
X-27653697Y-7338105D01*
X-27626649Y-7294056D01*
X-27605480Y-7270949D01*
X-27566127Y-7241344D01*
X-27517656Y-7217806D01*
X-27466914Y-7201976D01*
X-27492457Y-7192499D01*
X-27536329Y-7169991D01*
X-27575358Y-7137740D01*
X-27582101Y-7130013D01*
X-27609292Y-7088544D01*
X-27625607Y-7042353D01*
X-27625932Y-7039310D01*
X-27326230Y-7039310D01*
X-27323970Y-7061769D01*
X-27297654Y-7104767D01*
X-27295825Y-7106150D01*
X-27248134Y-7123529D01*
X-27196293Y-7127238D01*
X-27060982Y-7127238D01*
X-27060982Y-6955291D01*
X-27198491Y-6955291D01*
X-27202862Y-6955313D01*
X-27252213Y-6959545D01*
X-27297654Y-6977517D01*
X-27311468Y-6991391D01*
X-27326230Y-7039310D01*
X-27625932Y-7039310D01*
X-27631045Y-6991439D01*
X-27628306Y-6954488D01*
X-27613926Y-6903375D01*
X-27587219Y-6857441D01*
X-27553132Y-6820957D01*
X-27532596Y-6804814D01*
X-27485183Y-6778986D01*
X-27436758Y-6763448D01*
X-27381859Y-6754502D01*
X-27329650Y-6752081D01*
X-26747130Y-6752081D01*
X-26747130Y-7752500D01*
G37*
G36*
X-28423369Y-6736449D02*
G01*
X-28423369Y-7752500D01*
X-28140292Y-7752500D01*
X-28140292Y-7087182D01*
X-28097826Y-7118480D01*
X-28056219Y-7145819D01*
X-28011443Y-7171319D01*
X-28007423Y-7173400D01*
X-27959423Y-7195751D01*
X-27909124Y-7215519D01*
X-27858431Y-7232862D01*
X-27846467Y-7236659D01*
X-27846467Y-7002185D01*
X-27897799Y-6984597D01*
X-27944630Y-6965721D01*
X-27993580Y-6942070D01*
X-28036406Y-6916667D01*
X-28068240Y-6893497D01*
X-28105548Y-6859777D01*
X-28138582Y-6822362D01*
X-28167341Y-6781253D01*
X-28191827Y-6736449D01*
X-28423369Y-6736449D01*
G37*
G36*
X-1960215Y14547918D02*
G01*
X-2369566Y14547918D01*
X-2527591Y13941707D01*
X-2684883Y14547918D01*
X-3093013Y14547918D01*
X-3093013Y13547500D01*
X-2838756Y13547500D01*
X-2838756Y14315399D01*
X-2641652Y13547500D01*
X-2411575Y13547500D01*
X-2214960Y14315399D01*
X-2214960Y13547500D01*
X-1960215Y13547500D01*
X-1960215Y14547918D01*
G37*
G36*
X-3873125Y14563550D02*
G01*
X-3873125Y13547500D01*
X-3590047Y13547500D01*
X-3590047Y14212817D01*
X-3547581Y14181519D01*
X-3505974Y14154180D01*
X-3461198Y14128680D01*
X-3457179Y14126599D01*
X-3409178Y14104248D01*
X-3358880Y14084480D01*
X-3308186Y14067137D01*
X-3296223Y14063340D01*
X-3296223Y14297814D01*
X-3347554Y14315402D01*
X-3394386Y14334278D01*
X-3443336Y14357929D01*
X-3486162Y14383332D01*
X-3517995Y14406502D01*
X-3555304Y14440222D01*
X-3588337Y14477637D01*
X-3617097Y14518746D01*
X-3641582Y14563550D01*
X-3873125Y14563550D01*
G37*
D11*
%TO.C,J2*%
X17957499Y19525927D02*
X16957499Y20025927D01*
X17957499Y20525927D01*
X17957499Y19525927D01*
G36*
X17957499Y19525927D02*
G01*
X16957499Y20025927D01*
X17957499Y20525927D01*
X17957499Y19525927D01*
G37*
%TO.C,J3*%
X1949072Y15907500D02*
X1449072Y16907500D01*
X2449072Y16907500D01*
X1949072Y15907500D01*
G36*
X1949072Y15907500D02*
G01*
X1449072Y16907500D01*
X2449072Y16907500D01*
X1949072Y15907500D01*
G37*
%TO.C,J4*%
X6067500Y899072D02*
X5067500Y399072D01*
X5067500Y1399072D01*
X6067500Y899072D01*
G36*
X6067500Y899072D02*
G01*
X5067500Y399072D01*
X5067500Y1399072D01*
X6067500Y899072D01*
G37*
%TO.C,J5*%
X21575927Y4017500D02*
X20575927Y4017500D01*
X21075927Y5017500D01*
X21575927Y4017500D01*
G36*
X21575927Y4017500D02*
G01*
X20575927Y4017500D01*
X21075927Y5017500D01*
X21575927Y4017500D01*
G37*
%TO.C,U4*%
X-22487500Y-537500D02*
X-23487500Y-1037500D01*
X-23487500Y-37500D01*
X-22487500Y-537500D01*
G36*
X-22487500Y-537500D02*
G01*
X-23487500Y-1037500D01*
X-23487500Y-37500D01*
X-22487500Y-537500D01*
G37*
%TO.C,BT2*%
X-5737500Y21212500D02*
X4762500Y21212500D01*
X4762500Y-23287500D01*
X-5737500Y-23287500D01*
X-5737500Y21212500D01*
X-1737500Y-26537500D02*
X762500Y-26537500D01*
X762500Y-27037500D01*
X-1737500Y-27037500D01*
X-1737500Y-26537500D01*
G36*
X-1737500Y-26537500D02*
G01*
X762500Y-26537500D01*
X762500Y-27037500D01*
X-1737500Y-27037500D01*
X-1737500Y-26537500D01*
G37*
X-737500Y27962500D02*
X-237500Y27962500D01*
X-237500Y25462500D01*
X-737500Y25462500D01*
X-737500Y27962500D01*
G36*
X-737500Y27962500D02*
G01*
X-237500Y27962500D01*
X-237500Y25462500D01*
X-737500Y25462500D01*
X-737500Y27962500D01*
G37*
X-737500Y-25537500D02*
X-237500Y-25537500D01*
X-237500Y-28037500D01*
X-737500Y-28037500D01*
X-737500Y-25537500D01*
G36*
X-737500Y-25537500D02*
G01*
X-237500Y-25537500D01*
X-237500Y-28037500D01*
X-737500Y-28037500D01*
X-737500Y-25537500D01*
G37*
%TO.C,3.3V        VBUS*%
X23962500Y-737500D02*
G75*
G02*
X23262500Y-1437500I-700000J0D01*
G01*
X23262500Y1362500D02*
G75*
G02*
X23962500Y662500I1J-699999D01*
G01*
X22662500Y-1437500D02*
G75*
G02*
X21962500Y-737500I0J700000D01*
G01*
X21962500Y662500D02*
G75*
G02*
X22662500Y1362500I699999J1D01*
G01*
X23962500Y662500D02*
X23962500Y-737500D01*
X23262500Y-1437500D02*
X22662500Y-1437500D01*
X22662500Y1362500D02*
X23262500Y1362500D01*
X21962500Y-737500D02*
X21962500Y662500D01*
%TO.C,M2*%
X-4387500Y11162500D02*
X-4387500Y11762500D01*
X-3687500Y12462500D02*
X-2287500Y12462500D01*
X-2287500Y10462500D02*
X-3687500Y10462500D01*
X-1587500Y11762500D02*
X-1587500Y11162500D01*
X-4387500Y11762500D02*
G75*
G02*
X-3687500Y12462500I699999J1D01*
G01*
X-3687500Y10462500D02*
G75*
G02*
X-4387500Y11162500I-1J699999D01*
G01*
X-2287500Y12462500D02*
G75*
G02*
X-1587500Y11762500I0J-700000D01*
G01*
X-1587500Y11162500D02*
G75*
G02*
X-2287500Y10462500I-700000J0D01*
G01*
%TO.C,M3*%
X-4387500Y6662500D02*
X-4387500Y7262500D01*
X-3687500Y7962500D02*
X-2287500Y7962500D01*
X-2287500Y5962500D02*
X-3687500Y5962500D01*
X-1587500Y7262500D02*
X-1587500Y6662500D01*
X-4387500Y7262500D02*
G75*
G02*
X-3687500Y7962500I699999J1D01*
G01*
X-3687500Y5962500D02*
G75*
G02*
X-4387500Y6662500I-1J699999D01*
G01*
X-2287500Y7962500D02*
G75*
G02*
X-1587500Y7262500I0J-700000D01*
G01*
X-1587500Y6662500D02*
G75*
G02*
X-2287500Y5962500I-700000J0D01*
G01*
%TO.C,BT1*%
X11762500Y25462500D02*
X11262500Y25462500D01*
X11262500Y27962500D01*
X11762500Y27962500D01*
X11762500Y25462500D01*
G36*
X11762500Y25462500D02*
G01*
X11262500Y25462500D01*
X11262500Y27962500D01*
X11762500Y27962500D01*
X11762500Y25462500D01*
G37*
X11762500Y-28037500D02*
X11262500Y-28037500D01*
X11262500Y-25537500D01*
X11762500Y-25537500D01*
X11762500Y-28037500D01*
G36*
X11762500Y-28037500D02*
G01*
X11262500Y-28037500D01*
X11262500Y-25537500D01*
X11762500Y-25537500D01*
X11762500Y-28037500D01*
G37*
X12762500Y26462500D02*
X10262500Y26462500D01*
X10262500Y26962500D01*
X12762500Y26962500D01*
X12762500Y26462500D01*
G36*
X12762500Y26462500D02*
G01*
X10262500Y26462500D01*
X10262500Y26962500D01*
X12762500Y26962500D01*
X12762500Y26462500D01*
G37*
X16762500Y-21287500D02*
X6262500Y-21287500D01*
X6262500Y23212500D01*
X16762500Y23212500D01*
X16762500Y-21287500D01*
%TO.C,BT3*%
X-12237500Y25462500D02*
X-12737500Y25462500D01*
X-12737500Y27962500D01*
X-12237500Y27962500D01*
X-12237500Y25462500D01*
G36*
X-12237500Y25462500D02*
G01*
X-12737500Y25462500D01*
X-12737500Y27962500D01*
X-12237500Y27962500D01*
X-12237500Y25462500D01*
G37*
X-12237500Y-28037500D02*
X-12737500Y-28037500D01*
X-12737500Y-25537500D01*
X-12237500Y-25537500D01*
X-12237500Y-28037500D01*
G36*
X-12237500Y-28037500D02*
G01*
X-12737500Y-28037500D01*
X-12737500Y-25537500D01*
X-12237500Y-25537500D01*
X-12237500Y-28037500D01*
G37*
X-11237500Y26462500D02*
X-13737500Y26462500D01*
X-13737500Y26962500D01*
X-11237500Y26962500D01*
X-11237500Y26462500D01*
G36*
X-11237500Y26462500D02*
G01*
X-13737500Y26462500D01*
X-13737500Y26962500D01*
X-11237500Y26962500D01*
X-11237500Y26462500D01*
G37*
X-7237500Y-21287500D02*
X-17737500Y-21287500D01*
X-17737500Y23212500D01*
X-7237500Y23212500D01*
X-7237500Y-21287500D01*
%TO.C,FB1*%
X-27024721Y-5027500D02*
X-27350279Y-5027500D01*
X-27024721Y-6047500D02*
X-27350279Y-6047500D01*
%TO.C,M1*%
X-4387500Y15662500D02*
X-4387500Y16262500D01*
X-3687500Y16962500D02*
X-2287500Y16962500D01*
X-2287500Y14962500D02*
X-3687500Y14962500D01*
X-1587500Y16262500D02*
X-1587500Y15662500D01*
X-4387500Y16262500D02*
G75*
G02*
X-3687500Y16962500I699999J1D01*
G01*
X-3687500Y14962500D02*
G75*
G02*
X-4387500Y15662500I-1J699999D01*
G01*
X-2287500Y16962500D02*
G75*
G02*
X-1587500Y16262500I0J-700000D01*
G01*
X-1587500Y15662500D02*
G75*
G02*
X-2287500Y14962500I-700000J0D01*
G01*
%TD*%
%LPC*%
D12*
%TO.C,SW2*%
X14762500Y-4037500D03*
X8262500Y-4037500D03*
%TD*%
D13*
%TO.C,J2*%
X15957499Y20025927D03*
D14*
X14687499Y20025927D03*
X13417499Y20025927D03*
X12147499Y20025927D03*
X10877499Y20025927D03*
X9607499Y20025927D03*
X8337499Y20025927D03*
X7067499Y20025927D03*
%TD*%
D12*
%TO.C,SW1*%
X14762500Y-11037500D03*
X8262500Y-11037500D03*
%TD*%
D13*
%TO.C,J3*%
X1949072Y14907500D03*
D14*
X1949072Y13637500D03*
X1949072Y12367500D03*
X1949072Y11097500D03*
X1949072Y9827500D03*
X1949072Y8557500D03*
X1949072Y7287500D03*
X1949072Y6017500D03*
%TD*%
D13*
%TO.C,J4*%
X7067500Y899072D03*
D14*
X8337500Y899072D03*
X9607500Y899072D03*
X10877500Y899072D03*
X12147500Y899072D03*
X13417500Y899072D03*
X14687500Y899072D03*
X15957500Y899072D03*
%TD*%
D15*
%TO.C,SW3*%
X3512500Y-7787500D03*
X3512500Y-14287500D03*
%TD*%
D13*
%TO.C,J5*%
X21075927Y6017500D03*
D14*
X21075927Y7287500D03*
X21075927Y8557500D03*
X21075927Y9827500D03*
X21075927Y11097500D03*
X21075927Y12367500D03*
X21075927Y13637500D03*
X21075927Y14907500D03*
%TD*%
D16*
%TO.C,U4*%
X-20987500Y-537500D03*
D17*
X-18987500Y-537500D03*
X-20987500Y-2537500D03*
X-18987500Y-2537500D03*
X-20987500Y-4537500D03*
X-18987500Y-4537500D03*
X-20987500Y-6537500D03*
X-18987500Y-6537500D03*
%TD*%
D18*
%TO.C,SW8*%
X-27187500Y-2537500D03*
X-27187500Y-37500D03*
X-27187500Y2462500D03*
%TD*%
D12*
%TO.C,SW4*%
X14762500Y-18037500D03*
X8262500Y-18037500D03*
%TD*%
D19*
%TO.C,U3*%
X-4297500Y27462500D03*
D20*
X-1757500Y27462500D03*
X782500Y27462500D03*
X3322500Y27462500D03*
%TD*%
D15*
%TO.C,SW5*%
X19512500Y-7787500D03*
X19512500Y-14287500D03*
%TD*%
D21*
%TO.C,U1*%
X15412500Y14162500D03*
%TD*%
D19*
%TO.C,J1*%
X25512500Y7582500D03*
D20*
X25512500Y5042500D03*
X25512500Y2502500D03*
X25512500Y-37500D03*
X25512500Y-2577500D03*
X25512500Y-5117500D03*
X25512500Y-7657500D03*
%TD*%
D22*
%TO.C,C4*%
X-20987500Y9812500D03*
D23*
X-23487500Y9812500D03*
%TD*%
D24*
%TO.C,BT2*%
X-487500Y-24287500D03*
X-487500Y24212500D03*
%TD*%
D25*
%TO.C,3.3V        VBUS*%
X22962500Y-687500D03*
D26*
X22962500Y612500D03*
%TD*%
D27*
%TO.C,M2*%
X-3637500Y11462500D03*
D28*
X-2337500Y11462500D03*
%TD*%
D27*
%TO.C,M3*%
X-3637500Y6962500D03*
D28*
X-2337500Y6962500D03*
%TD*%
D24*
%TO.C,BT1*%
X11512500Y24212500D03*
X11512500Y-24287500D03*
%TD*%
%TO.C,BT3*%
X-12487500Y24212500D03*
X-12487500Y-24287500D03*
%TD*%
D29*
%TO.C,FB1*%
X-27975000Y-5537500D03*
X-26400000Y-5537500D03*
%TD*%
D27*
%TO.C,M1*%
X-3637500Y15962500D03*
D28*
X-2337500Y15962500D03*
%TD*%
%LPD*%
M02*
