%TF.GenerationSoftware,KiCad,Pcbnew,8.0.1*%
%TF.CreationDate,2024-05-14T23:10:40+09:00*%
%TF.ProjectId,main,6d61696e-2e6b-4696-9361-645f70636258,rev?*%
%TF.SameCoordinates,Original*%
%TF.FileFunction,Soldermask,Bot*%
%TF.FilePolarity,Negative*%
%FSLAX46Y46*%
G04 Gerber Fmt 4.6, Leading zero omitted, Abs format (unit mm)*
G04 Created by KiCad (PCBNEW 8.0.1) date 2024-05-14 23:10:40*
%MOMM*%
%LPD*%
G01*
G04 APERTURE LIST*
G04 Aperture macros list*
%AMRoundRect*
0 Rectangle with rounded corners*
0 $1 Rounding radius*
0 $2 $3 $4 $5 $6 $7 $8 $9 X,Y pos of 4 corners*
0 Add a 4 corners polygon primitive as box body*
4,1,4,$2,$3,$4,$5,$6,$7,$8,$9,$2,$3,0*
0 Add four circle primitives for the rounded corners*
1,1,$1+$1,$2,$3*
1,1,$1+$1,$4,$5*
1,1,$1+$1,$6,$7*
1,1,$1+$1,$8,$9*
0 Add four rect primitives between the rounded corners*
20,1,$1+$1,$2,$3,$4,$5,0*
20,1,$1+$1,$4,$5,$6,$7,0*
20,1,$1+$1,$6,$7,$8,$9,0*
20,1,$1+$1,$8,$9,$2,$3,0*%
%AMHorizOval*
0 Thick line with rounded ends*
0 $1 width*
0 $2 $3 position (X,Y) of the first rounded end (center of the circle)*
0 $4 $5 position (X,Y) of the second rounded end (center of the circle)*
0 Add line between two ends*
20,1,$1,$2,$3,$4,$5,0*
0 Add two circle primitives to create the rounded ends*
1,1,$1,$2,$3*
1,1,$1,$4,$5*%
%AMRotRect*
0 Rectangle, with rotation*
0 The origin of the aperture is its center*
0 $1 length*
0 $2 width*
0 $3 Rotation angle, in degrees counterclockwise*
0 Add horizontal line*
21,1,$1,$2,0,0,$3*%
G04 Aperture macros list end*
%ADD10O,2.700000X2.000000*%
%ADD11HorizOval,3.100000X0.424264X0.424264X-0.424264X-0.424264X0*%
%ADD12O,1.700000X1.700000*%
%ADD13R,1.700000X1.700000*%
%ADD14C,1.350000*%
%ADD15O,2.000000X2.700000*%
%ADD16R,3.048000X4.572000*%
%ADD17RoundRect,0.250000X0.450000X-0.262500X0.450000X0.262500X-0.450000X0.262500X-0.450000X-0.262500X0*%
%ADD18RoundRect,0.250000X-0.132583X0.503814X-0.503814X0.132583X0.132583X-0.503814X0.503814X-0.132583X0*%
%ADD19RoundRect,0.250000X-0.250000X-0.475000X0.250000X-0.475000X0.250000X0.475000X-0.250000X0.475000X0*%
%ADD20RoundRect,0.250000X0.475000X-0.250000X0.475000X0.250000X-0.475000X0.250000X-0.475000X-0.250000X0*%
%ADD21C,1.500000*%
%ADD22RoundRect,0.250000X0.262500X0.450000X-0.262500X0.450000X-0.262500X-0.450000X0.262500X-0.450000X0*%
%ADD23RoundRect,0.250000X-0.262500X-0.450000X0.262500X-0.450000X0.262500X0.450000X-0.262500X0.450000X0*%
%ADD24R,1.000000X1.500000*%
%ADD25RotRect,1.700000X1.700000X225.000000*%
%ADD26HorizOval,1.700000X0.000000X0.000000X0.000000X0.000000X0*%
%ADD27RoundRect,0.250000X0.132583X-0.503814X0.503814X-0.132583X-0.132583X0.503814X-0.503814X0.132583X0*%
%ADD28RoundRect,0.218750X-0.218750X-0.256250X0.218750X-0.256250X0.218750X0.256250X-0.218750X0.256250X0*%
G04 APERTURE END LIST*
D10*
%TO.C,SW5*%
X59658237Y-108191763D03*
X59658237Y-114691763D03*
%TD*%
%TO.C,SW3*%
X72658237Y-108191763D03*
X72658237Y-114691763D03*
%TD*%
D11*
%TO.C,U1*%
X79258237Y-77141763D03*
%TD*%
D12*
%TO.C,U2*%
X69978237Y-80916763D03*
X67438237Y-80916763D03*
X64898237Y-80916763D03*
D13*
X62358237Y-80916763D03*
%TD*%
D14*
%TO.C,U4*%
X90158237Y-112441763D03*
X90158236Y-110441763D03*
X92158236Y-112441763D03*
X92158237Y-110441763D03*
X94158237Y-112441763D03*
X94158237Y-110441762D03*
X96158238Y-112441763D03*
X96158237Y-110441763D03*
%TD*%
D15*
%TO.C,SW2*%
X69408237Y-115941763D03*
X62908237Y-115941763D03*
%TD*%
%TO.C,SW1*%
X69408237Y-111441763D03*
X62908237Y-111441763D03*
%TD*%
%TO.C,SW4*%
X69408237Y-107441763D03*
X62908237Y-107441763D03*
%TD*%
D16*
%TO.C,BT1*%
X50918237Y-94941763D03*
X81398237Y-94941763D03*
%TD*%
D17*
%TO.C,R6*%
X74658237Y-112354263D03*
X74658237Y-110529263D03*
%TD*%
D18*
%TO.C,R7*%
X93890470Y-63709530D03*
X92600000Y-65000000D03*
%TD*%
D19*
%TO.C,C6*%
X65208237Y-111441763D03*
X67108237Y-111441763D03*
%TD*%
%TO.C,C9*%
X65208237Y-107441763D03*
X67108237Y-107441763D03*
%TD*%
D20*
%TO.C,C10*%
X59658237Y-112391763D03*
X59658237Y-110491763D03*
%TD*%
D18*
%TO.C,R9*%
X92390470Y-62209530D03*
X91100000Y-63500000D03*
%TD*%
D21*
%TO.C,SW6*%
X93890470Y-68709530D03*
X95658237Y-66941763D03*
X97426004Y-65173996D03*
%TD*%
D22*
%TO.C,R13*%
X110320737Y-84941763D03*
X108495737Y-84941763D03*
%TD*%
D23*
%TO.C,R8*%
X65245737Y-105441763D03*
X67070737Y-105441763D03*
%TD*%
D17*
%TO.C,R11*%
X69978237Y-78329263D03*
X69978237Y-76504263D03*
%TD*%
D19*
%TO.C,C8*%
X65208237Y-115941763D03*
X67108237Y-115941763D03*
%TD*%
D24*
%TO.C,N-R*%
X98058237Y-80441763D03*
X96758237Y-80441763D03*
%TD*%
D23*
%TO.C,R3*%
X65245737Y-117941763D03*
X67070737Y-117941763D03*
%TD*%
D20*
%TO.C,C7*%
X72658237Y-112391763D03*
X72658237Y-110491763D03*
%TD*%
D23*
%TO.C,R1*%
X65245737Y-119941763D03*
X67070737Y-119941763D03*
%TD*%
D17*
%TO.C,R4*%
X57658237Y-112354263D03*
X57658237Y-110529263D03*
%TD*%
D25*
%TO.C,J2*%
X95574517Y-73080583D03*
D26*
X97370568Y-74876634D03*
X99166619Y-76672685D03*
X100962671Y-78468737D03*
X102758722Y-80264788D03*
X104554773Y-82060839D03*
%TD*%
D27*
%TO.C,R5*%
X88309530Y-63290470D03*
X89600000Y-62000000D03*
%TD*%
D24*
%TO.C,N-R*%
X98058237Y-82941763D03*
X96758237Y-82941763D03*
%TD*%
%TO.C,R*%
X113808237Y-82441763D03*
X112508237Y-82441763D03*
%TD*%
D22*
%TO.C,R2*%
X67070737Y-121941763D03*
X65245737Y-121941763D03*
%TD*%
D28*
%TO.C,FB*%
X91370737Y-114691763D03*
X92945737Y-114691763D03*
%TD*%
D22*
%TO.C,R12*%
X110320737Y-82441763D03*
X108495737Y-82441763D03*
%TD*%
D17*
%TO.C,R10*%
X67478237Y-78329263D03*
X67478237Y-76504263D03*
%TD*%
D16*
%TO.C,BT2*%
X84918237Y-94941763D03*
X115398237Y-94941763D03*
%TD*%
D24*
%TO.C,R*%
X113808237Y-84941763D03*
X112508237Y-84941763D03*
%TD*%
M02*
