%TF.GenerationSoftware,KiCad,Pcbnew,8.0.1*%
%TF.CreationDate,2024-08-11T00:03:07+09:00*%
%TF.ProjectId,main,6d61696e-2e6b-4696-9361-645f70636258,rev?*%
%TF.SameCoordinates,Original*%
%TF.FileFunction,Copper,L1,Top*%
%TF.FilePolarity,Positive*%
%FSLAX46Y46*%
G04 Gerber Fmt 4.6, Leading zero omitted, Abs format (unit mm)*
G04 Created by KiCad (PCBNEW 8.0.1) date 2024-08-11 00:03:07*
%MOMM*%
%LPD*%
G01*
G04 APERTURE LIST*
G04 Aperture macros list*
%AMRoundRect*
0 Rectangle with rounded corners*
0 $1 Rounding radius*
0 $2 $3 $4 $5 $6 $7 $8 $9 X,Y pos of 4 corners*
0 Add a 4 corners polygon primitive as box body*
4,1,4,$2,$3,$4,$5,$6,$7,$8,$9,$2,$3,0*
0 Add four circle primitives for the rounded corners*
1,1,$1+$1,$2,$3*
1,1,$1+$1,$4,$5*
1,1,$1+$1,$6,$7*
1,1,$1+$1,$8,$9*
0 Add four rect primitives between the rounded corners*
20,1,$1+$1,$2,$3,$4,$5,0*
20,1,$1+$1,$4,$5,$6,$7,0*
20,1,$1+$1,$6,$7,$8,$9,0*
20,1,$1+$1,$8,$9,$2,$3,0*%
G04 Aperture macros list end*
%TA.AperFunction,SMDPad,CuDef*%
%ADD10RoundRect,0.250000X-0.262500X-0.450000X0.262500X-0.450000X0.262500X0.450000X-0.262500X0.450000X0*%
%TD*%
%TA.AperFunction,SMDPad,CuDef*%
%ADD11RoundRect,0.350000X-0.350000X-0.350000X0.350000X-0.350000X0.350000X0.350000X-0.350000X0.350000X0*%
%TD*%
%TA.AperFunction,SMDPad,CuDef*%
%ADD12RoundRect,0.375000X-0.375000X0.625000X-0.375000X-0.625000X0.375000X-0.625000X0.375000X0.625000X0*%
%TD*%
%TA.AperFunction,SMDPad,CuDef*%
%ADD13RoundRect,0.500000X-1.400000X0.500000X-1.400000X-0.500000X1.400000X-0.500000X1.400000X0.500000X0*%
%TD*%
%TA.AperFunction,SMDPad,CuDef*%
%ADD14RoundRect,0.250000X0.475000X-0.250000X0.475000X0.250000X-0.475000X0.250000X-0.475000X-0.250000X0*%
%TD*%
%TA.AperFunction,SMDPad,CuDef*%
%ADD15RoundRect,0.243750X-0.243750X-0.456250X0.243750X-0.456250X0.243750X0.456250X-0.243750X0.456250X0*%
%TD*%
%TA.AperFunction,ComponentPad*%
%ADD16R,1.000000X1.000000*%
%TD*%
%TA.AperFunction,ComponentPad*%
%ADD17O,1.000000X1.000000*%
%TD*%
%TA.AperFunction,SMDPad,CuDef*%
%ADD18RoundRect,0.250000X-0.475000X0.250000X-0.475000X-0.250000X0.475000X-0.250000X0.475000X0.250000X0*%
%TD*%
%TA.AperFunction,SMDPad,CuDef*%
%ADD19RoundRect,0.250000X-0.450000X0.262500X-0.450000X-0.262500X0.450000X-0.262500X0.450000X0.262500X0*%
%TD*%
%TA.AperFunction,SMDPad,CuDef*%
%ADD20RoundRect,0.250000X0.262500X0.450000X-0.262500X0.450000X-0.262500X-0.450000X0.262500X-0.450000X0*%
%TD*%
%TA.AperFunction,ComponentPad*%
%ADD21O,1.400000X2.100000*%
%TD*%
%TA.AperFunction,SMDPad,CuDef*%
%ADD22RoundRect,0.243750X0.456250X-0.243750X0.456250X0.243750X-0.456250X0.243750X-0.456250X-0.243750X0*%
%TD*%
%TA.AperFunction,SMDPad,CuDef*%
%ADD23RoundRect,0.250000X-0.250000X-0.475000X0.250000X-0.475000X0.250000X0.475000X-0.250000X0.475000X0*%
%TD*%
%TA.AperFunction,ComponentPad*%
%ADD24O,2.100000X1.400000*%
%TD*%
%TA.AperFunction,SMDPad,CuDef*%
%ADD25RoundRect,0.250000X0.450000X-0.262500X0.450000X0.262500X-0.450000X0.262500X-0.450000X-0.262500X0*%
%TD*%
%TA.AperFunction,WasherPad*%
%ADD26O,1.000000X3.000000*%
%TD*%
%TA.AperFunction,WasherPad*%
%ADD27O,3.000000X1.000000*%
%TD*%
%TA.AperFunction,ComponentPad*%
%ADD28R,1.350000X1.350000*%
%TD*%
%TA.AperFunction,ComponentPad*%
%ADD29C,1.350000*%
%TD*%
%TA.AperFunction,ComponentPad*%
%ADD30R,1.700000X1.700000*%
%TD*%
%TA.AperFunction,ComponentPad*%
%ADD31O,1.700000X1.700000*%
%TD*%
%TA.AperFunction,ComponentPad*%
%ADD32C,1.500000*%
%TD*%
%TA.AperFunction,SMDPad,CuDef*%
%ADD33O,0.900000X1.400000*%
%TD*%
%TA.AperFunction,SMDPad,CuDef*%
%ADD34O,1.400000X0.900000*%
%TD*%
%TA.AperFunction,SMDPad,CuDef*%
%ADD35O,1.200000X0.900000*%
%TD*%
%TA.AperFunction,ComponentPad*%
%ADD36R,1.600000X1.600000*%
%TD*%
%TA.AperFunction,ComponentPad*%
%ADD37C,1.600000*%
%TD*%
%TA.AperFunction,ComponentPad*%
%ADD38O,4.500000X1.800000*%
%TD*%
%TA.AperFunction,ViaPad*%
%ADD39C,0.600000*%
%TD*%
%TA.AperFunction,Conductor*%
%ADD40C,1.500000*%
%TD*%
%TA.AperFunction,Conductor*%
%ADD41C,0.500000*%
%TD*%
%TA.AperFunction,Conductor*%
%ADD42C,0.750000*%
%TD*%
G04 APERTURE END LIST*
D10*
%TO.P,R17,1*%
%TO.N,15*%
X2750000Y-17485155D03*
%TO.P,R17,2*%
%TO.N,Net-(D3-A)*%
X4575000Y-17485155D03*
%TD*%
D11*
%TO.P,RST,1,1*%
%TO.N,21*%
X-2000000Y-1200000D03*
%TO.P,RST,2,2*%
%TO.N,GND*%
X4400000Y-1200000D03*
%TD*%
D12*
%TO.P,U2,1,GND*%
%TO.N,GND*%
X-8700000Y16152345D03*
%TO.P,U2,2,VO*%
%TO.N,+3.3V*%
X-11000000Y16152345D03*
D13*
X-11000000Y9852345D03*
D12*
%TO.P,U2,3,VI*%
%TO.N,VCC*%
X-13300000Y16152345D03*
%TD*%
D14*
%TO.P,C7,1*%
%TO.N,Net-(C5-Pad1)*%
X1000000Y-13947655D03*
%TO.P,C7,2*%
%TO.N,16*%
X1000000Y-12047655D03*
%TD*%
D15*
%TO.P,D3,1,K*%
%TO.N,GND*%
X2700000Y-19485155D03*
%TO.P,D3,2,A*%
%TO.N,Net-(D3-A)*%
X4575000Y-19485155D03*
%TD*%
D16*
%TO.P,J2,1,Pin_1*%
%TO.N,1*%
X16444999Y20065772D03*
D17*
%TO.P,J2,2,Pin_2*%
%TO.N,2*%
X15174999Y20065772D03*
%TO.P,J2,3,Pin_3*%
%TO.N,3*%
X13904999Y20065772D03*
%TO.P,J2,4,Pin_4*%
%TO.N,4*%
X12634999Y20065772D03*
%TO.P,J2,5,Pin_5*%
%TO.N,+3.3V*%
X11364999Y20065772D03*
%TO.P,J2,6,Pin_6*%
%TO.N,6*%
X10094999Y20065772D03*
%TO.P,J2,7,Pin_7*%
%TO.N,7*%
X8824999Y20065772D03*
%TO.P,J2,8,Pin_8*%
%TO.N,8*%
X7554999Y20065772D03*
%TD*%
D18*
%TO.P,C10,1*%
%TO.N,+3.3V*%
X5499998Y22789845D03*
%TO.P,C10,2*%
%TO.N,GND*%
X5499998Y20889845D03*
%TD*%
D19*
%TO.P,R13,1*%
%TO.N,GND*%
X23000000Y-8085155D03*
%TO.P,R13,2*%
%TO.N,24*%
X23000000Y-9910155D03*
%TD*%
D20*
%TO.P,R9,1*%
%TO.N,GND*%
X14912500Y-7997655D03*
%TO.P,R9,2*%
%TO.N,18*%
X13087500Y-7997655D03*
%TD*%
D21*
%TO.P,SW1,1,1*%
%TO.N,18*%
X15250000Y-10997655D03*
%TO.P,SW1,2,2*%
%TO.N,Net-(C5-Pad1)*%
X8750000Y-10997655D03*
%TD*%
D10*
%TO.P,R16,1*%
%TO.N,13*%
X-1000000Y-17485155D03*
%TO.P,R16,2*%
%TO.N,Net-(D2-A)*%
X825000Y-17485155D03*
%TD*%
D22*
%TO.P,PWR,1,K*%
%TO.N,GND*%
X-23100000Y3627345D03*
%TO.P,PWR,2,A*%
%TO.N,Net-(D1-A)*%
X-23100000Y5502345D03*
%TD*%
D23*
%TO.P,C8,1*%
%TO.N,Net-(C5-Pad1)*%
X9050000Y-14997655D03*
%TO.P,C8,2*%
%TO.N,19*%
X10950000Y-14997655D03*
%TD*%
D16*
%TO.P,J3,1,Pin_1*%
%TO.N,9*%
X2436572Y14947345D03*
D17*
%TO.P,J3,2,Pin_2*%
%TO.N,10*%
X2436572Y13677345D03*
%TO.P,J3,3,Pin_3*%
%TO.N,11*%
X2436572Y12407345D03*
%TO.P,J3,4,Pin_4*%
%TO.N,12*%
X2436572Y11137345D03*
%TO.P,J3,5,Pin_5*%
%TO.N,13*%
X2436572Y9867345D03*
%TO.P,J3,6,Pin_6*%
%TO.N,14*%
X2436572Y8597345D03*
%TO.P,J3,7,Pin_7*%
%TO.N,15*%
X2436572Y7327345D03*
%TO.P,J3,8,Pin_8*%
%TO.N,16*%
X2436572Y6057345D03*
%TD*%
D10*
%TO.P,R14,1*%
%TO.N,+3.3V*%
X-3412500Y3250000D03*
%TO.P,R14,2*%
%TO.N,Net-(C5-Pad1)*%
X-1587500Y3250000D03*
%TD*%
D16*
%TO.P,J4,1,Pin_1*%
%TO.N,17*%
X7555000Y938917D03*
D17*
%TO.P,J4,2,Pin_2*%
%TO.N,18*%
X8825000Y938917D03*
%TO.P,J4,3,Pin_3*%
%TO.N,19*%
X10095000Y938917D03*
%TO.P,J4,4,Pin_4*%
%TO.N,GND*%
X11365000Y938917D03*
%TO.P,J4,5,Pin_5*%
%TO.N,21*%
X12635000Y938917D03*
%TO.P,J4,6,Pin_6*%
%TO.N,22*%
X13905000Y938917D03*
%TO.P,J4,7,Pin_7*%
%TO.N,23*%
X15175000Y938917D03*
%TO.P,J4,8,Pin_8*%
%TO.N,24*%
X16445000Y938917D03*
%TD*%
D20*
%TO.P,R5,1*%
%TO.N,27*%
X-1587500Y8002345D03*
%TO.P,R5,2*%
%TO.N,Net-(JP4-A)*%
X-3412500Y8002345D03*
%TD*%
D24*
%TO.P,SW3,1,1*%
%TO.N,16*%
X4000000Y-7747655D03*
%TO.P,SW3,2,2*%
%TO.N,Net-(C5-Pad1)*%
X4000000Y-14247655D03*
%TD*%
D15*
%TO.P,D2,1,K*%
%TO.N,GND*%
X-1050000Y-19485155D03*
%TO.P,D2,2,A*%
%TO.N,Net-(D2-A)*%
X825000Y-19485155D03*
%TD*%
D16*
%TO.P,J5,1,Pin_1*%
%TO.N,25*%
X21563427Y6057345D03*
D17*
%TO.P,J5,2,Pin_2*%
%TO.N,26*%
X21563427Y7327345D03*
%TO.P,J5,3,Pin_3*%
%TO.N,27*%
X21563427Y8597345D03*
%TO.P,J5,4,Pin_4*%
%TO.N,GND*%
X21563427Y9867345D03*
%TO.P,J5,5,Pin_5*%
%TO.N,unconnected-(J5-Pin_5-Pad5)*%
X21563427Y11137345D03*
%TO.P,J5,6,Pin_6*%
%TO.N,GND*%
X21563427Y12407345D03*
%TO.P,J5,7,Pin_7*%
X21563427Y13677345D03*
%TO.P,J5,8,Pin_8*%
X21563427Y14947345D03*
%TD*%
D10*
%TO.P,R2,1*%
%TO.N,GND*%
X-3412500Y15002345D03*
%TO.P,R2,2*%
%TO.N,Net-(JP2-A)*%
X-1587500Y15002345D03*
%TD*%
D21*
%TO.P,SW2,1,1*%
%TO.N,25*%
X15250000Y-3997655D03*
%TO.P,SW2,2,2*%
%TO.N,Net-(C5-Pad1)*%
X8750000Y-3997655D03*
%TD*%
D19*
%TO.P,R11,1*%
%TO.N,GND*%
X1000000Y-8085155D03*
%TO.P,R11,2*%
%TO.N,16*%
X1000000Y-9910155D03*
%TD*%
D23*
%TO.P,C6,1*%
%TO.N,Net-(C5-Pad1)*%
X9050000Y-997655D03*
%TO.P,C6,2*%
%TO.N,25*%
X10950000Y-997655D03*
%TD*%
D25*
%TO.P,R7,1*%
%TO.N,+3.3V*%
X-7000000Y24589845D03*
%TO.P,R7,2*%
%TO.N,14*%
X-7000000Y26414845D03*
%TD*%
D10*
%TO.P,R4,1*%
%TO.N,GND*%
X-3412500Y10502345D03*
%TO.P,R4,2*%
%TO.N,Net-(JP3-A)*%
X-1587500Y10502345D03*
%TD*%
%TO.P,R6,1*%
%TO.N,GND*%
X-3412500Y6002345D03*
%TO.P,R6,2*%
%TO.N,Net-(JP4-A)*%
X-1587500Y6002345D03*
%TD*%
D14*
%TO.P,C1,1*%
%TO.N,VCC*%
X-16000000Y15552345D03*
%TO.P,C1,2*%
%TO.N,GND*%
X-16000000Y17452345D03*
%TD*%
D20*
%TO.P,R1,1*%
%TO.N,12*%
X-1587500Y17002345D03*
%TO.P,R1,2*%
%TO.N,Net-(JP2-A)*%
X-3412500Y17002345D03*
%TD*%
D18*
%TO.P,C3,1*%
%TO.N,+3.3V*%
X-11000000Y6952345D03*
%TO.P,C3,2*%
%TO.N,GND*%
X-11000000Y5052345D03*
%TD*%
D26*
%TO.P,U4,*%
%TO.N,*%
X-23700000Y-8997655D03*
D27*
X-13500000Y1202345D03*
X-13500000Y-19197655D03*
D26*
X-3300000Y-8997655D03*
D28*
%TO.P,U4,1,RX*%
%TO.N,RX=GPS*%
X-20500000Y-497655D03*
D29*
%TO.P,U4,2,GND*%
%TO.N,GND*%
X-18500000Y-497655D03*
%TO.P,U4,3,TX*%
%TO.N,TX=GPS*%
X-20500000Y-2497655D03*
%TO.P,U4,4,BATT*%
%TO.N,BATT*%
X-18500000Y-2497655D03*
%TO.P,U4,5,VCC*%
X-20500000Y-4497655D03*
%TO.P,U4,6,NC*%
%TO.N,unconnected-(U4-NC-Pad6)*%
X-18500000Y-4497655D03*
%TO.P,U4,7,NC*%
%TO.N,unconnected-(U4-NC-Pad7)*%
X-20500000Y-6497655D03*
%TO.P,U4,8,NC*%
%TO.N,unconnected-(U4-NC-Pad8)*%
X-18500000Y-6497655D03*
%TD*%
D25*
%TO.P,R8,1*%
%TO.N,+3.3V*%
X7000000Y24589845D03*
%TO.P,R8,2*%
%TO.N,17*%
X7000000Y26414845D03*
%TD*%
D20*
%TO.P,R12,1*%
%TO.N,GND*%
X14912500Y-14997655D03*
%TO.P,R12,2*%
%TO.N,19*%
X13087500Y-14997655D03*
%TD*%
%TO.P,R3,1*%
%TO.N,26*%
X-1587500Y12502345D03*
%TO.P,R3,2*%
%TO.N,Net-(JP3-A)*%
X-3412500Y12502345D03*
%TD*%
D30*
%TO.P,J6,1,Pin_1*%
%TO.N,BATT*%
X-5750000Y-27475000D03*
D31*
%TO.P,J6,2,Pin_2*%
%TO.N,GND*%
X-3210000Y-27475000D03*
%TD*%
D32*
%TO.P,SW8,1,A*%
%TO.N,Net-(SW8-A)*%
X-26700000Y-2497655D03*
%TO.P,SW8,2,B*%
%TO.N,+3.3V*%
X-26700000Y2345D03*
%TO.P,SW8,3,C*%
X-26700000Y2502345D03*
%TD*%
D21*
%TO.P,SW4,1,1*%
%TO.N,19*%
X15250000Y-17997655D03*
%TO.P,SW4,2,2*%
%TO.N,Net-(C5-Pad1)*%
X8750000Y-17997655D03*
%TD*%
D30*
%TO.P,U3,1,GND*%
%TO.N,GND*%
X-3810000Y27502345D03*
D31*
%TO.P,U3,2,VCC*%
%TO.N,+3.3V*%
X-1270000Y27502345D03*
%TO.P,U3,3,SCL*%
%TO.N,14*%
X1270000Y27502345D03*
%TO.P,U3,4,SDA*%
%TO.N,17*%
X3810000Y27502345D03*
%TD*%
D20*
%TO.P,R15,1*%
%TO.N,+3.3V*%
X-18587500Y5502345D03*
%TO.P,R15,2*%
%TO.N,Net-(D1-A)*%
X-20412500Y5502345D03*
%TD*%
D24*
%TO.P,SW5,1,1*%
%TO.N,24*%
X20000000Y-7747655D03*
%TO.P,SW5,2,2*%
%TO.N,Net-(C5-Pad1)*%
X20000000Y-14247655D03*
%TD*%
D33*
%TO.P,U1,1,DO0/PWM2*%
%TO.N,1*%
X16445000Y17237345D03*
%TO.P,U1,2,DO1/PWM3*%
%TO.N,2*%
X15175000Y17237345D03*
%TO.P,U1,3,DIO18/DO1*%
%TO.N,3*%
X13905000Y17237345D03*
%TO.P,U1,4,DIO19/DO2*%
%TO.N,4*%
X12635000Y17237345D03*
%TO.P,U1,5,VCC*%
%TO.N,+3.3V*%
X11365000Y17237345D03*
%TO.P,U1,6,DIO4/DO3*%
%TO.N,6*%
X10095000Y17237345D03*
%TO.P,U1,7,DIO5/PWM1*%
%TO.N,7*%
X8825000Y17237345D03*
%TO.P,U1,8,DIO6/TX*%
%TO.N,8*%
X7555000Y17237345D03*
D34*
%TO.P,U1,9,DIO7/RX*%
%TO.N,9*%
X5265000Y14947345D03*
%TO.P,U1,10,DIO8/PWM4*%
%TO.N,10*%
X5265000Y13677345D03*
%TO.P,U1,11,DIO9/DO4*%
%TO.N,11*%
X5265000Y12407345D03*
%TO.P,U1,12,DIO10/M1*%
%TO.N,12*%
X5265000Y11137345D03*
%TO.P,U1,13,DIO12/DI1*%
%TO.N,13*%
X5265000Y9867345D03*
%TO.P,U1,14,DIO14/SCL*%
%TO.N,14*%
X5265000Y8597345D03*
%TO.P,U1,15,DIO13/DI2*%
%TO.N,15*%
X5265000Y7327345D03*
%TO.P,U1,16,DIO11/DI3*%
%TO.N,16*%
X5265000Y6057345D03*
D33*
%TO.P,U1,17,DIO15/SDA*%
%TO.N,17*%
X7555000Y3767345D03*
%TO.P,U1,18,DIO16/DI4*%
%TO.N,18*%
X8825000Y3767345D03*
%TO.P,U1,19,DIO17/BPS*%
%TO.N,19*%
X10095000Y3767345D03*
%TO.P,U1,20,GND*%
%TO.N,GND*%
X11365000Y3767345D03*
%TO.P,U1,21,~{RESET}*%
%TO.N,21*%
X12635000Y3767345D03*
%TO.P,U1,22,ADC2/AI3*%
%TO.N,22*%
X13905000Y3767345D03*
%TO.P,U1,23,ADC1/AI1*%
%TO.N,23*%
X15175000Y3767345D03*
%TO.P,U1,24,DIO0/AI2*%
%TO.N,24*%
X16445000Y3767345D03*
D34*
%TO.P,U1,25,DIO1/AI4*%
%TO.N,25*%
X18735000Y6057345D03*
%TO.P,U1,26,DIO2/M2*%
%TO.N,26*%
X18735000Y7327345D03*
%TO.P,U1,27,DIO3/M3*%
%TO.N,27*%
X18735000Y8597345D03*
%TO.P,U1,28,GND*%
%TO.N,GND*%
X18735000Y9867345D03*
%TO.P,U1,29,NC*%
%TO.N,unconnected-(U1-NC-Pad29)*%
X18735000Y11137345D03*
%TO.P,U1,30,GND*%
%TO.N,GND*%
X18735000Y12407345D03*
D35*
%TO.P,U1,31,GND*%
X18835000Y13677345D03*
%TO.P,U1,32,GND*%
X18835000Y14947345D03*
%TD*%
D30*
%TO.P,J1,1,Pin_1*%
%TO.N,GND*%
X26000000Y7622345D03*
D31*
%TO.P,J1,2,Pin_2*%
%TO.N,8*%
X26000000Y5082345D03*
%TO.P,J1,3,Pin_3*%
%TO.N,2*%
X26000000Y2542345D03*
%TO.P,J1,4,Pin_4*%
%TO.N,9*%
X26000000Y2345D03*
%TO.P,J1,5,Pin_5*%
%TO.N,21*%
X26000000Y-2537655D03*
%TO.P,J1,6,Pin_6*%
%TO.N,VBUS*%
X26000000Y-5077655D03*
%TO.P,J1,7,Pin_7*%
%TO.N,unconnected-(J1-Pin_7-Pad7)*%
X26000000Y-7617655D03*
%TD*%
D20*
%TO.P,R10,1*%
%TO.N,GND*%
X14912500Y-997655D03*
%TO.P,R10,2*%
%TO.N,25*%
X13087500Y-997655D03*
%TD*%
D23*
%TO.P,C5,1*%
%TO.N,Net-(C5-Pad1)*%
X9050000Y-7997655D03*
%TO.P,C5,2*%
%TO.N,18*%
X10950000Y-7997655D03*
%TD*%
D18*
%TO.P,C2,1*%
%TO.N,VCC*%
X-16000000Y13952345D03*
%TO.P,C2,2*%
%TO.N,GND*%
X-16000000Y12052345D03*
%TD*%
D14*
%TO.P,C9,1*%
%TO.N,Net-(C5-Pad1)*%
X23000000Y-13947655D03*
%TO.P,C9,2*%
%TO.N,24*%
X23000000Y-12047655D03*
%TD*%
D36*
%TO.P,C4,1*%
%TO.N,+3.3V*%
X-20500000Y9852345D03*
D37*
%TO.P,C4,2*%
%TO.N,GND*%
X-23000000Y9852345D03*
%TD*%
D38*
%TO.P,BT2,1,+*%
%TO.N,Net-(BT2-+)*%
X0Y-24247655D03*
%TO.P,BT2,2,-*%
%TO.N,Net-(BT1-+)*%
X0Y24252345D03*
%TD*%
%TO.P,BT1,1,+*%
%TO.N,Net-(BT1-+)*%
X12000000Y24252345D03*
%TO.P,BT1,2,-*%
%TO.N,GND*%
X12000000Y-24247655D03*
%TD*%
%TO.P,BT3,1,+*%
%TO.N,VCC*%
X-12000000Y24252345D03*
%TO.P,BT3,2,-*%
%TO.N,Net-(BT2-+)*%
X-12000000Y-24247655D03*
%TD*%
D39*
%TO.N,GND*%
X-2000000Y-4000000D03*
X16500000Y-7997655D03*
X-4500000Y6002345D03*
X16500000Y-14997655D03*
X12000000Y9502345D03*
X13000000Y9502345D03*
X11000000Y9502345D03*
X12000000Y11502345D03*
X-1000000Y-5000000D03*
X11000000Y11502345D03*
X-4500000Y10502345D03*
X12000000Y10502345D03*
X13000000Y11502345D03*
X0Y-6000000D03*
X-3000000Y-3000000D03*
X13000000Y10502345D03*
X11000000Y10502345D03*
%TO.N,+3.3V*%
X7000000Y22802345D03*
X-4497655Y3250000D03*
%TO.N,8*%
X1775000Y-4525000D03*
X-6284669Y-952324D03*
X25150000Y1252345D03*
X-22750000Y-13097655D03*
%TO.N,9*%
X-8750000Y-997655D03*
X-15949997Y-13097655D03*
X1750000Y-5750000D03*
%TO.N,21*%
X20999998Y-3997655D03*
X17525998Y2288347D03*
X1200000Y-1200000D03*
%TO.N,Net-(JP2-A)*%
X-4500000Y16002345D03*
%TO.N,Net-(JP3-A)*%
X-4500000Y11502345D03*
%TO.N,Net-(JP4-A)*%
X-4500000Y7002345D03*
%TO.N,14*%
X3486572Y16223842D03*
%TO.N,26*%
X250000Y9752345D03*
X250000Y5000000D03*
X4750000Y3752345D03*
%TO.N,27*%
X4750000Y5002345D03*
%TO.N,16*%
X8160000Y6032345D03*
%TO.N,12*%
X736572Y13179303D03*
%TO.N,BATT*%
X-5750000Y-15250000D03*
%TO.N,TX=GPS*%
X-16750000Y-13097655D03*
%TD*%
D40*
%TO.N,VCC*%
X-13300000Y16152345D02*
X-13300000Y22952345D01*
X-16000000Y13952345D02*
X-16000000Y15552345D01*
X-13300000Y16152345D02*
X-15500000Y13952345D01*
X-13300000Y22952345D02*
X-12000000Y24252345D01*
X-15500000Y13952345D02*
X-16000000Y13952345D01*
D41*
%TO.N,GND*%
X-3412500Y6002345D02*
X-4500000Y6002345D01*
D42*
%TO.N,+3.3V*%
X5512498Y22802345D02*
X5499998Y22789845D01*
X-26700000Y3766987D02*
X-20614642Y9852345D01*
X11365000Y17237345D02*
X11365000Y16807776D01*
D40*
X-20500000Y9852345D02*
X-11000000Y9852345D01*
X-11000000Y20589845D02*
X-7000000Y24589845D01*
D42*
X-11000000Y9852345D02*
X-11000000Y6952345D01*
D40*
X-7000000Y24589845D02*
X-3628795Y24589845D01*
X-11000000Y16152345D02*
X-11000000Y9852345D01*
D42*
X-14237500Y9852345D02*
X-11000000Y9852345D01*
D40*
X-3628795Y24589845D02*
X-1270000Y26948640D01*
D42*
X-26700000Y2502345D02*
X-26700000Y3766987D01*
X7000000Y22802345D02*
X5512498Y22802345D01*
X-20614642Y9852345D02*
X-20500000Y9852345D01*
X7000000Y22802345D02*
X7000000Y24589845D01*
X-18587500Y5502345D02*
X-14237500Y9852345D01*
D41*
X11365000Y20065772D02*
X11364999Y17237345D01*
D40*
X-1270000Y26948640D02*
X-1270000Y27502345D01*
D42*
X-18587500Y5502345D02*
X-18587500Y5441191D01*
D40*
X-11000000Y16152345D02*
X-11000000Y20589845D01*
D42*
X-4497655Y3250000D02*
X-3412500Y3250000D01*
X-26700000Y2345D02*
X-26700000Y2502345D01*
D41*
%TO.N,2*%
X15174999Y20695772D02*
X15494999Y21015772D01*
X24700000Y3842345D02*
X26000000Y2542345D01*
X15174999Y20065772D02*
X15174999Y17237345D01*
X24700000Y13710771D02*
X24700000Y3842345D01*
X15174999Y20065772D02*
X15174999Y20695772D01*
X17394999Y21015772D02*
X24700000Y13710771D01*
X15494999Y21015772D02*
X17394999Y21015772D01*
%TO.N,8*%
X23977373Y1250000D02*
X25147655Y1250000D01*
X-22000000Y-13847655D02*
X-22750000Y-13097655D01*
X1775000Y-4525000D02*
X3147655Y-5897655D01*
X-8510050Y-1747655D02*
X-15199997Y-8437602D01*
X-16260658Y-13847655D02*
X-16349999Y-13758314D01*
X-7714719Y-952324D02*
X-8000000Y-1237605D01*
X-15199997Y-8437602D02*
X-15199997Y-13408316D01*
X-16349999Y-13758314D02*
X-16439339Y-13847655D01*
X-16439339Y-13847655D02*
X-22000000Y-13847655D01*
X-8000000Y-1308316D02*
X-8439339Y-1747655D01*
X7555000Y17237345D02*
X7555000Y20065772D01*
X-8439339Y-1747655D02*
X-8510050Y-1747655D01*
X-6284669Y-952324D02*
X-7714719Y-952324D01*
X3147655Y-5897655D02*
X16829718Y-5897655D01*
X16829718Y-5897655D02*
X23977373Y1250000D01*
X25147655Y1250000D02*
X25150000Y1252345D01*
X-15639336Y-13847655D02*
X-16260658Y-13847655D01*
X-8000000Y-1237605D02*
X-8000000Y-1308316D01*
X-15199997Y-13408316D02*
X-15639336Y-13847655D01*
%TO.N,9*%
X-15949997Y-8197652D02*
X-8750000Y-997655D01*
X2597655Y-6597655D02*
X17119667Y-6597655D01*
X23719667Y2345D02*
X26000000Y2345D01*
X2436572Y14947345D02*
X5264999Y14947345D01*
X17119667Y-6597655D02*
X23719667Y2345D01*
X1750000Y-5750000D02*
X2597655Y-6597655D01*
X-15949997Y-13097655D02*
X-15949997Y-8197652D01*
%TO.N,21*%
X17525998Y4209139D02*
X16817792Y4917345D01*
X1150000Y-1250000D02*
X-1950000Y-1250000D01*
X13532208Y4917345D02*
X12635000Y4020137D01*
X20999998Y-3997655D02*
X22459998Y-2537655D01*
X22459998Y-2537655D02*
X26000000Y-2537655D01*
X17525998Y2288347D02*
X17525998Y4209139D01*
X12635000Y4020137D02*
X12635000Y3767345D01*
X16817792Y4917345D02*
X13532208Y4917345D01*
X1200000Y-1200000D02*
X1150000Y-1250000D01*
X12635000Y3767345D02*
X12634999Y938917D01*
%TO.N,13*%
X-5534669Y-2984308D02*
X-5534669Y2047064D01*
X-1925000Y-16560155D02*
X-1925000Y-6593977D01*
X-625000Y12855414D02*
X2363069Y9867345D01*
X-1925000Y-6593977D02*
X-5534669Y-2984308D01*
X-1140622Y13764845D02*
X-625000Y13249223D01*
X2436572Y9867345D02*
X5265000Y9867345D01*
X-625000Y13249223D02*
X-625000Y12855414D01*
X-3859378Y13764845D02*
X-1140622Y13764845D01*
X-5534669Y2047064D02*
X-6560000Y3072395D01*
X2363069Y9867345D02*
X2436572Y9867345D01*
X-6560000Y11064223D02*
X-3859378Y13764845D01*
X-6560000Y3072395D02*
X-6560000Y11064223D01*
X-1000000Y-17485155D02*
X-1925000Y-16560155D01*
%TO.N,Net-(JP2-A)*%
X-1587500Y15089845D02*
X-1587500Y15002345D01*
X-4500000Y16002345D02*
X-3500000Y17002345D01*
X-3500000Y17002345D02*
X-3412500Y17002345D01*
X-3412500Y16914845D02*
X-1587500Y15089845D01*
X-3412500Y17002345D02*
X-3412500Y16914845D01*
%TO.N,Net-(JP3-A)*%
X-4500000Y11502345D02*
X-3500000Y12502345D01*
X-3500000Y12502345D02*
X-3412500Y12502345D01*
X-1587500Y10677345D02*
X-1587500Y10502345D01*
X-3412500Y12502345D02*
X-1587500Y10677345D01*
%TO.N,Net-(JP4-A)*%
X-3412500Y8002345D02*
X-3412500Y7914845D01*
X-4500000Y7002345D02*
X-3500000Y8002345D01*
X-1587500Y6089845D02*
X-1587500Y6002345D01*
X-3412500Y7914845D02*
X-1587500Y6089845D01*
X-3500000Y8002345D02*
X-3412500Y8002345D01*
%TO.N,14*%
X1270000Y27502345D02*
X-30000Y28802345D01*
X-5110000Y28802345D02*
X-7000000Y26912345D01*
X2436572Y8597345D02*
X2363069Y8597345D01*
X-30000Y28802345D02*
X-5110000Y28802345D01*
X2700000Y17202345D02*
X2700000Y26072345D01*
X2700000Y26072345D02*
X1270000Y27502345D01*
X-7000000Y26912345D02*
X-7000000Y26414845D01*
X2700000Y17010414D02*
X3486572Y16223842D01*
X2700000Y17202345D02*
X2700000Y17010414D01*
X5264999Y8597345D02*
X2436572Y8597345D01*
%TO.N,17*%
X3810000Y27502345D02*
X5912500Y27502345D01*
X8910000Y6343006D02*
X6415000Y8838006D01*
X6415000Y8838006D02*
X6415000Y15320137D01*
X8910000Y5721684D02*
X8910000Y6343006D01*
X7555000Y3767345D02*
X7555000Y4366684D01*
X7555000Y938917D02*
X7555000Y3767344D01*
X3810000Y17925137D02*
X3810000Y27502345D01*
X5912500Y27502345D02*
X7000000Y26414845D01*
X6415000Y15320137D02*
X3810000Y17925137D01*
X7555000Y4366684D02*
X8910000Y5721684D01*
%TO.N,1*%
X16444999Y17237345D02*
X16444999Y20065772D01*
%TO.N,11*%
X2436572Y12407345D02*
X5264999Y12407345D01*
%TO.N,3*%
X13905000Y17237345D02*
X13905000Y20065772D01*
%TO.N,15*%
X-4834669Y2337013D02*
X-4834669Y-2694358D01*
X-5860000Y3362345D02*
X-4834669Y2337013D01*
X2436572Y7327345D02*
X796878Y7327345D01*
X-1175000Y-6354027D02*
X-1175000Y-13572655D01*
X-4834669Y-2694358D02*
X-1175000Y-6354027D01*
X-5860000Y7392345D02*
X-5860000Y3362345D01*
X-4050000Y9202345D02*
X-5860000Y7392345D01*
X2436572Y7327344D02*
X5265000Y7327345D01*
X2737500Y-17485155D02*
X2750000Y-17485155D01*
X796878Y7327345D02*
X-1078122Y9202345D01*
X-1078122Y9202345D02*
X-4050000Y9202345D01*
X-1175000Y-13572655D02*
X2737500Y-17485155D01*
%TO.N,24*%
X23000000Y-9910155D02*
X22162500Y-9910155D01*
X22162500Y-9910155D02*
X20000000Y-7747655D01*
X23000000Y-12047655D02*
X23000000Y-9910155D01*
X16444999Y3767344D02*
X16444999Y938917D01*
%TO.N,22*%
X13905000Y3767344D02*
X13905000Y938917D01*
%TO.N,26*%
X250000Y9752345D02*
X250000Y10664845D01*
X1497655Y3752345D02*
X4750000Y3752345D01*
X250000Y5000000D02*
X1497655Y3752345D01*
X250000Y10664845D02*
X-1587500Y12502345D01*
X18734999Y7327345D02*
X21563427Y7327346D01*
%TO.N,4*%
X12634999Y20065772D02*
X12635000Y17237345D01*
%TO.N,7*%
X8824999Y20065772D02*
X8825000Y17237345D01*
%TO.N,27*%
X4750000Y5002345D02*
X1412500Y5002345D01*
X1412500Y5002345D02*
X-1587500Y8002345D01*
X18735000Y8597345D02*
X21563427Y8597345D01*
%TO.N,19*%
X10094999Y3767344D02*
X10094999Y938917D01*
X13087500Y-14997655D02*
X10950000Y-14997655D01*
X13087500Y-14997655D02*
X13087500Y-15835155D01*
X13087500Y-15835155D02*
X15250000Y-17997655D01*
%TO.N,18*%
X8825000Y3767345D02*
X8825000Y938917D01*
X13087500Y-8835155D02*
X15250000Y-10997655D01*
X13087500Y-7997655D02*
X13087500Y-8835155D01*
X13087500Y-7997655D02*
X10950000Y-7997655D01*
%TO.N,6*%
X10094999Y17237345D02*
X10094999Y20065772D01*
%TO.N,23*%
X15174999Y3767345D02*
X15175000Y938917D01*
%TO.N,16*%
X3162500Y-7747655D02*
X4000000Y-7747655D01*
X5290000Y6032345D02*
X5265000Y6057345D01*
X8160000Y6032345D02*
X5290000Y6032345D01*
X1000000Y-9910155D02*
X3162500Y-7747655D01*
X5264999Y6057345D02*
X2436572Y6057345D01*
X1000000Y-11547655D02*
X1000000Y-9910155D01*
%TO.N,12*%
X736572Y14678273D02*
X-1587500Y17002345D01*
X5265000Y11137345D02*
X2436572Y11137344D01*
X736572Y13179303D02*
X736572Y14678273D01*
%TO.N,25*%
X13087500Y-997655D02*
X10950000Y-997655D01*
X21563427Y2315772D02*
X15250000Y-3997655D01*
X13087500Y-997655D02*
X13087500Y-1835155D01*
X13087500Y-1835155D02*
X15250000Y-3997655D01*
X21563427Y6057345D02*
X21563427Y2315772D01*
X18735000Y6057345D02*
X21563427Y6057345D01*
%TO.N,10*%
X5265000Y13677345D02*
X2436572Y13677344D01*
%TO.N,Net-(C5-Pad1)*%
X4000000Y-14247655D02*
X3700000Y-13947655D01*
X20300000Y-13947655D02*
X23000000Y-13947655D01*
X20000000Y-14247655D02*
X18900000Y-13147655D01*
X8750000Y-17997655D02*
X9050000Y-17697655D01*
X10900000Y-13147655D02*
X9050000Y-14997655D01*
X9050000Y-11297655D02*
X9050000Y-14997655D01*
X-1587500Y3250000D02*
X1010050Y3250000D01*
X9050000Y-17697655D02*
X9050000Y-14997655D01*
X4568628Y1183717D02*
X6750000Y-997655D01*
X3700000Y-13947655D02*
X1000000Y-13947655D01*
X18900000Y-13147655D02*
X10900000Y-13147655D01*
X4000000Y-14247655D02*
X7750000Y-17997655D01*
X7750000Y-17997655D02*
X8750000Y-17997655D01*
X8750000Y-10997655D02*
X9050000Y-10697655D01*
X8750000Y-3997655D02*
X9050000Y-3697655D01*
X8750000Y-10997655D02*
X9050000Y-11297655D01*
X3076333Y1183717D02*
X4568628Y1183717D01*
X9050000Y-10697655D02*
X9050000Y-7997655D01*
X1010050Y3250000D02*
X3076333Y1183717D01*
X20000000Y-14247655D02*
X20300000Y-13947655D01*
X9050000Y-3697655D02*
X9050000Y-997655D01*
X6750000Y-997655D02*
X9050000Y-997655D01*
D42*
%TO.N,Net-(D1-A)*%
X-20412500Y5502345D02*
X-23100000Y5502345D01*
D41*
%TO.N,Net-(D2-A)*%
X825000Y-19485155D02*
X825000Y-17485155D01*
%TO.N,Net-(D3-A)*%
X4575000Y-17485155D02*
X4575000Y-19485155D01*
%TO.N,BATT*%
X-5750000Y-15247655D02*
X-5750000Y-15250000D01*
X-20500000Y-4497655D02*
X-18500000Y-2497655D01*
X-5750000Y-15247655D02*
X-5750000Y-27475000D01*
%TO.N,TX=GPS*%
X-21625000Y-3622655D02*
X-20500000Y-2497655D01*
X-16750000Y-13097655D02*
X-21625000Y-8222655D01*
X-21625000Y-8222655D02*
X-21625000Y-3622655D01*
%TD*%
%TA.AperFunction,Conductor*%
%TO.N,GND*%
G36*
X942539Y32444637D02*
G01*
X988294Y32391833D01*
X999500Y32340322D01*
X999500Y30363318D01*
X999567Y30362287D01*
X999575Y30352899D01*
X1027482Y30187510D01*
X1082529Y30029092D01*
X1163182Y29882049D01*
X1163185Y29882044D01*
X1267196Y29750475D01*
X1391660Y29638060D01*
X1533099Y29547936D01*
X1533101Y29547934D01*
X1533103Y29547934D01*
X1589457Y29524104D01*
X1687569Y29482616D01*
X1687577Y29482613D01*
X1850769Y29443922D01*
X1860293Y29443287D01*
X1861275Y29443158D01*
X1933302Y29438425D01*
X1935508Y29438260D01*
X2981574Y29350741D01*
X2985978Y29350294D01*
X4027218Y29225617D01*
X4031603Y29225012D01*
X5067693Y29063257D01*
X5072054Y29062496D01*
X6101712Y28863864D01*
X6106043Y28862948D01*
X7127963Y28627689D01*
X7132258Y28626619D01*
X8145110Y28355040D01*
X8149364Y28353818D01*
X9151915Y28046250D01*
X9156124Y28044876D01*
X10147023Y27701732D01*
X10151179Y27700209D01*
X11129213Y27321913D01*
X11133312Y27320243D01*
X12097236Y26907270D01*
X12101273Y26905454D01*
X13049802Y26458361D01*
X13053772Y26456403D01*
X13985783Y25975717D01*
X13989680Y25973618D01*
X14903922Y25459981D01*
X14907742Y25457744D01*
X15803046Y24911818D01*
X15806784Y24909447D01*
X16682088Y24331876D01*
X16685738Y24329372D01*
X17539814Y23720967D01*
X17543373Y23718335D01*
X18375220Y23079811D01*
X18378683Y23077053D01*
X19187191Y22409259D01*
X19190553Y22406380D01*
X19974735Y21710133D01*
X19977992Y21707135D01*
X20736803Y20983363D01*
X20739951Y20980251D01*
X21472446Y20229855D01*
X21475481Y20226633D01*
X22180729Y19450568D01*
X22183647Y19447240D01*
X22860750Y18646493D01*
X22863548Y18643062D01*
X23511640Y17818655D01*
X23514313Y17815127D01*
X24132578Y16968099D01*
X24135123Y16964477D01*
X24722733Y16095965D01*
X24725148Y16092255D01*
X25281394Y15203307D01*
X25283675Y15199514D01*
X25807852Y14291256D01*
X25809996Y14287383D01*
X26301416Y13361000D01*
X26303420Y13357053D01*
X26761457Y12413733D01*
X26763319Y12409717D01*
X27187402Y11450634D01*
X27189119Y11446554D01*
X27578686Y10472981D01*
X27580257Y10468843D01*
X27934830Y9481975D01*
X27936253Y9477783D01*
X28255393Y8478838D01*
X28256664Y8474598D01*
X28539927Y7464964D01*
X28541047Y7460681D01*
X28788101Y6441548D01*
X28789067Y6437229D01*
X28999591Y5409919D01*
X29000402Y5405567D01*
X29174123Y4371406D01*
X29174778Y4367028D01*
X29311473Y3327350D01*
X29311972Y3322952D01*
X29411476Y2279016D01*
X29411817Y2274602D01*
X29473996Y1227795D01*
X29474179Y1223373D01*
X29498954Y175045D01*
X29498980Y170618D01*
X29486322Y-877951D01*
X29486190Y-882375D01*
X29448752Y-1665495D01*
X29437112Y-1908983D01*
X29436115Y-1929828D01*
X29435821Y-1934281D01*
X29346694Y-2995915D01*
X29346237Y-3000388D01*
X29218674Y-4058089D01*
X29218055Y-4062544D01*
X29052217Y-5114954D01*
X29051436Y-5119382D01*
X28847556Y-6165036D01*
X28846616Y-6169434D01*
X28604940Y-7207056D01*
X28603840Y-7211417D01*
X28324708Y-8239559D01*
X28323451Y-8243877D01*
X28007222Y-9261217D01*
X28005810Y-9265486D01*
X27652887Y-10270722D01*
X27651320Y-10274938D01*
X27262193Y-11266680D01*
X27260475Y-11270836D01*
X26835629Y-12247842D01*
X26833761Y-12251933D01*
X26373770Y-13212886D01*
X26371755Y-13216906D01*
X25877232Y-14160524D01*
X25875073Y-14164469D01*
X25346644Y-15089563D01*
X25344343Y-15093427D01*
X24782717Y-15998748D01*
X24780277Y-16002526D01*
X24186202Y-16886873D01*
X24183627Y-16890560D01*
X23557868Y-17752792D01*
X23555161Y-17756383D01*
X22898562Y-18595341D01*
X22895727Y-18598832D01*
X22209111Y-19413460D01*
X22206151Y-19416845D01*
X21490467Y-20206017D01*
X21487386Y-20209293D01*
X20743546Y-20972005D01*
X20740348Y-20975167D01*
X19969353Y-21710392D01*
X19966043Y-21713436D01*
X19168878Y-22420237D01*
X19165459Y-22423159D01*
X18343206Y-23100574D01*
X18339684Y-23103370D01*
X17493410Y-23750521D01*
X17489789Y-23753188D01*
X16620569Y-24369253D01*
X16616853Y-24371786D01*
X15725924Y-24955888D01*
X15722119Y-24958286D01*
X14810527Y-25509738D01*
X14806637Y-25511995D01*
X13875709Y-26029995D01*
X13871741Y-26032110D01*
X12922613Y-26516028D01*
X12918570Y-26517998D01*
X11952519Y-26967181D01*
X11948407Y-26969003D01*
X10966694Y-27382864D01*
X10962519Y-27384535D01*
X9966476Y-27762514D01*
X9962244Y-27764033D01*
X8953129Y-28105653D01*
X8948843Y-28107018D01*
X7928001Y-28411822D01*
X7923670Y-28413030D01*
X6892441Y-28680618D01*
X6888068Y-28681668D01*
X5847861Y-28911675D01*
X5843453Y-28912567D01*
X4795512Y-29104718D01*
X4791075Y-29105448D01*
X3736933Y-29259463D01*
X3732472Y-29260033D01*
X2673380Y-29375727D01*
X2668901Y-29376134D01*
X1606324Y-29453348D01*
X1601833Y-29453592D01*
X537194Y-29492222D01*
X532698Y-29492304D01*
X-532698Y-29492304D01*
X-537194Y-29492222D01*
X-1601833Y-29453592D01*
X-1606324Y-29453348D01*
X-2668901Y-29376134D01*
X-2673380Y-29375727D01*
X-3732472Y-29260033D01*
X-3736933Y-29259463D01*
X-4791075Y-29105448D01*
X-4795511Y-29104718D01*
X-4976863Y-29071466D01*
X-5039253Y-29040013D01*
X-5074735Y-28979823D01*
X-5072043Y-28910006D01*
X-5032031Y-28852727D01*
X-4967405Y-28826172D01*
X-4954500Y-28825499D01*
X-4852129Y-28825499D01*
X-4852128Y-28825499D01*
X-4803757Y-28820299D01*
X-4792516Y-28819091D01*
X-4657671Y-28768797D01*
X-4657664Y-28768793D01*
X-4542455Y-28682547D01*
X-4542452Y-28682544D01*
X-4456206Y-28567335D01*
X-4456202Y-28567328D01*
X-4405908Y-28432482D01*
X-4399501Y-28372883D01*
X-4399500Y-28372881D01*
X-4399500Y-28372873D01*
X-4399500Y-27493061D01*
X-4399500Y-26577129D01*
X-4399501Y-26577123D01*
X-4405908Y-26517516D01*
X-4456202Y-26382671D01*
X-4456206Y-26382664D01*
X-4542452Y-26267455D01*
X-4542455Y-26267452D01*
X-4657664Y-26181206D01*
X-4657671Y-26181202D01*
X-4792517Y-26130908D01*
X-4792516Y-26130908D01*
X-4852116Y-26124501D01*
X-4852119Y-26124500D01*
X-4852127Y-26124500D01*
X-4852135Y-26124500D01*
X-4875500Y-26124500D01*
X-4942539Y-26104815D01*
X-4988294Y-26052011D01*
X-4999500Y-26000500D01*
X-4999500Y-24357877D01*
X-2750500Y-24357877D01*
X-2716015Y-24575606D01*
X-2647895Y-24785261D01*
X-2547815Y-24981677D01*
X-2418242Y-25160020D01*
X-2262365Y-25315897D01*
X-2084022Y-25445470D01*
X-1887606Y-25545550D01*
X-1677951Y-25613670D01*
X-1460222Y-25648155D01*
X-1460221Y-25648155D01*
X1460221Y-25648155D01*
X1460222Y-25648155D01*
X1677951Y-25613670D01*
X1887606Y-25545550D01*
X2084022Y-25445470D01*
X2262365Y-25315897D01*
X2418242Y-25160020D01*
X2547815Y-24981677D01*
X2647895Y-24785261D01*
X2716015Y-24575606D01*
X2750500Y-24357877D01*
X2750500Y-24137433D01*
X2716015Y-23919704D01*
X2681955Y-23814876D01*
X2647896Y-23710051D01*
X2647895Y-23710048D01*
X2613237Y-23642030D01*
X2547815Y-23513633D01*
X2430696Y-23352431D01*
X2418247Y-23335296D01*
X2418243Y-23335291D01*
X2262363Y-23179411D01*
X2262358Y-23179407D01*
X2084025Y-23049842D01*
X2084024Y-23049841D01*
X2084022Y-23049840D01*
X2021096Y-23017777D01*
X1887606Y-22949759D01*
X1887603Y-22949758D01*
X1677952Y-22881640D01*
X1569086Y-22864397D01*
X1460222Y-22847155D01*
X-1460222Y-22847155D01*
X-1569086Y-22864397D01*
X-1677952Y-22881640D01*
X-1887603Y-22949758D01*
X-1887606Y-22949759D01*
X-2021096Y-23017777D01*
X-2084022Y-23049840D01*
X-2084024Y-23049841D01*
X-2084025Y-23049842D01*
X-2262358Y-23179407D01*
X-2262363Y-23179411D01*
X-2418243Y-23335291D01*
X-2418247Y-23335296D01*
X-2430696Y-23352431D01*
X-2547815Y-23513633D01*
X-2613237Y-23642030D01*
X-2647895Y-23710048D01*
X-2647896Y-23710051D01*
X-2681955Y-23814876D01*
X-2716015Y-23919704D01*
X-2750500Y-24137433D01*
X-2750500Y-24357877D01*
X-4999500Y-24357877D01*
X-4999500Y-15549972D01*
X-4992542Y-15509017D01*
X-4964631Y-15429254D01*
X-4964630Y-15429249D01*
X-4944435Y-15250003D01*
X-4944435Y-15249996D01*
X-4964630Y-15070750D01*
X-4964631Y-15070745D01*
X-5024211Y-14900476D01*
X-5120184Y-14747737D01*
X-5247737Y-14620184D01*
X-5400476Y-14524211D01*
X-5570745Y-14464631D01*
X-5570750Y-14464630D01*
X-5749996Y-14444435D01*
X-5750004Y-14444435D01*
X-5929249Y-14464630D01*
X-5929254Y-14464631D01*
X-6099523Y-14524211D01*
X-6216691Y-14597833D01*
X-6252262Y-14620184D01*
X-6379816Y-14747738D01*
X-6475789Y-14900478D01*
X-6521016Y-15029729D01*
X-6535368Y-15070745D01*
X-6535369Y-15070750D01*
X-6555565Y-15249996D01*
X-6555565Y-15250003D01*
X-6536569Y-15418595D01*
X-6535368Y-15429255D01*
X-6516046Y-15484474D01*
X-6507458Y-15509017D01*
X-6500500Y-15549972D01*
X-6500500Y-26000500D01*
X-6520185Y-26067539D01*
X-6572989Y-26113294D01*
X-6624495Y-26124500D01*
X-6647867Y-26124500D01*
X-6647876Y-26124501D01*
X-6707483Y-26130908D01*
X-6842328Y-26181202D01*
X-6842335Y-26181206D01*
X-6957544Y-26267452D01*
X-6957547Y-26267455D01*
X-7043793Y-26382664D01*
X-7043795Y-26382668D01*
X-7043796Y-26382669D01*
X-7094091Y-26517517D01*
X-7100500Y-26577127D01*
X-7100499Y-28372872D01*
X-7094091Y-28432483D01*
X-7094090Y-28432485D01*
X-7094090Y-28432487D01*
X-7092308Y-28440031D01*
X-7095449Y-28440773D01*
X-7091462Y-28495639D01*
X-7124877Y-28557000D01*
X-7186162Y-28590555D01*
X-7243802Y-28589444D01*
X-7923669Y-28413030D01*
X-7928001Y-28411822D01*
X-8948843Y-28107018D01*
X-8953129Y-28105653D01*
X-9962244Y-27764033D01*
X-9966476Y-27762514D01*
X-10962519Y-27384535D01*
X-10966694Y-27382864D01*
X-11948407Y-26969003D01*
X-11952519Y-26967181D01*
X-12918570Y-26517998D01*
X-12922613Y-26516028D01*
X-13871741Y-26032110D01*
X-13875709Y-26029995D01*
X-14806637Y-25511995D01*
X-14810527Y-25509738D01*
X-15722119Y-24958286D01*
X-15725924Y-24955888D01*
X-16616853Y-24371786D01*
X-16620569Y-24369253D01*
X-16636620Y-24357877D01*
X-14750500Y-24357877D01*
X-14716015Y-24575606D01*
X-14647895Y-24785261D01*
X-14547815Y-24981677D01*
X-14418242Y-25160020D01*
X-14262365Y-25315897D01*
X-14084022Y-25445470D01*
X-13887606Y-25545550D01*
X-13677951Y-25613670D01*
X-13460222Y-25648155D01*
X-13460221Y-25648155D01*
X-10539779Y-25648155D01*
X-10539778Y-25648155D01*
X-10322049Y-25613670D01*
X-10217221Y-25579610D01*
X-10112396Y-25545551D01*
X-10112393Y-25545550D01*
X-10042110Y-25509738D01*
X-9915978Y-25445470D01*
X-9748014Y-25323438D01*
X-9737641Y-25315902D01*
X-9737636Y-25315898D01*
X-9581756Y-25160018D01*
X-9581752Y-25160013D01*
X-9452187Y-24981680D01*
X-9352104Y-24785261D01*
X-9352103Y-24785258D01*
X-9283985Y-24575607D01*
X-9249500Y-24357876D01*
X-9249500Y-24137433D01*
X-9283985Y-23919702D01*
X-9352103Y-23710051D01*
X-9352104Y-23710048D01*
X-9452187Y-23513629D01*
X-9581752Y-23335296D01*
X-9581756Y-23335291D01*
X-9737636Y-23179411D01*
X-9737641Y-23179407D01*
X-9915974Y-23049842D01*
X-10112393Y-22949759D01*
X-10112396Y-22949758D01*
X-10322047Y-22881640D01*
X-10467201Y-22858650D01*
X-10539778Y-22847155D01*
X-13460222Y-22847155D01*
X-13569086Y-22864397D01*
X-13677952Y-22881640D01*
X-13887603Y-22949758D01*
X-13887606Y-22949759D01*
X-14021096Y-23017777D01*
X-14084022Y-23049840D01*
X-14084024Y-23049841D01*
X-14084025Y-23049842D01*
X-14262358Y-23179407D01*
X-14262363Y-23179411D01*
X-14418243Y-23335291D01*
X-14418247Y-23335296D01*
X-14430696Y-23352431D01*
X-14547815Y-23513633D01*
X-14613237Y-23642030D01*
X-14647895Y-23710048D01*
X-14647896Y-23710051D01*
X-14681955Y-23814876D01*
X-14716015Y-23919704D01*
X-14750500Y-24137433D01*
X-14750500Y-24357877D01*
X-16636620Y-24357877D01*
X-17489789Y-23753188D01*
X-17493410Y-23750521D01*
X-18339684Y-23103370D01*
X-18343206Y-23100574D01*
X-19165459Y-22423159D01*
X-19168878Y-22420237D01*
X-19966043Y-21713436D01*
X-19969353Y-21710392D01*
X-20740348Y-20975167D01*
X-20743546Y-20972005D01*
X-21487386Y-20209293D01*
X-21490467Y-20206017D01*
X-22206151Y-19416845D01*
X-22209111Y-19413460D01*
X-22307946Y-19296198D01*
X-15500500Y-19296198D01*
X-15476833Y-19415175D01*
X-15462051Y-19489490D01*
X-15386632Y-19671569D01*
X-15277139Y-19835437D01*
X-15137782Y-19974794D01*
X-14973914Y-20084287D01*
X-14791835Y-20159706D01*
X-14728582Y-20172287D01*
X-14598543Y-20198155D01*
X-14598541Y-20198155D01*
X-12401456Y-20198155D01*
X-12208170Y-20159707D01*
X-12208169Y-20159706D01*
X-12208165Y-20159706D01*
X-12208160Y-20159704D01*
X-12026092Y-20084290D01*
X-12026079Y-20084283D01*
X-11862218Y-19974794D01*
X-11862214Y-19974791D01*
X-11722863Y-19835440D01*
X-11722860Y-19835436D01*
X-11613371Y-19671575D01*
X-11613364Y-19671562D01*
X-11537950Y-19489494D01*
X-11537947Y-19489484D01*
X-11499500Y-19296198D01*
X-11499500Y-19099111D01*
X-11499499Y-19099111D01*
X-11537947Y-18905825D01*
X-11537950Y-18905815D01*
X-11613364Y-18723747D01*
X-11613371Y-18723734D01*
X-11722860Y-18559873D01*
X-11722863Y-18559869D01*
X-11862214Y-18420518D01*
X-11862218Y-18420515D01*
X-12026079Y-18311026D01*
X-12026092Y-18311019D01*
X-12208160Y-18235605D01*
X-12208170Y-18235602D01*
X-12401457Y-18197155D01*
X-12401459Y-18197155D01*
X-14598541Y-18197155D01*
X-14598543Y-18197155D01*
X-14791829Y-18235602D01*
X-14791839Y-18235605D01*
X-14973907Y-18311019D01*
X-14973920Y-18311026D01*
X-15137781Y-18420515D01*
X-15137785Y-18420518D01*
X-15277136Y-18559869D01*
X-15277139Y-18559873D01*
X-15386628Y-18723734D01*
X-15386635Y-18723747D01*
X-15450270Y-18877378D01*
X-15462051Y-18905820D01*
X-15462051Y-18905824D01*
X-15462052Y-18905825D01*
X-15500500Y-19099111D01*
X-15500500Y-19296198D01*
X-22307946Y-19296198D01*
X-22895727Y-18598832D01*
X-22898562Y-18595341D01*
X-23555161Y-17756383D01*
X-23557868Y-17752792D01*
X-24183627Y-16890560D01*
X-24186202Y-16886873D01*
X-24780277Y-16002526D01*
X-24782717Y-15998748D01*
X-25344343Y-15093427D01*
X-25346644Y-15089563D01*
X-25875073Y-14164469D01*
X-25877232Y-14160524D01*
X-26371755Y-13216906D01*
X-26373770Y-13212886D01*
X-26833761Y-12251933D01*
X-26835629Y-12247842D01*
X-27260475Y-11270836D01*
X-27262193Y-11266680D01*
X-27651320Y-10274938D01*
X-27652887Y-10270722D01*
X-27714160Y-10096196D01*
X-24700500Y-10096196D01*
X-24662051Y-10289490D01*
X-24586632Y-10471569D01*
X-24477139Y-10635437D01*
X-24337782Y-10774794D01*
X-24173914Y-10884287D01*
X-23991835Y-10959706D01*
X-23928582Y-10972287D01*
X-23798543Y-10998155D01*
X-23798541Y-10998155D01*
X-23601456Y-10998155D01*
X-23408170Y-10959707D01*
X-23408169Y-10959706D01*
X-23408165Y-10959706D01*
X-23304425Y-10916736D01*
X-23226092Y-10884290D01*
X-23226079Y-10884283D01*
X-23062218Y-10774794D01*
X-23062214Y-10774791D01*
X-22922863Y-10635440D01*
X-22922860Y-10635436D01*
X-22813371Y-10471575D01*
X-22813364Y-10471562D01*
X-22737950Y-10289494D01*
X-22737947Y-10289484D01*
X-22699500Y-10096198D01*
X-22699500Y-7899111D01*
X-22699499Y-7899111D01*
X-22737947Y-7705825D01*
X-22737950Y-7705815D01*
X-22813364Y-7523747D01*
X-22813371Y-7523734D01*
X-22922860Y-7359873D01*
X-22922863Y-7359869D01*
X-23062214Y-7220518D01*
X-23062218Y-7220515D01*
X-23226079Y-7111026D01*
X-23226092Y-7111019D01*
X-23408160Y-7035605D01*
X-23408170Y-7035602D01*
X-23601457Y-6997155D01*
X-23601459Y-6997155D01*
X-23798541Y-6997155D01*
X-23798543Y-6997155D01*
X-23991829Y-7035602D01*
X-23991839Y-7035605D01*
X-24173907Y-7111019D01*
X-24173920Y-7111026D01*
X-24337781Y-7220515D01*
X-24337785Y-7220518D01*
X-24477136Y-7359869D01*
X-24477139Y-7359873D01*
X-24586628Y-7523734D01*
X-24586635Y-7523747D01*
X-24643090Y-7660044D01*
X-24662051Y-7705820D01*
X-24662051Y-7705824D01*
X-24662052Y-7705825D01*
X-24700500Y-7899111D01*
X-24700500Y-7899114D01*
X-24700500Y-10096196D01*
X-27714160Y-10096196D01*
X-28005810Y-9265486D01*
X-28007222Y-9261217D01*
X-28323451Y-8243877D01*
X-28324708Y-8239559D01*
X-28603840Y-7211417D01*
X-28604940Y-7207056D01*
X-28846616Y-6169434D01*
X-28847556Y-6165036D01*
X-29051436Y-5119382D01*
X-29052217Y-5114954D01*
X-29218055Y-4062544D01*
X-29218674Y-4058089D01*
X-29346237Y-3000388D01*
X-29346694Y-2995915D01*
X-29435913Y-1933181D01*
X-29436081Y-1930940D01*
X-29440815Y-1858915D01*
X-29440958Y-1857825D01*
X-29441588Y-1848374D01*
X-29480295Y-1685184D01*
X-29545626Y-1530721D01*
X-29635756Y-1389292D01*
X-29658945Y-1363620D01*
X-29748175Y-1264837D01*
X-29748176Y-1264835D01*
X-29748180Y-1264832D01*
X-29879738Y-1160835D01*
X-30001511Y-1094046D01*
X-30026788Y-1080182D01*
X-30026789Y-1080181D01*
X-30026796Y-1080178D01*
X-30185199Y-1025137D01*
X-30185215Y-1025133D01*
X-30350581Y-997228D01*
X-30360085Y-997219D01*
X-30361073Y-997155D01*
X-30368508Y-997155D01*
X-32337977Y-997155D01*
X-32405016Y-977470D01*
X-32450771Y-924666D01*
X-32461977Y-873155D01*
X-32461977Y877845D01*
X-32442292Y944884D01*
X-32389488Y990639D01*
X-32337977Y1001845D01*
X-30361026Y1001845D01*
X-30360009Y1001911D01*
X-30350534Y1001920D01*
X-30185168Y1029827D01*
X-30185159Y1029829D01*
X-30026740Y1084880D01*
X-29879693Y1165537D01*
X-29748132Y1269543D01*
X-29635722Y1394002D01*
X-29635716Y1394009D01*
X-29545593Y1535446D01*
X-29480273Y1689916D01*
X-29441580Y1853099D01*
X-29440951Y1862543D01*
X-29440819Y1863544D01*
X-29436083Y1935610D01*
X-29435917Y1937834D01*
X-29347532Y2992410D01*
X-29347079Y2996850D01*
X-29220944Y4046421D01*
X-29220332Y4050841D01*
X-29056511Y5095214D01*
X-29055740Y5099609D01*
X-28854453Y6137380D01*
X-28853525Y6141745D01*
X-28615019Y7171643D01*
X-28613934Y7175971D01*
X-28338533Y8196593D01*
X-28337293Y8200880D01*
X-28025347Y9210932D01*
X-28023954Y9215171D01*
X-27675864Y10213353D01*
X-27674319Y10217540D01*
X-27290533Y11202565D01*
X-27288839Y11206693D01*
X-27278363Y11230961D01*
X-26869856Y12177279D01*
X-26868027Y12181314D01*
X-26414409Y13136161D01*
X-26412422Y13140157D01*
X-25924735Y14078078D01*
X-25922606Y14081999D01*
X-25401492Y15001755D01*
X-25399223Y15005598D01*
X-24845340Y15906031D01*
X-24842934Y15909789D01*
X-24257015Y16789702D01*
X-24254475Y16793371D01*
X-23637283Y17651622D01*
X-23634613Y17655197D01*
X-22986939Y18490685D01*
X-22984142Y18494162D01*
X-22306827Y19305806D01*
X-22303907Y19309180D01*
X-21597819Y20095935D01*
X-21594779Y20099202D01*
X-20860846Y20860035D01*
X-20857690Y20863191D01*
X-20096857Y21597124D01*
X-20093590Y21600164D01*
X-19306835Y22306252D01*
X-19303461Y22309172D01*
X-18491817Y22986487D01*
X-18488340Y22989284D01*
X-17652852Y23636958D01*
X-17649277Y23639628D01*
X-16791026Y24256820D01*
X-16787357Y24259360D01*
X-15907444Y24845279D01*
X-15903686Y24847685D01*
X-15003253Y25401568D01*
X-14999410Y25403837D01*
X-14079654Y25924951D01*
X-14075733Y25927080D01*
X-13137812Y26414767D01*
X-13133816Y26416754D01*
X-12178969Y26870372D01*
X-12174934Y26872201D01*
X-11204335Y27291188D01*
X-11200220Y27292878D01*
X-10215195Y27676664D01*
X-10211008Y27678209D01*
X-9212826Y28026299D01*
X-9208587Y28027692D01*
X-8198535Y28339638D01*
X-8194248Y28340878D01*
X-7173626Y28616279D01*
X-7169298Y28617364D01*
X-6533172Y28764679D01*
X-6463420Y28760627D01*
X-6406931Y28719507D01*
X-6381641Y28654375D01*
X-6395579Y28585910D01*
X-6417511Y28556199D01*
X-7519893Y27453818D01*
X-7581214Y27420335D01*
X-7594972Y27418143D01*
X-7602797Y27417344D01*
X-7769334Y27362159D01*
X-7918656Y27270057D01*
X-8042712Y27146001D01*
X-8134814Y26996679D01*
X-8189999Y26830142D01*
X-8200500Y26727354D01*
X-8200499Y26102337D01*
X-8189999Y25999548D01*
X-8134814Y25833011D01*
X-8042712Y25683689D01*
X-8042710Y25683687D01*
X-7949049Y25590026D01*
X-7915564Y25528703D01*
X-7920548Y25459011D01*
X-7949049Y25414664D01*
X-8042712Y25321001D01*
X-8042967Y25320587D01*
X-8043782Y25319266D01*
X-8061641Y25296676D01*
X-9042723Y24315594D01*
X-9104044Y24282111D01*
X-9173736Y24287095D01*
X-9229669Y24328967D01*
X-9252875Y24383879D01*
X-9283985Y24580297D01*
X-9352103Y24789948D01*
X-9352104Y24789951D01*
X-9452187Y24986370D01*
X-9581752Y25164703D01*
X-9581756Y25164708D01*
X-9737636Y25320588D01*
X-9737641Y25320592D01*
X-9915974Y25450157D01*
X-9915978Y25450160D01*
X-10050500Y25518703D01*
X-10112393Y25550240D01*
X-10112396Y25550241D01*
X-10234845Y25590026D01*
X-10322049Y25618360D01*
X-10539778Y25652845D01*
X-13460222Y25652845D01*
X-13677951Y25618360D01*
X-13887606Y25550240D01*
X-14084022Y25450160D01*
X-14262365Y25320587D01*
X-14418242Y25164710D01*
X-14547815Y24986367D01*
X-14647895Y24789951D01*
X-14716015Y24580296D01*
X-14750500Y24362567D01*
X-14750500Y24142123D01*
X-14716015Y23924394D01*
X-14716014Y23924392D01*
X-14647896Y23714741D01*
X-14647895Y23714738D01*
X-14547812Y23518318D01*
X-14504205Y23458299D01*
X-14480724Y23392493D01*
X-14486590Y23347100D01*
X-14519709Y23245171D01*
X-14519709Y23245169D01*
X-14550500Y23050767D01*
X-14550500Y16721681D01*
X-14570185Y16654642D01*
X-14586819Y16634000D01*
X-14853372Y16367447D01*
X-14914695Y16333962D01*
X-14984387Y16338946D01*
X-15028734Y16367447D01*
X-15056341Y16395054D01*
X-15056344Y16395057D01*
X-15090709Y16416253D01*
X-15113289Y16434108D01*
X-15185351Y16506170D01*
X-15185354Y16506173D01*
X-15344595Y16621869D01*
X-15364794Y16632161D01*
X-15519970Y16711227D01*
X-15519972Y16711227D01*
X-15519975Y16711229D01*
X-15656694Y16755652D01*
X-15707173Y16772054D01*
X-15901578Y16802845D01*
X-15901583Y16802845D01*
X-16098417Y16802845D01*
X-16098422Y16802845D01*
X-16292826Y16772054D01*
X-16480025Y16711229D01*
X-16655405Y16621869D01*
X-16814646Y16506173D01*
X-16886710Y16434108D01*
X-16909296Y16416250D01*
X-16943656Y16395057D01*
X-17067712Y16271001D01*
X-17159814Y16121679D01*
X-17214999Y15955142D01*
X-17225500Y15852354D01*
X-17225499Y15827473D01*
X-17225499Y15818366D01*
X-17227025Y15798970D01*
X-17250174Y15652820D01*
X-17250500Y15650759D01*
X-17250500Y13853922D01*
X-17227026Y13705716D01*
X-17225499Y13686318D01*
X-17225499Y13652343D01*
X-17225498Y13652326D01*
X-17214999Y13549548D01*
X-17159814Y13383011D01*
X-17067712Y13233689D01*
X-17067710Y13233687D01*
X-16943655Y13109632D01*
X-16909291Y13088436D01*
X-16886708Y13070579D01*
X-16814646Y12998517D01*
X-16789213Y12980039D01*
X-16655405Y12882821D01*
X-16480029Y12793462D01*
X-16292826Y12732635D01*
X-16098422Y12701845D01*
X-16098417Y12701845D01*
X-15401578Y12701845D01*
X-15207173Y12732635D01*
X-15019969Y12793462D01*
X-14844594Y12882821D01*
X-14710787Y12980039D01*
X-14685354Y12998517D01*
X-14685352Y12998519D01*
X-14685351Y12998519D01*
X-13068343Y14615526D01*
X-13007020Y14649011D01*
X-12980663Y14651845D01*
X-12848878Y14651845D01*
X-12848874Y14651846D01*
X-12806113Y14654744D01*
X-12806112Y14654744D01*
X-12621303Y14700705D01*
X-12450707Y14785312D01*
X-12445044Y14788933D01*
X-12444104Y14787462D01*
X-12387584Y14810783D01*
X-12318842Y14798282D01*
X-12267771Y14750601D01*
X-12250500Y14687475D01*
X-12250500Y11476844D01*
X-12270185Y11409805D01*
X-12322989Y11364050D01*
X-12374500Y11352844D01*
X-12458036Y11352844D01*
X-12577418Y11342231D01*
X-12773049Y11286254D01*
X-12953407Y11192043D01*
X-12953411Y11192039D01*
X-12953412Y11192039D01*
X-13028587Y11130743D01*
X-13092983Y11103634D01*
X-13106947Y11102845D01*
X-19453271Y11102845D01*
X-19496604Y11110663D01*
X-19592517Y11146436D01*
X-19592516Y11146436D01*
X-19598925Y11147124D01*
X-19652127Y11152845D01*
X-21347872Y11152844D01*
X-21407483Y11146436D01*
X-21542331Y11096141D01*
X-21657546Y11009891D01*
X-21743796Y10894676D01*
X-21794091Y10759828D01*
X-21800500Y10700218D01*
X-21800499Y10301435D01*
X-21800499Y9955992D01*
X-21820183Y9888953D01*
X-21836813Y9868316D01*
X-27258099Y4447032D01*
X-27380045Y4325086D01*
X-27475858Y4181692D01*
X-27541855Y4022361D01*
X-27575499Y3853220D01*
X-27575500Y3853218D01*
X-27575500Y3446682D01*
X-27595185Y3379643D01*
X-27611820Y3359000D01*
X-27661598Y3309222D01*
X-27787102Y3129983D01*
X-27879575Y2931675D01*
X-27936207Y2720322D01*
X-27952805Y2530599D01*
X-27955277Y2502347D01*
X-27955277Y2502342D01*
X-27952237Y2467601D01*
X-27936207Y2284368D01*
X-27915554Y2207289D01*
X-27881094Y2078682D01*
X-27879575Y2073015D01*
X-27787102Y1874706D01*
X-27661598Y1695468D01*
X-27661593Y1695463D01*
X-27611819Y1645689D01*
X-27578334Y1584366D01*
X-27575500Y1558008D01*
X-27575500Y946682D01*
X-27595185Y879643D01*
X-27611820Y859000D01*
X-27661598Y809222D01*
X-27787102Y629983D01*
X-27879575Y431675D01*
X-27936207Y220322D01*
X-27955277Y2345D01*
X-27936207Y-215632D01*
X-27879575Y-426985D01*
X-27787102Y-625294D01*
X-27661598Y-804532D01*
X-27506877Y-959253D01*
X-27327639Y-1084757D01*
X-27219307Y-1135273D01*
X-27166867Y-1181445D01*
X-27147715Y-1248639D01*
X-27167931Y-1315520D01*
X-27219305Y-1360036D01*
X-27282044Y-1389292D01*
X-27327638Y-1410553D01*
X-27327642Y-1410555D01*
X-27506878Y-1536057D01*
X-27661597Y-1690776D01*
X-27787099Y-1870012D01*
X-27787100Y-1870014D01*
X-27787102Y-1870017D01*
X-27879575Y-2068325D01*
X-27879576Y-2068331D01*
X-27879577Y-2068332D01*
X-27881095Y-2073999D01*
X-27936207Y-2279678D01*
X-27948873Y-2424458D01*
X-27955219Y-2496997D01*
X-27955277Y-2497655D01*
X-27936207Y-2715632D01*
X-27879575Y-2926985D01*
X-27787102Y-3125294D01*
X-27661598Y-3304532D01*
X-27506877Y-3459253D01*
X-27327639Y-3584757D01*
X-27129330Y-3677230D01*
X-26917977Y-3733862D01*
X-26732462Y-3750092D01*
X-26700002Y-3752932D01*
X-26700000Y-3752932D01*
X-26699998Y-3752932D01*
X-26669787Y-3750288D01*
X-26482023Y-3733862D01*
X-26270670Y-3677230D01*
X-26072361Y-3584757D01*
X-25893123Y-3459253D01*
X-25738402Y-3304532D01*
X-25612898Y-3125294D01*
X-25612897Y-3125293D01*
X-25555083Y-3001310D01*
X-25520425Y-2926985D01*
X-25520424Y-2926981D01*
X-25520422Y-2926977D01*
X-25463793Y-2715634D01*
X-25463793Y-2715630D01*
X-25463700Y-2714573D01*
X-25444723Y-2497655D01*
X-25444781Y-2496997D01*
X-25461819Y-2302241D01*
X-25463793Y-2279678D01*
X-25463793Y-2279675D01*
X-25520422Y-2068332D01*
X-25520426Y-2068323D01*
X-25612898Y-1870016D01*
X-25612900Y-1870012D01*
X-25738400Y-1690779D01*
X-25893122Y-1536058D01*
X-25900740Y-1530724D01*
X-26029042Y-1440885D01*
X-26072361Y-1410552D01*
X-26180693Y-1360037D01*
X-26233132Y-1313865D01*
X-26252284Y-1246671D01*
X-26232068Y-1179790D01*
X-26180693Y-1135273D01*
X-26072361Y-1084757D01*
X-26048768Y-1068237D01*
X-25893123Y-959253D01*
X-25738402Y-804532D01*
X-25612898Y-625294D01*
X-25612897Y-625293D01*
X-25545060Y-479815D01*
X-25520425Y-426985D01*
X-25520424Y-426981D01*
X-25520422Y-426977D01*
X-25463793Y-215634D01*
X-25463793Y-215630D01*
X-25463500Y-212287D01*
X-25448078Y-36001D01*
X-25444723Y2342D01*
X-25444723Y2347D01*
X-25462543Y206032D01*
X-25463793Y220322D01*
X-25463793Y220324D01*
X-25520422Y431667D01*
X-25520424Y431671D01*
X-25520425Y431675D01*
X-25612898Y629983D01*
X-25612900Y629987D01*
X-25738402Y809223D01*
X-25788180Y859000D01*
X-25821666Y920323D01*
X-25824500Y946682D01*
X-25824500Y1103801D01*
X-15500500Y1103801D01*
X-15462052Y910515D01*
X-15462049Y910505D01*
X-15386635Y728437D01*
X-15386628Y728424D01*
X-15277139Y564563D01*
X-15277136Y564559D01*
X-15137785Y425208D01*
X-15137781Y425205D01*
X-14973920Y315716D01*
X-14973907Y315709D01*
X-14791839Y240295D01*
X-14791829Y240292D01*
X-14598543Y201845D01*
X-14598541Y201845D01*
X-12401457Y201845D01*
X-12208170Y240292D01*
X-12208160Y240295D01*
X-12026092Y315709D01*
X-12026079Y315716D01*
X-11862218Y425205D01*
X-11862214Y425208D01*
X-11722863Y564559D01*
X-11722860Y564563D01*
X-11613371Y728424D01*
X-11613364Y728437D01*
X-11537950Y910505D01*
X-11537947Y910515D01*
X-11499500Y1103801D01*
X-11499500Y1300888D01*
X-11499499Y1300888D01*
X-11537947Y1494174D01*
X-11537950Y1494184D01*
X-11613364Y1676252D01*
X-11613371Y1676265D01*
X-11722860Y1840126D01*
X-11722863Y1840130D01*
X-11862214Y1979481D01*
X-11862218Y1979484D01*
X-12026079Y2088973D01*
X-12026092Y2088980D01*
X-12208160Y2164394D01*
X-12208165Y2164396D01*
X-12239334Y2170596D01*
X-12401457Y2202845D01*
X-12401459Y2202845D01*
X-14598541Y2202845D01*
X-14598543Y2202845D01*
X-14728582Y2176977D01*
X-14791835Y2164396D01*
X-14810673Y2156593D01*
X-14957026Y2095972D01*
X-14973914Y2088977D01*
X-15137782Y1979484D01*
X-15277139Y1840127D01*
X-15386632Y1676259D01*
X-15386634Y1676252D01*
X-15386635Y1676252D01*
X-15388834Y1670944D01*
X-15462051Y1494180D01*
X-15462052Y1494174D01*
X-15500500Y1300888D01*
X-15500500Y1103801D01*
X-25824500Y1103801D01*
X-25824500Y1558008D01*
X-25804815Y1625047D01*
X-25788181Y1645689D01*
X-25738406Y1695463D01*
X-25688549Y1766665D01*
X-25612898Y1874706D01*
X-25520425Y2073015D01*
X-25520424Y2073015D01*
X-25520422Y2073022D01*
X-25463793Y2284365D01*
X-25463793Y2284369D01*
X-25444723Y2502342D01*
X-25444723Y2502347D01*
X-25455597Y2626639D01*
X-25463793Y2720322D01*
X-25463793Y2720324D01*
X-25520422Y2931667D01*
X-25520424Y2931671D01*
X-25520425Y2931675D01*
X-25612898Y3129983D01*
X-25612900Y3129987D01*
X-25738399Y3309218D01*
X-25738402Y3309222D01*
X-25741325Y3312145D01*
X-25774813Y3373464D01*
X-25769834Y3443156D01*
X-25741330Y3487512D01*
X-24365922Y4862919D01*
X-24304599Y4896404D01*
X-24234907Y4891420D01*
X-24178974Y4849548D01*
X-24172709Y4840345D01*
X-24162066Y4823090D01*
X-24144026Y4793842D01*
X-24021003Y4670819D01*
X-24020999Y4670816D01*
X-23872933Y4579487D01*
X-23872927Y4579484D01*
X-23872925Y4579483D01*
X-23872922Y4579482D01*
X-23707776Y4524758D01*
X-23605855Y4514345D01*
X-23605848Y4514345D01*
X-22594144Y4514345D01*
X-22492223Y4524758D01*
X-22327077Y4579482D01*
X-22327070Y4579485D01*
X-22294009Y4599878D01*
X-22280220Y4608383D01*
X-22215124Y4626845D01*
X-21361868Y4626845D01*
X-21294829Y4607160D01*
X-21273653Y4587961D01*
X-21272819Y4588796D01*
X-21267712Y4583689D01*
X-21143656Y4459633D01*
X-21092453Y4428051D01*
X-20998636Y4370184D01*
X-20994334Y4367531D01*
X-20827797Y4312346D01*
X-20827795Y4312345D01*
X-20725010Y4301845D01*
X-20725009Y4301845D01*
X-20099998Y4301845D01*
X-20099980Y4301846D01*
X-19997203Y4312345D01*
X-19997200Y4312346D01*
X-19830668Y4367530D01*
X-19830663Y4367532D01*
X-19681342Y4459634D01*
X-19587681Y4553296D01*
X-19526358Y4586781D01*
X-19456666Y4581797D01*
X-19412319Y4553296D01*
X-19318656Y4459633D01*
X-19267453Y4428051D01*
X-19173636Y4370184D01*
X-19169334Y4367531D01*
X-19002797Y4312346D01*
X-19002795Y4312345D01*
X-18900010Y4301845D01*
X-18900009Y4301845D01*
X-18274998Y4301845D01*
X-18274980Y4301846D01*
X-18172203Y4312345D01*
X-18172200Y4312346D01*
X-18005668Y4367530D01*
X-18005663Y4367532D01*
X-17856342Y4459634D01*
X-17732289Y4583687D01*
X-17640187Y4733008D01*
X-17640185Y4733013D01*
X-17602433Y4846941D01*
X-17585001Y4899548D01*
X-17585001Y4899549D01*
X-17585000Y4899549D01*
X-17574500Y5002328D01*
X-17574500Y5225838D01*
X-17554815Y5292877D01*
X-17538181Y5313519D01*
X-14286175Y8565526D01*
X-14224852Y8599011D01*
X-14198494Y8601845D01*
X-13106947Y8601845D01*
X-13039908Y8582160D01*
X-13028587Y8573947D01*
X-12953412Y8512650D01*
X-12953408Y8512648D01*
X-12953407Y8512647D01*
X-12852998Y8460198D01*
X-12773045Y8418434D01*
X-12674243Y8390164D01*
X-12577418Y8362459D01*
X-12577415Y8362458D01*
X-12577413Y8362458D01*
X-12504631Y8355987D01*
X-12458037Y8351845D01*
X-11999500Y8351845D01*
X-11932461Y8332160D01*
X-11886706Y8279356D01*
X-11875500Y8227845D01*
X-11875500Y7906302D01*
X-11895185Y7839263D01*
X-11934407Y7800761D01*
X-11943656Y7795057D01*
X-12067712Y7671001D01*
X-12159814Y7521679D01*
X-12214999Y7355142D01*
X-12225500Y7252354D01*
X-12225499Y6942618D01*
X-12225499Y6652343D01*
X-12225498Y6652325D01*
X-12218607Y6584872D01*
X-12214999Y6549548D01*
X-12159814Y6383011D01*
X-12067712Y6233689D01*
X-11943656Y6109633D01*
X-11892038Y6077795D01*
X-11836648Y6043630D01*
X-11794334Y6017531D01*
X-11627797Y5962346D01*
X-11627795Y5962345D01*
X-11525010Y5951845D01*
X-11525009Y5951845D01*
X-10474998Y5951845D01*
X-10474980Y5951846D01*
X-10372203Y5962345D01*
X-10372200Y5962346D01*
X-10205668Y6017530D01*
X-10205663Y6017532D01*
X-10056342Y6109634D01*
X-9932289Y6233687D01*
X-9840187Y6383008D01*
X-9840185Y6383013D01*
X-9808005Y6480127D01*
X-9785001Y6549548D01*
X-9785001Y6549549D01*
X-9785000Y6549549D01*
X-9774500Y6652328D01*
X-9774500Y7252346D01*
X-9774501Y7252364D01*
X-9785000Y7355141D01*
X-9785001Y7355144D01*
X-9840185Y7521676D01*
X-9840187Y7521681D01*
X-9932289Y7671002D01*
X-10056344Y7795057D01*
X-10065591Y7800761D01*
X-10112318Y7852705D01*
X-10124500Y7906302D01*
X-10124500Y8227845D01*
X-10104815Y8294884D01*
X-10052011Y8340639D01*
X-10000500Y8351845D01*
X-9541971Y8351845D01*
X-9541965Y8351845D01*
X-9541964Y8351846D01*
X-9530316Y8352881D01*
X-9422584Y8362458D01*
X-9226954Y8418434D01*
X-9111317Y8478838D01*
X-9046593Y8512647D01*
X-9046591Y8512648D01*
X-9046590Y8512649D01*
X-8888890Y8641235D01*
X-8760304Y8798935D01*
X-8757880Y8803574D01*
X-8682334Y8948200D01*
X-8666089Y8979299D01*
X-8615563Y9155884D01*
X-8610114Y9174927D01*
X-8610113Y9174928D01*
X-8610113Y9174931D01*
X-8602607Y9259361D01*
X-8599500Y9294308D01*
X-8599500Y9812551D01*
X-8599500Y10410373D01*
X-8599501Y10410379D01*
X-8610113Y10529760D01*
X-8666089Y10725390D01*
X-8680697Y10753355D01*
X-8760302Y10905752D01*
X-8837218Y11000082D01*
X-8888890Y11063454D01*
X-8998490Y11152820D01*
X-9046593Y11192043D01*
X-9226951Y11286254D01*
X-9422582Y11342231D01*
X-9541963Y11352845D01*
X-9625501Y11352844D01*
X-9692538Y11372528D01*
X-9738294Y11425331D01*
X-9749500Y11476844D01*
X-9749500Y20020509D01*
X-9729815Y20087548D01*
X-9713181Y20108190D01*
X-6518345Y23303026D01*
X-6457022Y23336511D01*
X-6430664Y23339345D01*
X-3530373Y23339345D01*
X-3335968Y23370135D01*
X-3148764Y23430962D01*
X-2973389Y23520321D01*
X-2882536Y23586330D01*
X-2814149Y23636017D01*
X-2814146Y23636019D01*
X-2814144Y23636020D01*
X-2798121Y23652044D01*
X-2736797Y23685528D01*
X-2667105Y23680542D01*
X-2611173Y23638669D01*
X-2599958Y23620657D01*
X-2547814Y23518321D01*
X-2418247Y23339986D01*
X-2418243Y23339981D01*
X-2262363Y23184101D01*
X-2262358Y23184097D01*
X-2084025Y23054532D01*
X-2084022Y23054530D01*
X-2041952Y23033094D01*
X-1887606Y22954449D01*
X-1887603Y22954448D01*
X-1677952Y22886330D01*
X-1569086Y22869087D01*
X-1460222Y22851845D01*
X-1460221Y22851845D01*
X1460221Y22851845D01*
X1460222Y22851845D01*
X1514654Y22860466D01*
X1677954Y22886330D01*
X1787183Y22921820D01*
X1857024Y22923815D01*
X1916857Y22887734D01*
X1947684Y22825033D01*
X1949500Y22803889D01*
X1949500Y16936493D01*
X1949499Y16936493D01*
X1978340Y16791506D01*
X1978343Y16791496D01*
X2034914Y16654922D01*
X2056998Y16621870D01*
X2117049Y16531995D01*
X2117052Y16531992D01*
X2489520Y16159525D01*
X2523005Y16098202D01*
X2518021Y16028510D01*
X2476149Y15972577D01*
X2410685Y15948160D01*
X2401839Y15947844D01*
X1888700Y15947844D01*
X1840329Y15942644D01*
X1829088Y15941436D01*
X1694243Y15891142D01*
X1694236Y15891138D01*
X1579027Y15804892D01*
X1579024Y15804889D01*
X1492778Y15689680D01*
X1492774Y15689673D01*
X1442480Y15554827D01*
X1436073Y15495228D01*
X1436072Y15495209D01*
X1436072Y15339502D01*
X1416387Y15272463D01*
X1363583Y15226708D01*
X1294425Y15216764D01*
X1230869Y15245789D01*
X1224391Y15251821D01*
X1214988Y15261224D01*
X-538181Y17014394D01*
X-571666Y17075717D01*
X-574500Y17102075D01*
X-574500Y17502346D01*
X-574501Y17502364D01*
X-585000Y17605141D01*
X-585001Y17605144D01*
X-640185Y17771676D01*
X-640187Y17771681D01*
X-732289Y17921002D01*
X-856342Y18045055D01*
X-856344Y18045057D01*
X-1005666Y18137159D01*
X-1172203Y18192344D01*
X-1274991Y18202845D01*
X-1900008Y18202844D01*
X-1900016Y18202843D01*
X-1900019Y18202843D01*
X-1930933Y18199685D01*
X-2002797Y18192344D01*
X-2169334Y18137159D01*
X-2318656Y18045057D01*
X-2376295Y17987418D01*
X-2412319Y17951394D01*
X-2473642Y17917909D01*
X-2543334Y17922893D01*
X-2587681Y17951394D01*
X-2681342Y18045055D01*
X-2681344Y18045057D01*
X-2830666Y18137159D01*
X-2997203Y18192344D01*
X-3099991Y18202845D01*
X-3725008Y18202844D01*
X-3725016Y18202843D01*
X-3725019Y18202843D01*
X-3755933Y18199685D01*
X-3827797Y18192344D01*
X-3994334Y18137159D01*
X-4143656Y18045057D01*
X-4267712Y17921001D01*
X-4359814Y17771679D01*
X-4414999Y17605142D01*
X-4425500Y17502354D01*
X-4425499Y17276263D01*
X-4425499Y17189573D01*
X-4445183Y17122534D01*
X-4461813Y17101897D01*
X-4808061Y16755650D01*
X-4844134Y16732995D01*
X-4843248Y16731155D01*
X-4849510Y16728137D01*
X-4849522Y16728134D01*
X-5002262Y16632161D01*
X-5129816Y16504607D01*
X-5225789Y16351867D01*
X-5284675Y16183580D01*
X-5285368Y16181599D01*
X-5285369Y16181594D01*
X-5305565Y16002348D01*
X-5305565Y16002341D01*
X-5287216Y15839492D01*
X-5285368Y15823090D01*
X-5225789Y15652823D01*
X-5154301Y15539050D01*
X-5129815Y15500082D01*
X-5002262Y15372529D01*
X-4849523Y15276556D01*
X-4679254Y15216976D01*
X-4679249Y15216975D01*
X-4500004Y15196780D01*
X-4500000Y15196780D01*
X-4499996Y15196780D01*
X-4320750Y15216975D01*
X-4320745Y15216976D01*
X-4150476Y15276556D01*
X-3997737Y15372529D01*
X-3870184Y15500082D01*
X-3774212Y15652820D01*
X-3771191Y15659095D01*
X-3769365Y15658216D01*
X-3746695Y15694279D01*
X-3675451Y15765525D01*
X-3614129Y15799011D01*
X-3587769Y15801845D01*
X-3412230Y15801845D01*
X-3345191Y15782160D01*
X-3324549Y15765526D01*
X-2636818Y15077795D01*
X-2603333Y15016472D01*
X-2600499Y14990114D01*
X-2600499Y14639345D01*
X-2620184Y14572306D01*
X-2672988Y14526551D01*
X-2724499Y14515345D01*
X-3933298Y14515345D01*
X-4030840Y14495941D01*
X-4078291Y14486503D01*
X-4214873Y14429929D01*
X-4337794Y14347796D01*
X-7142952Y11542639D01*
X-7192186Y11468952D01*
X-7225084Y11419718D01*
X-7281658Y11283136D01*
X-7281659Y11283130D01*
X-7310500Y11138143D01*
X-7310500Y2998474D01*
X-7281659Y2853487D01*
X-7281656Y2853477D01*
X-7226502Y2720322D01*
X-7225084Y2716900D01*
X-7208785Y2692507D01*
X-7142952Y2593979D01*
X-7142950Y2593977D01*
X-7142948Y2593974D01*
X-6321488Y1772514D01*
X-6288003Y1711191D01*
X-6285169Y1684833D01*
X-6285169Y-36001D01*
X-6304854Y-103040D01*
X-6357658Y-148795D01*
X-6395285Y-159221D01*
X-6463919Y-166954D01*
X-6543688Y-194866D01*
X-6584641Y-201824D01*
X-7788639Y-201824D01*
X-7933626Y-230664D01*
X-7933636Y-230667D01*
X-8070207Y-287236D01*
X-8070219Y-287243D01*
X-8151595Y-341617D01*
X-8218272Y-362495D01*
X-8285652Y-344011D01*
X-8286458Y-343509D01*
X-8400476Y-271866D01*
X-8570745Y-212286D01*
X-8570750Y-212285D01*
X-8749996Y-192090D01*
X-8750004Y-192090D01*
X-8929249Y-212285D01*
X-8929254Y-212286D01*
X-9099523Y-271866D01*
X-9210530Y-341617D01*
X-9252262Y-367839D01*
X-9379816Y-495393D01*
X-9475789Y-648133D01*
X-9475791Y-648140D01*
X-9478810Y-654407D01*
X-9480646Y-653522D01*
X-9503306Y-689594D01*
X-13019965Y-4206252D01*
X-16532949Y-7719236D01*
X-16532953Y-7719241D01*
X-16568548Y-7772514D01*
X-16568549Y-7772516D01*
X-16568550Y-7772518D01*
X-16615067Y-7842136D01*
X-16615082Y-7842159D01*
X-16671653Y-7978734D01*
X-16671655Y-7978739D01*
X-16671655Y-7978743D01*
X-16671656Y-7978744D01*
X-16700497Y-8123731D01*
X-16700497Y-11786428D01*
X-16720182Y-11853467D01*
X-16772986Y-11899222D01*
X-16842144Y-11909166D01*
X-16905700Y-11880141D01*
X-16912178Y-11874109D01*
X-20838181Y-7948106D01*
X-20871666Y-7886783D01*
X-20874500Y-7860425D01*
X-20874500Y-7772838D01*
X-20854815Y-7705799D01*
X-20802011Y-7660044D01*
X-20732853Y-7650100D01*
X-20727744Y-7650944D01*
X-20608926Y-7673155D01*
X-20608924Y-7673155D01*
X-20391076Y-7673155D01*
X-20391074Y-7673155D01*
X-20176931Y-7633125D01*
X-20002159Y-7565417D01*
X-19973792Y-7554428D01*
X-19973786Y-7554425D01*
X-19788576Y-7439748D01*
X-19788575Y-7439747D01*
X-19788568Y-7439743D01*
X-19706777Y-7365181D01*
X-19627578Y-7292982D01*
X-19627576Y-7292980D01*
X-19627573Y-7292977D01*
X-19598952Y-7255077D01*
X-19542847Y-7213442D01*
X-19473135Y-7208749D01*
X-19411952Y-7242491D01*
X-19401053Y-7255069D01*
X-19372427Y-7292977D01*
X-19211432Y-7439743D01*
X-19026210Y-7554427D01*
X-18823069Y-7633125D01*
X-18608926Y-7673155D01*
X-18608924Y-7673155D01*
X-18391076Y-7673155D01*
X-18391074Y-7673155D01*
X-18176931Y-7633125D01*
X-18002159Y-7565417D01*
X-17973792Y-7554428D01*
X-17973786Y-7554425D01*
X-17788576Y-7439748D01*
X-17788575Y-7439747D01*
X-17788568Y-7439743D01*
X-17627573Y-7292977D01*
X-17496288Y-7119127D01*
X-17430904Y-6987818D01*
X-17399184Y-6924117D01*
X-17383367Y-6868526D01*
X-17339565Y-6714578D01*
X-17339564Y-6714575D01*
X-17339564Y-6714573D01*
X-17319464Y-6497655D01*
X-17319464Y-6497654D01*
X-17339564Y-6280736D01*
X-17399184Y-6071192D01*
X-17496288Y-5876182D01*
X-17627574Y-5702330D01*
X-17751572Y-5589292D01*
X-17787854Y-5529581D01*
X-17786093Y-5459733D01*
X-17751572Y-5406018D01*
X-17627574Y-5292979D01*
X-17496288Y-5119127D01*
X-17399184Y-4924117D01*
X-17375888Y-4842241D01*
X-17339565Y-4714578D01*
X-17339564Y-4714575D01*
X-17339564Y-4714573D01*
X-17319464Y-4497655D01*
X-17319464Y-4497654D01*
X-17339564Y-4280736D01*
X-17399184Y-4071192D01*
X-17496288Y-3876182D01*
X-17627574Y-3702330D01*
X-17751572Y-3589292D01*
X-17787854Y-3529581D01*
X-17786093Y-3459733D01*
X-17751572Y-3406018D01*
X-17627574Y-3292979D01*
X-17496288Y-3119127D01*
X-17399184Y-2924117D01*
X-17382529Y-2865580D01*
X-17339565Y-2714578D01*
X-17339564Y-2714575D01*
X-17339564Y-2714573D01*
X-17319464Y-2497655D01*
X-17319464Y-2497654D01*
X-17339564Y-2280736D01*
X-17365196Y-2190650D01*
X-17399183Y-2071196D01*
X-17399182Y-2071196D01*
X-17399184Y-2071192D01*
X-17496288Y-1876182D01*
X-17627574Y-1702331D01*
X-17788566Y-1555568D01*
X-17788576Y-1555561D01*
X-17973786Y-1440884D01*
X-17973792Y-1440881D01*
X-18098235Y-1392672D01*
X-18176931Y-1362185D01*
X-18391074Y-1322155D01*
X-18608926Y-1322155D01*
X-18823069Y-1362185D01*
X-18920670Y-1399996D01*
X-19026207Y-1440881D01*
X-19026210Y-1440883D01*
X-19026211Y-1440884D01*
X-19026213Y-1440885D01*
X-19192268Y-1543700D01*
X-19259629Y-1562255D01*
X-19326328Y-1541447D01*
X-19371189Y-1487882D01*
X-19379969Y-1418566D01*
X-19373727Y-1394940D01*
X-19330908Y-1280137D01*
X-19324501Y-1220538D01*
X-19324500Y-1220536D01*
X-19324500Y-1220528D01*
X-19324500Y-499500D01*
X-19324500Y225215D01*
X-19324501Y225221D01*
X-19330908Y284828D01*
X-19381202Y419673D01*
X-19381206Y419680D01*
X-19467452Y534889D01*
X-19467455Y534892D01*
X-19582664Y621138D01*
X-19582671Y621142D01*
X-19717517Y671436D01*
X-19717516Y671436D01*
X-19723925Y672124D01*
X-19777127Y677845D01*
X-21222872Y677844D01*
X-21282483Y671436D01*
X-21417331Y621141D01*
X-21532546Y534891D01*
X-21618796Y419676D01*
X-21669091Y284828D01*
X-21675500Y225218D01*
X-21675499Y-1220527D01*
X-21669091Y-1280138D01*
X-21618796Y-1414986D01*
X-21532546Y-1530201D01*
X-21506735Y-1549523D01*
X-21446895Y-1594320D01*
X-21405024Y-1650253D01*
X-21400040Y-1719945D01*
X-21422251Y-1768310D01*
X-21503712Y-1876183D01*
X-21600817Y-2071196D01*
X-21660435Y-2280732D01*
X-21680536Y-2497655D01*
X-21675800Y-2548755D01*
X-21689214Y-2617324D01*
X-21711590Y-2647878D01*
X-22207950Y-3144236D01*
X-22207954Y-3144240D01*
X-22253418Y-3212285D01*
X-22253419Y-3212287D01*
X-22290083Y-3267159D01*
X-22290087Y-3267166D01*
X-22330007Y-3363542D01*
X-22346658Y-3403742D01*
X-22346658Y-3403746D01*
X-22346659Y-3403747D01*
X-22375500Y-3548734D01*
X-22375500Y-3548737D01*
X-22375500Y-8296573D01*
X-22346658Y-8441568D01*
X-22290084Y-8578150D01*
X-22258478Y-8625452D01*
X-22207952Y-8701071D01*
X-20016093Y-10892930D01*
X-18023548Y-12885474D01*
X-17990063Y-12946797D01*
X-17995047Y-13016489D01*
X-18036919Y-13072422D01*
X-18102383Y-13096839D01*
X-18111229Y-13097155D01*
X-21637770Y-13097155D01*
X-21704809Y-13077470D01*
X-21725452Y-13060836D01*
X-21996695Y-12789590D01*
X-22019366Y-12753526D01*
X-22021191Y-12754405D01*
X-22024212Y-12748130D01*
X-22120184Y-12595392D01*
X-22247737Y-12467839D01*
X-22400476Y-12371866D01*
X-22570745Y-12312286D01*
X-22570750Y-12312285D01*
X-22749996Y-12292090D01*
X-22750004Y-12292090D01*
X-22929249Y-12312285D01*
X-22929254Y-12312286D01*
X-23099523Y-12371866D01*
X-23193584Y-12430969D01*
X-23252262Y-12467839D01*
X-23379816Y-12595393D01*
X-23475789Y-12748133D01*
X-23526768Y-12893824D01*
X-23535368Y-12918400D01*
X-23535369Y-12918405D01*
X-23555565Y-13097651D01*
X-23555565Y-13097658D01*
X-23537072Y-13261787D01*
X-23535368Y-13276910D01*
X-23475789Y-13447177D01*
X-23379816Y-13599917D01*
X-23252262Y-13727471D01*
X-23099522Y-13823444D01*
X-23099510Y-13823447D01*
X-23093248Y-13826465D01*
X-23094134Y-13828305D01*
X-23058061Y-13850960D01*
X-22582951Y-14326071D01*
X-22478416Y-14430606D01*
X-22355495Y-14512739D01*
X-22218913Y-14569313D01*
X-22171462Y-14578751D01*
X-22073920Y-14598155D01*
X-22073918Y-14598155D01*
X-16365421Y-14598155D01*
X-16362152Y-14597833D01*
X-16337843Y-14597833D01*
X-16334577Y-14598154D01*
X-16334576Y-14598155D01*
X-16334574Y-14598155D01*
X-15565415Y-14598155D01*
X-15420428Y-14569314D01*
X-15420427Y-14569313D01*
X-15420423Y-14569313D01*
X-15420418Y-14569311D01*
X-15283843Y-14512740D01*
X-15283842Y-14512739D01*
X-15283841Y-14512739D01*
X-15214741Y-14466568D01*
X-15214740Y-14466568D01*
X-15214737Y-14466565D01*
X-15211843Y-14464632D01*
X-15201420Y-14457667D01*
X-15160923Y-14430610D01*
X-15160917Y-14430605D01*
X-14617048Y-13886735D01*
X-14617045Y-13886731D01*
X-14534916Y-13763817D01*
X-14534909Y-13763804D01*
X-14478340Y-13627233D01*
X-14478337Y-13627223D01*
X-14449497Y-13482236D01*
X-14449497Y-8799832D01*
X-14429812Y-8732793D01*
X-14413178Y-8712151D01*
X-8152365Y-2451338D01*
X-8112136Y-2424458D01*
X-8083851Y-2412742D01*
X-8083850Y-2412741D01*
X-8083844Y-2412739D01*
X-7994493Y-2353037D01*
X-7994491Y-2353036D01*
X-7960929Y-2330612D01*
X-7960923Y-2330607D01*
X-7417053Y-1786737D01*
X-7417050Y-1786733D01*
X-7417049Y-1786732D01*
X-7397805Y-1757931D01*
X-7344193Y-1713128D01*
X-7294704Y-1702824D01*
X-6584641Y-1702824D01*
X-6543686Y-1709781D01*
X-6463924Y-1737692D01*
X-6395284Y-1745425D01*
X-6330873Y-1772490D01*
X-6291317Y-1830084D01*
X-6285169Y-1868645D01*
X-6285169Y-3058226D01*
X-6256327Y-3203221D01*
X-6199753Y-3339803D01*
X-6183886Y-3363549D01*
X-6117621Y-3462724D01*
X-4412011Y-5168334D01*
X-2711819Y-6868526D01*
X-2678334Y-6929849D01*
X-2675500Y-6956207D01*
X-2675500Y-6987818D01*
X-2695185Y-7054857D01*
X-2747989Y-7100612D01*
X-2817147Y-7110556D01*
X-2846952Y-7102379D01*
X-3008160Y-7035605D01*
X-3008170Y-7035602D01*
X-3201457Y-6997155D01*
X-3201459Y-6997155D01*
X-3398541Y-6997155D01*
X-3398543Y-6997155D01*
X-3591829Y-7035602D01*
X-3591839Y-7035605D01*
X-3773907Y-7111019D01*
X-3773920Y-7111026D01*
X-3937781Y-7220515D01*
X-3937785Y-7220518D01*
X-4077136Y-7359869D01*
X-4077139Y-7359873D01*
X-4186628Y-7523734D01*
X-4186635Y-7523747D01*
X-4243090Y-7660044D01*
X-4262051Y-7705820D01*
X-4262051Y-7705824D01*
X-4262052Y-7705825D01*
X-4300500Y-7899111D01*
X-4300500Y-7899114D01*
X-4300500Y-10096196D01*
X-4262051Y-10289490D01*
X-4186632Y-10471569D01*
X-4077139Y-10635437D01*
X-3937782Y-10774794D01*
X-3773914Y-10884287D01*
X-3591835Y-10959706D01*
X-3528582Y-10972287D01*
X-3398543Y-10998155D01*
X-3398541Y-10998155D01*
X-3201456Y-10998155D01*
X-3008170Y-10959707D01*
X-3008169Y-10959706D01*
X-3008165Y-10959706D01*
X-2846951Y-10892929D01*
X-2777483Y-10885461D01*
X-2715004Y-10916736D01*
X-2679352Y-10976825D01*
X-2675500Y-11007491D01*
X-2675500Y-16634075D01*
X-2656096Y-16731617D01*
X-2646658Y-16779068D01*
X-2590084Y-16915650D01*
X-2569033Y-16947155D01*
X-2507952Y-17038571D01*
X-2507948Y-17038574D01*
X-2507948Y-17038575D01*
X-2507947Y-17038576D01*
X-2049318Y-17497204D01*
X-2015833Y-17558527D01*
X-2012999Y-17584885D01*
X-2012999Y-17985163D01*
X-2002499Y-18087952D01*
X-1947314Y-18254489D01*
X-1855212Y-18403811D01*
X-1731156Y-18527867D01*
X-1581834Y-18619969D01*
X-1415297Y-18675154D01*
X-1312509Y-18685655D01*
X-687492Y-18685654D01*
X-687484Y-18685653D01*
X-687480Y-18685653D01*
X-584703Y-18675154D01*
X-584700Y-18675153D01*
X-418166Y-18619969D01*
X-268844Y-18527867D01*
X-268841Y-18527864D01*
X-264739Y-18524621D01*
X-199944Y-18498480D01*
X-131302Y-18511520D01*
X-80606Y-18559601D01*
X-63953Y-18627457D01*
X-82289Y-18686982D01*
X-97862Y-18712230D01*
X-152587Y-18877380D01*
X-163000Y-18979307D01*
X-163000Y-19991003D01*
X-152587Y-20092930D01*
X-97862Y-20258080D01*
X-6526Y-20406158D01*
X116496Y-20529180D01*
X116500Y-20529183D01*
X264566Y-20620512D01*
X264569Y-20620513D01*
X264575Y-20620517D01*
X429725Y-20675242D01*
X531652Y-20685655D01*
X531657Y-20685655D01*
X1118343Y-20685655D01*
X1118348Y-20685655D01*
X1220275Y-20675242D01*
X1385425Y-20620517D01*
X1533503Y-20529181D01*
X1656526Y-20406158D01*
X1747862Y-20258080D01*
X1802587Y-20092930D01*
X1813000Y-19991003D01*
X1813000Y-18979307D01*
X1802587Y-18877380D01*
X1747862Y-18712230D01*
X1656526Y-18564152D01*
X1656525Y-18564151D01*
X1655864Y-18563079D01*
X1637424Y-18495687D01*
X1658346Y-18429023D01*
X1673726Y-18410297D01*
X1674152Y-18409870D01*
X1680212Y-18403811D01*
X1681961Y-18400974D01*
X1683670Y-18399437D01*
X1684690Y-18398148D01*
X1684910Y-18398322D01*
X1733906Y-18354251D01*
X1802868Y-18343027D01*
X1866951Y-18370868D01*
X1893037Y-18400972D01*
X1894788Y-18403811D01*
X2018844Y-18527867D01*
X2168166Y-18619969D01*
X2334703Y-18675154D01*
X2437491Y-18685655D01*
X3062508Y-18685654D01*
X3062516Y-18685653D01*
X3062519Y-18685653D01*
X3118802Y-18679903D01*
X3165297Y-18675154D01*
X3331834Y-18619969D01*
X3481156Y-18527867D01*
X3481160Y-18527862D01*
X3485255Y-18524625D01*
X3550049Y-18498481D01*
X3618692Y-18511518D01*
X3669390Y-18559596D01*
X3686046Y-18627451D01*
X3667710Y-18686983D01*
X3652141Y-18712223D01*
X3652137Y-18712232D01*
X3597413Y-18877378D01*
X3587000Y-18979299D01*
X3587000Y-19991010D01*
X3597413Y-20092931D01*
X3652137Y-20258077D01*
X3652142Y-20258088D01*
X3743471Y-20406154D01*
X3743474Y-20406158D01*
X3866496Y-20529180D01*
X3866500Y-20529183D01*
X4014566Y-20620512D01*
X4014569Y-20620513D01*
X4014575Y-20620517D01*
X4179725Y-20675242D01*
X4281652Y-20685655D01*
X4281657Y-20685655D01*
X4868343Y-20685655D01*
X4868348Y-20685655D01*
X4970275Y-20675242D01*
X5135425Y-20620517D01*
X5283503Y-20529181D01*
X5406526Y-20406158D01*
X5497862Y-20258080D01*
X5552587Y-20092930D01*
X5563000Y-19991003D01*
X5563000Y-18979307D01*
X5552587Y-18877380D01*
X5497862Y-18712230D01*
X5406526Y-18564152D01*
X5406525Y-18564151D01*
X5405864Y-18563079D01*
X5387424Y-18495687D01*
X5408346Y-18429023D01*
X5423726Y-18410297D01*
X5424152Y-18409870D01*
X5430212Y-18403811D01*
X5522314Y-18254489D01*
X5577499Y-18087952D01*
X5588000Y-17985164D01*
X5587999Y-17196383D01*
X5607683Y-17129345D01*
X5660487Y-17083590D01*
X5729646Y-17073646D01*
X5793202Y-17102671D01*
X5799680Y-17108703D01*
X7271586Y-18580609D01*
X7293636Y-18595341D01*
X7330495Y-18619969D01*
X7394505Y-18662739D01*
X7394507Y-18662740D01*
X7394511Y-18662742D01*
X7513970Y-18712223D01*
X7531087Y-18719313D01*
X7542542Y-18721591D01*
X7604453Y-18753974D01*
X7636285Y-18804892D01*
X7637453Y-18808488D01*
X7687044Y-18905815D01*
X7723240Y-18976854D01*
X7834310Y-19129728D01*
X7967927Y-19263345D01*
X8120801Y-19374415D01*
X8197431Y-19413460D01*
X8289163Y-19460200D01*
X8289165Y-19460200D01*
X8289168Y-19460202D01*
X8352417Y-19480753D01*
X8468881Y-19518595D01*
X8655514Y-19548155D01*
X8655519Y-19548155D01*
X8844486Y-19548155D01*
X9031118Y-19518595D01*
X9210832Y-19460202D01*
X9379199Y-19374415D01*
X9532073Y-19263345D01*
X9665690Y-19129728D01*
X9776760Y-18976854D01*
X9862547Y-18808487D01*
X9920940Y-18628773D01*
X9925682Y-18598832D01*
X9950500Y-18442141D01*
X9950500Y-17553168D01*
X9920940Y-17366536D01*
X9893846Y-17283152D01*
X9862547Y-17186823D01*
X9862545Y-17186820D01*
X9862545Y-17186818D01*
X9814015Y-17091573D01*
X9800500Y-17035278D01*
X9800500Y-16084885D01*
X9820185Y-16017846D01*
X9836819Y-15997204D01*
X9892712Y-15941311D01*
X9894461Y-15938474D01*
X9896169Y-15936938D01*
X9897193Y-15935644D01*
X9897414Y-15935818D01*
X9946406Y-15891751D01*
X10015368Y-15880527D01*
X10079451Y-15908368D01*
X10105537Y-15938472D01*
X10107288Y-15941311D01*
X10231344Y-16065367D01*
X10380666Y-16157469D01*
X10547203Y-16212654D01*
X10649991Y-16223155D01*
X11250008Y-16223154D01*
X11250016Y-16223153D01*
X11250019Y-16223153D01*
X11306302Y-16217403D01*
X11352797Y-16212654D01*
X11519334Y-16157469D01*
X11668656Y-16065367D01*
X11792712Y-15941311D01*
X11875519Y-15807057D01*
X11927467Y-15760334D01*
X11981058Y-15748155D01*
X12059362Y-15748155D01*
X12126401Y-15767840D01*
X12164899Y-15807056D01*
X12227389Y-15908368D01*
X12232289Y-15916312D01*
X12345428Y-16029451D01*
X12372308Y-16069679D01*
X12422415Y-16190649D01*
X12431329Y-16203989D01*
X12436792Y-16212166D01*
X12444134Y-16223153D01*
X12444135Y-16223156D01*
X12504546Y-16313569D01*
X12504552Y-16313576D01*
X14013181Y-17822204D01*
X14046666Y-17883527D01*
X14049500Y-17909885D01*
X14049500Y-18442141D01*
X14079059Y-18628773D01*
X14137454Y-18808491D01*
X14187046Y-18905820D01*
X14223240Y-18976854D01*
X14334310Y-19129728D01*
X14467927Y-19263345D01*
X14620801Y-19374415D01*
X14697431Y-19413460D01*
X14789163Y-19460200D01*
X14789165Y-19460200D01*
X14789168Y-19460202D01*
X14852417Y-19480753D01*
X14968881Y-19518595D01*
X15155514Y-19548155D01*
X15155519Y-19548155D01*
X15344486Y-19548155D01*
X15531118Y-19518595D01*
X15710832Y-19460202D01*
X15879199Y-19374415D01*
X16032073Y-19263345D01*
X16165690Y-19129728D01*
X16276760Y-18976854D01*
X16362547Y-18808487D01*
X16420940Y-18628773D01*
X16425682Y-18598832D01*
X16450500Y-18442141D01*
X16450500Y-17553168D01*
X16420940Y-17366536D01*
X16393846Y-17283152D01*
X16362547Y-17186823D01*
X16362545Y-17186820D01*
X16362545Y-17186818D01*
X16309947Y-17083590D01*
X16276760Y-17018456D01*
X16165690Y-16865582D01*
X16032073Y-16731965D01*
X15879199Y-16620895D01*
X15879191Y-16620891D01*
X15710836Y-16535109D01*
X15531118Y-16476714D01*
X15344486Y-16447155D01*
X15344481Y-16447155D01*
X15155519Y-16447155D01*
X15155514Y-16447155D01*
X14968882Y-16476714D01*
X14906456Y-16496997D01*
X14836615Y-16498991D01*
X14780459Y-16466746D01*
X14100317Y-15786604D01*
X14066832Y-15725281D01*
X14070292Y-15659920D01*
X14089999Y-15600452D01*
X14100500Y-15497664D01*
X14100499Y-14497647D01*
X14097126Y-14464632D01*
X14089999Y-14394858D01*
X14089998Y-14394855D01*
X14075284Y-14350452D01*
X14034814Y-14228321D01*
X13947802Y-14087251D01*
X13929362Y-14019859D01*
X13950285Y-13953196D01*
X14003927Y-13908426D01*
X14053341Y-13898155D01*
X18344705Y-13898155D01*
X18411744Y-13917840D01*
X18457499Y-13970644D01*
X18467443Y-14039802D01*
X18467178Y-14041553D01*
X18449500Y-14153168D01*
X18449500Y-14342141D01*
X18479059Y-14528773D01*
X18537454Y-14708491D01*
X18618140Y-14866845D01*
X18623240Y-14876854D01*
X18734310Y-15029728D01*
X18867927Y-15163345D01*
X19020801Y-15274415D01*
X19100347Y-15314945D01*
X19189163Y-15360200D01*
X19189165Y-15360200D01*
X19189168Y-15360202D01*
X19285497Y-15391501D01*
X19368881Y-15418595D01*
X19555514Y-15448155D01*
X19555519Y-15448155D01*
X20444486Y-15448155D01*
X20631118Y-15418595D01*
X20810832Y-15360202D01*
X20979199Y-15274415D01*
X21132073Y-15163345D01*
X21265690Y-15029728D01*
X21376760Y-14876854D01*
X21433314Y-14765859D01*
X21481288Y-14715064D01*
X21543799Y-14698155D01*
X21912770Y-14698155D01*
X21979809Y-14717840D01*
X22000451Y-14734474D01*
X22056344Y-14790367D01*
X22205666Y-14882469D01*
X22372203Y-14937654D01*
X22474991Y-14948155D01*
X23525008Y-14948154D01*
X23525016Y-14948153D01*
X23525019Y-14948153D01*
X23581302Y-14942403D01*
X23627797Y-14937654D01*
X23794334Y-14882469D01*
X23943656Y-14790367D01*
X24067712Y-14666311D01*
X24159814Y-14516989D01*
X24214999Y-14350452D01*
X24225500Y-14247664D01*
X24225499Y-13647647D01*
X24214999Y-13544858D01*
X24159814Y-13378321D01*
X24067712Y-13228999D01*
X23943656Y-13104943D01*
X23940819Y-13103193D01*
X23939283Y-13101485D01*
X23937989Y-13100462D01*
X23938163Y-13100240D01*
X23894096Y-13051249D01*
X23882872Y-12982287D01*
X23910713Y-12918204D01*
X23940817Y-12892117D01*
X23943656Y-12890367D01*
X24067712Y-12766311D01*
X24159814Y-12616989D01*
X24214999Y-12450452D01*
X24225500Y-12347664D01*
X24225499Y-11747647D01*
X24214999Y-11644858D01*
X24159814Y-11478321D01*
X24067712Y-11328999D01*
X23943656Y-11204943D01*
X23809402Y-11122135D01*
X23762679Y-11070188D01*
X23750500Y-11016597D01*
X23750500Y-10938293D01*
X23770185Y-10871254D01*
X23809401Y-10832755D01*
X23918656Y-10765367D01*
X24042712Y-10641311D01*
X24134814Y-10491989D01*
X24189999Y-10325452D01*
X24200500Y-10222664D01*
X24200499Y-9597647D01*
X24189999Y-9494858D01*
X24134814Y-9328321D01*
X24042712Y-9178999D01*
X23918656Y-9054943D01*
X23769334Y-8962841D01*
X23602797Y-8907656D01*
X23602795Y-8907655D01*
X23500010Y-8897155D01*
X22499998Y-8897155D01*
X22499980Y-8897156D01*
X22397203Y-8907655D01*
X22397196Y-8907657D01*
X22337733Y-8927361D01*
X22267904Y-8929762D01*
X22211049Y-8897336D01*
X21530907Y-8217194D01*
X21497422Y-8155871D01*
X21500656Y-8091197D01*
X21520940Y-8028773D01*
X21543429Y-7886783D01*
X21550500Y-7842141D01*
X21550500Y-7653168D01*
X21520940Y-7466536D01*
X21488007Y-7365181D01*
X21462547Y-7286823D01*
X21462545Y-7286820D01*
X21462545Y-7286818D01*
X21379606Y-7124042D01*
X21376760Y-7118456D01*
X21265690Y-6965582D01*
X21132073Y-6831965D01*
X20979199Y-6720895D01*
X20966791Y-6714573D01*
X20810836Y-6635109D01*
X20631118Y-6576714D01*
X20444486Y-6547155D01*
X20444481Y-6547155D01*
X19555519Y-6547155D01*
X19555514Y-6547155D01*
X19368881Y-6576714D01*
X19189163Y-6635109D01*
X19020800Y-6720895D01*
X18985900Y-6746252D01*
X18867927Y-6831965D01*
X18867925Y-6831967D01*
X18867924Y-6831967D01*
X18734312Y-6965579D01*
X18734312Y-6965580D01*
X18734310Y-6965582D01*
X18718155Y-6987818D01*
X18623240Y-7118455D01*
X18537454Y-7286818D01*
X18479059Y-7466536D01*
X18449500Y-7653168D01*
X18449500Y-7842141D01*
X18479059Y-8028773D01*
X18537454Y-8208491D01*
X18623240Y-8376854D01*
X18734310Y-8529728D01*
X18867927Y-8663345D01*
X19020801Y-8774415D01*
X19055296Y-8791991D01*
X19189163Y-8860200D01*
X19189165Y-8860200D01*
X19189168Y-8860202D01*
X19251722Y-8880527D01*
X19368881Y-8918595D01*
X19555514Y-8948155D01*
X19555519Y-8948155D01*
X20087770Y-8948155D01*
X20154809Y-8967840D01*
X20175451Y-8984474D01*
X21684086Y-10493109D01*
X21713558Y-10512800D01*
X21757770Y-10542341D01*
X21807005Y-10575239D01*
X21807006Y-10575239D01*
X21807007Y-10575240D01*
X21807009Y-10575241D01*
X21927972Y-10625345D01*
X21968201Y-10652224D01*
X22081344Y-10765367D01*
X22190597Y-10832754D01*
X22237321Y-10884702D01*
X22249500Y-10938293D01*
X22249500Y-11016597D01*
X22229815Y-11083636D01*
X22190598Y-11122134D01*
X22104209Y-11175419D01*
X22056342Y-11204944D01*
X21932289Y-11328997D01*
X21840187Y-11478318D01*
X21840186Y-11478321D01*
X21785001Y-11644858D01*
X21785001Y-11644859D01*
X21785000Y-11644859D01*
X21774500Y-11747638D01*
X21774500Y-12347656D01*
X21774501Y-12347674D01*
X21785000Y-12450451D01*
X21785001Y-12450454D01*
X21820762Y-12558371D01*
X21840186Y-12616989D01*
X21924944Y-12754405D01*
X21932289Y-12766312D01*
X22056346Y-12890369D01*
X22059182Y-12892118D01*
X22060717Y-12893825D01*
X22062011Y-12894848D01*
X22061836Y-12895069D01*
X22105905Y-12944066D01*
X22117126Y-13013029D01*
X22089282Y-13077111D01*
X22059182Y-13103192D01*
X22056346Y-13104940D01*
X22056343Y-13104943D01*
X22000451Y-13160836D01*
X21939128Y-13194321D01*
X21912770Y-13197155D01*
X20962376Y-13197155D01*
X20906081Y-13183640D01*
X20810836Y-13135109D01*
X20631118Y-13076714D01*
X20444486Y-13047155D01*
X20444481Y-13047155D01*
X19912230Y-13047155D01*
X19845191Y-13027470D01*
X19824549Y-13010836D01*
X19378421Y-12564707D01*
X19378420Y-12564706D01*
X19368940Y-12558372D01*
X19303584Y-12514703D01*
X19303583Y-12514702D01*
X19255501Y-12482574D01*
X19255488Y-12482567D01*
X19118917Y-12425998D01*
X19118907Y-12425995D01*
X18973920Y-12397155D01*
X18973918Y-12397155D01*
X16197625Y-12397155D01*
X16130586Y-12377470D01*
X16084831Y-12324666D01*
X16074887Y-12255508D01*
X16103912Y-12191952D01*
X16109944Y-12185474D01*
X16165690Y-12129728D01*
X16276760Y-11976854D01*
X16362547Y-11808487D01*
X16420940Y-11628773D01*
X16444769Y-11478323D01*
X16450500Y-11442141D01*
X16450500Y-10553168D01*
X16420940Y-10366536D01*
X16374195Y-10222671D01*
X16362547Y-10186823D01*
X16362545Y-10186820D01*
X16362545Y-10186818D01*
X16276759Y-10018455D01*
X16165690Y-9865582D01*
X16032073Y-9731965D01*
X15879199Y-9620895D01*
X15833584Y-9597653D01*
X15710836Y-9535109D01*
X15531118Y-9476714D01*
X15344486Y-9447155D01*
X15344481Y-9447155D01*
X15155519Y-9447155D01*
X15155514Y-9447155D01*
X14968882Y-9476714D01*
X14906456Y-9496997D01*
X14836615Y-9498991D01*
X14780459Y-9466746D01*
X14100317Y-8786604D01*
X14066832Y-8725281D01*
X14070292Y-8659920D01*
X14089999Y-8600452D01*
X14100500Y-8497664D01*
X14100499Y-7497647D01*
X14099182Y-7484757D01*
X14111950Y-7416066D01*
X14159830Y-7365181D01*
X14222540Y-7348155D01*
X17193587Y-7348155D01*
X17291129Y-7328751D01*
X17338580Y-7319313D01*
X17475162Y-7262739D01*
X17526672Y-7228321D01*
X17598083Y-7180607D01*
X20236796Y-4541892D01*
X20298119Y-4508408D01*
X20367811Y-4513392D01*
X20412158Y-4541893D01*
X20497736Y-4627471D01*
X20588078Y-4684237D01*
X20634734Y-4713553D01*
X20650476Y-4723444D01*
X20820743Y-4783023D01*
X20820748Y-4783024D01*
X20999994Y-4803220D01*
X20999998Y-4803220D01*
X21000002Y-4803220D01*
X21179247Y-4783024D01*
X21179250Y-4783023D01*
X21179253Y-4783023D01*
X21349520Y-4723444D01*
X21502260Y-4627471D01*
X21629814Y-4499917D01*
X21725787Y-4347177D01*
X21725788Y-4347173D01*
X21728809Y-4340901D01*
X21730653Y-4341789D01*
X21753303Y-4305716D01*
X22734547Y-3324474D01*
X22795870Y-3290989D01*
X22822228Y-3288155D01*
X24812299Y-3288155D01*
X24879338Y-3307840D01*
X24913873Y-3341031D01*
X24961505Y-3409056D01*
X25128597Y-3576148D01*
X25128603Y-3576153D01*
X25314158Y-3706080D01*
X25357783Y-3760657D01*
X25364977Y-3830155D01*
X25333454Y-3892510D01*
X25314158Y-3909230D01*
X25128597Y-4039160D01*
X24961505Y-4206252D01*
X24825965Y-4399824D01*
X24825964Y-4399826D01*
X24726098Y-4613990D01*
X24726094Y-4613999D01*
X24664938Y-4842241D01*
X24664936Y-4842251D01*
X24644341Y-5077654D01*
X24644341Y-5077655D01*
X24664936Y-5313058D01*
X24664938Y-5313068D01*
X24726094Y-5541310D01*
X24726096Y-5541314D01*
X24726097Y-5541318D01*
X24801178Y-5702330D01*
X24825965Y-5755485D01*
X24825967Y-5755489D01*
X24910075Y-5875606D01*
X24947639Y-5929254D01*
X24961501Y-5949050D01*
X24961506Y-5949057D01*
X25128597Y-6116148D01*
X25128603Y-6116153D01*
X25314158Y-6246080D01*
X25357783Y-6300657D01*
X25364977Y-6370155D01*
X25333454Y-6432510D01*
X25314158Y-6449230D01*
X25128597Y-6579160D01*
X24961505Y-6746252D01*
X24825965Y-6939824D01*
X24825964Y-6939826D01*
X24726098Y-7153990D01*
X24726094Y-7153999D01*
X24664938Y-7382241D01*
X24664936Y-7382251D01*
X24644341Y-7617654D01*
X24644341Y-7617655D01*
X24664936Y-7853058D01*
X24664938Y-7853068D01*
X24726094Y-8081310D01*
X24726096Y-8081314D01*
X24726097Y-8081318D01*
X24745875Y-8123731D01*
X24825965Y-8295485D01*
X24825967Y-8295489D01*
X24928256Y-8441572D01*
X24961505Y-8489056D01*
X25128599Y-8656150D01*
X25138875Y-8663345D01*
X25322165Y-8791687D01*
X25322167Y-8791688D01*
X25322170Y-8791690D01*
X25536337Y-8891558D01*
X25536343Y-8891559D01*
X25536344Y-8891560D01*
X25557229Y-8897156D01*
X25764592Y-8952718D01*
X25952918Y-8969194D01*
X25999999Y-8973314D01*
X26000000Y-8973314D01*
X26000001Y-8973314D01*
X26039234Y-8969881D01*
X26235408Y-8952718D01*
X26463663Y-8891558D01*
X26677830Y-8791690D01*
X26871401Y-8656150D01*
X27038495Y-8489056D01*
X27174035Y-8295485D01*
X27273903Y-8081318D01*
X27335063Y-7853063D01*
X27355659Y-7617655D01*
X27335063Y-7382247D01*
X27273903Y-7153992D01*
X27174035Y-6939826D01*
X27163036Y-6924117D01*
X27038494Y-6746252D01*
X26871402Y-6579161D01*
X26871396Y-6579156D01*
X26685842Y-6449230D01*
X26642217Y-6394653D01*
X26635023Y-6325155D01*
X26666546Y-6262800D01*
X26685842Y-6246080D01*
X26708026Y-6230546D01*
X26871401Y-6116150D01*
X27038495Y-5949056D01*
X27174035Y-5755485D01*
X27273903Y-5541318D01*
X27335063Y-5313063D01*
X27355659Y-5077655D01*
X27355397Y-5074666D01*
X27342226Y-4924117D01*
X27335063Y-4842247D01*
X27273903Y-4613992D01*
X27174035Y-4399826D01*
X27137170Y-4347176D01*
X27038494Y-4206252D01*
X26871402Y-4039161D01*
X26871396Y-4039156D01*
X26685842Y-3909230D01*
X26642217Y-3854653D01*
X26635023Y-3785155D01*
X26666546Y-3722800D01*
X26685842Y-3706080D01*
X26727047Y-3677228D01*
X26871401Y-3576150D01*
X27038495Y-3409056D01*
X27174035Y-3215485D01*
X27273903Y-3001318D01*
X27335063Y-2773063D01*
X27355659Y-2537655D01*
X27335063Y-2302247D01*
X27273903Y-2073992D01*
X27174035Y-1859826D01*
X27173398Y-1858915D01*
X27038494Y-1666252D01*
X26871402Y-1499161D01*
X26871396Y-1499156D01*
X26685842Y-1369230D01*
X26642217Y-1314653D01*
X26635023Y-1245155D01*
X26666546Y-1182800D01*
X26685842Y-1166080D01*
X26788717Y-1094046D01*
X26871401Y-1036150D01*
X27038495Y-869056D01*
X27174035Y-675485D01*
X27273903Y-461318D01*
X27335063Y-233063D01*
X27355659Y2345D01*
X27335063Y237753D01*
X27273903Y466008D01*
X27174035Y680174D01*
X27038495Y873746D01*
X26871401Y1040840D01*
X26685842Y1170770D01*
X26642217Y1225347D01*
X26635023Y1294845D01*
X26666546Y1357200D01*
X26685842Y1373920D01*
X26871396Y1503846D01*
X26871402Y1503851D01*
X27038493Y1670942D01*
X27038495Y1670944D01*
X27126382Y1796460D01*
X27174032Y1864510D01*
X27174034Y1864514D01*
X27174035Y1864515D01*
X27273903Y2078682D01*
X27276661Y2088973D01*
X27326399Y2274602D01*
X27335063Y2306937D01*
X27355659Y2542345D01*
X27335063Y2777753D01*
X27273903Y3006008D01*
X27174035Y3220174D01*
X27038495Y3413746D01*
X26871401Y3580840D01*
X26685842Y3710770D01*
X26642217Y3765347D01*
X26635023Y3834845D01*
X26666546Y3897200D01*
X26685842Y3913920D01*
X26871396Y4043846D01*
X26871402Y4043851D01*
X27038493Y4210942D01*
X27038495Y4210944D01*
X27136554Y4350987D01*
X27174032Y4404510D01*
X27174034Y4404514D01*
X27174035Y4404515D01*
X27273903Y4618682D01*
X27285202Y4660849D01*
X27295980Y4701076D01*
X27335063Y4846937D01*
X27351832Y5038598D01*
X27355659Y5082344D01*
X27355659Y5082345D01*
X27350320Y5143372D01*
X27335063Y5317753D01*
X27273903Y5546008D01*
X27174035Y5760174D01*
X27038495Y5953746D01*
X26871401Y6120840D01*
X26677830Y6256380D01*
X26463663Y6356248D01*
X26235408Y6417408D01*
X26039234Y6434571D01*
X26000001Y6438004D01*
X25999999Y6438004D01*
X25952918Y6433884D01*
X25764592Y6417408D01*
X25685841Y6396307D01*
X25606593Y6375073D01*
X25536743Y6376736D01*
X25478881Y6415899D01*
X25451377Y6480127D01*
X25450500Y6494848D01*
X25450500Y13784691D01*
X25421659Y13929678D01*
X25421658Y13929684D01*
X25365084Y14066266D01*
X25282951Y14189187D01*
X25178416Y14293722D01*
X17873415Y21598724D01*
X17799728Y21647958D01*
X17750494Y21680856D01*
X17613912Y21737430D01*
X17566461Y21746868D01*
X17468919Y21766272D01*
X17468917Y21766272D01*
X15568916Y21766272D01*
X15421081Y21766272D01*
X15421079Y21766272D01*
X15276091Y21737431D01*
X15276086Y21737430D01*
X15276081Y21737428D01*
X15139510Y21680859D01*
X15139497Y21680852D01*
X15016583Y21598723D01*
X15016579Y21598720D01*
X14592051Y21174193D01*
X14592050Y21174192D01*
X14542813Y21100502D01*
X14542812Y21100501D01*
X14509914Y21051266D01*
X14503135Y21034899D01*
X14459294Y20980496D01*
X14393000Y20958431D01*
X14330119Y20972995D01*
X14310722Y20983363D01*
X14289726Y20994586D01*
X14101131Y21051796D01*
X13904999Y21071113D01*
X13708867Y21051796D01*
X13520272Y20994586D01*
X13346461Y20901682D01*
X13346457Y20901679D01*
X13341392Y20898295D01*
X13340295Y20899936D01*
X13284360Y20876177D01*
X13215492Y20887966D01*
X13198850Y20898660D01*
X13198606Y20898295D01*
X13193543Y20901676D01*
X13193537Y20901682D01*
X13019726Y20994586D01*
X12831131Y21051796D01*
X12634999Y21071113D01*
X12438867Y21051796D01*
X12250272Y20994586D01*
X12076461Y20901682D01*
X12076457Y20901679D01*
X12071392Y20898295D01*
X12070295Y20899936D01*
X12014360Y20876177D01*
X11945492Y20887966D01*
X11928850Y20898660D01*
X11928606Y20898295D01*
X11923543Y20901676D01*
X11923537Y20901682D01*
X11749726Y20994586D01*
X11561131Y21051796D01*
X11364999Y21071113D01*
X11168867Y21051796D01*
X10980272Y20994586D01*
X10806461Y20901682D01*
X10806457Y20901679D01*
X10801392Y20898295D01*
X10800295Y20899936D01*
X10744360Y20876177D01*
X10675492Y20887966D01*
X10658850Y20898660D01*
X10658606Y20898295D01*
X10653543Y20901676D01*
X10653537Y20901682D01*
X10479726Y20994586D01*
X10291131Y21051796D01*
X10094999Y21071113D01*
X9898867Y21051796D01*
X9710272Y20994586D01*
X9536461Y20901682D01*
X9536457Y20901679D01*
X9531392Y20898295D01*
X9530295Y20899936D01*
X9474360Y20876177D01*
X9405492Y20887966D01*
X9388850Y20898660D01*
X9388606Y20898295D01*
X9383543Y20901676D01*
X9383537Y20901682D01*
X9209726Y20994586D01*
X9021131Y21051796D01*
X8824999Y21071113D01*
X8628867Y21051796D01*
X8440272Y20994586D01*
X8266461Y20901682D01*
X8266457Y20901679D01*
X8261392Y20898295D01*
X8260295Y20899936D01*
X8204360Y20876177D01*
X8135492Y20887966D01*
X8118850Y20898660D01*
X8118606Y20898295D01*
X8113543Y20901676D01*
X8113537Y20901682D01*
X7939726Y20994586D01*
X7751131Y21051796D01*
X7554999Y21071113D01*
X7358867Y21051796D01*
X7170272Y20994586D01*
X7170268Y20994584D01*
X7170265Y20994583D01*
X6996466Y20901685D01*
X6996459Y20901681D01*
X6844115Y20776655D01*
X6719089Y20624311D01*
X6719085Y20624304D01*
X6626187Y20450505D01*
X6568974Y20261901D01*
X6549658Y20065772D01*
X6568974Y19869642D01*
X6626187Y19681038D01*
X6719085Y19507239D01*
X6719089Y19507232D01*
X6776353Y19437457D01*
X6803666Y19373147D01*
X6804500Y19358792D01*
X6804500Y18112612D01*
X6784815Y18045573D01*
X6783602Y18043721D01*
X6712681Y17937581D01*
X6712676Y17937573D01*
X6641027Y17764596D01*
X6641025Y17764588D01*
X6604500Y17580965D01*
X6604500Y16893724D01*
X6641025Y16710101D01*
X6641027Y16710093D01*
X6712676Y16537116D01*
X6712681Y16537107D01*
X6816697Y16381437D01*
X6816700Y16381433D01*
X6949088Y16249045D01*
X6949092Y16249042D01*
X7104762Y16145026D01*
X7104771Y16145021D01*
X7277748Y16073372D01*
X7277756Y16073370D01*
X7461379Y16036845D01*
X7461384Y16036845D01*
X7648620Y16036845D01*
X7832243Y16073370D01*
X7832251Y16073372D01*
X8005228Y16145021D01*
X8005242Y16145029D01*
X8121110Y16222449D01*
X8187787Y16243327D01*
X8255167Y16224842D01*
X8258890Y16222449D01*
X8374757Y16145029D01*
X8374771Y16145021D01*
X8547748Y16073372D01*
X8547756Y16073370D01*
X8731379Y16036845D01*
X8731384Y16036845D01*
X8918620Y16036845D01*
X9102243Y16073370D01*
X9102251Y16073372D01*
X9275228Y16145021D01*
X9275242Y16145029D01*
X9391110Y16222449D01*
X9457787Y16243327D01*
X9525167Y16224842D01*
X9528890Y16222449D01*
X9644757Y16145029D01*
X9644771Y16145021D01*
X9817748Y16073372D01*
X9817756Y16073370D01*
X10001379Y16036845D01*
X10001384Y16036845D01*
X10188620Y16036845D01*
X10372243Y16073370D01*
X10372251Y16073372D01*
X10545227Y16145021D01*
X10545228Y16145021D01*
X10545231Y16145023D01*
X10603293Y16183819D01*
X10607111Y16186370D01*
X10673788Y16207247D01*
X10741168Y16188762D01*
X10763680Y16170950D01*
X10806898Y16127732D01*
X10806904Y16127728D01*
X10950288Y16031921D01*
X10950301Y16031914D01*
X11109621Y15965922D01*
X11109633Y15965919D01*
X11278766Y15932276D01*
X11278771Y15932276D01*
X11451233Y15932276D01*
X11620366Y15965919D01*
X11620378Y15965922D01*
X11779698Y16031914D01*
X11779711Y16031921D01*
X11923098Y16127730D01*
X11923102Y16127733D01*
X11966317Y16170948D01*
X12027640Y16204433D01*
X12097332Y16199449D01*
X12122888Y16186369D01*
X12184757Y16145029D01*
X12184771Y16145021D01*
X12357748Y16073372D01*
X12357756Y16073370D01*
X12541379Y16036845D01*
X12541384Y16036845D01*
X12728620Y16036845D01*
X12912243Y16073370D01*
X12912251Y16073372D01*
X13085228Y16145021D01*
X13085242Y16145029D01*
X13201110Y16222449D01*
X13267787Y16243327D01*
X13335167Y16224842D01*
X13338890Y16222449D01*
X13454757Y16145029D01*
X13454771Y16145021D01*
X13627748Y16073372D01*
X13627756Y16073370D01*
X13811379Y16036845D01*
X13811384Y16036845D01*
X13998620Y16036845D01*
X14182243Y16073370D01*
X14182251Y16073372D01*
X14355228Y16145021D01*
X14355242Y16145029D01*
X14471110Y16222449D01*
X14537787Y16243327D01*
X14605167Y16224842D01*
X14608890Y16222449D01*
X14724757Y16145029D01*
X14724771Y16145021D01*
X14897748Y16073372D01*
X14897753Y16073370D01*
X14942956Y16064379D01*
X15004866Y16031993D01*
X15039440Y15971277D01*
X15035699Y15901508D01*
X15006444Y15855081D01*
X14119148Y14967785D01*
X14119142Y14967778D01*
X13975469Y14780539D01*
X13975463Y14780531D01*
X13975460Y14780526D01*
X13975458Y14780523D01*
X13857455Y14576138D01*
X13857447Y14576122D01*
X13767136Y14358090D01*
X13767132Y14358078D01*
X13767131Y14358075D01*
X13706044Y14130095D01*
X13706044Y14130092D01*
X13675236Y13896099D01*
X13675236Y13660062D01*
X13706043Y13426070D01*
X13719755Y13374898D01*
X13757591Y13233689D01*
X13767132Y13198084D01*
X13767136Y13198071D01*
X13857447Y12980039D01*
X13857455Y12980023D01*
X13975458Y12775638D01*
X13975469Y12775622D01*
X14119142Y12588383D01*
X14119148Y12588376D01*
X14286031Y12421493D01*
X14286038Y12421487D01*
X14473277Y12277814D01*
X14473293Y12277803D01*
X14677678Y12159800D01*
X14677694Y12159792D01*
X14895726Y12069481D01*
X14895739Y12069477D01*
X14895740Y12069476D01*
X14895742Y12069476D01*
X15009732Y12038932D01*
X15123725Y12008388D01*
X15357717Y11977581D01*
X15357725Y11977581D01*
X15593754Y11977581D01*
X15827746Y12008388D01*
X15889254Y12024869D01*
X16055730Y12069476D01*
X16055733Y12069477D01*
X16055745Y12069481D01*
X16273777Y12159792D01*
X16273793Y12159800D01*
X16478178Y12277803D01*
X16478181Y12277805D01*
X16478186Y12277808D01*
X16478194Y12277814D01*
X16665433Y12421487D01*
X16665440Y12421493D01*
X17680848Y13436901D01*
X17680855Y13436909D01*
X17824538Y13624158D01*
X17942546Y13828555D01*
X17942553Y13828570D01*
X18032870Y14046616D01*
X18037012Y14062072D01*
X18093957Y14274595D01*
X18124764Y14508598D01*
X18124764Y14744620D01*
X18093957Y14978623D01*
X18032870Y15206603D01*
X17942548Y15424659D01*
X17824538Y15629060D01*
X17806305Y15652821D01*
X17755721Y15718743D01*
X17680856Y15816309D01*
X17680851Y15816313D01*
X17680848Y15816318D01*
X17513973Y15983193D01*
X17513968Y15983196D01*
X17513964Y15983201D01*
X17326715Y16126883D01*
X17214233Y16191823D01*
X17166018Y16242390D01*
X17152794Y16310997D01*
X17178762Y16375862D01*
X17180380Y16377876D01*
X17183301Y16381436D01*
X17192401Y16395054D01*
X17283904Y16531998D01*
X17287318Y16537107D01*
X17287323Y16537116D01*
X17322429Y16621870D01*
X17358973Y16710094D01*
X17395500Y16893729D01*
X17395500Y17580961D01*
X17358973Y17764596D01*
X17287322Y17937576D01*
X17216396Y18043722D01*
X17195519Y18110400D01*
X17195499Y18112613D01*
X17195499Y19066021D01*
X17215184Y19133060D01*
X17245187Y19165287D01*
X17302541Y19208223D01*
X17302545Y19208226D01*
X17323986Y19236867D01*
X17388792Y19323436D01*
X17388796Y19323443D01*
X17436210Y19450568D01*
X17439090Y19458289D01*
X17445499Y19517899D01*
X17445498Y19604542D01*
X17465182Y19671579D01*
X17517985Y19717335D01*
X17587144Y19727279D01*
X17650700Y19698255D01*
X17657179Y19692222D01*
X23913181Y13436221D01*
X23946666Y13374898D01*
X23949500Y13348540D01*
X23949500Y3768424D01*
X23949499Y3768424D01*
X23978340Y3623437D01*
X23978343Y3623427D01*
X24034913Y3486854D01*
X24034915Y3486851D01*
X24046904Y3468908D01*
X24046903Y3468907D01*
X24117046Y3363930D01*
X24117052Y3363923D01*
X24627130Y2853846D01*
X24660615Y2792523D01*
X24662977Y2755358D01*
X24644341Y2542346D01*
X24644341Y2542344D01*
X24664936Y2306941D01*
X24664938Y2306931D01*
X24705221Y2156593D01*
X24703558Y2086743D01*
X24664395Y2028881D01*
X24600167Y2001377D01*
X24585446Y2000500D01*
X23903454Y2000500D01*
X23897656Y1999346D01*
X23874614Y1994763D01*
X23758461Y1971659D01*
X23692310Y1944258D01*
X23621880Y1915085D01*
X23621871Y1915080D01*
X23565273Y1877262D01*
X23498955Y1832950D01*
X16555169Y-5110836D01*
X16493846Y-5144321D01*
X16467488Y-5147155D01*
X16392337Y-5147155D01*
X16325298Y-5127470D01*
X16279543Y-5074666D01*
X16269599Y-5005508D01*
X16281852Y-4966860D01*
X16362545Y-4808491D01*
X16362545Y-4808490D01*
X16362547Y-4808487D01*
X16420940Y-4628773D01*
X16423281Y-4613990D01*
X16450500Y-4442141D01*
X16450500Y-3909884D01*
X16470185Y-3842845D01*
X16486819Y-3822203D01*
X22146373Y1837350D01*
X22146376Y1837353D01*
X22171335Y1874707D01*
X22171335Y1874708D01*
X22172598Y1876597D01*
X22191825Y1905373D01*
X22228506Y1960268D01*
X22228514Y1960283D01*
X22285083Y2096854D01*
X22285086Y2096864D01*
X22313927Y2241851D01*
X22313927Y5057594D01*
X22333612Y5124633D01*
X22363615Y5156860D01*
X22420969Y5199796D01*
X22420973Y5199799D01*
X22463911Y5257157D01*
X22507220Y5315009D01*
X22507224Y5315016D01*
X22557518Y5449862D01*
X22557687Y5451437D01*
X22563927Y5509472D01*
X22563926Y6605217D01*
X22557518Y6664828D01*
X22507223Y6799676D01*
X22501197Y6807724D01*
X22476778Y6873187D01*
X22490322Y6936819D01*
X22489910Y6936990D01*
X22490833Y6939220D01*
X22491104Y6940491D01*
X22492241Y6942618D01*
X22549451Y7131213D01*
X22568768Y7327345D01*
X22549451Y7523477D01*
X22492241Y7712072D01*
X22399337Y7885883D01*
X22399331Y7885889D01*
X22395950Y7890952D01*
X22397591Y7892048D01*
X22373832Y7947984D01*
X22385621Y8016852D01*
X22396315Y8033493D01*
X22395950Y8033738D01*
X22399334Y8038803D01*
X22399337Y8038807D01*
X22492241Y8212618D01*
X22549451Y8401213D01*
X22568768Y8597345D01*
X22549451Y8793477D01*
X22492241Y8982072D01*
X22399337Y9155883D01*
X22274310Y9308228D01*
X22121965Y9433255D01*
X22029613Y9482618D01*
X21948160Y9526156D01*
X21948159Y9526156D01*
X21948154Y9526159D01*
X21759559Y9583369D01*
X21563427Y9602686D01*
X21367295Y9583369D01*
X21178700Y9526159D01*
X21178696Y9526156D01*
X21178693Y9526156D01*
X21004894Y9433258D01*
X21004887Y9433254D01*
X20935114Y9375992D01*
X20870804Y9348679D01*
X20856449Y9347845D01*
X19610267Y9347845D01*
X19543228Y9367530D01*
X19541376Y9368743D01*
X19530527Y9375992D01*
X19435231Y9439667D01*
X19262251Y9511318D01*
X19078618Y9547844D01*
X19078617Y9547845D01*
X19078616Y9547845D01*
X18391384Y9547845D01*
X18391383Y9547845D01*
X18391379Y9547844D01*
X18207749Y9511318D01*
X18126789Y9477783D01*
X18034771Y9439668D01*
X18034762Y9439663D01*
X17879092Y9335647D01*
X17879088Y9335644D01*
X17746700Y9203256D01*
X17746697Y9203252D01*
X17642681Y9047582D01*
X17642676Y9047573D01*
X17571027Y8874596D01*
X17571025Y8874588D01*
X17534500Y8690965D01*
X17534500Y8503724D01*
X17571025Y8320101D01*
X17571027Y8320093D01*
X17642676Y8147116D01*
X17642684Y8147102D01*
X17720104Y8031235D01*
X17740982Y7964558D01*
X17722497Y7897178D01*
X17720104Y7893455D01*
X17642684Y7777587D01*
X17642676Y7777573D01*
X17571027Y7604596D01*
X17571025Y7604588D01*
X17534500Y7420965D01*
X17534500Y7233724D01*
X17571025Y7050101D01*
X17571027Y7050093D01*
X17642676Y6877116D01*
X17642684Y6877102D01*
X17720104Y6761235D01*
X17740982Y6694558D01*
X17722497Y6627178D01*
X17720104Y6623455D01*
X17642684Y6507587D01*
X17642676Y6507573D01*
X17571027Y6334596D01*
X17571025Y6334588D01*
X17534500Y6150965D01*
X17534500Y5963724D01*
X17571025Y5780101D01*
X17571027Y5780093D01*
X17642676Y5607116D01*
X17642681Y5607107D01*
X17746697Y5451437D01*
X17746700Y5451433D01*
X17879088Y5319045D01*
X17879092Y5319042D01*
X18034762Y5215026D01*
X18034771Y5215021D01*
X18207748Y5143372D01*
X18207756Y5143370D01*
X18391379Y5106845D01*
X18391384Y5106845D01*
X19078620Y5106845D01*
X19262243Y5143370D01*
X19262251Y5143372D01*
X19435228Y5215021D01*
X19435236Y5215026D01*
X19541376Y5285947D01*
X19608053Y5306825D01*
X19610267Y5306845D01*
X20563676Y5306845D01*
X20630715Y5287160D01*
X20662942Y5257157D01*
X20705880Y5199798D01*
X20763239Y5156860D01*
X20805109Y5100926D01*
X20812927Y5057594D01*
X20812927Y2678001D01*
X20793242Y2610962D01*
X20776608Y2590320D01*
X15719539Y-2466746D01*
X15658216Y-2500231D01*
X15593541Y-2496996D01*
X15531121Y-2476715D01*
X15344486Y-2447155D01*
X15344481Y-2447155D01*
X15155519Y-2447155D01*
X15155514Y-2447155D01*
X14968882Y-2476714D01*
X14906456Y-2496997D01*
X14836615Y-2498991D01*
X14780459Y-2466746D01*
X14100317Y-1786604D01*
X14066832Y-1725281D01*
X14070292Y-1659920D01*
X14089999Y-1600452D01*
X14100500Y-1497664D01*
X14100499Y-497647D01*
X14098677Y-479815D01*
X14089999Y-394858D01*
X14089998Y-394855D01*
X14073150Y-344011D01*
X14034814Y-228321D01*
X14034810Y-228314D01*
X14031760Y-221773D01*
X14033281Y-221063D01*
X14017186Y-162255D01*
X14038104Y-95590D01*
X14091743Y-50817D01*
X14105153Y-45887D01*
X14264149Y2344D01*
X14289731Y10104D01*
X14463532Y103003D01*
X14468601Y106390D01*
X14469694Y104753D01*
X14525663Y128513D01*
X14594529Y116712D01*
X14611156Y106026D01*
X14611399Y106390D01*
X14616467Y103003D01*
X14790266Y10105D01*
X14815851Y2344D01*
X14978868Y-47107D01*
X15175000Y-66424D01*
X15371132Y-47107D01*
X15559727Y10103D01*
X15559733Y10105D01*
X15733532Y103003D01*
X15738601Y106390D01*
X15739694Y104753D01*
X15795663Y128513D01*
X15864529Y116712D01*
X15881156Y106026D01*
X15881399Y106390D01*
X15886467Y103003D01*
X16060266Y10105D01*
X16085851Y2344D01*
X16248868Y-47107D01*
X16445000Y-66424D01*
X16641132Y-47107D01*
X16829727Y10103D01*
X16829733Y10105D01*
X17003532Y103003D01*
X17003539Y103007D01*
X17155883Y228033D01*
X17280909Y380377D01*
X17280913Y380384D01*
X17373811Y554183D01*
X17373811Y554186D01*
X17373814Y554190D01*
X17431024Y742785D01*
X17450341Y938917D01*
X17431024Y1135049D01*
X17373814Y1323644D01*
X17373812Y1323646D01*
X17373143Y1325854D01*
X17372519Y1395721D01*
X17409767Y1454834D01*
X17473060Y1484425D01*
X17505686Y1485070D01*
X17525994Y1482782D01*
X17525998Y1482782D01*
X17526002Y1482782D01*
X17705247Y1502977D01*
X17705252Y1502978D01*
X17875521Y1562558D01*
X18028260Y1658531D01*
X18155813Y1786084D01*
X18162336Y1796464D01*
X18250476Y1936738D01*
X18251786Y1938823D01*
X18257063Y1953902D01*
X18311366Y2109092D01*
X18317597Y2164394D01*
X18331563Y2288343D01*
X18331563Y2288350D01*
X18311367Y2467596D01*
X18311366Y2467601D01*
X18306794Y2480666D01*
X18283455Y2547364D01*
X18276498Y2588319D01*
X18276498Y4283059D01*
X18265716Y4337261D01*
X18247657Y4428051D01*
X18208914Y4521584D01*
X18191082Y4564634D01*
X18127033Y4660490D01*
X18108950Y4687554D01*
X17296208Y5500297D01*
X17212453Y5556259D01*
X17173287Y5582429D01*
X17036705Y5639003D01*
X16989254Y5648441D01*
X16891712Y5667845D01*
X16891710Y5667845D01*
X13458290Y5667845D01*
X13444410Y5665084D01*
X13313296Y5639004D01*
X13255445Y5615041D01*
X13176713Y5582429D01*
X13137547Y5556259D01*
X13053792Y5500297D01*
X13053790Y5500295D01*
X13053787Y5500293D01*
X13053786Y5500292D01*
X12542960Y4989465D01*
X12481637Y4955980D01*
X12479614Y4955558D01*
X12357749Y4931318D01*
X12223956Y4875899D01*
X12184771Y4859668D01*
X12184762Y4859663D01*
X12029092Y4755647D01*
X12029088Y4755644D01*
X11896700Y4623256D01*
X11896697Y4623252D01*
X11792681Y4467582D01*
X11792676Y4467573D01*
X11721027Y4294596D01*
X11721025Y4294588D01*
X11684500Y4110965D01*
X11684500Y3423724D01*
X11721025Y3240101D01*
X11721027Y3240093D01*
X11792677Y3067115D01*
X11863602Y2960967D01*
X11884479Y2894289D01*
X11884499Y2892077D01*
X11884499Y1645893D01*
X11864814Y1578854D01*
X11856359Y1567237D01*
X11799090Y1497455D01*
X11799087Y1497451D01*
X11799087Y1497450D01*
X11799086Y1497449D01*
X11706188Y1323650D01*
X11706186Y1323644D01*
X11697450Y1294845D01*
X11648975Y1135046D01*
X11629659Y938917D01*
X11648975Y742787D01*
X11706188Y554183D01*
X11799086Y380384D01*
X11799090Y380377D01*
X11924116Y228033D01*
X12076460Y103008D01*
X12076462Y103007D01*
X12161744Y57422D01*
X12211587Y8461D01*
X12227048Y-59676D01*
X12208829Y-117031D01*
X12164901Y-188251D01*
X12112954Y-234976D01*
X12059362Y-247155D01*
X11981058Y-247155D01*
X11914019Y-227470D01*
X11875519Y-188252D01*
X11792712Y-53999D01*
X11668656Y70057D01*
X11519334Y162159D01*
X11352797Y217344D01*
X11250009Y227845D01*
X11056259Y227844D01*
X10989221Y247528D01*
X10943466Y300332D01*
X10933522Y369490D01*
X10946902Y410297D01*
X11023811Y554184D01*
X11023814Y554190D01*
X11081024Y742785D01*
X11100341Y938917D01*
X11081024Y1135049D01*
X11023814Y1323644D01*
X10930910Y1497455D01*
X10873646Y1567231D01*
X10846333Y1631540D01*
X10845499Y1645896D01*
X10845499Y2892075D01*
X10865184Y2959114D01*
X10866397Y2960966D01*
X10937318Y3067107D01*
X10937323Y3067116D01*
X11000721Y3220173D01*
X11008973Y3240094D01*
X11045500Y3423729D01*
X11045500Y4110961D01*
X11008973Y4294596D01*
X10937322Y4467576D01*
X10833302Y4623253D01*
X10700908Y4755647D01*
X10545231Y4859667D01*
X10372251Y4931318D01*
X10188618Y4967844D01*
X10188617Y4967845D01*
X10188616Y4967845D01*
X10001384Y4967845D01*
X10001383Y4967845D01*
X10001379Y4967844D01*
X9817749Y4931318D01*
X9683956Y4875899D01*
X9644771Y4859668D01*
X9644762Y4859663D01*
X9528890Y4782240D01*
X9462212Y4761362D01*
X9394832Y4779847D01*
X9391109Y4782240D01*
X9301423Y4842166D01*
X9256617Y4895778D01*
X9247910Y4965103D01*
X9278064Y5028130D01*
X9282632Y5032949D01*
X9492948Y5243264D01*
X9492951Y5243268D01*
X9575080Y5366182D01*
X9575087Y5366195D01*
X9631656Y5502766D01*
X9631659Y5502776D01*
X9660500Y5647763D01*
X9660500Y6416926D01*
X9639926Y6520356D01*
X9631658Y6561919D01*
X9575084Y6698501D01*
X9526188Y6771679D01*
X9492952Y6821422D01*
X7201819Y9112555D01*
X7168334Y9173878D01*
X7165500Y9200236D01*
X7165500Y11043724D01*
X17534500Y11043724D01*
X17571025Y10860101D01*
X17571027Y10860093D01*
X17642676Y10687116D01*
X17642681Y10687107D01*
X17746697Y10531437D01*
X17746700Y10531433D01*
X17879088Y10399045D01*
X17879092Y10399042D01*
X18034762Y10295026D01*
X18034771Y10295021D01*
X18207748Y10223372D01*
X18207756Y10223370D01*
X18391379Y10186845D01*
X18391384Y10186845D01*
X19078620Y10186845D01*
X19262243Y10223370D01*
X19262251Y10223372D01*
X19435228Y10295021D01*
X19435237Y10295026D01*
X19590907Y10399042D01*
X19590911Y10399045D01*
X19723299Y10531433D01*
X19723302Y10531437D01*
X19827318Y10687107D01*
X19827323Y10687116D01*
X19869804Y10789674D01*
X19898973Y10860094D01*
X19935500Y11043729D01*
X19935500Y11137345D01*
X20558086Y11137345D01*
X20577402Y10941215D01*
X20634615Y10752611D01*
X20727513Y10578812D01*
X20727517Y10578805D01*
X20852543Y10426461D01*
X21004887Y10301435D01*
X21004894Y10301431D01*
X21178693Y10208533D01*
X21367297Y10151320D01*
X21563427Y10132004D01*
X21759556Y10151320D01*
X21876665Y10186845D01*
X21948154Y10208531D01*
X21948160Y10208533D01*
X22121959Y10301431D01*
X22121966Y10301435D01*
X22274310Y10426461D01*
X22399336Y10578805D01*
X22399340Y10578812D01*
X22492238Y10752611D01*
X22492238Y10752614D01*
X22492241Y10752618D01*
X22549451Y10941213D01*
X22568768Y11137345D01*
X22549451Y11333477D01*
X22492241Y11522072D01*
X22399337Y11695883D01*
X22274310Y11848228D01*
X22121965Y11973255D01*
X22015479Y12030173D01*
X21948160Y12066156D01*
X21948159Y12066156D01*
X21948154Y12066159D01*
X21759559Y12123369D01*
X21563427Y12142686D01*
X21367295Y12123369D01*
X21178700Y12066159D01*
X21178696Y12066156D01*
X21178693Y12066156D01*
X21004894Y11973258D01*
X21004887Y11973254D01*
X20852543Y11848228D01*
X20727517Y11695884D01*
X20727513Y11695877D01*
X20634615Y11522078D01*
X20577402Y11333474D01*
X20558086Y11137345D01*
X19935500Y11137345D01*
X19935500Y11230961D01*
X19898973Y11414596D01*
X19827322Y11587576D01*
X19723302Y11743253D01*
X19590908Y11875647D01*
X19435231Y11979667D01*
X19262251Y12051318D01*
X19078618Y12087844D01*
X19078617Y12087845D01*
X19078616Y12087845D01*
X18391384Y12087845D01*
X18391383Y12087845D01*
X18391379Y12087844D01*
X18207749Y12051318D01*
X18073956Y11995899D01*
X18034771Y11979668D01*
X18034762Y11979663D01*
X17879092Y11875647D01*
X17879088Y11875644D01*
X17746700Y11743256D01*
X17746697Y11743252D01*
X17642681Y11587582D01*
X17642676Y11587573D01*
X17571027Y11414596D01*
X17571025Y11414588D01*
X17534500Y11230965D01*
X17534500Y11043724D01*
X7165500Y11043724D01*
X7165500Y15394057D01*
X7136659Y15539044D01*
X7136658Y15539050D01*
X7080084Y15675632D01*
X6997951Y15798553D01*
X6893416Y15903088D01*
X4596819Y18199685D01*
X4563334Y18261008D01*
X4560500Y18287366D01*
X4560500Y21731413D01*
X4580185Y21798452D01*
X4632989Y21844207D01*
X4702147Y21854151D01*
X4723503Y21849119D01*
X4872198Y21799846D01*
X4872202Y21799845D01*
X4974987Y21789345D01*
X4974989Y21789345D01*
X6024999Y21789345D01*
X6025017Y21789346D01*
X6127794Y21799845D01*
X6127797Y21799846D01*
X6294329Y21855030D01*
X6294332Y21855031D01*
X6294333Y21855032D01*
X6294338Y21855034D01*
X6380832Y21908384D01*
X6445928Y21926845D01*
X7086233Y21926845D01*
X7255366Y21960488D01*
X7255378Y21960491D01*
X7414698Y22026483D01*
X7414711Y22026490D01*
X7558098Y22122299D01*
X7558102Y22122302D01*
X7680042Y22244242D01*
X7680045Y22244246D01*
X7775854Y22387633D01*
X7775861Y22387646D01*
X7841853Y22546966D01*
X7841855Y22546971D01*
X7875499Y22716111D01*
X7875500Y22716113D01*
X7875500Y23640477D01*
X7895185Y23707516D01*
X7914383Y23728691D01*
X7913549Y23729526D01*
X8042710Y23858687D01*
X8042712Y23858689D01*
X8134814Y24008011D01*
X8179254Y24142123D01*
X9249500Y24142123D01*
X9283985Y23924392D01*
X9352103Y23714741D01*
X9352104Y23714738D01*
X9452187Y23518319D01*
X9581752Y23339986D01*
X9581756Y23339981D01*
X9737636Y23184101D01*
X9737641Y23184097D01*
X9915974Y23054532D01*
X10112393Y22954449D01*
X10112396Y22954448D01*
X10322047Y22886330D01*
X10467201Y22863340D01*
X10539778Y22851845D01*
X10539779Y22851845D01*
X13460221Y22851845D01*
X13460222Y22851845D01*
X13569086Y22869087D01*
X13677952Y22886330D01*
X13887603Y22954448D01*
X13887606Y22954449D01*
X14041952Y23033094D01*
X14084022Y23054530D01*
X14084025Y23054532D01*
X14262358Y23184097D01*
X14262363Y23184101D01*
X14418243Y23339981D01*
X14418247Y23339986D01*
X14547812Y23518319D01*
X14547815Y23518323D01*
X14644215Y23707516D01*
X14647895Y23714738D01*
X14647896Y23714741D01*
X14716014Y23924392D01*
X14716015Y23924394D01*
X14750500Y24142123D01*
X14750500Y24362567D01*
X14716015Y24580296D01*
X14647895Y24789951D01*
X14547815Y24986367D01*
X14418242Y25164710D01*
X14262365Y25320587D01*
X14084022Y25450160D01*
X13887606Y25550240D01*
X13677951Y25618360D01*
X13460222Y25652845D01*
X10539778Y25652845D01*
X10322049Y25618360D01*
X10234845Y25590026D01*
X10112396Y25550241D01*
X10112393Y25550240D01*
X10050500Y25518703D01*
X9915978Y25450160D01*
X9915974Y25450157D01*
X9737641Y25320592D01*
X9737636Y25320588D01*
X9581756Y25164708D01*
X9581752Y25164703D01*
X9452187Y24986370D01*
X9352104Y24789951D01*
X9352103Y24789948D01*
X9283985Y24580297D01*
X9249500Y24362566D01*
X9249500Y24142123D01*
X8179254Y24142123D01*
X8189999Y24174548D01*
X8200500Y24277336D01*
X8200499Y24902353D01*
X8189999Y25005142D01*
X8134814Y25171679D01*
X8042712Y25321001D01*
X7949049Y25414664D01*
X7915564Y25475987D01*
X7920548Y25545679D01*
X7949049Y25590026D01*
X8042710Y25683687D01*
X8042712Y25683689D01*
X8134814Y25833011D01*
X8189999Y25999548D01*
X8200500Y26102336D01*
X8200499Y26727353D01*
X8189999Y26830142D01*
X8134814Y26996679D01*
X8042712Y27146001D01*
X7918656Y27270057D01*
X7769334Y27362159D01*
X7602797Y27417344D01*
X7500009Y27427845D01*
X7099728Y27427844D01*
X7032690Y27447528D01*
X7012048Y27464163D01*
X6880200Y27596011D01*
X6390916Y28085297D01*
X6308855Y28140127D01*
X6267995Y28167429D01*
X6131413Y28224003D01*
X6083962Y28233441D01*
X5986420Y28252845D01*
X5986418Y28252845D01*
X4997701Y28252845D01*
X4930662Y28272530D01*
X4896126Y28305722D01*
X4848494Y28373747D01*
X4768670Y28453571D01*
X4681401Y28540840D01*
X4487830Y28676380D01*
X4273663Y28776248D01*
X4045408Y28837408D01*
X3828665Y28856371D01*
X3810001Y28858004D01*
X3809999Y28858004D01*
X3791335Y28856371D01*
X3574592Y28837408D01*
X3346337Y28776248D01*
X3132171Y28676380D01*
X3132169Y28676379D01*
X2938597Y28540839D01*
X2771506Y28373748D01*
X2748084Y28340297D01*
X2641573Y28188183D01*
X2586999Y28144560D01*
X2517500Y28137366D01*
X2455145Y28168888D01*
X2438428Y28188181D01*
X2308495Y28373746D01*
X2141401Y28540840D01*
X1947830Y28676380D01*
X1733663Y28776248D01*
X1505408Y28837408D01*
X1288665Y28856371D01*
X1270001Y28858004D01*
X1269999Y28858004D01*
X1251335Y28856371D01*
X1056985Y28839367D01*
X988486Y28853133D01*
X958497Y28875214D01*
X448421Y29385292D01*
X448420Y29385293D01*
X448419Y29385293D01*
X448416Y29385297D01*
X337008Y29459736D01*
X325495Y29467429D01*
X188913Y29524003D01*
X141462Y29533441D01*
X43920Y29552845D01*
X43918Y29552845D01*
X-1167358Y29552845D01*
X-1234397Y29572530D01*
X-1280152Y29625334D01*
X-1290096Y29694492D01*
X-1264635Y29753742D01*
X-1163180Y29882083D01*
X-1110199Y29978679D01*
X-1082527Y30029133D01*
X-1082526Y30029134D01*
X-1082523Y30029141D01*
X-1027482Y30187544D01*
X-1027478Y30187560D01*
X-999573Y30352925D01*
X-999573Y30352926D01*
X-999564Y30362430D01*
X-999500Y30363418D01*
X-999500Y32340322D01*
X-979815Y32407361D01*
X-927011Y32453116D01*
X-875500Y32464322D01*
X875500Y32464322D01*
X942539Y32444637D01*
G37*
%TD.AperFunction*%
%TA.AperFunction,Conductor*%
G36*
X714859Y2479815D02*
G01*
X735501Y2463181D01*
X1619829Y1578854D01*
X2493381Y705302D01*
X2493382Y705301D01*
X2520838Y677845D01*
X2597918Y600764D01*
X2720831Y518636D01*
X2720844Y518629D01*
X2857415Y462060D01*
X2857425Y462057D01*
X3002413Y433217D01*
X3002415Y433217D01*
X4206398Y433217D01*
X4273437Y413532D01*
X4294079Y396898D01*
X6271584Y-1580607D01*
X6271590Y-1580612D01*
X6325226Y-1616448D01*
X6325229Y-1616451D01*
X6325230Y-1616451D01*
X6394505Y-1662739D01*
X6394507Y-1662740D01*
X6394511Y-1662742D01*
X6508077Y-1709782D01*
X6531087Y-1719313D01*
X6531091Y-1719313D01*
X6531092Y-1719314D01*
X6676079Y-1748155D01*
X6676082Y-1748155D01*
X6676083Y-1748155D01*
X6823918Y-1748155D01*
X8018942Y-1748155D01*
X8085981Y-1767840D01*
X8124479Y-1807056D01*
X8207288Y-1941311D01*
X8251346Y-1985369D01*
X8263181Y-1997203D01*
X8296666Y-2058526D01*
X8299500Y-2084885D01*
X8299500Y-2453855D01*
X8279815Y-2520894D01*
X8231795Y-2564339D01*
X8120805Y-2620891D01*
X8018885Y-2694941D01*
X7967927Y-2731965D01*
X7967925Y-2731967D01*
X7967924Y-2731967D01*
X7834312Y-2865579D01*
X7834312Y-2865580D01*
X7834310Y-2865582D01*
X7791784Y-2924114D01*
X7723240Y-3018455D01*
X7637454Y-3186818D01*
X7579059Y-3366536D01*
X7549500Y-3553168D01*
X7549500Y-4442141D01*
X7579059Y-4628773D01*
X7637454Y-4808491D01*
X7718148Y-4966860D01*
X7731044Y-5035529D01*
X7704768Y-5100270D01*
X7647661Y-5140527D01*
X7607663Y-5147155D01*
X3509884Y-5147155D01*
X3442845Y-5127470D01*
X3422203Y-5110836D01*
X2528308Y-4216940D01*
X2505643Y-4180870D01*
X2503812Y-4181753D01*
X2500792Y-4175483D01*
X2435264Y-4071196D01*
X2404816Y-4022738D01*
X2277262Y-3895184D01*
X2247021Y-3876182D01*
X2124523Y-3799211D01*
X1954254Y-3739631D01*
X1954249Y-3739630D01*
X1775004Y-3719435D01*
X1774996Y-3719435D01*
X1595750Y-3739630D01*
X1595745Y-3739631D01*
X1425476Y-3799211D01*
X1272737Y-3895184D01*
X1145184Y-4022737D01*
X1049211Y-4175476D01*
X989631Y-4345745D01*
X989630Y-4345750D01*
X969435Y-4524996D01*
X969435Y-4525003D01*
X989630Y-4704249D01*
X989631Y-4704254D01*
X1049211Y-4874523D01*
X1145184Y-5027262D01*
X1155241Y-5037319D01*
X1188726Y-5098642D01*
X1183742Y-5168334D01*
X1155241Y-5212681D01*
X1120184Y-5247737D01*
X1024211Y-5400476D01*
X964631Y-5570745D01*
X964630Y-5570750D01*
X944435Y-5749996D01*
X944435Y-5750003D01*
X964630Y-5929249D01*
X964631Y-5929254D01*
X1024211Y-6099523D01*
X1116300Y-6246080D01*
X1120184Y-6252262D01*
X1247738Y-6379816D01*
X1358210Y-6449230D01*
X1400483Y-6475792D01*
X1406753Y-6478812D01*
X1405866Y-6480652D01*
X1441939Y-6503307D01*
X2119235Y-7180603D01*
X2119239Y-7180606D01*
X2242153Y-7262735D01*
X2242166Y-7262742D01*
X2313871Y-7292443D01*
X2368275Y-7336284D01*
X2390340Y-7402578D01*
X2373061Y-7470277D01*
X2354100Y-7494685D01*
X987949Y-8860836D01*
X926626Y-8894321D01*
X900268Y-8897155D01*
X499998Y-8897155D01*
X499980Y-8897156D01*
X397203Y-8907655D01*
X397200Y-8907656D01*
X230668Y-8962840D01*
X230663Y-8962842D01*
X81342Y-9054944D01*
X-21180Y-9157467D01*
X-42712Y-9178999D01*
X-134814Y-9328321D01*
X-182794Y-9473115D01*
X-222567Y-9530560D01*
X-287083Y-9557383D01*
X-355859Y-9545068D01*
X-407058Y-9497525D01*
X-424500Y-9434111D01*
X-424500Y-6280103D01*
X-430235Y-6251270D01*
X-453339Y-6135120D01*
X-453340Y-6135116D01*
X-492861Y-6039706D01*
X-509914Y-5998534D01*
X-509919Y-5998525D01*
X-571195Y-5906819D01*
X-571196Y-5906820D01*
X-571197Y-5906818D01*
X-592048Y-5875612D01*
X-592047Y-5875612D01*
X-592052Y-5875606D01*
X-4047850Y-2419809D01*
X-4081335Y-2358486D01*
X-4084169Y-2332128D01*
X-4084169Y-1623954D01*
X-3200500Y-1623954D01*
X-3197683Y-1665495D01*
X-3153037Y-1845021D01*
X-3070842Y-2010753D01*
X-2954940Y-2154940D01*
X-2810753Y-2270842D01*
X-2645021Y-2353037D01*
X-2465499Y-2397682D01*
X-2465498Y-2397682D01*
X-2465495Y-2397683D01*
X-2423954Y-2400500D01*
X-2423952Y-2400500D01*
X-1576048Y-2400500D01*
X-1576046Y-2400500D01*
X-1534505Y-2397683D01*
X-1534501Y-2397682D01*
X-1534500Y-2397682D01*
X-1477434Y-2383490D01*
X-1354979Y-2353037D01*
X-1189247Y-2270842D01*
X-1045060Y-2154940D01*
X-1045059Y-2154939D01*
X-958143Y-2046812D01*
X-900799Y-2006894D01*
X-861496Y-2000500D01*
X1076083Y-2000500D01*
X1148085Y-2000500D01*
X1161969Y-2001280D01*
X1199998Y-2005565D01*
X1200000Y-2005565D01*
X1200004Y-2005565D01*
X1379249Y-1985369D01*
X1379252Y-1985368D01*
X1379255Y-1985368D01*
X1549522Y-1925789D01*
X1702262Y-1829816D01*
X1829816Y-1702262D01*
X1925789Y-1549522D01*
X1985368Y-1379255D01*
X1987130Y-1363620D01*
X2005565Y-1200003D01*
X2005565Y-1199996D01*
X1985369Y-1020750D01*
X1985368Y-1020745D01*
X1977133Y-997212D01*
X1925789Y-850478D01*
X1829816Y-697738D01*
X1702262Y-570184D01*
X1549523Y-474211D01*
X1379254Y-414631D01*
X1379249Y-414630D01*
X1200004Y-394435D01*
X1199996Y-394435D01*
X1020750Y-414630D01*
X1020745Y-414631D01*
X850474Y-474212D01*
X840477Y-480494D01*
X774506Y-499500D01*
X-797564Y-499500D01*
X-864603Y-479815D01*
X-908651Y-430594D01*
X-916569Y-414630D01*
X-929157Y-389247D01*
X-1045059Y-245059D01*
X-1189249Y-129156D01*
X-1354976Y-46964D01*
X-1354978Y-46963D01*
X-1534502Y-2317D01*
X-1534498Y-2317D01*
X-1566814Y-126D01*
X-1576046Y500D01*
X-2423954Y500D01*
X-2437801Y-439D01*
X-2465499Y-2317D01*
X-2645021Y-46963D01*
X-2645023Y-46964D01*
X-2810750Y-129156D01*
X-2810751Y-129157D01*
X-2810753Y-129158D01*
X-2832719Y-146815D01*
X-2954940Y-245059D01*
X-2988846Y-287240D01*
X-3070842Y-389247D01*
X-3153037Y-554979D01*
X-3181537Y-669582D01*
X-3188539Y-697738D01*
X-3197683Y-734505D01*
X-3200500Y-776046D01*
X-3200500Y-1623954D01*
X-4084169Y-1623954D01*
X-4084169Y1973234D01*
X-4064484Y2040273D01*
X-4011680Y2086028D01*
X-3942522Y2095972D01*
X-3921166Y2090940D01*
X-3827799Y2060001D01*
X-3827795Y2060000D01*
X-3725010Y2049500D01*
X-3725009Y2049500D01*
X-3099998Y2049500D01*
X-3099980Y2049501D01*
X-2997203Y2060000D01*
X-2997200Y2060001D01*
X-2830668Y2115185D01*
X-2830663Y2115187D01*
X-2681342Y2207289D01*
X-2587681Y2300951D01*
X-2526358Y2334436D01*
X-2456666Y2329452D01*
X-2412319Y2300951D01*
X-2318656Y2207288D01*
X-2169334Y2115186D01*
X-2002797Y2060001D01*
X-2002795Y2060000D01*
X-1900010Y2049500D01*
X-1900009Y2049500D01*
X-1274998Y2049500D01*
X-1274980Y2049501D01*
X-1172203Y2060000D01*
X-1172200Y2060001D01*
X-1005668Y2115185D01*
X-1005663Y2115187D01*
X-856342Y2207289D01*
X-732289Y2331342D01*
X-664901Y2440597D01*
X-612953Y2487321D01*
X-559362Y2499500D01*
X647820Y2499500D01*
X714859Y2479815D01*
G37*
%TD.AperFunction*%
%TA.AperFunction,Conductor*%
G36*
X-3345191Y6782160D02*
G01*
X-3324549Y6765526D01*
X-2636818Y6077795D01*
X-2603333Y6016472D01*
X-2600499Y5990114D01*
X-2600499Y5502337D01*
X-2589999Y5399548D01*
X-2534814Y5233011D01*
X-2442712Y5083689D01*
X-2318656Y4959633D01*
X-2272748Y4931317D01*
X-2208065Y4891420D01*
X-2169334Y4867531D01*
X-2002797Y4812346D01*
X-2002795Y4812345D01*
X-1900010Y4801845D01*
X-1900009Y4801845D01*
X-1274998Y4801845D01*
X-1274980Y4801846D01*
X-1172203Y4812345D01*
X-1172200Y4812346D01*
X-1005668Y4867530D01*
X-1005663Y4867532D01*
X-856345Y4959632D01*
X-764007Y5051970D01*
X-702683Y5085454D01*
X-632992Y5080470D01*
X-577059Y5038598D01*
X-553106Y4978171D01*
X-535369Y4820750D01*
X-535368Y4820745D01*
X-476610Y4652823D01*
X-475788Y4650476D01*
X-437032Y4588796D01*
X-379816Y4497738D01*
X-252262Y4370184D01*
X-99522Y4274211D01*
X-99519Y4274210D01*
X-99516Y4274208D01*
X-93242Y4271186D01*
X-94123Y4269356D01*
X-58060Y4246692D01*
X-23549Y4212181D01*
X9936Y4150858D01*
X4952Y4081166D01*
X-36920Y4025233D01*
X-102384Y4000816D01*
X-111230Y4000500D01*
X-559362Y4000500D01*
X-626401Y4020185D01*
X-664901Y4059403D01*
X-675000Y4075776D01*
X-732288Y4168656D01*
X-856344Y4292712D01*
X-1005666Y4384814D01*
X-1172203Y4439999D01*
X-1274991Y4450500D01*
X-1900008Y4450499D01*
X-1900016Y4450498D01*
X-1900019Y4450498D01*
X-1933948Y4447032D01*
X-2002797Y4439999D01*
X-2169334Y4384814D01*
X-2318656Y4292712D01*
X-2399187Y4212181D01*
X-2412319Y4199049D01*
X-2473642Y4165564D01*
X-2543334Y4170548D01*
X-2587681Y4199049D01*
X-2681342Y4292710D01*
X-2681344Y4292712D01*
X-2830666Y4384814D01*
X-2997203Y4439999D01*
X-3099991Y4450500D01*
X-3725008Y4450499D01*
X-3725016Y4450498D01*
X-3725019Y4450498D01*
X-3758948Y4447032D01*
X-3827797Y4439999D01*
X-3994334Y4384814D01*
X-4143656Y4292712D01*
X-4224187Y4212181D01*
X-4272819Y4163549D01*
X-4274705Y4165435D01*
X-4321625Y4132212D01*
X-4361868Y4125500D01*
X-4583887Y4125500D01*
X-4656972Y4110962D01*
X-4753029Y4091855D01*
X-4912360Y4025858D01*
X-4912365Y4025854D01*
X-4912366Y4025854D01*
X-4916605Y4023022D01*
X-4983281Y4002141D01*
X-5050662Y4020623D01*
X-5097355Y4072600D01*
X-5109500Y4126121D01*
X-5109500Y6215549D01*
X-5089815Y6282588D01*
X-5037011Y6328343D01*
X-4967853Y6338287D01*
X-4919528Y6320543D01*
X-4849523Y6276556D01*
X-4679254Y6216976D01*
X-4679249Y6216975D01*
X-4500004Y6196780D01*
X-4500000Y6196780D01*
X-4499996Y6196780D01*
X-4320750Y6216975D01*
X-4320745Y6216976D01*
X-4150476Y6276556D01*
X-3997737Y6372529D01*
X-3870184Y6500082D01*
X-3774212Y6652820D01*
X-3771191Y6659095D01*
X-3769365Y6658216D01*
X-3746695Y6694279D01*
X-3675451Y6765525D01*
X-3614129Y6799011D01*
X-3587769Y6801845D01*
X-3412230Y6801845D01*
X-3345191Y6782160D01*
G37*
%TD.AperFunction*%
%TA.AperFunction,Conductor*%
G36*
X-3257691Y11282160D02*
G01*
X-3237049Y11265526D01*
X-2636818Y10665295D01*
X-2603333Y10603972D01*
X-2600499Y10577614D01*
X-2600499Y10076845D01*
X-2620184Y10009806D01*
X-2672988Y9964051D01*
X-2724499Y9952845D01*
X-4123919Y9952845D01*
X-4128038Y9952025D01*
X-4152759Y9947108D01*
X-4268912Y9924004D01*
X-4327953Y9899548D01*
X-4405495Y9867429D01*
X-4487627Y9812550D01*
X-4528415Y9785297D01*
X-5063629Y9250083D01*
X-5597819Y8715893D01*
X-5659142Y8682408D01*
X-5728834Y8687392D01*
X-5784767Y8729264D01*
X-5809184Y8794728D01*
X-5809500Y8803574D01*
X-5809500Y10701993D01*
X-5789815Y10769032D01*
X-5773181Y10789674D01*
X-5406833Y11156021D01*
X-5345510Y11189506D01*
X-5275818Y11184522D01*
X-5219885Y11142650D01*
X-5214158Y11134312D01*
X-5194386Y11102845D01*
X-5135978Y11009889D01*
X-5129815Y11000082D01*
X-5002262Y10872529D01*
X-4849523Y10776556D01*
X-4679254Y10716976D01*
X-4679249Y10716975D01*
X-4500004Y10696780D01*
X-4500000Y10696780D01*
X-4499996Y10696780D01*
X-4320750Y10716975D01*
X-4320745Y10716976D01*
X-4150476Y10776556D01*
X-3997737Y10872529D01*
X-3870184Y11000082D01*
X-3774212Y11152820D01*
X-3771191Y11159095D01*
X-3769365Y11158216D01*
X-3746695Y11194279D01*
X-3675451Y11265525D01*
X-3614129Y11299011D01*
X-3587769Y11301845D01*
X-3324730Y11301845D01*
X-3257691Y11282160D01*
G37*
%TD.AperFunction*%
%TA.AperFunction,Conductor*%
G36*
X-2615464Y28032160D02*
G01*
X-2569709Y27979356D01*
X-2559765Y27910198D01*
X-2562728Y27895752D01*
X-2605063Y27737753D01*
X-2625659Y27502345D01*
X-2619363Y27430389D01*
X-2633129Y27361892D01*
X-2655207Y27331905D01*
X-3758671Y26228443D01*
X-4110450Y25876664D01*
X-4171773Y25843179D01*
X-4198131Y25840345D01*
X-5691036Y25840345D01*
X-5758075Y25860030D01*
X-5803830Y25912834D01*
X-5813774Y25981992D01*
X-5811206Y25992885D01*
X-5811418Y25992931D01*
X-5810000Y25999549D01*
X-5799500Y26102328D01*
X-5799500Y26727346D01*
X-5799501Y26727364D01*
X-5810000Y26830141D01*
X-5810002Y26830148D01*
X-5838417Y26915900D01*
X-5840818Y26985728D01*
X-5808392Y27042584D01*
X-4835452Y28015526D01*
X-4774129Y28049011D01*
X-4747771Y28051845D01*
X-2682503Y28051845D01*
X-2615464Y28032160D01*
G37*
%TD.AperFunction*%
%TD*%
M02*
