M48
; DRILL file {KiCad 8.0.1} date 2024-07-13T16:03:54+0900
; FORMAT={-:-/ absolute / inch / decimal}
; #@! TF.CreationDate,2024-07-13T16:03:54+09:00
; #@! TF.GenerationSoftware,Kicad,Pcbnew,8.0.1
; #@! TF.FileFunction,Plated,1,2,PTH
FMAT,2
INCH
; #@! TA.AperFunction,Plated,PTH,ViaDrill
T1C0.0118
; #@! TA.AperFunction,Plated,PTH,ComponentDrill
T2C0.0276
; #@! TA.AperFunction,Plated,PTH,ComponentDrill
T3C0.0315
; #@! TA.AperFunction,Plated,PTH,ComponentDrill
T4C0.0394
%
G90
G05
T1
X-0.3444Y-0.0015
X-0.2666Y-0.0391
X-0.216Y0.1462
X-0.1964Y0.6284
X-0.1964Y0.4513
X-0.1964Y0.2741
X-0.1964Y0.2347
X-0.0204Y-0.1405
X-0.0094Y0.3824
X-0.0094Y0.1954
X0.0098Y0.5173
X0.0202Y-0.1393
X0.0202Y-0.2672
X0.0399Y-0.0704
X0.0946Y0.0182
X0.1678Y-0.1058
X0.1678Y0.1954
X0.1678Y0.1462
X0.2564Y0.8962
X0.3021Y0.2359
X0.3686Y-0.0999
X0.4139Y0.4513
X0.4139Y0.4119
X0.4139Y0.3725
X0.4532Y0.4513
X0.4532Y0.4119
X0.4532Y0.3725
X0.4532Y-0.4345
X0.4926Y0.4513
X0.4926Y0.4119
X0.4926Y0.3725
X0.5418Y-0.2082
X0.6501Y-0.1688
X0.6708Y0.0885
X0.7682Y-0.4345
X0.8076Y-0.159
X0.971Y0.0477
T2
X0.0767Y0.5869
X0.0767Y0.5369
X0.0767Y0.4869
X0.0767Y0.4369
X0.0767Y0.3869
X0.0767Y0.3369
X0.0767Y0.2869
X0.0767Y0.2369
X0.2782Y0.7884
X0.2782Y0.0354
X0.3282Y0.7884
X0.3282Y0.0354
X0.3782Y0.7884
X0.3782Y0.0354
X0.4282Y0.7884
X0.4282Y0.0354
X0.4782Y0.7884
X0.4782Y0.0354
X0.5282Y0.7884
X0.5282Y0.0354
X0.5782Y0.7884
X0.5782Y0.0354
X0.6282Y0.7884
X0.6282Y0.0354
X0.8298Y0.5869
X0.8298Y0.5369
X0.8298Y0.4869
X0.8298Y0.4369
X0.8298Y0.3869
X0.8298Y0.3369
X0.8298Y0.2869
X0.8298Y0.2369
T3
X-1.0704Y0.0969
X-1.0704Y-0.0015
X-1.0704Y-0.0999
X-0.9247Y0.3863
X-0.8263Y0.3863
X-0.8263Y-0.0212
X-0.8263Y-0.0999
X-0.8263Y-0.1786
X-0.8263Y-0.2574
X-0.7475Y-0.0212
X-0.7475Y-0.0999
X-0.7475Y-0.1786
X-0.7475Y-0.2574
T4
X-0.1692Y1.0812
X-0.0692Y1.0812
X0.0308Y1.0812
X0.1308Y1.0812
X1.0044Y0.2985
X1.0044Y0.1985
X1.0044Y0.0985
X1.0044Y-0.0015
X1.0044Y-0.1015
X1.0044Y-0.2015
X1.0044Y-0.3015
T3
G00X0.1521Y-0.3066
M15
G01X0.1245Y-0.3066
M16
G05
G00X0.1521Y-0.5625
M15
G01X0.1245Y-0.5625
M16
G05
G00X0.3253Y-0.1727
M15
G01X0.3253Y-0.1452
M16
G05
G00X0.3253Y-0.4483
M15
G01X0.3253Y-0.4208
M16
G05
G00X0.3253Y-0.7239
M15
G01X0.3253Y-0.6964
M16
G05
G00X0.5812Y-0.1727
M15
G01X0.5812Y-0.1452
M16
G05
G00X0.5812Y-0.4483
M15
G01X0.5812Y-0.4208
M16
G05
G00X0.5812Y-0.7239
M15
G01X0.5812Y-0.6964
M16
G05
G00X0.782Y-0.3066
M15
G01X0.7544Y-0.3066
M16
G05
G00X0.782Y-0.5625
M15
G01X0.7544Y-0.5625
M16
G05
T4
G00X-0.4385Y0.9532
M15
G01X-0.5448Y0.9532
M16
G05
G00X-0.4385Y-0.9562
M15
G01X-0.5448Y-0.9562
M16
G05
G00X-0.0723Y0.9532
M15
G01X0.034Y0.9532
M16
G05
G00X-0.0723Y-0.9562
M15
G01X0.034Y-0.9562
M16
G05
G00X0.5064Y0.9532
M15
G01X0.4001Y0.9532
M16
G05
G00X0.5064Y-0.9562
M15
G01X0.4001Y-0.9562
M16
G05
M30
