%TF.GenerationSoftware,KiCad,Pcbnew,8.0.1*%
%TF.CreationDate,2024-05-14T23:10:40+09:00*%
%TF.ProjectId,main,6d61696e-2e6b-4696-9361-645f70636258,rev?*%
%TF.SameCoordinates,Original*%
%TF.FileFunction,Legend,Bot*%
%TF.FilePolarity,Positive*%
%FSLAX46Y46*%
G04 Gerber Fmt 4.6, Leading zero omitted, Abs format (unit mm)*
G04 Created by KiCad (PCBNEW 8.0.1) date 2024-05-14 23:10:40*
%MOMM*%
%LPD*%
G01*
G04 APERTURE LIST*
G04 Aperture macros list*
%AMRoundRect*
0 Rectangle with rounded corners*
0 $1 Rounding radius*
0 $2 $3 $4 $5 $6 $7 $8 $9 X,Y pos of 4 corners*
0 Add a 4 corners polygon primitive as box body*
4,1,4,$2,$3,$4,$5,$6,$7,$8,$9,$2,$3,0*
0 Add four circle primitives for the rounded corners*
1,1,$1+$1,$2,$3*
1,1,$1+$1,$4,$5*
1,1,$1+$1,$6,$7*
1,1,$1+$1,$8,$9*
0 Add four rect primitives between the rounded corners*
20,1,$1+$1,$2,$3,$4,$5,0*
20,1,$1+$1,$4,$5,$6,$7,0*
20,1,$1+$1,$6,$7,$8,$9,0*
20,1,$1+$1,$8,$9,$2,$3,0*%
%AMHorizOval*
0 Thick line with rounded ends*
0 $1 width*
0 $2 $3 position (X,Y) of the first rounded end (center of the circle)*
0 $4 $5 position (X,Y) of the second rounded end (center of the circle)*
0 Add line between two ends*
20,1,$1,$2,$3,$4,$5,0*
0 Add two circle primitives to create the rounded ends*
1,1,$1,$2,$3*
1,1,$1,$4,$5*%
%AMRotRect*
0 Rectangle, with rotation*
0 The origin of the aperture is its center*
0 $1 length*
0 $2 width*
0 $3 Rotation angle, in degrees counterclockwise*
0 Add horizontal line*
21,1,$1,$2,0,0,$3*%
G04 Aperture macros list end*
%ADD10C,0.150000*%
%ADD11C,0.120000*%
%ADD12O,2.700000X2.000000*%
%ADD13HorizOval,3.100000X0.424264X0.424264X-0.424264X-0.424264X0*%
%ADD14O,1.700000X1.700000*%
%ADD15R,1.700000X1.700000*%
%ADD16C,1.350000*%
%ADD17O,2.000000X2.700000*%
%ADD18R,3.048000X4.572000*%
%ADD19RoundRect,0.250000X0.450000X-0.262500X0.450000X0.262500X-0.450000X0.262500X-0.450000X-0.262500X0*%
%ADD20RoundRect,0.250000X-0.132583X0.503814X-0.503814X0.132583X0.132583X-0.503814X0.503814X-0.132583X0*%
%ADD21RoundRect,0.250000X-0.250000X-0.475000X0.250000X-0.475000X0.250000X0.475000X-0.250000X0.475000X0*%
%ADD22RoundRect,0.250000X0.475000X-0.250000X0.475000X0.250000X-0.475000X0.250000X-0.475000X-0.250000X0*%
%ADD23C,1.500000*%
%ADD24RoundRect,0.250000X0.262500X0.450000X-0.262500X0.450000X-0.262500X-0.450000X0.262500X-0.450000X0*%
%ADD25RoundRect,0.250000X-0.262500X-0.450000X0.262500X-0.450000X0.262500X0.450000X-0.262500X0.450000X0*%
%ADD26R,1.000000X1.500000*%
%ADD27RotRect,1.700000X1.700000X225.000000*%
%ADD28HorizOval,1.700000X0.000000X0.000000X0.000000X0.000000X0*%
%ADD29RoundRect,0.250000X0.132583X-0.503814X0.503814X-0.132583X-0.132583X0.503814X-0.503814X0.132583X0*%
%ADD30RoundRect,0.218750X-0.218750X-0.256250X0.218750X-0.256250X0.218750X0.256250X-0.218750X0.256250X0*%
G04 APERTURE END LIST*
D10*
G36*
X65319114Y-94528755D02*
G01*
X65369329Y-94534081D01*
X65422821Y-94540929D01*
X65446573Y-94544527D01*
X65495597Y-94555741D01*
X65541035Y-94574878D01*
X65577948Y-94600858D01*
X65612492Y-94635496D01*
X65640686Y-94676483D01*
X65659877Y-94718205D01*
X65672778Y-94767735D01*
X65677078Y-94821075D01*
X65676627Y-94839326D01*
X65669865Y-94890524D01*
X65652835Y-94941157D01*
X65625787Y-94985206D01*
X65604618Y-95008313D01*
X65565266Y-95037918D01*
X65516794Y-95061456D01*
X65466052Y-95077286D01*
X65491595Y-95086763D01*
X65535467Y-95109271D01*
X65574496Y-95141522D01*
X65581240Y-95149249D01*
X65608431Y-95190718D01*
X65624745Y-95236909D01*
X65630184Y-95287823D01*
X65627444Y-95324774D01*
X65613064Y-95375887D01*
X65586357Y-95421821D01*
X65552270Y-95458305D01*
X65531735Y-95474448D01*
X65484321Y-95500276D01*
X65435897Y-95515814D01*
X65380998Y-95524760D01*
X65328788Y-95527181D01*
X64746269Y-95527181D01*
X64746269Y-95152024D01*
X65060121Y-95152024D01*
X65060121Y-95323971D01*
X65197629Y-95323971D01*
X65202000Y-95323949D01*
X65251351Y-95319717D01*
X65296792Y-95301745D01*
X65310606Y-95287871D01*
X65325369Y-95239952D01*
X65323108Y-95217493D01*
X65296792Y-95174495D01*
X65294963Y-95173112D01*
X65247273Y-95155733D01*
X65195431Y-95152024D01*
X65060121Y-95152024D01*
X64746269Y-95152024D01*
X64746269Y-94761236D01*
X65060121Y-94761236D01*
X65060121Y-94964446D01*
X65218146Y-94964446D01*
X65237830Y-94964022D01*
X65287633Y-94957668D01*
X65332452Y-94937335D01*
X65352395Y-94914712D01*
X65365180Y-94866016D01*
X65359738Y-94830305D01*
X65332207Y-94789568D01*
X65315514Y-94778528D01*
X65268524Y-94764583D01*
X65218879Y-94761236D01*
X65060121Y-94761236D01*
X64746269Y-94761236D01*
X64746269Y-94526763D01*
X65283359Y-94526763D01*
X65319114Y-94528755D01*
G37*
G36*
X65763052Y-95527181D02*
G01*
X66709004Y-95527181D01*
X66709004Y-95292708D01*
X66391733Y-95292708D01*
X66391733Y-94526763D01*
X66080567Y-94526763D01*
X66080567Y-95292708D01*
X65763052Y-95292708D01*
X65763052Y-95527181D01*
G37*
G36*
X67432696Y-95542813D02*
G01*
X67432696Y-94526763D01*
X67149618Y-94526763D01*
X67149618Y-95192080D01*
X67107153Y-95160782D01*
X67065545Y-95133443D01*
X67020769Y-95107943D01*
X67016750Y-95105862D01*
X66968750Y-95083511D01*
X66918451Y-95063743D01*
X66867757Y-95046400D01*
X66855794Y-95042603D01*
X66855794Y-95277077D01*
X66907125Y-95294665D01*
X66953957Y-95313541D01*
X67002907Y-95337192D01*
X67045733Y-95362595D01*
X67077567Y-95385765D01*
X67114875Y-95419485D01*
X67147909Y-95456900D01*
X67176668Y-95498009D01*
X67201154Y-95542813D01*
X67432696Y-95542813D01*
G37*
G36*
X49533499Y-99525653D02*
G01*
X50322647Y-99525653D01*
X50322647Y-100322862D01*
X50988697Y-100322862D01*
X50988697Y-99525653D01*
X51782242Y-99525653D01*
X51782242Y-98869128D01*
X50988697Y-98869128D01*
X50988697Y-98071920D01*
X50322647Y-98071920D01*
X50322647Y-98869128D01*
X49533499Y-98869128D01*
X49533499Y-99525653D01*
G37*
G36*
X77315000Y-113808933D02*
G01*
X76908579Y-113808933D01*
X76908579Y-113836532D01*
X76911842Y-113867169D01*
X76931782Y-113912736D01*
X76964979Y-113942729D01*
X77008963Y-113969156D01*
X77315000Y-114135241D01*
X77315000Y-114486951D01*
X77027526Y-114336497D01*
X77004525Y-114322719D01*
X76964511Y-114292778D01*
X76945765Y-114277497D01*
X76910778Y-114243196D01*
X76892154Y-114210224D01*
X76873408Y-114162108D01*
X76870405Y-114174854D01*
X76855701Y-114224084D01*
X76833841Y-114271284D01*
X76813615Y-114300868D01*
X76777951Y-114338947D01*
X76735900Y-114369470D01*
X76691711Y-114389911D01*
X76642097Y-114401868D01*
X76592285Y-114405374D01*
X76574634Y-114404962D01*
X76524748Y-114398779D01*
X76474712Y-114383209D01*
X76430352Y-114358479D01*
X76392804Y-114326437D01*
X76361034Y-114284523D01*
X76339249Y-114235625D01*
X76336262Y-114225833D01*
X76325205Y-114175183D01*
X76318652Y-114121110D01*
X76315448Y-114066808D01*
X76314581Y-114015074D01*
X76314581Y-113808933D01*
X76517791Y-113808933D01*
X76517791Y-113945709D01*
X76518018Y-113961213D01*
X76523480Y-114013654D01*
X76543681Y-114061724D01*
X76568424Y-114081808D01*
X76617930Y-114092743D01*
X76629946Y-114092056D01*
X76676060Y-114073203D01*
X76683457Y-114066817D01*
X76707323Y-114022645D01*
X76713935Y-113991428D01*
X76721001Y-113940091D01*
X76721001Y-113808933D01*
X76517791Y-113808933D01*
X76314581Y-113808933D01*
X76314581Y-113496546D01*
X77315000Y-113496546D01*
X77315000Y-113808933D01*
G37*
G36*
X76854104Y-114537255D02*
G01*
X76907847Y-114540181D01*
X76958060Y-114545765D01*
X77013655Y-114555978D01*
X77064168Y-114570020D01*
X77116674Y-114591243D01*
X77130420Y-114598224D01*
X77174787Y-114624915D01*
X77213333Y-114655112D01*
X77250260Y-114693916D01*
X77279584Y-114737300D01*
X77296932Y-114773659D01*
X77312635Y-114821395D01*
X77323453Y-114874858D01*
X77328836Y-114925242D01*
X77330631Y-114979833D01*
X77328668Y-115032747D01*
X77321615Y-115088297D01*
X77309433Y-115138596D01*
X77289598Y-115188905D01*
X77275745Y-115214114D01*
X77246001Y-115254982D01*
X77210074Y-115290054D01*
X77167965Y-115319330D01*
X77142372Y-115332911D01*
X77094261Y-115351554D01*
X77043523Y-115362741D01*
X76990157Y-115366469D01*
X76946353Y-115364197D01*
X76897031Y-115355473D01*
X76843960Y-115337026D01*
X76795704Y-115309672D01*
X76752264Y-115273413D01*
X76725245Y-115243319D01*
X76695111Y-115197781D01*
X76673954Y-115148270D01*
X76661772Y-115094785D01*
X76658475Y-115045778D01*
X76659402Y-115020259D01*
X76667774Y-114968973D01*
X76668278Y-114967621D01*
X76846053Y-114967621D01*
X76846091Y-114971159D01*
X76855762Y-115019889D01*
X76884888Y-115062875D01*
X76900687Y-115075990D01*
X76947170Y-115096039D01*
X76997728Y-115101466D01*
X77015298Y-115100886D01*
X77064600Y-115090988D01*
X77106660Y-115064341D01*
X77133954Y-115022759D01*
X77143053Y-114972261D01*
X77142895Y-114964884D01*
X77131679Y-114914111D01*
X77102752Y-114871389D01*
X77086558Y-114857361D01*
X77040356Y-114835917D01*
X76991378Y-114830112D01*
X76974361Y-114830726D01*
X76926067Y-114841210D01*
X76883667Y-114869435D01*
X76879112Y-114874455D01*
X76854318Y-114916852D01*
X76846053Y-114967621D01*
X76668278Y-114967621D01*
X76684853Y-114923169D01*
X76701970Y-114893706D01*
X76731886Y-114855083D01*
X76766430Y-114820342D01*
X76709664Y-114825712D01*
X76653442Y-114833279D01*
X76602384Y-114843644D01*
X76555160Y-114860887D01*
X76531836Y-114876139D01*
X76497855Y-114916434D01*
X76486528Y-114966644D01*
X76487856Y-114984809D01*
X76507777Y-115030147D01*
X76532000Y-115049949D01*
X76580317Y-115067028D01*
X76550031Y-115345220D01*
X76500615Y-115328090D01*
X76452703Y-115304233D01*
X76411545Y-115275123D01*
X76379646Y-115244087D01*
X76350562Y-115204547D01*
X76327770Y-115159351D01*
X76315161Y-115121387D01*
X76305282Y-115071123D01*
X76300328Y-115019729D01*
X76298949Y-114969575D01*
X76299440Y-114944489D01*
X76304957Y-114884806D01*
X76316603Y-114829452D01*
X76334380Y-114778427D01*
X76358287Y-114731731D01*
X76388324Y-114689364D01*
X76424490Y-114651326D01*
X76449300Y-114630855D01*
X76496297Y-114601211D01*
X76550355Y-114577160D01*
X76598685Y-114561946D01*
X76651533Y-114550312D01*
X76708899Y-114542258D01*
X76770784Y-114537783D01*
X76820163Y-114536776D01*
X76854104Y-114537255D01*
G37*
G36*
X91732287Y-66254611D02*
G01*
X91511396Y-66475501D01*
X91224014Y-66188119D01*
X91204498Y-66207635D01*
X91185141Y-66231606D01*
X91167021Y-66277926D01*
X91169286Y-66322608D01*
X91181701Y-66372396D01*
X91280661Y-66706236D01*
X91031965Y-66954933D01*
X90935077Y-66645271D01*
X90928555Y-66619265D01*
X90921433Y-66569799D01*
X90918983Y-66545739D01*
X90918497Y-66496744D01*
X90928644Y-66460260D01*
X90949412Y-66412982D01*
X90938275Y-66419871D01*
X90893066Y-66444285D01*
X90844234Y-66462203D01*
X90809013Y-66468820D01*
X90756869Y-66470528D01*
X90705551Y-66462376D01*
X90659851Y-66445584D01*
X90616314Y-66418956D01*
X90578612Y-66386213D01*
X90566423Y-66373440D01*
X90535519Y-66333794D01*
X90511148Y-66287403D01*
X90497268Y-66238549D01*
X90493375Y-66189342D01*
X90500548Y-66137239D01*
X90511439Y-66108847D01*
X90787241Y-66108847D01*
X90790536Y-66140545D01*
X90817810Y-66183283D01*
X90826792Y-66191294D01*
X90872730Y-66210571D01*
X90882476Y-66211285D01*
X90930587Y-66196927D01*
X90957335Y-66179529D01*
X90998633Y-66148224D01*
X91091376Y-66055481D01*
X90947685Y-65911790D01*
X90850969Y-66008505D01*
X90840167Y-66019629D01*
X90806947Y-66060572D01*
X90787241Y-66108847D01*
X90511439Y-66108847D01*
X90519720Y-66087259D01*
X90524531Y-66078223D01*
X90552528Y-66034589D01*
X90586130Y-65991720D01*
X90622261Y-65951057D01*
X90658230Y-65913862D01*
X91024884Y-65547208D01*
X91732287Y-66254611D01*
G37*
G36*
X90286912Y-66285180D02*
G01*
X89709384Y-66862708D01*
X89841849Y-66995173D01*
X89894930Y-66993528D01*
X89947052Y-66994420D01*
X89998214Y-66997851D01*
X90048416Y-67003819D01*
X90097660Y-67012326D01*
X90113861Y-67015725D01*
X90162724Y-67027625D01*
X90211409Y-67041844D01*
X90259918Y-67058381D01*
X90308249Y-67077238D01*
X90356404Y-67098414D01*
X90404381Y-67121909D01*
X90423522Y-67131956D01*
X90468797Y-67157417D01*
X90515116Y-67186520D01*
X90562479Y-67219267D01*
X90602746Y-67249339D01*
X90643739Y-67281940D01*
X90677055Y-67309843D01*
X90874285Y-67112613D01*
X90825609Y-67076426D01*
X90777850Y-67042818D01*
X90731009Y-67011791D01*
X90685085Y-66983343D01*
X90640079Y-66957475D01*
X90595991Y-66934186D01*
X90542170Y-66908704D01*
X90510566Y-66895349D01*
X90456397Y-66875325D01*
X90398594Y-66857351D01*
X90349735Y-66844446D01*
X90298549Y-66832853D01*
X90245037Y-66822572D01*
X90189199Y-66813602D01*
X90131035Y-66805944D01*
X90101081Y-66802606D01*
X90452710Y-66450977D01*
X90286912Y-66285180D01*
G37*
G36*
X66395395Y-113130342D02*
G01*
X66122820Y-113209233D01*
X66136308Y-113257133D01*
X66155443Y-113307496D01*
X66178546Y-113353189D01*
X66205619Y-113394210D01*
X66209282Y-113399010D01*
X66244790Y-113438800D01*
X66284819Y-113472717D01*
X66329369Y-113500761D01*
X66356072Y-113513804D01*
X66402784Y-113530687D01*
X66455479Y-113542746D01*
X66506496Y-113549341D01*
X66562095Y-113552243D01*
X66578822Y-113552394D01*
X66628646Y-113551243D01*
X66684562Y-113546824D01*
X66736254Y-113539090D01*
X66791221Y-113525878D01*
X66840439Y-113508155D01*
X66847000Y-113505255D01*
X66891165Y-113481101D01*
X66932619Y-113450097D01*
X66971361Y-113412245D01*
X67002410Y-113374349D01*
X67026763Y-113338926D01*
X67052412Y-113291894D01*
X67072753Y-113240191D01*
X67087789Y-113183816D01*
X67096264Y-113133270D01*
X67101055Y-113079479D01*
X67102234Y-113034111D01*
X67100158Y-112974046D01*
X67093930Y-112917561D01*
X67083550Y-112864656D01*
X67069017Y-112815330D01*
X67050333Y-112769584D01*
X67021138Y-112717436D01*
X66985456Y-112670881D01*
X66969366Y-112653825D01*
X66925150Y-112615477D01*
X66875542Y-112583629D01*
X66820545Y-112558280D01*
X66772666Y-112542681D01*
X66721337Y-112531242D01*
X66666557Y-112523962D01*
X66608328Y-112520842D01*
X66593232Y-112520712D01*
X66535766Y-112522597D01*
X66482283Y-112528249D01*
X66432783Y-112537671D01*
X66378641Y-112553951D01*
X66330236Y-112575658D01*
X66294279Y-112597893D01*
X66255396Y-112629747D01*
X66220445Y-112667422D01*
X66189427Y-112710919D01*
X66162342Y-112760238D01*
X66142775Y-112805784D01*
X66132346Y-112835053D01*
X66407119Y-112895869D01*
X66424748Y-112850243D01*
X66437405Y-112828947D01*
X66472572Y-112792660D01*
X66501397Y-112774481D01*
X66549249Y-112758370D01*
X66585661Y-112755185D01*
X66635456Y-112760391D01*
X66684103Y-112778691D01*
X66724946Y-112810168D01*
X66747838Y-112838472D01*
X66770249Y-112883986D01*
X66783322Y-112936736D01*
X66788842Y-112985484D01*
X66790336Y-113032645D01*
X66788550Y-113090396D01*
X66783192Y-113140917D01*
X66772426Y-113190721D01*
X66751440Y-113240294D01*
X66739534Y-113257104D01*
X66699729Y-113291729D01*
X66650170Y-113311982D01*
X66596652Y-113317921D01*
X66545050Y-113313246D01*
X66498152Y-113297304D01*
X66461585Y-113270049D01*
X66430868Y-113227849D01*
X66410675Y-113183341D01*
X66396702Y-113136024D01*
X66395395Y-113130342D01*
G37*
G36*
X65613747Y-112521203D02*
G01*
X65673430Y-112526720D01*
X65728784Y-112538366D01*
X65779809Y-112556143D01*
X65826505Y-112580050D01*
X65868872Y-112610087D01*
X65906910Y-112646253D01*
X65927381Y-112671063D01*
X65957025Y-112718060D01*
X65981076Y-112772118D01*
X65996290Y-112820448D01*
X66007924Y-112873296D01*
X66015978Y-112930662D01*
X66020453Y-112992547D01*
X66021460Y-113041926D01*
X66020981Y-113075867D01*
X66018055Y-113129610D01*
X66012471Y-113179823D01*
X66002258Y-113235418D01*
X65988216Y-113285931D01*
X65966993Y-113338437D01*
X65960012Y-113352183D01*
X65933321Y-113396550D01*
X65903124Y-113435096D01*
X65864320Y-113472023D01*
X65820936Y-113501347D01*
X65784577Y-113518695D01*
X65736841Y-113534398D01*
X65683378Y-113545216D01*
X65632994Y-113550599D01*
X65578403Y-113552394D01*
X65525489Y-113550431D01*
X65469939Y-113543378D01*
X65419640Y-113531196D01*
X65369331Y-113511361D01*
X65344122Y-113497508D01*
X65303254Y-113467764D01*
X65268182Y-113431837D01*
X65238906Y-113389728D01*
X65225325Y-113364135D01*
X65206682Y-113316024D01*
X65195495Y-113265286D01*
X65192296Y-113219491D01*
X65456770Y-113219491D01*
X65457350Y-113237061D01*
X65467248Y-113286363D01*
X65493895Y-113328423D01*
X65535477Y-113355717D01*
X65585975Y-113364816D01*
X65593352Y-113364658D01*
X65644125Y-113353442D01*
X65686847Y-113324515D01*
X65700875Y-113308321D01*
X65722319Y-113262119D01*
X65728124Y-113213141D01*
X65727510Y-113196124D01*
X65717026Y-113147830D01*
X65688801Y-113105430D01*
X65683781Y-113100875D01*
X65641384Y-113076081D01*
X65590615Y-113067816D01*
X65587077Y-113067854D01*
X65538347Y-113077525D01*
X65495361Y-113106651D01*
X65482246Y-113122450D01*
X65462197Y-113168933D01*
X65456770Y-113219491D01*
X65192296Y-113219491D01*
X65191767Y-113211920D01*
X65194039Y-113168116D01*
X65202763Y-113118794D01*
X65221210Y-113065723D01*
X65248564Y-113017467D01*
X65284823Y-112974027D01*
X65314917Y-112947008D01*
X65360455Y-112916874D01*
X65409966Y-112895717D01*
X65463451Y-112883535D01*
X65512458Y-112880238D01*
X65537977Y-112881165D01*
X65589263Y-112889537D01*
X65635067Y-112906616D01*
X65664530Y-112923733D01*
X65703153Y-112953649D01*
X65737894Y-112988193D01*
X65732524Y-112931427D01*
X65724957Y-112875205D01*
X65714592Y-112824147D01*
X65697349Y-112776923D01*
X65682097Y-112753599D01*
X65641802Y-112719618D01*
X65591592Y-112708291D01*
X65573427Y-112709619D01*
X65528089Y-112729540D01*
X65508287Y-112753763D01*
X65491208Y-112802080D01*
X65213016Y-112771794D01*
X65230146Y-112722378D01*
X65254003Y-112674466D01*
X65283113Y-112633308D01*
X65314149Y-112601409D01*
X65353689Y-112572325D01*
X65398885Y-112549533D01*
X65436849Y-112536924D01*
X65487113Y-112527045D01*
X65538507Y-112522091D01*
X65588661Y-112520712D01*
X65613747Y-112521203D01*
G37*
G36*
X66395395Y-109130342D02*
G01*
X66122820Y-109209233D01*
X66136308Y-109257133D01*
X66155443Y-109307496D01*
X66178546Y-109353189D01*
X66205619Y-109394210D01*
X66209282Y-109399010D01*
X66244790Y-109438800D01*
X66284819Y-109472717D01*
X66329369Y-109500761D01*
X66356072Y-109513804D01*
X66402784Y-109530687D01*
X66455479Y-109542746D01*
X66506496Y-109549341D01*
X66562095Y-109552243D01*
X66578822Y-109552394D01*
X66628646Y-109551243D01*
X66684562Y-109546824D01*
X66736254Y-109539090D01*
X66791221Y-109525878D01*
X66840439Y-109508155D01*
X66847000Y-109505255D01*
X66891165Y-109481101D01*
X66932619Y-109450097D01*
X66971361Y-109412245D01*
X67002410Y-109374349D01*
X67026763Y-109338926D01*
X67052412Y-109291894D01*
X67072753Y-109240191D01*
X67087789Y-109183816D01*
X67096264Y-109133270D01*
X67101055Y-109079479D01*
X67102234Y-109034111D01*
X67100158Y-108974046D01*
X67093930Y-108917561D01*
X67083550Y-108864656D01*
X67069017Y-108815330D01*
X67050333Y-108769584D01*
X67021138Y-108717436D01*
X66985456Y-108670881D01*
X66969366Y-108653825D01*
X66925150Y-108615477D01*
X66875542Y-108583629D01*
X66820545Y-108558280D01*
X66772666Y-108542681D01*
X66721337Y-108531242D01*
X66666557Y-108523962D01*
X66608328Y-108520842D01*
X66593232Y-108520712D01*
X66535766Y-108522597D01*
X66482283Y-108528249D01*
X66432783Y-108537671D01*
X66378641Y-108553951D01*
X66330236Y-108575658D01*
X66294279Y-108597893D01*
X66255396Y-108629747D01*
X66220445Y-108667422D01*
X66189427Y-108710919D01*
X66162342Y-108760238D01*
X66142775Y-108805784D01*
X66132346Y-108835053D01*
X66407119Y-108895869D01*
X66424748Y-108850243D01*
X66437405Y-108828947D01*
X66472572Y-108792660D01*
X66501397Y-108774481D01*
X66549249Y-108758370D01*
X66585661Y-108755185D01*
X66635456Y-108760391D01*
X66684103Y-108778691D01*
X66724946Y-108810168D01*
X66747838Y-108838472D01*
X66770249Y-108883986D01*
X66783322Y-108936736D01*
X66788842Y-108985484D01*
X66790336Y-109032645D01*
X66788550Y-109090396D01*
X66783192Y-109140917D01*
X66772426Y-109190721D01*
X66751440Y-109240294D01*
X66739534Y-109257104D01*
X66699729Y-109291729D01*
X66650170Y-109311982D01*
X66596652Y-109317921D01*
X66545050Y-109313246D01*
X66498152Y-109297304D01*
X66461585Y-109270049D01*
X66430868Y-109227849D01*
X66410675Y-109183341D01*
X66396702Y-109136024D01*
X66395395Y-109130342D01*
G37*
G36*
X65697984Y-108522687D02*
G01*
X65753492Y-108529782D01*
X65803718Y-108542036D01*
X65853909Y-108561989D01*
X65878989Y-108575778D01*
X65919746Y-108605466D01*
X65954861Y-108641414D01*
X65984335Y-108683622D01*
X65997985Y-108709163D01*
X66016725Y-108757300D01*
X66027970Y-108808219D01*
X66031718Y-108861920D01*
X66029446Y-108905512D01*
X66020722Y-108954628D01*
X66002274Y-109007524D01*
X65974921Y-109055674D01*
X65938661Y-109099079D01*
X65908550Y-109126099D01*
X65862927Y-109156232D01*
X65813260Y-109177390D01*
X65759550Y-109189571D01*
X65710294Y-109192869D01*
X65689023Y-109192236D01*
X65637514Y-109184677D01*
X65588173Y-109166979D01*
X65558592Y-109149921D01*
X65519872Y-109119845D01*
X65485102Y-109084913D01*
X65490721Y-109141705D01*
X65498513Y-109198022D01*
X65509050Y-109249275D01*
X65526379Y-109296916D01*
X65541532Y-109319991D01*
X65581550Y-109353609D01*
X65631404Y-109364816D01*
X65649493Y-109363503D01*
X65695151Y-109343811D01*
X65716324Y-109317235D01*
X65732276Y-109271026D01*
X66010469Y-109301801D01*
X65992976Y-109350855D01*
X65968940Y-109398588D01*
X65939882Y-109439798D01*
X65908765Y-109471721D01*
X65869302Y-109500886D01*
X65824356Y-109523818D01*
X65786498Y-109536320D01*
X65736318Y-109546115D01*
X65684965Y-109551027D01*
X65634823Y-109552394D01*
X65609739Y-109551904D01*
X65550066Y-109546387D01*
X65494735Y-109534740D01*
X65443744Y-109516963D01*
X65397095Y-109493056D01*
X65354786Y-109463020D01*
X65316819Y-109426853D01*
X65296304Y-109402043D01*
X65266597Y-109355046D01*
X65242494Y-109300988D01*
X65227248Y-109252658D01*
X65215589Y-109199810D01*
X65207518Y-109142444D01*
X65203034Y-109080559D01*
X65202025Y-109031180D01*
X65202506Y-108997329D01*
X65205444Y-108943726D01*
X65211054Y-108893640D01*
X65217283Y-108859966D01*
X65495361Y-108859966D01*
X65495975Y-108876982D01*
X65506459Y-108925276D01*
X65534684Y-108967677D01*
X65539646Y-108972231D01*
X65581788Y-108997025D01*
X65632625Y-109005290D01*
X65636178Y-109005252D01*
X65685015Y-108995581D01*
X65727880Y-108966455D01*
X65740828Y-108950673D01*
X65760624Y-108904364D01*
X65765982Y-108854104D01*
X65765409Y-108836419D01*
X65755642Y-108786851D01*
X65729345Y-108744683D01*
X65687763Y-108717389D01*
X65636777Y-108708291D01*
X65629459Y-108708448D01*
X65579077Y-108719665D01*
X65536638Y-108748591D01*
X65522610Y-108764785D01*
X65501165Y-108810987D01*
X65495361Y-108859966D01*
X65217283Y-108859966D01*
X65221312Y-108838182D01*
X65235417Y-108787790D01*
X65256735Y-108735402D01*
X65263688Y-108721655D01*
X65290290Y-108677270D01*
X65320422Y-108638682D01*
X65359180Y-108601679D01*
X65402548Y-108572247D01*
X65438907Y-108554734D01*
X65486643Y-108538880D01*
X65540107Y-108527959D01*
X65590490Y-108522524D01*
X65645081Y-108520712D01*
X65697984Y-108522687D01*
G37*
G36*
X56808579Y-107296337D02*
G01*
X56887470Y-107568912D01*
X56935370Y-107555424D01*
X56985733Y-107536289D01*
X57031426Y-107513186D01*
X57072447Y-107486113D01*
X57077247Y-107482450D01*
X57117037Y-107446942D01*
X57150954Y-107406913D01*
X57178998Y-107362363D01*
X57192041Y-107335660D01*
X57208924Y-107288948D01*
X57220983Y-107236253D01*
X57227578Y-107185236D01*
X57230480Y-107129637D01*
X57230631Y-107112910D01*
X57229480Y-107063086D01*
X57225061Y-107007170D01*
X57217327Y-106955478D01*
X57204115Y-106900511D01*
X57186392Y-106851293D01*
X57183492Y-106844732D01*
X57159338Y-106800567D01*
X57128334Y-106759113D01*
X57090482Y-106720371D01*
X57052586Y-106689322D01*
X57017163Y-106664969D01*
X56970131Y-106639320D01*
X56918428Y-106618979D01*
X56862053Y-106603943D01*
X56811507Y-106595468D01*
X56757716Y-106590677D01*
X56712348Y-106589498D01*
X56652283Y-106591574D01*
X56595798Y-106597802D01*
X56542893Y-106608182D01*
X56493567Y-106622715D01*
X56447821Y-106641399D01*
X56395673Y-106670594D01*
X56349118Y-106706276D01*
X56332062Y-106722366D01*
X56293714Y-106766582D01*
X56261866Y-106816190D01*
X56236517Y-106871187D01*
X56220918Y-106919066D01*
X56209479Y-106970395D01*
X56202199Y-107025175D01*
X56199079Y-107083404D01*
X56198949Y-107098500D01*
X56200834Y-107155966D01*
X56206486Y-107209449D01*
X56215908Y-107258949D01*
X56232188Y-107313091D01*
X56253895Y-107361496D01*
X56276130Y-107397453D01*
X56307984Y-107436336D01*
X56345659Y-107471287D01*
X56389156Y-107502305D01*
X56438475Y-107529390D01*
X56484021Y-107548957D01*
X56513290Y-107559386D01*
X56574106Y-107284613D01*
X56528480Y-107266984D01*
X56507184Y-107254327D01*
X56470897Y-107219160D01*
X56452718Y-107190335D01*
X56436607Y-107142483D01*
X56433422Y-107106071D01*
X56438628Y-107056276D01*
X56456928Y-107007629D01*
X56488405Y-106966786D01*
X56516709Y-106943894D01*
X56562223Y-106921483D01*
X56614973Y-106908410D01*
X56663721Y-106902890D01*
X56710882Y-106901396D01*
X56768633Y-106903182D01*
X56819154Y-106908540D01*
X56868958Y-106919306D01*
X56918531Y-106940292D01*
X56935341Y-106952198D01*
X56969966Y-106992003D01*
X56990219Y-107041562D01*
X56996158Y-107095080D01*
X56991483Y-107146682D01*
X56975541Y-107193580D01*
X56948286Y-107230147D01*
X56906086Y-107260864D01*
X56861578Y-107281057D01*
X56814261Y-107295030D01*
X56808579Y-107296337D01*
G37*
G36*
X56198949Y-108302861D02*
G01*
X57215000Y-108302861D01*
X57215000Y-108019784D01*
X56549682Y-108019784D01*
X56580980Y-107977318D01*
X56608319Y-107935711D01*
X56633819Y-107890935D01*
X56635900Y-107886916D01*
X56658251Y-107838915D01*
X56678019Y-107788616D01*
X56695362Y-107737923D01*
X56699159Y-107725960D01*
X56464685Y-107725960D01*
X56447097Y-107777291D01*
X56428221Y-107824122D01*
X56404570Y-107873073D01*
X56379167Y-107915899D01*
X56355997Y-107947732D01*
X56322277Y-107985040D01*
X56284862Y-108018074D01*
X56243753Y-108046834D01*
X56198949Y-108071319D01*
X56198949Y-108302861D01*
G37*
G36*
X56717854Y-108601834D02*
G01*
X56767272Y-108603082D01*
X56821402Y-108606883D01*
X56873029Y-108613218D01*
X56922152Y-108622087D01*
X56928082Y-108623370D01*
X56977904Y-108636331D01*
X57025784Y-108653724D01*
X57072850Y-108678751D01*
X57096139Y-108695090D01*
X57133491Y-108727985D01*
X57164970Y-108765363D01*
X57190575Y-108807223D01*
X57193040Y-108812170D01*
X57211698Y-108860971D01*
X57222964Y-108910804D01*
X57228714Y-108959392D01*
X57230631Y-109012631D01*
X57230140Y-109040440D01*
X57226209Y-109092922D01*
X57215768Y-109152642D01*
X57199185Y-109205827D01*
X57176460Y-109252477D01*
X57147593Y-109292591D01*
X57104846Y-109332101D01*
X57079936Y-109348687D01*
X57032733Y-109372706D01*
X56978423Y-109392193D01*
X56929856Y-109404520D01*
X56876741Y-109413946D01*
X56819077Y-109420472D01*
X56756864Y-109424097D01*
X56707219Y-109424913D01*
X56677081Y-109424474D01*
X56625057Y-109421594D01*
X56573945Y-109416026D01*
X56523744Y-109407769D01*
X56474455Y-109396825D01*
X56467215Y-109394987D01*
X56419684Y-109380033D01*
X56372117Y-109358479D01*
X56369374Y-109356981D01*
X56326578Y-109328344D01*
X56288342Y-109293510D01*
X56271649Y-109274390D01*
X56244493Y-109232679D01*
X56223862Y-109187020D01*
X56219410Y-109174473D01*
X56206832Y-109122994D01*
X56200920Y-109074477D01*
X56198949Y-109020203D01*
X56199112Y-109010677D01*
X56386528Y-109010677D01*
X56389800Y-109038854D01*
X56413242Y-109082500D01*
X56454916Y-109112771D01*
X56503525Y-109129182D01*
X56555544Y-109138233D01*
X56610029Y-109143405D01*
X56662412Y-109145892D01*
X56721140Y-109146720D01*
X56761678Y-109146357D01*
X56812560Y-109144625D01*
X56867916Y-109140304D01*
X56920198Y-109131822D01*
X56924149Y-109130889D01*
X56972448Y-109114434D01*
X57013499Y-109085904D01*
X57031508Y-109060877D01*
X57043053Y-109012143D01*
X57040605Y-108988953D01*
X57015861Y-108943258D01*
X56973443Y-108913468D01*
X56924763Y-108897057D01*
X56873731Y-108888006D01*
X56820817Y-108882834D01*
X56770255Y-108880348D01*
X56713813Y-108879519D01*
X56657934Y-108880270D01*
X56607839Y-108882524D01*
X56555361Y-108887212D01*
X56504662Y-108895417D01*
X56456137Y-108910293D01*
X56432481Y-108923274D01*
X56398016Y-108960647D01*
X56386528Y-109010677D01*
X56199112Y-109010677D01*
X56199394Y-108994185D01*
X56202951Y-108944680D01*
X56212398Y-108887543D01*
X56227404Y-108835677D01*
X56247966Y-108789083D01*
X56274086Y-108747759D01*
X56312766Y-108705129D01*
X56343827Y-108680915D01*
X56390156Y-108655187D01*
X56444821Y-108634504D01*
X56494555Y-108621590D01*
X56549624Y-108611904D01*
X56610028Y-108605447D01*
X56658833Y-108602723D01*
X56710638Y-108601815D01*
X56717854Y-108601834D01*
G37*
G36*
X90132287Y-64854611D02*
G01*
X89911396Y-65075501D01*
X89624014Y-64788119D01*
X89604498Y-64807635D01*
X89585141Y-64831606D01*
X89567021Y-64877926D01*
X89569286Y-64922608D01*
X89581701Y-64972396D01*
X89680661Y-65306236D01*
X89431965Y-65554933D01*
X89335077Y-65245271D01*
X89328555Y-65219265D01*
X89321433Y-65169799D01*
X89318983Y-65145739D01*
X89318497Y-65096744D01*
X89328644Y-65060260D01*
X89349412Y-65012982D01*
X89338275Y-65019871D01*
X89293066Y-65044285D01*
X89244234Y-65062203D01*
X89209013Y-65068820D01*
X89156869Y-65070528D01*
X89105551Y-65062376D01*
X89059851Y-65045584D01*
X89016314Y-65018956D01*
X88978612Y-64986213D01*
X88966423Y-64973440D01*
X88935519Y-64933794D01*
X88911148Y-64887403D01*
X88897268Y-64838549D01*
X88893375Y-64789342D01*
X88900548Y-64737239D01*
X88911439Y-64708847D01*
X89187241Y-64708847D01*
X89190536Y-64740545D01*
X89217810Y-64783283D01*
X89226792Y-64791294D01*
X89272730Y-64810571D01*
X89282476Y-64811285D01*
X89330587Y-64796927D01*
X89357335Y-64779529D01*
X89398633Y-64748224D01*
X89491376Y-64655481D01*
X89347685Y-64511790D01*
X89250969Y-64608505D01*
X89240167Y-64619629D01*
X89206947Y-64660572D01*
X89187241Y-64708847D01*
X88911439Y-64708847D01*
X88919720Y-64687259D01*
X88924531Y-64678223D01*
X88952528Y-64634589D01*
X88986130Y-64591720D01*
X89022261Y-64551057D01*
X89058230Y-64513862D01*
X89424884Y-64147208D01*
X90132287Y-64854611D01*
G37*
G36*
X88716534Y-65004150D02*
G01*
X88767220Y-65013155D01*
X88794933Y-65021562D01*
X88842222Y-65042349D01*
X88886178Y-65070403D01*
X88926801Y-65105725D01*
X88956019Y-65138156D01*
X88984580Y-65179055D01*
X89008938Y-65229502D01*
X89023644Y-65282892D01*
X89028697Y-65339223D01*
X89026510Y-65379621D01*
X89015558Y-65433189D01*
X88995399Y-65483269D01*
X88966034Y-65529861D01*
X88933536Y-65567022D01*
X88918048Y-65581616D01*
X88876280Y-65612693D01*
X88828876Y-65635068D01*
X88795898Y-65643924D01*
X88747252Y-65650036D01*
X88697965Y-65649921D01*
X88742096Y-65686106D01*
X88787428Y-65720418D01*
X88831120Y-65749209D01*
X88877061Y-65770642D01*
X88904092Y-65776244D01*
X88956161Y-65771719D01*
X88999337Y-65744391D01*
X89011200Y-65730672D01*
X89029560Y-65684462D01*
X89025740Y-65650698D01*
X89004345Y-65606744D01*
X89222818Y-65431793D01*
X89245135Y-65478849D01*
X89261892Y-65529597D01*
X89270485Y-65579284D01*
X89271055Y-65623861D01*
X89263773Y-65672388D01*
X89248206Y-65720385D01*
X89230277Y-65755995D01*
X89201720Y-65798404D01*
X89168882Y-65838188D01*
X89134393Y-65874611D01*
X89116309Y-65892002D01*
X89070213Y-65930296D01*
X89022852Y-65961185D01*
X88974226Y-65984671D01*
X88924335Y-66000752D01*
X88873180Y-66009430D01*
X88820759Y-66010703D01*
X88788710Y-66007666D01*
X88734471Y-65995440D01*
X88679204Y-65974259D01*
X88634249Y-65950865D01*
X88588636Y-65921740D01*
X88542364Y-65886883D01*
X88495434Y-65846294D01*
X88459804Y-65812092D01*
X88436208Y-65787815D01*
X88400383Y-65747834D01*
X88368934Y-65708452D01*
X88336972Y-65661983D01*
X88311313Y-65616377D01*
X88289344Y-65564259D01*
X88284539Y-65549623D01*
X88271965Y-65499427D01*
X88265985Y-65450834D01*
X88267226Y-65397263D01*
X88271361Y-65375664D01*
X88496590Y-65375664D01*
X88498123Y-65397034D01*
X88515629Y-65444868D01*
X88546157Y-65483605D01*
X88558624Y-65495203D01*
X88600186Y-65521939D01*
X88650126Y-65531963D01*
X88656855Y-65531675D01*
X88704187Y-65519407D01*
X88745978Y-65489305D01*
X88748463Y-65486765D01*
X88776158Y-65445394D01*
X88785873Y-65394489D01*
X88783869Y-65374173D01*
X88765121Y-65327431D01*
X88733370Y-65288102D01*
X88720460Y-65276002D01*
X88678504Y-65247858D01*
X88630092Y-65236636D01*
X88581389Y-65246739D01*
X88538903Y-65276358D01*
X88533840Y-65281644D01*
X88506146Y-65325201D01*
X88496590Y-65375664D01*
X88271361Y-65375664D01*
X88277081Y-65345786D01*
X88290407Y-65307692D01*
X88312952Y-65262728D01*
X88343033Y-65217201D01*
X88374817Y-65177731D01*
X88412137Y-65137848D01*
X88450941Y-65101837D01*
X88495208Y-65067604D01*
X88539388Y-65040754D01*
X88588988Y-65019372D01*
X88616473Y-65011388D01*
X88666285Y-65003561D01*
X88716534Y-65004150D01*
G37*
X97043789Y-70212932D02*
X97111132Y-70078245D01*
X97111132Y-70078245D02*
X97279491Y-69909887D01*
X97279491Y-69909887D02*
X97380506Y-69876215D01*
X97380506Y-69876215D02*
X97447850Y-69876215D01*
X97447850Y-69876215D02*
X97548865Y-69909887D01*
X97548865Y-69909887D02*
X97616209Y-69977230D01*
X97616209Y-69977230D02*
X97649880Y-70078245D01*
X97649880Y-70078245D02*
X97649880Y-70145589D01*
X97649880Y-70145589D02*
X97616209Y-70246604D01*
X97616209Y-70246604D02*
X97515193Y-70414963D01*
X97515193Y-70414963D02*
X97481522Y-70515978D01*
X97481522Y-70515978D02*
X97481522Y-70583322D01*
X97481522Y-70583322D02*
X97515193Y-70684337D01*
X97515193Y-70684337D02*
X97582537Y-70751680D01*
X97582537Y-70751680D02*
X97683552Y-70785352D01*
X97683552Y-70785352D02*
X97750896Y-70785352D01*
X97750896Y-70785352D02*
X97851911Y-70751680D01*
X97851911Y-70751680D02*
X98020270Y-70583322D01*
X98020270Y-70583322D02*
X98087613Y-70448635D01*
X98356987Y-70246604D02*
X97818239Y-69371138D01*
X97818239Y-69371138D02*
X98458003Y-69741528D01*
X98458003Y-69741528D02*
X98087613Y-69101764D01*
X98087613Y-69101764D02*
X98963079Y-69640512D01*
X99535498Y-69068093D02*
X99400811Y-69202780D01*
X99400811Y-69202780D02*
X99299796Y-69236452D01*
X99299796Y-69236452D02*
X99232453Y-69236452D01*
X99232453Y-69236452D02*
X99064094Y-69202780D01*
X99064094Y-69202780D02*
X98895735Y-69101765D01*
X98895735Y-69101765D02*
X98626361Y-68832391D01*
X98626361Y-68832391D02*
X98592689Y-68731375D01*
X98592689Y-68731375D02*
X98592689Y-68664032D01*
X98592689Y-68664032D02*
X98626361Y-68563017D01*
X98626361Y-68563017D02*
X98761048Y-68428330D01*
X98761048Y-68428330D02*
X98862063Y-68394658D01*
X98862063Y-68394658D02*
X98929407Y-68394658D01*
X98929407Y-68394658D02*
X99030422Y-68428330D01*
X99030422Y-68428330D02*
X99198781Y-68596688D01*
X99198781Y-68596688D02*
X99232453Y-68697704D01*
X99232453Y-68697704D02*
X99232453Y-68765047D01*
X99232453Y-68765047D02*
X99198781Y-68866062D01*
X99198781Y-68866062D02*
X99064094Y-69000749D01*
X99064094Y-69000749D02*
X98963079Y-69034421D01*
X98963079Y-69034421D02*
X98895735Y-69034421D01*
X98895735Y-69034421D02*
X98794720Y-69000749D01*
G36*
X110769957Y-87615000D02*
G01*
X110457570Y-87615000D01*
X110457570Y-87208579D01*
X110429971Y-87208579D01*
X110399334Y-87211842D01*
X110353767Y-87231782D01*
X110323774Y-87264979D01*
X110297347Y-87308963D01*
X110131262Y-87615000D01*
X109779552Y-87615000D01*
X109930006Y-87327526D01*
X109943784Y-87304525D01*
X109973725Y-87264511D01*
X109989006Y-87245765D01*
X110023307Y-87210778D01*
X110056279Y-87192154D01*
X110104395Y-87173408D01*
X110091649Y-87170405D01*
X110042419Y-87155701D01*
X109995219Y-87133841D01*
X109965635Y-87113615D01*
X109927556Y-87077951D01*
X109897033Y-87035900D01*
X109876592Y-86991711D01*
X109864635Y-86942097D01*
X109862934Y-86917930D01*
X110173760Y-86917930D01*
X110174447Y-86929946D01*
X110193300Y-86976060D01*
X110199686Y-86983457D01*
X110243858Y-87007323D01*
X110275075Y-87013935D01*
X110326412Y-87021001D01*
X110457570Y-87021001D01*
X110457570Y-86817791D01*
X110320794Y-86817791D01*
X110305290Y-86818018D01*
X110252849Y-86823480D01*
X110204779Y-86843681D01*
X110184695Y-86868424D01*
X110173760Y-86917930D01*
X109862934Y-86917930D01*
X109861129Y-86892285D01*
X109861541Y-86874634D01*
X109867724Y-86824748D01*
X109883294Y-86774712D01*
X109908024Y-86730352D01*
X109940066Y-86692804D01*
X109981980Y-86661034D01*
X110030878Y-86639249D01*
X110040670Y-86636262D01*
X110091320Y-86625205D01*
X110145393Y-86618652D01*
X110199695Y-86615448D01*
X110251429Y-86614581D01*
X110769957Y-86614581D01*
X110769957Y-87615000D01*
G37*
G36*
X109097138Y-86598949D02*
G01*
X109097138Y-87615000D01*
X109380215Y-87615000D01*
X109380215Y-86949682D01*
X109422681Y-86980980D01*
X109464288Y-87008319D01*
X109509064Y-87033819D01*
X109513083Y-87035900D01*
X109561084Y-87058251D01*
X109611383Y-87078019D01*
X109662076Y-87095362D01*
X109674039Y-87099159D01*
X109674039Y-86864685D01*
X109622708Y-86847097D01*
X109575877Y-86828221D01*
X109526926Y-86804570D01*
X109484100Y-86779167D01*
X109452267Y-86755997D01*
X109414959Y-86722277D01*
X109381925Y-86684862D01*
X109353165Y-86643753D01*
X109328680Y-86598949D01*
X109097138Y-86598949D01*
G37*
G36*
X108526831Y-86911580D02*
G01*
X108791346Y-86867616D01*
X108776843Y-86820945D01*
X108754518Y-86771921D01*
X108726373Y-86728741D01*
X108692408Y-86691405D01*
X108664584Y-86668314D01*
X108619822Y-86641286D01*
X108567605Y-86620897D01*
X108516912Y-86608704D01*
X108460741Y-86601388D01*
X108409747Y-86599017D01*
X108399092Y-86598949D01*
X108340092Y-86600690D01*
X108286435Y-86605914D01*
X108238120Y-86614620D01*
X108187196Y-86629664D01*
X108137507Y-86653553D01*
X108113816Y-86670268D01*
X108075348Y-86708111D01*
X108047870Y-86750563D01*
X108031384Y-86797626D01*
X108025889Y-86849298D01*
X108031814Y-86898563D01*
X108051449Y-86947289D01*
X108061792Y-86963604D01*
X108096772Y-87003182D01*
X108135752Y-87033396D01*
X108169503Y-87053485D01*
X108120842Y-87068244D01*
X108080355Y-87087435D01*
X108040798Y-87118577D01*
X108009749Y-87157292D01*
X108002441Y-87169745D01*
X107983407Y-87217984D01*
X107975277Y-87269558D01*
X107974598Y-87291133D01*
X107978249Y-87340445D01*
X107989203Y-87388635D01*
X108007461Y-87435705D01*
X108020759Y-87461371D01*
X108049795Y-87504165D01*
X108085245Y-87541046D01*
X108127110Y-87572016D01*
X108153139Y-87586667D01*
X108199774Y-87605901D01*
X108253218Y-87619640D01*
X108305565Y-87627153D01*
X108354584Y-87630245D01*
X108380529Y-87630631D01*
X108429968Y-87629506D01*
X108482503Y-87625350D01*
X108535760Y-87616852D01*
X108587024Y-87602510D01*
X108597173Y-87598635D01*
X108644041Y-87575599D01*
X108685424Y-87546791D01*
X108721321Y-87512210D01*
X108727842Y-87504602D01*
X108757433Y-87462751D01*
X108782396Y-87414747D01*
X108800907Y-87366282D01*
X108806244Y-87349019D01*
X108526831Y-87318000D01*
X108511981Y-87364860D01*
X108486175Y-87406338D01*
X108475784Y-87415942D01*
X108430618Y-87437863D01*
X108387368Y-87443053D01*
X108338835Y-87434520D01*
X108296177Y-87406607D01*
X108293823Y-87404218D01*
X108266825Y-87361946D01*
X108256540Y-87312325D01*
X108256210Y-87300415D01*
X108262175Y-87251594D01*
X108283885Y-87207583D01*
X108292357Y-87198077D01*
X108334734Y-87170783D01*
X108386218Y-87161720D01*
X108390055Y-87161685D01*
X108440907Y-87167791D01*
X108480669Y-87177316D01*
X108466258Y-86971175D01*
X108429866Y-86974106D01*
X108379491Y-86966596D01*
X108338275Y-86944064D01*
X108307481Y-86904515D01*
X108301394Y-86872990D01*
X108315652Y-86824664D01*
X108328994Y-86810219D01*
X108373838Y-86789327D01*
X108404465Y-86786528D01*
X108454371Y-86795338D01*
X108485065Y-86814371D01*
X108512180Y-86855552D01*
X108525379Y-86903043D01*
X108526831Y-86911580D01*
G37*
G36*
X67061690Y-104115000D02*
G01*
X66749303Y-104115000D01*
X66749303Y-103708579D01*
X66721704Y-103708579D01*
X66691067Y-103711842D01*
X66645500Y-103731782D01*
X66615507Y-103764979D01*
X66589080Y-103808963D01*
X66422995Y-104115000D01*
X66071285Y-104115000D01*
X66221739Y-103827526D01*
X66235517Y-103804525D01*
X66265458Y-103764511D01*
X66280739Y-103745765D01*
X66315040Y-103710778D01*
X66348012Y-103692154D01*
X66396128Y-103673408D01*
X66383382Y-103670405D01*
X66334152Y-103655701D01*
X66286952Y-103633841D01*
X66257368Y-103613615D01*
X66219289Y-103577951D01*
X66188766Y-103535900D01*
X66168325Y-103491711D01*
X66156368Y-103442097D01*
X66154667Y-103417930D01*
X66465493Y-103417930D01*
X66466180Y-103429946D01*
X66485033Y-103476060D01*
X66491419Y-103483457D01*
X66535591Y-103507323D01*
X66566808Y-103513935D01*
X66618145Y-103521001D01*
X66749303Y-103521001D01*
X66749303Y-103317791D01*
X66612527Y-103317791D01*
X66597023Y-103318018D01*
X66544582Y-103323480D01*
X66496512Y-103343681D01*
X66476428Y-103368424D01*
X66465493Y-103417930D01*
X66154667Y-103417930D01*
X66152862Y-103392285D01*
X66153274Y-103374634D01*
X66159457Y-103324748D01*
X66175027Y-103274712D01*
X66199757Y-103230352D01*
X66231799Y-103192804D01*
X66273713Y-103161034D01*
X66322611Y-103139249D01*
X66332403Y-103136262D01*
X66383053Y-103125205D01*
X66437126Y-103118652D01*
X66491428Y-103115448D01*
X66543162Y-103114581D01*
X67061690Y-103114581D01*
X67061690Y-104115000D01*
G37*
G36*
X65673977Y-103100410D02*
G01*
X65725588Y-103106020D01*
X65780463Y-103117883D01*
X65829586Y-103135472D01*
X65872960Y-103158789D01*
X65900838Y-103178966D01*
X65940680Y-103217636D01*
X65969139Y-103260584D01*
X65986214Y-103307809D01*
X65991906Y-103359312D01*
X65989326Y-103395582D01*
X65975782Y-103445866D01*
X65950629Y-103491203D01*
X65938101Y-103506674D01*
X65899052Y-103540567D01*
X65854642Y-103567163D01*
X65859971Y-103569312D01*
X65908467Y-103593822D01*
X65948233Y-103623818D01*
X65981892Y-103663150D01*
X65984417Y-103667054D01*
X66006897Y-103713525D01*
X66018918Y-103761382D01*
X66022925Y-103814581D01*
X66022539Y-103831602D01*
X66016743Y-103880835D01*
X66002145Y-103932322D01*
X65978961Y-103980422D01*
X65970362Y-103993982D01*
X65936549Y-104034626D01*
X65894818Y-104068257D01*
X65850490Y-104092529D01*
X65822232Y-104103506D01*
X65769331Y-104117199D01*
X65715278Y-104125273D01*
X65663180Y-104129292D01*
X65605758Y-104130631D01*
X65600456Y-104130615D01*
X65548478Y-104128640D01*
X65498408Y-104123373D01*
X65445535Y-104113778D01*
X65413804Y-104105398D01*
X65364900Y-104086846D01*
X65319750Y-104060778D01*
X65292567Y-104038068D01*
X65260229Y-104000395D01*
X65234509Y-103958440D01*
X65216220Y-103916093D01*
X65203925Y-103867253D01*
X65199827Y-103816046D01*
X65200946Y-103802369D01*
X65480950Y-103802369D01*
X65481106Y-103809918D01*
X65492186Y-103861249D01*
X65520762Y-103903241D01*
X65560339Y-103931817D01*
X65610643Y-103943053D01*
X65613898Y-103943014D01*
X65662869Y-103932023D01*
X65703455Y-103903974D01*
X65710701Y-103896405D01*
X65736239Y-103852703D01*
X65744000Y-103803101D01*
X65743658Y-103791156D01*
X65733040Y-103741655D01*
X65705165Y-103700031D01*
X65663033Y-103671271D01*
X65614307Y-103661685D01*
X65611007Y-103661723D01*
X65561647Y-103672852D01*
X65521250Y-103701252D01*
X65514048Y-103708823D01*
X65488664Y-103752600D01*
X65480950Y-103802369D01*
X65200946Y-103802369D01*
X65203762Y-103767970D01*
X65217182Y-103718283D01*
X65240127Y-103671943D01*
X65245297Y-103663892D01*
X65279565Y-103623190D01*
X65319283Y-103591448D01*
X65362004Y-103567163D01*
X65347071Y-103557111D01*
X65305654Y-103523914D01*
X65271390Y-103484609D01*
X65258275Y-103462784D01*
X65239168Y-103413436D01*
X65235334Y-103382027D01*
X65499513Y-103382027D01*
X65502542Y-103406041D01*
X65530531Y-103448461D01*
X65560778Y-103465992D01*
X65609422Y-103474106D01*
X65649930Y-103469833D01*
X65696372Y-103448217D01*
X65714867Y-103428345D01*
X65728857Y-103379829D01*
X65725105Y-103353269D01*
X65697105Y-103312662D01*
X65662977Y-103293903D01*
X65614307Y-103286528D01*
X65576410Y-103290922D01*
X65531753Y-103313150D01*
X65513397Y-103333190D01*
X65499513Y-103382027D01*
X65235334Y-103382027D01*
X65232799Y-103361266D01*
X65232894Y-103354236D01*
X65240431Y-103300709D01*
X65260028Y-103252005D01*
X65291684Y-103208125D01*
X65329275Y-103173688D01*
X65369163Y-103148288D01*
X65416470Y-103128144D01*
X65471196Y-103113255D01*
X65522468Y-103104861D01*
X65578892Y-103100117D01*
X65627740Y-103098949D01*
X65673977Y-103100410D01*
G37*
G36*
X70415000Y-73142429D02*
G01*
X70008579Y-73142429D01*
X70008579Y-73170028D01*
X70011842Y-73200665D01*
X70031782Y-73246232D01*
X70064979Y-73276225D01*
X70108963Y-73302652D01*
X70415000Y-73468737D01*
X70415000Y-73820447D01*
X70127526Y-73669993D01*
X70104525Y-73656215D01*
X70064511Y-73626274D01*
X70045765Y-73610993D01*
X70010778Y-73576692D01*
X69992154Y-73543720D01*
X69973408Y-73495604D01*
X69970405Y-73508350D01*
X69955701Y-73557580D01*
X69933841Y-73604780D01*
X69913615Y-73634364D01*
X69877951Y-73672443D01*
X69835900Y-73702966D01*
X69791711Y-73723407D01*
X69742097Y-73735364D01*
X69692285Y-73738870D01*
X69674634Y-73738458D01*
X69624748Y-73732275D01*
X69574712Y-73716705D01*
X69530352Y-73691975D01*
X69492804Y-73659933D01*
X69461034Y-73618019D01*
X69439249Y-73569121D01*
X69436262Y-73559329D01*
X69425205Y-73508679D01*
X69418652Y-73454606D01*
X69415448Y-73400304D01*
X69414581Y-73348570D01*
X69414581Y-73142429D01*
X69617791Y-73142429D01*
X69617791Y-73279205D01*
X69618018Y-73294709D01*
X69623480Y-73347150D01*
X69643681Y-73395220D01*
X69668424Y-73415304D01*
X69717930Y-73426239D01*
X69729946Y-73425552D01*
X69776060Y-73406699D01*
X69783457Y-73400313D01*
X69807323Y-73356141D01*
X69813935Y-73324924D01*
X69821001Y-73273587D01*
X69821001Y-73142429D01*
X69617791Y-73142429D01*
X69414581Y-73142429D01*
X69414581Y-72830042D01*
X70415000Y-72830042D01*
X70415000Y-73142429D01*
G37*
G36*
X69398949Y-74502861D02*
G01*
X70415000Y-74502861D01*
X70415000Y-74219784D01*
X69749682Y-74219784D01*
X69780980Y-74177318D01*
X69808319Y-74135711D01*
X69833819Y-74090935D01*
X69835900Y-74086916D01*
X69858251Y-74038915D01*
X69878019Y-73988616D01*
X69895362Y-73937923D01*
X69899159Y-73925960D01*
X69664685Y-73925960D01*
X69647097Y-73977291D01*
X69628221Y-74024122D01*
X69604570Y-74073073D01*
X69579167Y-74115899D01*
X69555997Y-74147732D01*
X69522277Y-74185040D01*
X69484862Y-74218074D01*
X69443753Y-74246834D01*
X69398949Y-74271319D01*
X69398949Y-74502861D01*
G37*
G36*
X69398949Y-75435869D02*
G01*
X70415000Y-75435869D01*
X70415000Y-75152792D01*
X69749682Y-75152792D01*
X69780980Y-75110326D01*
X69808319Y-75068719D01*
X69833819Y-75023943D01*
X69835900Y-75019923D01*
X69858251Y-74971923D01*
X69878019Y-74921624D01*
X69895362Y-74870931D01*
X69899159Y-74858967D01*
X69664685Y-74858967D01*
X69647097Y-74910299D01*
X69628221Y-74957130D01*
X69604570Y-75006080D01*
X69579167Y-75048906D01*
X69555997Y-75080740D01*
X69522277Y-75118048D01*
X69484862Y-75151082D01*
X69443753Y-75179841D01*
X69398949Y-75204327D01*
X69398949Y-75435869D01*
G37*
G36*
X69637158Y-118808579D02*
G01*
X69364583Y-118887470D01*
X69378071Y-118935370D01*
X69397206Y-118985733D01*
X69420309Y-119031426D01*
X69447382Y-119072447D01*
X69451045Y-119077247D01*
X69486553Y-119117037D01*
X69526582Y-119150954D01*
X69571132Y-119178998D01*
X69597835Y-119192041D01*
X69644547Y-119208924D01*
X69697242Y-119220983D01*
X69748259Y-119227578D01*
X69803858Y-119230480D01*
X69820585Y-119230631D01*
X69870409Y-119229480D01*
X69926325Y-119225061D01*
X69978017Y-119217327D01*
X70032984Y-119204115D01*
X70082202Y-119186392D01*
X70088763Y-119183492D01*
X70132928Y-119159338D01*
X70174382Y-119128334D01*
X70213124Y-119090482D01*
X70244173Y-119052586D01*
X70268526Y-119017163D01*
X70294175Y-118970131D01*
X70314516Y-118918428D01*
X70329552Y-118862053D01*
X70338027Y-118811507D01*
X70342818Y-118757716D01*
X70343997Y-118712348D01*
X70341921Y-118652283D01*
X70335693Y-118595798D01*
X70325313Y-118542893D01*
X70310780Y-118493567D01*
X70292096Y-118447821D01*
X70262901Y-118395673D01*
X70227219Y-118349118D01*
X70211129Y-118332062D01*
X70166913Y-118293714D01*
X70117305Y-118261866D01*
X70062308Y-118236517D01*
X70014429Y-118220918D01*
X69963100Y-118209479D01*
X69908320Y-118202199D01*
X69850091Y-118199079D01*
X69834995Y-118198949D01*
X69777529Y-118200834D01*
X69724046Y-118206486D01*
X69674546Y-118215908D01*
X69620404Y-118232188D01*
X69571999Y-118253895D01*
X69536042Y-118276130D01*
X69497159Y-118307984D01*
X69462208Y-118345659D01*
X69431190Y-118389156D01*
X69404105Y-118438475D01*
X69384538Y-118484021D01*
X69374109Y-118513290D01*
X69648882Y-118574106D01*
X69666511Y-118528480D01*
X69679168Y-118507184D01*
X69714335Y-118470897D01*
X69743160Y-118452718D01*
X69791012Y-118436607D01*
X69827424Y-118433422D01*
X69877219Y-118438628D01*
X69925866Y-118456928D01*
X69966709Y-118488405D01*
X69989601Y-118516709D01*
X70012012Y-118562223D01*
X70025085Y-118614973D01*
X70030605Y-118663721D01*
X70032099Y-118710882D01*
X70030313Y-118768633D01*
X70024955Y-118819154D01*
X70014189Y-118868958D01*
X69993203Y-118918531D01*
X69981297Y-118935341D01*
X69941492Y-118969966D01*
X69891933Y-118990219D01*
X69838415Y-118996158D01*
X69786813Y-118991483D01*
X69739915Y-118975541D01*
X69703348Y-118948286D01*
X69672631Y-118906086D01*
X69652438Y-118861578D01*
X69638465Y-118814261D01*
X69637158Y-118808579D01*
G37*
G36*
X68915740Y-118200410D02*
G01*
X68967351Y-118206020D01*
X69022226Y-118217883D01*
X69071349Y-118235472D01*
X69114723Y-118258789D01*
X69142601Y-118278966D01*
X69182443Y-118317636D01*
X69210902Y-118360584D01*
X69227977Y-118407809D01*
X69233669Y-118459312D01*
X69231089Y-118495582D01*
X69217545Y-118545866D01*
X69192392Y-118591203D01*
X69179864Y-118606674D01*
X69140815Y-118640567D01*
X69096405Y-118667163D01*
X69101734Y-118669312D01*
X69150230Y-118693822D01*
X69189996Y-118723818D01*
X69223655Y-118763150D01*
X69226180Y-118767054D01*
X69248660Y-118813525D01*
X69260681Y-118861382D01*
X69264688Y-118914581D01*
X69264302Y-118931602D01*
X69258506Y-118980835D01*
X69243908Y-119032322D01*
X69220724Y-119080422D01*
X69212125Y-119093982D01*
X69178312Y-119134626D01*
X69136581Y-119168257D01*
X69092253Y-119192529D01*
X69063995Y-119203506D01*
X69011094Y-119217199D01*
X68957041Y-119225273D01*
X68904943Y-119229292D01*
X68847521Y-119230631D01*
X68842219Y-119230615D01*
X68790241Y-119228640D01*
X68740171Y-119223373D01*
X68687298Y-119213778D01*
X68655567Y-119205398D01*
X68606663Y-119186846D01*
X68561513Y-119160778D01*
X68534330Y-119138068D01*
X68501992Y-119100395D01*
X68476272Y-119058440D01*
X68457983Y-119016093D01*
X68445688Y-118967253D01*
X68441590Y-118916046D01*
X68442709Y-118902369D01*
X68722713Y-118902369D01*
X68722869Y-118909918D01*
X68733949Y-118961249D01*
X68762525Y-119003241D01*
X68802102Y-119031817D01*
X68852406Y-119043053D01*
X68855661Y-119043014D01*
X68904632Y-119032023D01*
X68945218Y-119003974D01*
X68952464Y-118996405D01*
X68978002Y-118952703D01*
X68985763Y-118903101D01*
X68985421Y-118891156D01*
X68974803Y-118841655D01*
X68946928Y-118800031D01*
X68904796Y-118771271D01*
X68856070Y-118761685D01*
X68852770Y-118761723D01*
X68803410Y-118772852D01*
X68763013Y-118801252D01*
X68755811Y-118808823D01*
X68730427Y-118852600D01*
X68722713Y-118902369D01*
X68442709Y-118902369D01*
X68445525Y-118867970D01*
X68458945Y-118818283D01*
X68481890Y-118771943D01*
X68487060Y-118763892D01*
X68521328Y-118723190D01*
X68561046Y-118691448D01*
X68603767Y-118667163D01*
X68588834Y-118657111D01*
X68547417Y-118623914D01*
X68513153Y-118584609D01*
X68500038Y-118562784D01*
X68480931Y-118513436D01*
X68477097Y-118482027D01*
X68741276Y-118482027D01*
X68744305Y-118506041D01*
X68772294Y-118548461D01*
X68802541Y-118565992D01*
X68851185Y-118574106D01*
X68891693Y-118569833D01*
X68938135Y-118548217D01*
X68956630Y-118528345D01*
X68970620Y-118479829D01*
X68966868Y-118453269D01*
X68938868Y-118412662D01*
X68904740Y-118393903D01*
X68856070Y-118386528D01*
X68818173Y-118390922D01*
X68773516Y-118413150D01*
X68755160Y-118433190D01*
X68741276Y-118482027D01*
X68477097Y-118482027D01*
X68474562Y-118461266D01*
X68474657Y-118454236D01*
X68482194Y-118400709D01*
X68501791Y-118352005D01*
X68533447Y-118308125D01*
X68571038Y-118273688D01*
X68610926Y-118248288D01*
X68658233Y-118228144D01*
X68712959Y-118213255D01*
X68764231Y-118204861D01*
X68820655Y-118200117D01*
X68869503Y-118198949D01*
X68915740Y-118200410D01*
G37*
G36*
X98663156Y-78056344D02*
G01*
X98372507Y-78056344D01*
X97993198Y-78620056D01*
X97993198Y-78056344D01*
X97700107Y-78056344D01*
X97700107Y-79056763D01*
X97993198Y-79056763D01*
X98370553Y-78495981D01*
X98370553Y-79056763D01*
X98663156Y-79056763D01*
X98663156Y-78056344D01*
G37*
G36*
X97571635Y-78572185D02*
G01*
X97164970Y-78572185D01*
X97164970Y-78791026D01*
X97571635Y-78791026D01*
X97571635Y-78572185D01*
G37*
G36*
X97029416Y-79056763D02*
G01*
X96717029Y-79056763D01*
X96717029Y-78650342D01*
X96689430Y-78650342D01*
X96658792Y-78653605D01*
X96613226Y-78673545D01*
X96583233Y-78706742D01*
X96556806Y-78750726D01*
X96390721Y-79056763D01*
X96039011Y-79056763D01*
X96189465Y-78769289D01*
X96203242Y-78746288D01*
X96233184Y-78706274D01*
X96248464Y-78687528D01*
X96282765Y-78652541D01*
X96315738Y-78633917D01*
X96363854Y-78615171D01*
X96351108Y-78612168D01*
X96301877Y-78597464D01*
X96254677Y-78575604D01*
X96225093Y-78555378D01*
X96187014Y-78519714D01*
X96156492Y-78477663D01*
X96136050Y-78433474D01*
X96124094Y-78383860D01*
X96122393Y-78359693D01*
X96433219Y-78359693D01*
X96433906Y-78371709D01*
X96452758Y-78417823D01*
X96459145Y-78425220D01*
X96503317Y-78449086D01*
X96534533Y-78455698D01*
X96585871Y-78462764D01*
X96717029Y-78462764D01*
X96717029Y-78259554D01*
X96580253Y-78259554D01*
X96564749Y-78259781D01*
X96512308Y-78265243D01*
X96464238Y-78285444D01*
X96444154Y-78310187D01*
X96433219Y-78359693D01*
X96122393Y-78359693D01*
X96120588Y-78334048D01*
X96121000Y-78316397D01*
X96127183Y-78266511D01*
X96142753Y-78216475D01*
X96167483Y-78172115D01*
X96199525Y-78134567D01*
X96241439Y-78102797D01*
X96290337Y-78081012D01*
X96300128Y-78078025D01*
X96350779Y-78066968D01*
X96404852Y-78060415D01*
X96459153Y-78057211D01*
X96510888Y-78056344D01*
X97029416Y-78056344D01*
X97029416Y-79056763D01*
G37*
G36*
X70303453Y-120715000D02*
G01*
X69991066Y-120715000D01*
X69991066Y-120308579D01*
X69963467Y-120308579D01*
X69932830Y-120311842D01*
X69887263Y-120331782D01*
X69857270Y-120364979D01*
X69830843Y-120408963D01*
X69664758Y-120715000D01*
X69313048Y-120715000D01*
X69463502Y-120427526D01*
X69477280Y-120404525D01*
X69507221Y-120364511D01*
X69522502Y-120345765D01*
X69556803Y-120310778D01*
X69589775Y-120292154D01*
X69637891Y-120273408D01*
X69625145Y-120270405D01*
X69575915Y-120255701D01*
X69528715Y-120233841D01*
X69499131Y-120213615D01*
X69461052Y-120177951D01*
X69430529Y-120135900D01*
X69410088Y-120091711D01*
X69398131Y-120042097D01*
X69396430Y-120017930D01*
X69707256Y-120017930D01*
X69707943Y-120029946D01*
X69726796Y-120076060D01*
X69733182Y-120083457D01*
X69777354Y-120107323D01*
X69808571Y-120113935D01*
X69859908Y-120121001D01*
X69991066Y-120121001D01*
X69991066Y-119917791D01*
X69854290Y-119917791D01*
X69838786Y-119918018D01*
X69786345Y-119923480D01*
X69738275Y-119943681D01*
X69718191Y-119968424D01*
X69707256Y-120017930D01*
X69396430Y-120017930D01*
X69394625Y-119992285D01*
X69395037Y-119974634D01*
X69401220Y-119924748D01*
X69416790Y-119874712D01*
X69441520Y-119830352D01*
X69473562Y-119792804D01*
X69515476Y-119761034D01*
X69564374Y-119739249D01*
X69574166Y-119736262D01*
X69624816Y-119725205D01*
X69678889Y-119718652D01*
X69733191Y-119715448D01*
X69784925Y-119714581D01*
X70303453Y-119714581D01*
X70303453Y-120715000D01*
G37*
G36*
X68993334Y-120011580D02*
G01*
X69257849Y-119967616D01*
X69243346Y-119920945D01*
X69221022Y-119871921D01*
X69192877Y-119828741D01*
X69158912Y-119791405D01*
X69131087Y-119768314D01*
X69086326Y-119741286D01*
X69034109Y-119720897D01*
X68983416Y-119708704D01*
X68927245Y-119701388D01*
X68876251Y-119699017D01*
X68865595Y-119698949D01*
X68806595Y-119700690D01*
X68752938Y-119705914D01*
X68704624Y-119714620D01*
X68653699Y-119729664D01*
X68604011Y-119753553D01*
X68580320Y-119770268D01*
X68541851Y-119808111D01*
X68514374Y-119850563D01*
X68497888Y-119897626D01*
X68492392Y-119949298D01*
X68498318Y-119998563D01*
X68517953Y-120047289D01*
X68528296Y-120063604D01*
X68563275Y-120103182D01*
X68602256Y-120133396D01*
X68636007Y-120153485D01*
X68587346Y-120168244D01*
X68546858Y-120187435D01*
X68507301Y-120218577D01*
X68476253Y-120257292D01*
X68468945Y-120269745D01*
X68449911Y-120317984D01*
X68441781Y-120369558D01*
X68441101Y-120391133D01*
X68444753Y-120440445D01*
X68455707Y-120488635D01*
X68473964Y-120535705D01*
X68487263Y-120561371D01*
X68516299Y-120604165D01*
X68551749Y-120641046D01*
X68593613Y-120672016D01*
X68619643Y-120686667D01*
X68666278Y-120705901D01*
X68719721Y-120719640D01*
X68772069Y-120727153D01*
X68821087Y-120730245D01*
X68847033Y-120730631D01*
X68896472Y-120729506D01*
X68949007Y-120725350D01*
X69002263Y-120716852D01*
X69053528Y-120702510D01*
X69063676Y-120698635D01*
X69110545Y-120675599D01*
X69151928Y-120646791D01*
X69187825Y-120612210D01*
X69194346Y-120604602D01*
X69223937Y-120562751D01*
X69248900Y-120514747D01*
X69267411Y-120466282D01*
X69272748Y-120449019D01*
X68993334Y-120418000D01*
X68978485Y-120464860D01*
X68952679Y-120506338D01*
X68942288Y-120515942D01*
X68897122Y-120537863D01*
X68853872Y-120543053D01*
X68805339Y-120534520D01*
X68762681Y-120506607D01*
X68760327Y-120504218D01*
X68733329Y-120461946D01*
X68723044Y-120412325D01*
X68722713Y-120400415D01*
X68728679Y-120351594D01*
X68750389Y-120307583D01*
X68758861Y-120298077D01*
X68801237Y-120270783D01*
X68852721Y-120261720D01*
X68856558Y-120261685D01*
X68907410Y-120267791D01*
X68947172Y-120277316D01*
X68932762Y-120071175D01*
X68896370Y-120074106D01*
X68845995Y-120066596D01*
X68804779Y-120044064D01*
X68773985Y-120004515D01*
X68767898Y-119972990D01*
X68782156Y-119924664D01*
X68795498Y-119910219D01*
X68840342Y-119889327D01*
X68870969Y-119886528D01*
X68920874Y-119895338D01*
X68951569Y-119914371D01*
X68978683Y-119955552D01*
X68991883Y-120003043D01*
X68993334Y-120011580D01*
G37*
G36*
X75408579Y-114162841D02*
G01*
X75487470Y-114435416D01*
X75535370Y-114421928D01*
X75585733Y-114402793D01*
X75631426Y-114379690D01*
X75672447Y-114352617D01*
X75677247Y-114348954D01*
X75717037Y-114313446D01*
X75750954Y-114273417D01*
X75778998Y-114228867D01*
X75792041Y-114202164D01*
X75808924Y-114155452D01*
X75820983Y-114102757D01*
X75827578Y-114051740D01*
X75830480Y-113996141D01*
X75830631Y-113979414D01*
X75829480Y-113929590D01*
X75825061Y-113873674D01*
X75817327Y-113821982D01*
X75804115Y-113767015D01*
X75786392Y-113717797D01*
X75783492Y-113711236D01*
X75759338Y-113667071D01*
X75728334Y-113625617D01*
X75690482Y-113586875D01*
X75652586Y-113555826D01*
X75617163Y-113531473D01*
X75570131Y-113505824D01*
X75518428Y-113485483D01*
X75462053Y-113470447D01*
X75411507Y-113461972D01*
X75357716Y-113457181D01*
X75312348Y-113456002D01*
X75252283Y-113458078D01*
X75195798Y-113464306D01*
X75142893Y-113474686D01*
X75093567Y-113489219D01*
X75047821Y-113507903D01*
X74995673Y-113537098D01*
X74949118Y-113572780D01*
X74932062Y-113588870D01*
X74893714Y-113633086D01*
X74861866Y-113682694D01*
X74836517Y-113737691D01*
X74820918Y-113785570D01*
X74809479Y-113836899D01*
X74802199Y-113891679D01*
X74799079Y-113949908D01*
X74798949Y-113965004D01*
X74800834Y-114022470D01*
X74806486Y-114075953D01*
X74815908Y-114125453D01*
X74832188Y-114179595D01*
X74853895Y-114228000D01*
X74876130Y-114263957D01*
X74907984Y-114302840D01*
X74945659Y-114337791D01*
X74989156Y-114368809D01*
X75038475Y-114395894D01*
X75084021Y-114415461D01*
X75113290Y-114425890D01*
X75174106Y-114151117D01*
X75128480Y-114133488D01*
X75107184Y-114120831D01*
X75070897Y-114085664D01*
X75052718Y-114056839D01*
X75036607Y-114008987D01*
X75033422Y-113972575D01*
X75038628Y-113922780D01*
X75056928Y-113874133D01*
X75088405Y-113833290D01*
X75116709Y-113810398D01*
X75162223Y-113787987D01*
X75214973Y-113774914D01*
X75263721Y-113769394D01*
X75310882Y-113767900D01*
X75368633Y-113769686D01*
X75419154Y-113775044D01*
X75468958Y-113785810D01*
X75518531Y-113806796D01*
X75535341Y-113818702D01*
X75569966Y-113858507D01*
X75590219Y-113908066D01*
X75596158Y-113961584D01*
X75591483Y-114013186D01*
X75575541Y-114060084D01*
X75548286Y-114096651D01*
X75506086Y-114127368D01*
X75461578Y-114147561D01*
X75414261Y-114161534D01*
X75408579Y-114162841D01*
G37*
G36*
X74814581Y-114540196D02*
G01*
X74814581Y-115356944D01*
X75001915Y-115356944D01*
X75038285Y-115318247D01*
X75075772Y-115282022D01*
X75114375Y-115248271D01*
X75154094Y-115216993D01*
X75194929Y-115188187D01*
X75208789Y-115179135D01*
X75251754Y-115152998D01*
X75296234Y-115128626D01*
X75342229Y-115106020D01*
X75389738Y-115085178D01*
X75438762Y-115066101D01*
X75489301Y-115048790D01*
X75509940Y-115042359D01*
X75559957Y-115028349D01*
X75613289Y-115016175D01*
X75669935Y-115005840D01*
X75719673Y-114998631D01*
X75771711Y-114992698D01*
X75815000Y-114988870D01*
X75815000Y-114709945D01*
X75754992Y-114718775D01*
X75697458Y-114728782D01*
X75642396Y-114739964D01*
X75589808Y-114752321D01*
X75539692Y-114765853D01*
X75492049Y-114780561D01*
X75435974Y-114800599D01*
X75404183Y-114813504D01*
X75351721Y-114837648D01*
X75298138Y-114865811D01*
X75254464Y-114891235D01*
X75210073Y-114919231D01*
X75164964Y-114949800D01*
X75119138Y-114982940D01*
X75072595Y-115018653D01*
X75049054Y-115037474D01*
X75049054Y-114540196D01*
X74814581Y-114540196D01*
G37*
G36*
X70303453Y-122115000D02*
G01*
X69991066Y-122115000D01*
X69991066Y-121708579D01*
X69963467Y-121708579D01*
X69932830Y-121711842D01*
X69887263Y-121731782D01*
X69857270Y-121764979D01*
X69830843Y-121808963D01*
X69664758Y-122115000D01*
X69313048Y-122115000D01*
X69463502Y-121827526D01*
X69477280Y-121804525D01*
X69507221Y-121764511D01*
X69522502Y-121745765D01*
X69556803Y-121710778D01*
X69589775Y-121692154D01*
X69637891Y-121673408D01*
X69625145Y-121670405D01*
X69575915Y-121655701D01*
X69528715Y-121633841D01*
X69499131Y-121613615D01*
X69461052Y-121577951D01*
X69430529Y-121535900D01*
X69410088Y-121491711D01*
X69398131Y-121442097D01*
X69396430Y-121417930D01*
X69707256Y-121417930D01*
X69707943Y-121429946D01*
X69726796Y-121476060D01*
X69733182Y-121483457D01*
X69777354Y-121507323D01*
X69808571Y-121513935D01*
X69859908Y-121521001D01*
X69991066Y-121521001D01*
X69991066Y-121317791D01*
X69854290Y-121317791D01*
X69838786Y-121318018D01*
X69786345Y-121323480D01*
X69738275Y-121343681D01*
X69718191Y-121368424D01*
X69707256Y-121417930D01*
X69396430Y-121417930D01*
X69394625Y-121392285D01*
X69395037Y-121374634D01*
X69401220Y-121324748D01*
X69416790Y-121274712D01*
X69441520Y-121230352D01*
X69473562Y-121192804D01*
X69515476Y-121161034D01*
X69564374Y-121139249D01*
X69574166Y-121136262D01*
X69624816Y-121125205D01*
X69678889Y-121118652D01*
X69733191Y-121115448D01*
X69784925Y-121114581D01*
X70303453Y-121114581D01*
X70303453Y-122115000D01*
G37*
G36*
X68630634Y-121098949D02*
G01*
X68630634Y-122115000D01*
X68913711Y-122115000D01*
X68913711Y-121449682D01*
X68956177Y-121480980D01*
X68997784Y-121508319D01*
X69042560Y-121533819D01*
X69046579Y-121535900D01*
X69094580Y-121558251D01*
X69144879Y-121578019D01*
X69195572Y-121595362D01*
X69207535Y-121599159D01*
X69207535Y-121364685D01*
X69156204Y-121347097D01*
X69109373Y-121328221D01*
X69060422Y-121304570D01*
X69017596Y-121279167D01*
X68985763Y-121255997D01*
X68948455Y-121222277D01*
X68915421Y-121184862D01*
X68886661Y-121143753D01*
X68862176Y-121098949D01*
X68630634Y-121098949D01*
G37*
G36*
X55815000Y-107408933D02*
G01*
X55408579Y-107408933D01*
X55408579Y-107436532D01*
X55411842Y-107467169D01*
X55431782Y-107512736D01*
X55464979Y-107542729D01*
X55508963Y-107569156D01*
X55815000Y-107735241D01*
X55815000Y-108086951D01*
X55527526Y-107936497D01*
X55504525Y-107922719D01*
X55464511Y-107892778D01*
X55445765Y-107877497D01*
X55410778Y-107843196D01*
X55392154Y-107810224D01*
X55373408Y-107762108D01*
X55370405Y-107774854D01*
X55355701Y-107824084D01*
X55333841Y-107871284D01*
X55313615Y-107900868D01*
X55277951Y-107938947D01*
X55235900Y-107969470D01*
X55191711Y-107989911D01*
X55142097Y-108001868D01*
X55092285Y-108005374D01*
X55074634Y-108004962D01*
X55024748Y-107998779D01*
X54974712Y-107983209D01*
X54930352Y-107958479D01*
X54892804Y-107926437D01*
X54861034Y-107884523D01*
X54839249Y-107835625D01*
X54836262Y-107825833D01*
X54825205Y-107775183D01*
X54818652Y-107721110D01*
X54815448Y-107666808D01*
X54814581Y-107615074D01*
X54814581Y-107408933D01*
X55017791Y-107408933D01*
X55017791Y-107545709D01*
X55018018Y-107561213D01*
X55023480Y-107613654D01*
X55043681Y-107661724D01*
X55068424Y-107681808D01*
X55117930Y-107692743D01*
X55129946Y-107692056D01*
X55176060Y-107673203D01*
X55183457Y-107666817D01*
X55207323Y-107622645D01*
X55213935Y-107591428D01*
X55221001Y-107540091D01*
X55221001Y-107408933D01*
X55017791Y-107408933D01*
X54814581Y-107408933D01*
X54814581Y-107096546D01*
X55815000Y-107096546D01*
X55815000Y-107408933D01*
G37*
G36*
X55643053Y-108616225D02*
G01*
X55815000Y-108616225D01*
X55815000Y-108859979D01*
X55643053Y-108859979D01*
X55643053Y-108986497D01*
X55408579Y-108986497D01*
X55408579Y-108859979D01*
X54798949Y-108859979D01*
X54798949Y-108616225D01*
X55093262Y-108616225D01*
X55408579Y-108616225D01*
X55408579Y-108347069D01*
X55093262Y-108616225D01*
X54798949Y-108616225D01*
X55410778Y-108106490D01*
X55643053Y-108106490D01*
X55643053Y-108616225D01*
G37*
X96563160Y-67403566D02*
X97068236Y-67908642D01*
X97068236Y-67908642D02*
X97202923Y-67975986D01*
X97202923Y-67975986D02*
X97337610Y-67975986D01*
X97337610Y-67975986D02*
X97472297Y-67908642D01*
X97472297Y-67908642D02*
X97539641Y-67841299D01*
X96327457Y-67773955D02*
X96260114Y-67773955D01*
X96260114Y-67773955D02*
X96159099Y-67807627D01*
X96159099Y-67807627D02*
X95990740Y-67975986D01*
X95990740Y-67975986D02*
X95957068Y-68077001D01*
X95957068Y-68077001D02*
X95957068Y-68144345D01*
X95957068Y-68144345D02*
X95990740Y-68245360D01*
X95990740Y-68245360D02*
X96058083Y-68312703D01*
X96058083Y-68312703D02*
X96192770Y-68380047D01*
X96192770Y-68380047D02*
X97000892Y-68380047D01*
X97000892Y-68380047D02*
X96563160Y-68817780D01*
G36*
X87732287Y-64454611D02*
G01*
X87511396Y-64675501D01*
X87224014Y-64388119D01*
X87204498Y-64407635D01*
X87185141Y-64431606D01*
X87167021Y-64477926D01*
X87169286Y-64522608D01*
X87181701Y-64572396D01*
X87280661Y-64906236D01*
X87031965Y-65154933D01*
X86935077Y-64845271D01*
X86928555Y-64819265D01*
X86921433Y-64769799D01*
X86918983Y-64745739D01*
X86918497Y-64696744D01*
X86928644Y-64660260D01*
X86949412Y-64612982D01*
X86938275Y-64619871D01*
X86893066Y-64644285D01*
X86844234Y-64662203D01*
X86809013Y-64668820D01*
X86756869Y-64670528D01*
X86705551Y-64662376D01*
X86659851Y-64645584D01*
X86616314Y-64618956D01*
X86578612Y-64586213D01*
X86566423Y-64573440D01*
X86535519Y-64533794D01*
X86511148Y-64487403D01*
X86497268Y-64438549D01*
X86493375Y-64389342D01*
X86500548Y-64337239D01*
X86511439Y-64308847D01*
X86787241Y-64308847D01*
X86790536Y-64340545D01*
X86817810Y-64383283D01*
X86826792Y-64391294D01*
X86872730Y-64410571D01*
X86882476Y-64411285D01*
X86930587Y-64396927D01*
X86957335Y-64379529D01*
X86998633Y-64348224D01*
X87091376Y-64255481D01*
X86947685Y-64111790D01*
X86850969Y-64208505D01*
X86840167Y-64219629D01*
X86806947Y-64260572D01*
X86787241Y-64308847D01*
X86511439Y-64308847D01*
X86519720Y-64287259D01*
X86524531Y-64278223D01*
X86552528Y-64234589D01*
X86586130Y-64191720D01*
X86622261Y-64151057D01*
X86658230Y-64113862D01*
X87024884Y-63747208D01*
X87732287Y-64454611D01*
G37*
G36*
X86210231Y-64561861D02*
G01*
X85740471Y-65031621D01*
X85906269Y-65197418D01*
X86224393Y-64879294D01*
X86341487Y-64962193D01*
X86293907Y-64980241D01*
X86250989Y-65002261D01*
X86210267Y-65029777D01*
X86178626Y-65057699D01*
X86142210Y-65098621D01*
X86113141Y-65141205D01*
X86091418Y-65185454D01*
X86075361Y-65239180D01*
X86069303Y-65295170D01*
X86072946Y-65350765D01*
X86086143Y-65403153D01*
X86108893Y-65452334D01*
X86141197Y-65498310D01*
X86163946Y-65523141D01*
X86204711Y-65558470D01*
X86250067Y-65587513D01*
X86300012Y-65610273D01*
X86329743Y-65620202D01*
X86378295Y-65630975D01*
X86432761Y-65634372D01*
X86487063Y-65628534D01*
X86523174Y-65619511D01*
X86571315Y-65600384D01*
X86619716Y-65572708D01*
X86662279Y-65541479D01*
X86705041Y-65503704D01*
X86717295Y-65491709D01*
X86754267Y-65452578D01*
X86785911Y-65414459D01*
X86814822Y-65373289D01*
X86824545Y-65357171D01*
X86846350Y-65313423D01*
X86862456Y-65266116D01*
X86869276Y-65230923D01*
X86872396Y-65181404D01*
X86868297Y-65130308D01*
X86864958Y-65112620D01*
X86850836Y-65065307D01*
X86830666Y-65018850D01*
X86815737Y-64990517D01*
X86595883Y-65170994D01*
X86619764Y-65215040D01*
X86628194Y-65264812D01*
X86627833Y-65270991D01*
X86614034Y-65319828D01*
X86586557Y-65357171D01*
X86544862Y-65386571D01*
X86497171Y-65397376D01*
X86490360Y-65397412D01*
X86442205Y-65386092D01*
X86400772Y-65359814D01*
X86380001Y-65340937D01*
X86347753Y-65302240D01*
X86327217Y-65257455D01*
X86324044Y-65230405D01*
X86334482Y-65182034D01*
X86361891Y-65140174D01*
X86369984Y-65131617D01*
X86410003Y-65101448D01*
X86438030Y-65088786D01*
X86486741Y-65079124D01*
X86514711Y-65078079D01*
X86661338Y-64887930D01*
X86210231Y-64561861D01*
G37*
G36*
X98654919Y-84614581D02*
G01*
X98364270Y-84614581D01*
X97984961Y-85178293D01*
X97984961Y-84614581D01*
X97691870Y-84614581D01*
X97691870Y-85615000D01*
X97984961Y-85615000D01*
X98362316Y-85054218D01*
X98362316Y-85615000D01*
X98654919Y-85615000D01*
X98654919Y-84614581D01*
G37*
G36*
X97563398Y-85130422D02*
G01*
X97156733Y-85130422D01*
X97156733Y-85349263D01*
X97563398Y-85349263D01*
X97563398Y-85130422D01*
G37*
G36*
X97021179Y-85615000D02*
G01*
X96708792Y-85615000D01*
X96708792Y-85208579D01*
X96681193Y-85208579D01*
X96650555Y-85211842D01*
X96604989Y-85231782D01*
X96574996Y-85264979D01*
X96548569Y-85308963D01*
X96382484Y-85615000D01*
X96030774Y-85615000D01*
X96181228Y-85327526D01*
X96195005Y-85304525D01*
X96224947Y-85264511D01*
X96240227Y-85245765D01*
X96274528Y-85210778D01*
X96307501Y-85192154D01*
X96355617Y-85173408D01*
X96342871Y-85170405D01*
X96293640Y-85155701D01*
X96246440Y-85133841D01*
X96216856Y-85113615D01*
X96178777Y-85077951D01*
X96148255Y-85035900D01*
X96127813Y-84991711D01*
X96115857Y-84942097D01*
X96114156Y-84917930D01*
X96424982Y-84917930D01*
X96425669Y-84929946D01*
X96444521Y-84976060D01*
X96450908Y-84983457D01*
X96495080Y-85007323D01*
X96526296Y-85013935D01*
X96577634Y-85021001D01*
X96708792Y-85021001D01*
X96708792Y-84817791D01*
X96572016Y-84817791D01*
X96556512Y-84818018D01*
X96504071Y-84823480D01*
X96456001Y-84843681D01*
X96435917Y-84868424D01*
X96424982Y-84917930D01*
X96114156Y-84917930D01*
X96112351Y-84892285D01*
X96112763Y-84874634D01*
X96118946Y-84824748D01*
X96134516Y-84774712D01*
X96159246Y-84730352D01*
X96191288Y-84692804D01*
X96233202Y-84661034D01*
X96282100Y-84639249D01*
X96291891Y-84636262D01*
X96342542Y-84625205D01*
X96396615Y-84618652D01*
X96450916Y-84615448D01*
X96502651Y-84614581D01*
X97021179Y-84614581D01*
X97021179Y-85615000D01*
G37*
G36*
X113595187Y-80815000D02*
G01*
X113282800Y-80815000D01*
X113282800Y-80408579D01*
X113255201Y-80408579D01*
X113224564Y-80411842D01*
X113178997Y-80431782D01*
X113149004Y-80464979D01*
X113122577Y-80508963D01*
X112956492Y-80815000D01*
X112604782Y-80815000D01*
X112755236Y-80527526D01*
X112769014Y-80504525D01*
X112798955Y-80464511D01*
X112814236Y-80445765D01*
X112848537Y-80410778D01*
X112881509Y-80392154D01*
X112929625Y-80373408D01*
X112916879Y-80370405D01*
X112867649Y-80355701D01*
X112820449Y-80333841D01*
X112790865Y-80313615D01*
X112752786Y-80277951D01*
X112722263Y-80235900D01*
X112701822Y-80191711D01*
X112689865Y-80142097D01*
X112688164Y-80117930D01*
X112998990Y-80117930D01*
X112999677Y-80129946D01*
X113018530Y-80176060D01*
X113024916Y-80183457D01*
X113069088Y-80207323D01*
X113100305Y-80213935D01*
X113151642Y-80221001D01*
X113282800Y-80221001D01*
X113282800Y-80017791D01*
X113146024Y-80017791D01*
X113130520Y-80018018D01*
X113078079Y-80023480D01*
X113030009Y-80043681D01*
X113009925Y-80068424D01*
X112998990Y-80117930D01*
X112688164Y-80117930D01*
X112686359Y-80092285D01*
X112686771Y-80074634D01*
X112692954Y-80024748D01*
X112708524Y-79974712D01*
X112733254Y-79930352D01*
X112765296Y-79892804D01*
X112807210Y-79861034D01*
X112856108Y-79839249D01*
X112865900Y-79836262D01*
X112916550Y-79825205D01*
X112970623Y-79818652D01*
X113024925Y-79815448D01*
X113076659Y-79814581D01*
X113595187Y-79814581D01*
X113595187Y-80815000D01*
G37*
G36*
X70303453Y-123615000D02*
G01*
X69991066Y-123615000D01*
X69991066Y-123208579D01*
X69963467Y-123208579D01*
X69932830Y-123211842D01*
X69887263Y-123231782D01*
X69857270Y-123264979D01*
X69830843Y-123308963D01*
X69664758Y-123615000D01*
X69313048Y-123615000D01*
X69463502Y-123327526D01*
X69477280Y-123304525D01*
X69507221Y-123264511D01*
X69522502Y-123245765D01*
X69556803Y-123210778D01*
X69589775Y-123192154D01*
X69637891Y-123173408D01*
X69625145Y-123170405D01*
X69575915Y-123155701D01*
X69528715Y-123133841D01*
X69499131Y-123113615D01*
X69461052Y-123077951D01*
X69430529Y-123035900D01*
X69410088Y-122991711D01*
X69398131Y-122942097D01*
X69396430Y-122917930D01*
X69707256Y-122917930D01*
X69707943Y-122929946D01*
X69726796Y-122976060D01*
X69733182Y-122983457D01*
X69777354Y-123007323D01*
X69808571Y-123013935D01*
X69859908Y-123021001D01*
X69991066Y-123021001D01*
X69991066Y-122817791D01*
X69854290Y-122817791D01*
X69838786Y-122818018D01*
X69786345Y-122823480D01*
X69738275Y-122843681D01*
X69718191Y-122868424D01*
X69707256Y-122917930D01*
X69396430Y-122917930D01*
X69394625Y-122892285D01*
X69395037Y-122874634D01*
X69401220Y-122824748D01*
X69416790Y-122774712D01*
X69441520Y-122730352D01*
X69473562Y-122692804D01*
X69515476Y-122661034D01*
X69564374Y-122639249D01*
X69574166Y-122636262D01*
X69624816Y-122625205D01*
X69678889Y-122618652D01*
X69733191Y-122615448D01*
X69784925Y-122614581D01*
X70303453Y-122614581D01*
X70303453Y-123615000D01*
G37*
G36*
X68445742Y-123615000D02*
G01*
X69285204Y-123615000D01*
X69276095Y-123560681D01*
X69261376Y-123507789D01*
X69241046Y-123456323D01*
X69215107Y-123406283D01*
X69197766Y-123378328D01*
X69165789Y-123335409D01*
X69132267Y-123297741D01*
X69092497Y-123258344D01*
X69056181Y-123225581D01*
X69015866Y-123191711D01*
X68971551Y-123156735D01*
X68923237Y-123120652D01*
X68880200Y-123088475D01*
X68837892Y-123054798D01*
X68799958Y-123021406D01*
X68765944Y-122984364D01*
X68741225Y-122941703D01*
X68731506Y-122895949D01*
X68743475Y-122846737D01*
X68765456Y-122818524D01*
X68809213Y-122792652D01*
X68850941Y-122786528D01*
X68899728Y-122795198D01*
X68938624Y-122821210D01*
X68965568Y-122865088D01*
X68980091Y-122916883D01*
X68984297Y-122942843D01*
X69264688Y-122919640D01*
X69256113Y-122870518D01*
X69243107Y-122820475D01*
X69224388Y-122771950D01*
X69204116Y-122735725D01*
X69173132Y-122697386D01*
X69135136Y-122665105D01*
X69090128Y-122638882D01*
X69080285Y-122634364D01*
X69030353Y-122617245D01*
X68977795Y-122606731D01*
X68925496Y-122601163D01*
X68875979Y-122599088D01*
X68858512Y-122598949D01*
X68805492Y-122600117D01*
X68749453Y-122604431D01*
X68699678Y-122611925D01*
X68650463Y-122624381D01*
X68628924Y-122632166D01*
X68580939Y-122656233D01*
X68539871Y-122687216D01*
X68505720Y-122725117D01*
X68499719Y-122733527D01*
X68474861Y-122777891D01*
X68459209Y-122825500D01*
X68452765Y-122876352D01*
X68452581Y-122886912D01*
X68456850Y-122936989D01*
X68469659Y-122985830D01*
X68491008Y-123033434D01*
X68506558Y-123059347D01*
X68539058Y-123101509D01*
X68576536Y-123140054D01*
X68615376Y-123174321D01*
X68660416Y-123209721D01*
X68702685Y-123240087D01*
X68745797Y-123269648D01*
X68786472Y-123298381D01*
X68815770Y-123320443D01*
X68853031Y-123352700D01*
X68882692Y-123380526D01*
X68445742Y-123380526D01*
X68445742Y-123615000D01*
G37*
G36*
X93064377Y-115536344D02*
G01*
X92295012Y-115536344D01*
X92295012Y-115770817D01*
X92751990Y-115770817D01*
X92751990Y-115927132D01*
X92361690Y-115927132D01*
X92361690Y-116130342D01*
X92751990Y-116130342D01*
X92751990Y-116536763D01*
X93064377Y-116536763D01*
X93064377Y-115536344D01*
G37*
G36*
X92132102Y-116536763D02*
G01*
X91595012Y-116536763D01*
X91559257Y-116534770D01*
X91509042Y-116529444D01*
X91455549Y-116522596D01*
X91431797Y-116518998D01*
X91382773Y-116507784D01*
X91337335Y-116488647D01*
X91300422Y-116462667D01*
X91265879Y-116428029D01*
X91237684Y-116387042D01*
X91218493Y-116345320D01*
X91205592Y-116295790D01*
X91201292Y-116242450D01*
X91201743Y-116224199D01*
X91205268Y-116197509D01*
X91513190Y-116197509D01*
X91518632Y-116233220D01*
X91546163Y-116273957D01*
X91562856Y-116284997D01*
X91609846Y-116298942D01*
X91659492Y-116302289D01*
X91818250Y-116302289D01*
X91818250Y-116099079D01*
X91660224Y-116099079D01*
X91640540Y-116099503D01*
X91590737Y-116105857D01*
X91545919Y-116126190D01*
X91525975Y-116148813D01*
X91513190Y-116197509D01*
X91205268Y-116197509D01*
X91208505Y-116173001D01*
X91225535Y-116122368D01*
X91252583Y-116078319D01*
X91273752Y-116055212D01*
X91313105Y-116025607D01*
X91361576Y-116002069D01*
X91412318Y-115986239D01*
X91386775Y-115976762D01*
X91342903Y-115954254D01*
X91303874Y-115922003D01*
X91297131Y-115914276D01*
X91269940Y-115872807D01*
X91253625Y-115826616D01*
X91253300Y-115823573D01*
X91553002Y-115823573D01*
X91555262Y-115846032D01*
X91581578Y-115889030D01*
X91583407Y-115890413D01*
X91631098Y-115907792D01*
X91682939Y-115911501D01*
X91818250Y-115911501D01*
X91818250Y-115739554D01*
X91680741Y-115739554D01*
X91676370Y-115739576D01*
X91627019Y-115743808D01*
X91581578Y-115761780D01*
X91567764Y-115775654D01*
X91553002Y-115823573D01*
X91253300Y-115823573D01*
X91248187Y-115775702D01*
X91250926Y-115738751D01*
X91265306Y-115687638D01*
X91292013Y-115641704D01*
X91326100Y-115605220D01*
X91346636Y-115589077D01*
X91394049Y-115563249D01*
X91442474Y-115547711D01*
X91497373Y-115538765D01*
X91549582Y-115536344D01*
X92132102Y-115536344D01*
X92132102Y-116536763D01*
G37*
G36*
X110769957Y-80815000D02*
G01*
X110457570Y-80815000D01*
X110457570Y-80408579D01*
X110429971Y-80408579D01*
X110399334Y-80411842D01*
X110353767Y-80431782D01*
X110323774Y-80464979D01*
X110297347Y-80508963D01*
X110131262Y-80815000D01*
X109779552Y-80815000D01*
X109930006Y-80527526D01*
X109943784Y-80504525D01*
X109973725Y-80464511D01*
X109989006Y-80445765D01*
X110023307Y-80410778D01*
X110056279Y-80392154D01*
X110104395Y-80373408D01*
X110091649Y-80370405D01*
X110042419Y-80355701D01*
X109995219Y-80333841D01*
X109965635Y-80313615D01*
X109927556Y-80277951D01*
X109897033Y-80235900D01*
X109876592Y-80191711D01*
X109864635Y-80142097D01*
X109862934Y-80117930D01*
X110173760Y-80117930D01*
X110174447Y-80129946D01*
X110193300Y-80176060D01*
X110199686Y-80183457D01*
X110243858Y-80207323D01*
X110275075Y-80213935D01*
X110326412Y-80221001D01*
X110457570Y-80221001D01*
X110457570Y-80017791D01*
X110320794Y-80017791D01*
X110305290Y-80018018D01*
X110252849Y-80023480D01*
X110204779Y-80043681D01*
X110184695Y-80068424D01*
X110173760Y-80117930D01*
X109862934Y-80117930D01*
X109861129Y-80092285D01*
X109861541Y-80074634D01*
X109867724Y-80024748D01*
X109883294Y-79974712D01*
X109908024Y-79930352D01*
X109940066Y-79892804D01*
X109981980Y-79861034D01*
X110030878Y-79839249D01*
X110040670Y-79836262D01*
X110091320Y-79825205D01*
X110145393Y-79818652D01*
X110199695Y-79815448D01*
X110251429Y-79814581D01*
X110769957Y-79814581D01*
X110769957Y-80815000D01*
G37*
G36*
X109097138Y-79798949D02*
G01*
X109097138Y-80815000D01*
X109380215Y-80815000D01*
X109380215Y-80149682D01*
X109422681Y-80180980D01*
X109464288Y-80208319D01*
X109509064Y-80233819D01*
X109513083Y-80235900D01*
X109561084Y-80258251D01*
X109611383Y-80278019D01*
X109662076Y-80295362D01*
X109674039Y-80299159D01*
X109674039Y-80064685D01*
X109622708Y-80047097D01*
X109575877Y-80028221D01*
X109526926Y-80004570D01*
X109484100Y-79979167D01*
X109452267Y-79955997D01*
X109414959Y-79922277D01*
X109381925Y-79884862D01*
X109353165Y-79843753D01*
X109328680Y-79798949D01*
X109097138Y-79798949D01*
G37*
G36*
X107979238Y-80815000D02*
G01*
X108818701Y-80815000D01*
X108809591Y-80760681D01*
X108794872Y-80707789D01*
X108774542Y-80656323D01*
X108748603Y-80606283D01*
X108731262Y-80578328D01*
X108699285Y-80535409D01*
X108665764Y-80497741D01*
X108625993Y-80458344D01*
X108589677Y-80425581D01*
X108549362Y-80391711D01*
X108505047Y-80356735D01*
X108456733Y-80320652D01*
X108413697Y-80288475D01*
X108371388Y-80254798D01*
X108333454Y-80221406D01*
X108299440Y-80184364D01*
X108274722Y-80141703D01*
X108265002Y-80095949D01*
X108276971Y-80046737D01*
X108298952Y-80018524D01*
X108342710Y-79992652D01*
X108384437Y-79986528D01*
X108433225Y-79995198D01*
X108472120Y-80021210D01*
X108499064Y-80065088D01*
X108513587Y-80116883D01*
X108517794Y-80142843D01*
X108798184Y-80119640D01*
X108789609Y-80070518D01*
X108776603Y-80020475D01*
X108757884Y-79971950D01*
X108737612Y-79935725D01*
X108706629Y-79897386D01*
X108668633Y-79865105D01*
X108623624Y-79838882D01*
X108613781Y-79834364D01*
X108563850Y-79817245D01*
X108511292Y-79806731D01*
X108458992Y-79801163D01*
X108409476Y-79799088D01*
X108392009Y-79798949D01*
X108338989Y-79800117D01*
X108282949Y-79804431D01*
X108233174Y-79811925D01*
X108183959Y-79824381D01*
X108162420Y-79832166D01*
X108114435Y-79856233D01*
X108073367Y-79887216D01*
X108039216Y-79925117D01*
X108033216Y-79933527D01*
X108008357Y-79977891D01*
X107992706Y-80025500D01*
X107986261Y-80076352D01*
X107986077Y-80086912D01*
X107990347Y-80136989D01*
X108003156Y-80185830D01*
X108024504Y-80233434D01*
X108040055Y-80259347D01*
X108072554Y-80301509D01*
X108110032Y-80340054D01*
X108148873Y-80374321D01*
X108193913Y-80409721D01*
X108236182Y-80440087D01*
X108279293Y-80469648D01*
X108319968Y-80498381D01*
X108349266Y-80520443D01*
X108386527Y-80552700D01*
X108416189Y-80580526D01*
X107979238Y-80580526D01*
X107979238Y-80815000D01*
G37*
G36*
X67915000Y-73142429D02*
G01*
X67508579Y-73142429D01*
X67508579Y-73170028D01*
X67511842Y-73200665D01*
X67531782Y-73246232D01*
X67564979Y-73276225D01*
X67608963Y-73302652D01*
X67915000Y-73468737D01*
X67915000Y-73820447D01*
X67627526Y-73669993D01*
X67604525Y-73656215D01*
X67564511Y-73626274D01*
X67545765Y-73610993D01*
X67510778Y-73576692D01*
X67492154Y-73543720D01*
X67473408Y-73495604D01*
X67470405Y-73508350D01*
X67455701Y-73557580D01*
X67433841Y-73604780D01*
X67413615Y-73634364D01*
X67377951Y-73672443D01*
X67335900Y-73702966D01*
X67291711Y-73723407D01*
X67242097Y-73735364D01*
X67192285Y-73738870D01*
X67174634Y-73738458D01*
X67124748Y-73732275D01*
X67074712Y-73716705D01*
X67030352Y-73691975D01*
X66992804Y-73659933D01*
X66961034Y-73618019D01*
X66939249Y-73569121D01*
X66936262Y-73559329D01*
X66925205Y-73508679D01*
X66918652Y-73454606D01*
X66915448Y-73400304D01*
X66914581Y-73348570D01*
X66914581Y-73142429D01*
X67117791Y-73142429D01*
X67117791Y-73279205D01*
X67118018Y-73294709D01*
X67123480Y-73347150D01*
X67143681Y-73395220D01*
X67168424Y-73415304D01*
X67217930Y-73426239D01*
X67229946Y-73425552D01*
X67276060Y-73406699D01*
X67283457Y-73400313D01*
X67307323Y-73356141D01*
X67313935Y-73324924D01*
X67321001Y-73273587D01*
X67321001Y-73142429D01*
X67117791Y-73142429D01*
X66914581Y-73142429D01*
X66914581Y-72830042D01*
X67915000Y-72830042D01*
X67915000Y-73142429D01*
G37*
G36*
X66898949Y-74502861D02*
G01*
X67915000Y-74502861D01*
X67915000Y-74219784D01*
X67249682Y-74219784D01*
X67280980Y-74177318D01*
X67308319Y-74135711D01*
X67333819Y-74090935D01*
X67335900Y-74086916D01*
X67358251Y-74038915D01*
X67378019Y-73988616D01*
X67395362Y-73937923D01*
X67399159Y-73925960D01*
X67164685Y-73925960D01*
X67147097Y-73977291D01*
X67128221Y-74024122D01*
X67104570Y-74073073D01*
X67079167Y-74115899D01*
X67055997Y-74147732D01*
X67022277Y-74185040D01*
X66984862Y-74218074D01*
X66943753Y-74246834D01*
X66898949Y-74271319D01*
X66898949Y-74502861D01*
G37*
G36*
X67417854Y-74801834D02*
G01*
X67467272Y-74803082D01*
X67521402Y-74806883D01*
X67573029Y-74813218D01*
X67622152Y-74822087D01*
X67628082Y-74823370D01*
X67677904Y-74836331D01*
X67725784Y-74853724D01*
X67772850Y-74878751D01*
X67796139Y-74895090D01*
X67833491Y-74927985D01*
X67864970Y-74965363D01*
X67890575Y-75007223D01*
X67893040Y-75012170D01*
X67911698Y-75060971D01*
X67922964Y-75110804D01*
X67928714Y-75159392D01*
X67930631Y-75212631D01*
X67930140Y-75240440D01*
X67926209Y-75292922D01*
X67915768Y-75352642D01*
X67899185Y-75405827D01*
X67876460Y-75452477D01*
X67847593Y-75492591D01*
X67804846Y-75532101D01*
X67779936Y-75548687D01*
X67732733Y-75572706D01*
X67678423Y-75592193D01*
X67629856Y-75604520D01*
X67576741Y-75613946D01*
X67519077Y-75620472D01*
X67456864Y-75624097D01*
X67407219Y-75624913D01*
X67377081Y-75624474D01*
X67325057Y-75621594D01*
X67273945Y-75616026D01*
X67223744Y-75607769D01*
X67174455Y-75596825D01*
X67167215Y-75594987D01*
X67119684Y-75580033D01*
X67072117Y-75558479D01*
X67069374Y-75556981D01*
X67026578Y-75528344D01*
X66988342Y-75493510D01*
X66971649Y-75474390D01*
X66944493Y-75432679D01*
X66923862Y-75387020D01*
X66919410Y-75374473D01*
X66906832Y-75322994D01*
X66900920Y-75274477D01*
X66898949Y-75220203D01*
X66899112Y-75210677D01*
X67086528Y-75210677D01*
X67089800Y-75238854D01*
X67113242Y-75282500D01*
X67154916Y-75312771D01*
X67203525Y-75329182D01*
X67255544Y-75338233D01*
X67310029Y-75343405D01*
X67362412Y-75345892D01*
X67421140Y-75346720D01*
X67461678Y-75346357D01*
X67512560Y-75344625D01*
X67567916Y-75340304D01*
X67620198Y-75331822D01*
X67624149Y-75330889D01*
X67672448Y-75314434D01*
X67713499Y-75285904D01*
X67731508Y-75260877D01*
X67743053Y-75212143D01*
X67740605Y-75188953D01*
X67715861Y-75143258D01*
X67673443Y-75113468D01*
X67624763Y-75097057D01*
X67573731Y-75088006D01*
X67520817Y-75082834D01*
X67470255Y-75080348D01*
X67413813Y-75079519D01*
X67357934Y-75080270D01*
X67307839Y-75082524D01*
X67255361Y-75087212D01*
X67204662Y-75095417D01*
X67156137Y-75110293D01*
X67132481Y-75123274D01*
X67098016Y-75160647D01*
X67086528Y-75210677D01*
X66899112Y-75210677D01*
X66899394Y-75194185D01*
X66902951Y-75144680D01*
X66912398Y-75087543D01*
X66927404Y-75035677D01*
X66947966Y-74989083D01*
X66974086Y-74947759D01*
X67012766Y-74905129D01*
X67043827Y-74880915D01*
X67090156Y-74855187D01*
X67144821Y-74834504D01*
X67194555Y-74821590D01*
X67249624Y-74811904D01*
X67310028Y-74805447D01*
X67358833Y-74802723D01*
X67410638Y-74801815D01*
X67417854Y-74801834D01*
G37*
G36*
X99319114Y-94528755D02*
G01*
X99369329Y-94534081D01*
X99422821Y-94540929D01*
X99446573Y-94544527D01*
X99495597Y-94555741D01*
X99541035Y-94574878D01*
X99577948Y-94600858D01*
X99612492Y-94635496D01*
X99640686Y-94676483D01*
X99659877Y-94718205D01*
X99672778Y-94767735D01*
X99677078Y-94821075D01*
X99676627Y-94839326D01*
X99669865Y-94890524D01*
X99652835Y-94941157D01*
X99625787Y-94985206D01*
X99604618Y-95008313D01*
X99565266Y-95037918D01*
X99516794Y-95061456D01*
X99466052Y-95077286D01*
X99491595Y-95086763D01*
X99535467Y-95109271D01*
X99574496Y-95141522D01*
X99581240Y-95149249D01*
X99608431Y-95190718D01*
X99624745Y-95236909D01*
X99630184Y-95287823D01*
X99627444Y-95324774D01*
X99613064Y-95375887D01*
X99586357Y-95421821D01*
X99552270Y-95458305D01*
X99531735Y-95474448D01*
X99484321Y-95500276D01*
X99435897Y-95515814D01*
X99380998Y-95524760D01*
X99328788Y-95527181D01*
X98746269Y-95527181D01*
X98746269Y-95152024D01*
X99060121Y-95152024D01*
X99060121Y-95323971D01*
X99197629Y-95323971D01*
X99202000Y-95323949D01*
X99251351Y-95319717D01*
X99296792Y-95301745D01*
X99310606Y-95287871D01*
X99325369Y-95239952D01*
X99323108Y-95217493D01*
X99296792Y-95174495D01*
X99294963Y-95173112D01*
X99247273Y-95155733D01*
X99195431Y-95152024D01*
X99060121Y-95152024D01*
X98746269Y-95152024D01*
X98746269Y-94761236D01*
X99060121Y-94761236D01*
X99060121Y-94964446D01*
X99218146Y-94964446D01*
X99237830Y-94964022D01*
X99287633Y-94957668D01*
X99332452Y-94937335D01*
X99352395Y-94914712D01*
X99365180Y-94866016D01*
X99359738Y-94830305D01*
X99332207Y-94789568D01*
X99315514Y-94778528D01*
X99268524Y-94764583D01*
X99218879Y-94761236D01*
X99060121Y-94761236D01*
X98746269Y-94761236D01*
X98746269Y-94526763D01*
X99283359Y-94526763D01*
X99319114Y-94528755D01*
G37*
G36*
X99763052Y-95527181D02*
G01*
X100709004Y-95527181D01*
X100709004Y-95292708D01*
X100391733Y-95292708D01*
X100391733Y-94526763D01*
X100080567Y-94526763D01*
X100080567Y-95292708D01*
X99763052Y-95292708D01*
X99763052Y-95527181D01*
G37*
G36*
X101617588Y-94526763D02*
G01*
X100778125Y-94526763D01*
X100787234Y-94581081D01*
X100801954Y-94633973D01*
X100822283Y-94685439D01*
X100848223Y-94735479D01*
X100865564Y-94763434D01*
X100897541Y-94806353D01*
X100931062Y-94844021D01*
X100970833Y-94883418D01*
X101007148Y-94916181D01*
X101047464Y-94950051D01*
X101091779Y-94985027D01*
X101140093Y-95021110D01*
X101183129Y-95053287D01*
X101225438Y-95086964D01*
X101263372Y-95120356D01*
X101297385Y-95157398D01*
X101322104Y-95200059D01*
X101331823Y-95245813D01*
X101319855Y-95295025D01*
X101297874Y-95323238D01*
X101254116Y-95349110D01*
X101212389Y-95355234D01*
X101163601Y-95346564D01*
X101124706Y-95320552D01*
X101097761Y-95276674D01*
X101083238Y-95224879D01*
X101079032Y-95198919D01*
X100798641Y-95222122D01*
X100807217Y-95271244D01*
X100820223Y-95321287D01*
X100838941Y-95369812D01*
X100859214Y-95406037D01*
X100890197Y-95444376D01*
X100928193Y-95476657D01*
X100973202Y-95502880D01*
X100983045Y-95507398D01*
X101032976Y-95524517D01*
X101085534Y-95535031D01*
X101137834Y-95540599D01*
X101187350Y-95542674D01*
X101204817Y-95542813D01*
X101257837Y-95541645D01*
X101313876Y-95537331D01*
X101363651Y-95529837D01*
X101412866Y-95517381D01*
X101434405Y-95509596D01*
X101482391Y-95485529D01*
X101523459Y-95454546D01*
X101557610Y-95416645D01*
X101563610Y-95408235D01*
X101588468Y-95363871D01*
X101604120Y-95316262D01*
X101610565Y-95265410D01*
X101610749Y-95254850D01*
X101606479Y-95204773D01*
X101593670Y-95155932D01*
X101572321Y-95108328D01*
X101556771Y-95082415D01*
X101524272Y-95040253D01*
X101486793Y-95001708D01*
X101447953Y-94967441D01*
X101402913Y-94932041D01*
X101360644Y-94901675D01*
X101317533Y-94872114D01*
X101276857Y-94843381D01*
X101247560Y-94821319D01*
X101210299Y-94789062D01*
X101180637Y-94761236D01*
X101617588Y-94761236D01*
X101617588Y-94526763D01*
G37*
G36*
X83533499Y-100025653D02*
G01*
X84322647Y-100025653D01*
X84322647Y-100822862D01*
X84988697Y-100822862D01*
X84988697Y-100025653D01*
X85782242Y-100025653D01*
X85782242Y-99369128D01*
X84988697Y-99369128D01*
X84988697Y-98571920D01*
X84322647Y-98571920D01*
X84322647Y-99369128D01*
X83533499Y-99369128D01*
X83533499Y-100025653D01*
G37*
G36*
X113595187Y-87615000D02*
G01*
X113282800Y-87615000D01*
X113282800Y-87208579D01*
X113255201Y-87208579D01*
X113224564Y-87211842D01*
X113178997Y-87231782D01*
X113149004Y-87264979D01*
X113122577Y-87308963D01*
X112956492Y-87615000D01*
X112604782Y-87615000D01*
X112755236Y-87327526D01*
X112769014Y-87304525D01*
X112798955Y-87264511D01*
X112814236Y-87245765D01*
X112848537Y-87210778D01*
X112881509Y-87192154D01*
X112929625Y-87173408D01*
X112916879Y-87170405D01*
X112867649Y-87155701D01*
X112820449Y-87133841D01*
X112790865Y-87113615D01*
X112752786Y-87077951D01*
X112722263Y-87035900D01*
X112701822Y-86991711D01*
X112689865Y-86942097D01*
X112688164Y-86917930D01*
X112998990Y-86917930D01*
X112999677Y-86929946D01*
X113018530Y-86976060D01*
X113024916Y-86983457D01*
X113069088Y-87007323D01*
X113100305Y-87013935D01*
X113151642Y-87021001D01*
X113282800Y-87021001D01*
X113282800Y-86817791D01*
X113146024Y-86817791D01*
X113130520Y-86818018D01*
X113078079Y-86823480D01*
X113030009Y-86843681D01*
X113009925Y-86868424D01*
X112998990Y-86917930D01*
X112688164Y-86917930D01*
X112686359Y-86892285D01*
X112686771Y-86874634D01*
X112692954Y-86824748D01*
X112708524Y-86774712D01*
X112733254Y-86730352D01*
X112765296Y-86692804D01*
X112807210Y-86661034D01*
X112856108Y-86639249D01*
X112865900Y-86636262D01*
X112916550Y-86625205D01*
X112970623Y-86618652D01*
X113024925Y-86615448D01*
X113076659Y-86614581D01*
X113595187Y-86614581D01*
X113595187Y-87615000D01*
G37*
D11*
%TO.C,BT1*%
X52315238Y-87321763D02*
X52315238Y-102561763D01*
X52315238Y-87321763D02*
X58277897Y-87321763D01*
X52315238Y-102561763D02*
X58277896Y-102561763D01*
X63618238Y-84273762D02*
X63618238Y-86051762D01*
X63618238Y-86051762D02*
X68698238Y-86051762D01*
X63618238Y-103831763D02*
X68698238Y-103831763D01*
X63618238Y-105609763D02*
X63618238Y-103831763D01*
X68698238Y-84273762D02*
X68698238Y-86051762D01*
X68698238Y-105609763D02*
X68698238Y-103831763D01*
X80001239Y-87321763D02*
X74038581Y-87321762D01*
X80001239Y-87321763D02*
X80001239Y-102561763D01*
X80001239Y-102561763D02*
X74038581Y-102561763D01*
X58277898Y-87321764D02*
G75*
G02*
X63619227Y-84277918I7880331J-7619982D01*
G01*
X63619227Y-105605608D02*
G75*
G02*
X58277897Y-102561762I2539002J10663829D01*
G01*
X68697249Y-84277916D02*
G75*
G02*
X74038581Y-87321762I-2539031J-10663883D01*
G01*
X74038581Y-102561763D02*
G75*
G02*
X68697249Y-105605609I-7880346J7620008D01*
G01*
%TO.C,R6*%
X73923237Y-111214699D02*
X73923237Y-111668827D01*
X75393237Y-111214699D02*
X75393237Y-111668827D01*
%TO.C,R7*%
X92564953Y-63995600D02*
X92886070Y-63674483D01*
X93604400Y-65035047D02*
X93925517Y-64713930D01*
%TO.C,C6*%
X66419489Y-110706763D02*
X65896985Y-110706763D01*
X66419489Y-112176763D02*
X65896985Y-112176763D01*
%TO.C,C9*%
X66419489Y-106706763D02*
X65896985Y-106706763D01*
X66419489Y-108176763D02*
X65896985Y-108176763D01*
%TO.C,C10*%
X58923237Y-111180511D02*
X58923237Y-111703015D01*
X60393237Y-111180511D02*
X60393237Y-111703015D01*
%TO.C,R9*%
X91064953Y-62495600D02*
X91386070Y-62174483D01*
X92104400Y-63535047D02*
X92425517Y-63213930D01*
%TO.C,SW6*%
X100148365Y-65209351D02*
X93925825Y-71431891D01*
X91168109Y-68674175D01*
X97390649Y-62451635D01*
X100148365Y-65209351D01*
%TO.C,R13*%
X109181173Y-84206763D02*
X109635301Y-84206763D01*
X109181173Y-85676763D02*
X109635301Y-85676763D01*
%TO.C,R8*%
X66385301Y-104706763D02*
X65931173Y-104706763D01*
X66385301Y-106176763D02*
X65931173Y-106176763D01*
%TO.C,R11*%
X69243237Y-77189699D02*
X69243237Y-77643827D01*
X70713237Y-77189699D02*
X70713237Y-77643827D01*
%TO.C,C8*%
X66419489Y-115206763D02*
X65896985Y-115206763D01*
X66419489Y-116676763D02*
X65896985Y-116676763D01*
%TO.C,N-R*%
X96008237Y-79441763D02*
X98808237Y-79441763D01*
X96008237Y-81441763D02*
X96008237Y-79441763D01*
X98808237Y-79441763D02*
X98808237Y-81441763D01*
X98808237Y-81441763D02*
X96008237Y-81441763D01*
%TO.C,R3*%
X66385301Y-117206763D02*
X65931173Y-117206763D01*
X66385301Y-118676763D02*
X65931173Y-118676763D01*
%TO.C,C7*%
X71923237Y-111180511D02*
X71923237Y-111703015D01*
X73393237Y-111180511D02*
X73393237Y-111703015D01*
%TO.C,R1*%
X66385301Y-119206763D02*
X65931173Y-119206763D01*
X66385301Y-120676763D02*
X65931173Y-120676763D01*
%TO.C,R4*%
X56923237Y-111214699D02*
X56923237Y-111668827D01*
X58393237Y-111214699D02*
X58393237Y-111668827D01*
%TO.C,J2*%
X93849176Y-72925020D02*
X94634065Y-72140131D01*
X94789628Y-73865472D02*
X93849176Y-72925020D01*
X95666441Y-71107755D02*
X101768772Y-65005424D01*
X95751294Y-71192608D02*
X101853625Y-65090276D01*
X95834799Y-71276114D02*
X101937131Y-65173782D01*
X95918305Y-71359619D02*
X102020637Y-65257288D01*
X96001811Y-71443125D02*
X102104143Y-65340794D01*
X96085317Y-71526631D02*
X102187648Y-65424299D01*
X96104847Y-72041136D02*
X96352334Y-71793649D01*
X96168823Y-71610137D02*
X102271154Y-65507805D01*
X96252328Y-71693643D02*
X102354660Y-65591311D01*
X96335834Y-71777148D02*
X102438166Y-65674817D01*
X96419340Y-71860654D02*
X102521671Y-65758323D01*
X96502846Y-71944160D02*
X102605177Y-65841828D01*
X96586351Y-72027666D02*
X102688683Y-65925334D01*
X96613964Y-72550253D02*
X96861451Y-72302766D01*
X96669857Y-72111171D02*
X102772189Y-66008840D01*
X96753363Y-72194677D02*
X102855695Y-66092346D01*
X96836869Y-72278183D02*
X102939200Y-66175851D01*
X96920375Y-72361689D02*
X103022706Y-66259357D01*
X97003880Y-72445195D02*
X103106212Y-66342863D01*
X97087386Y-72528700D02*
X103189718Y-66426369D01*
X97170892Y-72612206D02*
X103273223Y-66509875D01*
X97254398Y-72695712D02*
X103356729Y-66593380D01*
X97337903Y-72779218D02*
X103440235Y-66676886D01*
X97421409Y-72862723D02*
X103523741Y-66760392D01*
X97504919Y-72946233D02*
X103607250Y-66843901D01*
X97858472Y-73879614D02*
X98148386Y-73589700D01*
X98367589Y-74388731D02*
X98657503Y-74098817D01*
X99300970Y-74742284D02*
X105403301Y-68639952D01*
X99654523Y-75675665D02*
X99944437Y-75385751D01*
X100163640Y-76184782D02*
X100453554Y-75894868D01*
X101097021Y-76538335D02*
X107199352Y-70436004D01*
X101450574Y-77471716D02*
X101740488Y-77181802D01*
X101959691Y-77980833D02*
X102249605Y-77690919D01*
X102893072Y-78334386D02*
X108995404Y-72232055D01*
X103246626Y-79267767D02*
X103536539Y-78977854D01*
X103755742Y-79776884D02*
X104045656Y-79486970D01*
X104689123Y-80130438D02*
X110791455Y-74028106D01*
X105042677Y-81063819D02*
X105332591Y-80773905D01*
X105551794Y-81572935D02*
X105841707Y-81283022D01*
X106527601Y-81968915D02*
X95666441Y-71107755D01*
X106527601Y-81968915D02*
X112629933Y-75866584D01*
X112629933Y-75866584D02*
X101768772Y-65005424D01*
%TO.C,R5*%
X88595600Y-61964953D02*
X88274483Y-62286070D01*
X89635047Y-63004400D02*
X89313930Y-63325517D01*
%TO.C,N-R*%
X96008237Y-81941763D02*
X98808237Y-81941763D01*
X96008237Y-83941763D02*
X96008237Y-81941763D01*
X98808237Y-81941763D02*
X98808237Y-83941763D01*
X98808237Y-83941763D02*
X96008237Y-83941763D01*
%TO.C,R*%
X111758237Y-81441763D02*
X114558237Y-81441763D01*
X111758237Y-83441763D02*
X111758237Y-81441763D01*
X114558237Y-81441763D02*
X114558237Y-83441763D01*
X114558237Y-83441763D02*
X111758237Y-83441763D01*
%TO.C,R2*%
X65931173Y-121206763D02*
X66385301Y-121206763D01*
X65931173Y-122676763D02*
X66385301Y-122676763D01*
%TO.C,FB*%
X92321016Y-114181763D02*
X91995458Y-114181763D01*
X92321016Y-115201763D02*
X91995458Y-115201763D01*
%TO.C,R12*%
X109181173Y-81706763D02*
X109635301Y-81706763D01*
X109181173Y-83176763D02*
X109635301Y-83176763D01*
%TO.C,R10*%
X66743237Y-77189699D02*
X66743237Y-77643827D01*
X68213237Y-77189699D02*
X68213237Y-77643827D01*
%TO.C,BT2*%
X86315238Y-87321763D02*
X86315238Y-102561763D01*
X86315238Y-87321763D02*
X92277897Y-87321763D01*
X86315238Y-102561763D02*
X92277896Y-102561763D01*
X97618238Y-84273762D02*
X97618238Y-86051762D01*
X97618238Y-86051762D02*
X102698238Y-86051762D01*
X97618238Y-103831763D02*
X102698238Y-103831763D01*
X97618238Y-105609763D02*
X97618238Y-103831763D01*
X102698238Y-84273762D02*
X102698238Y-86051762D01*
X102698238Y-105609763D02*
X102698238Y-103831763D01*
X114001239Y-87321763D02*
X108038581Y-87321762D01*
X114001239Y-87321763D02*
X114001239Y-102561763D01*
X114001239Y-102561763D02*
X108038581Y-102561763D01*
X92277898Y-87321764D02*
G75*
G02*
X97619227Y-84277918I7880331J-7619982D01*
G01*
X97619227Y-105605608D02*
G75*
G02*
X92277897Y-102561762I2539002J10663829D01*
G01*
X102697249Y-84277916D02*
G75*
G02*
X108038581Y-87321762I-2539031J-10663883D01*
G01*
X108038581Y-102561763D02*
G75*
G02*
X102697249Y-105605609I-7880346J7620008D01*
G01*
%TO.C,R*%
X111758237Y-83941763D02*
X114558237Y-83941763D01*
X111758237Y-85941763D02*
X111758237Y-83941763D01*
X114558237Y-83941763D02*
X114558237Y-85941763D01*
X114558237Y-85941763D02*
X111758237Y-85941763D01*
%TD*%
%LPC*%
D12*
%TO.C,SW5*%
X59658237Y-108191763D03*
X59658237Y-114691763D03*
%TD*%
%TO.C,SW3*%
X72658237Y-108191763D03*
X72658237Y-114691763D03*
%TD*%
D13*
%TO.C,U1*%
X79258237Y-77141763D03*
%TD*%
D14*
%TO.C,U2*%
X69978237Y-80916763D03*
X67438237Y-80916763D03*
X64898237Y-80916763D03*
D15*
X62358237Y-80916763D03*
%TD*%
D16*
%TO.C,U4*%
X90158237Y-112441763D03*
X90158236Y-110441763D03*
X92158236Y-112441763D03*
X92158237Y-110441763D03*
X94158237Y-112441763D03*
X94158237Y-110441762D03*
X96158238Y-112441763D03*
X96158237Y-110441763D03*
%TD*%
D17*
%TO.C,SW2*%
X69408237Y-115941763D03*
X62908237Y-115941763D03*
%TD*%
%TO.C,SW1*%
X69408237Y-111441763D03*
X62908237Y-111441763D03*
%TD*%
%TO.C,SW4*%
X69408237Y-107441763D03*
X62908237Y-107441763D03*
%TD*%
D18*
%TO.C,BT1*%
X50918237Y-94941763D03*
X81398237Y-94941763D03*
%TD*%
D19*
%TO.C,R6*%
X74658237Y-112354263D03*
X74658237Y-110529263D03*
%TD*%
D20*
%TO.C,R7*%
X93890470Y-63709530D03*
X92600000Y-65000000D03*
%TD*%
D21*
%TO.C,C6*%
X65208237Y-111441763D03*
X67108237Y-111441763D03*
%TD*%
%TO.C,C9*%
X65208237Y-107441763D03*
X67108237Y-107441763D03*
%TD*%
D22*
%TO.C,C10*%
X59658237Y-112391763D03*
X59658237Y-110491763D03*
%TD*%
D20*
%TO.C,R9*%
X92390470Y-62209530D03*
X91100000Y-63500000D03*
%TD*%
D23*
%TO.C,SW6*%
X93890470Y-68709530D03*
X95658237Y-66941763D03*
X97426004Y-65173996D03*
%TD*%
D24*
%TO.C,R13*%
X110320737Y-84941763D03*
X108495737Y-84941763D03*
%TD*%
D25*
%TO.C,R8*%
X65245737Y-105441763D03*
X67070737Y-105441763D03*
%TD*%
D19*
%TO.C,R11*%
X69978237Y-78329263D03*
X69978237Y-76504263D03*
%TD*%
D21*
%TO.C,C8*%
X65208237Y-115941763D03*
X67108237Y-115941763D03*
%TD*%
D26*
%TO.C,N-R*%
X98058237Y-80441763D03*
X96758237Y-80441763D03*
%TD*%
D25*
%TO.C,R3*%
X65245737Y-117941763D03*
X67070737Y-117941763D03*
%TD*%
D22*
%TO.C,C7*%
X72658237Y-112391763D03*
X72658237Y-110491763D03*
%TD*%
D25*
%TO.C,R1*%
X65245737Y-119941763D03*
X67070737Y-119941763D03*
%TD*%
D19*
%TO.C,R4*%
X57658237Y-112354263D03*
X57658237Y-110529263D03*
%TD*%
D27*
%TO.C,J2*%
X95574517Y-73080583D03*
D28*
X97370568Y-74876634D03*
X99166619Y-76672685D03*
X100962671Y-78468737D03*
X102758722Y-80264788D03*
X104554773Y-82060839D03*
%TD*%
D29*
%TO.C,R5*%
X88309530Y-63290470D03*
X89600000Y-62000000D03*
%TD*%
D26*
%TO.C,N-R*%
X98058237Y-82941763D03*
X96758237Y-82941763D03*
%TD*%
%TO.C,R*%
X113808237Y-82441763D03*
X112508237Y-82441763D03*
%TD*%
D24*
%TO.C,R2*%
X67070737Y-121941763D03*
X65245737Y-121941763D03*
%TD*%
D30*
%TO.C,FB*%
X91370737Y-114691763D03*
X92945737Y-114691763D03*
%TD*%
D24*
%TO.C,R12*%
X110320737Y-82441763D03*
X108495737Y-82441763D03*
%TD*%
D19*
%TO.C,R10*%
X67478237Y-78329263D03*
X67478237Y-76504263D03*
%TD*%
D18*
%TO.C,BT2*%
X84918237Y-94941763D03*
X115398237Y-94941763D03*
%TD*%
D26*
%TO.C,R*%
X113808237Y-84941763D03*
X112508237Y-84941763D03*
%TD*%
%LPD*%
M02*
