%TF.GenerationSoftware,KiCad,Pcbnew,8.0.1*%
%TF.CreationDate,2024-06-30T14:52:12+09:00*%
%TF.ProjectId,main,6d61696e-2e6b-4696-9361-645f70636258,rev?*%
%TF.SameCoordinates,Original*%
%TF.FileFunction,Copper,L1,Top*%
%TF.FilePolarity,Positive*%
%FSLAX46Y46*%
G04 Gerber Fmt 4.6, Leading zero omitted, Abs format (unit mm)*
G04 Created by KiCad (PCBNEW 8.0.1) date 2024-06-30 14:52:12*
%MOMM*%
%LPD*%
G01*
G04 APERTURE LIST*
G04 Aperture macros list*
%AMRoundRect*
0 Rectangle with rounded corners*
0 $1 Rounding radius*
0 $2 $3 $4 $5 $6 $7 $8 $9 X,Y pos of 4 corners*
0 Add a 4 corners polygon primitive as box body*
4,1,4,$2,$3,$4,$5,$6,$7,$8,$9,$2,$3,0*
0 Add four circle primitives for the rounded corners*
1,1,$1+$1,$2,$3*
1,1,$1+$1,$4,$5*
1,1,$1+$1,$6,$7*
1,1,$1+$1,$8,$9*
0 Add four rect primitives between the rounded corners*
20,1,$1+$1,$2,$3,$4,$5,0*
20,1,$1+$1,$4,$5,$6,$7,0*
20,1,$1+$1,$6,$7,$8,$9,0*
20,1,$1+$1,$8,$9,$2,$3,0*%
G04 Aperture macros list end*
%TA.AperFunction,SMDPad,CuDef*%
%ADD10RoundRect,0.350000X-0.350000X-0.350000X0.350000X-0.350000X0.350000X0.350000X-0.350000X0.350000X0*%
%TD*%
%TA.AperFunction,SMDPad,CuDef*%
%ADD11RoundRect,0.375000X-0.375000X0.625000X-0.375000X-0.625000X0.375000X-0.625000X0.375000X0.625000X0*%
%TD*%
%TA.AperFunction,SMDPad,CuDef*%
%ADD12RoundRect,0.500000X-1.400000X0.500000X-1.400000X-0.500000X1.400000X-0.500000X1.400000X0.500000X0*%
%TD*%
%TA.AperFunction,SMDPad,CuDef*%
%ADD13RoundRect,0.250000X0.475000X-0.250000X0.475000X0.250000X-0.475000X0.250000X-0.475000X-0.250000X0*%
%TD*%
%TA.AperFunction,ComponentPad*%
%ADD14R,1.000000X1.000000*%
%TD*%
%TA.AperFunction,ComponentPad*%
%ADD15O,1.000000X1.000000*%
%TD*%
%TA.AperFunction,SMDPad,CuDef*%
%ADD16RoundRect,0.250000X-0.450000X0.262500X-0.450000X-0.262500X0.450000X-0.262500X0.450000X0.262500X0*%
%TD*%
%TA.AperFunction,SMDPad,CuDef*%
%ADD17RoundRect,0.250000X0.262500X0.450000X-0.262500X0.450000X-0.262500X-0.450000X0.262500X-0.450000X0*%
%TD*%
%TA.AperFunction,ComponentPad*%
%ADD18O,1.400000X2.100000*%
%TD*%
%TA.AperFunction,SMDPad,CuDef*%
%ADD19RoundRect,0.243750X-0.243750X-0.456250X0.243750X-0.456250X0.243750X0.456250X-0.243750X0.456250X0*%
%TD*%
%TA.AperFunction,SMDPad,CuDef*%
%ADD20RoundRect,0.250000X-0.250000X-0.475000X0.250000X-0.475000X0.250000X0.475000X-0.250000X0.475000X0*%
%TD*%
%TA.AperFunction,SMDPad,CuDef*%
%ADD21RoundRect,0.250000X-0.262500X-0.450000X0.262500X-0.450000X0.262500X0.450000X-0.262500X0.450000X0*%
%TD*%
%TA.AperFunction,ComponentPad*%
%ADD22O,2.100000X1.400000*%
%TD*%
%TA.AperFunction,SMDPad,CuDef*%
%ADD23RoundRect,0.250000X0.450000X-0.262500X0.450000X0.262500X-0.450000X0.262500X-0.450000X-0.262500X0*%
%TD*%
%TA.AperFunction,SMDPad,CuDef*%
%ADD24RoundRect,0.250000X-0.475000X0.250000X-0.475000X-0.250000X0.475000X-0.250000X0.475000X0.250000X0*%
%TD*%
%TA.AperFunction,ComponentPad*%
%ADD25R,1.350000X1.350000*%
%TD*%
%TA.AperFunction,ComponentPad*%
%ADD26C,1.350000*%
%TD*%
%TA.AperFunction,ComponentPad*%
%ADD27R,1.700000X1.700000*%
%TD*%
%TA.AperFunction,ComponentPad*%
%ADD28O,1.700000X1.700000*%
%TD*%
%TA.AperFunction,SMDPad,CuDef*%
%ADD29O,0.900000X1.400000*%
%TD*%
%TA.AperFunction,SMDPad,CuDef*%
%ADD30O,1.400000X0.900000*%
%TD*%
%TA.AperFunction,SMDPad,CuDef*%
%ADD31O,1.200000X0.900000*%
%TD*%
%TA.AperFunction,SMDPad,CuDef*%
%ADD32RoundRect,0.218750X0.218750X0.256250X-0.218750X0.256250X-0.218750X-0.256250X0.218750X-0.256250X0*%
%TD*%
%TA.AperFunction,ComponentPad*%
%ADD33R,1.600000X1.600000*%
%TD*%
%TA.AperFunction,ComponentPad*%
%ADD34C,1.600000*%
%TD*%
%TA.AperFunction,ComponentPad*%
%ADD35O,4.500000X1.800000*%
%TD*%
%TA.AperFunction,ViaPad*%
%ADD36C,0.600000*%
%TD*%
%TA.AperFunction,Conductor*%
%ADD37C,1.500000*%
%TD*%
%TA.AperFunction,Conductor*%
%ADD38C,0.500000*%
%TD*%
%TA.AperFunction,Conductor*%
%ADD39C,0.750000*%
%TD*%
%TA.AperFunction,Conductor*%
%ADD40C,0.200000*%
%TD*%
%TA.AperFunction,Conductor*%
%ADD41C,1.000000*%
%TD*%
G04 APERTURE END LIST*
D10*
%TO.P,SW7,1,1*%
%TO.N,2*%
X-1700000Y-4000000D03*
%TO.P,SW7,2,2*%
%TO.N,GND*%
X4700000Y-4000000D03*
%TD*%
%TO.P,SW6,1,1*%
%TO.N,21*%
X-1700000Y500000D03*
%TO.P,SW6,2,2*%
%TO.N,GND*%
X4700000Y500000D03*
%TD*%
D11*
%TO.P,U2,1,GND*%
%TO.N,GND*%
X-8700000Y16150000D03*
%TO.P,U2,2,VO*%
%TO.N,+3.3V*%
X-11000000Y16150000D03*
D12*
X-11000000Y9850000D03*
D11*
%TO.P,U2,3,VI*%
%TO.N,VCC*%
X-13300000Y16150000D03*
%TD*%
D13*
%TO.P,C7,1*%
%TO.N,Net-(C5-Pad1)*%
X1000000Y-13950000D03*
%TO.P,C7,2*%
%TO.N,22*%
X1000000Y-12050000D03*
%TD*%
D14*
%TO.P,J2,1,Pin_1*%
%TO.N,1*%
X16444999Y20063427D03*
D15*
%TO.P,J2,2,Pin_2*%
%TO.N,2*%
X15174999Y20063427D03*
%TO.P,J2,3,Pin_3*%
%TO.N,3*%
X13904999Y20063427D03*
%TO.P,J2,4,Pin_4*%
%TO.N,4*%
X12634999Y20063427D03*
%TO.P,J2,5,Pin_5*%
%TO.N,+3.3V*%
X11364999Y20063427D03*
%TO.P,J2,6,Pin_6*%
%TO.N,6*%
X10094999Y20063427D03*
%TO.P,J2,7,Pin_7*%
%TO.N,7*%
X8824999Y20063427D03*
%TO.P,J2,8,Pin_8*%
%TO.N,8*%
X7554999Y20063427D03*
%TD*%
D16*
%TO.P,R13,1*%
%TO.N,GND*%
X23000000Y-8087500D03*
%TO.P,R13,2*%
%TO.N,24*%
X23000000Y-9912500D03*
%TD*%
D17*
%TO.P,R9,1*%
%TO.N,GND*%
X14912500Y-8000000D03*
%TO.P,R9,2*%
%TO.N,23*%
X13087500Y-8000000D03*
%TD*%
D18*
%TO.P,SW1,1,1*%
%TO.N,23*%
X15250000Y-11000000D03*
%TO.P,SW1,2,2*%
%TO.N,Net-(C5-Pad1)*%
X8750000Y-11000000D03*
%TD*%
D19*
%TO.P,PWR,1,K*%
%TO.N,GND*%
X-24937500Y5500000D03*
%TO.P,PWR,2,A*%
%TO.N,Net-(D1-A)*%
X-23062500Y5500000D03*
%TD*%
D20*
%TO.P,C8,1*%
%TO.N,Net-(C5-Pad1)*%
X9050000Y-15000000D03*
%TO.P,C8,2*%
%TO.N,19*%
X10950000Y-15000000D03*
%TD*%
D14*
%TO.P,J3,1,Pin_1*%
%TO.N,9*%
X2436572Y14945000D03*
D15*
%TO.P,J3,2,Pin_2*%
%TO.N,10*%
X2436572Y13675000D03*
%TO.P,J3,3,Pin_3*%
%TO.N,11*%
X2436572Y12405000D03*
%TO.P,J3,4,Pin_4*%
%TO.N,12*%
X2436572Y11135000D03*
%TO.P,J3,5,Pin_5*%
%TO.N,13*%
X2436572Y9865000D03*
%TO.P,J3,6,Pin_6*%
%TO.N,14*%
X2436572Y8595000D03*
%TO.P,J3,7,Pin_7*%
%TO.N,15*%
X2436572Y7325000D03*
%TO.P,J3,8,Pin_8*%
%TO.N,16*%
X2436572Y6055000D03*
%TD*%
D21*
%TO.P,R14,1*%
%TO.N,+3.3V*%
X-3412500Y3750000D03*
%TO.P,R14,2*%
%TO.N,Net-(C5-Pad1)*%
X-1587500Y3750000D03*
%TD*%
D14*
%TO.P,J4,1,Pin_1*%
%TO.N,17*%
X7555000Y936572D03*
D15*
%TO.P,J4,2,Pin_2*%
%TO.N,18*%
X8825000Y936572D03*
%TO.P,J4,3,Pin_3*%
%TO.N,19*%
X10095000Y936572D03*
%TO.P,J4,4,Pin_4*%
%TO.N,GND*%
X11365000Y936572D03*
%TO.P,J4,5,Pin_5*%
%TO.N,21*%
X12635000Y936572D03*
%TO.P,J4,6,Pin_6*%
%TO.N,22*%
X13905000Y936572D03*
%TO.P,J4,7,Pin_7*%
%TO.N,23*%
X15175000Y936572D03*
%TO.P,J4,8,Pin_8*%
%TO.N,24*%
X16445000Y936572D03*
%TD*%
D17*
%TO.P,R5,1*%
%TO.N,27*%
X-1587500Y8000000D03*
%TO.P,R5,2*%
%TO.N,Net-(JP4-A)*%
X-3412500Y8000000D03*
%TD*%
D22*
%TO.P,SW3,1,1*%
%TO.N,22*%
X4000000Y-7750000D03*
%TO.P,SW3,2,2*%
%TO.N,Net-(C5-Pad1)*%
X4000000Y-14250000D03*
%TD*%
D14*
%TO.P,J5,1,Pin_1*%
%TO.N,25*%
X21563427Y6055000D03*
D15*
%TO.P,J5,2,Pin_2*%
%TO.N,26*%
X21563427Y7325000D03*
%TO.P,J5,3,Pin_3*%
%TO.N,27*%
X21563427Y8595000D03*
%TO.P,J5,4,Pin_4*%
%TO.N,GND*%
X21563427Y9865000D03*
%TO.P,J5,5,Pin_5*%
%TO.N,unconnected-(J5-Pin_5-Pad5)*%
X21563427Y11135000D03*
%TO.P,J5,6,Pin_6*%
%TO.N,GND*%
X21563427Y12405000D03*
%TO.P,J5,7,Pin_7*%
X21563427Y13675000D03*
%TO.P,J5,8,Pin_8*%
X21563427Y14945000D03*
%TD*%
D21*
%TO.P,R2,1*%
%TO.N,GND*%
X-3412500Y15000000D03*
%TO.P,R2,2*%
%TO.N,Net-(JP2-A)*%
X-1587500Y15000000D03*
%TD*%
D18*
%TO.P,SW2,1,1*%
%TO.N,25*%
X15250000Y-4000000D03*
%TO.P,SW2,2,2*%
%TO.N,Net-(C5-Pad1)*%
X8750000Y-4000000D03*
%TD*%
D16*
%TO.P,R11,1*%
%TO.N,GND*%
X1000000Y-8087500D03*
%TO.P,R11,2*%
%TO.N,22*%
X1000000Y-9912500D03*
%TD*%
D20*
%TO.P,C6,1*%
%TO.N,Net-(C5-Pad1)*%
X9050000Y-1000000D03*
%TO.P,C6,2*%
%TO.N,25*%
X10950000Y-1000000D03*
%TD*%
D23*
%TO.P,R7,1*%
%TO.N,+3.3V*%
X-7000000Y24587500D03*
%TO.P,R7,2*%
%TO.N,14*%
X-7000000Y26412500D03*
%TD*%
D21*
%TO.P,R4,1*%
%TO.N,GND*%
X-3412500Y10500000D03*
%TO.P,R4,2*%
%TO.N,Net-(JP3-A)*%
X-1587500Y10500000D03*
%TD*%
%TO.P,R6,1*%
%TO.N,GND*%
X-3412500Y6000000D03*
%TO.P,R6,2*%
%TO.N,Net-(JP4-A)*%
X-1587500Y6000000D03*
%TD*%
D13*
%TO.P,C1,1*%
%TO.N,VCC*%
X-16000000Y15550000D03*
%TO.P,C1,2*%
%TO.N,GND*%
X-16000000Y17450000D03*
%TD*%
D17*
%TO.P,R1,1*%
%TO.N,12*%
X-1587500Y17000000D03*
%TO.P,R1,2*%
%TO.N,Net-(JP2-A)*%
X-3412500Y17000000D03*
%TD*%
D24*
%TO.P,C3,1*%
%TO.N,+3.3V*%
X-11000000Y6950000D03*
%TO.P,C3,2*%
%TO.N,GND*%
X-11000000Y5050000D03*
%TD*%
D25*
%TO.P,U4,1,RX*%
%TO.N,TX_G*%
X-20500000Y-500000D03*
D26*
%TO.P,U4,2,GND*%
%TO.N,GND*%
X-18500000Y-500000D03*
%TO.P,U4,3,TX*%
%TO.N,RX_G*%
X-20500000Y-2500000D03*
%TO.P,U4,4,BATT*%
%TO.N,Net-(U4-BATT)*%
X-18500000Y-2500000D03*
%TO.P,U4,5,VCC*%
X-20500000Y-4500000D03*
%TO.P,U4,6,NC*%
%TO.N,unconnected-(U4-NC-Pad6)*%
X-18500000Y-4500000D03*
%TO.P,U4,7,NC*%
%TO.N,unconnected-(U4-NC-Pad7)*%
X-20500000Y-6500000D03*
%TO.P,U4,8,NC*%
%TO.N,unconnected-(U4-NC-Pad8)*%
X-18500000Y-6500000D03*
%TD*%
D23*
%TO.P,R8,1*%
%TO.N,+3.3V*%
X7000000Y24587500D03*
%TO.P,R8,2*%
%TO.N,17*%
X7000000Y26412500D03*
%TD*%
D17*
%TO.P,R12,1*%
%TO.N,GND*%
X14912500Y-15000000D03*
%TO.P,R12,2*%
%TO.N,19*%
X13087500Y-15000000D03*
%TD*%
%TO.P,R3,1*%
%TO.N,26*%
X-1587500Y12500000D03*
%TO.P,R3,2*%
%TO.N,Net-(JP3-A)*%
X-3412500Y12500000D03*
%TD*%
D18*
%TO.P,SW4,1,1*%
%TO.N,19*%
X15250000Y-18000000D03*
%TO.P,SW4,2,2*%
%TO.N,Net-(C5-Pad1)*%
X8750000Y-18000000D03*
%TD*%
D27*
%TO.P,U3,1,GND*%
%TO.N,GND*%
X-3810000Y27500000D03*
D28*
%TO.P,U3,2,VCC*%
%TO.N,+3.3V*%
X-1270000Y27500000D03*
%TO.P,U3,3,SCL*%
%TO.N,14*%
X1270000Y27500000D03*
%TO.P,U3,4,SDA*%
%TO.N,17*%
X3810000Y27500000D03*
%TD*%
D17*
%TO.P,R15,1*%
%TO.N,+3.3V*%
X-18587500Y5500000D03*
%TO.P,R15,2*%
%TO.N,Net-(D1-A)*%
X-20412500Y5500000D03*
%TD*%
D22*
%TO.P,SW5,1,1*%
%TO.N,24*%
X20000000Y-7750000D03*
%TO.P,SW5,2,2*%
%TO.N,Net-(C5-Pad1)*%
X20000000Y-14250000D03*
%TD*%
D29*
%TO.P,U1,1,DO0/PWM2*%
%TO.N,1*%
X16445000Y17235000D03*
%TO.P,U1,2,DO1/PWM3*%
%TO.N,2*%
X15175000Y17235000D03*
%TO.P,U1,3,DIO18/DO1*%
%TO.N,3*%
X13905000Y17235000D03*
%TO.P,U1,4,DIO19/DO2*%
%TO.N,4*%
X12635000Y17235000D03*
%TO.P,U1,5,VCC*%
%TO.N,+3.3V*%
X11365000Y17235000D03*
%TO.P,U1,6,DIO4/DO3*%
%TO.N,6*%
X10095000Y17235000D03*
%TO.P,U1,7,DIO5/PWM1*%
%TO.N,7*%
X8825000Y17235000D03*
%TO.P,U1,8,DIO6/TX*%
%TO.N,8*%
X7555000Y17235000D03*
D30*
%TO.P,U1,9,DIO7/RX*%
%TO.N,9*%
X5265000Y14945000D03*
%TO.P,U1,10,DIO8/PWM4*%
%TO.N,10*%
X5265000Y13675000D03*
%TO.P,U1,11,DIO9/DO4*%
%TO.N,11*%
X5265000Y12405000D03*
%TO.P,U1,12,DIO10/M1*%
%TO.N,12*%
X5265000Y11135000D03*
%TO.P,U1,13,DIO12/DI1*%
%TO.N,13*%
X5265000Y9865000D03*
%TO.P,U1,14,DIO14/SCL*%
%TO.N,14*%
X5265000Y8595000D03*
%TO.P,U1,15,DIO13/DI2*%
%TO.N,15*%
X5265000Y7325000D03*
%TO.P,U1,16,DIO11/DI3*%
%TO.N,16*%
X5265000Y6055000D03*
D29*
%TO.P,U1,17,DIO15/SDA*%
%TO.N,17*%
X7555000Y3765000D03*
%TO.P,U1,18,DIO16/DI4*%
%TO.N,18*%
X8825000Y3765000D03*
%TO.P,U1,19,DIO17/BPS*%
%TO.N,19*%
X10095000Y3765000D03*
%TO.P,U1,20,GND*%
%TO.N,GND*%
X11365000Y3765000D03*
%TO.P,U1,21,~{RESET}*%
%TO.N,21*%
X12635000Y3765000D03*
%TO.P,U1,22,ADC2/AI3*%
%TO.N,22*%
X13905000Y3765000D03*
%TO.P,U1,23,ADC1/AI1*%
%TO.N,23*%
X15175000Y3765000D03*
%TO.P,U1,24,DIO0/AI2*%
%TO.N,24*%
X16445000Y3765000D03*
D30*
%TO.P,U1,25,DIO1/AI4*%
%TO.N,25*%
X18735000Y6055000D03*
%TO.P,U1,26,DIO2/M2*%
%TO.N,26*%
X18735000Y7325000D03*
%TO.P,U1,27,DIO3/M3*%
%TO.N,27*%
X18735000Y8595000D03*
%TO.P,U1,28,GND*%
%TO.N,GND*%
X18735000Y9865000D03*
%TO.P,U1,29,NC*%
%TO.N,unconnected-(U1-NC-Pad29)*%
X18735000Y11135000D03*
%TO.P,U1,30,GND*%
%TO.N,GND*%
X18735000Y12405000D03*
D31*
%TO.P,U1,31,GND*%
X18835000Y13675000D03*
%TO.P,U1,32,GND*%
X18835000Y14945000D03*
%TD*%
D27*
%TO.P,J1,1,Pin_1*%
%TO.N,GND*%
X26000000Y7620000D03*
D28*
%TO.P,J1,2,Pin_2*%
%TO.N,TX_W*%
X26000000Y5080000D03*
%TO.P,J1,3,Pin_3*%
%TO.N,2*%
X26000000Y2540000D03*
%TO.P,J1,4,Pin_4*%
%TO.N,RX_W*%
X26000000Y0D03*
%TO.P,J1,5,Pin_5*%
%TO.N,21*%
X26000000Y-2540000D03*
%TO.P,J1,6,Pin_6*%
%TO.N,VBUS*%
X26000000Y-5080000D03*
%TO.P,J1,7,Pin_7*%
%TO.N,unconnected-(J1-Pin_7-Pad7)*%
X26000000Y-7620000D03*
%TD*%
D17*
%TO.P,R10,1*%
%TO.N,GND*%
X14912500Y-1000000D03*
%TO.P,R10,2*%
%TO.N,25*%
X13087500Y-1000000D03*
%TD*%
D20*
%TO.P,C5,1*%
%TO.N,Net-(C5-Pad1)*%
X9050000Y-8000000D03*
%TO.P,C5,2*%
%TO.N,23*%
X10950000Y-8000000D03*
%TD*%
D32*
%TO.P,FB1,1*%
%TO.N,+3.3V*%
X-18712500Y3500000D03*
%TO.P,FB1,2*%
%TO.N,Net-(U4-BATT)*%
X-20287500Y3500000D03*
%TD*%
D24*
%TO.P,C2,1*%
%TO.N,VCC*%
X-16000000Y13950000D03*
%TO.P,C2,2*%
%TO.N,GND*%
X-16000000Y12050000D03*
%TD*%
D13*
%TO.P,C9,1*%
%TO.N,Net-(C5-Pad1)*%
X23000000Y-13950000D03*
%TO.P,C9,2*%
%TO.N,24*%
X23000000Y-12050000D03*
%TD*%
D33*
%TO.P,C4,1*%
%TO.N,+3.3V*%
X-20500000Y9850000D03*
D34*
%TO.P,C4,2*%
%TO.N,GND*%
X-23000000Y9850000D03*
%TD*%
D35*
%TO.P,BT2,1,+*%
%TO.N,Net-(BT2-+)*%
X0Y-24250000D03*
%TO.P,BT2,2,-*%
%TO.N,Net-(BT1-+)*%
X0Y24250000D03*
%TD*%
%TO.P,BT1,1,+*%
%TO.N,Net-(BT1-+)*%
X12000000Y24250000D03*
%TO.P,BT1,2,-*%
%TO.N,GND*%
X12000000Y-24250000D03*
%TD*%
%TO.P,BT3,1,+*%
%TO.N,VCC*%
X-12000000Y24250000D03*
%TO.P,BT3,2,-*%
%TO.N,Net-(BT2-+)*%
X-12000000Y-24250000D03*
%TD*%
D36*
%TO.N,GND*%
X14000000Y11500000D03*
X15000000Y7500000D03*
X10000000Y6500000D03*
X12000000Y5500000D03*
X8000000Y5500000D03*
X1500000Y-4100000D03*
X8000000Y7500000D03*
X13000000Y11500000D03*
X8000000Y6500000D03*
X9000000Y7500000D03*
X9000000Y6500000D03*
X12000000Y8500000D03*
X17000000Y7500000D03*
X17000000Y6500000D03*
X9000000Y8500000D03*
X9000000Y15500000D03*
X11000000Y10500000D03*
X8000000Y12500000D03*
X20000000Y-11000000D03*
X9000000Y13500000D03*
X1500000Y-2600000D03*
X17000000Y8500000D03*
X9000000Y12500000D03*
X11000000Y14500000D03*
X12000000Y10500000D03*
X12000000Y12500000D03*
X3000000Y-2600000D03*
X11000000Y7500000D03*
X9000000Y10500000D03*
X8000000Y8500000D03*
X11000000Y15500000D03*
X12000000Y6500000D03*
X12000000Y13500000D03*
X12000000Y7500000D03*
X12000000Y14500000D03*
X9000000Y9500000D03*
X10000000Y14500000D03*
X10000000Y9500000D03*
X15000000Y6500000D03*
X16000000Y8500000D03*
X14000000Y6500000D03*
X17000000Y11500000D03*
X10000000Y13500000D03*
X8000000Y10500000D03*
X12000000Y-11000000D03*
X16000000Y9500000D03*
X13000000Y14500000D03*
X9000000Y11500000D03*
X11000000Y5500000D03*
X15000000Y9500000D03*
X11000000Y12500000D03*
X16000000Y6500000D03*
X16000000Y7500000D03*
X11000000Y13500000D03*
X14000000Y9500000D03*
X11000000Y8500000D03*
X10000000Y15500000D03*
X10000000Y11500000D03*
X12000000Y11500000D03*
X13000000Y13500000D03*
X15000000Y8500000D03*
X16000000Y11500000D03*
X8000000Y11500000D03*
X13000000Y12500000D03*
X10000000Y8500000D03*
X9000000Y5500000D03*
X16000000Y10500000D03*
X12000000Y9500000D03*
X14000000Y8500000D03*
X13000000Y15500000D03*
X14000000Y7500000D03*
X10000000Y5500000D03*
X17000000Y9500000D03*
X13000000Y6500000D03*
X11000000Y9500000D03*
X10000000Y10500000D03*
X8000000Y9500000D03*
X15000000Y10500000D03*
X8000000Y13500000D03*
X12000000Y15500000D03*
X14000000Y10500000D03*
X10000000Y12500000D03*
X13000000Y8500000D03*
X13000000Y7500000D03*
X9000000Y14500000D03*
X11000000Y6500000D03*
X17000000Y10500000D03*
X13000000Y10500000D03*
X10000000Y7500000D03*
X13000000Y9500000D03*
X11000000Y11500000D03*
X15000000Y11500000D03*
X3000000Y-4100000D03*
%TO.N,+3.3V*%
X7000000Y22800000D03*
X-5000000Y3750000D03*
X-22400000Y-7800000D03*
%TO.N,8*%
X7554999Y15142499D03*
X-4493628Y625000D03*
X22500000Y3000000D03*
%TO.N,9*%
X-6000000Y1375000D03*
X22500000Y-1000000D03*
X-23500000Y1375000D03*
X-24500000Y-2750000D03*
%TO.N,21*%
X20000000Y-4000000D03*
X18392867Y1392870D03*
X1500000Y500000D03*
%TO.N,Net-(JP2-A)*%
X-4500000Y16000000D03*
%TO.N,Net-(JP3-A)*%
X-4500000Y11500000D03*
%TO.N,Net-(JP4-A)*%
X-4500000Y7000000D03*
%TO.N,26*%
X3412500Y3500000D03*
%TO.N,27*%
X4912500Y3500000D03*
%TO.N,12*%
X736572Y11134999D03*
%TO.N,VBUS*%
X-25200000Y-7800000D03*
%TD*%
D37*
%TO.N,VCC*%
X-16000000Y13950000D02*
X-16000000Y15550000D01*
X-12000000Y19904163D02*
X-12000000Y24250000D01*
X-13300000Y16150000D02*
X-13300000Y18604163D01*
X-13900000Y15550000D02*
X-13300000Y16150000D01*
X-16000000Y15550000D02*
X-13900000Y15550000D01*
X-13300000Y18604163D02*
X-12000000Y19904163D01*
D38*
%TO.N,GND*%
X17000000Y6000000D02*
X17000000Y6500000D01*
X19142867Y3857133D02*
X17000000Y6000000D01*
X17060658Y-1000000D02*
X19142867Y1082209D01*
X14912500Y-1000000D02*
X17060658Y-1000000D01*
X19142867Y1082209D02*
X19142867Y3857133D01*
%TO.N,+3.3V*%
X-17375000Y-6965991D02*
X-17375000Y2162500D01*
D37*
X-7000000Y22500000D02*
X-5716295Y22500000D01*
X-11000000Y18500000D02*
X-7000000Y22500000D01*
D39*
X11365000Y17235000D02*
X11365000Y16805431D01*
D37*
X-1270000Y26946295D02*
X-1270000Y27500000D01*
D39*
X-18712500Y3500000D02*
X-17350000Y3500000D01*
D37*
X-20500000Y9850000D02*
X-11000000Y9850000D01*
X-11000000Y16150000D02*
X-11000000Y18500000D01*
X-7000000Y22500000D02*
X-7000000Y24587500D01*
D39*
X-11000000Y9850000D02*
X-11000000Y6950000D01*
X-17350000Y3500000D02*
X-11000000Y9850000D01*
D37*
X-5716295Y22500000D02*
X-1270000Y26946295D01*
X-11000000Y16150000D02*
X-11000000Y9850000D01*
D38*
X-18209009Y-7800000D02*
X-17375000Y-6965991D01*
X-22400000Y-7800000D02*
X-18209009Y-7800000D01*
D39*
X-3412500Y3750000D02*
X-5000000Y3750000D01*
X7000000Y22800000D02*
X7000000Y24587500D01*
D38*
X11365000Y20063427D02*
X11364999Y17235000D01*
X-17375000Y2162500D02*
X-18712500Y3500000D01*
D39*
X-18712500Y3500000D02*
X-18712500Y5375000D01*
X-18712500Y5375000D02*
X-18587500Y5500000D01*
%TO.N,Net-(U4-BATT)*%
X-21750000Y-3250000D02*
X-20500000Y-4500000D01*
X-20500000Y-4500000D02*
X-18500000Y-2500000D01*
X-20287500Y3500000D02*
X-21750000Y2037500D01*
X-21750000Y2037500D02*
X-21750000Y-3250000D01*
D40*
%TO.N,2*%
X-1700000Y-4000000D02*
X350000Y-6050000D01*
X24544163Y2540000D02*
X26000000Y2540000D01*
X15954163Y-6050000D02*
X24544163Y2540000D01*
X350000Y-6050000D02*
X15954163Y-6050000D01*
D38*
X24700000Y13997498D02*
X24700000Y3840000D01*
X15174999Y20474999D02*
X15713427Y21013427D01*
X15174999Y20063427D02*
X15174999Y17235000D01*
X15174999Y20063427D02*
X15174999Y20474999D01*
X17684071Y21013427D02*
X24700000Y13997498D01*
X24700000Y3840000D02*
X26000000Y2540000D01*
X15713427Y21013427D02*
X17684071Y21013427D01*
%TO.N,8*%
X1631372Y-5500000D02*
X15726345Y-5500000D01*
X15726345Y-5500000D02*
X22500000Y1273654D01*
X-1018628Y-2850000D02*
X1631372Y-5500000D01*
X-4493628Y625000D02*
X-4493628Y-1506372D01*
X-3150000Y-2850000D02*
X-1018628Y-2850000D01*
X-4493628Y-1506372D02*
X-3150000Y-2850000D01*
X7555000Y17235000D02*
X7555000Y20063427D01*
X22500000Y1273654D02*
X22500000Y3000000D01*
X7555000Y17235000D02*
X7554999Y15142499D01*
%TO.N,9*%
X-1921321Y-6600000D02*
X-6000000Y-2521321D01*
X2436572Y14945000D02*
X5264999Y14945000D01*
X21781981Y-1000000D02*
X16181981Y-6600000D01*
X22500000Y-1000000D02*
X21781981Y-1000000D01*
X16181981Y-6600000D02*
X-1921321Y-6600000D01*
X-24500000Y375000D02*
X-24500000Y-2750000D01*
X-6000000Y-2521321D02*
X-6000000Y1375000D01*
X-23500000Y1375000D02*
X-24500000Y375000D01*
%TO.N,21*%
X16817792Y4915000D02*
X13532208Y4915000D01*
X18392867Y3339925D02*
X16817792Y4915000D01*
X24540000Y-4000000D02*
X20000000Y-4000000D01*
X12635000Y4017792D02*
X12635000Y3765000D01*
X13532208Y4915000D02*
X12635000Y4017792D01*
X1500000Y500000D02*
X-1700000Y500000D01*
X18392867Y1392870D02*
X18392867Y3339925D01*
X26000000Y-2540000D02*
X24540000Y-4000000D01*
X12635000Y3765000D02*
X12634999Y936572D01*
%TO.N,13*%
X2436572Y9865000D02*
X5265000Y9865000D01*
%TO.N,Net-(JP2-A)*%
X-1587500Y15087500D02*
X-1587500Y15000000D01*
X-4500000Y16000000D02*
X-3500000Y17000000D01*
X-3500000Y17000000D02*
X-3412500Y17000000D01*
X-3412500Y16912500D02*
X-1587500Y15087500D01*
X-3412500Y17000000D02*
X-3412500Y16912500D01*
%TO.N,Net-(JP3-A)*%
X-4500000Y11500000D02*
X-3500000Y12500000D01*
X-3500000Y12500000D02*
X-3412500Y12500000D01*
X-1587500Y10675000D02*
X-1587500Y10500000D01*
X-3412500Y12500000D02*
X-1587500Y10675000D01*
%TO.N,Net-(JP4-A)*%
X-3412500Y8000000D02*
X-3412500Y7912500D01*
X-4500000Y7000000D02*
X-3500000Y8000000D01*
X-1587500Y6087500D02*
X-1587500Y6000000D01*
X-3412500Y7912500D02*
X-1587500Y6087500D01*
X-3500000Y8000000D02*
X-3412500Y8000000D01*
%TO.N,14*%
X1270000Y27500000D02*
X-30000Y28800000D01*
X1486572Y15986572D02*
X2700000Y17200000D01*
X-5110000Y28800000D02*
X-7000000Y26910000D01*
X2436572Y8595000D02*
X2363069Y8595000D01*
X-30000Y28800000D02*
X-5110000Y28800000D01*
X2700000Y17200000D02*
X2700000Y26070000D01*
X2700000Y26070000D02*
X1270000Y27500000D01*
X-7000000Y26910000D02*
X-7000000Y26412500D01*
X2363069Y8595000D02*
X1486572Y9471497D01*
X1486572Y9471497D02*
X1486572Y15986572D01*
X5264999Y8595000D02*
X2436572Y8595000D01*
%TO.N,17*%
X3810000Y27500000D02*
X5912500Y27500000D01*
X6655000Y4665000D02*
X6655000Y15077792D01*
X7555000Y936572D02*
X7555000Y3764999D01*
X6655000Y15077792D02*
X3810000Y17922792D01*
X7555000Y3765000D02*
X6655000Y4665000D01*
X5912500Y27500000D02*
X7000000Y26412500D01*
X3810000Y17922792D02*
X3810000Y27500000D01*
%TO.N,1*%
X16444999Y17235000D02*
X16444999Y20063427D01*
%TO.N,11*%
X2436572Y12405000D02*
X5264999Y12405000D01*
%TO.N,3*%
X13905000Y17235000D02*
X13905000Y20063427D01*
%TO.N,15*%
X2436572Y7324999D02*
X5265000Y7325000D01*
%TO.N,24*%
X23000000Y-9912500D02*
X22162500Y-9912500D01*
X22162500Y-9912500D02*
X20000000Y-7750000D01*
X23000000Y-12050000D02*
X23000000Y-9912500D01*
X16444999Y3764999D02*
X16444999Y936572D01*
%TO.N,22*%
X1000000Y-9912500D02*
X1837500Y-9912500D01*
X1837500Y-9912500D02*
X4000000Y-7750000D01*
X1000000Y-11550000D02*
X1000000Y-9912500D01*
X13905000Y3764999D02*
X13905000Y936572D01*
%TO.N,26*%
X18734999Y7325000D02*
X21563427Y7325001D01*
X-1587500Y12398410D02*
X-1587500Y12500000D01*
X75000Y10735910D02*
X-1587500Y12398410D01*
X75000Y5827450D02*
X75000Y10735910D01*
X2402450Y3500000D02*
X75000Y5827450D01*
X3412500Y3500000D02*
X2402450Y3500000D01*
%TO.N,4*%
X12634999Y20063427D02*
X12635000Y17235000D01*
%TO.N,7*%
X8824999Y20063427D02*
X8825000Y17235000D01*
%TO.N,27*%
X4912500Y3439339D02*
X4223161Y2750000D01*
X2162500Y2750000D02*
X-625000Y5537500D01*
X4912500Y3500000D02*
X4912500Y3439339D01*
X-625000Y5537500D02*
X-625000Y7037500D01*
X18735000Y8595000D02*
X21563427Y8595000D01*
X4223161Y2750000D02*
X2162500Y2750000D01*
X-625000Y7037500D02*
X-1587500Y8000000D01*
%TO.N,19*%
X15900000Y-14278122D02*
X15900000Y-17350000D01*
X10094999Y3764999D02*
X10094999Y936572D01*
X14237500Y-13850000D02*
X15471878Y-13850000D01*
X13087500Y-15000000D02*
X14237500Y-13850000D01*
X13087500Y-15000000D02*
X10950000Y-15000000D01*
X15900000Y-17350000D02*
X15250000Y-18000000D01*
X15471878Y-13850000D02*
X15900000Y-14278122D01*
%TO.N,18*%
X8825000Y3765000D02*
X8825000Y936572D01*
%TO.N,6*%
X10094999Y17235000D02*
X10094999Y20063427D01*
%TO.N,23*%
X15174999Y3765000D02*
X15175000Y936572D01*
X13087500Y-8000000D02*
X10950000Y-8000000D01*
X13087500Y-8000000D02*
X13087500Y-8837500D01*
X13087500Y-8837500D02*
X15250000Y-11000000D01*
%TO.N,16*%
X5264999Y6055000D02*
X2436572Y6055000D01*
%TO.N,12*%
X5265000Y11135000D02*
X2436572Y11134999D01*
X736572Y11134999D02*
X736572Y14675928D01*
X736572Y14675928D02*
X-1587500Y17000000D01*
%TO.N,25*%
X13087500Y-1000000D02*
X10950000Y-1000000D01*
X21563427Y2313427D02*
X15250000Y-4000000D01*
X13087500Y-1000000D02*
X13087500Y-1837500D01*
X13087500Y-1837500D02*
X15250000Y-4000000D01*
X21563427Y6055000D02*
X21563427Y2313427D01*
X18735000Y6055000D02*
X21563427Y6055000D01*
%TO.N,10*%
X5265000Y13675000D02*
X2436572Y13674999D01*
%TO.N,Net-(C5-Pad1)*%
X4000000Y-14250000D02*
X3700000Y-13950000D01*
X20300000Y-13950000D02*
X23000000Y-13950000D01*
X5381372Y1650000D02*
X5850000Y1181372D01*
X20000000Y-14250000D02*
X18900000Y-13150000D01*
X5850000Y1181372D02*
X5850000Y-100000D01*
X8750000Y-18000000D02*
X9050000Y-17700000D01*
X10900000Y-13150000D02*
X9050000Y-15000000D01*
X9050000Y-11300000D02*
X9050000Y-15000000D01*
X9050000Y-17700000D02*
X9050000Y-15000000D01*
X-1587500Y3750000D02*
X512500Y1650000D01*
X3700000Y-13950000D02*
X1000000Y-13950000D01*
X18900000Y-13150000D02*
X10900000Y-13150000D01*
X4000000Y-14250000D02*
X7750000Y-18000000D01*
X7750000Y-18000000D02*
X8750000Y-18000000D01*
X8750000Y-11000000D02*
X9050000Y-10700000D01*
X8750000Y-4000000D02*
X9050000Y-3700000D01*
X8750000Y-11000000D02*
X9050000Y-11300000D01*
X9050000Y-10700000D02*
X9050000Y-8000000D01*
X20000000Y-14250000D02*
X20300000Y-13950000D01*
X512500Y1650000D02*
X5381372Y1650000D01*
X6750000Y-1000000D02*
X9050000Y-1000000D01*
X9050000Y-3700000D02*
X9050000Y-1000000D01*
X5850000Y-100000D02*
X6750000Y-1000000D01*
D37*
%TO.N,Net-(BT2-+)*%
X0Y-24250000D02*
X-12000000Y-24250000D01*
D38*
%TO.N,Net-(D1-A)*%
X-23062500Y5500000D02*
X-20412500Y5500000D01*
D41*
%TO.N,VBUS*%
X17401323Y-22650000D02*
X-10350000Y-22650000D01*
X26000000Y-5080000D02*
X24425000Y-6655000D01*
X24425000Y-6655000D02*
X24425000Y-15626323D01*
X24425000Y-15626323D02*
X17401323Y-22650000D01*
X-10350000Y-22650000D02*
X-25200000Y-7800000D01*
%TD*%
%TA.AperFunction,Conductor*%
%TO.N,GND*%
G36*
X-6461162Y28762103D02*
G01*
X-6404270Y28721543D01*
X-6378338Y28656664D01*
X-6391599Y28588064D01*
X-6414099Y28557267D01*
X-7519893Y27451473D01*
X-7581214Y27417990D01*
X-7594972Y27415798D01*
X-7602797Y27414999D01*
X-7769334Y27359814D01*
X-7918656Y27267712D01*
X-8042712Y27143656D01*
X-8134814Y26994334D01*
X-8189999Y26827797D01*
X-8200500Y26725009D01*
X-8200499Y26099992D01*
X-8189999Y25997203D01*
X-8134814Y25830666D01*
X-8042712Y25681344D01*
X-8042710Y25681342D01*
X-7949049Y25587681D01*
X-7915564Y25526358D01*
X-7920548Y25456666D01*
X-7949049Y25412319D01*
X-8042712Y25318656D01*
X-8134814Y25169334D01*
X-8189999Y25002797D01*
X-8193280Y24970679D01*
X-8198706Y24944963D01*
X-8219709Y24880326D01*
X-8233393Y24793922D01*
X-8250500Y24685922D01*
X-8250500Y23069336D01*
X-8270185Y23002297D01*
X-8286819Y22981655D01*
X-10537819Y20730655D01*
X-10599142Y20697170D01*
X-10668834Y20702154D01*
X-10724767Y20744026D01*
X-10749184Y20809490D01*
X-10749500Y20818336D01*
X-10749500Y22725500D01*
X-10729815Y22792539D01*
X-10677011Y22838294D01*
X-10625500Y22849500D01*
X-10539779Y22849500D01*
X-10539778Y22849500D01*
X-10467201Y22860995D01*
X-10322047Y22883985D01*
X-10112396Y22952103D01*
X-10112393Y22952104D01*
X-9915974Y23052187D01*
X-9737641Y23181752D01*
X-9737636Y23181756D01*
X-9581756Y23337636D01*
X-9581752Y23337641D01*
X-9452187Y23515974D01*
X-9352104Y23712393D01*
X-9352103Y23712396D01*
X-9283985Y23922047D01*
X-9249500Y24139778D01*
X-9249500Y24360221D01*
X-9283985Y24577952D01*
X-9352103Y24787603D01*
X-9352104Y24787606D01*
X-9438688Y24957533D01*
X-9452185Y24984022D01*
X-9465825Y25002796D01*
X-9581752Y25162358D01*
X-9581756Y25162363D01*
X-9737636Y25318243D01*
X-9737641Y25318247D01*
X-9915974Y25447812D01*
X-9915978Y25447815D01*
X-10050500Y25516358D01*
X-10112393Y25547895D01*
X-10112396Y25547896D01*
X-10234845Y25587681D01*
X-10322049Y25616015D01*
X-10539778Y25650500D01*
X-13460222Y25650500D01*
X-13677951Y25616015D01*
X-13887606Y25547895D01*
X-14084022Y25447815D01*
X-14262365Y25318242D01*
X-14418242Y25162365D01*
X-14547815Y24984022D01*
X-14647895Y24787606D01*
X-14716015Y24577951D01*
X-14750500Y24360222D01*
X-14750500Y24139778D01*
X-14716015Y23922049D01*
X-14716014Y23922047D01*
X-14647896Y23712396D01*
X-14647895Y23712393D01*
X-14630471Y23678198D01*
X-14547815Y23515978D01*
X-14547812Y23515974D01*
X-14418247Y23337641D01*
X-14418243Y23337636D01*
X-14262363Y23181756D01*
X-14262358Y23181752D01*
X-14084025Y23052187D01*
X-14084022Y23052185D01*
X-14021096Y23020122D01*
X-13887606Y22952104D01*
X-13887603Y22952103D01*
X-13677952Y22883985D01*
X-13569086Y22866742D01*
X-13460222Y22849500D01*
X-13374500Y22849500D01*
X-13307461Y22829815D01*
X-13261706Y22777011D01*
X-13250500Y22725500D01*
X-13250500Y20473499D01*
X-13270185Y20406460D01*
X-13286819Y20385818D01*
X-14253828Y19418809D01*
X-14369524Y19259568D01*
X-14458884Y19084189D01*
X-14492729Y18980025D01*
X-14492729Y18980024D01*
X-14519709Y18896989D01*
X-14550500Y18702585D01*
X-14550500Y16924500D01*
X-14570185Y16857461D01*
X-14622989Y16811706D01*
X-14674500Y16800500D01*
X-16098422Y16800500D01*
X-16292826Y16769709D01*
X-16480025Y16708884D01*
X-16655405Y16619524D01*
X-16814646Y16503828D01*
X-16886710Y16431763D01*
X-16909296Y16413904D01*
X-16943656Y16392712D01*
X-17067712Y16268656D01*
X-17159814Y16119334D01*
X-17214999Y15952797D01*
X-17225500Y15850009D01*
X-17225499Y15825128D01*
X-17225499Y15816021D01*
X-17227025Y15796625D01*
X-17250174Y15650475D01*
X-17250500Y15648414D01*
X-17250500Y13851577D01*
X-17227026Y13703371D01*
X-17225499Y13683973D01*
X-17225499Y13649998D01*
X-17225498Y13649981D01*
X-17214999Y13547204D01*
X-17214999Y13547203D01*
X-17159814Y13380666D01*
X-17067712Y13231344D01*
X-17067710Y13231342D01*
X-16943655Y13107287D01*
X-16909291Y13086091D01*
X-16886708Y13068234D01*
X-16814646Y12996172D01*
X-16789213Y12977694D01*
X-16655405Y12880476D01*
X-16480029Y12791117D01*
X-16292826Y12730290D01*
X-16098422Y12699500D01*
X-16098417Y12699500D01*
X-15901578Y12699500D01*
X-15707173Y12730290D01*
X-15519970Y12791117D01*
X-15344594Y12880476D01*
X-15185348Y12996176D01*
X-15185346Y12996178D01*
X-15113286Y13068237D01*
X-15090705Y13086092D01*
X-15056346Y13107285D01*
X-14932287Y13231345D01*
X-14840187Y13380663D01*
X-14840185Y13380668D01*
X-14785001Y13547204D01*
X-14785000Y13547204D01*
X-14774500Y13649983D01*
X-14774500Y13683979D01*
X-14772973Y13703377D01*
X-14749500Y13851577D01*
X-14749500Y14175500D01*
X-14729815Y14242539D01*
X-14677011Y14288294D01*
X-14625500Y14299500D01*
X-13801578Y14299500D01*
X-13607173Y14330290D01*
X-13419969Y14391117D01*
X-13244594Y14480476D01*
X-13085348Y14596176D01*
X-13068341Y14613183D01*
X-13007017Y14646667D01*
X-12980663Y14649500D01*
X-12848878Y14649500D01*
X-12848874Y14649501D01*
X-12806113Y14652399D01*
X-12806112Y14652399D01*
X-12621303Y14698360D01*
X-12450707Y14782967D01*
X-12445044Y14786588D01*
X-12444104Y14785117D01*
X-12387584Y14808438D01*
X-12318842Y14795937D01*
X-12267771Y14748256D01*
X-12250500Y14685130D01*
X-12250500Y11474499D01*
X-12270185Y11407460D01*
X-12322989Y11361705D01*
X-12374500Y11350499D01*
X-12458036Y11350499D01*
X-12577418Y11339886D01*
X-12773049Y11283909D01*
X-12953407Y11189698D01*
X-12953411Y11189694D01*
X-12953412Y11189694D01*
X-13028587Y11128398D01*
X-13092983Y11101289D01*
X-13106947Y11100500D01*
X-19453271Y11100500D01*
X-19496604Y11108318D01*
X-19592517Y11144091D01*
X-19592516Y11144091D01*
X-19598925Y11144779D01*
X-19652127Y11150500D01*
X-21347872Y11150499D01*
X-21407483Y11144091D01*
X-21542331Y11093796D01*
X-21657546Y11007546D01*
X-21743796Y10892331D01*
X-21794091Y10757483D01*
X-21800500Y10697873D01*
X-21800499Y9002128D01*
X-21795299Y8953757D01*
X-21794091Y8942516D01*
X-21743797Y8807671D01*
X-21743793Y8807664D01*
X-21657547Y8692455D01*
X-21657544Y8692452D01*
X-21542335Y8606206D01*
X-21542328Y8606202D01*
X-21407482Y8555908D01*
X-21407483Y8555908D01*
X-21347883Y8549501D01*
X-21347881Y8549500D01*
X-21347873Y8549500D01*
X-21347864Y8549500D01*
X-19652129Y8549500D01*
X-19652123Y8549501D01*
X-19592516Y8555908D01*
X-19496604Y8591682D01*
X-19453271Y8599500D01*
X-13788006Y8599500D01*
X-13720967Y8579815D01*
X-13675212Y8527011D01*
X-13665268Y8457853D01*
X-13694293Y8394297D01*
X-13700325Y8387819D01*
X-17410337Y4677806D01*
X-17471658Y4644323D01*
X-17541350Y4649307D01*
X-17597283Y4691179D01*
X-17621700Y4756643D01*
X-17615722Y4804492D01*
X-17585001Y4897200D01*
X-17585000Y4897204D01*
X-17574500Y4999983D01*
X-17574500Y6000001D01*
X-17574501Y6000019D01*
X-17585000Y6102796D01*
X-17585001Y6102799D01*
X-17640185Y6269331D01*
X-17640187Y6269336D01*
X-17692350Y6353905D01*
X-17732288Y6418656D01*
X-17856344Y6542712D01*
X-18005666Y6634814D01*
X-18172203Y6689999D01*
X-18274991Y6700500D01*
X-18900008Y6700499D01*
X-18900016Y6700498D01*
X-18900019Y6700498D01*
X-18956302Y6694748D01*
X-19002797Y6689999D01*
X-19169334Y6634814D01*
X-19318656Y6542712D01*
X-19368865Y6492503D01*
X-19412319Y6449049D01*
X-19473642Y6415564D01*
X-19543334Y6420548D01*
X-19587681Y6449049D01*
X-19681342Y6542710D01*
X-19681344Y6542712D01*
X-19830666Y6634814D01*
X-19997203Y6689999D01*
X-20099991Y6700500D01*
X-20725008Y6700499D01*
X-20725016Y6700498D01*
X-20725019Y6700498D01*
X-20781302Y6694748D01*
X-20827797Y6689999D01*
X-20994334Y6634814D01*
X-21143656Y6542712D01*
X-21267712Y6418656D01*
X-21332340Y6313876D01*
X-21335099Y6309403D01*
X-21387047Y6262679D01*
X-21440638Y6250500D01*
X-22056600Y6250500D01*
X-22123639Y6270185D01*
X-22162136Y6309400D01*
X-22230974Y6421003D01*
X-22353997Y6544026D01*
X-22359143Y6547200D01*
X-22502066Y6635357D01*
X-22502069Y6635358D01*
X-22502075Y6635362D01*
X-22667225Y6690087D01*
X-22769152Y6700500D01*
X-23355848Y6700500D01*
X-23457775Y6690087D01*
X-23622925Y6635362D01*
X-23771003Y6544026D01*
X-23894026Y6421003D01*
X-23985362Y6272925D01*
X-24040087Y6107775D01*
X-24050500Y6005848D01*
X-24050500Y4994152D01*
X-24040087Y4892225D01*
X-23985362Y4727075D01*
X-23985358Y4727069D01*
X-23985357Y4727066D01*
X-23894028Y4579000D01*
X-23894025Y4578996D01*
X-23771003Y4455974D01*
X-23770999Y4455971D01*
X-23622933Y4364642D01*
X-23622927Y4364639D01*
X-23622925Y4364638D01*
X-23622922Y4364637D01*
X-23457776Y4309913D01*
X-23355855Y4299500D01*
X-23355848Y4299500D01*
X-22769144Y4299500D01*
X-22667223Y4309913D01*
X-22502077Y4364637D01*
X-22502066Y4364642D01*
X-22354000Y4455971D01*
X-22353996Y4455974D01*
X-22230975Y4578995D01*
X-22207938Y4616344D01*
X-22162136Y4690599D01*
X-22110191Y4737321D01*
X-22056600Y4749500D01*
X-21440638Y4749500D01*
X-21373599Y4729815D01*
X-21335100Y4690598D01*
X-21267712Y4581344D01*
X-21267710Y4581342D01*
X-21143656Y4457288D01*
X-21143652Y4457285D01*
X-21078423Y4417051D01*
X-21031698Y4365103D01*
X-21020477Y4296141D01*
X-21048320Y4232059D01*
X-21055830Y4223841D01*
X-21074281Y4205391D01*
X-21162549Y4062287D01*
X-21215436Y3902685D01*
X-21215436Y3902682D01*
X-21221475Y3843570D01*
X-21247871Y3778878D01*
X-21257143Y3768500D01*
X-22308099Y2717545D01*
X-22430045Y2595599D01*
X-22525858Y2452205D01*
X-22591855Y2292874D01*
X-22619613Y2153325D01*
X-22625499Y2123733D01*
X-22625500Y2123731D01*
X-22625500Y1918263D01*
X-22645185Y1851224D01*
X-22697989Y1805469D01*
X-22767147Y1795525D01*
X-22830703Y1824550D01*
X-22854494Y1852291D01*
X-22856882Y1856091D01*
X-22870184Y1877262D01*
X-22997738Y2004816D01*
X-23150478Y2100789D01*
X-23320745Y2160368D01*
X-23320750Y2160369D01*
X-23499996Y2180565D01*
X-23500004Y2180565D01*
X-23679249Y2160369D01*
X-23679252Y2160368D01*
X-23679255Y2160368D01*
X-23849522Y2100789D01*
X-24002262Y2004816D01*
X-24129816Y1877262D01*
X-24225789Y1724522D01*
X-24225790Y1724516D01*
X-24225792Y1724515D01*
X-24228813Y1718244D01*
X-24230657Y1719132D01*
X-24253306Y1683059D01*
X-25082952Y853416D01*
X-25121824Y795238D01*
X-25165084Y730495D01*
X-25221658Y593913D01*
X-25221659Y593907D01*
X-25250500Y448920D01*
X-25250500Y-2450028D01*
X-25257458Y-2490982D01*
X-25285368Y-2570745D01*
X-25285368Y-2570747D01*
X-25305565Y-2749996D01*
X-25305565Y-2750003D01*
X-25285730Y-2926044D01*
X-25285368Y-2929255D01*
X-25225789Y-3099522D01*
X-25129816Y-3252262D01*
X-25002262Y-3379816D01*
X-24849522Y-3475789D01*
X-24679255Y-3535368D01*
X-24679252Y-3535368D01*
X-24679249Y-3535369D01*
X-24500004Y-3555565D01*
X-24500000Y-3555565D01*
X-24499996Y-3555565D01*
X-24320750Y-3535369D01*
X-24320745Y-3535368D01*
X-24235039Y-3505378D01*
X-24150478Y-3475789D01*
X-24143903Y-3471658D01*
X-24047996Y-3411395D01*
X-23997738Y-3379816D01*
X-23870184Y-3252262D01*
X-23830536Y-3189163D01*
X-23774211Y-3099523D01*
X-23714631Y-2929254D01*
X-23714630Y-2929249D01*
X-23694435Y-2750003D01*
X-23694435Y-2749996D01*
X-23714631Y-2570747D01*
X-23742542Y-2490982D01*
X-23749500Y-2450028D01*
X-23749500Y12770D01*
X-23729815Y79809D01*
X-23713181Y100451D01*
X-23191939Y621692D01*
X-23155878Y644361D01*
X-23156758Y646186D01*
X-23150483Y649208D01*
X-22997737Y745184D01*
X-22870184Y872737D01*
X-22870182Y872740D01*
X-22854493Y897709D01*
X-22802158Y944000D01*
X-22733104Y954647D01*
X-22669256Y926271D01*
X-22630885Y867881D01*
X-22625500Y831736D01*
X-22625500Y-3163771D01*
X-22625500Y-3336229D01*
X-22591855Y-3505374D01*
X-22525858Y-3664705D01*
X-22430045Y-3808099D01*
X-21706309Y-4531833D01*
X-21672826Y-4593154D01*
X-21670521Y-4608067D01*
X-21660435Y-4716923D01*
X-21600817Y-4926459D01*
X-21503712Y-5121472D01*
X-21372427Y-5295322D01*
X-21248423Y-5408365D01*
X-21212145Y-5468073D01*
X-21213905Y-5537921D01*
X-21248423Y-5591634D01*
X-21372427Y-5704678D01*
X-21503712Y-5878528D01*
X-21600817Y-6073541D01*
X-21660435Y-6283077D01*
X-21680536Y-6500000D01*
X-21660435Y-6716923D01*
X-21626000Y-6837949D01*
X-21610745Y-6891566D01*
X-21611333Y-6961434D01*
X-21649600Y-7019892D01*
X-21713397Y-7048382D01*
X-21730012Y-7049500D01*
X-22100028Y-7049500D01*
X-22140983Y-7042542D01*
X-22220745Y-7014631D01*
X-22220750Y-7014630D01*
X-22399996Y-6994435D01*
X-22400004Y-6994435D01*
X-22579249Y-7014630D01*
X-22579254Y-7014631D01*
X-22749523Y-7074211D01*
X-22889586Y-7162219D01*
X-22902262Y-7170184D01*
X-23029816Y-7297738D01*
X-23084386Y-7384586D01*
X-23121977Y-7444412D01*
X-23125789Y-7450478D01*
X-23185107Y-7619999D01*
X-23185368Y-7620745D01*
X-23185369Y-7620750D01*
X-23205565Y-7799996D01*
X-23205565Y-7800003D01*
X-23185369Y-7979249D01*
X-23185366Y-7979262D01*
X-23138488Y-8113232D01*
X-23134926Y-8183011D01*
X-23169654Y-8243638D01*
X-23231648Y-8275866D01*
X-23301223Y-8269461D01*
X-23343210Y-8241868D01*
X-24562215Y-7022863D01*
X-24562219Y-7022860D01*
X-24726079Y-6913372D01*
X-24726089Y-6913367D01*
X-24908163Y-6837949D01*
X-24908171Y-6837947D01*
X-25101457Y-6799500D01*
X-25101460Y-6799500D01*
X-25298540Y-6799500D01*
X-25298543Y-6799500D01*
X-25491828Y-6837947D01*
X-25491836Y-6837949D01*
X-25673910Y-6913367D01*
X-25673920Y-6913372D01*
X-25837780Y-7022860D01*
X-25837784Y-7022863D01*
X-25977136Y-7162215D01*
X-25977139Y-7162219D01*
X-26086627Y-7326079D01*
X-26086629Y-7326083D01*
X-26086631Y-7326086D01*
X-26162051Y-7508164D01*
X-26191362Y-7655519D01*
X-26200499Y-7701455D01*
X-26200500Y-7701457D01*
X-26200500Y-7701460D01*
X-26200500Y-7898540D01*
X-26162051Y-8091836D01*
X-26086631Y-8273914D01*
X-25977139Y-8437781D01*
X-25977136Y-8437784D01*
X-11777102Y-22637819D01*
X-11743617Y-22699142D01*
X-11748601Y-22768834D01*
X-11790473Y-22824767D01*
X-11855937Y-22849184D01*
X-11864783Y-22849500D01*
X-13460222Y-22849500D01*
X-13569086Y-22866742D01*
X-13677952Y-22883985D01*
X-13887603Y-22952103D01*
X-13887606Y-22952104D01*
X-14021096Y-23020122D01*
X-14084022Y-23052185D01*
X-14084024Y-23052186D01*
X-14084025Y-23052187D01*
X-14262358Y-23181752D01*
X-14262363Y-23181756D01*
X-14418243Y-23337636D01*
X-14418247Y-23337641D01*
X-14531260Y-23493192D01*
X-14547815Y-23515978D01*
X-14599259Y-23616942D01*
X-14647895Y-23712393D01*
X-14647896Y-23712396D01*
X-14657832Y-23742976D01*
X-14716015Y-23922049D01*
X-14750500Y-24139778D01*
X-14750500Y-24360222D01*
X-14716015Y-24577951D01*
X-14647895Y-24787606D01*
X-14547815Y-24984022D01*
X-14418242Y-25162365D01*
X-14262365Y-25318242D01*
X-14084022Y-25447815D01*
X-13887606Y-25547895D01*
X-13677951Y-25616015D01*
X-13460222Y-25650500D01*
X-13460221Y-25650500D01*
X-10539779Y-25650500D01*
X-10539778Y-25650500D01*
X-10322049Y-25616015D01*
X-10217221Y-25581955D01*
X-10112396Y-25547896D01*
X-10112393Y-25547895D01*
X-10045901Y-25514015D01*
X-9989606Y-25500500D01*
X-2010394Y-25500500D01*
X-1954098Y-25514015D01*
X-1887606Y-25547895D01*
X-1677951Y-25616015D01*
X-1520539Y-25640946D01*
X-1457407Y-25670875D01*
X-1420475Y-25730186D01*
X-1421473Y-25800049D01*
X-1441560Y-25838901D01*
X-1541934Y-25969711D01*
X-1663222Y-26179788D01*
X-1756052Y-26403900D01*
X-1818836Y-26638211D01*
X-1850498Y-26878712D01*
X-1850498Y-27121288D01*
X-1818836Y-27361789D01*
X-1756052Y-27596100D01*
X-1663222Y-27820212D01*
X-1541934Y-28030289D01*
X-1394263Y-28222738D01*
X-1222736Y-28394265D01*
X-1030287Y-28541936D01*
X-820210Y-28663224D01*
X-596098Y-28756054D01*
X-361787Y-28818838D01*
X-169386Y-28844167D01*
X-121287Y-28850500D01*
X-121286Y-28850500D01*
X121291Y-28850500D01*
X169390Y-28844167D01*
X361791Y-28818838D01*
X596102Y-28756054D01*
X820214Y-28663224D01*
X1030291Y-28541936D01*
X1222740Y-28394265D01*
X1394267Y-28222738D01*
X1541938Y-28030289D01*
X1663226Y-27820212D01*
X1756056Y-27596100D01*
X1818840Y-27361789D01*
X1850502Y-27121288D01*
X1850502Y-26878712D01*
X1818840Y-26638211D01*
X1756056Y-26403900D01*
X1663226Y-26179788D01*
X1541938Y-25969711D01*
X1450565Y-25850631D01*
X1441567Y-25838904D01*
X1416373Y-25773735D01*
X1430411Y-25705290D01*
X1479226Y-25655301D01*
X1520542Y-25640946D01*
X1677951Y-25616015D01*
X1887606Y-25547895D01*
X2084022Y-25447815D01*
X2262365Y-25318242D01*
X2418242Y-25162365D01*
X2547815Y-24984022D01*
X2647895Y-24787606D01*
X2716015Y-24577951D01*
X2750500Y-24360222D01*
X2750500Y-24139778D01*
X2716015Y-23922049D01*
X2700408Y-23874014D01*
X2680525Y-23812817D01*
X2678530Y-23742976D01*
X2714611Y-23683143D01*
X2777312Y-23652316D01*
X2798456Y-23650500D01*
X17248791Y-23650500D01*
X17315830Y-23670185D01*
X17361585Y-23722989D01*
X17371529Y-23792147D01*
X17342504Y-23855703D01*
X17322773Y-23874011D01*
X17258163Y-23922045D01*
X17166369Y-23990286D01*
X17162686Y-23992921D01*
X16278728Y-24601241D01*
X16274950Y-24603740D01*
X15369403Y-25179346D01*
X15365537Y-25181706D01*
X14439539Y-25723875D01*
X14435589Y-25726092D01*
X13490405Y-26234081D01*
X13486376Y-26236152D01*
X12523282Y-26709276D01*
X12519181Y-26711198D01*
X11539480Y-27148820D01*
X11535312Y-27150592D01*
X10540228Y-27552162D01*
X10535997Y-27553780D01*
X9526928Y-27918734D01*
X9522641Y-27920196D01*
X8500940Y-28248045D01*
X8496603Y-28249350D01*
X7463592Y-28539671D01*
X7459209Y-28540817D01*
X6416287Y-28793216D01*
X6411866Y-28794201D01*
X5360397Y-29008347D01*
X5355943Y-29009169D01*
X4297410Y-29184761D01*
X4292929Y-29185421D01*
X3228632Y-29322244D01*
X3224130Y-29322739D01*
X2155589Y-29420596D01*
X2151071Y-29420927D01*
X1079631Y-29479695D01*
X1075105Y-29479860D01*
X2265Y-29499458D01*
X-2265Y-29499458D01*
X-1075105Y-29479860D01*
X-1079631Y-29479695D01*
X-2151071Y-29420927D01*
X-2155589Y-29420596D01*
X-3224130Y-29322739D01*
X-3228632Y-29322244D01*
X-4292929Y-29185421D01*
X-4297410Y-29184761D01*
X-5355943Y-29009169D01*
X-5360397Y-29008347D01*
X-6411866Y-28794201D01*
X-6416287Y-28793216D01*
X-7459209Y-28540817D01*
X-7463592Y-28539671D01*
X-8496603Y-28249350D01*
X-8500940Y-28248045D01*
X-9522641Y-27920196D01*
X-9526928Y-27918734D01*
X-10535997Y-27553780D01*
X-10540228Y-27552162D01*
X-11535312Y-27150592D01*
X-11539480Y-27148820D01*
X-12519181Y-26711198D01*
X-12523282Y-26709276D01*
X-13486376Y-26236152D01*
X-13490405Y-26234081D01*
X-14435589Y-25726092D01*
X-14439539Y-25723875D01*
X-15365537Y-25181706D01*
X-15369403Y-25179346D01*
X-16274950Y-24603740D01*
X-16278728Y-24601241D01*
X-17162700Y-23992911D01*
X-17166383Y-23990275D01*
X-18027496Y-23350105D01*
X-18031081Y-23347337D01*
X-18868254Y-22676132D01*
X-18871736Y-22673235D01*
X-19683868Y-21971877D01*
X-19687241Y-21968854D01*
X-20473182Y-21238335D01*
X-20476443Y-21235191D01*
X-21235191Y-20476443D01*
X-21238335Y-20473182D01*
X-21968854Y-19687241D01*
X-21971877Y-19683868D01*
X-22673235Y-18871736D01*
X-22676132Y-18868254D01*
X-23347337Y-18031081D01*
X-23350105Y-18027496D01*
X-23990275Y-17166383D01*
X-23992911Y-17162700D01*
X-24601241Y-16278728D01*
X-24603740Y-16274950D01*
X-25179346Y-15369403D01*
X-25181706Y-15365537D01*
X-25723875Y-14439539D01*
X-25726092Y-14435589D01*
X-26234081Y-13490405D01*
X-26236152Y-13486376D01*
X-26709276Y-12523282D01*
X-26711198Y-12519181D01*
X-27148820Y-11539480D01*
X-27150592Y-11535312D01*
X-27552162Y-10540228D01*
X-27553780Y-10535997D01*
X-27918734Y-9526928D01*
X-27920196Y-9522641D01*
X-28248045Y-8500940D01*
X-28249350Y-8496603D01*
X-28539671Y-7463592D01*
X-28540817Y-7459209D01*
X-28793216Y-6416287D01*
X-28794201Y-6411866D01*
X-29008347Y-5360397D01*
X-29009169Y-5355943D01*
X-29184761Y-4297410D01*
X-29185421Y-4292929D01*
X-29322244Y-3228632D01*
X-29322739Y-3224130D01*
X-29420596Y-2155589D01*
X-29420927Y-2151071D01*
X-29479695Y-1079631D01*
X-29479860Y-1075105D01*
X-29499458Y-2265D01*
X-29499458Y2265D01*
X-29479860Y1075105D01*
X-29479695Y1079631D01*
X-29420927Y2151071D01*
X-29420596Y2155589D01*
X-29322739Y3224130D01*
X-29322244Y3228632D01*
X-29185421Y4292929D01*
X-29184761Y4297410D01*
X-29009169Y5355943D01*
X-29008347Y5360397D01*
X-28794201Y6411866D01*
X-28793216Y6416287D01*
X-28540817Y7459209D01*
X-28539671Y7463592D01*
X-28249350Y8496603D01*
X-28248045Y8500940D01*
X-27920196Y9522641D01*
X-27918734Y9526928D01*
X-27553780Y10535997D01*
X-27552162Y10540228D01*
X-27150592Y11535312D01*
X-27148820Y11539480D01*
X-26711198Y12519181D01*
X-26709276Y12523282D01*
X-26236152Y13486376D01*
X-26234081Y13490405D01*
X-25726092Y14435589D01*
X-25723875Y14439539D01*
X-25181706Y15365537D01*
X-25179346Y15369403D01*
X-24603740Y16274950D01*
X-24601241Y16278728D01*
X-23992911Y17162700D01*
X-23990275Y17166383D01*
X-23350105Y18027496D01*
X-23347337Y18031081D01*
X-23276330Y18119646D01*
X-21756989Y18119646D01*
X-21725327Y17879145D01*
X-21662543Y17644834D01*
X-21569713Y17420722D01*
X-21448425Y17210645D01*
X-21414462Y17166383D01*
X-21300755Y17018197D01*
X-21300749Y17018190D01*
X-21129232Y16846673D01*
X-21129225Y16846667D01*
X-20949662Y16708884D01*
X-20936778Y16698998D01*
X-20799125Y16619524D01*
X-20726703Y16577711D01*
X-20726694Y16577707D01*
X-20502593Y16484881D01*
X-20268274Y16422095D01*
X-20027778Y16390434D01*
X-20027777Y16390434D01*
X-19785200Y16390434D01*
X-19544703Y16422095D01*
X-19310384Y16484881D01*
X-19086283Y16577707D01*
X-19086274Y16577711D01*
X-18876195Y16699001D01*
X-18683752Y16846667D01*
X-18683745Y16846673D01*
X-18512228Y17018190D01*
X-18512222Y17018197D01*
X-18364556Y17210640D01*
X-18243266Y17420719D01*
X-18243262Y17420728D01*
X-18150436Y17644829D01*
X-18087650Y17879148D01*
X-18055989Y18119645D01*
X-18055989Y18362222D01*
X-18087650Y18602719D01*
X-18150436Y18837038D01*
X-18243262Y19061139D01*
X-18243266Y19061148D01*
X-18326830Y19205884D01*
X-18364553Y19271223D01*
X-18406465Y19325844D01*
X-18512222Y19463670D01*
X-18512228Y19463677D01*
X-18683745Y19635194D01*
X-18683752Y19635200D01*
X-18876195Y19782866D01*
X-18876200Y19782870D01*
X-19086277Y19904158D01*
X-19310389Y19996988D01*
X-19544700Y20059772D01*
X-19725075Y20083518D01*
X-19785200Y20091434D01*
X-19785201Y20091434D01*
X-20027777Y20091434D01*
X-20027778Y20091434D01*
X-20075877Y20085101D01*
X-20268278Y20059772D01*
X-20502589Y19996988D01*
X-20726701Y19904158D01*
X-20936778Y19782870D01*
X-21129227Y19635199D01*
X-21300754Y19463672D01*
X-21448425Y19271223D01*
X-21569713Y19061146D01*
X-21662543Y18837034D01*
X-21725327Y18602723D01*
X-21756989Y18362222D01*
X-21756989Y18119646D01*
X-23276330Y18119646D01*
X-22676132Y18868254D01*
X-22673235Y18871736D01*
X-21971877Y19683868D01*
X-21968854Y19687241D01*
X-21238335Y20473182D01*
X-21235191Y20476443D01*
X-20476443Y21235191D01*
X-20473182Y21238335D01*
X-19687241Y21968854D01*
X-19683868Y21971877D01*
X-18871736Y22673235D01*
X-18868254Y22676132D01*
X-18031081Y23347337D01*
X-18027496Y23350105D01*
X-17166383Y23990275D01*
X-17162700Y23992911D01*
X-16278728Y24601241D01*
X-16274950Y24603740D01*
X-15369403Y25179346D01*
X-15365537Y25181706D01*
X-14439539Y25723875D01*
X-14435589Y25726092D01*
X-13490405Y26234081D01*
X-13486376Y26236152D01*
X-12523282Y26709276D01*
X-12519181Y26711198D01*
X-11539480Y27148820D01*
X-11535312Y27150592D01*
X-10540228Y27552162D01*
X-10535997Y27553780D01*
X-9526928Y27918734D01*
X-9522641Y27920196D01*
X-8500940Y28248045D01*
X-8496603Y28249350D01*
X-7463592Y28539671D01*
X-7459209Y28540817D01*
X-6530950Y28765466D01*
X-6461162Y28762103D01*
G37*
%TD.AperFunction*%
%TA.AperFunction,Conductor*%
G36*
X-2667107Y23678198D02*
G01*
X-2611174Y23636326D01*
X-2599960Y23618318D01*
X-2547815Y23515978D01*
X-2547812Y23515973D01*
X-2418247Y23337641D01*
X-2418243Y23337636D01*
X-2262363Y23181756D01*
X-2262358Y23181752D01*
X-2084025Y23052187D01*
X-2084022Y23052185D01*
X-2021096Y23020122D01*
X-1887606Y22952104D01*
X-1887603Y22952103D01*
X-1677952Y22883985D01*
X-1569086Y22866742D01*
X-1460222Y22849500D01*
X-1460221Y22849500D01*
X1460221Y22849500D01*
X1460222Y22849500D01*
X1514654Y22858121D01*
X1677954Y22883985D01*
X1787183Y22919475D01*
X1857024Y22921470D01*
X1916857Y22885389D01*
X1947684Y22822688D01*
X1949500Y22801544D01*
X1949500Y17562229D01*
X1929815Y17495190D01*
X1913181Y17474548D01*
X903621Y16464990D01*
X903620Y16464988D01*
X871589Y16417049D01*
X843848Y16375531D01*
X821486Y16342064D01*
X764915Y16205489D01*
X764912Y16205479D01*
X736072Y16060492D01*
X736072Y16037157D01*
X716387Y15970118D01*
X663583Y15924363D01*
X594425Y15914419D01*
X530869Y15943444D01*
X524391Y15949476D01*
X76519Y16397348D01*
X-538181Y17012049D01*
X-571666Y17073372D01*
X-574500Y17099730D01*
X-574500Y17500001D01*
X-574501Y17500019D01*
X-585000Y17602796D01*
X-585001Y17602799D01*
X-640185Y17769331D01*
X-640187Y17769336D01*
X-707918Y17879145D01*
X-732288Y17918656D01*
X-856344Y18042712D01*
X-1005666Y18134814D01*
X-1172203Y18189999D01*
X-1274991Y18200500D01*
X-1900008Y18200499D01*
X-1900016Y18200498D01*
X-1900019Y18200498D01*
X-1930943Y18197339D01*
X-2002797Y18189999D01*
X-2169334Y18134814D01*
X-2318656Y18042712D01*
X-2379342Y17982026D01*
X-2412319Y17949049D01*
X-2473642Y17915564D01*
X-2543334Y17920548D01*
X-2587681Y17949049D01*
X-2681342Y18042710D01*
X-2681344Y18042712D01*
X-2830666Y18134814D01*
X-2997203Y18189999D01*
X-3099991Y18200500D01*
X-3725008Y18200499D01*
X-3725016Y18200498D01*
X-3725019Y18200498D01*
X-3755943Y18197339D01*
X-3827797Y18189999D01*
X-3994334Y18134814D01*
X-4143656Y18042712D01*
X-4267712Y17918656D01*
X-4359814Y17769334D01*
X-4414999Y17602797D01*
X-4425500Y17500009D01*
X-4425499Y17220924D01*
X-4425499Y17187228D01*
X-4445183Y17120189D01*
X-4461813Y17099552D01*
X-4808061Y16753305D01*
X-4844134Y16730650D01*
X-4843248Y16728810D01*
X-4849510Y16725792D01*
X-4849522Y16725789D01*
X-5002262Y16629816D01*
X-5129816Y16502262D01*
X-5225789Y16349522D01*
X-5281971Y16188962D01*
X-5285368Y16179254D01*
X-5285369Y16179249D01*
X-5305565Y16000003D01*
X-5305565Y15999996D01*
X-5285862Y15825128D01*
X-5285368Y15820745D01*
X-5227984Y15656750D01*
X-5225788Y15650476D01*
X-5129815Y15497737D01*
X-5002262Y15370184D01*
X-4849523Y15274211D01*
X-4679254Y15214631D01*
X-4679249Y15214630D01*
X-4500004Y15194435D01*
X-4500000Y15194435D01*
X-4499996Y15194435D01*
X-4320750Y15214630D01*
X-4320745Y15214631D01*
X-4150476Y15274211D01*
X-3997737Y15370184D01*
X-3870184Y15497737D01*
X-3774212Y15650475D01*
X-3771191Y15656750D01*
X-3769365Y15655871D01*
X-3746695Y15691934D01*
X-3675451Y15763180D01*
X-3614129Y15796666D01*
X-3587769Y15799500D01*
X-3412230Y15799500D01*
X-3345191Y15779815D01*
X-3324549Y15763181D01*
X-2636818Y15075450D01*
X-2603333Y15014127D01*
X-2600499Y14987769D01*
X-2600499Y14499998D01*
X-2600498Y14499981D01*
X-2598039Y14475911D01*
X-2589999Y14397203D01*
X-2534814Y14230666D01*
X-2442712Y14081344D01*
X-2318656Y13957288D01*
X-2169334Y13865186D01*
X-2169330Y13865184D01*
X-2163325Y13862385D01*
X-2110884Y13816215D01*
X-2091728Y13749023D01*
X-2111940Y13682141D01*
X-2163325Y13637615D01*
X-2169322Y13634817D01*
X-2169334Y13634814D01*
X-2318656Y13542712D01*
X-2370963Y13490405D01*
X-2412319Y13449049D01*
X-2473642Y13415564D01*
X-2543334Y13420548D01*
X-2587681Y13449049D01*
X-2681342Y13542710D01*
X-2681344Y13542712D01*
X-2830666Y13634814D01*
X-2997203Y13689999D01*
X-3099991Y13700500D01*
X-3725008Y13700499D01*
X-3725016Y13700498D01*
X-3725019Y13700498D01*
X-3781302Y13694748D01*
X-3827797Y13689999D01*
X-3994334Y13634814D01*
X-4143656Y13542712D01*
X-4267712Y13418656D01*
X-4359814Y13269334D01*
X-4414999Y13102797D01*
X-4425500Y13000009D01*
X-4425499Y12808915D01*
X-4425499Y12687228D01*
X-4445183Y12620189D01*
X-4461813Y12599552D01*
X-4808061Y12253305D01*
X-4844134Y12230650D01*
X-4843248Y12228810D01*
X-4849510Y12225792D01*
X-4849522Y12225789D01*
X-5002262Y12129816D01*
X-5129816Y12002262D01*
X-5225789Y11849522D01*
X-5280370Y11693538D01*
X-5285368Y11679254D01*
X-5285369Y11679249D01*
X-5305565Y11500003D01*
X-5305565Y11499996D01*
X-5286538Y11331129D01*
X-5285368Y11320745D01*
X-5225797Y11150500D01*
X-5225788Y11150476D01*
X-5194386Y11100500D01*
X-5135978Y11007544D01*
X-5129815Y10997737D01*
X-5002262Y10870184D01*
X-4849523Y10774211D01*
X-4679254Y10714631D01*
X-4679249Y10714630D01*
X-4500004Y10694435D01*
X-4500000Y10694435D01*
X-4499996Y10694435D01*
X-4320750Y10714630D01*
X-4320745Y10714631D01*
X-4150476Y10774211D01*
X-3997737Y10870184D01*
X-3870184Y10997737D01*
X-3774212Y11150475D01*
X-3771191Y11156750D01*
X-3769365Y11155871D01*
X-3746695Y11191934D01*
X-3675451Y11263180D01*
X-3614129Y11296666D01*
X-3587769Y11299500D01*
X-3324730Y11299500D01*
X-3257691Y11279815D01*
X-3237049Y11263181D01*
X-2636818Y10662950D01*
X-2603333Y10601627D01*
X-2600499Y10575269D01*
X-2600499Y9999992D01*
X-2589999Y9897203D01*
X-2534814Y9730666D01*
X-2442712Y9581344D01*
X-2318656Y9457288D01*
X-2169334Y9365186D01*
X-2169331Y9365185D01*
X-2163325Y9362385D01*
X-2110884Y9316215D01*
X-2091728Y9249023D01*
X-2111940Y9182141D01*
X-2163325Y9137615D01*
X-2169322Y9134817D01*
X-2169334Y9134814D01*
X-2318656Y9042712D01*
X-2368287Y8993081D01*
X-2412319Y8949049D01*
X-2473642Y8915564D01*
X-2543334Y8920548D01*
X-2587681Y8949049D01*
X-2681342Y9042710D01*
X-2681344Y9042712D01*
X-2830666Y9134814D01*
X-2997203Y9189999D01*
X-3099991Y9200500D01*
X-3725008Y9200499D01*
X-3725016Y9200498D01*
X-3725019Y9200498D01*
X-3781302Y9194748D01*
X-3827797Y9189999D01*
X-3994334Y9134814D01*
X-4143656Y9042712D01*
X-4267712Y8918656D01*
X-4359814Y8769334D01*
X-4414999Y8602797D01*
X-4425500Y8500009D01*
X-4425499Y8317756D01*
X-4425499Y8187228D01*
X-4445183Y8120189D01*
X-4461813Y8099552D01*
X-4808061Y7753305D01*
X-4844134Y7730650D01*
X-4843248Y7728810D01*
X-4849510Y7725792D01*
X-4849522Y7725789D01*
X-5002262Y7629816D01*
X-5129816Y7502262D01*
X-5225789Y7349522D01*
X-5267127Y7231384D01*
X-5285368Y7179254D01*
X-5285369Y7179249D01*
X-5305565Y7000003D01*
X-5305565Y6999996D01*
X-5291455Y6874769D01*
X-5285368Y6820745D01*
X-5227984Y6656750D01*
X-5225788Y6650476D01*
X-5205759Y6618601D01*
X-5160898Y6547204D01*
X-5129815Y6497737D01*
X-5002262Y6370184D01*
X-4849523Y6274211D01*
X-4679254Y6214631D01*
X-4679249Y6214630D01*
X-4500004Y6194435D01*
X-4500000Y6194435D01*
X-4499996Y6194435D01*
X-4320750Y6214630D01*
X-4320745Y6214631D01*
X-4150476Y6274211D01*
X-3997737Y6370184D01*
X-3870184Y6497737D01*
X-3774212Y6650475D01*
X-3771191Y6656750D01*
X-3769365Y6655871D01*
X-3746695Y6691934D01*
X-3675451Y6763180D01*
X-3614129Y6796666D01*
X-3587769Y6799500D01*
X-3412230Y6799500D01*
X-3345191Y6779815D01*
X-3324549Y6763181D01*
X-2636818Y6075450D01*
X-2603333Y6014127D01*
X-2600499Y5987769D01*
X-2600499Y5499998D01*
X-2600498Y5499981D01*
X-2598245Y5477927D01*
X-2589999Y5397203D01*
X-2534814Y5230666D01*
X-2442712Y5081344D01*
X-2442710Y5081342D01*
X-2324049Y4962681D01*
X-2290564Y4901358D01*
X-2295548Y4831666D01*
X-2324049Y4787319D01*
X-2412319Y4699049D01*
X-2473642Y4665564D01*
X-2543334Y4670548D01*
X-2587681Y4699049D01*
X-2681342Y4792710D01*
X-2681344Y4792712D01*
X-2830666Y4884814D01*
X-2997203Y4939999D01*
X-3099991Y4950500D01*
X-3725008Y4950499D01*
X-3725016Y4950498D01*
X-3725019Y4950498D01*
X-3781302Y4944748D01*
X-3827797Y4939999D01*
X-3994334Y4884814D01*
X-4143656Y4792712D01*
X-4209291Y4727077D01*
X-4272819Y4663549D01*
X-4274705Y4665435D01*
X-4321625Y4632212D01*
X-4361868Y4625500D01*
X-5086232Y4625500D01*
X-5171186Y4608600D01*
X-5255374Y4591855D01*
X-5414705Y4525858D01*
X-5558099Y4430045D01*
X-5680045Y4308099D01*
X-5775858Y4164705D01*
X-5841855Y4005374D01*
X-5872856Y3849522D01*
X-5875499Y3836233D01*
X-5875500Y3836231D01*
X-5875500Y3663768D01*
X-5875499Y3663766D01*
X-5841855Y3494626D01*
X-5841853Y3494621D01*
X-5775861Y3335301D01*
X-5775854Y3335288D01*
X-5680045Y3191901D01*
X-5680042Y3191897D01*
X-5558102Y3069957D01*
X-5558098Y3069954D01*
X-5414711Y2974145D01*
X-5414698Y2974138D01*
X-5255378Y2908146D01*
X-5255366Y2908143D01*
X-5086233Y2874500D01*
X-5086229Y2874500D01*
X-4361868Y2874500D01*
X-4294829Y2854815D01*
X-4273653Y2835616D01*
X-4272819Y2836451D01*
X-4267712Y2831344D01*
X-4143656Y2707288D01*
X-3994334Y2615186D01*
X-3827797Y2560001D01*
X-3827795Y2560000D01*
X-3725010Y2549500D01*
X-3725009Y2549500D01*
X-3099998Y2549500D01*
X-3099980Y2549501D01*
X-2997203Y2560000D01*
X-2997200Y2560001D01*
X-2830668Y2615185D01*
X-2830663Y2615187D01*
X-2681342Y2707289D01*
X-2587681Y2800951D01*
X-2526358Y2834436D01*
X-2456666Y2829452D01*
X-2412319Y2800951D01*
X-2318656Y2707288D01*
X-2169334Y2615186D01*
X-2002797Y2560001D01*
X-2002795Y2560000D01*
X-1900016Y2549500D01*
X-1900009Y2549500D01*
X-1499730Y2549500D01*
X-1432691Y2529815D01*
X-1412049Y2513181D01*
X-817131Y1918263D01*
X-361048Y1462181D01*
X-327563Y1400858D01*
X-332547Y1331166D01*
X-374419Y1275233D01*
X-439883Y1250816D01*
X-448729Y1250500D01*
X-522737Y1250500D01*
X-589776Y1270185D01*
X-627215Y1307714D01*
X-629155Y1310750D01*
X-745059Y1454940D01*
X-868611Y1554254D01*
X-889247Y1570842D01*
X-1054979Y1653037D01*
X-1234501Y1697682D01*
X-1234502Y1697682D01*
X-1234505Y1697683D01*
X-1276046Y1700500D01*
X-2123954Y1700500D01*
X-2165495Y1697683D01*
X-2345021Y1653037D01*
X-2510753Y1570842D01*
X-2654940Y1454940D01*
X-2770842Y1310753D01*
X-2853037Y1145021D01*
X-2897683Y965495D01*
X-2900500Y923954D01*
X-2900500Y76046D01*
X-2897683Y34505D01*
X-2853037Y-145021D01*
X-2770842Y-310753D01*
X-2654940Y-454940D01*
X-2510753Y-570842D01*
X-2345021Y-653037D01*
X-2165499Y-697682D01*
X-2165498Y-697682D01*
X-2165495Y-697683D01*
X-2123954Y-700500D01*
X-2123952Y-700500D01*
X-1276048Y-700500D01*
X-1276046Y-700500D01*
X-1234505Y-697683D01*
X-1234501Y-697682D01*
X-1234500Y-697682D01*
X-1190566Y-686756D01*
X-1054979Y-653037D01*
X-889247Y-570842D01*
X-801114Y-499998D01*
X-745059Y-454940D01*
X-629155Y-310750D01*
X-627215Y-307714D01*
X-625549Y-306263D01*
X-624946Y-305513D01*
X-624811Y-305621D01*
X-574522Y-261831D01*
X-522737Y-250500D01*
X1200028Y-250500D01*
X1240983Y-257458D01*
X1320745Y-285368D01*
X1320750Y-285369D01*
X1499996Y-305565D01*
X1500000Y-305565D01*
X1500004Y-305565D01*
X1679249Y-285369D01*
X1679252Y-285368D01*
X1679255Y-285368D01*
X1849522Y-225789D01*
X2002262Y-129816D01*
X2129816Y-2262D01*
X2225789Y150478D01*
X2285368Y320745D01*
X2285851Y325028D01*
X2305565Y499996D01*
X2305565Y500003D01*
X2285369Y679249D01*
X2285366Y679262D01*
X2266022Y734545D01*
X2262460Y804324D01*
X2297188Y864951D01*
X2359182Y897179D01*
X2383063Y899500D01*
X4975500Y899500D01*
X5042539Y879815D01*
X5088294Y827011D01*
X5099500Y775500D01*
X5099500Y-173918D01*
X5099500Y-173920D01*
X5099499Y-173920D01*
X5128340Y-318907D01*
X5128343Y-318917D01*
X5184912Y-455488D01*
X5184920Y-455502D01*
X5213140Y-497735D01*
X5213141Y-497738D01*
X5213142Y-497738D01*
X5261987Y-570842D01*
X5267051Y-578420D01*
X5267052Y-578421D01*
X6271580Y-1582948D01*
X6271584Y-1582951D01*
X6394498Y-1665080D01*
X6394511Y-1665087D01*
X6531082Y-1721656D01*
X6531087Y-1721658D01*
X6531091Y-1721658D01*
X6531092Y-1721659D01*
X6676079Y-1750500D01*
X6676082Y-1750500D01*
X6823917Y-1750500D01*
X8018942Y-1750500D01*
X8085981Y-1770185D01*
X8124479Y-1809401D01*
X8207288Y-1943656D01*
X8252124Y-1988492D01*
X8263181Y-1999548D01*
X8296666Y-2060871D01*
X8299500Y-2087230D01*
X8299500Y-2456200D01*
X8279815Y-2523239D01*
X8231795Y-2566684D01*
X8120805Y-2623236D01*
X8018885Y-2697286D01*
X7967927Y-2734310D01*
X7967925Y-2734312D01*
X7967924Y-2734312D01*
X7834312Y-2867924D01*
X7834312Y-2867925D01*
X7834310Y-2867927D01*
X7827852Y-2876816D01*
X7723240Y-3020800D01*
X7637454Y-3189163D01*
X7579059Y-3368881D01*
X7549500Y-3555513D01*
X7549500Y-4444486D01*
X7575098Y-4606102D01*
X7566144Y-4675395D01*
X7521148Y-4728847D01*
X7454396Y-4749487D01*
X7452625Y-4749500D01*
X1993602Y-4749500D01*
X1926563Y-4729815D01*
X1905921Y-4713181D01*
X-540206Y-2267052D01*
X-540213Y-2267046D01*
X-624519Y-2210716D01*
X-624520Y-2210716D01*
X-663126Y-2184919D01*
X-663139Y-2184912D01*
X-799710Y-2128343D01*
X-799720Y-2128340D01*
X-944708Y-2099500D01*
X-944710Y-2099500D01*
X-2787770Y-2099500D01*
X-2854809Y-2079815D01*
X-2875451Y-2063181D01*
X-3706809Y-1231823D01*
X-3740294Y-1170500D01*
X-3743128Y-1144142D01*
X-3743128Y325028D01*
X-3736170Y365982D01*
X-3708259Y445747D01*
X-3688063Y624996D01*
X-3688063Y625003D01*
X-3708258Y804249D01*
X-3708259Y804254D01*
X-3767839Y974523D01*
X-3863812Y1127262D01*
X-3991365Y1254815D01*
X-3991366Y1254816D01*
X-4097173Y1321299D01*
X-4144104Y1350788D01*
X-4144106Y1350789D01*
X-4314373Y1410368D01*
X-4314378Y1410369D01*
X-4493624Y1430565D01*
X-4493632Y1430565D01*
X-4672877Y1410369D01*
X-4672880Y1410368D01*
X-4672883Y1410368D01*
X-4843150Y1350789D01*
X-4971726Y1269999D01*
X-5001786Y1251111D01*
X-5002635Y1252463D01*
X-5059537Y1229227D01*
X-5128234Y1241976D01*
X-5179132Y1289841D01*
X-5196073Y1357626D01*
X-5195397Y1366462D01*
X-5194821Y1371575D01*
X-5194435Y1375000D01*
X-5196448Y1392870D01*
X-5214630Y1554249D01*
X-5214631Y1554254D01*
X-5274211Y1724523D01*
X-5370184Y1877262D01*
X-5497737Y2004815D01*
X-5497738Y2004816D01*
X-5650478Y2100789D01*
X-5820745Y2160368D01*
X-5820750Y2160369D01*
X-5999996Y2180565D01*
X-6000004Y2180565D01*
X-6179249Y2160369D01*
X-6179252Y2160368D01*
X-6179255Y2160368D01*
X-6349522Y2100789D01*
X-6502262Y2004816D01*
X-6629816Y1877262D01*
X-6725789Y1724522D01*
X-6779564Y1570842D01*
X-6785368Y1554254D01*
X-6785369Y1554249D01*
X-6805565Y1375003D01*
X-6805565Y1374996D01*
X-6793734Y1269999D01*
X-6785368Y1195745D01*
X-6780990Y1183234D01*
X-6757458Y1115982D01*
X-6750500Y1075028D01*
X-6750500Y-2595239D01*
X-6721658Y-2740234D01*
X-6665084Y-2876816D01*
X-6632187Y-2926047D01*
X-6632187Y-2926050D01*
X-6602752Y-2970102D01*
X-6582952Y-2999737D01*
X-2504272Y-7078416D01*
X-2399737Y-7182951D01*
X-2276816Y-7265084D01*
X-2140234Y-7321658D01*
X-2117973Y-7326086D01*
X-1995241Y-7350500D01*
X-1995239Y-7350500D01*
X2352625Y-7350500D01*
X2419664Y-7370185D01*
X2465419Y-7422989D01*
X2475363Y-7492147D01*
X2475098Y-7493898D01*
X2449500Y-7655513D01*
X2449500Y-7844486D01*
X2479060Y-8031121D01*
X2499341Y-8093541D01*
X2501336Y-8163382D01*
X2469091Y-8219539D01*
X1788949Y-8899681D01*
X1727626Y-8933166D01*
X1662264Y-8929706D01*
X1602798Y-8910001D01*
X1500010Y-8899500D01*
X499998Y-8899500D01*
X499980Y-8899501D01*
X397203Y-8910000D01*
X397200Y-8910001D01*
X230668Y-8965185D01*
X230663Y-8965187D01*
X81342Y-9057289D01*
X-21180Y-9159812D01*
X-42712Y-9181344D01*
X-134814Y-9330666D01*
X-189999Y-9497203D01*
X-200500Y-9599991D01*
X-200499Y-10225008D01*
X-189999Y-10327797D01*
X-134814Y-10494334D01*
X-42712Y-10643656D01*
X81344Y-10767712D01*
X190597Y-10835099D01*
X237321Y-10887047D01*
X249500Y-10940638D01*
X249500Y-11018942D01*
X229815Y-11085981D01*
X190598Y-11124479D01*
X104209Y-11177764D01*
X56342Y-11207289D01*
X-67710Y-11331342D01*
X-67712Y-11331344D01*
X-159814Y-11480666D01*
X-214999Y-11647203D01*
X-225500Y-11749991D01*
X-225499Y-12350008D01*
X-214999Y-12452797D01*
X-159814Y-12619334D01*
X-67712Y-12768656D01*
X56344Y-12892712D01*
X59180Y-12894461D01*
X60716Y-12896169D01*
X62011Y-12897193D01*
X61836Y-12897414D01*
X105904Y-12946406D01*
X117128Y-13015368D01*
X89287Y-13079451D01*
X59182Y-13105537D01*
X56349Y-13107285D01*
X56341Y-13107290D01*
X-16183Y-13179815D01*
X-67712Y-13231344D01*
X-159814Y-13380666D01*
X-214999Y-13547203D01*
X-225500Y-13649991D01*
X-225499Y-14250008D01*
X-214999Y-14352797D01*
X-159814Y-14519334D01*
X-67712Y-14668656D01*
X56344Y-14792712D01*
X205666Y-14884814D01*
X372203Y-14939999D01*
X474991Y-14950500D01*
X1525008Y-14950499D01*
X1525016Y-14950498D01*
X1525019Y-14950498D01*
X1581302Y-14944748D01*
X1627797Y-14939999D01*
X1794334Y-14884814D01*
X1943656Y-14792712D01*
X1999549Y-14736819D01*
X2060872Y-14703334D01*
X2087230Y-14700500D01*
X2456201Y-14700500D01*
X2523240Y-14720185D01*
X2566685Y-14768204D01*
X2623240Y-14879199D01*
X2734310Y-15032073D01*
X2867927Y-15165690D01*
X3020801Y-15276760D01*
X3100347Y-15317290D01*
X3189163Y-15362545D01*
X3189165Y-15362545D01*
X3189168Y-15362547D01*
X3285497Y-15393846D01*
X3368881Y-15420940D01*
X3555514Y-15450500D01*
X3555519Y-15450500D01*
X4087770Y-15450500D01*
X4154809Y-15470185D01*
X4175451Y-15486819D01*
X7271578Y-18582947D01*
X7271585Y-18582953D01*
X7343666Y-18631115D01*
X7343668Y-18631116D01*
X7343671Y-18631118D01*
X7394505Y-18665084D01*
X7531087Y-18721658D01*
X7542542Y-18723936D01*
X7604453Y-18756319D01*
X7636285Y-18807237D01*
X7637453Y-18810833D01*
X7668485Y-18871736D01*
X7723240Y-18979199D01*
X7834310Y-19132073D01*
X7967927Y-19265690D01*
X8120801Y-19376760D01*
X8200347Y-19417290D01*
X8289163Y-19462545D01*
X8289165Y-19462545D01*
X8289168Y-19462547D01*
X8385497Y-19493846D01*
X8468881Y-19520940D01*
X8655514Y-19550500D01*
X8655519Y-19550500D01*
X8844486Y-19550500D01*
X9031118Y-19520940D01*
X9210832Y-19462547D01*
X9379199Y-19376760D01*
X9532073Y-19265690D01*
X9665690Y-19132073D01*
X9776760Y-18979199D01*
X9862547Y-18810832D01*
X9920940Y-18631118D01*
X9920940Y-18631115D01*
X9950500Y-18444486D01*
X9950500Y-17555513D01*
X9920940Y-17368881D01*
X9862545Y-17189163D01*
X9814015Y-17093918D01*
X9800500Y-17037623D01*
X9800500Y-16087230D01*
X9820185Y-16020191D01*
X9836819Y-15999549D01*
X9892712Y-15943656D01*
X9894461Y-15940819D01*
X9896169Y-15939283D01*
X9897193Y-15937989D01*
X9897414Y-15938163D01*
X9946406Y-15894096D01*
X10015368Y-15882872D01*
X10079451Y-15910713D01*
X10105537Y-15940817D01*
X10107288Y-15943656D01*
X10231344Y-16067712D01*
X10380666Y-16159814D01*
X10547203Y-16214999D01*
X10649991Y-16225500D01*
X11250008Y-16225499D01*
X11250016Y-16225498D01*
X11250019Y-16225498D01*
X11306302Y-16219748D01*
X11352797Y-16214999D01*
X11519334Y-16159814D01*
X11668656Y-16067712D01*
X11792712Y-15943656D01*
X11875519Y-15809402D01*
X11927467Y-15762679D01*
X11981058Y-15750500D01*
X12059362Y-15750500D01*
X12126401Y-15770185D01*
X12164899Y-15809401D01*
X12232288Y-15918656D01*
X12356344Y-16042712D01*
X12505666Y-16134814D01*
X12672203Y-16189999D01*
X12774991Y-16200500D01*
X13400008Y-16200499D01*
X13400016Y-16200498D01*
X13400019Y-16200498D01*
X13456302Y-16194748D01*
X13502797Y-16189999D01*
X13669334Y-16134814D01*
X13818656Y-16042712D01*
X13942712Y-15918656D01*
X14034814Y-15769334D01*
X14089999Y-15602797D01*
X14100500Y-15500009D01*
X14100499Y-15099728D01*
X14120183Y-15032690D01*
X14136813Y-15012053D01*
X14512048Y-14636819D01*
X14573371Y-14603334D01*
X14599729Y-14600500D01*
X15025500Y-14600500D01*
X15092539Y-14620185D01*
X15138294Y-14672989D01*
X15149500Y-14724500D01*
X15149500Y-16344547D01*
X15129815Y-16411586D01*
X15077011Y-16457341D01*
X15044898Y-16467020D01*
X14968885Y-16479059D01*
X14789165Y-16537454D01*
X14620800Y-16623240D01*
X14569330Y-16660636D01*
X14467927Y-16734310D01*
X14467925Y-16734312D01*
X14467924Y-16734312D01*
X14334312Y-16867924D01*
X14334312Y-16867925D01*
X14334310Y-16867927D01*
X14286610Y-16933579D01*
X14223240Y-17020800D01*
X14137454Y-17189163D01*
X14079059Y-17368881D01*
X14049500Y-17555513D01*
X14049500Y-18444486D01*
X14079060Y-18631118D01*
X14079059Y-18631118D01*
X14137454Y-18810836D01*
X14223240Y-18979199D01*
X14334310Y-19132073D01*
X14467927Y-19265690D01*
X14620801Y-19376760D01*
X14700347Y-19417290D01*
X14789163Y-19462545D01*
X14789165Y-19462545D01*
X14789168Y-19462547D01*
X14885497Y-19493846D01*
X14968881Y-19520940D01*
X15155514Y-19550500D01*
X15155519Y-19550500D01*
X15344486Y-19550500D01*
X15531118Y-19520940D01*
X15710832Y-19462547D01*
X15879199Y-19376760D01*
X16032073Y-19265690D01*
X16165690Y-19132073D01*
X16276760Y-18979199D01*
X16362547Y-18810832D01*
X16420940Y-18631118D01*
X16420940Y-18631115D01*
X16450500Y-18444486D01*
X16450500Y-17912230D01*
X16470185Y-17845191D01*
X16479582Y-17833529D01*
X16479088Y-17833124D01*
X16482944Y-17828423D01*
X16482952Y-17828416D01*
X16532186Y-17754729D01*
X16565084Y-17705495D01*
X16621658Y-17568913D01*
X16650500Y-17423918D01*
X16650500Y-14204204D01*
X16650500Y-14204201D01*
X16620470Y-14053235D01*
X16621980Y-14052934D01*
X16621426Y-13990626D01*
X16658675Y-13931514D01*
X16721970Y-13901924D01*
X16740709Y-13900500D01*
X18344705Y-13900500D01*
X18411744Y-13920185D01*
X18457499Y-13972989D01*
X18467443Y-14042147D01*
X18467178Y-14043898D01*
X18449500Y-14155513D01*
X18449500Y-14344486D01*
X18479059Y-14531118D01*
X18537454Y-14710836D01*
X18623240Y-14879199D01*
X18734310Y-15032073D01*
X18867927Y-15165690D01*
X19020801Y-15276760D01*
X19100347Y-15317290D01*
X19189163Y-15362545D01*
X19189165Y-15362545D01*
X19189168Y-15362547D01*
X19285497Y-15393846D01*
X19368881Y-15420940D01*
X19555514Y-15450500D01*
X19555519Y-15450500D01*
X20444486Y-15450500D01*
X20631118Y-15420940D01*
X20810832Y-15362547D01*
X20979199Y-15276760D01*
X21132073Y-15165690D01*
X21265690Y-15032073D01*
X21376760Y-14879199D01*
X21433314Y-14768204D01*
X21481288Y-14717409D01*
X21543799Y-14700500D01*
X21912770Y-14700500D01*
X21979809Y-14720185D01*
X22000451Y-14736819D01*
X22056344Y-14792712D01*
X22205666Y-14884814D01*
X22372203Y-14939999D01*
X22474991Y-14950500D01*
X23300500Y-14950499D01*
X23367539Y-14970183D01*
X23413294Y-15022987D01*
X23424500Y-15074499D01*
X23424500Y-15160540D01*
X23404815Y-15227579D01*
X23388181Y-15248221D01*
X17023222Y-21613181D01*
X16961899Y-21646666D01*
X16935541Y-21649500D01*
X-9884217Y-21649500D01*
X-9951256Y-21629815D01*
X-9971898Y-21613181D01*
X-22841868Y-8743210D01*
X-22875353Y-8681887D01*
X-22870369Y-8612195D01*
X-22828497Y-8556262D01*
X-22763033Y-8531845D01*
X-22713232Y-8538488D01*
X-22579262Y-8585366D01*
X-22579258Y-8585366D01*
X-22579255Y-8585368D01*
X-22579251Y-8585368D01*
X-22579249Y-8585369D01*
X-22400004Y-8605565D01*
X-22400000Y-8605565D01*
X-22399996Y-8605565D01*
X-22220750Y-8585369D01*
X-22220745Y-8585368D01*
X-22140983Y-8557458D01*
X-22100028Y-8550500D01*
X-18135088Y-8550500D01*
X-17990101Y-8521659D01*
X-17990100Y-8521658D01*
X-17990096Y-8521658D01*
X-17937847Y-8500016D01*
X-17853520Y-8465087D01*
X-17853516Y-8465085D01*
X-17853514Y-8465084D01*
X-17800732Y-8429816D01*
X-17758648Y-8401697D01*
X-17730595Y-8382954D01*
X-17730593Y-8382952D01*
X-16792052Y-7444412D01*
X-16792046Y-7444405D01*
X-16739370Y-7365569D01*
X-16739304Y-7365468D01*
X-16729302Y-7350500D01*
X-16709916Y-7321486D01*
X-16709915Y-7321485D01*
X-16709914Y-7321483D01*
X-16653343Y-7184908D01*
X-16653340Y-7184898D01*
X-16624500Y-7039911D01*
X-16624500Y2236420D01*
X-16624499Y2236420D01*
X-16641341Y2321084D01*
X-16641341Y2321086D01*
X-16653339Y2381404D01*
X-16653342Y2381414D01*
X-16688413Y2466082D01*
X-16688413Y2466083D01*
X-16709912Y2517988D01*
X-16709919Y2518001D01*
X-16792048Y2640915D01*
X-16792051Y2640919D01*
X-16793812Y2642680D01*
X-16794439Y2643829D01*
X-16795914Y2645626D01*
X-16795573Y2645905D01*
X-16827297Y2704003D01*
X-16822313Y2773695D01*
X-16793812Y2818042D01*
X-12437180Y7174674D01*
X-12375857Y7208159D01*
X-12306165Y7203175D01*
X-12250232Y7161303D01*
X-12225815Y7095839D01*
X-12225499Y7087013D01*
X-12225499Y6940273D01*
X-12225499Y6649998D01*
X-12225498Y6649980D01*
X-12216079Y6557775D01*
X-12214999Y6547203D01*
X-12159814Y6380666D01*
X-12067712Y6231344D01*
X-11943656Y6107288D01*
X-11794334Y6015186D01*
X-11627797Y5960001D01*
X-11627795Y5960000D01*
X-11525010Y5949500D01*
X-11525009Y5949500D01*
X-10474998Y5949500D01*
X-10474980Y5949501D01*
X-10372203Y5960000D01*
X-10372200Y5960001D01*
X-10205668Y6015185D01*
X-10205663Y6015187D01*
X-10056342Y6107289D01*
X-9932289Y6231342D01*
X-9840187Y6380663D01*
X-9840185Y6380668D01*
X-9803127Y6492503D01*
X-9785001Y6547203D01*
X-9785001Y6547204D01*
X-9785000Y6547204D01*
X-9774500Y6649983D01*
X-9774500Y7250001D01*
X-9774501Y7250019D01*
X-9785000Y7352796D01*
X-9785001Y7352799D01*
X-9840185Y7519331D01*
X-9840187Y7519336D01*
X-9908331Y7629815D01*
X-9932288Y7668656D01*
X-10056344Y7792712D01*
X-10065591Y7798416D01*
X-10112318Y7850360D01*
X-10124500Y7903957D01*
X-10124500Y8225500D01*
X-10104815Y8292539D01*
X-10052011Y8338294D01*
X-10000500Y8349500D01*
X-9541971Y8349500D01*
X-9541965Y8349500D01*
X-9541964Y8349501D01*
X-9530316Y8350536D01*
X-9422584Y8360113D01*
X-9226954Y8416089D01*
X-9099452Y8482691D01*
X-9046593Y8510302D01*
X-9046591Y8510303D01*
X-9046590Y8510304D01*
X-8888890Y8638890D01*
X-8760304Y8796590D01*
X-8754516Y8807669D01*
X-8684078Y8942517D01*
X-8666089Y8976954D01*
X-8610114Y9172583D01*
X-8610113Y9172586D01*
X-8599500Y9291966D01*
X-8599500Y10408028D01*
X-8599501Y10408034D01*
X-8610113Y10527415D01*
X-8666089Y10723045D01*
X-8680312Y10750273D01*
X-8760302Y10903407D01*
X-8837218Y10997737D01*
X-8888890Y11061109D01*
X-8998491Y11150476D01*
X-9046593Y11189698D01*
X-9226951Y11283909D01*
X-9422582Y11339886D01*
X-9541963Y11350500D01*
X-9625501Y11350499D01*
X-9692538Y11370183D01*
X-9738294Y11422986D01*
X-9749500Y11474499D01*
X-9749500Y17930664D01*
X-9729815Y17997703D01*
X-9713181Y18018345D01*
X-6518345Y21213181D01*
X-6457022Y21246666D01*
X-6430664Y21249500D01*
X-5617873Y21249500D01*
X-5423468Y21280290D01*
X-5236264Y21341117D01*
X-5060889Y21430476D01*
X-4970036Y21496485D01*
X-4901649Y21546172D01*
X-4901647Y21546174D01*
X-4901646Y21546174D01*
X-2798122Y23649697D01*
X-2736799Y23683182D01*
X-2667107Y23678198D01*
G37*
%TD.AperFunction*%
%TA.AperFunction,Conductor*%
G36*
X1075105Y29479860D02*
G01*
X1079631Y29479695D01*
X2151071Y29420927D01*
X2155589Y29420596D01*
X3224130Y29322739D01*
X3228632Y29322244D01*
X4292929Y29185421D01*
X4297410Y29184761D01*
X5355943Y29009169D01*
X5360397Y29008347D01*
X6411866Y28794201D01*
X6416287Y28793216D01*
X7459209Y28540817D01*
X7463592Y28539671D01*
X8496603Y28249350D01*
X8500940Y28248045D01*
X9522641Y27920196D01*
X9526928Y27918734D01*
X10535997Y27553780D01*
X10540228Y27552162D01*
X11535312Y27150592D01*
X11539480Y27148820D01*
X12519181Y26711198D01*
X12523282Y26709276D01*
X13486376Y26236152D01*
X13490405Y26234081D01*
X14435589Y25726092D01*
X14439539Y25723875D01*
X15365537Y25181706D01*
X15369403Y25179346D01*
X16274950Y24603740D01*
X16278728Y24601241D01*
X17162700Y23992911D01*
X17166383Y23990275D01*
X18027496Y23350105D01*
X18031081Y23347337D01*
X18868254Y22676132D01*
X18871736Y22673235D01*
X19683868Y21971877D01*
X19687241Y21968854D01*
X20473182Y21238335D01*
X20476443Y21235191D01*
X21235191Y20476443D01*
X21238335Y20473182D01*
X21968854Y19687241D01*
X21971877Y19683868D01*
X22673235Y18871736D01*
X22676132Y18868254D01*
X23347337Y18031081D01*
X23350105Y18027496D01*
X23990275Y17166383D01*
X23992911Y17162700D01*
X24601241Y16278728D01*
X24603740Y16274950D01*
X25179346Y15369403D01*
X25181706Y15365537D01*
X25723875Y14439539D01*
X25726092Y14435589D01*
X26234081Y13490405D01*
X26236152Y13486376D01*
X26709276Y12523282D01*
X26711198Y12519181D01*
X27148820Y11539480D01*
X27150592Y11535312D01*
X27552162Y10540228D01*
X27553780Y10535997D01*
X27918734Y9526928D01*
X27920196Y9522641D01*
X28248045Y8500940D01*
X28249350Y8496603D01*
X28539671Y7463592D01*
X28540817Y7459209D01*
X28793216Y6416287D01*
X28794201Y6411866D01*
X29008347Y5360397D01*
X29009169Y5355943D01*
X29184761Y4297410D01*
X29185421Y4292929D01*
X29322244Y3228632D01*
X29322739Y3224130D01*
X29420596Y2155589D01*
X29420927Y2151071D01*
X29479695Y1079631D01*
X29479860Y1075105D01*
X29499458Y2265D01*
X29499458Y-2265D01*
X29479860Y-1075105D01*
X29479695Y-1079631D01*
X29420927Y-2151071D01*
X29420596Y-2155589D01*
X29322739Y-3224130D01*
X29322244Y-3228632D01*
X29185421Y-4292929D01*
X29184761Y-4297410D01*
X29009169Y-5355943D01*
X29008347Y-5360397D01*
X28794201Y-6411866D01*
X28793216Y-6416287D01*
X28540817Y-7459209D01*
X28539671Y-7463592D01*
X28249350Y-8496603D01*
X28248045Y-8500940D01*
X27920196Y-9522641D01*
X27918734Y-9526928D01*
X27553780Y-10535997D01*
X27552162Y-10540228D01*
X27150592Y-11535312D01*
X27148820Y-11539480D01*
X26711198Y-12519181D01*
X26709276Y-12523282D01*
X26236152Y-13486376D01*
X26234081Y-13490405D01*
X25726092Y-14435589D01*
X25723875Y-14439538D01*
X25656508Y-14554599D01*
X25605649Y-14602506D01*
X25536962Y-14615312D01*
X25472257Y-14588950D01*
X25432075Y-14531790D01*
X25425500Y-14491947D01*
X25425500Y-9025804D01*
X25445185Y-8958765D01*
X25497989Y-8913010D01*
X25567147Y-8903066D01*
X25581590Y-8906028D01*
X25764592Y-8955063D01*
X25952918Y-8971539D01*
X25999999Y-8975659D01*
X26000000Y-8975659D01*
X26000001Y-8975659D01*
X26039234Y-8972226D01*
X26235408Y-8955063D01*
X26463663Y-8893903D01*
X26677830Y-8794035D01*
X26871401Y-8658495D01*
X27038495Y-8491401D01*
X27174035Y-8297830D01*
X27273903Y-8083663D01*
X27335063Y-7855408D01*
X27355659Y-7620000D01*
X27335063Y-7384592D01*
X27287120Y-7205665D01*
X27273905Y-7156344D01*
X27273904Y-7156343D01*
X27273903Y-7156337D01*
X27174035Y-6942171D01*
X27163034Y-6926459D01*
X27038494Y-6748597D01*
X26871402Y-6581506D01*
X26871396Y-6581501D01*
X26685842Y-6451575D01*
X26642217Y-6396998D01*
X26635023Y-6327500D01*
X26666546Y-6265145D01*
X26685842Y-6248425D01*
X26782022Y-6181079D01*
X26871401Y-6118495D01*
X27038495Y-5951401D01*
X27174035Y-5757830D01*
X27273903Y-5543663D01*
X27335063Y-5315408D01*
X27355659Y-5080000D01*
X27335063Y-4844592D01*
X27273903Y-4616337D01*
X27174035Y-4402171D01*
X27153529Y-4372884D01*
X27038494Y-4208597D01*
X26871402Y-4041506D01*
X26871396Y-4041501D01*
X26685842Y-3911575D01*
X26642217Y-3856998D01*
X26635023Y-3787500D01*
X26666546Y-3725145D01*
X26685842Y-3708425D01*
X26748290Y-3664698D01*
X26871401Y-3578495D01*
X27038495Y-3411401D01*
X27174035Y-3217830D01*
X27273903Y-3003663D01*
X27335063Y-2775408D01*
X27355659Y-2540000D01*
X27335063Y-2304592D01*
X27283252Y-2111230D01*
X27273905Y-2076344D01*
X27273904Y-2076343D01*
X27273903Y-2076337D01*
X27174035Y-1862171D01*
X27173823Y-1861867D01*
X27038494Y-1668597D01*
X26871402Y-1501506D01*
X26871396Y-1501501D01*
X26685842Y-1371575D01*
X26642217Y-1316998D01*
X26635023Y-1247500D01*
X26666546Y-1185145D01*
X26685842Y-1168425D01*
X26781676Y-1101321D01*
X26871401Y-1038495D01*
X27038495Y-871401D01*
X27174035Y-677830D01*
X27273903Y-463663D01*
X27335063Y-235408D01*
X27355659Y0D01*
X27335063Y235408D01*
X27273903Y463663D01*
X27174035Y677829D01*
X27038495Y871401D01*
X26871401Y1038495D01*
X26685842Y1168425D01*
X26642217Y1223002D01*
X26635023Y1292500D01*
X26666546Y1354855D01*
X26685842Y1371575D01*
X26871396Y1501501D01*
X26871402Y1501506D01*
X27038493Y1668597D01*
X27038495Y1668599D01*
X27126382Y1794115D01*
X27174032Y1862165D01*
X27174034Y1862169D01*
X27174035Y1862170D01*
X27273903Y2076337D01*
X27286602Y2123729D01*
X27316796Y2236418D01*
X27335063Y2304592D01*
X27355659Y2540000D01*
X27335063Y2775408D01*
X27273903Y3003663D01*
X27174035Y3217829D01*
X27038495Y3411401D01*
X26871401Y3578495D01*
X26685842Y3708425D01*
X26642217Y3763002D01*
X26635023Y3832500D01*
X26666546Y3894855D01*
X26685842Y3911575D01*
X26871396Y4041501D01*
X26871402Y4041506D01*
X27038493Y4208597D01*
X27038495Y4208599D01*
X27109436Y4309913D01*
X27174032Y4402165D01*
X27174034Y4402169D01*
X27174035Y4402170D01*
X27273903Y4616337D01*
X27335063Y4844592D01*
X27355659Y5080000D01*
X27335063Y5315408D01*
X27273903Y5543663D01*
X27174035Y5757829D01*
X27038495Y5951401D01*
X26871401Y6118495D01*
X26677830Y6254035D01*
X26463663Y6353903D01*
X26235408Y6415063D01*
X26039234Y6432226D01*
X26000001Y6435659D01*
X25999999Y6435659D01*
X25952918Y6431539D01*
X25764592Y6415063D01*
X25658180Y6386550D01*
X25606593Y6372728D01*
X25536743Y6374391D01*
X25478881Y6413554D01*
X25451377Y6477782D01*
X25450500Y6492503D01*
X25450500Y14071418D01*
X25421659Y14216405D01*
X25421658Y14216411D01*
X25365084Y14352993D01*
X25316637Y14425499D01*
X25282952Y14475914D01*
X18162487Y21596379D01*
X18088800Y21645613D01*
X18039566Y21678511D01*
X17902984Y21735085D01*
X17855533Y21744523D01*
X17757991Y21763927D01*
X17757989Y21763927D01*
X15787344Y21763927D01*
X15639509Y21763927D01*
X15639507Y21763927D01*
X15494519Y21735086D01*
X15494514Y21735085D01*
X15494509Y21735083D01*
X15357938Y21678514D01*
X15357925Y21678507D01*
X15235011Y21596378D01*
X15235007Y21596375D01*
X14592048Y20953416D01*
X14588181Y20948704D01*
X14586488Y20950093D01*
X14540448Y20911603D01*
X14471124Y20902885D01*
X14432491Y20915931D01*
X14289726Y20992241D01*
X14101131Y21049451D01*
X13904999Y21068768D01*
X13708867Y21049451D01*
X13520272Y20992241D01*
X13346461Y20899337D01*
X13346457Y20899334D01*
X13341392Y20895950D01*
X13340295Y20897591D01*
X13284360Y20873832D01*
X13215492Y20885621D01*
X13198850Y20896315D01*
X13198606Y20895950D01*
X13193543Y20899331D01*
X13193537Y20899337D01*
X13019726Y20992241D01*
X12831131Y21049451D01*
X12634999Y21068768D01*
X12438867Y21049451D01*
X12250272Y20992241D01*
X12076461Y20899337D01*
X12076457Y20899334D01*
X12071392Y20895950D01*
X12070295Y20897591D01*
X12014360Y20873832D01*
X11945492Y20885621D01*
X11928850Y20896315D01*
X11928606Y20895950D01*
X11923543Y20899331D01*
X11923537Y20899337D01*
X11749726Y20992241D01*
X11561131Y21049451D01*
X11364999Y21068768D01*
X11168867Y21049451D01*
X10980272Y20992241D01*
X10806461Y20899337D01*
X10806457Y20899334D01*
X10801392Y20895950D01*
X10800295Y20897591D01*
X10744360Y20873832D01*
X10675492Y20885621D01*
X10658850Y20896315D01*
X10658606Y20895950D01*
X10653543Y20899331D01*
X10653537Y20899337D01*
X10479726Y20992241D01*
X10291131Y21049451D01*
X10094999Y21068768D01*
X9898867Y21049451D01*
X9710272Y20992241D01*
X9536461Y20899337D01*
X9536457Y20899334D01*
X9531392Y20895950D01*
X9530295Y20897591D01*
X9474360Y20873832D01*
X9405492Y20885621D01*
X9388850Y20896315D01*
X9388606Y20895950D01*
X9383543Y20899331D01*
X9383537Y20899337D01*
X9209726Y20992241D01*
X9021131Y21049451D01*
X8824999Y21068768D01*
X8628867Y21049451D01*
X8440272Y20992241D01*
X8266461Y20899337D01*
X8266457Y20899334D01*
X8261392Y20895950D01*
X8260295Y20897591D01*
X8204360Y20873832D01*
X8135492Y20885621D01*
X8118850Y20896315D01*
X8118606Y20895950D01*
X8113543Y20899331D01*
X8113537Y20899337D01*
X7939726Y20992241D01*
X7751131Y21049451D01*
X7554999Y21068768D01*
X7358867Y21049451D01*
X7170272Y20992241D01*
X7170268Y20992239D01*
X7170265Y20992238D01*
X6996466Y20899340D01*
X6996459Y20899336D01*
X6844115Y20774310D01*
X6719089Y20621966D01*
X6719085Y20621959D01*
X6626187Y20448160D01*
X6626185Y20448154D01*
X6588045Y20322424D01*
X6568974Y20259556D01*
X6549658Y20063427D01*
X6568974Y19867297D01*
X6626187Y19678693D01*
X6719085Y19504894D01*
X6719089Y19504887D01*
X6776353Y19435112D01*
X6803666Y19370802D01*
X6804500Y19356447D01*
X6804500Y18110267D01*
X6784815Y18043228D01*
X6783602Y18041376D01*
X6712681Y17935236D01*
X6712676Y17935228D01*
X6641027Y17762251D01*
X6641025Y17762243D01*
X6604500Y17578620D01*
X6604500Y16891379D01*
X6641025Y16707756D01*
X6641027Y16707748D01*
X6712677Y16534770D01*
X6783602Y16428622D01*
X6804479Y16361944D01*
X6804499Y16359732D01*
X6804499Y16289021D01*
X6784814Y16221982D01*
X6732010Y16176227D01*
X6662852Y16166283D01*
X6599296Y16195308D01*
X6592818Y16201340D01*
X5694428Y17099730D01*
X4596817Y18197341D01*
X4563334Y18258662D01*
X4560500Y18285020D01*
X4560500Y26312298D01*
X4580185Y26379337D01*
X4613375Y26413872D01*
X4646370Y26436976D01*
X4681401Y26461505D01*
X4848495Y26628599D01*
X4896127Y26696624D01*
X4950704Y26740249D01*
X4997701Y26749500D01*
X5550270Y26749500D01*
X5617309Y26729815D01*
X5637946Y26713185D01*
X5722526Y26628606D01*
X5763182Y26587950D01*
X5796666Y26526627D01*
X5799500Y26500269D01*
X5799500Y26099998D01*
X5799501Y26099980D01*
X5810000Y25997203D01*
X5810001Y25997200D01*
X5865185Y25830668D01*
X5865187Y25830663D01*
X5957289Y25681342D01*
X6050951Y25587681D01*
X6084436Y25526358D01*
X6079452Y25456666D01*
X6050951Y25412319D01*
X5957288Y25318656D01*
X5865186Y25169334D01*
X5810001Y25002797D01*
X5810001Y25002795D01*
X5810000Y25002795D01*
X5799500Y24900016D01*
X5799500Y24274998D01*
X5799501Y24274980D01*
X5810000Y24172203D01*
X5810001Y24172200D01*
X5865185Y24005668D01*
X5865187Y24005663D01*
X5957289Y23856342D01*
X6086451Y23727181D01*
X6084564Y23725294D01*
X6117788Y23678375D01*
X6124500Y23638132D01*
X6124500Y22713766D01*
X6158143Y22544633D01*
X6158146Y22544621D01*
X6224138Y22385301D01*
X6224145Y22385288D01*
X6319954Y22241901D01*
X6319957Y22241897D01*
X6441897Y22119957D01*
X6441901Y22119954D01*
X6585288Y22024145D01*
X6585301Y22024138D01*
X6744621Y21958146D01*
X6744633Y21958143D01*
X6913766Y21924500D01*
X6913771Y21924500D01*
X7086233Y21924500D01*
X7255366Y21958143D01*
X7255378Y21958146D01*
X7414698Y22024138D01*
X7414711Y22024145D01*
X7558098Y22119954D01*
X7558102Y22119957D01*
X7680042Y22241897D01*
X7680045Y22241901D01*
X7775854Y22385288D01*
X7775861Y22385301D01*
X7841853Y22544621D01*
X7841855Y22544626D01*
X7875499Y22713766D01*
X7875500Y22713768D01*
X7875500Y23638132D01*
X7895185Y23705171D01*
X7914383Y23726346D01*
X7913549Y23727181D01*
X8042710Y23856342D01*
X8042712Y23856344D01*
X8134814Y24005666D01*
X8179254Y24139778D01*
X9249500Y24139778D01*
X9283985Y23922047D01*
X9352103Y23712396D01*
X9352104Y23712393D01*
X9452187Y23515974D01*
X9581752Y23337641D01*
X9581756Y23337636D01*
X9737636Y23181756D01*
X9737641Y23181752D01*
X9915974Y23052187D01*
X10112393Y22952104D01*
X10112396Y22952103D01*
X10322047Y22883985D01*
X10467201Y22860995D01*
X10539778Y22849500D01*
X10539779Y22849500D01*
X13460221Y22849500D01*
X13460222Y22849500D01*
X13569086Y22866742D01*
X13677952Y22883985D01*
X13887603Y22952103D01*
X13887606Y22952104D01*
X14021096Y23020122D01*
X14084022Y23052185D01*
X14084025Y23052187D01*
X14262358Y23181752D01*
X14262363Y23181756D01*
X14418243Y23337636D01*
X14418247Y23337641D01*
X14547812Y23515974D01*
X14547815Y23515978D01*
X14630471Y23678198D01*
X14647895Y23712393D01*
X14647896Y23712396D01*
X14716014Y23922047D01*
X14716015Y23922049D01*
X14750500Y24139778D01*
X14750500Y24360222D01*
X14716015Y24577951D01*
X14647895Y24787606D01*
X14547815Y24984022D01*
X14418242Y25162365D01*
X14262365Y25318242D01*
X14084022Y25447815D01*
X13887606Y25547895D01*
X13677951Y25616015D01*
X13460222Y25650500D01*
X10539778Y25650500D01*
X10322049Y25616015D01*
X10234845Y25587681D01*
X10112396Y25547896D01*
X10112393Y25547895D01*
X10050500Y25516358D01*
X9915978Y25447815D01*
X9915974Y25447812D01*
X9737641Y25318247D01*
X9737636Y25318243D01*
X9581756Y25162363D01*
X9581752Y25162358D01*
X9465825Y25002796D01*
X9452185Y24984022D01*
X9438688Y24957533D01*
X9352104Y24787606D01*
X9352103Y24787603D01*
X9283985Y24577952D01*
X9249500Y24360221D01*
X9249500Y24139778D01*
X8179254Y24139778D01*
X8189999Y24172203D01*
X8200500Y24274991D01*
X8200499Y24900008D01*
X8189999Y25002797D01*
X8134814Y25169334D01*
X8042712Y25318656D01*
X7949049Y25412319D01*
X7915564Y25473642D01*
X7920548Y25543334D01*
X7949049Y25587681D01*
X8042710Y25681342D01*
X8042712Y25681344D01*
X8134814Y25830666D01*
X8189999Y25997203D01*
X8200500Y26099991D01*
X8200499Y26725008D01*
X8189999Y26827797D01*
X8134814Y26994334D01*
X8042712Y27143656D01*
X7918656Y27267712D01*
X7769334Y27359814D01*
X7602797Y27414999D01*
X7500009Y27425500D01*
X7099728Y27425499D01*
X7032690Y27445183D01*
X7012048Y27461818D01*
X6555133Y27918734D01*
X6390916Y28082952D01*
X6308855Y28137782D01*
X6267995Y28165084D01*
X6131413Y28221658D01*
X6083962Y28231096D01*
X5986420Y28250500D01*
X5986418Y28250500D01*
X4997701Y28250500D01*
X4930662Y28270185D01*
X4896126Y28303377D01*
X4848494Y28371402D01*
X4848493Y28371403D01*
X4681401Y28538495D01*
X4487830Y28674035D01*
X4273663Y28773903D01*
X4045408Y28835063D01*
X3826379Y28854226D01*
X3810001Y28855659D01*
X3809999Y28855659D01*
X3762918Y28851539D01*
X3574592Y28835063D01*
X3346337Y28773903D01*
X3132171Y28674035D01*
X3132169Y28674034D01*
X2938597Y28538494D01*
X2771506Y28371403D01*
X2771505Y28371401D01*
X2641573Y28185838D01*
X2586999Y28142215D01*
X2517500Y28135021D01*
X2455145Y28166543D01*
X2438428Y28185836D01*
X2308495Y28371401D01*
X2141401Y28538495D01*
X1947830Y28674035D01*
X1733663Y28773903D01*
X1505408Y28835063D01*
X1286379Y28854226D01*
X1270001Y28855659D01*
X1269999Y28855659D01*
X1214325Y28850788D01*
X1056984Y28837022D01*
X988485Y28850788D01*
X958500Y28872865D01*
X555314Y29276053D01*
X521830Y29337375D01*
X526814Y29407067D01*
X568686Y29463000D01*
X634150Y29487417D01*
X645261Y29487712D01*
X1075105Y29479860D01*
G37*
%TD.AperFunction*%
%TA.AperFunction,Conductor*%
G36*
X19398968Y-4546893D02*
G01*
X19443315Y-4575393D01*
X19497738Y-4629816D01*
X19606177Y-4697953D01*
X19630412Y-4713181D01*
X19650478Y-4725789D01*
X19820745Y-4785368D01*
X19820750Y-4785369D01*
X19999996Y-4805565D01*
X20000000Y-4805565D01*
X20000004Y-4805565D01*
X20179249Y-4785369D01*
X20179252Y-4785368D01*
X20179255Y-4785368D01*
X20259017Y-4757457D01*
X20299972Y-4750500D01*
X24537847Y-4750500D01*
X24604886Y-4770185D01*
X24650641Y-4822989D01*
X24661374Y-4885307D01*
X24657774Y-4926459D01*
X24653955Y-4970098D01*
X24628501Y-5035166D01*
X24618108Y-5046969D01*
X23965937Y-5699142D01*
X23787220Y-5877859D01*
X23787218Y-5877861D01*
X23717538Y-5947540D01*
X23647859Y-6017219D01*
X23538371Y-6181079D01*
X23538364Y-6181092D01*
X23496122Y-6283077D01*
X23483070Y-6314587D01*
X23470019Y-6346096D01*
X23462950Y-6363161D01*
X23462947Y-6363169D01*
X23424500Y-6556456D01*
X23424500Y-8775500D01*
X23404815Y-8842539D01*
X23352011Y-8888294D01*
X23300500Y-8899500D01*
X22499998Y-8899500D01*
X22499980Y-8899501D01*
X22397203Y-8910000D01*
X22397196Y-8910002D01*
X22337733Y-8929706D01*
X22267904Y-8932107D01*
X22211049Y-8899681D01*
X21530907Y-8219539D01*
X21497422Y-8158216D01*
X21500657Y-8093541D01*
X21520940Y-8031118D01*
X21537063Y-7929316D01*
X21550500Y-7844486D01*
X21550500Y-7655513D01*
X21520940Y-7468881D01*
X21487339Y-7365470D01*
X21462547Y-7289168D01*
X21462545Y-7289165D01*
X21462545Y-7289163D01*
X21376759Y-7120800D01*
X21342910Y-7074211D01*
X21265690Y-6967927D01*
X21132073Y-6834310D01*
X20979199Y-6723240D01*
X20966791Y-6716918D01*
X20810836Y-6637454D01*
X20631118Y-6579059D01*
X20444486Y-6549500D01*
X20444481Y-6549500D01*
X19555519Y-6549500D01*
X19555514Y-6549500D01*
X19368881Y-6579059D01*
X19189163Y-6637454D01*
X19020800Y-6723240D01*
X18985900Y-6748597D01*
X18867927Y-6834310D01*
X18867925Y-6834312D01*
X18867924Y-6834312D01*
X18734312Y-6967924D01*
X18734312Y-6967925D01*
X18734310Y-6967927D01*
X18686610Y-7033579D01*
X18623240Y-7120800D01*
X18537454Y-7289163D01*
X18479059Y-7468881D01*
X18449500Y-7655513D01*
X18449500Y-7844486D01*
X18479059Y-8031118D01*
X18537454Y-8210836D01*
X18623240Y-8379199D01*
X18734310Y-8532073D01*
X18867927Y-8665690D01*
X19020801Y-8776760D01*
X19055296Y-8794336D01*
X19189163Y-8862545D01*
X19189165Y-8862545D01*
X19189168Y-8862547D01*
X19251722Y-8882872D01*
X19368881Y-8920940D01*
X19555514Y-8950500D01*
X19555519Y-8950500D01*
X20087770Y-8950500D01*
X20154809Y-8970185D01*
X20175451Y-8986819D01*
X21684078Y-10495447D01*
X21684085Y-10495453D01*
X21747957Y-10538130D01*
X21747959Y-10538131D01*
X21747962Y-10538133D01*
X21807005Y-10577584D01*
X21807006Y-10577584D01*
X21807007Y-10577585D01*
X21927972Y-10627690D01*
X21968201Y-10654569D01*
X22081344Y-10767712D01*
X22190597Y-10835099D01*
X22237321Y-10887047D01*
X22249500Y-10940638D01*
X22249500Y-11018942D01*
X22229815Y-11085981D01*
X22190598Y-11124479D01*
X22104209Y-11177764D01*
X22056342Y-11207289D01*
X21932289Y-11331342D01*
X21840187Y-11480663D01*
X21840186Y-11480666D01*
X21785001Y-11647203D01*
X21785001Y-11647204D01*
X21785000Y-11647204D01*
X21774500Y-11749983D01*
X21774500Y-12350001D01*
X21774501Y-12350019D01*
X21785000Y-12452796D01*
X21785001Y-12452799D01*
X21840185Y-12619331D01*
X21840187Y-12619336D01*
X21932289Y-12768657D01*
X22056346Y-12892714D01*
X22059182Y-12894463D01*
X22060717Y-12896170D01*
X22062011Y-12897193D01*
X22061836Y-12897414D01*
X22105905Y-12946411D01*
X22117126Y-13015374D01*
X22089282Y-13079456D01*
X22059182Y-13105537D01*
X22056346Y-13107285D01*
X22056343Y-13107288D01*
X22000451Y-13163181D01*
X21939128Y-13196666D01*
X21912770Y-13199500D01*
X20962376Y-13199500D01*
X20906081Y-13185985D01*
X20810836Y-13137454D01*
X20631118Y-13079059D01*
X20444486Y-13049500D01*
X20444481Y-13049500D01*
X19912230Y-13049500D01*
X19845191Y-13029815D01*
X19824549Y-13013181D01*
X19378421Y-12567052D01*
X19378414Y-12567046D01*
X19304729Y-12517812D01*
X19304729Y-12517813D01*
X19255491Y-12484913D01*
X19118917Y-12428343D01*
X19118907Y-12428340D01*
X18973920Y-12399500D01*
X18973918Y-12399500D01*
X16197625Y-12399500D01*
X16130586Y-12379815D01*
X16084831Y-12327011D01*
X16074887Y-12257853D01*
X16103912Y-12194297D01*
X16109944Y-12187819D01*
X16165690Y-12132073D01*
X16276760Y-11979199D01*
X16362547Y-11810832D01*
X16420940Y-11631118D01*
X16435454Y-11539480D01*
X16450500Y-11444486D01*
X16450500Y-10555513D01*
X16420940Y-10368881D01*
X16362545Y-10189163D01*
X16276759Y-10020800D01*
X16165690Y-9867927D01*
X16032073Y-9734310D01*
X15879199Y-9623240D01*
X15879191Y-9623236D01*
X15710836Y-9537454D01*
X15531118Y-9479059D01*
X15344486Y-9449500D01*
X15344481Y-9449500D01*
X15155519Y-9449500D01*
X15155514Y-9449500D01*
X14968882Y-9479059D01*
X14906456Y-9499342D01*
X14836615Y-9501336D01*
X14780459Y-9469091D01*
X14100317Y-8788949D01*
X14066832Y-8727626D01*
X14070292Y-8662265D01*
X14089999Y-8602797D01*
X14100500Y-8500009D01*
X14100499Y-7499992D01*
X14099182Y-7487102D01*
X14111950Y-7418411D01*
X14159830Y-7367526D01*
X14222540Y-7350500D01*
X16255901Y-7350500D01*
X16378633Y-7326086D01*
X16400894Y-7321658D01*
X16537476Y-7265084D01*
X16626402Y-7205666D01*
X16660397Y-7182952D01*
X19267955Y-4575392D01*
X19329276Y-4541909D01*
X19398968Y-4546893D01*
G37*
%TD.AperFunction*%
%TA.AperFunction,Conductor*%
G36*
X12126401Y-8770185D02*
G01*
X12164899Y-8809401D01*
X12227389Y-8910713D01*
X12232289Y-8918657D01*
X12345428Y-9031796D01*
X12372308Y-9072024D01*
X12422415Y-9192994D01*
X12444134Y-9225498D01*
X12444135Y-9225501D01*
X12504546Y-9315914D01*
X12504552Y-9315921D01*
X14013181Y-10824549D01*
X14046666Y-10885872D01*
X14049500Y-10912230D01*
X14049500Y-11444486D01*
X14079059Y-11631118D01*
X14137454Y-11810836D01*
X14214668Y-11962376D01*
X14223240Y-11979199D01*
X14334310Y-12132073D01*
X14334312Y-12132075D01*
X14390056Y-12187819D01*
X14423541Y-12249142D01*
X14418557Y-12318834D01*
X14376685Y-12374767D01*
X14311221Y-12399184D01*
X14302375Y-12399500D01*
X10826080Y-12399500D01*
X10681092Y-12428340D01*
X10681082Y-12428343D01*
X10544508Y-12484913D01*
X10421584Y-12567048D01*
X10421584Y-12567049D01*
X10012181Y-12976451D01*
X9950858Y-13009936D01*
X9881166Y-13004952D01*
X9825233Y-12963080D01*
X9800816Y-12897616D01*
X9800500Y-12888770D01*
X9800500Y-11962376D01*
X9814015Y-11906081D01*
X9862545Y-11810836D01*
X9862545Y-11810835D01*
X9862547Y-11810832D01*
X9920940Y-11631118D01*
X9935454Y-11539480D01*
X9950500Y-11444486D01*
X9950500Y-10555513D01*
X9920940Y-10368881D01*
X9862545Y-10189163D01*
X9814015Y-10093918D01*
X9800500Y-10037623D01*
X9800500Y-9087230D01*
X9820185Y-9020191D01*
X9836819Y-8999549D01*
X9860709Y-8975659D01*
X9892712Y-8943656D01*
X9894461Y-8940819D01*
X9896169Y-8939283D01*
X9897193Y-8937989D01*
X9897414Y-8938163D01*
X9946406Y-8894096D01*
X10015368Y-8882872D01*
X10079451Y-8910713D01*
X10105537Y-8940817D01*
X10107288Y-8943656D01*
X10231344Y-9067712D01*
X10380666Y-9159814D01*
X10547203Y-9214999D01*
X10649991Y-9225500D01*
X11250008Y-9225499D01*
X11250016Y-9225498D01*
X11250019Y-9225498D01*
X11306302Y-9219748D01*
X11352797Y-9214999D01*
X11519334Y-9159814D01*
X11668656Y-9067712D01*
X11792712Y-8943656D01*
X11875519Y-8809402D01*
X11927467Y-8762679D01*
X11981058Y-8750500D01*
X12059362Y-8750500D01*
X12126401Y-8770185D01*
G37*
%TD.AperFunction*%
%TA.AperFunction,Conductor*%
G36*
X17644191Y1061916D02*
G01*
X17677559Y1026667D01*
X17763051Y890607D01*
X17890604Y763054D01*
X18043343Y667081D01*
X18213612Y607501D01*
X18213617Y607500D01*
X18392863Y587305D01*
X18392867Y587305D01*
X18392872Y587305D01*
X18472437Y596269D01*
X18541258Y584214D01*
X18592637Y536864D01*
X18610261Y469254D01*
X18588534Y402848D01*
X18574000Y385368D01*
X15719539Y-2469091D01*
X15658216Y-2502576D01*
X15593541Y-2499341D01*
X15531121Y-2479060D01*
X15344486Y-2449500D01*
X15344481Y-2449500D01*
X15155519Y-2449500D01*
X15155514Y-2449500D01*
X14968882Y-2479059D01*
X14906456Y-2499342D01*
X14836615Y-2501336D01*
X14780459Y-2469091D01*
X14100317Y-1788949D01*
X14066832Y-1727626D01*
X14070292Y-1662265D01*
X14089999Y-1602797D01*
X14100500Y-1500009D01*
X14100499Y-499992D01*
X14100268Y-497735D01*
X14089999Y-397203D01*
X14089998Y-397200D01*
X14081046Y-370184D01*
X14034814Y-230666D01*
X14034810Y-230659D01*
X14031760Y-224118D01*
X14033281Y-223408D01*
X14017186Y-164600D01*
X14038104Y-97935D01*
X14091743Y-53162D01*
X14105153Y-48232D01*
X14259256Y-1485D01*
X14289731Y7759D01*
X14463532Y100658D01*
X14468601Y104045D01*
X14469694Y102408D01*
X14525663Y126168D01*
X14594529Y114367D01*
X14611156Y103681D01*
X14611399Y104045D01*
X14616467Y100658D01*
X14790266Y7760D01*
X14822151Y-1912D01*
X14978868Y-49452D01*
X15175000Y-68769D01*
X15371132Y-49452D01*
X15559727Y7758D01*
X15559733Y7760D01*
X15733532Y100658D01*
X15738601Y104045D01*
X15739694Y102408D01*
X15795663Y126168D01*
X15864529Y114367D01*
X15881156Y103681D01*
X15881399Y104045D01*
X15886467Y100658D01*
X16060266Y7760D01*
X16092151Y-1912D01*
X16248868Y-49452D01*
X16445000Y-68769D01*
X16641132Y-49452D01*
X16829727Y7758D01*
X16829733Y7760D01*
X17003532Y100658D01*
X17003539Y100662D01*
X17155883Y225688D01*
X17280909Y378032D01*
X17280913Y378039D01*
X17373811Y551838D01*
X17373811Y551841D01*
X17373814Y551845D01*
X17431024Y740440D01*
X17450341Y936572D01*
X17449162Y948540D01*
X17462181Y1017186D01*
X17510245Y1067897D01*
X17578096Y1084572D01*
X17644191Y1061916D01*
G37*
%TD.AperFunction*%
%TA.AperFunction,Conductor*%
G36*
X-19456666Y2736148D02*
G01*
X-19412319Y2707647D01*
X-19380391Y2675719D01*
X-19380387Y2675716D01*
X-19237295Y2587455D01*
X-19237289Y2587452D01*
X-19237287Y2587451D01*
X-19077685Y2534564D01*
X-19077683Y2534563D01*
X-18979181Y2524500D01*
X-18979174Y2524500D01*
X-18849730Y2524500D01*
X-18782691Y2504815D01*
X-18762049Y2488181D01*
X-18161819Y1887951D01*
X-18128334Y1826628D01*
X-18125500Y1800270D01*
X-18125500Y-1224816D01*
X-18145185Y-1291855D01*
X-18197989Y-1337610D01*
X-18267147Y-1347554D01*
X-18272284Y-1346705D01*
X-18361057Y-1330110D01*
X-18391074Y-1324500D01*
X-18608926Y-1324500D01*
X-18823069Y-1364530D01*
X-18920670Y-1402341D01*
X-19026207Y-1443226D01*
X-19026213Y-1443230D01*
X-19192268Y-1546045D01*
X-19259629Y-1564600D01*
X-19326328Y-1543792D01*
X-19371189Y-1490227D01*
X-19379969Y-1420911D01*
X-19373727Y-1397285D01*
X-19330908Y-1282482D01*
X-19324501Y-1222883D01*
X-19324500Y-1222864D01*
X-19324500Y222870D01*
X-19324501Y222876D01*
X-19330908Y282483D01*
X-19381202Y417328D01*
X-19381206Y417335D01*
X-19467452Y532544D01*
X-19467455Y532547D01*
X-19582664Y618793D01*
X-19582671Y618797D01*
X-19717517Y669091D01*
X-19717516Y669091D01*
X-19723925Y669779D01*
X-19777127Y675500D01*
X-20750500Y675499D01*
X-20817539Y695183D01*
X-20863294Y747987D01*
X-20874500Y799499D01*
X-20874500Y1623494D01*
X-20854815Y1690533D01*
X-20838181Y1711175D01*
X-20056508Y2492847D01*
X-19995185Y2526332D01*
X-19981431Y2528524D01*
X-19922316Y2534563D01*
X-19922315Y2534564D01*
X-19843219Y2560773D01*
X-19762715Y2587450D01*
X-19762704Y2587455D01*
X-19619612Y2675716D01*
X-19619608Y2675719D01*
X-19587681Y2707647D01*
X-19526358Y2741132D01*
X-19456666Y2736148D01*
G37*
%TD.AperFunction*%
%TA.AperFunction,Conductor*%
G36*
X17650700Y19984981D02*
G01*
X17657179Y19978949D01*
X23913181Y13722948D01*
X23946666Y13661625D01*
X23949500Y13635267D01*
X23949500Y3766079D01*
X23949499Y3766079D01*
X23978340Y3621092D01*
X23978343Y3621082D01*
X24034913Y3484509D01*
X24034914Y3484507D01*
X24060994Y3445477D01*
X24060995Y3445475D01*
X24117043Y3361589D01*
X24240381Y3238250D01*
X24273865Y3176926D01*
X24268880Y3107235D01*
X24227009Y3051301D01*
X24214702Y3043183D01*
X24175447Y3020520D01*
X23714928Y2560000D01*
X23462181Y2307253D01*
X23400858Y2273768D01*
X23331167Y2278752D01*
X23275233Y2320624D01*
X23250816Y2386088D01*
X23250500Y2394934D01*
X23250500Y2700028D01*
X23257458Y2740982D01*
X23259977Y2748182D01*
X23285368Y2820745D01*
X23305310Y2997737D01*
X23305565Y2999996D01*
X23305565Y3000003D01*
X23285369Y3179249D01*
X23285368Y3179254D01*
X23280943Y3191901D01*
X23225789Y3349522D01*
X23129816Y3502262D01*
X23002262Y3629816D01*
X22849522Y3725789D01*
X22679255Y3785368D01*
X22679252Y3785368D01*
X22679249Y3785369D01*
X22500004Y3805565D01*
X22499999Y3805565D01*
X22492009Y3804664D01*
X22451810Y3800135D01*
X22382990Y3812189D01*
X22331610Y3859537D01*
X22313927Y3923355D01*
X22313927Y5055249D01*
X22333612Y5122288D01*
X22363615Y5154515D01*
X22420969Y5197451D01*
X22420973Y5197454D01*
X22480037Y5276353D01*
X22507220Y5312664D01*
X22507224Y5312671D01*
X22557518Y5447517D01*
X22557687Y5449092D01*
X22563927Y5507127D01*
X22563926Y6602872D01*
X22557518Y6662483D01*
X22507223Y6797331D01*
X22501197Y6805379D01*
X22476778Y6870842D01*
X22490322Y6934474D01*
X22489910Y6934645D01*
X22490833Y6936875D01*
X22491104Y6938146D01*
X22492241Y6940273D01*
X22549451Y7128868D01*
X22568768Y7325000D01*
X22549451Y7521132D01*
X22492241Y7709727D01*
X22399337Y7883538D01*
X22399331Y7883544D01*
X22395950Y7888607D01*
X22397591Y7889703D01*
X22373832Y7945639D01*
X22385621Y8014507D01*
X22396315Y8031148D01*
X22395950Y8031393D01*
X22399334Y8036458D01*
X22399337Y8036462D01*
X22492241Y8210273D01*
X22549451Y8398868D01*
X22568768Y8595000D01*
X22549451Y8791132D01*
X22492241Y8979727D01*
X22480267Y9002128D01*
X22399340Y9153532D01*
X22399336Y9153539D01*
X22383704Y9172586D01*
X22274310Y9305883D01*
X22121965Y9430910D01*
X22035059Y9477362D01*
X21948160Y9523811D01*
X21948159Y9523811D01*
X21948154Y9523814D01*
X21759559Y9581024D01*
X21563427Y9600341D01*
X21367295Y9581024D01*
X21178700Y9523814D01*
X21178696Y9523811D01*
X21178693Y9523811D01*
X21004894Y9430913D01*
X21004887Y9430909D01*
X20935114Y9373647D01*
X20870804Y9346334D01*
X20856449Y9345500D01*
X19610267Y9345500D01*
X19543228Y9365185D01*
X19541376Y9366398D01*
X19530527Y9373647D01*
X19435231Y9437322D01*
X19262251Y9508973D01*
X19078618Y9545499D01*
X19078617Y9545500D01*
X19078616Y9545500D01*
X18391384Y9545500D01*
X18391383Y9545500D01*
X18391379Y9545499D01*
X18207749Y9508973D01*
X18082973Y9457289D01*
X18034771Y9437323D01*
X18034762Y9437318D01*
X17879092Y9333302D01*
X17879088Y9333299D01*
X17746700Y9200911D01*
X17746697Y9200907D01*
X17642681Y9045237D01*
X17642676Y9045228D01*
X17571027Y8872251D01*
X17571025Y8872243D01*
X17534500Y8688620D01*
X17534500Y8501379D01*
X17571025Y8317756D01*
X17571027Y8317748D01*
X17642676Y8144771D01*
X17642684Y8144757D01*
X17720104Y8028890D01*
X17740982Y7962213D01*
X17722497Y7894833D01*
X17720104Y7891110D01*
X17642684Y7775242D01*
X17642676Y7775228D01*
X17571027Y7602251D01*
X17571025Y7602243D01*
X17534500Y7418620D01*
X17534500Y7231379D01*
X17571025Y7047756D01*
X17571027Y7047748D01*
X17642676Y6874771D01*
X17642684Y6874757D01*
X17720104Y6758890D01*
X17740982Y6692213D01*
X17722497Y6624833D01*
X17720104Y6621110D01*
X17642684Y6505242D01*
X17642676Y6505228D01*
X17571027Y6332251D01*
X17571025Y6332243D01*
X17534500Y6148620D01*
X17534500Y5961379D01*
X17571025Y5777756D01*
X17571027Y5777748D01*
X17642676Y5604771D01*
X17642681Y5604762D01*
X17746697Y5449092D01*
X17746700Y5449088D01*
X17879088Y5316700D01*
X17879092Y5316697D01*
X18034762Y5212681D01*
X18034771Y5212676D01*
X18207748Y5141027D01*
X18207756Y5141025D01*
X18391379Y5104500D01*
X18391384Y5104500D01*
X19078620Y5104500D01*
X19262243Y5141025D01*
X19262251Y5141027D01*
X19435228Y5212676D01*
X19435236Y5212681D01*
X19541376Y5283602D01*
X19608053Y5304480D01*
X19610267Y5304500D01*
X20563676Y5304500D01*
X20630715Y5284815D01*
X20662942Y5254812D01*
X20705880Y5197453D01*
X20763239Y5154515D01*
X20805109Y5098581D01*
X20812927Y5055249D01*
X20812927Y2675656D01*
X20793242Y2608617D01*
X20776608Y2587975D01*
X19400366Y1211734D01*
X19339045Y1178250D01*
X19269353Y1183234D01*
X19213420Y1225106D01*
X19189003Y1290570D01*
X19189467Y1313299D01*
X19198432Y1392866D01*
X19198432Y1392873D01*
X19178236Y1572119D01*
X19178235Y1572124D01*
X19150325Y1651887D01*
X19143367Y1692842D01*
X19143367Y3413845D01*
X19114526Y3558832D01*
X19114525Y3558838D01*
X19057951Y3695420D01*
X18975818Y3818341D01*
X18871283Y3922876D01*
X17296208Y5497952D01*
X17212453Y5553914D01*
X17173287Y5580084D01*
X17036705Y5636658D01*
X16989254Y5646096D01*
X16891712Y5665500D01*
X16891710Y5665500D01*
X13458290Y5665500D01*
X13458289Y5665500D01*
X13452491Y5664346D01*
X13429449Y5659763D01*
X13313296Y5636659D01*
X13246725Y5609084D01*
X13236313Y5604771D01*
X13176713Y5580084D01*
X13137547Y5553914D01*
X13053792Y5497952D01*
X13053790Y5497950D01*
X13053787Y5497948D01*
X13053786Y5497947D01*
X12542960Y4987120D01*
X12481637Y4953635D01*
X12479614Y4953213D01*
X12357749Y4928973D01*
X12227447Y4875000D01*
X12184771Y4857323D01*
X12184762Y4857318D01*
X12029092Y4753302D01*
X12029088Y4753299D01*
X11896700Y4620911D01*
X11896697Y4620907D01*
X11792681Y4465237D01*
X11792676Y4465228D01*
X11721027Y4292251D01*
X11721025Y4292243D01*
X11684500Y4108620D01*
X11684500Y3421379D01*
X11721025Y3237756D01*
X11721027Y3237748D01*
X11792677Y3064770D01*
X11863602Y2958622D01*
X11884479Y2891944D01*
X11884499Y2889732D01*
X11884499Y1643548D01*
X11864814Y1576509D01*
X11856359Y1564892D01*
X11799090Y1495110D01*
X11799087Y1495106D01*
X11799087Y1495105D01*
X11799086Y1495104D01*
X11706188Y1321305D01*
X11706186Y1321299D01*
X11678256Y1229227D01*
X11648975Y1132701D01*
X11629659Y936572D01*
X11648975Y740442D01*
X11706188Y551838D01*
X11799086Y378039D01*
X11799090Y378032D01*
X11924116Y225688D01*
X12076460Y100663D01*
X12076462Y100662D01*
X12161744Y55077D01*
X12211587Y6116D01*
X12227048Y-62021D01*
X12208829Y-119376D01*
X12164901Y-190596D01*
X12112954Y-237321D01*
X12059362Y-249500D01*
X11981058Y-249500D01*
X11914019Y-229815D01*
X11875519Y-190597D01*
X11792712Y-56344D01*
X11668656Y67712D01*
X11519334Y159814D01*
X11352797Y214999D01*
X11250009Y225500D01*
X11056259Y225499D01*
X10989221Y245183D01*
X10943466Y297987D01*
X10933522Y367145D01*
X10946902Y407952D01*
X11023811Y551839D01*
X11023814Y551845D01*
X11081024Y740440D01*
X11100341Y936572D01*
X11081024Y1132704D01*
X11023814Y1321299D01*
X10996941Y1371574D01*
X10948511Y1462181D01*
X10930910Y1495110D01*
X10873646Y1564886D01*
X10846333Y1629195D01*
X10845499Y1643551D01*
X10845499Y2889730D01*
X10865184Y2956769D01*
X10866397Y2958621D01*
X10937318Y3064762D01*
X10937323Y3064771D01*
X10972824Y3150478D01*
X11008973Y3237749D01*
X11045500Y3421384D01*
X11045500Y4108616D01*
X11008973Y4292251D01*
X10937322Y4465231D01*
X10833302Y4620908D01*
X10700908Y4753302D01*
X10545231Y4857322D01*
X10372251Y4928973D01*
X10188618Y4965499D01*
X10188617Y4965500D01*
X10188616Y4965500D01*
X10001384Y4965500D01*
X10001383Y4965500D01*
X10001379Y4965499D01*
X9817749Y4928973D01*
X9687447Y4875000D01*
X9644771Y4857323D01*
X9644762Y4857318D01*
X9528891Y4779895D01*
X9462214Y4759017D01*
X9394833Y4777501D01*
X9391109Y4779895D01*
X9275237Y4857318D01*
X9275236Y4857318D01*
X9275231Y4857322D01*
X9102251Y4928973D01*
X8918618Y4965499D01*
X8918617Y4965500D01*
X8918616Y4965500D01*
X8731384Y4965500D01*
X8731383Y4965500D01*
X8731379Y4965499D01*
X8547749Y4928973D01*
X8417447Y4875000D01*
X8374771Y4857323D01*
X8374762Y4857318D01*
X8258891Y4779895D01*
X8192214Y4759017D01*
X8124833Y4777501D01*
X8121109Y4779895D01*
X8005237Y4857318D01*
X8005236Y4857318D01*
X8005231Y4857322D01*
X7832251Y4928973D01*
X7648618Y4965499D01*
X7648617Y4965500D01*
X7648616Y4965500D01*
X7529500Y4965500D01*
X7462461Y4985185D01*
X7416706Y5037989D01*
X7405500Y5089500D01*
X7405500Y11041379D01*
X17534500Y11041379D01*
X17571025Y10857756D01*
X17571027Y10857748D01*
X17642676Y10684771D01*
X17642681Y10684762D01*
X17746697Y10529092D01*
X17746700Y10529088D01*
X17879088Y10396700D01*
X17879092Y10396697D01*
X18034762Y10292681D01*
X18034771Y10292676D01*
X18207748Y10221027D01*
X18207756Y10221025D01*
X18391379Y10184500D01*
X18391384Y10184500D01*
X19078620Y10184500D01*
X19262243Y10221025D01*
X19262251Y10221027D01*
X19435228Y10292676D01*
X19435237Y10292681D01*
X19590907Y10396697D01*
X19590911Y10396700D01*
X19723299Y10529088D01*
X19723302Y10529092D01*
X19827318Y10684762D01*
X19827323Y10684771D01*
X19865842Y10777765D01*
X19898973Y10857749D01*
X19935500Y11041384D01*
X19935500Y11135000D01*
X20558086Y11135000D01*
X20577402Y10938870D01*
X20634615Y10750266D01*
X20727513Y10576467D01*
X20727517Y10576460D01*
X20852543Y10424116D01*
X21004887Y10299090D01*
X21004894Y10299086D01*
X21178693Y10206188D01*
X21367297Y10148975D01*
X21563427Y10129659D01*
X21759556Y10148975D01*
X21876665Y10184500D01*
X21948154Y10206186D01*
X21948160Y10206188D01*
X22121959Y10299086D01*
X22121966Y10299090D01*
X22274310Y10424116D01*
X22399336Y10576460D01*
X22399340Y10576467D01*
X22492238Y10750266D01*
X22492238Y10750269D01*
X22492241Y10750273D01*
X22549451Y10938868D01*
X22568768Y11135000D01*
X22549451Y11331132D01*
X22492241Y11519727D01*
X22399337Y11693538D01*
X22274310Y11845883D01*
X22121965Y11970910D01*
X22035059Y12017362D01*
X21948160Y12063811D01*
X21948159Y12063811D01*
X21948154Y12063814D01*
X21759559Y12121024D01*
X21563427Y12140341D01*
X21367295Y12121024D01*
X21178700Y12063814D01*
X21178696Y12063811D01*
X21178693Y12063811D01*
X21004894Y11970913D01*
X21004887Y11970909D01*
X20852543Y11845883D01*
X20727517Y11693539D01*
X20727513Y11693532D01*
X20634615Y11519733D01*
X20577402Y11331129D01*
X20558086Y11135000D01*
X19935500Y11135000D01*
X19935500Y11228616D01*
X19898973Y11412251D01*
X19827322Y11585231D01*
X19723302Y11740908D01*
X19590908Y11873302D01*
X19435231Y11977322D01*
X19262251Y12048973D01*
X19078618Y12085499D01*
X19078617Y12085500D01*
X19078616Y12085500D01*
X18391384Y12085500D01*
X18391383Y12085500D01*
X18391379Y12085499D01*
X18207749Y12048973D01*
X18094979Y12002262D01*
X18034771Y11977323D01*
X18034762Y11977318D01*
X17879092Y11873302D01*
X17879088Y11873299D01*
X17746700Y11740911D01*
X17746697Y11740907D01*
X17642681Y11585237D01*
X17642676Y11585228D01*
X17571027Y11412251D01*
X17571025Y11412243D01*
X17534500Y11228620D01*
X17534500Y11041379D01*
X7405500Y11041379D01*
X7405500Y14215022D01*
X7425185Y14282061D01*
X7477989Y14327816D01*
X7543380Y14338243D01*
X7547160Y14337817D01*
X7554999Y14336934D01*
X7555001Y14336934D01*
X7555003Y14336934D01*
X7734248Y14357129D01*
X7734253Y14357130D01*
X7904522Y14416710D01*
X8057261Y14512683D01*
X8184814Y14640236D01*
X8192458Y14652400D01*
X8271499Y14778194D01*
X8280787Y14792975D01*
X8281824Y14795937D01*
X8340367Y14963244D01*
X8340614Y14965435D01*
X8360564Y15142495D01*
X8360564Y15142502D01*
X8340368Y15321750D01*
X8325046Y15365537D01*
X8312457Y15401513D01*
X8305499Y15442467D01*
X8305499Y15985791D01*
X8325184Y16052830D01*
X8377988Y16098585D01*
X8447146Y16108529D01*
X8476951Y16100352D01*
X8547744Y16071028D01*
X8547756Y16071025D01*
X8731379Y16034500D01*
X8731384Y16034500D01*
X8918620Y16034500D01*
X9102243Y16071025D01*
X9102251Y16071027D01*
X9275228Y16142676D01*
X9275242Y16142684D01*
X9391110Y16220104D01*
X9457787Y16240982D01*
X9525167Y16222497D01*
X9528890Y16220104D01*
X9644757Y16142684D01*
X9644771Y16142676D01*
X9817748Y16071027D01*
X9817756Y16071025D01*
X10001379Y16034500D01*
X10001384Y16034500D01*
X10188620Y16034500D01*
X10372243Y16071025D01*
X10372251Y16071027D01*
X10545227Y16142676D01*
X10545228Y16142676D01*
X10545231Y16142678D01*
X10599972Y16179255D01*
X10607111Y16184025D01*
X10673788Y16204902D01*
X10741168Y16186417D01*
X10763680Y16168605D01*
X10806898Y16125387D01*
X10806904Y16125383D01*
X10950288Y16029576D01*
X10950301Y16029569D01*
X11109621Y15963577D01*
X11109633Y15963574D01*
X11278766Y15929931D01*
X11278771Y15929931D01*
X11451233Y15929931D01*
X11620366Y15963574D01*
X11620378Y15963577D01*
X11779698Y16029569D01*
X11779711Y16029576D01*
X11923098Y16125385D01*
X11923102Y16125388D01*
X11966317Y16168603D01*
X12027640Y16202088D01*
X12097332Y16197104D01*
X12122888Y16184024D01*
X12184757Y16142684D01*
X12184771Y16142676D01*
X12357748Y16071027D01*
X12357756Y16071025D01*
X12541379Y16034500D01*
X12541384Y16034500D01*
X12728620Y16034500D01*
X12912243Y16071025D01*
X12912251Y16071027D01*
X13085228Y16142676D01*
X13085242Y16142684D01*
X13201110Y16220104D01*
X13267787Y16240982D01*
X13335167Y16222497D01*
X13338890Y16220104D01*
X13454757Y16142684D01*
X13454771Y16142676D01*
X13627748Y16071027D01*
X13627756Y16071025D01*
X13811379Y16034500D01*
X13811384Y16034500D01*
X13998620Y16034500D01*
X14182243Y16071025D01*
X14182251Y16071027D01*
X14355228Y16142676D01*
X14355242Y16142684D01*
X14471110Y16220104D01*
X14537787Y16240982D01*
X14605167Y16222497D01*
X14608890Y16220104D01*
X14724757Y16142684D01*
X14724771Y16142676D01*
X14897748Y16071027D01*
X14897753Y16071025D01*
X14942956Y16062034D01*
X15004866Y16029648D01*
X15039440Y15968932D01*
X15035699Y15899163D01*
X15006444Y15852736D01*
X14119148Y14965440D01*
X14119142Y14965433D01*
X13975469Y14778194D01*
X13975463Y14778186D01*
X13975460Y14778181D01*
X13975458Y14778178D01*
X13857455Y14573793D01*
X13857447Y14573777D01*
X13767136Y14355745D01*
X13767132Y14355733D01*
X13767131Y14355730D01*
X13718839Y14175500D01*
X13706043Y14127746D01*
X13675236Y13893754D01*
X13675236Y13657717D01*
X13706043Y13423725D01*
X13736587Y13309732D01*
X13757591Y13231344D01*
X13767132Y13195739D01*
X13767136Y13195726D01*
X13857447Y12977694D01*
X13857455Y12977678D01*
X13975458Y12773293D01*
X13975469Y12773277D01*
X14119142Y12586038D01*
X14119148Y12586031D01*
X14286031Y12419148D01*
X14286038Y12419142D01*
X14473277Y12275469D01*
X14473293Y12275458D01*
X14677678Y12157455D01*
X14677694Y12157447D01*
X14895726Y12067136D01*
X14895739Y12067132D01*
X14895740Y12067131D01*
X14895742Y12067131D01*
X15009732Y12036587D01*
X15123725Y12006043D01*
X15357717Y11975236D01*
X15357725Y11975236D01*
X15593754Y11975236D01*
X15827746Y12006043D01*
X15827750Y12006044D01*
X16055730Y12067131D01*
X16055733Y12067132D01*
X16055745Y12067136D01*
X16273777Y12157447D01*
X16273793Y12157455D01*
X16478178Y12275458D01*
X16478181Y12275460D01*
X16478186Y12275463D01*
X16478194Y12275469D01*
X16665433Y12419142D01*
X16665440Y12419148D01*
X17680848Y13434556D01*
X17680855Y13434564D01*
X17824538Y13621813D01*
X17942546Y13826210D01*
X17942553Y13826225D01*
X18032870Y14044271D01*
X18040144Y14071416D01*
X18093957Y14272250D01*
X18124764Y14506253D01*
X18124764Y14742275D01*
X18093957Y14976278D01*
X18032870Y15204258D01*
X17942548Y15422314D01*
X17824538Y15626715D01*
X17806305Y15650476D01*
X17747422Y15727214D01*
X17680856Y15813964D01*
X17680851Y15813968D01*
X17680848Y15813973D01*
X17513973Y15980848D01*
X17513968Y15980851D01*
X17513964Y15980856D01*
X17326715Y16124538D01*
X17214233Y16189478D01*
X17166018Y16240045D01*
X17152794Y16308652D01*
X17178762Y16373517D01*
X17180380Y16375531D01*
X17183301Y16379091D01*
X17192403Y16392712D01*
X17240697Y16464990D01*
X17287318Y16534762D01*
X17287323Y16534771D01*
X17322429Y16619524D01*
X17358973Y16707749D01*
X17395500Y16891384D01*
X17395500Y17578616D01*
X17358973Y17762251D01*
X17287322Y17935231D01*
X17216396Y18041377D01*
X17195519Y18108055D01*
X17195499Y18110268D01*
X17195499Y19063676D01*
X17215184Y19130715D01*
X17245187Y19162942D01*
X17302541Y19205878D01*
X17302545Y19205881D01*
X17351463Y19271227D01*
X17388792Y19321091D01*
X17388796Y19321098D01*
X17418528Y19400815D01*
X17439090Y19455944D01*
X17445499Y19515554D01*
X17445498Y19891269D01*
X17465182Y19958307D01*
X17517986Y20004062D01*
X17587145Y20014006D01*
X17650700Y19984981D01*
G37*
%TD.AperFunction*%
%TA.AperFunction,Conductor*%
G36*
X-2615464Y28029815D02*
G01*
X-2569709Y27977011D01*
X-2559765Y27907853D01*
X-2562728Y27893407D01*
X-2605063Y27735408D01*
X-2625659Y27500000D01*
X-2619363Y27428044D01*
X-2633129Y27359547D01*
X-2655207Y27329560D01*
X-5537821Y24446947D01*
X-5599142Y24413464D01*
X-5668834Y24418448D01*
X-5724767Y24460320D01*
X-5749184Y24525784D01*
X-5749500Y24534630D01*
X-5749500Y24685922D01*
X-5780290Y24880324D01*
X-5801292Y24944960D01*
X-5801294Y24944966D01*
X-5806720Y24970679D01*
X-5810001Y25002798D01*
X-5865185Y25169331D01*
X-5865187Y25169336D01*
X-5957033Y25318242D01*
X-5957288Y25318656D01*
X-6050951Y25412319D01*
X-6084436Y25473642D01*
X-6079452Y25543334D01*
X-6050951Y25587681D01*
X-5957289Y25681342D01*
X-5865187Y25830663D01*
X-5865185Y25830668D01*
X-5810001Y25997204D01*
X-5810000Y25997204D01*
X-5799500Y26099983D01*
X-5799500Y26725001D01*
X-5799501Y26725019D01*
X-5810000Y26827796D01*
X-5810002Y26827803D01*
X-5838417Y26913555D01*
X-5840818Y26983383D01*
X-5808392Y27040239D01*
X-4835452Y28013181D01*
X-4774129Y28046666D01*
X-4747771Y28049500D01*
X-2682503Y28049500D01*
X-2615464Y28029815D01*
G37*
%TD.AperFunction*%
%TD*%
M02*
