%TF.GenerationSoftware,KiCad,Pcbnew,8.0.1*%
%TF.CreationDate,2024-05-14T23:10:40+09:00*%
%TF.ProjectId,main,6d61696e-2e6b-4696-9361-645f70636258,rev?*%
%TF.SameCoordinates,Original*%
%TF.FileFunction,Soldermask,Top*%
%TF.FilePolarity,Negative*%
%FSLAX46Y46*%
G04 Gerber Fmt 4.6, Leading zero omitted, Abs format (unit mm)*
G04 Created by KiCad (PCBNEW 8.0.1) date 2024-05-14 23:10:40*
%MOMM*%
%LPD*%
G01*
G04 APERTURE LIST*
G04 Aperture macros list*
%AMRoundRect*
0 Rectangle with rounded corners*
0 $1 Rounding radius*
0 $2 $3 $4 $5 $6 $7 $8 $9 X,Y pos of 4 corners*
0 Add a 4 corners polygon primitive as box body*
4,1,4,$2,$3,$4,$5,$6,$7,$8,$9,$2,$3,0*
0 Add four circle primitives for the rounded corners*
1,1,$1+$1,$2,$3*
1,1,$1+$1,$4,$5*
1,1,$1+$1,$6,$7*
1,1,$1+$1,$8,$9*
0 Add four rect primitives between the rounded corners*
20,1,$1+$1,$2,$3,$4,$5,0*
20,1,$1+$1,$4,$5,$6,$7,0*
20,1,$1+$1,$6,$7,$8,$9,0*
20,1,$1+$1,$8,$9,$2,$3,0*%
%AMHorizOval*
0 Thick line with rounded ends*
0 $1 width*
0 $2 $3 position (X,Y) of the first rounded end (center of the circle)*
0 $4 $5 position (X,Y) of the second rounded end (center of the circle)*
0 Add line between two ends*
20,1,$1,$2,$3,$4,$5,0*
0 Add two circle primitives to create the rounded ends*
1,1,$1,$2,$3*
1,1,$1,$4,$5*%
%AMRotRect*
0 Rectangle, with rotation*
0 The origin of the aperture is its center*
0 $1 length*
0 $2 width*
0 $3 Rotation angle, in degrees counterclockwise*
0 Add horizontal line*
21,1,$1,$2,0,0,$3*%
G04 Aperture macros list end*
%ADD10RoundRect,0.200000X-0.250000X-0.200000X0.250000X-0.200000X0.250000X0.200000X-0.250000X0.200000X0*%
%ADD11O,2.700000X2.000000*%
%ADD12RoundRect,0.250000X0.475000X-0.250000X0.475000X0.250000X-0.475000X0.250000X-0.475000X-0.250000X0*%
%ADD13RoundRect,0.112500X-0.237500X0.112500X-0.237500X-0.112500X0.237500X-0.112500X0.237500X0.112500X0*%
%ADD14HorizOval,3.100000X0.424264X0.424264X-0.424264X-0.424264X0*%
%ADD15O,0.900000X1.400000*%
%ADD16O,1.400000X0.900000*%
%ADD17O,1.200000X0.900000*%
%ADD18O,1.700000X1.700000*%
%ADD19R,1.700000X1.700000*%
%ADD20C,1.350000*%
%ADD21RoundRect,0.375000X-0.625000X-0.375000X0.625000X-0.375000X0.625000X0.375000X-0.625000X0.375000X0*%
%ADD22RoundRect,0.500000X-0.500000X-1.400000X0.500000X-1.400000X0.500000X1.400000X-0.500000X1.400000X0*%
%ADD23O,2.000000X2.700000*%
%ADD24C,1.500000*%
%ADD25RotRect,1.700000X1.700000X225.000000*%
%ADD26HorizOval,1.700000X0.000000X0.000000X0.000000X0.000000X0*%
G04 APERTURE END LIST*
D10*
%TO.C,NPN*%
X92458237Y-76991763D03*
X92458237Y-78891763D03*
X94858237Y-77941763D03*
%TD*%
D11*
%TO.C,SW5*%
X59658237Y-108191763D03*
X59658237Y-114691763D03*
%TD*%
D12*
%TO.C,C2*%
X66158237Y-95891763D03*
X66158237Y-93991763D03*
%TD*%
D11*
%TO.C,SW3*%
X72658237Y-108191763D03*
X72658237Y-114691763D03*
%TD*%
D13*
%TO.C,PNP*%
X82908237Y-113791763D03*
X82908237Y-115091763D03*
X84908237Y-114441763D03*
%TD*%
D14*
%TO.C,U1*%
X79258237Y-77141763D03*
D15*
X78713237Y-80176763D03*
X79983237Y-80176763D03*
X81253237Y-80176763D03*
X82523237Y-80176763D03*
X83793237Y-80176763D03*
X85063237Y-80176763D03*
X86333237Y-80176763D03*
X87603237Y-80176763D03*
D16*
X89893237Y-77886763D03*
X89893237Y-76616763D03*
X89893237Y-75346763D03*
X89893237Y-74076763D03*
X89893237Y-72806763D03*
X89893237Y-71536763D03*
X89893237Y-70266763D03*
X89893237Y-68996763D03*
D15*
X87603237Y-66706763D03*
X86333237Y-66706763D03*
X85063237Y-66706763D03*
X83793237Y-66706763D03*
X82523237Y-66706763D03*
X81253237Y-66706763D03*
X79983237Y-66706763D03*
X78713237Y-66706763D03*
D16*
X76423237Y-68996763D03*
X76423237Y-70266763D03*
X76423237Y-71536763D03*
X76423237Y-72806763D03*
X76423237Y-74076763D03*
X76423237Y-75346763D03*
D17*
X76323237Y-76616763D03*
X76323237Y-77886763D03*
%TD*%
D12*
%TO.C,C4*%
X71158237Y-95891763D03*
X71158237Y-93991763D03*
%TD*%
%TO.C,C5*%
X73600000Y-95950000D03*
X73600000Y-94050000D03*
%TD*%
D18*
%TO.C,U2*%
X69978237Y-80916763D03*
X67438237Y-80916763D03*
X64898237Y-80916763D03*
D19*
X62358237Y-80916763D03*
%TD*%
D20*
%TO.C,U4*%
X90158237Y-112441763D03*
X90158236Y-110441763D03*
X92158236Y-112441763D03*
X92158237Y-110441763D03*
X94158237Y-112441763D03*
X94158237Y-110441762D03*
X96158238Y-112441763D03*
X96158237Y-110441763D03*
%TD*%
D21*
%TO.C,U3*%
X80008237Y-85141763D03*
X80008237Y-87441763D03*
D22*
X86308237Y-87441763D03*
D21*
X80008237Y-89741763D03*
%TD*%
D23*
%TO.C,SW2*%
X69408237Y-115941763D03*
X62908237Y-115941763D03*
%TD*%
D10*
%TO.C,NPN*%
X82708237Y-109741763D03*
X82708237Y-111641763D03*
X85108237Y-110691763D03*
%TD*%
D23*
%TO.C,SW1*%
X69408237Y-111441763D03*
X62908237Y-111441763D03*
%TD*%
D12*
%TO.C,C1*%
X63658237Y-95891763D03*
X63658237Y-93991763D03*
%TD*%
D13*
%TO.C,PNP*%
X92658237Y-80791763D03*
X92658237Y-82091763D03*
X94658237Y-81441763D03*
%TD*%
D23*
%TO.C,SW4*%
X69408237Y-107441763D03*
X62908237Y-107441763D03*
%TD*%
D12*
%TO.C,C3*%
X68658237Y-95891763D03*
X68658237Y-93991763D03*
%TD*%
D24*
%TO.C,SW6*%
X93890470Y-68709530D03*
X95658237Y-66941763D03*
X97426004Y-65173996D03*
%TD*%
D25*
%TO.C,J2*%
X95574517Y-73080583D03*
D26*
X97370568Y-74876634D03*
X99166619Y-76672685D03*
X100962671Y-78468737D03*
X102758722Y-80264788D03*
X104554773Y-82060839D03*
%TD*%
M02*
