%TF.GenerationSoftware,KiCad,Pcbnew,8.0.1*%
%TF.CreationDate,2024-06-30T14:52:12+09:00*%
%TF.ProjectId,main,6d61696e-2e6b-4696-9361-645f70636258,rev?*%
%TF.SameCoordinates,Original*%
%TF.FileFunction,Paste,Top*%
%TF.FilePolarity,Positive*%
%FSLAX46Y46*%
G04 Gerber Fmt 4.6, Leading zero omitted, Abs format (unit mm)*
G04 Created by KiCad (PCBNEW 8.0.1) date 2024-06-30 14:52:12*
%MOMM*%
%LPD*%
G01*
G04 APERTURE LIST*
G04 Aperture macros list*
%AMRoundRect*
0 Rectangle with rounded corners*
0 $1 Rounding radius*
0 $2 $3 $4 $5 $6 $7 $8 $9 X,Y pos of 4 corners*
0 Add a 4 corners polygon primitive as box body*
4,1,4,$2,$3,$4,$5,$6,$7,$8,$9,$2,$3,0*
0 Add four circle primitives for the rounded corners*
1,1,$1+$1,$2,$3*
1,1,$1+$1,$4,$5*
1,1,$1+$1,$6,$7*
1,1,$1+$1,$8,$9*
0 Add four rect primitives between the rounded corners*
20,1,$1+$1,$2,$3,$4,$5,0*
20,1,$1+$1,$4,$5,$6,$7,0*
20,1,$1+$1,$6,$7,$8,$9,0*
20,1,$1+$1,$8,$9,$2,$3,0*%
G04 Aperture macros list end*
%ADD10RoundRect,0.350000X-0.350000X-0.350000X0.350000X-0.350000X0.350000X0.350000X-0.350000X0.350000X0*%
%ADD11RoundRect,0.375000X-0.375000X0.625000X-0.375000X-0.625000X0.375000X-0.625000X0.375000X0.625000X0*%
%ADD12RoundRect,0.500000X-1.400000X0.500000X-1.400000X-0.500000X1.400000X-0.500000X1.400000X0.500000X0*%
%ADD13RoundRect,0.250000X0.475000X-0.250000X0.475000X0.250000X-0.475000X0.250000X-0.475000X-0.250000X0*%
%ADD14RoundRect,0.250000X-0.450000X0.262500X-0.450000X-0.262500X0.450000X-0.262500X0.450000X0.262500X0*%
%ADD15RoundRect,0.250000X0.262500X0.450000X-0.262500X0.450000X-0.262500X-0.450000X0.262500X-0.450000X0*%
%ADD16RoundRect,0.243750X-0.243750X-0.456250X0.243750X-0.456250X0.243750X0.456250X-0.243750X0.456250X0*%
%ADD17RoundRect,0.250000X-0.250000X-0.475000X0.250000X-0.475000X0.250000X0.475000X-0.250000X0.475000X0*%
%ADD18RoundRect,0.250000X-0.262500X-0.450000X0.262500X-0.450000X0.262500X0.450000X-0.262500X0.450000X0*%
%ADD19RoundRect,0.250000X0.450000X-0.262500X0.450000X0.262500X-0.450000X0.262500X-0.450000X-0.262500X0*%
%ADD20RoundRect,0.250000X-0.475000X0.250000X-0.475000X-0.250000X0.475000X-0.250000X0.475000X0.250000X0*%
%ADD21O,0.900000X1.400000*%
%ADD22O,1.400000X0.900000*%
%ADD23O,1.200000X0.900000*%
%ADD24RoundRect,0.218750X0.218750X0.256250X-0.218750X0.256250X-0.218750X-0.256250X0.218750X-0.256250X0*%
G04 APERTURE END LIST*
D10*
%TO.C,SW7*%
X-1700000Y-4000000D03*
X4700000Y-4000000D03*
%TD*%
%TO.C,SW6*%
X-1700000Y500000D03*
X4700000Y500000D03*
%TD*%
D11*
%TO.C,U2*%
X-8700000Y16150000D03*
X-11000000Y16150000D03*
D12*
X-11000000Y9850000D03*
D11*
X-13300000Y16150000D03*
%TD*%
D13*
%TO.C,C7*%
X1000000Y-13950000D03*
X1000000Y-12050000D03*
%TD*%
D14*
%TO.C,R13*%
X23000000Y-8087500D03*
X23000000Y-9912500D03*
%TD*%
D15*
%TO.C,R9*%
X14912500Y-8000000D03*
X13087500Y-8000000D03*
%TD*%
D16*
%TO.C,PWR*%
X-24937500Y5500000D03*
X-23062500Y5500000D03*
%TD*%
D17*
%TO.C,C8*%
X9050000Y-15000000D03*
X10950000Y-15000000D03*
%TD*%
D18*
%TO.C,R14*%
X-3412500Y3750000D03*
X-1587500Y3750000D03*
%TD*%
D15*
%TO.C,R5*%
X-1587500Y8000000D03*
X-3412500Y8000000D03*
%TD*%
D18*
%TO.C,R2*%
X-3412500Y15000000D03*
X-1587500Y15000000D03*
%TD*%
D14*
%TO.C,R11*%
X1000000Y-8087500D03*
X1000000Y-9912500D03*
%TD*%
D17*
%TO.C,C6*%
X9050000Y-1000000D03*
X10950000Y-1000000D03*
%TD*%
D19*
%TO.C,R7*%
X-7000000Y24587500D03*
X-7000000Y26412500D03*
%TD*%
D18*
%TO.C,R4*%
X-3412500Y10500000D03*
X-1587500Y10500000D03*
%TD*%
%TO.C,R6*%
X-3412500Y6000000D03*
X-1587500Y6000000D03*
%TD*%
D13*
%TO.C,C1*%
X-16000000Y15550000D03*
X-16000000Y17450000D03*
%TD*%
D15*
%TO.C,R1*%
X-1587500Y17000000D03*
X-3412500Y17000000D03*
%TD*%
D20*
%TO.C,C3*%
X-11000000Y6950000D03*
X-11000000Y5050000D03*
%TD*%
D19*
%TO.C,R8*%
X7000000Y24587500D03*
X7000000Y26412500D03*
%TD*%
D15*
%TO.C,R12*%
X14912500Y-15000000D03*
X13087500Y-15000000D03*
%TD*%
%TO.C,R3*%
X-1587500Y12500000D03*
X-3412500Y12500000D03*
%TD*%
%TO.C,R15*%
X-18587500Y5500000D03*
X-20412500Y5500000D03*
%TD*%
D21*
%TO.C,U1*%
X16445000Y17235000D03*
X15175000Y17235000D03*
X13905000Y17235000D03*
X12635000Y17235000D03*
X11365000Y17235000D03*
X10095000Y17235000D03*
X8825000Y17235000D03*
X7555000Y17235000D03*
D22*
X5265000Y14945000D03*
X5265000Y13675000D03*
X5265000Y12405000D03*
X5265000Y11135000D03*
X5265000Y9865000D03*
X5265000Y8595000D03*
X5265000Y7325000D03*
X5265000Y6055000D03*
D21*
X7555000Y3765000D03*
X8825000Y3765000D03*
X10095000Y3765000D03*
X11365000Y3765000D03*
X12635000Y3765000D03*
X13905000Y3765000D03*
X15175000Y3765000D03*
X16445000Y3765000D03*
D22*
X18735000Y6055000D03*
X18735000Y7325000D03*
X18735000Y8595000D03*
X18735000Y9865000D03*
X18735000Y11135000D03*
X18735000Y12405000D03*
D23*
X18835000Y13675000D03*
X18835000Y14945000D03*
%TD*%
D15*
%TO.C,R10*%
X14912500Y-1000000D03*
X13087500Y-1000000D03*
%TD*%
D17*
%TO.C,C5*%
X9050000Y-8000000D03*
X10950000Y-8000000D03*
%TD*%
D24*
%TO.C,FB1*%
X-18712500Y3500000D03*
X-20287500Y3500000D03*
%TD*%
D20*
%TO.C,C2*%
X-16000000Y13950000D03*
X-16000000Y12050000D03*
%TD*%
D13*
%TO.C,C9*%
X23000000Y-13950000D03*
X23000000Y-12050000D03*
%TD*%
M02*
