M48
; DRILL file {KiCad 8.0.1} date 2024-05-14T23:10:40+0900
; FORMAT={-:-/ absolute / inch / decimal}
; #@! TF.CreationDate,2024-05-14T23:10:40+09:00
; #@! TF.GenerationSoftware,Kicad,Pcbnew,8.0.1
; #@! TF.FileFunction,Plated,1,2,PTH
FMAT,2
INCH
; #@! TA.AperFunction,Plated,PTH,ViaDrill
T1C0.0118
; #@! TA.AperFunction,Plated,PTH,ComponentDrill
T2C0.0315
; #@! TA.AperFunction,Plated,PTH,ComponentDrill
T3C0.0394
; #@! TA.AperFunction,Plated,PTH,ComponentDrill
T4C0.0512
%
G90
G05
T1
X2.27Y-3.6847
X2.3094Y-3.6847
X2.3487Y-3.6847
X2.3881Y-3.6847
X2.4275Y-3.6847
X2.4275Y-3.7379
X2.7058Y-3.0838
X3.1047Y-2.8579
X3.1047Y-2.9131
X3.1598Y-2.8028
X3.1598Y-2.8579
X3.1598Y-2.9131
X3.2149Y-2.7556
X3.2149Y-2.8028
X3.2149Y-2.8579
X3.2149Y-2.9131
X3.2464Y-2.5036
X3.2739Y-3.5331
X3.2858Y-2.5036
X3.2989Y-3.0936
X3.3035Y-4.3579
X3.3035Y-4.4268
X3.3118Y-4.8009
X3.3251Y-2.5036
X3.3633Y-2.5025
X3.3881Y-2.7556
X3.3881Y-2.8028
X3.3881Y-2.8579
X3.3881Y-2.9131
X3.3881Y-2.9603
X3.3989Y-2.5003
X3.48Y-2.964
X3.48Y-3.0192
X3.48Y-3.0664
X3.6873Y-3.0981
X3.6873Y-3.1473
X3.6873Y-3.1965
X3.7635Y-3.0192
T2
X3.5495Y-4.3481
X3.5495Y-4.4268
X3.6283Y-4.4268
X3.6283Y-4.3481
X3.6965Y-2.7051
X3.707Y-4.3481
X3.707Y-4.4268
X3.7661Y-2.6355
X3.7858Y-4.3481
X3.7858Y-4.4268
X3.8357Y-2.5659
T3
X2.455Y-3.1857
X2.555Y-3.1857
X2.655Y-3.1857
X2.755Y-3.1857
X3.7628Y-2.8772
X3.8335Y-2.9479
X3.9042Y-3.0186
X3.9749Y-3.0893
X4.0456Y-3.16
X4.1163Y-3.2307
T4
G00X2.3625Y-4.2595
M15
G01X2.335Y-4.2595
M16
G05
G00X2.3625Y-4.5154
M15
G01X2.335Y-4.5154
M16
G05
G00X2.4767Y-4.2438
M15
G01X2.4767Y-4.2162
M16
G05
G00X2.4767Y-4.4013
M15
G01X2.4767Y-4.3737
M16
G05
G00X2.4767Y-4.5784
M15
G01X2.4767Y-4.5509
M16
G05
G00X2.7326Y-4.2438
M15
G01X2.7326Y-4.2162
M16
G05
G00X2.7326Y-4.4013
M15
G01X2.7326Y-4.3737
M16
G05
G00X2.7326Y-4.5784
M15
G01X2.7326Y-4.5509
M16
G05
G00X2.8743Y-4.2595
M15
G01X2.8468Y-4.2595
M16
G05
G00X2.8743Y-4.5154
M15
G01X2.8468Y-4.5154
M16
G05
M30
