%TF.GenerationSoftware,KiCad,Pcbnew,8.0.1*%
%TF.CreationDate,2024-07-13T16:03:54+09:00*%
%TF.ProjectId,main,6d61696e-2e6b-4696-9361-645f70636258,rev?*%
%TF.SameCoordinates,Original*%
%TF.FileFunction,Copper,L1,Top*%
%TF.FilePolarity,Positive*%
%FSLAX46Y46*%
G04 Gerber Fmt 4.6, Leading zero omitted, Abs format (unit mm)*
G04 Created by KiCad (PCBNEW 8.0.1) date 2024-07-13 16:03:54*
%MOMM*%
%LPD*%
G01*
G04 APERTURE LIST*
G04 Aperture macros list*
%AMRoundRect*
0 Rectangle with rounded corners*
0 $1 Rounding radius*
0 $2 $3 $4 $5 $6 $7 $8 $9 X,Y pos of 4 corners*
0 Add a 4 corners polygon primitive as box body*
4,1,4,$2,$3,$4,$5,$6,$7,$8,$9,$2,$3,0*
0 Add four circle primitives for the rounded corners*
1,1,$1+$1,$2,$3*
1,1,$1+$1,$4,$5*
1,1,$1+$1,$6,$7*
1,1,$1+$1,$8,$9*
0 Add four rect primitives between the rounded corners*
20,1,$1+$1,$2,$3,$4,$5,0*
20,1,$1+$1,$4,$5,$6,$7,0*
20,1,$1+$1,$6,$7,$8,$9,0*
20,1,$1+$1,$8,$9,$2,$3,0*%
G04 Aperture macros list end*
%TA.AperFunction,ComponentPad*%
%ADD10O,1.400000X2.100000*%
%TD*%
%TA.AperFunction,SMDPad,CuDef*%
%ADD11RoundRect,0.350000X-0.350000X-0.350000X0.350000X-0.350000X0.350000X0.350000X-0.350000X0.350000X0*%
%TD*%
%TA.AperFunction,SMDPad,CuDef*%
%ADD12RoundRect,0.375000X-0.375000X0.625000X-0.375000X-0.625000X0.375000X-0.625000X0.375000X0.625000X0*%
%TD*%
%TA.AperFunction,SMDPad,CuDef*%
%ADD13RoundRect,0.500000X-1.400000X0.500000X-1.400000X-0.500000X1.400000X-0.500000X1.400000X0.500000X0*%
%TD*%
%TA.AperFunction,SMDPad,CuDef*%
%ADD14RoundRect,0.250000X0.475000X-0.250000X0.475000X0.250000X-0.475000X0.250000X-0.475000X-0.250000X0*%
%TD*%
%TA.AperFunction,ComponentPad*%
%ADD15R,1.000000X1.000000*%
%TD*%
%TA.AperFunction,ComponentPad*%
%ADD16O,1.000000X1.000000*%
%TD*%
%TA.AperFunction,SMDPad,CuDef*%
%ADD17RoundRect,0.250000X-0.475000X0.250000X-0.475000X-0.250000X0.475000X-0.250000X0.475000X0.250000X0*%
%TD*%
%TA.AperFunction,SMDPad,CuDef*%
%ADD18RoundRect,0.250000X-0.450000X0.262500X-0.450000X-0.262500X0.450000X-0.262500X0.450000X0.262500X0*%
%TD*%
%TA.AperFunction,SMDPad,CuDef*%
%ADD19RoundRect,0.250000X0.262500X0.450000X-0.262500X0.450000X-0.262500X-0.450000X0.262500X-0.450000X0*%
%TD*%
%TA.AperFunction,SMDPad,CuDef*%
%ADD20RoundRect,0.250000X-0.262500X-0.450000X0.262500X-0.450000X0.262500X0.450000X-0.262500X0.450000X0*%
%TD*%
%TA.AperFunction,SMDPad,CuDef*%
%ADD21RoundRect,0.243750X0.456250X-0.243750X0.456250X0.243750X-0.456250X0.243750X-0.456250X-0.243750X0*%
%TD*%
%TA.AperFunction,SMDPad,CuDef*%
%ADD22RoundRect,0.250000X-0.250000X-0.475000X0.250000X-0.475000X0.250000X0.475000X-0.250000X0.475000X0*%
%TD*%
%TA.AperFunction,ComponentPad*%
%ADD23O,2.100000X1.400000*%
%TD*%
%TA.AperFunction,SMDPad,CuDef*%
%ADD24RoundRect,0.243750X-0.243750X-0.456250X0.243750X-0.456250X0.243750X0.456250X-0.243750X0.456250X0*%
%TD*%
%TA.AperFunction,SMDPad,CuDef*%
%ADD25RoundRect,0.250000X0.450000X-0.262500X0.450000X0.262500X-0.450000X0.262500X-0.450000X-0.262500X0*%
%TD*%
%TA.AperFunction,ComponentPad*%
%ADD26R,1.350000X1.350000*%
%TD*%
%TA.AperFunction,ComponentPad*%
%ADD27C,1.350000*%
%TD*%
%TA.AperFunction,ComponentPad*%
%ADD28C,1.500000*%
%TD*%
%TA.AperFunction,ComponentPad*%
%ADD29R,1.700000X1.700000*%
%TD*%
%TA.AperFunction,ComponentPad*%
%ADD30O,1.700000X1.700000*%
%TD*%
%TA.AperFunction,SMDPad,CuDef*%
%ADD31O,0.900000X1.400000*%
%TD*%
%TA.AperFunction,SMDPad,CuDef*%
%ADD32O,1.400000X0.900000*%
%TD*%
%TA.AperFunction,SMDPad,CuDef*%
%ADD33O,1.200000X0.900000*%
%TD*%
%TA.AperFunction,ComponentPad*%
%ADD34R,1.600000X1.600000*%
%TD*%
%TA.AperFunction,ComponentPad*%
%ADD35C,1.600000*%
%TD*%
%TA.AperFunction,ComponentPad*%
%ADD36O,4.500000X1.800000*%
%TD*%
%TA.AperFunction,ViaPad*%
%ADD37C,0.600000*%
%TD*%
%TA.AperFunction,Conductor*%
%ADD38C,1.500000*%
%TD*%
%TA.AperFunction,Conductor*%
%ADD39C,0.750000*%
%TD*%
%TA.AperFunction,Conductor*%
%ADD40C,0.500000*%
%TD*%
G04 APERTURE END LIST*
D10*
%TO.P,SW2,1,1*%
%TO.N,25*%
X14762500Y-4037500D03*
%TO.P,SW2,2,2*%
%TO.N,Net-(C5-Pad1)*%
X8262500Y-4037500D03*
%TD*%
D11*
%TO.P,PRG,1,1*%
%TO.N,2*%
X-2187500Y-4037500D03*
%TO.P,PRG,2,2*%
%TO.N,GND*%
X4212500Y-4037500D03*
%TD*%
%TO.P,RST,1,1*%
%TO.N,21*%
X-2187500Y462500D03*
%TO.P,RST,2,2*%
%TO.N,GND*%
X4212500Y462500D03*
%TD*%
D12*
%TO.P,U2,1,GND*%
%TO.N,GND*%
X-9187500Y16112500D03*
%TO.P,U2,2,VO*%
%TO.N,+3.3V*%
X-11487500Y16112500D03*
D13*
X-11487500Y9812500D03*
D12*
%TO.P,U2,3,VI*%
%TO.N,VCC*%
X-13787500Y16112500D03*
%TD*%
D14*
%TO.P,C7,1*%
%TO.N,Net-(C5-Pad1)*%
X512500Y-13987500D03*
%TO.P,C7,2*%
%TO.N,16*%
X512500Y-12087500D03*
%TD*%
D15*
%TO.P,J2,1,Pin_1*%
%TO.N,1*%
X15957499Y20025927D03*
D16*
%TO.P,J2,2,Pin_2*%
%TO.N,2*%
X14687499Y20025927D03*
%TO.P,J2,3,Pin_3*%
%TO.N,3*%
X13417499Y20025927D03*
%TO.P,J2,4,Pin_4*%
%TO.N,4*%
X12147499Y20025927D03*
%TO.P,J2,5,Pin_5*%
%TO.N,+3.3V*%
X10877499Y20025927D03*
%TO.P,J2,6,Pin_6*%
%TO.N,6*%
X9607499Y20025927D03*
%TO.P,J2,7,Pin_7*%
%TO.N,7*%
X8337499Y20025927D03*
%TO.P,J2,8,Pin_8*%
%TO.N,8*%
X7067499Y20025927D03*
%TD*%
D17*
%TO.P,C10,2*%
%TO.N,GND*%
X5012498Y20850000D03*
%TO.P,C10,1*%
%TO.N,+3.3V*%
X5012498Y22750000D03*
%TD*%
D18*
%TO.P,R13,1*%
%TO.N,GND*%
X22512500Y-8125000D03*
%TO.P,R13,2*%
%TO.N,24*%
X22512500Y-9950000D03*
%TD*%
D19*
%TO.P,R9,1*%
%TO.N,GND*%
X14425000Y-8037500D03*
%TO.P,R9,2*%
%TO.N,18*%
X12600000Y-8037500D03*
%TD*%
D10*
%TO.P,SW1,1,1*%
%TO.N,18*%
X14762500Y-11037500D03*
%TO.P,SW1,2,2*%
%TO.N,Net-(C5-Pad1)*%
X8262500Y-11037500D03*
%TD*%
D20*
%TO.P,R16,1*%
%TO.N,15*%
X-400000Y-17037500D03*
%TO.P,R16,2*%
%TO.N,Net-(D2-A)*%
X1425000Y-17037500D03*
%TD*%
D21*
%TO.P,PWR,1,K*%
%TO.N,GND*%
X-23587500Y3587500D03*
%TO.P,PWR,2,A*%
%TO.N,Net-(D1-A)*%
X-23587500Y5462500D03*
%TD*%
D22*
%TO.P,C8,1*%
%TO.N,Net-(C5-Pad1)*%
X8562500Y-15037500D03*
%TO.P,C8,2*%
%TO.N,19*%
X10462500Y-15037500D03*
%TD*%
D15*
%TO.P,J3,1,Pin_1*%
%TO.N,9*%
X1949072Y14907500D03*
D16*
%TO.P,J3,2,Pin_2*%
%TO.N,10*%
X1949072Y13637500D03*
%TO.P,J3,3,Pin_3*%
%TO.N,11*%
X1949072Y12367500D03*
%TO.P,J3,4,Pin_4*%
%TO.N,12*%
X1949072Y11097500D03*
%TO.P,J3,5,Pin_5*%
%TO.N,13*%
X1949072Y9827500D03*
%TO.P,J3,6,Pin_6*%
%TO.N,14*%
X1949072Y8557500D03*
%TO.P,J3,7,Pin_7*%
%TO.N,15*%
X1949072Y7287500D03*
%TO.P,J3,8,Pin_8*%
%TO.N,16*%
X1949072Y6017500D03*
%TD*%
D20*
%TO.P,R14,1*%
%TO.N,+3.3V*%
X-3900000Y3712500D03*
%TO.P,R14,2*%
%TO.N,Net-(C5-Pad1)*%
X-2075000Y3712500D03*
%TD*%
D15*
%TO.P,J4,1,Pin_1*%
%TO.N,17*%
X7067500Y899072D03*
D16*
%TO.P,J4,2,Pin_2*%
%TO.N,18*%
X8337500Y899072D03*
%TO.P,J4,3,Pin_3*%
%TO.N,19*%
X9607500Y899072D03*
%TO.P,J4,4,Pin_4*%
%TO.N,GND*%
X10877500Y899072D03*
%TO.P,J4,5,Pin_5*%
%TO.N,21*%
X12147500Y899072D03*
%TO.P,J4,6,Pin_6*%
%TO.N,22*%
X13417500Y899072D03*
%TO.P,J4,7,Pin_7*%
%TO.N,23*%
X14687500Y899072D03*
%TO.P,J4,8,Pin_8*%
%TO.N,24*%
X15957500Y899072D03*
%TD*%
D19*
%TO.P,R5,1*%
%TO.N,27*%
X-2075000Y7962500D03*
%TO.P,R5,2*%
%TO.N,Net-(JP4-A)*%
X-3900000Y7962500D03*
%TD*%
D23*
%TO.P,SW3,1,1*%
%TO.N,16*%
X3512500Y-7787500D03*
%TO.P,SW3,2,2*%
%TO.N,Net-(C5-Pad1)*%
X3512500Y-14287500D03*
%TD*%
D24*
%TO.P,DIO13,1,K*%
%TO.N,GND*%
X-425000Y-19037500D03*
%TO.P,DIO13,2,A*%
%TO.N,Net-(D2-A)*%
X1450000Y-19037500D03*
%TD*%
D15*
%TO.P,J5,1,Pin_1*%
%TO.N,25*%
X21075927Y6017500D03*
D16*
%TO.P,J5,2,Pin_2*%
%TO.N,26*%
X21075927Y7287500D03*
%TO.P,J5,3,Pin_3*%
%TO.N,27*%
X21075927Y8557500D03*
%TO.P,J5,4,Pin_4*%
%TO.N,GND*%
X21075927Y9827500D03*
%TO.P,J5,5,Pin_5*%
%TO.N,unconnected-(J5-Pin_5-Pad5)*%
X21075927Y11097500D03*
%TO.P,J5,6,Pin_6*%
%TO.N,GND*%
X21075927Y12367500D03*
%TO.P,J5,7,Pin_7*%
X21075927Y13637500D03*
%TO.P,J5,8,Pin_8*%
X21075927Y14907500D03*
%TD*%
D20*
%TO.P,R2,1*%
%TO.N,GND*%
X-3900000Y14962500D03*
%TO.P,R2,2*%
%TO.N,Net-(JP2-A)*%
X-2075000Y14962500D03*
%TD*%
D18*
%TO.P,R11,1*%
%TO.N,GND*%
X512500Y-8125000D03*
%TO.P,R11,2*%
%TO.N,16*%
X512500Y-9950000D03*
%TD*%
D22*
%TO.P,C6,1*%
%TO.N,Net-(C5-Pad1)*%
X8562500Y-1037500D03*
%TO.P,C6,2*%
%TO.N,25*%
X10462500Y-1037500D03*
%TD*%
D25*
%TO.P,R7,1*%
%TO.N,+3.3V*%
X-7487500Y24550000D03*
%TO.P,R7,2*%
%TO.N,14*%
X-7487500Y26375000D03*
%TD*%
D20*
%TO.P,R4,1*%
%TO.N,GND*%
X-3900000Y10462500D03*
%TO.P,R4,2*%
%TO.N,Net-(JP3-A)*%
X-2075000Y10462500D03*
%TD*%
%TO.P,R6,1*%
%TO.N,GND*%
X-3900000Y5962500D03*
%TO.P,R6,2*%
%TO.N,Net-(JP4-A)*%
X-2075000Y5962500D03*
%TD*%
D14*
%TO.P,C1,1*%
%TO.N,VCC*%
X-16487500Y15512500D03*
%TO.P,C1,2*%
%TO.N,GND*%
X-16487500Y17412500D03*
%TD*%
D19*
%TO.P,R1,1*%
%TO.N,12*%
X-2075000Y16962500D03*
%TO.P,R1,2*%
%TO.N,Net-(JP2-A)*%
X-3900000Y16962500D03*
%TD*%
D17*
%TO.P,C3,1*%
%TO.N,+3.3V*%
X-11487500Y6912500D03*
%TO.P,C3,2*%
%TO.N,GND*%
X-11487500Y5012500D03*
%TD*%
D26*
%TO.P,U4,1,RX*%
%TO.N,8*%
X-20987500Y-537500D03*
D27*
%TO.P,U4,2,GND*%
%TO.N,GND*%
X-18987500Y-537500D03*
%TO.P,U4,3,TX*%
%TO.N,9*%
X-20987500Y-2537500D03*
%TO.P,U4,4,BATT*%
%TO.N,Net-(U4-BATT)*%
X-18987500Y-2537500D03*
%TO.P,U4,5,VCC*%
X-20987500Y-4537500D03*
%TO.P,U4,6,NC*%
%TO.N,unconnected-(U4-NC-Pad6)*%
X-18987500Y-4537500D03*
%TO.P,U4,7,NC*%
%TO.N,unconnected-(U4-NC-Pad7)*%
X-20987500Y-6537500D03*
%TO.P,U4,8,NC*%
%TO.N,unconnected-(U4-NC-Pad8)*%
X-18987500Y-6537500D03*
%TD*%
D25*
%TO.P,R8,1*%
%TO.N,+3.3V*%
X6512500Y24550000D03*
%TO.P,R8,2*%
%TO.N,17*%
X6512500Y26375000D03*
%TD*%
D19*
%TO.P,R12,1*%
%TO.N,GND*%
X14425000Y-15037500D03*
%TO.P,R12,2*%
%TO.N,19*%
X12600000Y-15037500D03*
%TD*%
%TO.P,R3,1*%
%TO.N,26*%
X-2075000Y12462500D03*
%TO.P,R3,2*%
%TO.N,Net-(JP3-A)*%
X-3900000Y12462500D03*
%TD*%
D28*
%TO.P,SW8,1,A*%
%TO.N,GPS_PWR*%
X-27187500Y-2537500D03*
%TO.P,SW8,2,B*%
%TO.N,+3.3V*%
X-27187500Y-37500D03*
%TO.P,SW8,3,C*%
X-27187500Y2462500D03*
%TD*%
D10*
%TO.P,SW4,1,1*%
%TO.N,19*%
X14762500Y-18037500D03*
%TO.P,SW4,2,2*%
%TO.N,Net-(C5-Pad1)*%
X8262500Y-18037500D03*
%TD*%
D29*
%TO.P,U3,1,GND*%
%TO.N,GND*%
X-4297500Y27462500D03*
D30*
%TO.P,U3,2,VCC*%
%TO.N,+3.3V*%
X-1757500Y27462500D03*
%TO.P,U3,3,SCL*%
%TO.N,14*%
X782500Y27462500D03*
%TO.P,U3,4,SDA*%
%TO.N,17*%
X3322500Y27462500D03*
%TD*%
D19*
%TO.P,R15,1*%
%TO.N,+3.3V*%
X-19075000Y5462500D03*
%TO.P,R15,2*%
%TO.N,Net-(D1-A)*%
X-20900000Y5462500D03*
%TD*%
D23*
%TO.P,SW5,1,1*%
%TO.N,24*%
X19512500Y-7787500D03*
%TO.P,SW5,2,2*%
%TO.N,Net-(C5-Pad1)*%
X19512500Y-14287500D03*
%TD*%
D31*
%TO.P,U1,1,DO0/PWM2*%
%TO.N,1*%
X15957500Y17197500D03*
%TO.P,U1,2,DO1/PWM3*%
%TO.N,2*%
X14687500Y17197500D03*
%TO.P,U1,3,DIO18/DO1*%
%TO.N,3*%
X13417500Y17197500D03*
%TO.P,U1,4,DIO19/DO2*%
%TO.N,4*%
X12147500Y17197500D03*
%TO.P,U1,5,VCC*%
%TO.N,+3.3V*%
X10877500Y17197500D03*
%TO.P,U1,6,DIO4/DO3*%
%TO.N,6*%
X9607500Y17197500D03*
%TO.P,U1,7,DIO5/PWM1*%
%TO.N,7*%
X8337500Y17197500D03*
%TO.P,U1,8,DIO6/TX*%
%TO.N,8*%
X7067500Y17197500D03*
D32*
%TO.P,U1,9,DIO7/RX*%
%TO.N,9*%
X4777500Y14907500D03*
%TO.P,U1,10,DIO8/PWM4*%
%TO.N,10*%
X4777500Y13637500D03*
%TO.P,U1,11,DIO9/DO4*%
%TO.N,11*%
X4777500Y12367500D03*
%TO.P,U1,12,DIO10/M1*%
%TO.N,12*%
X4777500Y11097500D03*
%TO.P,U1,13,DIO12/DI1*%
%TO.N,13*%
X4777500Y9827500D03*
%TO.P,U1,14,DIO14/SCL*%
%TO.N,14*%
X4777500Y8557500D03*
%TO.P,U1,15,DIO13/DI2*%
%TO.N,15*%
X4777500Y7287500D03*
%TO.P,U1,16,DIO11/DI3*%
%TO.N,16*%
X4777500Y6017500D03*
D31*
%TO.P,U1,17,DIO15/SDA*%
%TO.N,17*%
X7067500Y3727500D03*
%TO.P,U1,18,DIO16/DI4*%
%TO.N,18*%
X8337500Y3727500D03*
%TO.P,U1,19,DIO17/BPS*%
%TO.N,19*%
X9607500Y3727500D03*
%TO.P,U1,20,GND*%
%TO.N,GND*%
X10877500Y3727500D03*
%TO.P,U1,21,~{RESET}*%
%TO.N,21*%
X12147500Y3727500D03*
%TO.P,U1,22,ADC2/AI3*%
%TO.N,22*%
X13417500Y3727500D03*
%TO.P,U1,23,ADC1/AI1*%
%TO.N,23*%
X14687500Y3727500D03*
%TO.P,U1,24,DIO0/AI2*%
%TO.N,24*%
X15957500Y3727500D03*
D32*
%TO.P,U1,25,DIO1/AI4*%
%TO.N,25*%
X18247500Y6017500D03*
%TO.P,U1,26,DIO2/M2*%
%TO.N,26*%
X18247500Y7287500D03*
%TO.P,U1,27,DIO3/M3*%
%TO.N,27*%
X18247500Y8557500D03*
%TO.P,U1,28,GND*%
%TO.N,GND*%
X18247500Y9827500D03*
%TO.P,U1,29,NC*%
%TO.N,unconnected-(U1-NC-Pad29)*%
X18247500Y11097500D03*
%TO.P,U1,30,GND*%
%TO.N,GND*%
X18247500Y12367500D03*
D33*
%TO.P,U1,31,GND*%
X18347500Y13637500D03*
%TO.P,U1,32,GND*%
X18347500Y14907500D03*
%TD*%
D29*
%TO.P,J1,1,Pin_1*%
%TO.N,GND*%
X25512500Y7582500D03*
D30*
%TO.P,J1,2,Pin_2*%
%TO.N,8*%
X25512500Y5042500D03*
%TO.P,J1,3,Pin_3*%
%TO.N,2*%
X25512500Y2502500D03*
%TO.P,J1,4,Pin_4*%
%TO.N,9*%
X25512500Y-37500D03*
%TO.P,J1,5,Pin_5*%
%TO.N,21*%
X25512500Y-2577500D03*
%TO.P,J1,6,Pin_6*%
%TO.N,VBUS*%
X25512500Y-5117500D03*
%TO.P,J1,7,Pin_7*%
%TO.N,unconnected-(J1-Pin_7-Pad7)*%
X25512500Y-7657500D03*
%TD*%
D19*
%TO.P,R10,1*%
%TO.N,GND*%
X14425000Y-1037500D03*
%TO.P,R10,2*%
%TO.N,25*%
X12600000Y-1037500D03*
%TD*%
D22*
%TO.P,C5,1*%
%TO.N,Net-(C5-Pad1)*%
X8562500Y-8037500D03*
%TO.P,C5,2*%
%TO.N,18*%
X10462500Y-8037500D03*
%TD*%
D17*
%TO.P,C2,1*%
%TO.N,VCC*%
X-16487500Y13912500D03*
%TO.P,C2,2*%
%TO.N,GND*%
X-16487500Y12012500D03*
%TD*%
D14*
%TO.P,C9,1*%
%TO.N,Net-(C5-Pad1)*%
X22512500Y-13987500D03*
%TO.P,C9,2*%
%TO.N,24*%
X22512500Y-12087500D03*
%TD*%
D34*
%TO.P,C4,1*%
%TO.N,+3.3V*%
X-20987500Y9812500D03*
D35*
%TO.P,C4,2*%
%TO.N,GND*%
X-23487500Y9812500D03*
%TD*%
D36*
%TO.P,BT2,1,+*%
%TO.N,Net-(BT2-+)*%
X-487500Y-24287500D03*
%TO.P,BT2,2,-*%
%TO.N,Net-(BT1-+)*%
X-487500Y24212500D03*
%TD*%
%TO.P,BT1,1,+*%
%TO.N,Net-(BT1-+)*%
X11512500Y24212500D03*
%TO.P,BT1,2,-*%
%TO.N,GND*%
X11512500Y-24287500D03*
%TD*%
%TO.P,BT3,1,+*%
%TO.N,VCC*%
X-12487500Y24212500D03*
%TO.P,BT3,2,-*%
%TO.N,Net-(BT2-+)*%
X-12487500Y-24287500D03*
%TD*%
D37*
%TO.N,+3.3V*%
X6512500Y22762500D03*
%TO.N,2*%
X16512498Y-4287498D03*
X13762498Y-5287498D03*
%TO.N,GND*%
X19512500Y-11037500D03*
X-4987500Y5962500D03*
X11512500Y9462500D03*
X12512500Y9462500D03*
X11512500Y-11037500D03*
X10512500Y9462500D03*
X11512500Y11462500D03*
X10512500Y11462500D03*
X11512500Y10462500D03*
X12512500Y11462500D03*
X1012500Y-1787500D03*
X12512500Y10462500D03*
X10512500Y10462500D03*
X512500Y-6787500D03*
%TO.N,+3.3V*%
X-5487500Y3712500D03*
%TO.N,2*%
X4262498Y-2687500D03*
X9362500Y-2537500D03*
%TO.N,8*%
X-6772169Y-992169D03*
X512500Y-3537500D03*
X24662500Y1212500D03*
%TO.N,9*%
X-8747500Y-37500D03*
X-517831Y-3567831D03*
%TO.N,21*%
X20512498Y-4037500D03*
X17038498Y2248502D03*
X2402500Y462500D03*
%TO.N,Net-(JP2-A)*%
X-4987500Y15962500D03*
%TO.N,Net-(JP3-A)*%
X-4987500Y11462500D03*
%TO.N,Net-(JP4-A)*%
X-4987500Y6962500D03*
%TO.N,26*%
X-237500Y9712500D03*
X-237500Y4962500D03*
X4262500Y3712500D03*
%TO.N,27*%
X4262500Y4962500D03*
%TO.N,16*%
X7672500Y5992500D03*
%TO.N,12*%
X249072Y13139458D03*
%TD*%
D38*
%TO.N,VCC*%
X-15987500Y13912500D02*
X-16487500Y13912500D01*
X-13787500Y16112500D02*
X-15987500Y13912500D01*
D39*
%TO.N,+3.3V*%
X5024998Y22762500D02*
X5012498Y22750000D01*
X6512500Y22762500D02*
X5024998Y22762500D01*
D40*
%TO.N,17*%
X8422500Y6303161D02*
X5927500Y8798161D01*
X8422500Y5681839D02*
X8422500Y6303161D01*
X7067500Y3727500D02*
X7067500Y4326839D01*
X7067500Y4326839D02*
X8422500Y5681839D01*
X5927500Y15280292D02*
X3322500Y17885292D01*
X5927500Y8798161D02*
X5927500Y15280292D01*
X3322500Y17885292D02*
X3322500Y27462500D01*
%TO.N,21*%
X12147500Y3980292D02*
X12147500Y3727500D01*
X16330292Y4877500D02*
X13044708Y4877500D01*
X17038498Y4169294D02*
X16330292Y4877500D01*
X17038498Y2248502D02*
X17038498Y4169294D01*
X13044708Y4877500D02*
X12147500Y3980292D01*
%TO.N,2*%
X-837500Y-2687500D02*
X-2187500Y-4037500D01*
X4262498Y-2687500D02*
X-837500Y-2687500D01*
X11012500Y-2537500D02*
X9362500Y-2537500D01*
X13762498Y-5287498D02*
X11012500Y-2537500D01*
X23302496Y2502500D02*
X25512500Y2502500D01*
X16512498Y-4287498D02*
X23302496Y2502500D01*
%TO.N,9*%
X-517831Y-3567831D02*
X2551838Y-6637500D01*
X16407167Y-6862500D02*
X23232167Y-37500D01*
X4338846Y-6637500D02*
X4563846Y-6862500D01*
X2551838Y-6637500D02*
X4338846Y-6637500D01*
X4563846Y-6862500D02*
X16407167Y-6862500D01*
X23232167Y-37500D02*
X25512500Y-37500D01*
%TO.N,8*%
X24662500Y950978D02*
X24662500Y1212500D01*
X512500Y-3537500D02*
X2912500Y-5937500D01*
X24374022Y662500D02*
X24662500Y950978D01*
X4628796Y-5937500D02*
X4853796Y-6162500D01*
X2912500Y-5937500D02*
X4628796Y-5937500D01*
X4853796Y-6162500D02*
X16117217Y-6162500D01*
X16117217Y-6162500D02*
X22942218Y662500D01*
X22942218Y662500D02*
X24374022Y662500D01*
%TO.N,21*%
X24052500Y-4037500D02*
X25512500Y-2577500D01*
X20512498Y-4037500D02*
X24052500Y-4037500D01*
D38*
%TO.N,VCC*%
X-13787500Y16112500D02*
X-13787500Y22912500D01*
X-16487500Y13912500D02*
X-16487500Y15512500D01*
X-13787500Y22912500D02*
X-12487500Y24212500D01*
D40*
%TO.N,GND*%
X-3900000Y5962500D02*
X-4987500Y5962500D01*
X-400000Y-19012500D02*
X-425000Y-19037500D01*
D39*
%TO.N,+3.3V*%
X10877500Y17197500D02*
X10877500Y16767931D01*
D38*
X-20987500Y9812500D02*
X-11487500Y9812500D01*
X-11487500Y20550000D02*
X-7487500Y24550000D01*
D39*
X-11487500Y9812500D02*
X-11487500Y6912500D01*
D38*
X-7487500Y24550000D02*
X-4116295Y24550000D01*
D39*
X-21504226Y2112500D02*
X-23654226Y-37500D01*
D38*
X-11487500Y16112500D02*
X-11487500Y9812500D01*
X-4116295Y24550000D02*
X-1757500Y26908795D01*
D39*
X-15837500Y5462500D02*
X-11487500Y9812500D01*
X-20337500Y2112500D02*
X-21504226Y2112500D01*
X-3900000Y3712500D02*
X-5487500Y3712500D01*
X6512500Y22762500D02*
X6512500Y24550000D01*
X-19075000Y5462500D02*
X-15837500Y5462500D01*
X-19075000Y5462500D02*
X-19075000Y3375000D01*
X-23654226Y-37500D02*
X-27187500Y-37500D01*
D40*
X10877500Y20025927D02*
X10877499Y17197500D01*
D38*
X-1757500Y26908795D02*
X-1757500Y27462500D01*
X-11487500Y16112500D02*
X-11487500Y20550000D01*
D39*
X-19075000Y3375000D02*
X-20337500Y2112500D01*
X-27187500Y-37500D02*
X-27187500Y2462500D01*
%TO.N,Net-(U4-BATT)*%
X-20987500Y-4537500D02*
X-18987500Y-2537500D01*
D40*
%TO.N,2*%
X14687499Y20655927D02*
X15007499Y20975927D01*
X24212500Y3802500D02*
X25512500Y2502500D01*
X14687499Y20025927D02*
X14687499Y17197500D01*
X24212500Y13670926D02*
X24212500Y3802500D01*
X14687499Y20025927D02*
X14687499Y20655927D01*
X16907499Y20975927D02*
X24212500Y13670926D01*
X15007499Y20975927D02*
X16907499Y20975927D01*
%TO.N,8*%
X-6817500Y-1037500D02*
X-16896509Y-1037500D01*
X7067500Y17197500D02*
X7067500Y20025927D01*
X-6772169Y-992169D02*
X-6817500Y-1037500D01*
X-16896509Y-1037500D02*
X-18521509Y587500D01*
X-19862500Y587500D02*
X-20987500Y-537500D01*
X-18521509Y587500D02*
X-19862500Y587500D01*
%TO.N,9*%
X-21162500Y1287500D02*
X-22487500Y-37500D01*
X-16906560Y-37500D02*
X-18231560Y1287500D01*
X-22487500Y-37500D02*
X-22487500Y-1037500D01*
X1949072Y14907500D02*
X4777499Y14907500D01*
X-22487500Y-1037500D02*
X-20987500Y-2537500D01*
X-18231560Y1287500D02*
X-21162500Y1287500D01*
X-8747500Y-37500D02*
X-16906560Y-37500D01*
%TO.N,21*%
X2402500Y462500D02*
X-2187500Y462500D01*
X12147500Y3727500D02*
X12147499Y899072D01*
%TO.N,13*%
X1949072Y9827500D02*
X4777500Y9827500D01*
%TO.N,Net-(JP2-A)*%
X-2075000Y15050000D02*
X-2075000Y14962500D01*
X-4987500Y15962500D02*
X-3987500Y16962500D01*
X-3987500Y16962500D02*
X-3900000Y16962500D01*
X-3900000Y16875000D02*
X-2075000Y15050000D01*
X-3900000Y16962500D02*
X-3900000Y16875000D01*
%TO.N,Net-(JP3-A)*%
X-4987500Y11462500D02*
X-3987500Y12462500D01*
X-3987500Y12462500D02*
X-3900000Y12462500D01*
X-2075000Y10637500D02*
X-2075000Y10462500D01*
X-3900000Y12462500D02*
X-2075000Y10637500D01*
%TO.N,Net-(JP4-A)*%
X-3900000Y7962500D02*
X-3900000Y7875000D01*
X-4987500Y6962500D02*
X-3987500Y7962500D01*
X-2075000Y6050000D02*
X-2075000Y5962500D01*
X-3900000Y7875000D02*
X-2075000Y6050000D01*
X-3987500Y7962500D02*
X-3900000Y7962500D01*
%TO.N,14*%
X782500Y27462500D02*
X-517500Y28762500D01*
X999072Y15949072D02*
X2212500Y17162500D01*
X-5597500Y28762500D02*
X-7487500Y26872500D01*
X1949072Y8557500D02*
X1875569Y8557500D01*
X-517500Y28762500D02*
X-5597500Y28762500D01*
X2212500Y17162500D02*
X2212500Y26032500D01*
X2212500Y26032500D02*
X782500Y27462500D01*
X-7487500Y26872500D02*
X-7487500Y26375000D01*
X1875569Y8557500D02*
X999072Y9433997D01*
X999072Y9433997D02*
X999072Y15949072D01*
X4777499Y8557500D02*
X1949072Y8557500D01*
%TO.N,17*%
X3322500Y27462500D02*
X5425000Y27462500D01*
X7067500Y899072D02*
X7067500Y3727499D01*
X5425000Y27462500D02*
X6512500Y26375000D01*
%TO.N,1*%
X15957499Y17197500D02*
X15957499Y20025927D01*
%TO.N,11*%
X1949072Y12367500D02*
X4777499Y12367500D01*
%TO.N,3*%
X13417500Y17197500D02*
X13417500Y20025927D01*
%TO.N,15*%
X-4537500Y9162500D02*
X-6347500Y7352500D01*
X1949072Y7287499D02*
X4777500Y7287500D01*
X-1565622Y9162500D02*
X-4537500Y9162500D01*
X309378Y7287500D02*
X-1565622Y9162500D01*
X-662500Y-7393872D02*
X-662500Y-16775000D01*
X-6347500Y7352500D02*
X-6347500Y3322500D01*
X-3337500Y-4718872D02*
X-662500Y-7393872D01*
X1949072Y7287500D02*
X309378Y7287500D01*
X-6347500Y3322500D02*
X-3337500Y312500D01*
X-3337500Y312500D02*
X-3337500Y-4718872D01*
X-662500Y-16775000D02*
X-400000Y-17037500D01*
%TO.N,24*%
X22512500Y-9950000D02*
X21675000Y-9950000D01*
X21675000Y-9950000D02*
X19512500Y-7787500D01*
X22512500Y-12087500D02*
X22512500Y-9950000D01*
X15957499Y3727499D02*
X15957499Y899072D01*
%TO.N,22*%
X13417500Y3727499D02*
X13417500Y899072D01*
%TO.N,26*%
X-237500Y9712500D02*
X-237500Y10625000D01*
X-237500Y10625000D02*
X-2075000Y12462500D01*
X18247499Y7287500D02*
X21075927Y7287501D01*
X1012500Y3712500D02*
X4262500Y3712500D01*
X-237500Y4962500D02*
X1012500Y3712500D01*
%TO.N,4*%
X12147499Y20025927D02*
X12147500Y17197500D01*
%TO.N,7*%
X8337499Y20025927D02*
X8337500Y17197500D01*
%TO.N,27*%
X4262500Y4962500D02*
X925000Y4962500D01*
X925000Y4962500D02*
X-2075000Y7962500D01*
X18247500Y8557500D02*
X21075927Y8557500D01*
%TO.N,19*%
X15412500Y-14315622D02*
X15412500Y-17387500D01*
X9607499Y3727499D02*
X9607499Y899072D01*
X13750000Y-13887500D02*
X14984378Y-13887500D01*
X12600000Y-15037500D02*
X13750000Y-13887500D01*
X12600000Y-15037500D02*
X10462500Y-15037500D01*
X15412500Y-17387500D02*
X14762500Y-18037500D01*
X14984378Y-13887500D02*
X15412500Y-14315622D01*
%TO.N,18*%
X8337500Y3727500D02*
X8337500Y899072D01*
X12600000Y-8875000D02*
X14762500Y-11037500D01*
X12600000Y-8037500D02*
X12600000Y-8875000D01*
X12600000Y-8037500D02*
X10462500Y-8037500D01*
%TO.N,6*%
X9607499Y17197500D02*
X9607499Y20025927D01*
%TO.N,23*%
X14687499Y3727500D02*
X14687500Y899072D01*
%TO.N,16*%
X2675000Y-7787500D02*
X3512500Y-7787500D01*
X4802500Y5992500D02*
X4777500Y6017500D01*
X7672500Y5992500D02*
X4802500Y5992500D01*
X512500Y-9950000D02*
X2675000Y-7787500D01*
X4777499Y6017500D02*
X1949072Y6017500D01*
X512500Y-11587500D02*
X512500Y-9950000D01*
%TO.N,12*%
X249072Y14638428D02*
X-2075000Y16962500D01*
X4777500Y11097500D02*
X1949072Y11097499D01*
X249072Y13139458D02*
X249072Y14638428D01*
%TO.N,25*%
X12600000Y-1037500D02*
X10462500Y-1037500D01*
X21075927Y2275927D02*
X14762500Y-4037500D01*
X12600000Y-1037500D02*
X12600000Y-1875000D01*
X12600000Y-1875000D02*
X14762500Y-4037500D01*
X21075927Y6017500D02*
X21075927Y2275927D01*
X18247500Y6017500D02*
X21075927Y6017500D01*
%TO.N,10*%
X4777500Y13637500D02*
X1949072Y13637499D01*
%TO.N,Net-(C5-Pad1)*%
X3512500Y-14287500D02*
X3212500Y-13987500D01*
X19812500Y-13987500D02*
X22512500Y-13987500D01*
X4893872Y1612500D02*
X5362500Y1143872D01*
X19512500Y-14287500D02*
X18412500Y-13187500D01*
X5362500Y1143872D02*
X5362500Y-137500D01*
X8262500Y-18037500D02*
X8562500Y-17737500D01*
X10412500Y-13187500D02*
X8562500Y-15037500D01*
X8562500Y-11337500D02*
X8562500Y-15037500D01*
X8562500Y-17737500D02*
X8562500Y-15037500D01*
X-2075000Y3712500D02*
X25000Y1612500D01*
X3212500Y-13987500D02*
X512500Y-13987500D01*
X18412500Y-13187500D02*
X10412500Y-13187500D01*
X3512500Y-14287500D02*
X7262500Y-18037500D01*
X7262500Y-18037500D02*
X8262500Y-18037500D01*
X8262500Y-11037500D02*
X8562500Y-10737500D01*
X8262500Y-4037500D02*
X8562500Y-3737500D01*
X8262500Y-11037500D02*
X8562500Y-11337500D01*
X8562500Y-10737500D02*
X8562500Y-8037500D01*
X19512500Y-14287500D02*
X19812500Y-13987500D01*
X25000Y1612500D02*
X4893872Y1612500D01*
X6262500Y-1037500D02*
X8562500Y-1037500D01*
X8562500Y-3737500D02*
X8562500Y-1037500D01*
X5362500Y-137500D02*
X6262500Y-1037500D01*
D38*
%TO.N,Net-(BT2-+)*%
X-487500Y-24287500D02*
X-12487500Y-24287500D01*
D39*
%TO.N,Net-(D1-A)*%
X-20900000Y5462500D02*
X-23587500Y5462500D01*
D40*
%TO.N,Net-(D2-A)*%
X1425000Y-17037500D02*
X1425000Y-19012500D01*
X1425000Y-19012500D02*
X1450000Y-19037500D01*
%TD*%
%TA.AperFunction,Conductor*%
%TO.N,GND*%
G36*
X455039Y32404792D02*
G01*
X500794Y32351988D01*
X512000Y32300477D01*
X512000Y30323552D01*
X512063Y30322575D01*
X512072Y30313044D01*
X512072Y30313043D01*
X539977Y30147674D01*
X539980Y30147662D01*
X595028Y29989242D01*
X675687Y29842192D01*
X779695Y29710628D01*
X904157Y29598215D01*
X1045603Y29508087D01*
X1200075Y29442768D01*
X1363274Y29404076D01*
X1372794Y29403442D01*
X1373777Y29403313D01*
X1445802Y29398580D01*
X1448008Y29398415D01*
X2494074Y29310896D01*
X2498478Y29310449D01*
X3539718Y29185772D01*
X3544103Y29185167D01*
X4580193Y29023412D01*
X4584554Y29022651D01*
X5614212Y28824019D01*
X5618543Y28823103D01*
X6640463Y28587844D01*
X6644758Y28586774D01*
X7657610Y28315195D01*
X7661864Y28313973D01*
X8664415Y28006405D01*
X8668624Y28005031D01*
X9659523Y27661887D01*
X9663679Y27660364D01*
X10641713Y27282068D01*
X10645812Y27280398D01*
X11609736Y26867425D01*
X11613773Y26865609D01*
X12562302Y26418516D01*
X12566272Y26416558D01*
X13498283Y25935872D01*
X13502180Y25933773D01*
X14416422Y25420136D01*
X14420242Y25417899D01*
X15315546Y24871973D01*
X15319284Y24869602D01*
X16194588Y24292031D01*
X16198238Y24289527D01*
X17052314Y23681122D01*
X17055873Y23678490D01*
X17887720Y23039966D01*
X17891183Y23037208D01*
X18699691Y22369414D01*
X18703053Y22366535D01*
X19487235Y21670288D01*
X19490492Y21667290D01*
X20249303Y20943518D01*
X20252451Y20940406D01*
X20984946Y20190010D01*
X20987981Y20186788D01*
X21693229Y19410723D01*
X21696147Y19407395D01*
X22373250Y18606648D01*
X22376048Y18603217D01*
X23024140Y17778810D01*
X23026813Y17775282D01*
X23645078Y16928254D01*
X23647623Y16924632D01*
X24235233Y16056120D01*
X24237648Y16052410D01*
X24793894Y15163462D01*
X24796175Y15159669D01*
X25320352Y14251411D01*
X25322496Y14247538D01*
X25813916Y13321155D01*
X25815920Y13317208D01*
X26273957Y12373888D01*
X26275819Y12369872D01*
X26699902Y11410789D01*
X26701619Y11406709D01*
X27091186Y10433136D01*
X27092757Y10428998D01*
X27447330Y9442130D01*
X27448753Y9437938D01*
X27767893Y8438993D01*
X27769164Y8434753D01*
X28052427Y7425119D01*
X28053547Y7420836D01*
X28300601Y6401703D01*
X28301567Y6397384D01*
X28512091Y5370074D01*
X28512902Y5365722D01*
X28686623Y4331561D01*
X28687278Y4327183D01*
X28823973Y3287505D01*
X28824472Y3283107D01*
X28923976Y2239171D01*
X28924317Y2234757D01*
X28986496Y1187950D01*
X28986679Y1183528D01*
X29011454Y135200D01*
X29011480Y130773D01*
X28998822Y-917796D01*
X28998690Y-922220D01*
X28961216Y-1706097D01*
X28948996Y-1961711D01*
X28948615Y-1969673D01*
X28948321Y-1974126D01*
X28859194Y-3035760D01*
X28858737Y-3040233D01*
X28731174Y-4097934D01*
X28730555Y-4102389D01*
X28564717Y-5154799D01*
X28563936Y-5159227D01*
X28360056Y-6204881D01*
X28359116Y-6209279D01*
X28117440Y-7246901D01*
X28116340Y-7251262D01*
X27837208Y-8279404D01*
X27835951Y-8283722D01*
X27519722Y-9301062D01*
X27518310Y-9305331D01*
X27165387Y-10310567D01*
X27163820Y-10314783D01*
X26774693Y-11306525D01*
X26772975Y-11310681D01*
X26348129Y-12287687D01*
X26346261Y-12291778D01*
X25886270Y-13252731D01*
X25884255Y-13256751D01*
X25389732Y-14200369D01*
X25387573Y-14204314D01*
X24859144Y-15129408D01*
X24856843Y-15133272D01*
X24295217Y-16038593D01*
X24292777Y-16042371D01*
X23698702Y-16926718D01*
X23696127Y-16930405D01*
X23070368Y-17792637D01*
X23067661Y-17796228D01*
X22411062Y-18635186D01*
X22408227Y-18638677D01*
X21721611Y-19453305D01*
X21718651Y-19456690D01*
X21002967Y-20245862D01*
X20999886Y-20249138D01*
X20256046Y-21011850D01*
X20252848Y-21015012D01*
X19481853Y-21750237D01*
X19478543Y-21753281D01*
X18681378Y-22460082D01*
X18677959Y-22463004D01*
X17855706Y-23140419D01*
X17852184Y-23143215D01*
X17005910Y-23790366D01*
X17002289Y-23793033D01*
X16133069Y-24409098D01*
X16129353Y-24411631D01*
X15238424Y-24995733D01*
X15234619Y-24998131D01*
X14323027Y-25549583D01*
X14319137Y-25551840D01*
X13388209Y-26069840D01*
X13384241Y-26071955D01*
X12435113Y-26555873D01*
X12431070Y-26557843D01*
X11465019Y-27007026D01*
X11460907Y-27008848D01*
X10479194Y-27422709D01*
X10475019Y-27424380D01*
X9478976Y-27802359D01*
X9474744Y-27803878D01*
X8465629Y-28145498D01*
X8461343Y-28146863D01*
X7440501Y-28451667D01*
X7436170Y-28452875D01*
X6404941Y-28720463D01*
X6400568Y-28721513D01*
X5360361Y-28951520D01*
X5355953Y-28952412D01*
X4308012Y-29144563D01*
X4303575Y-29145293D01*
X3249433Y-29299308D01*
X3244972Y-29299878D01*
X2185880Y-29415572D01*
X2181401Y-29415979D01*
X1118824Y-29493193D01*
X1114333Y-29493437D01*
X49694Y-29532067D01*
X45198Y-29532149D01*
X-1020198Y-29532149D01*
X-1024694Y-29532067D01*
X-2089333Y-29493437D01*
X-2093824Y-29493193D01*
X-3156401Y-29415979D01*
X-3160880Y-29415572D01*
X-4219972Y-29299878D01*
X-4224433Y-29299308D01*
X-5278575Y-29145293D01*
X-5283012Y-29144563D01*
X-6330953Y-28952412D01*
X-6335361Y-28951520D01*
X-7375568Y-28721513D01*
X-7379941Y-28720463D01*
X-8411170Y-28452875D01*
X-8415501Y-28451667D01*
X-9436343Y-28146863D01*
X-9440629Y-28145498D01*
X-10449744Y-27803878D01*
X-10453976Y-27802359D01*
X-11450019Y-27424380D01*
X-11454194Y-27422709D01*
X-12435907Y-27008848D01*
X-12440019Y-27007026D01*
X-13406070Y-26557843D01*
X-13410113Y-26555873D01*
X-14359241Y-26071955D01*
X-14363209Y-26069840D01*
X-15294137Y-25551840D01*
X-15298027Y-25549583D01*
X-16209619Y-24998131D01*
X-16213424Y-24995733D01*
X-17104353Y-24411631D01*
X-17108069Y-24409098D01*
X-17124120Y-24397722D01*
X-15238000Y-24397722D01*
X-15203515Y-24615451D01*
X-15135395Y-24825106D01*
X-15035315Y-25021522D01*
X-14905742Y-25199865D01*
X-14749865Y-25355742D01*
X-14571522Y-25485315D01*
X-14375106Y-25585395D01*
X-14165451Y-25653515D01*
X-13947722Y-25688000D01*
X-13947721Y-25688000D01*
X-11027279Y-25688000D01*
X-11027278Y-25688000D01*
X-10809549Y-25653515D01*
X-10704721Y-25619455D01*
X-10599896Y-25585396D01*
X-10599893Y-25585395D01*
X-10533401Y-25551515D01*
X-10477106Y-25538000D01*
X-2497894Y-25538000D01*
X-2441598Y-25551515D01*
X-2375106Y-25585395D01*
X-2165451Y-25653515D01*
X-1947722Y-25688000D01*
X-1947721Y-25688000D01*
X972721Y-25688000D01*
X972722Y-25688000D01*
X1190451Y-25653515D01*
X1400106Y-25585395D01*
X1596522Y-25485315D01*
X1774865Y-25355742D01*
X1930742Y-25199865D01*
X2060315Y-25021522D01*
X2160395Y-24825106D01*
X2228515Y-24615451D01*
X2263000Y-24397722D01*
X2263000Y-24177278D01*
X2228515Y-23959549D01*
X2194455Y-23854721D01*
X2160396Y-23749896D01*
X2160395Y-23749893D01*
X2125737Y-23681875D01*
X2060315Y-23553478D01*
X1943196Y-23392276D01*
X1930747Y-23375141D01*
X1930743Y-23375136D01*
X1774863Y-23219256D01*
X1774858Y-23219252D01*
X1596525Y-23089687D01*
X1596524Y-23089686D01*
X1596522Y-23089685D01*
X1533596Y-23057622D01*
X1400106Y-22989604D01*
X1400103Y-22989603D01*
X1190452Y-22921485D01*
X1081586Y-22904242D01*
X972722Y-22887000D01*
X-1947722Y-22887000D01*
X-2056586Y-22904242D01*
X-2165452Y-22921485D01*
X-2375103Y-22989603D01*
X-2375106Y-22989604D01*
X-2441599Y-23023485D01*
X-2497894Y-23037000D01*
X-10477106Y-23037000D01*
X-10533401Y-23023485D01*
X-10599893Y-22989604D01*
X-10599896Y-22989603D01*
X-10809547Y-22921485D01*
X-10954701Y-22898495D01*
X-11027278Y-22887000D01*
X-13947722Y-22887000D01*
X-14056586Y-22904242D01*
X-14165452Y-22921485D01*
X-14375103Y-22989603D01*
X-14375106Y-22989604D01*
X-14508596Y-23057622D01*
X-14571522Y-23089685D01*
X-14571524Y-23089686D01*
X-14571525Y-23089687D01*
X-14749858Y-23219252D01*
X-14749863Y-23219256D01*
X-14905743Y-23375136D01*
X-14905747Y-23375141D01*
X-14918196Y-23392276D01*
X-15035315Y-23553478D01*
X-15100737Y-23681875D01*
X-15135395Y-23749893D01*
X-15135396Y-23749896D01*
X-15169455Y-23854721D01*
X-15203515Y-23959549D01*
X-15238000Y-24177278D01*
X-15238000Y-24397722D01*
X-17124120Y-24397722D01*
X-17977289Y-23793033D01*
X-17980910Y-23790366D01*
X-18827184Y-23143215D01*
X-18830706Y-23140419D01*
X-19652959Y-22463004D01*
X-19656378Y-22460082D01*
X-20453543Y-21753281D01*
X-20456853Y-21750237D01*
X-21227848Y-21015012D01*
X-21231046Y-21011850D01*
X-21974886Y-20249138D01*
X-21977967Y-20245862D01*
X-22693651Y-19456690D01*
X-22696611Y-19453305D01*
X-23383227Y-18638677D01*
X-23386062Y-18635186D01*
X-24042661Y-17796228D01*
X-24045368Y-17792637D01*
X-24671127Y-16930405D01*
X-24673702Y-16926718D01*
X-25267777Y-16042371D01*
X-25270217Y-16038593D01*
X-25831843Y-15133272D01*
X-25834144Y-15129408D01*
X-26362573Y-14204314D01*
X-26364732Y-14200369D01*
X-26859255Y-13256751D01*
X-26861270Y-13252731D01*
X-27321261Y-12291778D01*
X-27323129Y-12287687D01*
X-27747975Y-11310681D01*
X-27749693Y-11306525D01*
X-28138820Y-10314783D01*
X-28140387Y-10310567D01*
X-28493310Y-9305331D01*
X-28494722Y-9301062D01*
X-28810951Y-8283722D01*
X-28812208Y-8279404D01*
X-29091340Y-7251262D01*
X-29092440Y-7246901D01*
X-29334116Y-6209279D01*
X-29335056Y-6204881D01*
X-29538936Y-5159227D01*
X-29539717Y-5154799D01*
X-29705555Y-4102389D01*
X-29706174Y-4097934D01*
X-29833737Y-3040233D01*
X-29834194Y-3035760D01*
X-29923413Y-1973026D01*
X-29923581Y-1970785D01*
X-29928315Y-1898760D01*
X-29928458Y-1897670D01*
X-29929088Y-1888219D01*
X-29967795Y-1725029D01*
X-30033126Y-1570566D01*
X-30123256Y-1429137D01*
X-30146454Y-1403455D01*
X-30235675Y-1304682D01*
X-30235676Y-1304680D01*
X-30235680Y-1304677D01*
X-30367238Y-1200680D01*
X-30489011Y-1133891D01*
X-30514288Y-1120027D01*
X-30514289Y-1120026D01*
X-30514296Y-1120023D01*
X-30672699Y-1064982D01*
X-30672715Y-1064978D01*
X-30838081Y-1037073D01*
X-30847585Y-1037064D01*
X-30848573Y-1037000D01*
X-30856008Y-1037000D01*
X-32825477Y-1037000D01*
X-32892516Y-1017315D01*
X-32938271Y-964511D01*
X-32949477Y-913000D01*
X-32949477Y838000D01*
X-32929792Y905039D01*
X-32876988Y950794D01*
X-32825477Y962000D01*
X-30848526Y962000D01*
X-30847509Y962066D01*
X-30838034Y962075D01*
X-30672668Y989982D01*
X-30672659Y989984D01*
X-30514240Y1045035D01*
X-30367193Y1125692D01*
X-30235632Y1229698D01*
X-30123222Y1354157D01*
X-30123216Y1354164D01*
X-30033093Y1495601D01*
X-29967773Y1650071D01*
X-29929080Y1813254D01*
X-29928451Y1822698D01*
X-29928319Y1823699D01*
X-29923583Y1895765D01*
X-29923417Y1897989D01*
X-29835032Y2952565D01*
X-29834579Y2957005D01*
X-29708444Y4006576D01*
X-29707832Y4010996D01*
X-29544011Y5055369D01*
X-29543240Y5059764D01*
X-29341953Y6097535D01*
X-29341025Y6101900D01*
X-29102519Y7131798D01*
X-29101434Y7136126D01*
X-28826033Y8156748D01*
X-28824793Y8161035D01*
X-28512847Y9171087D01*
X-28511454Y9175326D01*
X-28163364Y10173508D01*
X-28161819Y10177695D01*
X-27778033Y11162720D01*
X-27776339Y11166848D01*
X-27765863Y11191116D01*
X-27357356Y12137434D01*
X-27355527Y12141469D01*
X-26901909Y13096316D01*
X-26899922Y13100312D01*
X-26412235Y14038233D01*
X-26410106Y14042154D01*
X-25888992Y14961910D01*
X-25886723Y14965753D01*
X-25332840Y15866186D01*
X-25330434Y15869944D01*
X-24744515Y16749857D01*
X-24741975Y16753526D01*
X-24124783Y17611777D01*
X-24122113Y17615352D01*
X-23474439Y18450840D01*
X-23471642Y18454317D01*
X-22794327Y19265961D01*
X-22791407Y19269335D01*
X-22085319Y20056090D01*
X-22082279Y20059357D01*
X-21348346Y20820190D01*
X-21345190Y20823346D01*
X-20584357Y21557279D01*
X-20581090Y21560319D01*
X-19794335Y22266407D01*
X-19790961Y22269327D01*
X-18979317Y22946642D01*
X-18975840Y22949439D01*
X-18140352Y23597113D01*
X-18136777Y23599783D01*
X-17278526Y24216975D01*
X-17274857Y24219515D01*
X-16394944Y24805434D01*
X-16391186Y24807840D01*
X-15490753Y25361723D01*
X-15486910Y25363992D01*
X-14567154Y25885106D01*
X-14563233Y25887235D01*
X-13625312Y26374922D01*
X-13621316Y26376909D01*
X-12666469Y26830527D01*
X-12662434Y26832356D01*
X-11691835Y27251343D01*
X-11687720Y27253033D01*
X-10702695Y27636819D01*
X-10698508Y27638364D01*
X-9700326Y27986454D01*
X-9696087Y27987847D01*
X-8686035Y28299793D01*
X-8681748Y28301033D01*
X-7661126Y28576434D01*
X-7656798Y28577519D01*
X-7020672Y28724834D01*
X-6950920Y28720782D01*
X-6894431Y28679662D01*
X-6869141Y28614530D01*
X-6883079Y28546065D01*
X-6905011Y28516354D01*
X-8007393Y27413973D01*
X-8068714Y27380490D01*
X-8082472Y27378298D01*
X-8090297Y27377499D01*
X-8256834Y27322314D01*
X-8406156Y27230212D01*
X-8530212Y27106156D01*
X-8622314Y26956834D01*
X-8677499Y26790297D01*
X-8688000Y26687509D01*
X-8687999Y26062492D01*
X-8677499Y25959703D01*
X-8622314Y25793166D01*
X-8530212Y25643844D01*
X-8530210Y25643842D01*
X-8436549Y25550181D01*
X-8403064Y25488858D01*
X-8408048Y25419166D01*
X-8436549Y25374819D01*
X-8530212Y25281156D01*
X-8530467Y25280742D01*
X-8531282Y25279421D01*
X-8549141Y25256831D01*
X-9530223Y24275749D01*
X-9591544Y24242266D01*
X-9661236Y24247250D01*
X-9717169Y24289122D01*
X-9740375Y24344034D01*
X-9771485Y24540452D01*
X-9839603Y24750103D01*
X-9839604Y24750106D01*
X-9939687Y24946525D01*
X-10069252Y25124858D01*
X-10069256Y25124863D01*
X-10225136Y25280743D01*
X-10225141Y25280747D01*
X-10403474Y25410312D01*
X-10403478Y25410315D01*
X-10538000Y25478858D01*
X-10599893Y25510395D01*
X-10599896Y25510396D01*
X-10722345Y25550181D01*
X-10809549Y25578515D01*
X-11027278Y25613000D01*
X-13947722Y25613000D01*
X-14165451Y25578515D01*
X-14375106Y25510395D01*
X-14571522Y25410315D01*
X-14749865Y25280742D01*
X-14905742Y25124865D01*
X-15035315Y24946522D01*
X-15135395Y24750106D01*
X-15203515Y24540451D01*
X-15238000Y24322722D01*
X-15238000Y24102278D01*
X-15203515Y23884549D01*
X-15203514Y23884547D01*
X-15135396Y23674896D01*
X-15135395Y23674893D01*
X-15035312Y23478473D01*
X-14991705Y23418454D01*
X-14968224Y23352648D01*
X-14974090Y23307255D01*
X-15007209Y23205326D01*
X-15007209Y23205324D01*
X-15038000Y23010922D01*
X-15038000Y16681836D01*
X-15057685Y16614797D01*
X-15074319Y16594155D01*
X-15340872Y16327602D01*
X-15402195Y16294117D01*
X-15471887Y16299101D01*
X-15516234Y16327602D01*
X-15543841Y16355209D01*
X-15543844Y16355212D01*
X-15578209Y16376408D01*
X-15600789Y16394263D01*
X-15672851Y16466325D01*
X-15672854Y16466328D01*
X-15832095Y16582024D01*
X-15927184Y16630474D01*
X-16007470Y16671382D01*
X-16007472Y16671382D01*
X-16007475Y16671384D01*
X-16144194Y16715807D01*
X-16194673Y16732209D01*
X-16389078Y16763000D01*
X-16389083Y16763000D01*
X-16585917Y16763000D01*
X-16585922Y16763000D01*
X-16780326Y16732209D01*
X-16967525Y16671384D01*
X-17142905Y16582024D01*
X-17302146Y16466328D01*
X-17374210Y16394263D01*
X-17396796Y16376405D01*
X-17431156Y16355212D01*
X-17555212Y16231156D01*
X-17647314Y16081834D01*
X-17702499Y15915297D01*
X-17713000Y15812509D01*
X-17712999Y15787628D01*
X-17712999Y15778521D01*
X-17714525Y15759125D01*
X-17737674Y15612975D01*
X-17738000Y15610914D01*
X-17738000Y13814077D01*
X-17714526Y13665871D01*
X-17712999Y13646473D01*
X-17712999Y13612498D01*
X-17712998Y13612481D01*
X-17702499Y13509703D01*
X-17647314Y13343166D01*
X-17555212Y13193844D01*
X-17555210Y13193842D01*
X-17431155Y13069787D01*
X-17396791Y13048591D01*
X-17374208Y13030734D01*
X-17302146Y12958672D01*
X-17276713Y12940194D01*
X-17142905Y12842976D01*
X-16967529Y12753617D01*
X-16780326Y12692790D01*
X-16585922Y12662000D01*
X-16585917Y12662000D01*
X-15889078Y12662000D01*
X-15694673Y12692790D01*
X-15507469Y12753617D01*
X-15332094Y12842976D01*
X-15198287Y12940194D01*
X-15172854Y12958672D01*
X-15172852Y12958674D01*
X-15172851Y12958674D01*
X-13555843Y14575681D01*
X-13494520Y14609166D01*
X-13468163Y14612000D01*
X-13336378Y14612000D01*
X-13336374Y14612001D01*
X-13293613Y14614899D01*
X-13293612Y14614899D01*
X-13108803Y14660860D01*
X-12938207Y14745467D01*
X-12932544Y14749088D01*
X-12931604Y14747617D01*
X-12875084Y14770938D01*
X-12806342Y14758437D01*
X-12755271Y14710756D01*
X-12738000Y14647630D01*
X-12738000Y11436999D01*
X-12757685Y11369960D01*
X-12810489Y11324205D01*
X-12862000Y11312999D01*
X-12945536Y11312999D01*
X-13064918Y11302386D01*
X-13260549Y11246409D01*
X-13440907Y11152198D01*
X-13440911Y11152194D01*
X-13440912Y11152194D01*
X-13516087Y11090898D01*
X-13580483Y11063789D01*
X-13594447Y11063000D01*
X-19940771Y11063000D01*
X-19984104Y11070818D01*
X-20080017Y11106591D01*
X-20080016Y11106591D01*
X-20086425Y11107279D01*
X-20139627Y11113000D01*
X-21835372Y11112999D01*
X-21894983Y11106591D01*
X-22029831Y11056296D01*
X-22145046Y10970046D01*
X-22231296Y10854831D01*
X-22281591Y10719983D01*
X-22288000Y10660373D01*
X-22287999Y8964628D01*
X-22282799Y8916257D01*
X-22281591Y8905016D01*
X-22231297Y8770171D01*
X-22231293Y8770164D01*
X-22145047Y8654955D01*
X-22145044Y8654952D01*
X-22029835Y8568706D01*
X-22029828Y8568702D01*
X-21894982Y8518408D01*
X-21894983Y8518408D01*
X-21835383Y8512001D01*
X-21835381Y8512000D01*
X-21835373Y8512000D01*
X-21835364Y8512000D01*
X-20139629Y8512000D01*
X-20139623Y8512001D01*
X-20080016Y8518408D01*
X-19984104Y8554182D01*
X-19940771Y8562000D01*
X-14275506Y8562000D01*
X-14208467Y8542315D01*
X-14162712Y8489511D01*
X-14152768Y8420353D01*
X-14181793Y8356797D01*
X-14187825Y8350319D01*
X-16163825Y6374319D01*
X-16225148Y6340834D01*
X-16251506Y6338000D01*
X-18125632Y6338000D01*
X-18192671Y6357685D01*
X-18213846Y6376883D01*
X-18214681Y6376049D01*
X-18343842Y6505210D01*
X-18343844Y6505212D01*
X-18493166Y6597314D01*
X-18659703Y6652499D01*
X-18762491Y6663000D01*
X-19387508Y6662999D01*
X-19387516Y6662998D01*
X-19387519Y6662998D01*
X-19430092Y6658649D01*
X-19490297Y6652499D01*
X-19656834Y6597314D01*
X-19806156Y6505212D01*
X-19856365Y6455003D01*
X-19899819Y6411549D01*
X-19961142Y6378064D01*
X-20030834Y6383048D01*
X-20075181Y6411549D01*
X-20168842Y6505210D01*
X-20168844Y6505212D01*
X-20318166Y6597314D01*
X-20484703Y6652499D01*
X-20587491Y6663000D01*
X-21212508Y6662999D01*
X-21212516Y6662998D01*
X-21212519Y6662998D01*
X-21255092Y6658649D01*
X-21315297Y6652499D01*
X-21481834Y6597314D01*
X-21631156Y6505212D01*
X-21696086Y6440282D01*
X-21760319Y6376049D01*
X-21762205Y6377935D01*
X-21809125Y6344712D01*
X-21849368Y6338000D01*
X-22702624Y6338000D01*
X-22767720Y6356461D01*
X-22814575Y6385362D01*
X-22979725Y6440087D01*
X-23081652Y6450500D01*
X-24093348Y6450500D01*
X-24195275Y6440087D01*
X-24360425Y6385362D01*
X-24508503Y6294026D01*
X-24631526Y6171003D01*
X-24722862Y6022925D01*
X-24777587Y5857775D01*
X-24788000Y5755848D01*
X-24788000Y5169152D01*
X-24777587Y5067225D01*
X-24722862Y4902075D01*
X-24722858Y4902069D01*
X-24722857Y4902066D01*
X-24631528Y4754000D01*
X-24631525Y4753996D01*
X-24508503Y4630974D01*
X-24508499Y4630971D01*
X-24360433Y4539642D01*
X-24360427Y4539639D01*
X-24360425Y4539638D01*
X-24360422Y4539637D01*
X-24195276Y4484913D01*
X-24093355Y4474500D01*
X-24093348Y4474500D01*
X-23081644Y4474500D01*
X-22979723Y4484913D01*
X-22814577Y4539637D01*
X-22814570Y4539640D01*
X-22781509Y4560033D01*
X-22767720Y4568538D01*
X-22702624Y4587000D01*
X-21849368Y4587000D01*
X-21782329Y4567315D01*
X-21761153Y4548116D01*
X-21760319Y4548951D01*
X-21755212Y4543844D01*
X-21631156Y4419788D01*
X-21579953Y4388206D01*
X-21488117Y4331561D01*
X-21481834Y4327686D01*
X-21315297Y4272501D01*
X-21315295Y4272500D01*
X-21212510Y4262000D01*
X-21212509Y4262000D01*
X-20587498Y4262000D01*
X-20587480Y4262001D01*
X-20484703Y4272500D01*
X-20484700Y4272501D01*
X-20318168Y4327685D01*
X-20318163Y4327687D01*
X-20168842Y4419789D01*
X-20162181Y4426451D01*
X-20100858Y4459936D01*
X-20031166Y4454952D01*
X-19975233Y4413080D01*
X-19950816Y4347616D01*
X-19950500Y4338770D01*
X-19950500Y3789006D01*
X-19970185Y3721967D01*
X-19986819Y3701325D01*
X-20663825Y3024319D01*
X-20725148Y2990834D01*
X-20751506Y2988000D01*
X-21590458Y2988000D01*
X-21675412Y2971100D01*
X-21759600Y2954355D01*
X-21839834Y2921121D01*
X-21910546Y2891831D01*
X-21918931Y2888358D01*
X-22062325Y2792545D01*
X-22062328Y2792542D01*
X-23980551Y874319D01*
X-24041874Y840834D01*
X-24068232Y838000D01*
X-26188000Y838000D01*
X-26255039Y857685D01*
X-26300794Y910489D01*
X-26312000Y962000D01*
X-26312000Y1518163D01*
X-26292315Y1585202D01*
X-26275681Y1605844D01*
X-26225906Y1655618D01*
X-26222709Y1660183D01*
X-26183849Y1715681D01*
X-26100397Y1834861D01*
X-26007926Y2033168D01*
X-26007922Y2033177D01*
X-25951293Y2244520D01*
X-25951293Y2244524D01*
X-25932223Y2462497D01*
X-25932223Y2462502D01*
X-25943097Y2586794D01*
X-25951293Y2680477D01*
X-25951293Y2680479D01*
X-26007922Y2891822D01*
X-26007924Y2891826D01*
X-26007925Y2891830D01*
X-26100398Y3090138D01*
X-26100399Y3090140D01*
X-26100400Y3090142D01*
X-26225900Y3269375D01*
X-26280609Y3324084D01*
X-26380623Y3424098D01*
X-26559861Y3549602D01*
X-26758170Y3642075D01*
X-26969523Y3698707D01*
X-27152426Y3714708D01*
X-27187498Y3717777D01*
X-27187502Y3717777D01*
X-27215754Y3715305D01*
X-27405477Y3698707D01*
X-27616830Y3642075D01*
X-27815138Y3549602D01*
X-27994377Y3424098D01*
X-28149098Y3269377D01*
X-28274602Y3090138D01*
X-28367075Y2891830D01*
X-28423707Y2680477D01*
X-28440169Y2492315D01*
X-28442777Y2462502D01*
X-28442777Y2462497D01*
X-28439737Y2427756D01*
X-28423707Y2244523D01*
X-28423706Y2244520D01*
X-28368594Y2038837D01*
X-28367075Y2033170D01*
X-28274602Y1834861D01*
X-28149098Y1655623D01*
X-28149093Y1655618D01*
X-28099319Y1605844D01*
X-28065834Y1544521D01*
X-28063000Y1518163D01*
X-28063000Y906837D01*
X-28082685Y839798D01*
X-28099320Y819155D01*
X-28149098Y769377D01*
X-28274602Y590138D01*
X-28367075Y391830D01*
X-28423707Y180477D01*
X-28442777Y-37500D01*
X-28423707Y-255477D01*
X-28367075Y-466830D01*
X-28274602Y-665139D01*
X-28149098Y-844377D01*
X-27994377Y-999098D01*
X-27815139Y-1124602D01*
X-27714742Y-1171418D01*
X-27706807Y-1175118D01*
X-27654367Y-1221290D01*
X-27635215Y-1288484D01*
X-27655431Y-1355365D01*
X-27706805Y-1399881D01*
X-27769544Y-1429137D01*
X-27815138Y-1450398D01*
X-27815142Y-1450400D01*
X-27994378Y-1575902D01*
X-28149097Y-1730621D01*
X-28274599Y-1909857D01*
X-28274600Y-1909859D01*
X-28274602Y-1909862D01*
X-28367075Y-2108170D01*
X-28367076Y-2108176D01*
X-28367077Y-2108177D01*
X-28368595Y-2113844D01*
X-28423707Y-2319523D01*
X-28429634Y-2387275D01*
X-28442719Y-2536842D01*
X-28442777Y-2537500D01*
X-28423707Y-2755477D01*
X-28367075Y-2966830D01*
X-28274602Y-3165139D01*
X-28149098Y-3344377D01*
X-27994377Y-3499098D01*
X-27815139Y-3624602D01*
X-27616830Y-3717075D01*
X-27405477Y-3773707D01*
X-27219962Y-3789937D01*
X-27187502Y-3792777D01*
X-27187500Y-3792777D01*
X-27187498Y-3792777D01*
X-27157287Y-3790133D01*
X-26969523Y-3773707D01*
X-26758170Y-3717075D01*
X-26559861Y-3624602D01*
X-26380623Y-3499098D01*
X-26225902Y-3344377D01*
X-26100398Y-3165139D01*
X-26100397Y-3165138D01*
X-26042583Y-3041155D01*
X-26007925Y-2966830D01*
X-26007924Y-2966826D01*
X-26007922Y-2966822D01*
X-25951293Y-2755479D01*
X-25951293Y-2755475D01*
X-25951200Y-2754418D01*
X-25936199Y-2582947D01*
X-25932223Y-2537502D01*
X-25932223Y-2537497D01*
X-25949679Y-2337976D01*
X-25951293Y-2319523D01*
X-25951293Y-2319520D01*
X-26007922Y-2108177D01*
X-26007926Y-2108168D01*
X-26100398Y-1909861D01*
X-26100400Y-1909857D01*
X-26225900Y-1730624D01*
X-26380622Y-1575903D01*
X-26388240Y-1570569D01*
X-26433323Y-1539001D01*
X-26559861Y-1450397D01*
X-26668193Y-1399882D01*
X-26720632Y-1353710D01*
X-26739784Y-1286516D01*
X-26719568Y-1219635D01*
X-26668193Y-1175118D01*
X-26559861Y-1124602D01*
X-26541035Y-1111420D01*
X-26380623Y-999098D01*
X-26330844Y-949319D01*
X-26269521Y-915834D01*
X-26243163Y-913000D01*
X-23567995Y-913000D01*
X-23567992Y-912999D01*
X-23547360Y-908895D01*
X-23398852Y-879355D01*
X-23398835Y-879348D01*
X-23398009Y-879098D01*
X-23397535Y-879093D01*
X-23392877Y-878167D01*
X-23392701Y-879050D01*
X-23328142Y-878467D01*
X-23269025Y-915709D01*
X-23239427Y-978999D01*
X-23238000Y-997755D01*
X-23238000Y-1111420D01*
X-23233530Y-1133891D01*
X-23209158Y-1256413D01*
X-23152584Y-1392995D01*
X-23145590Y-1403460D01*
X-23145589Y-1403466D01*
X-23145588Y-1403465D01*
X-23070452Y-1515916D01*
X-22199088Y-2387277D01*
X-22165605Y-2448598D01*
X-22163300Y-2486396D01*
X-22168036Y-2537500D01*
X-22147935Y-2754423D01*
X-22088317Y-2963959D01*
X-21991212Y-3158972D01*
X-21859927Y-3332822D01*
X-21735923Y-3445865D01*
X-21699645Y-3505573D01*
X-21701405Y-3575421D01*
X-21735923Y-3629134D01*
X-21859927Y-3742178D01*
X-21991212Y-3916028D01*
X-22088317Y-4111041D01*
X-22147935Y-4320577D01*
X-22168036Y-4537500D01*
X-22147935Y-4754423D01*
X-22088317Y-4963959D01*
X-21991212Y-5158972D01*
X-21859927Y-5332822D01*
X-21735923Y-5445865D01*
X-21699645Y-5505573D01*
X-21701405Y-5575421D01*
X-21735923Y-5629134D01*
X-21859927Y-5742178D01*
X-21991212Y-5916028D01*
X-22088317Y-6111041D01*
X-22147935Y-6320577D01*
X-22168036Y-6537500D01*
X-22147935Y-6754423D01*
X-22088317Y-6963959D01*
X-21991212Y-7158972D01*
X-21859927Y-7332822D01*
X-21698932Y-7479588D01*
X-21513710Y-7594272D01*
X-21310569Y-7672970D01*
X-21096426Y-7713000D01*
X-21096424Y-7713000D01*
X-20878576Y-7713000D01*
X-20878574Y-7713000D01*
X-20664431Y-7672970D01*
X-20489659Y-7605262D01*
X-20461292Y-7594273D01*
X-20461286Y-7594270D01*
X-20276076Y-7479593D01*
X-20276075Y-7479592D01*
X-20276068Y-7479588D01*
X-20148150Y-7362976D01*
X-20115078Y-7332827D01*
X-20115076Y-7332825D01*
X-20115073Y-7332822D01*
X-20086452Y-7294922D01*
X-20030347Y-7253287D01*
X-19960635Y-7248594D01*
X-19899452Y-7282336D01*
X-19888553Y-7294914D01*
X-19859927Y-7332822D01*
X-19698932Y-7479588D01*
X-19513710Y-7594272D01*
X-19310569Y-7672970D01*
X-19096426Y-7713000D01*
X-19096424Y-7713000D01*
X-18878576Y-7713000D01*
X-18878574Y-7713000D01*
X-18664431Y-7672970D01*
X-18489659Y-7605262D01*
X-18461292Y-7594273D01*
X-18461286Y-7594270D01*
X-18276076Y-7479593D01*
X-18276075Y-7479592D01*
X-18276068Y-7479588D01*
X-18115073Y-7332822D01*
X-17983788Y-7158972D01*
X-17983453Y-7158300D01*
X-17886684Y-6963962D01*
X-17872882Y-6915452D01*
X-17827065Y-6754423D01*
X-17827064Y-6754420D01*
X-17827064Y-6754418D01*
X-17806964Y-6537500D01*
X-17806964Y-6537499D01*
X-17827064Y-6320581D01*
X-17886684Y-6111037D01*
X-17983788Y-5916027D01*
X-18115074Y-5742175D01*
X-18239072Y-5629137D01*
X-18275354Y-5569426D01*
X-18273593Y-5499578D01*
X-18239072Y-5445863D01*
X-18115074Y-5332824D01*
X-17983788Y-5158972D01*
X-17886684Y-4963962D01*
X-17874975Y-4922808D01*
X-17827065Y-4754423D01*
X-17827064Y-4754420D01*
X-17827064Y-4754418D01*
X-17806964Y-4537500D01*
X-17806964Y-4537499D01*
X-17827064Y-4320581D01*
X-17886684Y-4111037D01*
X-17983788Y-3916027D01*
X-18115074Y-3742175D01*
X-18239072Y-3629137D01*
X-18275354Y-3569426D01*
X-18273593Y-3499578D01*
X-18239072Y-3445863D01*
X-18115074Y-3332824D01*
X-17983788Y-3158972D01*
X-17886684Y-2963962D01*
X-17870029Y-2905425D01*
X-17827065Y-2754423D01*
X-17827064Y-2754420D01*
X-17827064Y-2754418D01*
X-17806964Y-2537500D01*
X-17806964Y-2537499D01*
X-17827064Y-2320581D01*
X-17852696Y-2230495D01*
X-17886683Y-2111041D01*
X-17886682Y-2111041D01*
X-17886684Y-2111037D01*
X-17983788Y-1916027D01*
X-18115074Y-1742176D01*
X-18276066Y-1595413D01*
X-18276076Y-1595406D01*
X-18461286Y-1480729D01*
X-18461292Y-1480726D01*
X-18585735Y-1432517D01*
X-18664431Y-1402030D01*
X-18878574Y-1362000D01*
X-19096426Y-1362000D01*
X-19310569Y-1402030D01*
X-19408170Y-1439841D01*
X-19513707Y-1480726D01*
X-19513710Y-1480728D01*
X-19513711Y-1480729D01*
X-19513713Y-1480730D01*
X-19679768Y-1583545D01*
X-19747129Y-1602100D01*
X-19813828Y-1581292D01*
X-19858689Y-1527727D01*
X-19867469Y-1458411D01*
X-19861227Y-1434785D01*
X-19818408Y-1319982D01*
X-19812001Y-1260383D01*
X-19812000Y-1260364D01*
X-19812000Y-474729D01*
X-19792315Y-407690D01*
X-19775684Y-387052D01*
X-19587951Y-199318D01*
X-19526629Y-165834D01*
X-19500271Y-163000D01*
X-18883739Y-163000D01*
X-18816700Y-182685D01*
X-18796058Y-199319D01*
X-17374925Y-1620452D01*
X-17307808Y-1665297D01*
X-17252004Y-1702584D01*
X-17115422Y-1759158D01*
X-17067971Y-1768596D01*
X-16970429Y-1788000D01*
X-16970427Y-1788000D01*
X-16970426Y-1788000D01*
X-16822592Y-1788000D01*
X-6891417Y-1788000D01*
X-6865522Y-1788000D01*
X-6851638Y-1788780D01*
X-6772171Y-1797734D01*
X-6772169Y-1797734D01*
X-6772165Y-1797734D01*
X-6592919Y-1777538D01*
X-6592914Y-1777537D01*
X-6578139Y-1772367D01*
X-6422647Y-1717958D01*
X-6403773Y-1706099D01*
X-6324513Y-1656296D01*
X-6269907Y-1621985D01*
X-6142353Y-1494431D01*
X-6119720Y-1458411D01*
X-6046380Y-1341692D01*
X-5986800Y-1171423D01*
X-5986799Y-1171418D01*
X-5966604Y-992172D01*
X-5966604Y-992165D01*
X-5986799Y-812919D01*
X-5986800Y-812914D01*
X-6046380Y-642645D01*
X-6142353Y-489906D01*
X-6269906Y-362353D01*
X-6422645Y-266380D01*
X-6592914Y-206800D01*
X-6592919Y-206799D01*
X-6772165Y-186604D01*
X-6772173Y-186604D01*
X-6951418Y-206799D01*
X-6951431Y-206802D01*
X-7121688Y-266378D01*
X-7124258Y-267993D01*
X-7126207Y-268554D01*
X-7127963Y-269400D01*
X-7128106Y-269101D01*
X-7190231Y-287000D01*
X-7831291Y-287000D01*
X-7898330Y-267315D01*
X-7944085Y-214511D01*
X-7954511Y-149116D01*
X-7941935Y-37502D01*
X-7941935Y-37496D01*
X-7962130Y141749D01*
X-7962131Y141754D01*
X-8021711Y312023D01*
X-8117684Y464762D01*
X-8245237Y592315D01*
X-8245238Y592316D01*
X-8335580Y649082D01*
X-8397976Y688288D01*
X-8397978Y688289D01*
X-8568245Y747868D01*
X-8568250Y747869D01*
X-8747496Y768065D01*
X-8747504Y768065D01*
X-8926749Y747869D01*
X-8926752Y747868D01*
X-8926755Y747868D01*
X-9006517Y719958D01*
X-9047472Y713000D01*
X-16544330Y713000D01*
X-16611369Y732685D01*
X-16632011Y749319D01*
X-17753146Y1870454D01*
X-17792717Y1896893D01*
X-17827948Y1920433D01*
X-17876065Y1952584D01*
X-17876067Y1952585D01*
X-17876069Y1952586D01*
X-18012642Y2009156D01*
X-18012647Y2009158D01*
X-18012652Y2009159D01*
X-18157640Y2038000D01*
X-18157642Y2038000D01*
X-18874494Y2038000D01*
X-18941533Y2057685D01*
X-18987288Y2110489D01*
X-18997232Y2179647D01*
X-18968207Y2243203D01*
X-18962175Y2249681D01*
X-18394957Y2816897D01*
X-18394954Y2816901D01*
X-18368144Y2857026D01*
X-18299145Y2960288D01*
X-18299138Y2960301D01*
X-18233146Y3119621D01*
X-18233143Y3119633D01*
X-18199500Y3288766D01*
X-18199500Y4463000D01*
X-18179815Y4530039D01*
X-18127011Y4575794D01*
X-18075500Y4587000D01*
X-15751266Y4587000D01*
X-15582133Y4620643D01*
X-15582121Y4620646D01*
X-15422801Y4686638D01*
X-15422788Y4686645D01*
X-15279401Y4782454D01*
X-15279397Y4782457D01*
X-12924680Y7137174D01*
X-12863357Y7170659D01*
X-12793665Y7165675D01*
X-12737732Y7123803D01*
X-12713315Y7058339D01*
X-12712999Y7049513D01*
X-12712999Y6902773D01*
X-12712999Y6612498D01*
X-12712998Y6612480D01*
X-12705287Y6537000D01*
X-12702499Y6509703D01*
X-12647314Y6343166D01*
X-12555212Y6193844D01*
X-12431156Y6069788D01*
X-12355174Y6022922D01*
X-12324148Y6003785D01*
X-12281834Y5977686D01*
X-12115297Y5922501D01*
X-12115295Y5922500D01*
X-12012510Y5912000D01*
X-12012509Y5912000D01*
X-10962498Y5912000D01*
X-10962480Y5912001D01*
X-10859703Y5922500D01*
X-10859700Y5922501D01*
X-10693168Y5977685D01*
X-10693163Y5977687D01*
X-10543842Y6069789D01*
X-10419789Y6193842D01*
X-10327687Y6343163D01*
X-10327685Y6343168D01*
X-10290627Y6455003D01*
X-10272501Y6509703D01*
X-10272501Y6509704D01*
X-10272500Y6509704D01*
X-10262000Y6612483D01*
X-10262000Y7212501D01*
X-10262001Y7212519D01*
X-10272500Y7315296D01*
X-10272501Y7315299D01*
X-10327685Y7481831D01*
X-10327687Y7481836D01*
X-10382935Y7571407D01*
X-10419788Y7631156D01*
X-10543844Y7755212D01*
X-10553091Y7760916D01*
X-10599818Y7812860D01*
X-10612000Y7866457D01*
X-10612000Y8188000D01*
X-10592315Y8255039D01*
X-10539511Y8300794D01*
X-10488000Y8312000D01*
X-10029471Y8312000D01*
X-10029465Y8312000D01*
X-10029464Y8312001D01*
X-10017816Y8313036D01*
X-9910084Y8322613D01*
X-9714454Y8378589D01*
X-9586952Y8445191D01*
X-9534093Y8472802D01*
X-9534091Y8472803D01*
X-9534090Y8472804D01*
X-9376390Y8601390D01*
X-9247804Y8759090D01*
X-9242016Y8770169D01*
X-9169834Y8908355D01*
X-9153589Y8939454D01*
X-9097614Y9135083D01*
X-9097613Y9135086D01*
X-9090107Y9219516D01*
X-9087000Y9254463D01*
X-9087000Y9789492D01*
X-9087000Y10370528D01*
X-9087001Y10370534D01*
X-9097613Y10489915D01*
X-9153589Y10685545D01*
X-9167812Y10712773D01*
X-9247802Y10865907D01*
X-9324718Y10960237D01*
X-9376390Y11023609D01*
X-9485991Y11112976D01*
X-9534093Y11152198D01*
X-9714451Y11246409D01*
X-9910082Y11302386D01*
X-10029463Y11313000D01*
X-10113001Y11312999D01*
X-10180038Y11332683D01*
X-10225794Y11385486D01*
X-10237000Y11436999D01*
X-10237000Y19980664D01*
X-10217315Y20047703D01*
X-10200681Y20068345D01*
X-7005845Y23263181D01*
X-6944522Y23296666D01*
X-6918164Y23299500D01*
X-4017873Y23299500D01*
X-3823468Y23330290D01*
X-3636264Y23391117D01*
X-3460889Y23480476D01*
X-3370036Y23546485D01*
X-3301649Y23596172D01*
X-3301646Y23596174D01*
X-3301644Y23596175D01*
X-3285621Y23612199D01*
X-3224297Y23645683D01*
X-3154605Y23640697D01*
X-3098673Y23598824D01*
X-3087458Y23580812D01*
X-3035314Y23478476D01*
X-2905747Y23300141D01*
X-2905743Y23300136D01*
X-2749863Y23144256D01*
X-2749858Y23144252D01*
X-2571525Y23014687D01*
X-2571522Y23014685D01*
X-2529452Y22993249D01*
X-2375106Y22914604D01*
X-2375103Y22914603D01*
X-2165452Y22846485D01*
X-2056586Y22829242D01*
X-1947722Y22812000D01*
X-1947721Y22812000D01*
X972721Y22812000D01*
X972722Y22812000D01*
X1027154Y22820621D01*
X1190454Y22846485D01*
X1299683Y22881975D01*
X1369524Y22883970D01*
X1429357Y22847889D01*
X1460184Y22785188D01*
X1462000Y22764044D01*
X1462000Y17524729D01*
X1442315Y17457690D01*
X1425681Y17437048D01*
X916886Y16928254D01*
X416119Y16427487D01*
X416114Y16427481D01*
X393920Y16394263D01*
X389244Y16387264D01*
X338970Y16312023D01*
X333986Y16304564D01*
X277415Y16167989D01*
X277412Y16167979D01*
X248572Y16022992D01*
X248572Y15999657D01*
X228887Y15932618D01*
X176083Y15886863D01*
X106925Y15876919D01*
X43369Y15905944D01*
X36891Y15911976D01*
X-427537Y16376404D01*
X-1025681Y16974549D01*
X-1059166Y17035872D01*
X-1062000Y17062230D01*
X-1062000Y17462501D01*
X-1062001Y17462519D01*
X-1072500Y17565296D01*
X-1072501Y17565299D01*
X-1127685Y17731831D01*
X-1127687Y17731836D01*
X-1219789Y17881157D01*
X-1343842Y18005210D01*
X-1343844Y18005212D01*
X-1493166Y18097314D01*
X-1659703Y18152499D01*
X-1762491Y18163000D01*
X-2387508Y18162999D01*
X-2387516Y18162998D01*
X-2387519Y18162998D01*
X-2418433Y18159840D01*
X-2490297Y18152499D01*
X-2656834Y18097314D01*
X-2806156Y18005212D01*
X-2863795Y17947573D01*
X-2899819Y17911549D01*
X-2961142Y17878064D01*
X-3030834Y17883048D01*
X-3075181Y17911549D01*
X-3168842Y18005210D01*
X-3168844Y18005212D01*
X-3318166Y18097314D01*
X-3484703Y18152499D01*
X-3587491Y18163000D01*
X-4212508Y18162999D01*
X-4212516Y18162998D01*
X-4212519Y18162998D01*
X-4243433Y18159840D01*
X-4315297Y18152499D01*
X-4481834Y18097314D01*
X-4631156Y18005212D01*
X-4755212Y17881156D01*
X-4847314Y17731834D01*
X-4902499Y17565297D01*
X-4913000Y17462509D01*
X-4912999Y17183424D01*
X-4912999Y17149728D01*
X-4932683Y17082689D01*
X-4949313Y17062052D01*
X-5295561Y16715805D01*
X-5331634Y16693150D01*
X-5330748Y16691310D01*
X-5337010Y16688292D01*
X-5337022Y16688289D01*
X-5489762Y16592316D01*
X-5617316Y16464762D01*
X-5713289Y16312022D01*
X-5772868Y16141755D01*
X-5772868Y16141754D01*
X-5772869Y16141749D01*
X-5793065Y15962503D01*
X-5793065Y15962496D01*
X-5773362Y15787628D01*
X-5772868Y15783245D01*
X-5713289Y15612978D01*
X-5641801Y15499205D01*
X-5617315Y15460237D01*
X-5489762Y15332684D01*
X-5337023Y15236711D01*
X-5166754Y15177131D01*
X-5166749Y15177130D01*
X-4987504Y15156935D01*
X-4987500Y15156935D01*
X-4987496Y15156935D01*
X-4808250Y15177130D01*
X-4808245Y15177131D01*
X-4637976Y15236711D01*
X-4485237Y15332684D01*
X-4357684Y15460237D01*
X-4261712Y15612975D01*
X-4258691Y15619250D01*
X-4256865Y15618371D01*
X-4234195Y15654434D01*
X-4162951Y15725680D01*
X-4101629Y15759166D01*
X-4075269Y15762000D01*
X-3899730Y15762000D01*
X-3832691Y15742315D01*
X-3812049Y15725681D01*
X-3124318Y15037950D01*
X-3090833Y14976627D01*
X-3087999Y14950269D01*
X-3087999Y14462492D01*
X-3077499Y14359703D01*
X-3022314Y14193166D01*
X-2930212Y14043844D01*
X-2806156Y13919788D01*
X-2656834Y13827686D01*
X-2656830Y13827684D01*
X-2650825Y13824885D01*
X-2598384Y13778715D01*
X-2579228Y13711523D01*
X-2599440Y13644641D01*
X-2650825Y13600115D01*
X-2656822Y13597317D01*
X-2656834Y13597314D01*
X-2806156Y13505212D01*
X-2871938Y13439430D01*
X-2899819Y13411549D01*
X-2961142Y13378064D01*
X-3030834Y13383048D01*
X-3075181Y13411549D01*
X-3168842Y13505210D01*
X-3168844Y13505212D01*
X-3318166Y13597314D01*
X-3484703Y13652499D01*
X-3587491Y13663000D01*
X-4212508Y13662999D01*
X-4212516Y13662998D01*
X-4212519Y13662998D01*
X-4268802Y13657248D01*
X-4315297Y13652499D01*
X-4481834Y13597314D01*
X-4631156Y13505212D01*
X-4755212Y13381156D01*
X-4847314Y13231834D01*
X-4902499Y13065297D01*
X-4913000Y12962509D01*
X-4912999Y12753617D01*
X-4912999Y12649728D01*
X-4932683Y12582689D01*
X-4949313Y12562052D01*
X-5295561Y12215805D01*
X-5331634Y12193150D01*
X-5330748Y12191310D01*
X-5337010Y12188292D01*
X-5337022Y12188289D01*
X-5489762Y12092316D01*
X-5617316Y11964762D01*
X-5713289Y11812022D01*
X-5767870Y11656038D01*
X-5772868Y11641754D01*
X-5772869Y11641749D01*
X-5793065Y11462503D01*
X-5793065Y11462496D01*
X-5774038Y11293629D01*
X-5772868Y11283245D01*
X-5713297Y11113000D01*
X-5713288Y11112976D01*
X-5681886Y11063000D01*
X-5623478Y10970044D01*
X-5617315Y10960237D01*
X-5489762Y10832684D01*
X-5337023Y10736711D01*
X-5166754Y10677131D01*
X-5166749Y10677130D01*
X-4987504Y10656935D01*
X-4987500Y10656935D01*
X-4987496Y10656935D01*
X-4808250Y10677130D01*
X-4808245Y10677131D01*
X-4637976Y10736711D01*
X-4485237Y10832684D01*
X-4357684Y10960237D01*
X-4261712Y11112975D01*
X-4258691Y11119250D01*
X-4256865Y11118371D01*
X-4234195Y11154434D01*
X-4162951Y11225680D01*
X-4101629Y11259166D01*
X-4075269Y11262000D01*
X-3812230Y11262000D01*
X-3745191Y11242315D01*
X-3724549Y11225681D01*
X-3124318Y10625450D01*
X-3090833Y10564127D01*
X-3087999Y10537769D01*
X-3087999Y10037000D01*
X-3107684Y9969961D01*
X-3160488Y9924206D01*
X-3211999Y9913000D01*
X-4611419Y9913000D01*
X-4615538Y9912180D01*
X-4640259Y9907263D01*
X-4756412Y9884159D01*
X-4815453Y9859703D01*
X-4892995Y9827584D01*
X-4950005Y9789491D01*
X-5015915Y9745452D01*
X-6930452Y7830916D01*
X-6972447Y7768065D01*
X-7012584Y7707995D01*
X-7069158Y7571413D01*
X-7069159Y7571407D01*
X-7098000Y7426420D01*
X-7098000Y3248579D01*
X-7069159Y3103592D01*
X-7069156Y3103582D01*
X-7012586Y2967009D01*
X-7012583Y2967004D01*
X-6996655Y2943164D01*
X-6930453Y2844085D01*
X-6930447Y2844078D01*
X-4124319Y37951D01*
X-4090834Y-23372D01*
X-4088000Y-49730D01*
X-4088000Y-4792792D01*
X-4070236Y-4882092D01*
X-4059158Y-4937785D01*
X-4002584Y-5074367D01*
X-3969687Y-5123598D01*
X-3969687Y-5123601D01*
X-3942769Y-5163887D01*
X-3920452Y-5197288D01*
X-2645384Y-6472355D01*
X-1449319Y-7668420D01*
X-1415834Y-7729743D01*
X-1413000Y-7756101D01*
X-1413000Y-16537491D01*
X-1412999Y-17537508D01*
X-1402499Y-17640297D01*
X-1347314Y-17806834D01*
X-1255212Y-17956156D01*
X-1131156Y-18080212D01*
X-981834Y-18172314D01*
X-815297Y-18227499D01*
X-712509Y-18238000D01*
X-87492Y-18237999D01*
X-87484Y-18237998D01*
X-87480Y-18237998D01*
X-16715Y-18230769D01*
X15297Y-18227499D01*
X181834Y-18172314D01*
X331156Y-18080212D01*
X389209Y-18022158D01*
X450528Y-17988676D01*
X520220Y-17993660D01*
X576154Y-18035531D01*
X600571Y-18100995D01*
X585720Y-18169268D01*
X582426Y-18174938D01*
X527141Y-18264568D01*
X527137Y-18264577D01*
X472413Y-18429723D01*
X462000Y-18531644D01*
X462000Y-19543355D01*
X472413Y-19645276D01*
X527137Y-19810422D01*
X527142Y-19810433D01*
X618471Y-19958499D01*
X618474Y-19958503D01*
X741496Y-20081525D01*
X741500Y-20081528D01*
X889566Y-20172857D01*
X889569Y-20172858D01*
X889575Y-20172862D01*
X1054725Y-20227587D01*
X1156652Y-20238000D01*
X1156657Y-20238000D01*
X1743343Y-20238000D01*
X1743348Y-20238000D01*
X1845275Y-20227587D01*
X2010425Y-20172862D01*
X2158503Y-20081526D01*
X2281526Y-19958503D01*
X2372862Y-19810425D01*
X2427587Y-19645275D01*
X2438000Y-19543348D01*
X2438000Y-18531652D01*
X2427587Y-18429725D01*
X2372862Y-18264575D01*
X2372858Y-18264568D01*
X2372857Y-18264566D01*
X2281528Y-18116500D01*
X2278291Y-18112406D01*
X2252150Y-18047611D01*
X2265190Y-17978969D01*
X2278297Y-17958576D01*
X2280201Y-17956166D01*
X2280212Y-17956156D01*
X2372314Y-17806834D01*
X2427499Y-17640297D01*
X2438000Y-17537509D01*
X2437999Y-16537492D01*
X2427499Y-16434703D01*
X2372314Y-16268166D01*
X2280212Y-16118844D01*
X2156156Y-15994788D01*
X2006834Y-15902686D01*
X1840297Y-15847501D01*
X1840295Y-15847500D01*
X1737510Y-15837000D01*
X1112498Y-15837000D01*
X1112480Y-15837001D01*
X1009703Y-15847500D01*
X1009700Y-15847501D01*
X843168Y-15902685D01*
X843163Y-15902687D01*
X693842Y-15994789D01*
X600181Y-16088451D01*
X538858Y-16121936D01*
X469166Y-16116952D01*
X424819Y-16088451D01*
X331157Y-15994789D01*
X331156Y-15994788D01*
X181834Y-15902686D01*
X181833Y-15902685D01*
X181832Y-15902685D01*
X172993Y-15899756D01*
X115549Y-15859982D01*
X88728Y-15795465D01*
X88000Y-15782051D01*
X88000Y-15111999D01*
X107685Y-15044960D01*
X160489Y-14999205D01*
X212000Y-14987999D01*
X1037502Y-14987999D01*
X1037508Y-14987999D01*
X1140297Y-14977499D01*
X1306834Y-14922314D01*
X1456156Y-14830212D01*
X1512049Y-14774319D01*
X1573372Y-14740834D01*
X1599730Y-14738000D01*
X1968701Y-14738000D01*
X2035740Y-14757685D01*
X2079185Y-14805704D01*
X2135740Y-14916699D01*
X2246810Y-15069573D01*
X2380427Y-15203190D01*
X2533301Y-15314260D01*
X2612847Y-15354790D01*
X2701663Y-15400045D01*
X2701665Y-15400045D01*
X2701668Y-15400047D01*
X2797997Y-15431346D01*
X2881381Y-15458440D01*
X3068014Y-15488000D01*
X3068019Y-15488000D01*
X3600270Y-15488000D01*
X3667309Y-15507685D01*
X3687951Y-15524319D01*
X6784078Y-18620447D01*
X6784081Y-18620450D01*
X6784084Y-18620452D01*
X6853821Y-18667048D01*
X6907005Y-18702584D01*
X7043587Y-18759158D01*
X7055042Y-18761436D01*
X7116953Y-18793819D01*
X7148785Y-18844737D01*
X7149953Y-18848333D01*
X7149955Y-18848336D01*
X7235740Y-19016699D01*
X7346810Y-19169573D01*
X7480427Y-19303190D01*
X7633301Y-19414260D01*
X7709931Y-19453305D01*
X7801663Y-19500045D01*
X7801665Y-19500045D01*
X7801668Y-19500047D01*
X7864917Y-19520598D01*
X7981381Y-19558440D01*
X8168014Y-19588000D01*
X8168019Y-19588000D01*
X8356986Y-19588000D01*
X8543618Y-19558440D01*
X8723332Y-19500047D01*
X8891699Y-19414260D01*
X9044573Y-19303190D01*
X9178190Y-19169573D01*
X9289260Y-19016699D01*
X9375047Y-18848332D01*
X9433440Y-18668618D01*
X9438182Y-18638677D01*
X9463000Y-18481986D01*
X9463000Y-17593013D01*
X9433440Y-17406381D01*
X9375045Y-17226663D01*
X9326515Y-17131418D01*
X9313000Y-17075123D01*
X9313000Y-16124730D01*
X9332685Y-16057691D01*
X9349319Y-16037049D01*
X9405212Y-15981156D01*
X9406961Y-15978319D01*
X9408669Y-15976783D01*
X9409693Y-15975489D01*
X9409914Y-15975663D01*
X9458906Y-15931596D01*
X9527868Y-15920372D01*
X9591951Y-15948213D01*
X9618037Y-15978317D01*
X9619788Y-15981156D01*
X9743844Y-16105212D01*
X9893166Y-16197314D01*
X10059703Y-16252499D01*
X10162491Y-16263000D01*
X10762508Y-16262999D01*
X10762516Y-16262998D01*
X10762519Y-16262998D01*
X10818802Y-16257248D01*
X10865297Y-16252499D01*
X11031834Y-16197314D01*
X11181156Y-16105212D01*
X11305212Y-15981156D01*
X11388019Y-15846902D01*
X11439967Y-15800179D01*
X11493558Y-15788000D01*
X11571862Y-15788000D01*
X11638901Y-15807685D01*
X11677399Y-15846901D01*
X11744788Y-15956156D01*
X11868844Y-16080212D01*
X12018166Y-16172314D01*
X12184703Y-16227499D01*
X12287491Y-16238000D01*
X12912508Y-16237999D01*
X12912516Y-16237998D01*
X12912519Y-16237998D01*
X12968802Y-16232248D01*
X13015297Y-16227499D01*
X13181834Y-16172314D01*
X13331156Y-16080212D01*
X13455212Y-15956156D01*
X13547314Y-15806834D01*
X13602499Y-15640297D01*
X13613000Y-15537509D01*
X13612999Y-15137228D01*
X13632683Y-15070190D01*
X13649313Y-15049553D01*
X14024548Y-14674319D01*
X14085871Y-14640834D01*
X14112229Y-14638000D01*
X14538000Y-14638000D01*
X14605039Y-14657685D01*
X14650794Y-14710489D01*
X14662000Y-14762000D01*
X14662000Y-16382047D01*
X14642315Y-16449086D01*
X14589511Y-16494841D01*
X14557398Y-16504520D01*
X14481385Y-16516559D01*
X14301665Y-16574954D01*
X14133300Y-16660740D01*
X14046079Y-16724110D01*
X13980427Y-16771810D01*
X13980425Y-16771812D01*
X13980424Y-16771812D01*
X13846812Y-16905424D01*
X13846812Y-16905425D01*
X13846810Y-16905427D01*
X13799110Y-16971079D01*
X13735740Y-17058300D01*
X13649954Y-17226663D01*
X13591559Y-17406381D01*
X13562000Y-17593013D01*
X13562000Y-18481986D01*
X13591559Y-18668618D01*
X13649954Y-18848336D01*
X13735740Y-19016699D01*
X13846810Y-19169573D01*
X13980427Y-19303190D01*
X14133301Y-19414260D01*
X14209931Y-19453305D01*
X14301663Y-19500045D01*
X14301665Y-19500045D01*
X14301668Y-19500047D01*
X14364917Y-19520598D01*
X14481381Y-19558440D01*
X14668014Y-19588000D01*
X14668019Y-19588000D01*
X14856986Y-19588000D01*
X15043618Y-19558440D01*
X15223332Y-19500047D01*
X15391699Y-19414260D01*
X15544573Y-19303190D01*
X15678190Y-19169573D01*
X15789260Y-19016699D01*
X15875047Y-18848332D01*
X15933440Y-18668618D01*
X15938182Y-18638677D01*
X15963000Y-18481986D01*
X15963000Y-17949730D01*
X15982685Y-17882691D01*
X15992083Y-17871041D01*
X15991583Y-17870631D01*
X15995448Y-17865919D01*
X15995452Y-17865916D01*
X16043199Y-17794456D01*
X16066782Y-17759162D01*
X16070399Y-17753747D01*
X16077584Y-17742995D01*
X16134158Y-17606413D01*
X16163000Y-17461418D01*
X16163000Y-14241704D01*
X16163000Y-14241701D01*
X16132970Y-14090735D01*
X16134480Y-14090434D01*
X16133926Y-14028126D01*
X16171175Y-13969014D01*
X16234470Y-13939424D01*
X16253209Y-13938000D01*
X17857205Y-13938000D01*
X17924244Y-13957685D01*
X17969999Y-14010489D01*
X17979943Y-14079647D01*
X17979678Y-14081398D01*
X17962000Y-14193013D01*
X17962000Y-14381986D01*
X17991559Y-14568618D01*
X18049954Y-14748336D01*
X18135740Y-14916699D01*
X18246810Y-15069573D01*
X18380427Y-15203190D01*
X18533301Y-15314260D01*
X18612847Y-15354790D01*
X18701663Y-15400045D01*
X18701665Y-15400045D01*
X18701668Y-15400047D01*
X18797997Y-15431346D01*
X18881381Y-15458440D01*
X19068014Y-15488000D01*
X19068019Y-15488000D01*
X19956986Y-15488000D01*
X20143618Y-15458440D01*
X20323332Y-15400047D01*
X20491699Y-15314260D01*
X20644573Y-15203190D01*
X20778190Y-15069573D01*
X20889260Y-14916699D01*
X20945814Y-14805704D01*
X20993788Y-14754909D01*
X21056299Y-14738000D01*
X21425270Y-14738000D01*
X21492309Y-14757685D01*
X21512951Y-14774319D01*
X21568844Y-14830212D01*
X21718166Y-14922314D01*
X21884703Y-14977499D01*
X21987491Y-14988000D01*
X23037508Y-14987999D01*
X23037516Y-14987998D01*
X23037519Y-14987998D01*
X23093802Y-14982248D01*
X23140297Y-14977499D01*
X23306834Y-14922314D01*
X23456156Y-14830212D01*
X23580212Y-14706156D01*
X23672314Y-14556834D01*
X23727499Y-14390297D01*
X23738000Y-14287509D01*
X23737999Y-13687492D01*
X23727499Y-13584703D01*
X23672314Y-13418166D01*
X23580212Y-13268844D01*
X23456156Y-13144788D01*
X23453319Y-13143038D01*
X23451783Y-13141330D01*
X23450489Y-13140307D01*
X23450663Y-13140085D01*
X23406596Y-13091094D01*
X23395372Y-13022132D01*
X23423213Y-12958049D01*
X23453317Y-12931962D01*
X23456156Y-12930212D01*
X23580212Y-12806156D01*
X23672314Y-12656834D01*
X23727499Y-12490297D01*
X23738000Y-12387509D01*
X23737999Y-11787492D01*
X23727499Y-11684703D01*
X23672314Y-11518166D01*
X23580212Y-11368844D01*
X23456156Y-11244788D01*
X23321902Y-11161980D01*
X23275179Y-11110033D01*
X23263000Y-11056442D01*
X23263000Y-10978138D01*
X23282685Y-10911099D01*
X23321901Y-10872600D01*
X23431156Y-10805212D01*
X23555212Y-10681156D01*
X23647314Y-10531834D01*
X23702499Y-10365297D01*
X23713000Y-10262509D01*
X23712999Y-9637492D01*
X23702499Y-9534703D01*
X23647314Y-9368166D01*
X23555212Y-9218844D01*
X23431156Y-9094788D01*
X23281834Y-9002686D01*
X23115297Y-8947501D01*
X23115295Y-8947500D01*
X23012510Y-8937000D01*
X22012498Y-8937000D01*
X22012480Y-8937001D01*
X21909703Y-8947500D01*
X21909696Y-8947502D01*
X21850233Y-8967206D01*
X21780404Y-8969607D01*
X21723549Y-8937181D01*
X21043407Y-8257039D01*
X21009922Y-8195716D01*
X21013156Y-8131042D01*
X21033440Y-8068618D01*
X21061269Y-7892913D01*
X21063000Y-7881986D01*
X21063000Y-7693013D01*
X21033440Y-7506381D01*
X21006050Y-7422086D01*
X20975047Y-7326668D01*
X20975045Y-7326665D01*
X20975045Y-7326663D01*
X20907365Y-7193835D01*
X20889260Y-7158301D01*
X20778190Y-7005427D01*
X20644573Y-6871810D01*
X20491699Y-6760740D01*
X20479291Y-6754418D01*
X20323336Y-6674954D01*
X20143618Y-6616559D01*
X19956986Y-6587000D01*
X19956981Y-6587000D01*
X19068019Y-6587000D01*
X19068014Y-6587000D01*
X18881381Y-6616559D01*
X18701663Y-6674954D01*
X18533300Y-6760740D01*
X18498400Y-6786097D01*
X18380427Y-6871810D01*
X18380425Y-6871812D01*
X18380424Y-6871812D01*
X18246812Y-7005424D01*
X18246812Y-7005425D01*
X18246810Y-7005427D01*
X18222866Y-7038383D01*
X18135740Y-7158300D01*
X18049954Y-7326663D01*
X17991559Y-7506381D01*
X17962000Y-7693013D01*
X17962000Y-7881986D01*
X17991559Y-8068618D01*
X18049954Y-8248336D01*
X18135740Y-8416699D01*
X18246810Y-8569573D01*
X18380427Y-8703190D01*
X18533301Y-8814260D01*
X18567796Y-8831836D01*
X18701663Y-8900045D01*
X18701665Y-8900045D01*
X18701668Y-8900047D01*
X18764222Y-8920372D01*
X18881381Y-8958440D01*
X19068014Y-8988000D01*
X19068019Y-8988000D01*
X19600270Y-8988000D01*
X19667309Y-9007685D01*
X19687951Y-9024319D01*
X21196586Y-10532954D01*
X21226058Y-10552645D01*
X21270270Y-10582186D01*
X21319505Y-10615084D01*
X21319506Y-10615084D01*
X21319507Y-10615085D01*
X21319509Y-10615086D01*
X21440472Y-10665190D01*
X21480701Y-10692069D01*
X21593844Y-10805212D01*
X21703097Y-10872599D01*
X21749821Y-10924547D01*
X21762000Y-10978138D01*
X21762000Y-11056442D01*
X21742315Y-11123481D01*
X21703098Y-11161979D01*
X21616709Y-11215264D01*
X21568842Y-11244789D01*
X21444789Y-11368842D01*
X21352687Y-11518163D01*
X21352686Y-11518166D01*
X21297501Y-11684703D01*
X21297501Y-11684704D01*
X21297500Y-11684704D01*
X21287000Y-11787483D01*
X21287000Y-12387501D01*
X21287001Y-12387519D01*
X21297500Y-12490296D01*
X21297501Y-12490299D01*
X21352685Y-12656831D01*
X21352687Y-12656836D01*
X21444789Y-12806157D01*
X21568846Y-12930214D01*
X21571682Y-12931963D01*
X21573217Y-12933670D01*
X21574511Y-12934693D01*
X21574336Y-12934914D01*
X21618405Y-12983911D01*
X21629626Y-13052874D01*
X21601782Y-13116956D01*
X21571682Y-13143037D01*
X21568846Y-13144785D01*
X21568843Y-13144788D01*
X21512951Y-13200681D01*
X21451628Y-13234166D01*
X21425270Y-13237000D01*
X20474876Y-13237000D01*
X20418581Y-13223485D01*
X20323336Y-13174954D01*
X20143618Y-13116559D01*
X19956986Y-13087000D01*
X19956981Y-13087000D01*
X19424730Y-13087000D01*
X19357691Y-13067315D01*
X19337049Y-13050681D01*
X18890921Y-12604552D01*
X18890914Y-12604546D01*
X18817229Y-12555312D01*
X18817229Y-12555313D01*
X18767991Y-12522413D01*
X18631417Y-12465843D01*
X18631407Y-12465840D01*
X18486420Y-12437000D01*
X18486418Y-12437000D01*
X15710125Y-12437000D01*
X15643086Y-12417315D01*
X15597331Y-12364511D01*
X15587387Y-12295353D01*
X15616412Y-12231797D01*
X15622444Y-12225319D01*
X15678190Y-12169573D01*
X15789260Y-12016699D01*
X15875047Y-11848332D01*
X15933440Y-11668618D01*
X15957269Y-11518168D01*
X15963000Y-11481986D01*
X15963000Y-10593013D01*
X15933440Y-10406381D01*
X15886695Y-10262516D01*
X15875047Y-10226668D01*
X15875045Y-10226665D01*
X15875045Y-10226663D01*
X15789259Y-10058300D01*
X15678190Y-9905427D01*
X15544573Y-9771810D01*
X15391699Y-9660740D01*
X15346084Y-9637498D01*
X15223336Y-9574954D01*
X15043618Y-9516559D01*
X14856986Y-9487000D01*
X14856981Y-9487000D01*
X14668019Y-9487000D01*
X14668014Y-9487000D01*
X14481382Y-9516559D01*
X14418956Y-9536842D01*
X14349115Y-9538836D01*
X14292959Y-9506591D01*
X13612817Y-8826449D01*
X13579332Y-8765126D01*
X13582792Y-8699765D01*
X13602499Y-8640297D01*
X13613000Y-8537509D01*
X13612999Y-7736999D01*
X13632683Y-7669961D01*
X13685487Y-7624206D01*
X13736999Y-7613000D01*
X16481087Y-7613000D01*
X16578629Y-7593596D01*
X16626080Y-7584158D01*
X16762662Y-7527584D01*
X16811896Y-7494686D01*
X16885583Y-7445452D01*
X19749296Y-4581737D01*
X19810619Y-4548253D01*
X19880311Y-4553237D01*
X19924658Y-4581738D01*
X20010236Y-4667316D01*
X20034435Y-4682521D01*
X20147234Y-4753398D01*
X20162976Y-4763289D01*
X20333243Y-4822868D01*
X20333248Y-4822869D01*
X20512494Y-4843065D01*
X20512498Y-4843065D01*
X20512502Y-4843065D01*
X20691747Y-4822869D01*
X20691750Y-4822868D01*
X20691753Y-4822868D01*
X20771515Y-4794957D01*
X20812470Y-4788000D01*
X24050347Y-4788000D01*
X24117386Y-4807685D01*
X24163141Y-4860489D01*
X24173874Y-4922806D01*
X24170274Y-4963962D01*
X24156841Y-5117499D01*
X24156841Y-5117500D01*
X24177436Y-5352903D01*
X24177438Y-5352913D01*
X24238594Y-5581155D01*
X24238596Y-5581159D01*
X24238597Y-5581163D01*
X24313678Y-5742175D01*
X24338465Y-5795330D01*
X24338467Y-5795334D01*
X24474001Y-5988895D01*
X24474006Y-5988902D01*
X24641097Y-6155993D01*
X24641103Y-6155998D01*
X24826658Y-6285925D01*
X24870283Y-6340502D01*
X24877477Y-6410000D01*
X24845954Y-6472355D01*
X24826658Y-6489075D01*
X24641097Y-6619005D01*
X24474005Y-6786097D01*
X24338465Y-6979669D01*
X24338464Y-6979671D01*
X24238598Y-7193835D01*
X24238594Y-7193844D01*
X24177438Y-7422086D01*
X24177436Y-7422096D01*
X24156841Y-7657499D01*
X24156841Y-7657500D01*
X24177436Y-7892903D01*
X24177438Y-7892913D01*
X24238594Y-8121155D01*
X24238596Y-8121159D01*
X24238597Y-8121163D01*
X24273362Y-8195716D01*
X24338465Y-8335330D01*
X24338467Y-8335334D01*
X24395440Y-8416699D01*
X24474005Y-8528901D01*
X24641099Y-8695995D01*
X24651375Y-8703190D01*
X24834665Y-8831532D01*
X24834667Y-8831533D01*
X24834670Y-8831535D01*
X25048837Y-8931403D01*
X25048843Y-8931404D01*
X25048844Y-8931405D01*
X25069729Y-8937001D01*
X25277092Y-8992563D01*
X25465418Y-9009039D01*
X25512499Y-9013159D01*
X25512500Y-9013159D01*
X25512501Y-9013159D01*
X25551734Y-9009726D01*
X25747908Y-8992563D01*
X25976163Y-8931403D01*
X26190330Y-8831535D01*
X26383901Y-8695995D01*
X26550995Y-8528901D01*
X26686535Y-8335330D01*
X26786403Y-8121163D01*
X26847563Y-7892908D01*
X26868159Y-7657500D01*
X26847563Y-7422092D01*
X26786403Y-7193837D01*
X26686535Y-6979671D01*
X26675536Y-6963962D01*
X26550994Y-6786097D01*
X26383902Y-6619006D01*
X26383896Y-6619001D01*
X26198342Y-6489075D01*
X26154717Y-6434498D01*
X26147523Y-6365000D01*
X26179046Y-6302645D01*
X26198342Y-6285925D01*
X26220526Y-6270391D01*
X26383901Y-6155995D01*
X26550995Y-5988901D01*
X26686535Y-5795330D01*
X26786403Y-5581163D01*
X26847563Y-5352908D01*
X26868159Y-5117500D01*
X26847563Y-4882092D01*
X26786403Y-4653837D01*
X26686535Y-4439671D01*
X26638949Y-4371710D01*
X26550994Y-4246097D01*
X26383902Y-4079006D01*
X26383896Y-4079001D01*
X26198342Y-3949075D01*
X26154717Y-3894498D01*
X26147523Y-3825000D01*
X26179046Y-3762645D01*
X26198342Y-3745925D01*
X26239547Y-3717073D01*
X26383901Y-3615995D01*
X26550995Y-3448901D01*
X26686535Y-3255330D01*
X26786403Y-3041163D01*
X26847563Y-2812908D01*
X26868159Y-2577500D01*
X26847563Y-2342092D01*
X26786403Y-2113837D01*
X26686535Y-1899671D01*
X26685898Y-1898760D01*
X26550994Y-1706097D01*
X26383902Y-1539006D01*
X26383896Y-1539001D01*
X26198342Y-1409075D01*
X26154717Y-1354498D01*
X26147523Y-1285000D01*
X26179046Y-1222645D01*
X26198342Y-1205925D01*
X26301217Y-1133891D01*
X26383901Y-1075995D01*
X26550995Y-908901D01*
X26686535Y-715330D01*
X26786403Y-501163D01*
X26847563Y-272908D01*
X26868159Y-37500D01*
X26847563Y197908D01*
X26786403Y426163D01*
X26686535Y640329D01*
X26550995Y833901D01*
X26383901Y1000995D01*
X26198342Y1130925D01*
X26154717Y1185502D01*
X26147523Y1255000D01*
X26179046Y1317355D01*
X26198342Y1334075D01*
X26383896Y1464001D01*
X26383902Y1464006D01*
X26550993Y1631097D01*
X26550995Y1631099D01*
X26631618Y1746240D01*
X26686532Y1824665D01*
X26686534Y1824669D01*
X26686535Y1824670D01*
X26786403Y2038837D01*
X26847563Y2267092D01*
X26868159Y2502500D01*
X26847563Y2737908D01*
X26786403Y2966163D01*
X26686535Y3180329D01*
X26550995Y3373901D01*
X26383901Y3540995D01*
X26198342Y3670925D01*
X26154717Y3725502D01*
X26147523Y3795000D01*
X26179046Y3857355D01*
X26198342Y3874075D01*
X26383896Y4004001D01*
X26383902Y4004006D01*
X26550993Y4171097D01*
X26550995Y4171099D01*
X26651965Y4315299D01*
X26686532Y4364665D01*
X26686534Y4364669D01*
X26686535Y4364670D01*
X26786403Y4578837D01*
X26797702Y4621004D01*
X26808565Y4661549D01*
X26847563Y4807092D01*
X26868159Y5042500D01*
X26847563Y5277908D01*
X26786403Y5506163D01*
X26686535Y5720329D01*
X26550995Y5913901D01*
X26383901Y6080995D01*
X26190330Y6216535D01*
X25976163Y6316403D01*
X25747908Y6377563D01*
X25551734Y6394726D01*
X25512501Y6398159D01*
X25512499Y6398159D01*
X25465418Y6394039D01*
X25277092Y6377563D01*
X25198341Y6356462D01*
X25119093Y6335228D01*
X25049243Y6336891D01*
X24991381Y6376054D01*
X24963877Y6440282D01*
X24963000Y6455003D01*
X24963000Y13744846D01*
X24934159Y13889833D01*
X24934158Y13889839D01*
X24877584Y14026421D01*
X24795451Y14149342D01*
X24690916Y14253877D01*
X17385915Y21558879D01*
X17312228Y21608113D01*
X17262994Y21641011D01*
X17126412Y21697585D01*
X17078961Y21707023D01*
X16981419Y21726427D01*
X16981417Y21726427D01*
X15081416Y21726427D01*
X14933581Y21726427D01*
X14933579Y21726427D01*
X14788591Y21697586D01*
X14788586Y21697585D01*
X14788581Y21697583D01*
X14652010Y21641014D01*
X14651997Y21641007D01*
X14529083Y21558878D01*
X14529079Y21558875D01*
X14104551Y21134348D01*
X14104550Y21134347D01*
X14055313Y21060657D01*
X14055312Y21060656D01*
X14022414Y21011421D01*
X14015635Y20995054D01*
X13971794Y20940651D01*
X13905500Y20918586D01*
X13842619Y20933150D01*
X13823222Y20943518D01*
X13802226Y20954741D01*
X13613631Y21011951D01*
X13417499Y21031268D01*
X13221367Y21011951D01*
X13032772Y20954741D01*
X12858961Y20861837D01*
X12858957Y20861834D01*
X12853892Y20858450D01*
X12852795Y20860091D01*
X12796860Y20836332D01*
X12727992Y20848121D01*
X12711350Y20858815D01*
X12711106Y20858450D01*
X12706043Y20861831D01*
X12706037Y20861837D01*
X12532226Y20954741D01*
X12343631Y21011951D01*
X12147499Y21031268D01*
X11951367Y21011951D01*
X11762772Y20954741D01*
X11588961Y20861837D01*
X11588957Y20861834D01*
X11583892Y20858450D01*
X11582795Y20860091D01*
X11526860Y20836332D01*
X11457992Y20848121D01*
X11441350Y20858815D01*
X11441106Y20858450D01*
X11436043Y20861831D01*
X11436037Y20861837D01*
X11262226Y20954741D01*
X11073631Y21011951D01*
X10877499Y21031268D01*
X10681367Y21011951D01*
X10492772Y20954741D01*
X10318961Y20861837D01*
X10318957Y20861834D01*
X10313892Y20858450D01*
X10312795Y20860091D01*
X10256860Y20836332D01*
X10187992Y20848121D01*
X10171350Y20858815D01*
X10171106Y20858450D01*
X10166043Y20861831D01*
X10166037Y20861837D01*
X9992226Y20954741D01*
X9803631Y21011951D01*
X9607499Y21031268D01*
X9411367Y21011951D01*
X9222772Y20954741D01*
X9048961Y20861837D01*
X9048957Y20861834D01*
X9043892Y20858450D01*
X9042795Y20860091D01*
X8986860Y20836332D01*
X8917992Y20848121D01*
X8901350Y20858815D01*
X8901106Y20858450D01*
X8896043Y20861831D01*
X8896037Y20861837D01*
X8722226Y20954741D01*
X8533631Y21011951D01*
X8337499Y21031268D01*
X8141367Y21011951D01*
X7952772Y20954741D01*
X7778961Y20861837D01*
X7778957Y20861834D01*
X7773892Y20858450D01*
X7772795Y20860091D01*
X7716860Y20836332D01*
X7647992Y20848121D01*
X7631350Y20858815D01*
X7631106Y20858450D01*
X7626043Y20861831D01*
X7626037Y20861837D01*
X7452226Y20954741D01*
X7263631Y21011951D01*
X7067499Y21031268D01*
X6871367Y21011951D01*
X6682772Y20954741D01*
X6682768Y20954739D01*
X6682765Y20954738D01*
X6508966Y20861840D01*
X6508959Y20861836D01*
X6356615Y20736810D01*
X6231589Y20584466D01*
X6231585Y20584459D01*
X6138687Y20410660D01*
X6081474Y20222056D01*
X6062158Y20025927D01*
X6081474Y19829797D01*
X6138687Y19641193D01*
X6231585Y19467394D01*
X6231589Y19467387D01*
X6288853Y19397612D01*
X6316166Y19333302D01*
X6317000Y19318947D01*
X6317000Y18072767D01*
X6297315Y18005728D01*
X6296102Y18003876D01*
X6225181Y17897736D01*
X6225176Y17897728D01*
X6153527Y17724751D01*
X6153525Y17724743D01*
X6117000Y17541120D01*
X6117000Y16853879D01*
X6153525Y16670256D01*
X6153527Y16670248D01*
X6225176Y16497271D01*
X6225181Y16497262D01*
X6329197Y16341592D01*
X6329200Y16341588D01*
X6461588Y16209200D01*
X6461592Y16209197D01*
X6617262Y16105181D01*
X6617271Y16105176D01*
X6790248Y16033527D01*
X6790256Y16033525D01*
X6973879Y15997000D01*
X6973884Y15997000D01*
X7161120Y15997000D01*
X7344743Y16033525D01*
X7344751Y16033527D01*
X7517728Y16105176D01*
X7517742Y16105184D01*
X7633610Y16182604D01*
X7700287Y16203482D01*
X7767667Y16184997D01*
X7771390Y16182604D01*
X7887257Y16105184D01*
X7887271Y16105176D01*
X8060248Y16033527D01*
X8060256Y16033525D01*
X8243879Y15997000D01*
X8243884Y15997000D01*
X8431120Y15997000D01*
X8614743Y16033525D01*
X8614751Y16033527D01*
X8787728Y16105176D01*
X8787742Y16105184D01*
X8903610Y16182604D01*
X8970287Y16203482D01*
X9037667Y16184997D01*
X9041390Y16182604D01*
X9157257Y16105184D01*
X9157271Y16105176D01*
X9330248Y16033527D01*
X9330256Y16033525D01*
X9513879Y15997000D01*
X9513884Y15997000D01*
X9701120Y15997000D01*
X9884743Y16033525D01*
X9884751Y16033527D01*
X10057727Y16105176D01*
X10057728Y16105176D01*
X10057731Y16105178D01*
X10115793Y16143974D01*
X10119611Y16146525D01*
X10186288Y16167402D01*
X10253668Y16148917D01*
X10276180Y16131105D01*
X10319398Y16087887D01*
X10319404Y16087883D01*
X10462788Y15992076D01*
X10462801Y15992069D01*
X10622121Y15926077D01*
X10622133Y15926074D01*
X10791266Y15892431D01*
X10791271Y15892431D01*
X10963733Y15892431D01*
X11132866Y15926074D01*
X11132878Y15926077D01*
X11292198Y15992069D01*
X11292211Y15992076D01*
X11435598Y16087885D01*
X11435602Y16087888D01*
X11478817Y16131103D01*
X11540140Y16164588D01*
X11609832Y16159604D01*
X11635388Y16146524D01*
X11697257Y16105184D01*
X11697271Y16105176D01*
X11870248Y16033527D01*
X11870256Y16033525D01*
X12053879Y15997000D01*
X12053884Y15997000D01*
X12241120Y15997000D01*
X12424743Y16033525D01*
X12424751Y16033527D01*
X12597728Y16105176D01*
X12597742Y16105184D01*
X12713610Y16182604D01*
X12780287Y16203482D01*
X12847667Y16184997D01*
X12851390Y16182604D01*
X12967257Y16105184D01*
X12967271Y16105176D01*
X13140248Y16033527D01*
X13140256Y16033525D01*
X13323879Y15997000D01*
X13323884Y15997000D01*
X13511120Y15997000D01*
X13694743Y16033525D01*
X13694751Y16033527D01*
X13867728Y16105176D01*
X13867742Y16105184D01*
X13983610Y16182604D01*
X14050287Y16203482D01*
X14117667Y16184997D01*
X14121390Y16182604D01*
X14237257Y16105184D01*
X14237271Y16105176D01*
X14410248Y16033527D01*
X14410253Y16033525D01*
X14455456Y16024534D01*
X14517366Y15992148D01*
X14551940Y15931432D01*
X14548199Y15861663D01*
X14518944Y15815236D01*
X13631648Y14927940D01*
X13631642Y14927933D01*
X13487969Y14740694D01*
X13487963Y14740686D01*
X13487960Y14740681D01*
X13487958Y14740678D01*
X13369955Y14536293D01*
X13369947Y14536277D01*
X13279636Y14318245D01*
X13279632Y14318233D01*
X13279631Y14318230D01*
X13218544Y14090250D01*
X13218544Y14090247D01*
X13187736Y13856254D01*
X13187736Y13620217D01*
X13218543Y13386225D01*
X13245142Y13286957D01*
X13270091Y13193844D01*
X13279632Y13158239D01*
X13279636Y13158226D01*
X13369947Y12940194D01*
X13369955Y12940178D01*
X13487958Y12735793D01*
X13487969Y12735777D01*
X13631642Y12548538D01*
X13631648Y12548531D01*
X13798531Y12381648D01*
X13798538Y12381642D01*
X13985777Y12237969D01*
X13985793Y12237958D01*
X14190178Y12119955D01*
X14190194Y12119947D01*
X14408226Y12029636D01*
X14408239Y12029632D01*
X14408240Y12029631D01*
X14408242Y12029631D01*
X14522232Y11999087D01*
X14636225Y11968543D01*
X14870217Y11937736D01*
X14870225Y11937736D01*
X15106254Y11937736D01*
X15340246Y11968543D01*
X15340250Y11968544D01*
X15568230Y12029631D01*
X15568233Y12029632D01*
X15568245Y12029636D01*
X15786277Y12119947D01*
X15786293Y12119955D01*
X15990678Y12237958D01*
X15990681Y12237960D01*
X15990686Y12237963D01*
X16115778Y12333949D01*
X16177933Y12381642D01*
X16177940Y12381648D01*
X17193348Y13397056D01*
X17193355Y13397064D01*
X17337038Y13584313D01*
X17455046Y13788710D01*
X17455053Y13788725D01*
X17545370Y14006771D01*
X17550634Y14026414D01*
X17606457Y14234750D01*
X17637264Y14468753D01*
X17637264Y14704775D01*
X17606457Y14938778D01*
X17545370Y15166758D01*
X17455048Y15384814D01*
X17337038Y15589215D01*
X17318805Y15612976D01*
X17268221Y15678898D01*
X17193356Y15776464D01*
X17193351Y15776468D01*
X17193348Y15776473D01*
X17026473Y15943348D01*
X17026468Y15943351D01*
X17026464Y15943356D01*
X16839215Y16087038D01*
X16726733Y16151978D01*
X16678518Y16202545D01*
X16665294Y16271152D01*
X16691262Y16336017D01*
X16692880Y16338031D01*
X16695801Y16341591D01*
X16704901Y16355209D01*
X16779148Y16466328D01*
X16799818Y16497262D01*
X16799823Y16497271D01*
X16834929Y16582024D01*
X16871473Y16670249D01*
X16908000Y16853884D01*
X16908000Y17541116D01*
X16871473Y17724751D01*
X16799822Y17897731D01*
X16728896Y18003877D01*
X16708019Y18070555D01*
X16707999Y18072768D01*
X16707999Y19026176D01*
X16727684Y19093215D01*
X16757687Y19125442D01*
X16815041Y19168378D01*
X16815045Y19168381D01*
X16836486Y19197022D01*
X16901292Y19283591D01*
X16901296Y19283598D01*
X16948710Y19410723D01*
X16951590Y19418444D01*
X16957999Y19478054D01*
X16957998Y19564697D01*
X16977682Y19631734D01*
X17030485Y19677490D01*
X17099644Y19687434D01*
X17163200Y19658410D01*
X17169679Y19652377D01*
X23425681Y13396376D01*
X23459166Y13335053D01*
X23462000Y13308695D01*
X23462000Y3728579D01*
X23461999Y3728579D01*
X23490840Y3583592D01*
X23490843Y3583582D01*
X23547412Y3447011D01*
X23547418Y3447000D01*
X23548158Y3445894D01*
X23548367Y3445225D01*
X23550289Y3441630D01*
X23549607Y3441265D01*
X23569038Y3379218D01*
X23550556Y3311837D01*
X23498579Y3265145D01*
X23445058Y3253000D01*
X23228576Y3253000D01*
X23083588Y3224159D01*
X23083583Y3224158D01*
X23083578Y3224156D01*
X22947007Y3167587D01*
X22946994Y3167580D01*
X22824081Y3085452D01*
X22824076Y3085448D01*
X22038108Y2299479D01*
X21976785Y2265994D01*
X21907094Y2270978D01*
X21851160Y2312850D01*
X21826743Y2378314D01*
X21826427Y2387160D01*
X21826427Y5017749D01*
X21846112Y5084788D01*
X21876115Y5117015D01*
X21933469Y5159951D01*
X21933473Y5159954D01*
X21976411Y5217312D01*
X22019720Y5275164D01*
X22019724Y5275171D01*
X22070018Y5410017D01*
X22070187Y5411592D01*
X22076427Y5469627D01*
X22076426Y6565372D01*
X22070018Y6624983D01*
X22019723Y6759831D01*
X22013697Y6767879D01*
X21989278Y6833342D01*
X22002822Y6896974D01*
X22002410Y6897145D01*
X22003333Y6899375D01*
X22003604Y6900646D01*
X22004741Y6902773D01*
X22061951Y7091368D01*
X22081268Y7287500D01*
X22061951Y7483632D01*
X22004741Y7672227D01*
X21911837Y7846038D01*
X21911831Y7846044D01*
X21908450Y7851107D01*
X21910091Y7852203D01*
X21886332Y7908139D01*
X21898121Y7977007D01*
X21908815Y7993648D01*
X21908450Y7993893D01*
X21911834Y7998958D01*
X21911837Y7998962D01*
X22004741Y8172773D01*
X22061951Y8361368D01*
X22081268Y8557500D01*
X22061951Y8753632D01*
X22004741Y8942227D01*
X21992767Y8964628D01*
X21911840Y9116032D01*
X21911836Y9116039D01*
X21896204Y9135086D01*
X21786810Y9268383D01*
X21634465Y9393410D01*
X21543316Y9442130D01*
X21460660Y9486311D01*
X21460659Y9486311D01*
X21460654Y9486314D01*
X21272059Y9543524D01*
X21075927Y9562841D01*
X20879795Y9543524D01*
X20691200Y9486314D01*
X20691196Y9486311D01*
X20691193Y9486311D01*
X20517394Y9393413D01*
X20517387Y9393409D01*
X20447614Y9336147D01*
X20383304Y9308834D01*
X20368949Y9308000D01*
X19122767Y9308000D01*
X19055728Y9327685D01*
X19053876Y9328898D01*
X19043027Y9336147D01*
X18947731Y9399822D01*
X18774751Y9471473D01*
X18591118Y9507999D01*
X18591117Y9508000D01*
X18591116Y9508000D01*
X17903884Y9508000D01*
X17903883Y9508000D01*
X17903879Y9507999D01*
X17720249Y9471473D01*
X17639289Y9437938D01*
X17547271Y9399823D01*
X17547262Y9399818D01*
X17391592Y9295802D01*
X17391588Y9295799D01*
X17259200Y9163411D01*
X17259197Y9163407D01*
X17155181Y9007737D01*
X17155176Y9007728D01*
X17083527Y8834751D01*
X17083525Y8834743D01*
X17047000Y8651120D01*
X17047000Y8463879D01*
X17083525Y8280256D01*
X17083527Y8280248D01*
X17155176Y8107271D01*
X17155184Y8107257D01*
X17232604Y7991390D01*
X17253482Y7924713D01*
X17234997Y7857333D01*
X17232604Y7853610D01*
X17155184Y7737742D01*
X17155176Y7737728D01*
X17083527Y7564751D01*
X17083525Y7564743D01*
X17047000Y7381120D01*
X17047000Y7193879D01*
X17083525Y7010256D01*
X17083527Y7010248D01*
X17155176Y6837271D01*
X17155184Y6837257D01*
X17232604Y6721390D01*
X17253482Y6654713D01*
X17234997Y6587333D01*
X17232604Y6583610D01*
X17155184Y6467742D01*
X17155176Y6467728D01*
X17083527Y6294751D01*
X17083525Y6294743D01*
X17047000Y6111120D01*
X17047000Y5923879D01*
X17083525Y5740256D01*
X17083527Y5740248D01*
X17155176Y5567271D01*
X17155181Y5567262D01*
X17259197Y5411592D01*
X17259200Y5411588D01*
X17391588Y5279200D01*
X17391592Y5279197D01*
X17547262Y5175181D01*
X17547271Y5175176D01*
X17720248Y5103527D01*
X17720256Y5103525D01*
X17903879Y5067000D01*
X17903884Y5067000D01*
X18591120Y5067000D01*
X18774743Y5103525D01*
X18774751Y5103527D01*
X18947728Y5175176D01*
X18947736Y5175181D01*
X19053876Y5246102D01*
X19120553Y5266980D01*
X19122767Y5267000D01*
X20076176Y5267000D01*
X20143215Y5247315D01*
X20175442Y5217312D01*
X20218380Y5159953D01*
X20275739Y5117015D01*
X20317609Y5061081D01*
X20325427Y5017749D01*
X20325427Y2638156D01*
X20305742Y2571117D01*
X20289108Y2550475D01*
X15232039Y-2506591D01*
X15170716Y-2540076D01*
X15106041Y-2536841D01*
X15043621Y-2516560D01*
X14856986Y-2487000D01*
X14856981Y-2487000D01*
X14668019Y-2487000D01*
X14668014Y-2487000D01*
X14481382Y-2516559D01*
X14418956Y-2536842D01*
X14349115Y-2538836D01*
X14292959Y-2506591D01*
X13612817Y-1826449D01*
X13579332Y-1765126D01*
X13582792Y-1699765D01*
X13602499Y-1640297D01*
X13613000Y-1537509D01*
X13612999Y-537492D01*
X13602499Y-434703D01*
X13547314Y-268166D01*
X13547310Y-268159D01*
X13544260Y-261618D01*
X13545781Y-260908D01*
X13529686Y-202100D01*
X13550604Y-135435D01*
X13604243Y-90662D01*
X13617653Y-85732D01*
X13802227Y-29742D01*
X13802233Y-29739D01*
X13976032Y63158D01*
X13981101Y66545D01*
X13982198Y64903D01*
X14038134Y88666D01*
X14107003Y76881D01*
X14123654Y66179D01*
X14123899Y66545D01*
X14128967Y63158D01*
X14302766Y-29739D01*
X14302769Y-29739D01*
X14302773Y-29742D01*
X14491368Y-86952D01*
X14687500Y-106269D01*
X14883632Y-86952D01*
X15072227Y-29742D01*
X15072233Y-29739D01*
X15246032Y63158D01*
X15251101Y66545D01*
X15252198Y64903D01*
X15308134Y88666D01*
X15377003Y76881D01*
X15393654Y66179D01*
X15393899Y66545D01*
X15398967Y63158D01*
X15572766Y-29739D01*
X15572769Y-29739D01*
X15572773Y-29742D01*
X15761368Y-86952D01*
X15957500Y-106269D01*
X16153632Y-86952D01*
X16342227Y-29742D01*
X16342233Y-29739D01*
X16516032Y63158D01*
X16516039Y63162D01*
X16668383Y188188D01*
X16793409Y340532D01*
X16793413Y340539D01*
X16886311Y514338D01*
X16886311Y514341D01*
X16886314Y514345D01*
X16943524Y702940D01*
X16962841Y899072D01*
X16943524Y1095204D01*
X16886314Y1283799D01*
X16886312Y1283801D01*
X16885643Y1286009D01*
X16885019Y1355876D01*
X16922267Y1414989D01*
X16985560Y1444580D01*
X17018186Y1445225D01*
X17038494Y1442937D01*
X17038498Y1442937D01*
X17038502Y1442937D01*
X17217747Y1463132D01*
X17217752Y1463133D01*
X17388021Y1522713D01*
X17540760Y1618686D01*
X17668313Y1746239D01*
X17670153Y1749166D01*
X17762976Y1896893D01*
X17764286Y1898978D01*
X17771793Y1920430D01*
X17823866Y2069247D01*
X17844063Y2248502D01*
X17841968Y2267092D01*
X17823867Y2427751D01*
X17823866Y2427756D01*
X17807096Y2475681D01*
X17795955Y2507519D01*
X17788998Y2548474D01*
X17788998Y4243214D01*
X17775486Y4311142D01*
X17772195Y4327686D01*
X17760157Y4388206D01*
X17722963Y4478000D01*
X17703582Y4524789D01*
X17639533Y4620645D01*
X17621450Y4647709D01*
X16808708Y5460452D01*
X16724953Y5516414D01*
X16685787Y5542584D01*
X16549205Y5599158D01*
X16501754Y5608596D01*
X16404212Y5628000D01*
X16404210Y5628000D01*
X12970790Y5628000D01*
X12970789Y5628000D01*
X12964991Y5626846D01*
X12941949Y5622263D01*
X12825796Y5599159D01*
X12767945Y5575196D01*
X12689213Y5542584D01*
X12650047Y5516414D01*
X12566292Y5460452D01*
X12566290Y5460450D01*
X12566287Y5460448D01*
X12566286Y5460447D01*
X12055460Y4949620D01*
X11994137Y4916135D01*
X11992114Y4915713D01*
X11870249Y4891473D01*
X11739947Y4837500D01*
X11697271Y4819823D01*
X11697262Y4819818D01*
X11541592Y4715802D01*
X11541588Y4715799D01*
X11409200Y4583411D01*
X11409197Y4583407D01*
X11305181Y4427737D01*
X11305176Y4427728D01*
X11233527Y4254751D01*
X11233525Y4254743D01*
X11197000Y4071120D01*
X11197000Y3383879D01*
X11233525Y3200256D01*
X11233527Y3200248D01*
X11305177Y3027270D01*
X11376102Y2921122D01*
X11396979Y2854444D01*
X11396999Y2852232D01*
X11396999Y1606048D01*
X11377314Y1539009D01*
X11368859Y1527392D01*
X11311590Y1457610D01*
X11311587Y1457606D01*
X11311587Y1457605D01*
X11311586Y1457604D01*
X11218688Y1283805D01*
X11161475Y1095201D01*
X11142159Y899072D01*
X11161475Y702942D01*
X11218688Y514338D01*
X11311586Y340539D01*
X11311590Y340532D01*
X11436616Y188188D01*
X11588960Y63163D01*
X11588962Y63162D01*
X11674244Y17577D01*
X11724087Y-31384D01*
X11739548Y-99521D01*
X11721329Y-156876D01*
X11677401Y-228096D01*
X11625454Y-274821D01*
X11571862Y-287000D01*
X11493558Y-287000D01*
X11426519Y-267315D01*
X11388019Y-228097D01*
X11305212Y-93844D01*
X11181156Y30212D01*
X11031834Y122314D01*
X10865297Y177499D01*
X10762509Y188000D01*
X10568759Y187999D01*
X10501721Y207683D01*
X10455966Y260487D01*
X10446022Y329645D01*
X10459402Y370452D01*
X10536311Y514339D01*
X10536314Y514345D01*
X10593524Y702940D01*
X10612841Y899072D01*
X10593524Y1095204D01*
X10536314Y1283799D01*
X10443410Y1457610D01*
X10386146Y1527386D01*
X10358833Y1591695D01*
X10357999Y1606051D01*
X10357999Y2852230D01*
X10377684Y2919269D01*
X10378897Y2921121D01*
X10449818Y3027262D01*
X10449823Y3027271D01*
X10481436Y3103592D01*
X10521473Y3200249D01*
X10558000Y3383884D01*
X10558000Y4071116D01*
X10521473Y4254751D01*
X10449822Y4427731D01*
X10345802Y4583408D01*
X10213408Y4715802D01*
X10057731Y4819822D01*
X9884751Y4891473D01*
X9701118Y4927999D01*
X9701117Y4928000D01*
X9701116Y4928000D01*
X9513884Y4928000D01*
X9513883Y4928000D01*
X9513879Y4927999D01*
X9330249Y4891473D01*
X9199947Y4837500D01*
X9157271Y4819823D01*
X9157262Y4819818D01*
X9041390Y4742395D01*
X8974712Y4721517D01*
X8907332Y4740002D01*
X8903609Y4742395D01*
X8813923Y4802321D01*
X8769117Y4855933D01*
X8760410Y4925258D01*
X8790564Y4988285D01*
X8795132Y4993104D01*
X9005448Y5203419D01*
X9005451Y5203423D01*
X9087580Y5326337D01*
X9087587Y5326350D01*
X9144156Y5462921D01*
X9144159Y5462931D01*
X9173000Y5607918D01*
X9173000Y6377081D01*
X9153596Y6474623D01*
X9144158Y6522074D01*
X9087584Y6658656D01*
X9038688Y6731834D01*
X9005452Y6781577D01*
X6714319Y9072710D01*
X6680834Y9134033D01*
X6678000Y9160391D01*
X6678000Y11003879D01*
X17047000Y11003879D01*
X17083525Y10820256D01*
X17083527Y10820248D01*
X17155176Y10647271D01*
X17155181Y10647262D01*
X17259197Y10491592D01*
X17259200Y10491588D01*
X17391588Y10359200D01*
X17391592Y10359197D01*
X17547262Y10255181D01*
X17547271Y10255176D01*
X17720248Y10183527D01*
X17720256Y10183525D01*
X17903879Y10147000D01*
X17903884Y10147000D01*
X18591120Y10147000D01*
X18774743Y10183525D01*
X18774751Y10183527D01*
X18947728Y10255176D01*
X18947737Y10255181D01*
X19103407Y10359197D01*
X19103411Y10359200D01*
X19235799Y10491588D01*
X19235802Y10491592D01*
X19339818Y10647262D01*
X19339823Y10647271D01*
X19376870Y10736711D01*
X19411473Y10820249D01*
X19448000Y11003884D01*
X19448000Y11097500D01*
X20070586Y11097500D01*
X20089902Y10901370D01*
X20147115Y10712766D01*
X20240013Y10538967D01*
X20240017Y10538960D01*
X20365043Y10386616D01*
X20517387Y10261590D01*
X20517394Y10261586D01*
X20691193Y10168688D01*
X20879797Y10111475D01*
X21075927Y10092159D01*
X21272056Y10111475D01*
X21389165Y10147000D01*
X21460654Y10168686D01*
X21460660Y10168688D01*
X21634459Y10261586D01*
X21634466Y10261590D01*
X21786810Y10386616D01*
X21911836Y10538960D01*
X21911840Y10538967D01*
X22004738Y10712766D01*
X22004738Y10712769D01*
X22004741Y10712773D01*
X22061951Y10901368D01*
X22081268Y11097500D01*
X22061951Y11293632D01*
X22004741Y11482227D01*
X21995424Y11499657D01*
X21958289Y11569132D01*
X21911837Y11656038D01*
X21786810Y11808383D01*
X21634465Y11933410D01*
X21547559Y11979862D01*
X21460660Y12026311D01*
X21460659Y12026311D01*
X21460654Y12026314D01*
X21272059Y12083524D01*
X21075927Y12102841D01*
X20879795Y12083524D01*
X20691200Y12026314D01*
X20691196Y12026311D01*
X20691193Y12026311D01*
X20517394Y11933413D01*
X20517387Y11933409D01*
X20365043Y11808383D01*
X20240017Y11656039D01*
X20240013Y11656032D01*
X20147115Y11482233D01*
X20147113Y11482227D01*
X20117767Y11385486D01*
X20089902Y11293629D01*
X20070586Y11097500D01*
X19448000Y11097500D01*
X19448000Y11191116D01*
X19411473Y11374751D01*
X19339822Y11547731D01*
X19235802Y11703408D01*
X19103408Y11835802D01*
X18947731Y11939822D01*
X18774751Y12011473D01*
X18591118Y12047999D01*
X18591117Y12048000D01*
X18591116Y12048000D01*
X17903884Y12048000D01*
X17903883Y12048000D01*
X17903879Y12047999D01*
X17720249Y12011473D01*
X17607479Y11964762D01*
X17547271Y11939823D01*
X17547262Y11939818D01*
X17391592Y11835802D01*
X17391588Y11835799D01*
X17259200Y11703411D01*
X17259197Y11703407D01*
X17155181Y11547737D01*
X17155176Y11547728D01*
X17083527Y11374751D01*
X17083525Y11374743D01*
X17047000Y11191120D01*
X17047000Y11003879D01*
X6678000Y11003879D01*
X6678000Y15354212D01*
X6649159Y15499199D01*
X6649158Y15499205D01*
X6592584Y15635787D01*
X6510451Y15758708D01*
X6405916Y15863243D01*
X4109319Y18159840D01*
X4075834Y18221163D01*
X4073000Y18247521D01*
X4073000Y21691568D01*
X4092685Y21758607D01*
X4145489Y21804362D01*
X4214647Y21814306D01*
X4236003Y21809274D01*
X4384698Y21760001D01*
X4384702Y21760000D01*
X4487487Y21749500D01*
X4487489Y21749500D01*
X5537499Y21749500D01*
X5537517Y21749501D01*
X5640294Y21760000D01*
X5640297Y21760001D01*
X5806829Y21815185D01*
X5806832Y21815186D01*
X5806833Y21815187D01*
X5806838Y21815189D01*
X5893332Y21868539D01*
X5958428Y21887000D01*
X6598733Y21887000D01*
X6767866Y21920643D01*
X6767878Y21920646D01*
X6927198Y21986638D01*
X6927211Y21986645D01*
X7070598Y22082454D01*
X7070602Y22082457D01*
X7192542Y22204397D01*
X7192545Y22204401D01*
X7288354Y22347788D01*
X7288361Y22347801D01*
X7354353Y22507121D01*
X7354355Y22507126D01*
X7387999Y22676266D01*
X7388000Y22676268D01*
X7388000Y23600632D01*
X7407685Y23667671D01*
X7426883Y23688846D01*
X7426049Y23689681D01*
X7555210Y23818842D01*
X7555212Y23818844D01*
X7647314Y23968166D01*
X7691754Y24102278D01*
X8762000Y24102278D01*
X8796485Y23884547D01*
X8864603Y23674896D01*
X8864604Y23674893D01*
X8964687Y23478474D01*
X9094252Y23300141D01*
X9094256Y23300136D01*
X9250136Y23144256D01*
X9250141Y23144252D01*
X9428474Y23014687D01*
X9624893Y22914604D01*
X9624896Y22914603D01*
X9834547Y22846485D01*
X9979701Y22823495D01*
X10052278Y22812000D01*
X10052279Y22812000D01*
X12972721Y22812000D01*
X12972722Y22812000D01*
X13081586Y22829242D01*
X13190452Y22846485D01*
X13400103Y22914603D01*
X13400106Y22914604D01*
X13554452Y22993249D01*
X13596522Y23014685D01*
X13596525Y23014687D01*
X13774858Y23144252D01*
X13774863Y23144256D01*
X13930743Y23300136D01*
X13930747Y23300141D01*
X14060312Y23478474D01*
X14060315Y23478478D01*
X14156715Y23667671D01*
X14160395Y23674893D01*
X14160396Y23674896D01*
X14228514Y23884547D01*
X14228515Y23884549D01*
X14263000Y24102278D01*
X14263000Y24322722D01*
X14228515Y24540451D01*
X14160395Y24750106D01*
X14060315Y24946522D01*
X13930742Y25124865D01*
X13774865Y25280742D01*
X13596522Y25410315D01*
X13400106Y25510395D01*
X13190451Y25578515D01*
X12972722Y25613000D01*
X10052278Y25613000D01*
X9834549Y25578515D01*
X9747345Y25550181D01*
X9624896Y25510396D01*
X9624893Y25510395D01*
X9563000Y25478858D01*
X9428478Y25410315D01*
X9428474Y25410312D01*
X9250141Y25280747D01*
X9250136Y25280743D01*
X9094256Y25124863D01*
X9094252Y25124858D01*
X8964687Y24946525D01*
X8864604Y24750106D01*
X8864603Y24750103D01*
X8796485Y24540452D01*
X8762000Y24322721D01*
X8762000Y24102278D01*
X7691754Y24102278D01*
X7702499Y24134703D01*
X7713000Y24237491D01*
X7712999Y24862508D01*
X7702499Y24965297D01*
X7647314Y25131834D01*
X7555212Y25281156D01*
X7461549Y25374819D01*
X7428064Y25436142D01*
X7433048Y25505834D01*
X7461549Y25550181D01*
X7555210Y25643842D01*
X7555212Y25643844D01*
X7647314Y25793166D01*
X7702499Y25959703D01*
X7713000Y26062491D01*
X7712999Y26687508D01*
X7702499Y26790297D01*
X7647314Y26956834D01*
X7555212Y27106156D01*
X7431156Y27230212D01*
X7281834Y27322314D01*
X7115297Y27377499D01*
X7012509Y27388000D01*
X6612228Y27387999D01*
X6545190Y27407683D01*
X6524548Y27424318D01*
X6392700Y27556166D01*
X5903416Y28045452D01*
X5821355Y28100282D01*
X5780495Y28127584D01*
X5643913Y28184158D01*
X5596462Y28193596D01*
X5498920Y28213000D01*
X5498918Y28213000D01*
X4510201Y28213000D01*
X4443162Y28232685D01*
X4408626Y28265877D01*
X4360994Y28333902D01*
X4281170Y28413726D01*
X4193901Y28500995D01*
X4000330Y28636535D01*
X3786163Y28736403D01*
X3557908Y28797563D01*
X3341165Y28816526D01*
X3322501Y28818159D01*
X3322499Y28818159D01*
X3303835Y28816526D01*
X3087092Y28797563D01*
X2858837Y28736403D01*
X2644671Y28636535D01*
X2644669Y28636534D01*
X2451097Y28500994D01*
X2284006Y28333903D01*
X2260584Y28300452D01*
X2154073Y28148338D01*
X2099499Y28104715D01*
X2030000Y28097521D01*
X1967645Y28129043D01*
X1950928Y28148336D01*
X1820995Y28333901D01*
X1653901Y28500995D01*
X1460330Y28636535D01*
X1246163Y28736403D01*
X1017908Y28797563D01*
X801165Y28816526D01*
X782501Y28818159D01*
X782499Y28818159D01*
X763835Y28816526D01*
X569485Y28799522D01*
X500986Y28813288D01*
X470997Y28835369D01*
X-39078Y29345447D01*
X-39079Y29345448D01*
X-39082Y29345450D01*
X-39084Y29345452D01*
X-150492Y29419891D01*
X-150491Y29419891D01*
X-150493Y29419892D01*
X-162005Y29427584D01*
X-162007Y29427585D01*
X-162009Y29427586D01*
X-298582Y29484156D01*
X-298587Y29484158D01*
X-298592Y29484159D01*
X-443580Y29513000D01*
X-443582Y29513000D01*
X-1654858Y29513000D01*
X-1721897Y29532685D01*
X-1767652Y29585489D01*
X-1777596Y29654647D01*
X-1752135Y29713897D01*
X-1650680Y29842238D01*
X-1597699Y29938834D01*
X-1570027Y29989288D01*
X-1570026Y29989289D01*
X-1570023Y29989296D01*
X-1514982Y30147699D01*
X-1514978Y30147715D01*
X-1487073Y30313080D01*
X-1487073Y30313081D01*
X-1487064Y30322585D01*
X-1487000Y30323573D01*
X-1487000Y32300477D01*
X-1467315Y32367516D01*
X-1414511Y32413271D01*
X-1363000Y32424477D01*
X388000Y32424477D01*
X455039Y32404792D01*
G37*
%TD.AperFunction*%
%TA.AperFunction,Conductor*%
G36*
X11638901Y-8807685D02*
G01*
X11677399Y-8846901D01*
X11739889Y-8948213D01*
X11744789Y-8956157D01*
X11857928Y-9069296D01*
X11884808Y-9109524D01*
X11934915Y-9230494D01*
X11956634Y-9262998D01*
X11956635Y-9263001D01*
X12017046Y-9353414D01*
X12017052Y-9353421D01*
X13525681Y-10862049D01*
X13559166Y-10923372D01*
X13562000Y-10949730D01*
X13562000Y-11481986D01*
X13591559Y-11668618D01*
X13649954Y-11848336D01*
X13727168Y-11999876D01*
X13735740Y-12016699D01*
X13846810Y-12169573D01*
X13846812Y-12169575D01*
X13902556Y-12225319D01*
X13936041Y-12286642D01*
X13931057Y-12356334D01*
X13889185Y-12412267D01*
X13823721Y-12436684D01*
X13814875Y-12437000D01*
X10338580Y-12437000D01*
X10193592Y-12465840D01*
X10193582Y-12465843D01*
X10057008Y-12522413D01*
X9934084Y-12604548D01*
X9934084Y-12604549D01*
X9524681Y-13013951D01*
X9463358Y-13047436D01*
X9393666Y-13042452D01*
X9337733Y-13000580D01*
X9313316Y-12935116D01*
X9313000Y-12926270D01*
X9313000Y-11999876D01*
X9326515Y-11943581D01*
X9375045Y-11848336D01*
X9375045Y-11848335D01*
X9375047Y-11848332D01*
X9433440Y-11668618D01*
X9457269Y-11518168D01*
X9463000Y-11481986D01*
X9463000Y-10593013D01*
X9433440Y-10406381D01*
X9386695Y-10262516D01*
X9375047Y-10226668D01*
X9375045Y-10226665D01*
X9375045Y-10226663D01*
X9326515Y-10131418D01*
X9313000Y-10075123D01*
X9313000Y-9124730D01*
X9332685Y-9057691D01*
X9349319Y-9037049D01*
X9375740Y-9010628D01*
X9405212Y-8981156D01*
X9406961Y-8978319D01*
X9408669Y-8976783D01*
X9409693Y-8975489D01*
X9409914Y-8975663D01*
X9458906Y-8931596D01*
X9527868Y-8920372D01*
X9591951Y-8948213D01*
X9618037Y-8978317D01*
X9619788Y-8981156D01*
X9743844Y-9105212D01*
X9893166Y-9197314D01*
X10059703Y-9252499D01*
X10162491Y-9263000D01*
X10762508Y-9262999D01*
X10762516Y-9262998D01*
X10762519Y-9262998D01*
X10818802Y-9257248D01*
X10865297Y-9252499D01*
X11031834Y-9197314D01*
X11181156Y-9105212D01*
X11305212Y-8981156D01*
X11388019Y-8846902D01*
X11439967Y-8800179D01*
X11493558Y-8788000D01*
X11571862Y-8788000D01*
X11638901Y-8807685D01*
G37*
%TD.AperFunction*%
%TA.AperFunction,Conductor*%
G36*
X-781797Y-4365678D02*
G01*
X-775319Y-4371710D01*
X2030022Y-7177051D01*
X2063507Y-7238374D01*
X2058523Y-7308066D01*
X2052831Y-7321017D01*
X2049956Y-7326659D01*
X2049949Y-7326676D01*
X2047353Y-7334667D01*
X2017105Y-7384025D01*
X500450Y-8900681D01*
X439127Y-8934166D01*
X412769Y-8937000D01*
X212000Y-8937000D01*
X144961Y-8917315D01*
X99206Y-8864511D01*
X88000Y-8813000D01*
X88000Y-7319951D01*
X59159Y-7174964D01*
X59158Y-7174963D01*
X59158Y-7174959D01*
X52258Y-7158300D01*
X2587Y-7038383D01*
X2580Y-7038370D01*
X-79548Y-6915456D01*
X-79551Y-6915452D01*
X-126639Y-6868365D01*
X-1597204Y-5397798D01*
X-1630689Y-5336475D01*
X-1625705Y-5266783D01*
X-1583833Y-5210850D01*
X-1548364Y-5194019D01*
X-1548792Y-5192856D01*
X-1542486Y-5190538D01*
X-1542479Y-5190537D01*
X-1376747Y-5108342D01*
X-1314673Y-5058445D01*
X-1232559Y-4992440D01*
X-1116656Y-4848250D01*
X-1034464Y-4682523D01*
X-1034463Y-4682521D01*
X-989817Y-4502999D01*
X-987000Y-4461451D01*
X-987000Y-4459391D01*
X-967315Y-4392352D01*
X-914511Y-4346597D01*
X-845353Y-4336653D01*
X-781797Y-4365678D01*
G37*
%TD.AperFunction*%
%TA.AperFunction,Conductor*%
G36*
X4555039Y842315D02*
G01*
X4600794Y789511D01*
X4612000Y738000D01*
X4612000Y-211418D01*
X4612000Y-211420D01*
X4611999Y-211420D01*
X4640840Y-356407D01*
X4640843Y-356417D01*
X4689850Y-474729D01*
X4697416Y-492995D01*
X4717324Y-522790D01*
X4727146Y-537490D01*
X4779549Y-615918D01*
X4779552Y-615921D01*
X5784080Y-1620448D01*
X5784084Y-1620451D01*
X5906998Y-1702580D01*
X5907011Y-1702587D01*
X6023858Y-1750986D01*
X6043587Y-1759158D01*
X6043591Y-1759158D01*
X6043592Y-1759159D01*
X6188579Y-1788000D01*
X6188582Y-1788000D01*
X6336417Y-1788000D01*
X7531442Y-1788000D01*
X7598481Y-1807685D01*
X7636979Y-1846901D01*
X7719788Y-1981156D01*
X7761051Y-2022419D01*
X7775681Y-2037048D01*
X7809166Y-2098371D01*
X7812000Y-2124730D01*
X7812000Y-2493700D01*
X7792315Y-2560739D01*
X7744295Y-2604184D01*
X7633305Y-2660736D01*
X7531385Y-2734786D01*
X7480427Y-2771810D01*
X7480425Y-2771812D01*
X7480424Y-2771812D01*
X7346812Y-2905424D01*
X7346812Y-2905425D01*
X7346810Y-2905427D01*
X7304284Y-2963959D01*
X7235740Y-3058300D01*
X7149954Y-3226663D01*
X7091559Y-3406381D01*
X7062000Y-3593013D01*
X7062000Y-4481986D01*
X7091559Y-4668618D01*
X7149954Y-4848336D01*
X7235739Y-5016697D01*
X7235740Y-5016699D01*
X7346810Y-5169573D01*
X7346812Y-5169575D01*
X7377556Y-5200319D01*
X7411041Y-5261642D01*
X7406057Y-5331334D01*
X7364185Y-5387267D01*
X7298721Y-5411684D01*
X7289875Y-5412000D01*
X5216027Y-5412000D01*
X5148988Y-5392315D01*
X5128346Y-5375681D01*
X5107217Y-5354552D01*
X5107210Y-5354546D01*
X5007614Y-5287999D01*
X5007613Y-5287999D01*
X4984291Y-5272416D01*
X4984284Y-5272412D01*
X4847713Y-5215843D01*
X4847703Y-5215840D01*
X4702716Y-5187000D01*
X4702714Y-5187000D01*
X3274729Y-5187000D01*
X3207690Y-5167315D01*
X3187048Y-5150681D01*
X1686049Y-3649681D01*
X1652564Y-3588358D01*
X1657548Y-3518666D01*
X1699420Y-3462733D01*
X1764884Y-3438316D01*
X1773730Y-3438000D01*
X3962526Y-3438000D01*
X4003481Y-3444958D01*
X4083243Y-3472868D01*
X4083248Y-3472869D01*
X4262494Y-3493065D01*
X4262498Y-3493065D01*
X4262502Y-3493065D01*
X4441747Y-3472869D01*
X4441750Y-3472868D01*
X4441753Y-3472868D01*
X4612020Y-3413289D01*
X4764760Y-3317316D01*
X4892314Y-3189762D01*
X4988287Y-3037022D01*
X5047866Y-2866755D01*
X5047867Y-2866749D01*
X5068063Y-2687503D01*
X5068063Y-2687496D01*
X5047867Y-2508250D01*
X5047866Y-2508245D01*
X4989728Y-2342096D01*
X4988287Y-2337978D01*
X4892314Y-2185238D01*
X4764760Y-2057684D01*
X4612021Y-1961711D01*
X4441752Y-1902131D01*
X4441747Y-1902130D01*
X4262502Y-1881935D01*
X4262494Y-1881935D01*
X4083248Y-1902130D01*
X4083243Y-1902131D01*
X4003481Y-1930042D01*
X3962526Y-1937000D01*
X-911420Y-1937000D01*
X-1056407Y-1965840D01*
X-1056417Y-1965843D01*
X-1192988Y-2022412D01*
X-1193001Y-2022419D01*
X-1315915Y-2104548D01*
X-1315919Y-2104551D01*
X-2012049Y-2800681D01*
X-2073372Y-2834166D01*
X-2099730Y-2837000D01*
X-2463000Y-2837000D01*
X-2530039Y-2817315D01*
X-2575794Y-2764511D01*
X-2587000Y-2713000D01*
X-2587000Y-862000D01*
X-2567315Y-794961D01*
X-2514511Y-749206D01*
X-2463000Y-738000D01*
X-1763548Y-738000D01*
X-1763546Y-738000D01*
X-1722005Y-735183D01*
X-1722001Y-735182D01*
X-1722000Y-735182D01*
X-1678066Y-724256D01*
X-1542479Y-690537D01*
X-1376747Y-608342D01*
X-1314673Y-558445D01*
X-1232559Y-492440D01*
X-1116655Y-348250D01*
X-1114715Y-345214D01*
X-1113049Y-343763D01*
X-1112446Y-343013D01*
X-1112311Y-343121D01*
X-1062022Y-299331D01*
X-1010237Y-288000D01*
X2102528Y-288000D01*
X2143483Y-294958D01*
X2223245Y-322868D01*
X2223250Y-322869D01*
X2402496Y-343065D01*
X2402500Y-343065D01*
X2402504Y-343065D01*
X2581749Y-322869D01*
X2581752Y-322868D01*
X2581755Y-322868D01*
X2752022Y-263289D01*
X2904762Y-167316D01*
X3032316Y-39762D01*
X3128289Y112978D01*
X3187868Y283245D01*
X3187869Y283250D01*
X3208065Y462496D01*
X3208065Y462503D01*
X3187869Y641749D01*
X3187866Y641762D01*
X3168522Y697045D01*
X3164960Y766824D01*
X3199688Y827451D01*
X3261682Y859679D01*
X3285563Y862000D01*
X4488000Y862000D01*
X4555039Y842315D01*
G37*
%TD.AperFunction*%
%TA.AperFunction,Conductor*%
G36*
X-3832691Y6742315D02*
G01*
X-3812049Y6725681D01*
X-3124318Y6037950D01*
X-3090833Y5976627D01*
X-3087999Y5950269D01*
X-3087999Y5462492D01*
X-3077499Y5359703D01*
X-3022314Y5193166D01*
X-2930212Y5043844D01*
X-2930210Y5043842D01*
X-2811549Y4925181D01*
X-2778064Y4863858D01*
X-2783048Y4794166D01*
X-2811549Y4749819D01*
X-2899819Y4661549D01*
X-2961142Y4628064D01*
X-3030834Y4633048D01*
X-3075181Y4661549D01*
X-3168842Y4755210D01*
X-3168844Y4755212D01*
X-3318166Y4847314D01*
X-3484703Y4902499D01*
X-3587491Y4913000D01*
X-4212508Y4912999D01*
X-4212516Y4912998D01*
X-4212519Y4912998D01*
X-4268802Y4907248D01*
X-4315297Y4902499D01*
X-4481834Y4847314D01*
X-4631156Y4755212D01*
X-4699658Y4686710D01*
X-4760319Y4626049D01*
X-4762205Y4627935D01*
X-4809125Y4594712D01*
X-4849368Y4588000D01*
X-5473000Y4588000D01*
X-5540039Y4607685D01*
X-5585794Y4660489D01*
X-5597000Y4712000D01*
X-5597000Y6175704D01*
X-5577315Y6242743D01*
X-5524511Y6288498D01*
X-5455353Y6298442D01*
X-5407028Y6280698D01*
X-5337023Y6236711D01*
X-5166754Y6177131D01*
X-5166749Y6177130D01*
X-4987504Y6156935D01*
X-4987500Y6156935D01*
X-4987496Y6156935D01*
X-4808250Y6177130D01*
X-4808245Y6177131D01*
X-4637976Y6236711D01*
X-4485237Y6332684D01*
X-4357684Y6460237D01*
X-4261712Y6612975D01*
X-4258691Y6619250D01*
X-4256865Y6618371D01*
X-4234195Y6654434D01*
X-4162951Y6725680D01*
X-4101629Y6759166D01*
X-4075269Y6762000D01*
X-3899730Y6762000D01*
X-3832691Y6742315D01*
G37*
%TD.AperFunction*%
%TA.AperFunction,Conductor*%
G36*
X-3102964Y27992315D02*
G01*
X-3057209Y27939511D01*
X-3047265Y27870353D01*
X-3050228Y27855907D01*
X-3092563Y27697908D01*
X-3113159Y27462500D01*
X-3106863Y27390544D01*
X-3120629Y27322047D01*
X-3142707Y27292060D01*
X-4246171Y26188598D01*
X-4597950Y25836819D01*
X-4659273Y25803334D01*
X-4685631Y25800500D01*
X-6178536Y25800500D01*
X-6245575Y25820185D01*
X-6291330Y25872989D01*
X-6301274Y25942147D01*
X-6298706Y25953040D01*
X-6298918Y25953086D01*
X-6297500Y25959704D01*
X-6287000Y26062483D01*
X-6287000Y26687501D01*
X-6287001Y26687519D01*
X-6297500Y26790296D01*
X-6297502Y26790303D01*
X-6325917Y26876055D01*
X-6328318Y26945883D01*
X-6295892Y27002739D01*
X-5322952Y27975681D01*
X-5261629Y28009166D01*
X-5235271Y28012000D01*
X-3170003Y28012000D01*
X-3102964Y27992315D01*
G37*
%TD.AperFunction*%
%TD*%
M02*
