%TF.GenerationSoftware,KiCad,Pcbnew,8.0.1*%
%TF.CreationDate,2024-06-09T17:00:22+09:00*%
%TF.ProjectId,main,6d61696e-2e6b-4696-9361-645f70636258,rev?*%
%TF.SameCoordinates,Original*%
%TF.FileFunction,Copper,L2,Bot*%
%TF.FilePolarity,Positive*%
%FSLAX46Y46*%
G04 Gerber Fmt 4.6, Leading zero omitted, Abs format (unit mm)*
G04 Created by KiCad (PCBNEW 8.0.1) date 2024-06-09 17:00:22*
%MOMM*%
%LPD*%
G01*
G04 APERTURE LIST*
G04 Aperture macros list*
%AMFreePoly0*
4,1,19,0.500000,-0.750000,0.000000,-0.750000,0.000000,-0.744911,-0.071157,-0.744911,-0.207708,-0.704816,-0.327430,-0.627875,-0.420627,-0.520320,-0.479746,-0.390866,-0.500000,-0.250000,-0.500000,0.250000,-0.479746,0.390866,-0.420627,0.520320,-0.327430,0.627875,-0.207708,0.704816,-0.071157,0.744911,0.000000,0.744911,0.000000,0.750000,0.500000,0.750000,0.500000,-0.750000,0.500000,-0.750000,
$1*%
%AMFreePoly1*
4,1,19,0.000000,0.744911,0.071157,0.744911,0.207708,0.704816,0.327430,0.627875,0.420627,0.520320,0.479746,0.390866,0.500000,0.250000,0.500000,-0.250000,0.479746,-0.390866,0.420627,-0.520320,0.327430,-0.627875,0.207708,-0.704816,0.071157,-0.744911,0.000000,-0.744911,0.000000,-0.750000,-0.500000,-0.750000,-0.500000,0.750000,0.000000,0.750000,0.000000,0.744911,0.000000,0.744911,
$1*%
G04 Aperture macros list end*
%TA.AperFunction,ComponentPad*%
%ADD10R,1.000000X1.000000*%
%TD*%
%TA.AperFunction,ComponentPad*%
%ADD11O,1.000000X1.000000*%
%TD*%
%TA.AperFunction,ComponentPad*%
%ADD12O,1.400000X2.100000*%
%TD*%
%TA.AperFunction,ComponentPad*%
%ADD13O,2.100000X1.400000*%
%TD*%
%TA.AperFunction,ComponentPad*%
%ADD14R,1.350000X1.350000*%
%TD*%
%TA.AperFunction,ComponentPad*%
%ADD15C,1.350000*%
%TD*%
%TA.AperFunction,ComponentPad*%
%ADD16R,1.700000X1.700000*%
%TD*%
%TA.AperFunction,ComponentPad*%
%ADD17O,1.700000X1.700000*%
%TD*%
%TA.AperFunction,ComponentPad*%
%ADD18R,1.600000X1.600000*%
%TD*%
%TA.AperFunction,ComponentPad*%
%ADD19C,1.600000*%
%TD*%
%TA.AperFunction,ComponentPad*%
%ADD20O,4.500000X1.800000*%
%TD*%
%TA.AperFunction,SMDPad,CuDef*%
%ADD21FreePoly0,0.000000*%
%TD*%
%TA.AperFunction,SMDPad,CuDef*%
%ADD22FreePoly1,0.000000*%
%TD*%
%TA.AperFunction,SMDPad,CuDef*%
%ADD23FreePoly0,270.000000*%
%TD*%
%TA.AperFunction,SMDPad,CuDef*%
%ADD24FreePoly1,270.000000*%
%TD*%
%TA.AperFunction,ViaPad*%
%ADD25C,0.600000*%
%TD*%
%TA.AperFunction,Conductor*%
%ADD26C,0.750000*%
%TD*%
%TA.AperFunction,Conductor*%
%ADD27C,0.500000*%
%TD*%
%TA.AperFunction,Conductor*%
%ADD28C,1.500000*%
%TD*%
G04 APERTURE END LIST*
D10*
%TO.P,J2,1,Pin_1*%
%TO.N,1*%
X16444999Y20063427D03*
D11*
%TO.P,J2,2,Pin_2*%
%TO.N,2*%
X15174999Y20063427D03*
%TO.P,J2,3,Pin_3*%
%TO.N,3*%
X13904999Y20063427D03*
%TO.P,J2,4,Pin_4*%
%TO.N,4*%
X12634999Y20063427D03*
%TO.P,J2,5,Pin_5*%
%TO.N,+3.3V*%
X11364999Y20063427D03*
%TO.P,J2,6,Pin_6*%
%TO.N,6*%
X10094999Y20063427D03*
%TO.P,J2,7,Pin_7*%
%TO.N,7*%
X8824999Y20063427D03*
%TO.P,J2,8,Pin_8*%
%TO.N,8*%
X7554999Y20063427D03*
%TD*%
D12*
%TO.P,SW1,1,1*%
%TO.N,23*%
X15250000Y-11000000D03*
%TO.P,SW1,2,2*%
%TO.N,Net-(C5-Pad1)*%
X8750000Y-11000000D03*
%TD*%
D10*
%TO.P,J3,1,Pin_1*%
%TO.N,9*%
X2436572Y14945000D03*
D11*
%TO.P,J3,2,Pin_2*%
%TO.N,10*%
X2436572Y13675000D03*
%TO.P,J3,3,Pin_3*%
%TO.N,11*%
X2436572Y12405000D03*
%TO.P,J3,4,Pin_4*%
%TO.N,12*%
X2436572Y11135000D03*
%TO.P,J3,5,Pin_5*%
%TO.N,13*%
X2436572Y9865000D03*
%TO.P,J3,6,Pin_6*%
%TO.N,14*%
X2436572Y8595000D03*
%TO.P,J3,7,Pin_7*%
%TO.N,15*%
X2436572Y7325000D03*
%TO.P,J3,8,Pin_8*%
%TO.N,16*%
X2436572Y6055000D03*
%TD*%
D10*
%TO.P,J4,1,Pin_1*%
%TO.N,17*%
X7555000Y936572D03*
D11*
%TO.P,J4,2,Pin_2*%
%TO.N,18*%
X8825000Y936572D03*
%TO.P,J4,3,Pin_3*%
%TO.N,19*%
X10095000Y936572D03*
%TO.P,J4,4,Pin_4*%
%TO.N,GND*%
X11365000Y936572D03*
%TO.P,J4,5,Pin_5*%
%TO.N,21*%
X12635000Y936572D03*
%TO.P,J4,6,Pin_6*%
%TO.N,22*%
X13905000Y936572D03*
%TO.P,J4,7,Pin_7*%
%TO.N,23*%
X15175000Y936572D03*
%TO.P,J4,8,Pin_8*%
%TO.N,24*%
X16445000Y936572D03*
%TD*%
D13*
%TO.P,SW3,1,1*%
%TO.N,22*%
X4000000Y-7750000D03*
%TO.P,SW3,2,2*%
%TO.N,Net-(C5-Pad1)*%
X4000000Y-14250000D03*
%TD*%
D10*
%TO.P,J5,1,Pin_1*%
%TO.N,25*%
X21563427Y6055000D03*
D11*
%TO.P,J5,2,Pin_2*%
%TO.N,26*%
X21563427Y7325000D03*
%TO.P,J5,3,Pin_3*%
%TO.N,27*%
X21563427Y8595000D03*
%TO.P,J5,4,Pin_4*%
%TO.N,GND*%
X21563427Y9865000D03*
%TO.P,J5,5,Pin_5*%
%TO.N,unconnected-(J5-Pin_5-Pad5)*%
X21563427Y11135000D03*
%TO.P,J5,6,Pin_6*%
%TO.N,GND*%
X21563427Y12405000D03*
%TO.P,J5,7,Pin_7*%
X21563427Y13675000D03*
%TO.P,J5,8,Pin_8*%
X21563427Y14945000D03*
%TD*%
D12*
%TO.P,SW2,1,1*%
%TO.N,25*%
X15250000Y-4000000D03*
%TO.P,SW2,2,2*%
%TO.N,Net-(C5-Pad1)*%
X8750000Y-4000000D03*
%TD*%
D14*
%TO.P,U4,1,RX*%
%TO.N,8*%
X-20500000Y-500000D03*
D15*
%TO.P,U4,2,GND*%
%TO.N,GND*%
X-18500000Y-500000D03*
%TO.P,U4,3,TX*%
%TO.N,9*%
X-20500000Y-2500000D03*
%TO.P,U4,4,BATT*%
%TO.N,Net-(U4-BATT)*%
X-18500000Y-2500000D03*
%TO.P,U4,5,VCC*%
X-20500000Y-4500000D03*
%TO.P,U4,6,NC*%
%TO.N,unconnected-(U4-NC-Pad6)*%
X-18500000Y-4500000D03*
%TO.P,U4,7,NC*%
%TO.N,unconnected-(U4-NC-Pad7)*%
X-20500000Y-6500000D03*
%TO.P,U4,8,NC*%
%TO.N,unconnected-(U4-NC-Pad8)*%
X-18500000Y-6500000D03*
%TD*%
D12*
%TO.P,SW4,1,1*%
%TO.N,19*%
X15250000Y-18000000D03*
%TO.P,SW4,2,2*%
%TO.N,Net-(C5-Pad1)*%
X8750000Y-18000000D03*
%TD*%
D16*
%TO.P,U3,1,GND*%
%TO.N,GND*%
X-3810000Y27500000D03*
D17*
%TO.P,U3,2,VCC*%
%TO.N,+3.3V*%
X-1270000Y27500000D03*
%TO.P,U3,3,SCL*%
%TO.N,14*%
X1270000Y27500000D03*
%TO.P,U3,4,SDA*%
%TO.N,17*%
X3810000Y27500000D03*
%TD*%
D13*
%TO.P,SW5,1,1*%
%TO.N,24*%
X20000000Y-7750000D03*
%TO.P,SW5,2,2*%
%TO.N,Net-(C5-Pad1)*%
X20000000Y-14250000D03*
%TD*%
D16*
%TO.P,J1,1,Pin_1*%
%TO.N,GND*%
X26000000Y7620000D03*
D17*
%TO.P,J1,2,Pin_2*%
%TO.N,8*%
X26000000Y5080000D03*
%TO.P,J1,3,Pin_3*%
%TO.N,2*%
X26000000Y2540000D03*
%TO.P,J1,4,Pin_4*%
%TO.N,9*%
X26000000Y0D03*
%TO.P,J1,5,Pin_5*%
%TO.N,21*%
X26000000Y-2540000D03*
%TO.P,J1,6,Pin_6*%
%TO.N,Net-(J1-Pin_6)*%
X26000000Y-5080000D03*
%TO.P,J1,7,Pin_7*%
%TO.N,unconnected-(J1-Pin_7-Pad7)*%
X26000000Y-7620000D03*
%TD*%
D18*
%TO.P,C4,1*%
%TO.N,+3.3V*%
X-20500000Y9850000D03*
D19*
%TO.P,C4,2*%
%TO.N,GND*%
X-23000000Y9850000D03*
%TD*%
D20*
%TO.P,BT2,1,+*%
%TO.N,Net-(BT2-+)*%
X0Y-22350000D03*
%TO.P,BT2,2,-*%
%TO.N,Net-(BT1-+)*%
X0Y22350000D03*
%TD*%
D21*
%TO.P,M2,1,A*%
%TO.N,Net-(JP3-A)*%
X-3150000Y11500000D03*
D22*
%TO.P,M2,2,B*%
%TO.N,+3.3V*%
X-1850000Y11500000D03*
%TD*%
D23*
%TO.P,VBUS/+3.3V,1,A*%
%TO.N,+3.3V*%
X22912500Y150000D03*
D24*
%TO.P,VBUS/+3.3V,2,B*%
%TO.N,Net-(J1-Pin_6)*%
X22912500Y-1150000D03*
%TD*%
D21*
%TO.P,M3,1,A*%
%TO.N,Net-(JP4-A)*%
X-3150000Y7000000D03*
D22*
%TO.P,M3,2,B*%
%TO.N,+3.3V*%
X-1850000Y7000000D03*
%TD*%
D20*
%TO.P,BT1,1,+*%
%TO.N,Net-(BT1-+)*%
X12000000Y22350000D03*
%TO.P,BT1,2,-*%
%TO.N,GND*%
X12000000Y-22350000D03*
%TD*%
%TO.P,BT3,1,+*%
%TO.N,VCC*%
X-12000000Y22350000D03*
%TO.P,BT3,2,-*%
%TO.N,Net-(BT2-+)*%
X-12000000Y-22350000D03*
%TD*%
D21*
%TO.P,M1,1,A*%
%TO.N,Net-(JP2-A)*%
X-3150000Y16000000D03*
D22*
%TO.P,M1,2,B*%
%TO.N,+3.3V*%
X-1850000Y16000000D03*
%TD*%
D25*
%TO.N,GND*%
X14000000Y11500000D03*
X15000000Y7500000D03*
X10000000Y6500000D03*
X12000000Y5500000D03*
X8000000Y5500000D03*
X8000000Y7500000D03*
X13000000Y11500000D03*
X8000000Y6500000D03*
X9000000Y7500000D03*
X9000000Y6500000D03*
X12000000Y8500000D03*
X17000000Y7500000D03*
X17000000Y6500000D03*
X9000000Y8500000D03*
X9000000Y15500000D03*
X11000000Y10500000D03*
X8000000Y12500000D03*
X9000000Y13500000D03*
X17000000Y8500000D03*
X9000000Y12500000D03*
X11000000Y14500000D03*
X12000000Y10500000D03*
X12000000Y12500000D03*
X11000000Y7500000D03*
X9000000Y10500000D03*
X8000000Y8500000D03*
X16500000Y-1000000D03*
X11000000Y15500000D03*
X12000000Y6500000D03*
X12000000Y13500000D03*
X12000000Y7500000D03*
X12000000Y14500000D03*
X9000000Y9500000D03*
X10000000Y14500000D03*
X10000000Y9500000D03*
X15000000Y6500000D03*
X16000000Y8500000D03*
X14000000Y6500000D03*
X17000000Y11500000D03*
X10000000Y13500000D03*
X8000000Y10500000D03*
X16000000Y9500000D03*
X13000000Y14500000D03*
X9000000Y11500000D03*
X11000000Y5500000D03*
X15000000Y9500000D03*
X11000000Y12500000D03*
X16000000Y6500000D03*
X16000000Y7500000D03*
X11000000Y13500000D03*
X14000000Y9500000D03*
X11000000Y8500000D03*
X10000000Y15500000D03*
X10000000Y11500000D03*
X12000000Y11500000D03*
X13000000Y13500000D03*
X15000000Y8500000D03*
X16000000Y11500000D03*
X8000000Y11500000D03*
X13000000Y12500000D03*
X10000000Y8500000D03*
X9000000Y5500000D03*
X16000000Y10500000D03*
X12000000Y9500000D03*
X14000000Y8500000D03*
X13000000Y15500000D03*
X14000000Y7500000D03*
X10000000Y5500000D03*
X17000000Y9500000D03*
X13000000Y6500000D03*
X11000000Y9500000D03*
X10000000Y10500000D03*
X8000000Y9500000D03*
X15000000Y10500000D03*
X8000000Y13500000D03*
X12000000Y15500000D03*
X14000000Y10500000D03*
X10000000Y12500000D03*
X13000000Y8500000D03*
X13000000Y7500000D03*
X9000000Y14500000D03*
X11000000Y6500000D03*
X17000000Y10500000D03*
X13000000Y10500000D03*
X10000000Y7500000D03*
X13000000Y9500000D03*
X11000000Y11500000D03*
X15000000Y11500000D03*
%TO.N,+3.3V*%
X8500000Y24587500D03*
X-5000000Y3750000D03*
%TO.N,8*%
X24500000Y1000000D03*
X7554999Y15142499D03*
X-5000000Y625000D03*
%TO.N,9*%
X-6000000Y1375000D03*
%TO.N,21*%
X18392867Y1392870D03*
X1500000Y500000D03*
X22550000Y-4000000D03*
%TO.N,Net-(JP2-A)*%
X-4500000Y16000000D03*
%TO.N,Net-(JP3-A)*%
X-4500000Y11500000D03*
%TO.N,Net-(JP4-A)*%
X-4500000Y7000000D03*
%TO.N,26*%
X3412500Y3500000D03*
%TO.N,27*%
X4912500Y3500000D03*
%TO.N,12*%
X736572Y11134999D03*
%TD*%
D26*
%TO.N,+3.3V*%
X-5000000Y3750000D02*
X-14400000Y3750000D01*
X20158426Y18500000D02*
X12460001Y18500000D01*
X-1850000Y16000000D02*
X-1850000Y11500000D01*
X-2943582Y2250000D02*
X-12900000Y2250000D01*
X-12900000Y2250000D02*
X-20500000Y9850000D01*
X11364999Y20063427D02*
X11364999Y19356321D01*
X-1850000Y3343582D02*
X-2943582Y2250000D01*
X14070926Y24587500D02*
X20158426Y18500000D01*
X12460001Y18500000D02*
X11364999Y19595002D01*
X-1850000Y7000000D02*
X-1850000Y3343582D01*
X22912500Y15745926D02*
X20158426Y18500000D01*
X-1850000Y11500000D02*
X-1850000Y7000000D01*
X1642500Y24587500D02*
X-1270000Y27500000D01*
X8500000Y24587500D02*
X14070926Y24587500D01*
X8500000Y24587500D02*
X1642500Y24587500D01*
X11364999Y19595002D02*
X11364999Y20063427D01*
X22912500Y150000D02*
X22912500Y15745926D01*
D27*
%TO.N,8*%
X3386572Y4886572D02*
X3386572Y10974072D01*
X24500000Y3580000D02*
X26000000Y5080000D01*
X24500000Y1000000D02*
X24500000Y3580000D01*
X3386572Y10974072D02*
X7554999Y15142499D01*
X-5000000Y625000D02*
X-875000Y625000D01*
X-19375000Y625000D02*
X-20500000Y-500000D01*
X-875000Y625000D02*
X3386572Y4886572D01*
X-5000000Y625000D02*
X-19375000Y625000D01*
%TO.N,9*%
X-6000000Y1375000D02*
X-2651856Y1375000D01*
X-13428Y13486572D02*
X1445000Y14945000D01*
X-13428Y4013428D02*
X-13428Y13486572D01*
X-21375000Y-1625000D02*
X-20500000Y-2500000D01*
X1445000Y14945000D02*
X2436572Y14945000D01*
X-21625000Y625000D02*
X-21625000Y-1625000D01*
X-20265991Y1325000D02*
X-20965991Y625000D01*
X-20965991Y625000D02*
X-21625000Y625000D01*
X-2651856Y1375000D02*
X-13428Y4013428D01*
X-21625000Y-1625000D02*
X-21375000Y-1625000D01*
X-6050000Y1325000D02*
X-20265991Y1325000D01*
X-6000000Y1375000D02*
X-6050000Y1325000D01*
%TO.N,21*%
X18392867Y1392870D02*
X18392867Y1360407D01*
X11905534Y-500000D02*
X2500000Y-500000D01*
X22550000Y-2796726D02*
X22550000Y-4000000D01*
X12635000Y936572D02*
X12635000Y229466D01*
X2500000Y-500000D02*
X1500000Y500000D01*
X12635000Y229466D02*
X11905534Y-500000D01*
X18392867Y1360407D02*
X22550000Y-2796726D01*
%TO.N,Net-(JP2-A)*%
X-4500000Y16000000D02*
X-3150000Y16000000D01*
%TO.N,Net-(JP3-A)*%
X-4500000Y11500000D02*
X-3150000Y11500000D01*
%TO.N,Net-(JP4-A)*%
X-4500000Y7000000D02*
X-3150000Y7000000D01*
%TO.N,24*%
X20000000Y-7750000D02*
X20000000Y-2618428D01*
X20000000Y-2618428D02*
X16445000Y936572D01*
%TO.N,22*%
X4000000Y-7750000D02*
X7400610Y-7750000D01*
X7400610Y-7750000D02*
X13905000Y-1245610D01*
X13905000Y-1245610D02*
X13905000Y936572D01*
%TO.N,26*%
X16162500Y2750000D02*
X20737500Y7325000D01*
X4162500Y2750000D02*
X16162500Y2750000D01*
X20737500Y7325000D02*
X21563427Y7325000D01*
X3412500Y3500000D02*
X4162500Y2750000D01*
%TO.N,27*%
X20919924Y8025000D02*
X20447550Y8025000D01*
X21243427Y8275000D02*
X21169924Y8275000D01*
X21169924Y8275000D02*
X20919924Y8025000D01*
X20447550Y8025000D02*
X15922550Y3500000D01*
X15922550Y3500000D02*
X4912500Y3500000D01*
X21563427Y8595000D02*
X21243427Y8275000D01*
%TO.N,19*%
X10095000Y1010075D02*
X10971497Y1886572D01*
X21800000Y-3074925D02*
X21800000Y-10049390D01*
X15250000Y-16599390D02*
X15250000Y-18000000D01*
X16838503Y1886572D02*
X21800000Y-3074925D01*
X10095000Y936572D02*
X10095000Y1010075D01*
X10971497Y1886572D02*
X16838503Y1886572D01*
X21800000Y-10049390D02*
X15250000Y-16599390D01*
%TO.N,23*%
X15250000Y-11000000D02*
X13800000Y-9550000D01*
X15175000Y-1674390D02*
X15175000Y936572D01*
X13800000Y-9550000D02*
X13800000Y-3049390D01*
X13800000Y-3049390D02*
X15175000Y-1674390D01*
%TO.N,12*%
X2436572Y11135000D02*
X736572Y11134999D01*
%TO.N,Net-(C5-Pad1)*%
X4000000Y-14250000D02*
X2200000Y-12450000D01*
X2200000Y-7149390D02*
X5349390Y-4000000D01*
X5349390Y-4000000D02*
X8750000Y-4000000D01*
X2200000Y-12450000D02*
X2200000Y-7149390D01*
D28*
%TO.N,Net-(BT1-+)*%
X0Y22350000D02*
X12000000Y22350000D01*
D26*
%TO.N,Net-(J1-Pin_6)*%
X22912500Y-1150000D02*
X22912500Y-1992500D01*
X22912500Y-1992500D02*
X26000000Y-5080000D01*
%TD*%
%TA.AperFunction,Conductor*%
%TO.N,GND*%
G36*
X11579534Y1116387D02*
G01*
X11625289Y1063583D01*
X11635898Y999918D01*
X11629659Y936571D01*
X11648975Y740442D01*
X11706188Y551839D01*
X11728955Y509246D01*
X11743197Y440843D01*
X11718197Y375600D01*
X11707278Y363112D01*
X11630985Y286819D01*
X11569662Y253334D01*
X11543304Y250500D01*
X11069624Y250500D01*
X11002585Y270185D01*
X10956830Y322989D01*
X10946886Y392147D01*
X10960266Y432953D01*
X11023811Y551838D01*
X11023811Y551841D01*
X11023814Y551845D01*
X11081024Y740440D01*
X11097901Y911804D01*
X11124062Y976590D01*
X11133623Y987330D01*
X11246046Y1099753D01*
X11307369Y1133238D01*
X11333727Y1136072D01*
X11512495Y1136072D01*
X11579534Y1116387D01*
G37*
%TD.AperFunction*%
%TA.AperFunction,Conductor*%
G36*
X1075105Y29479860D02*
G01*
X1079631Y29479695D01*
X2151071Y29420927D01*
X2155589Y29420596D01*
X3224130Y29322739D01*
X3228632Y29322244D01*
X4292929Y29185421D01*
X4297410Y29184761D01*
X5355943Y29009169D01*
X5360397Y29008347D01*
X6411866Y28794201D01*
X6416287Y28793216D01*
X7459209Y28540817D01*
X7463592Y28539671D01*
X8496603Y28249350D01*
X8500940Y28248045D01*
X9522641Y27920196D01*
X9526928Y27918734D01*
X10535997Y27553780D01*
X10540228Y27552162D01*
X11535312Y27150592D01*
X11539480Y27148820D01*
X12519181Y26711198D01*
X12523282Y26709276D01*
X13486376Y26236152D01*
X13490405Y26234081D01*
X14435589Y25726092D01*
X14439539Y25723875D01*
X15365537Y25181706D01*
X15369403Y25179346D01*
X16274950Y24603740D01*
X16278728Y24601241D01*
X17162700Y23992911D01*
X17166383Y23990275D01*
X18027496Y23350105D01*
X18031081Y23347337D01*
X18868254Y22676132D01*
X18871736Y22673235D01*
X19683868Y21971877D01*
X19687241Y21968854D01*
X20473182Y21238335D01*
X20476443Y21235191D01*
X21235191Y20476443D01*
X21238335Y20473182D01*
X21968854Y19687241D01*
X21971877Y19683868D01*
X22673235Y18871736D01*
X22676132Y18868254D01*
X23347337Y18031081D01*
X23350105Y18027496D01*
X23990275Y17166383D01*
X23992911Y17162700D01*
X24601241Y16278728D01*
X24603740Y16274950D01*
X25179346Y15369403D01*
X25181706Y15365537D01*
X25723875Y14439539D01*
X25726092Y14435589D01*
X26234081Y13490405D01*
X26236152Y13486376D01*
X26709276Y12523282D01*
X26711198Y12519181D01*
X27148820Y11539480D01*
X27150592Y11535312D01*
X27552162Y10540228D01*
X27553780Y10535997D01*
X27918734Y9526928D01*
X27920196Y9522641D01*
X28248045Y8500940D01*
X28249350Y8496603D01*
X28539671Y7463592D01*
X28540817Y7459209D01*
X28793216Y6416287D01*
X28794201Y6411866D01*
X29008347Y5360397D01*
X29009169Y5355943D01*
X29184761Y4297410D01*
X29185421Y4292929D01*
X29322244Y3228632D01*
X29322739Y3224130D01*
X29420596Y2155589D01*
X29420927Y2151071D01*
X29479695Y1079631D01*
X29479860Y1075105D01*
X29499458Y2265D01*
X29499458Y-2265D01*
X29479860Y-1075105D01*
X29479695Y-1079631D01*
X29420927Y-2151071D01*
X29420596Y-2155589D01*
X29322739Y-3224130D01*
X29322244Y-3228632D01*
X29185421Y-4292929D01*
X29184761Y-4297410D01*
X29009169Y-5355943D01*
X29008347Y-5360397D01*
X28794201Y-6411866D01*
X28793216Y-6416287D01*
X28540817Y-7459209D01*
X28539671Y-7463592D01*
X28249350Y-8496603D01*
X28248045Y-8500940D01*
X27920196Y-9522641D01*
X27918734Y-9526928D01*
X27553780Y-10535997D01*
X27552162Y-10540228D01*
X27150592Y-11535312D01*
X27148820Y-11539480D01*
X26711198Y-12519181D01*
X26709276Y-12523282D01*
X26236152Y-13486376D01*
X26234081Y-13490405D01*
X25726092Y-14435589D01*
X25723875Y-14439539D01*
X25181706Y-15365537D01*
X25179346Y-15369403D01*
X24603740Y-16274950D01*
X24601241Y-16278728D01*
X23992911Y-17162700D01*
X23990275Y-17166383D01*
X23350105Y-18027496D01*
X23347337Y-18031081D01*
X22676132Y-18868254D01*
X22673235Y-18871736D01*
X21971877Y-19683868D01*
X21968854Y-19687241D01*
X21238335Y-20473182D01*
X21235191Y-20476443D01*
X20476443Y-21235191D01*
X20473182Y-21238335D01*
X19687241Y-21968854D01*
X19683868Y-21971877D01*
X18871736Y-22673235D01*
X18868254Y-22676132D01*
X18031081Y-23347337D01*
X18027496Y-23350105D01*
X17166383Y-23990275D01*
X17162700Y-23992911D01*
X16278728Y-24601241D01*
X16274950Y-24603740D01*
X15369403Y-25179346D01*
X15365537Y-25181706D01*
X14439539Y-25723875D01*
X14435589Y-25726092D01*
X13490405Y-26234081D01*
X13486376Y-26236152D01*
X12523282Y-26709276D01*
X12519181Y-26711198D01*
X11539480Y-27148820D01*
X11535312Y-27150592D01*
X10540228Y-27552162D01*
X10535997Y-27553780D01*
X9526928Y-27918734D01*
X9522641Y-27920196D01*
X8500940Y-28248045D01*
X8496603Y-28249350D01*
X7463592Y-28539671D01*
X7459209Y-28540817D01*
X6416287Y-28793216D01*
X6411866Y-28794201D01*
X5360397Y-29008347D01*
X5355943Y-29009169D01*
X4297410Y-29184761D01*
X4292929Y-29185421D01*
X3228632Y-29322244D01*
X3224130Y-29322739D01*
X2155589Y-29420596D01*
X2151071Y-29420927D01*
X1079631Y-29479695D01*
X1075105Y-29479860D01*
X2265Y-29499458D01*
X-2265Y-29499458D01*
X-1075105Y-29479860D01*
X-1079631Y-29479695D01*
X-2151071Y-29420927D01*
X-2155589Y-29420596D01*
X-3224130Y-29322739D01*
X-3228632Y-29322244D01*
X-4292929Y-29185421D01*
X-4297410Y-29184761D01*
X-5355943Y-29009169D01*
X-5360397Y-29008347D01*
X-6411866Y-28794201D01*
X-6416287Y-28793216D01*
X-7459209Y-28540817D01*
X-7463592Y-28539671D01*
X-8496603Y-28249350D01*
X-8500940Y-28248045D01*
X-9522641Y-27920196D01*
X-9526928Y-27918734D01*
X-10535997Y-27553780D01*
X-10540228Y-27552162D01*
X-11535312Y-27150592D01*
X-11539480Y-27148820D01*
X-11601116Y-27121288D01*
X-1850498Y-27121288D01*
X-1818836Y-27361789D01*
X-1756052Y-27596100D01*
X-1663222Y-27820212D01*
X-1541934Y-28030289D01*
X-1394263Y-28222738D01*
X-1222736Y-28394265D01*
X-1030287Y-28541936D01*
X-820210Y-28663224D01*
X-596098Y-28756054D01*
X-361787Y-28818838D01*
X-169386Y-28844167D01*
X-121287Y-28850500D01*
X-121286Y-28850500D01*
X121291Y-28850500D01*
X169390Y-28844167D01*
X361791Y-28818838D01*
X596102Y-28756054D01*
X820214Y-28663224D01*
X1030291Y-28541936D01*
X1222740Y-28394265D01*
X1394267Y-28222738D01*
X1541938Y-28030289D01*
X1663226Y-27820212D01*
X1756056Y-27596100D01*
X1818840Y-27361789D01*
X1850502Y-27121288D01*
X1850502Y-26878712D01*
X1818840Y-26638211D01*
X1756056Y-26403900D01*
X1663226Y-26179788D01*
X1541938Y-25969711D01*
X1394267Y-25777262D01*
X1394262Y-25777256D01*
X1222745Y-25605739D01*
X1222738Y-25605733D01*
X1030295Y-25458067D01*
X1030294Y-25458066D01*
X1030291Y-25458064D01*
X820214Y-25336776D01*
X820207Y-25336773D01*
X596106Y-25243947D01*
X361787Y-25181161D01*
X121291Y-25149500D01*
X121290Y-25149500D01*
X-121286Y-25149500D01*
X-121287Y-25149500D01*
X-361783Y-25181161D01*
X-596102Y-25243947D01*
X-820203Y-25336773D01*
X-820210Y-25336776D01*
X-1030287Y-25458064D01*
X-1030290Y-25458066D01*
X-1030291Y-25458067D01*
X-1222734Y-25605733D01*
X-1222741Y-25605739D01*
X-1394258Y-25777256D01*
X-1394263Y-25777262D01*
X-1541934Y-25969711D01*
X-1663222Y-26179788D01*
X-1756052Y-26403900D01*
X-1818836Y-26638211D01*
X-1850498Y-26878712D01*
X-1850498Y-27121288D01*
X-11601116Y-27121288D01*
X-12519181Y-26711198D01*
X-12523282Y-26709276D01*
X-13486376Y-26236152D01*
X-13490405Y-26234081D01*
X-14435589Y-25726092D01*
X-14439539Y-25723875D01*
X-15365537Y-25181706D01*
X-15369403Y-25179346D01*
X-16274950Y-24603740D01*
X-16278728Y-24601241D01*
X-17162700Y-23992911D01*
X-17166383Y-23990275D01*
X-18027496Y-23350105D01*
X-18031081Y-23347337D01*
X-18868254Y-22676132D01*
X-18871736Y-22673235D01*
X-19118393Y-22460222D01*
X-14750500Y-22460222D01*
X-14716015Y-22677951D01*
X-14647895Y-22887606D01*
X-14547815Y-23084022D01*
X-14418242Y-23262365D01*
X-14262365Y-23418242D01*
X-14084022Y-23547815D01*
X-13887606Y-23647895D01*
X-13677951Y-23716015D01*
X-13460222Y-23750500D01*
X-13460221Y-23750500D01*
X-10539779Y-23750500D01*
X-10539778Y-23750500D01*
X-10322049Y-23716015D01*
X-10217221Y-23681955D01*
X-10112396Y-23647896D01*
X-10112393Y-23647895D01*
X-10044375Y-23613237D01*
X-9915978Y-23547815D01*
X-9893192Y-23531260D01*
X-9737641Y-23418247D01*
X-9737636Y-23418243D01*
X-9581756Y-23262363D01*
X-9581752Y-23262358D01*
X-9452187Y-23084025D01*
X-9352104Y-22887606D01*
X-9352103Y-22887603D01*
X-9283985Y-22677952D01*
X-9249500Y-22460222D01*
X-2750500Y-22460222D01*
X-2716015Y-22677951D01*
X-2647895Y-22887606D01*
X-2547815Y-23084022D01*
X-2418242Y-23262365D01*
X-2262365Y-23418242D01*
X-2084022Y-23547815D01*
X-1887606Y-23647895D01*
X-1677951Y-23716015D01*
X-1460222Y-23750500D01*
X-1460221Y-23750500D01*
X1460221Y-23750500D01*
X1460222Y-23750500D01*
X1677951Y-23716015D01*
X1887606Y-23647895D01*
X2084022Y-23547815D01*
X2262365Y-23418242D01*
X2418242Y-23262365D01*
X2547815Y-23084022D01*
X2647895Y-22887606D01*
X2716015Y-22677951D01*
X2750500Y-22460222D01*
X2750500Y-22239778D01*
X2716015Y-22022049D01*
X2647895Y-21812394D01*
X2647895Y-21812393D01*
X2613237Y-21744375D01*
X2547815Y-21615978D01*
X2531260Y-21593192D01*
X2418247Y-21437641D01*
X2418243Y-21437636D01*
X2262363Y-21281756D01*
X2262358Y-21281752D01*
X2084025Y-21152187D01*
X2084024Y-21152186D01*
X2084022Y-21152185D01*
X2021096Y-21120122D01*
X1887606Y-21052104D01*
X1887603Y-21052103D01*
X1677952Y-20983985D01*
X1569086Y-20966742D01*
X1460222Y-20949500D01*
X-1460222Y-20949500D01*
X-1569086Y-20966742D01*
X-1677952Y-20983985D01*
X-1887603Y-21052103D01*
X-1887606Y-21052104D01*
X-2021096Y-21120122D01*
X-2084022Y-21152185D01*
X-2084024Y-21152186D01*
X-2084025Y-21152187D01*
X-2262358Y-21281752D01*
X-2262363Y-21281756D01*
X-2418243Y-21437636D01*
X-2418247Y-21437641D01*
X-2531260Y-21593192D01*
X-2547815Y-21615978D01*
X-2613237Y-21744375D01*
X-2647895Y-21812393D01*
X-2647895Y-21812394D01*
X-2716015Y-22022049D01*
X-2750500Y-22239778D01*
X-2750500Y-22460222D01*
X-9249500Y-22460222D01*
X-9249500Y-22460221D01*
X-9249500Y-22239778D01*
X-9283985Y-22022047D01*
X-9352103Y-21812396D01*
X-9352104Y-21812393D01*
X-9452187Y-21615974D01*
X-9581752Y-21437641D01*
X-9581756Y-21437636D01*
X-9737636Y-21281756D01*
X-9737641Y-21281752D01*
X-9915974Y-21152187D01*
X-10112393Y-21052104D01*
X-10112396Y-21052103D01*
X-10322047Y-20983985D01*
X-10467201Y-20960995D01*
X-10539778Y-20949500D01*
X-13460222Y-20949500D01*
X-13569086Y-20966742D01*
X-13677952Y-20983985D01*
X-13887603Y-21052103D01*
X-13887606Y-21052104D01*
X-14021096Y-21120122D01*
X-14084022Y-21152185D01*
X-14084024Y-21152186D01*
X-14084025Y-21152187D01*
X-14262358Y-21281752D01*
X-14262363Y-21281756D01*
X-14418243Y-21437636D01*
X-14418247Y-21437641D01*
X-14531260Y-21593192D01*
X-14547815Y-21615978D01*
X-14613237Y-21744375D01*
X-14647895Y-21812393D01*
X-14647895Y-21812394D01*
X-14716015Y-22022049D01*
X-14750500Y-22239778D01*
X-14750500Y-22460222D01*
X-19118393Y-22460222D01*
X-19683868Y-21971877D01*
X-19687241Y-21968854D01*
X-20473182Y-21238335D01*
X-20476443Y-21235191D01*
X-21235191Y-20476443D01*
X-21238335Y-20473182D01*
X-21968854Y-19687241D01*
X-21971877Y-19683868D01*
X-22673235Y-18871736D01*
X-22676132Y-18868254D01*
X-23015889Y-18444486D01*
X7549500Y-18444486D01*
X7579059Y-18631118D01*
X7637454Y-18810836D01*
X7723240Y-18979199D01*
X7834310Y-19132073D01*
X7967927Y-19265690D01*
X8120801Y-19376760D01*
X8200347Y-19417290D01*
X8289163Y-19462545D01*
X8289165Y-19462545D01*
X8289168Y-19462547D01*
X8385497Y-19493846D01*
X8468881Y-19520940D01*
X8655514Y-19550500D01*
X8655519Y-19550500D01*
X8844486Y-19550500D01*
X9031118Y-19520940D01*
X9210832Y-19462547D01*
X9379199Y-19376760D01*
X9532073Y-19265690D01*
X9665690Y-19132073D01*
X9776760Y-18979199D01*
X9862547Y-18810832D01*
X9920940Y-18631118D01*
X9950500Y-18444486D01*
X9950500Y-17555513D01*
X9920940Y-17368881D01*
X9862545Y-17189163D01*
X9776759Y-17020800D01*
X9665690Y-16867927D01*
X9532073Y-16734310D01*
X9379199Y-16623240D01*
X9210836Y-16537454D01*
X9031118Y-16479059D01*
X8844486Y-16449500D01*
X8844481Y-16449500D01*
X8655519Y-16449500D01*
X8655514Y-16449500D01*
X8468881Y-16479059D01*
X8289163Y-16537454D01*
X8120800Y-16623240D01*
X8082078Y-16651374D01*
X7967927Y-16734310D01*
X7967925Y-16734312D01*
X7967924Y-16734312D01*
X7834312Y-16867924D01*
X7834312Y-16867925D01*
X7834310Y-16867927D01*
X7823761Y-16882447D01*
X7723240Y-17020800D01*
X7637454Y-17189163D01*
X7579059Y-17368881D01*
X7549500Y-17555513D01*
X7549500Y-18444486D01*
X-23015889Y-18444486D01*
X-23347337Y-18031081D01*
X-23350105Y-18027496D01*
X-23990275Y-17166383D01*
X-23992911Y-17162700D01*
X-24601241Y-16278728D01*
X-24603740Y-16274950D01*
X-25179346Y-15369403D01*
X-25181706Y-15365537D01*
X-25723875Y-14439539D01*
X-25726092Y-14435589D01*
X-26234081Y-13490405D01*
X-26236152Y-13486376D01*
X-26709276Y-12523282D01*
X-26711198Y-12519181D01*
X-27148820Y-11539480D01*
X-27150592Y-11535312D01*
X-27552162Y-10540228D01*
X-27553780Y-10535997D01*
X-27918734Y-9526928D01*
X-27920196Y-9522641D01*
X-28248045Y-8500940D01*
X-28249350Y-8496603D01*
X-28539671Y-7463592D01*
X-28540817Y-7459209D01*
X-28793216Y-6416287D01*
X-28794201Y-6411866D01*
X-29008347Y-5360397D01*
X-29009169Y-5355943D01*
X-29184761Y-4297410D01*
X-29185421Y-4292929D01*
X-29322244Y-3228632D01*
X-29322739Y-3224130D01*
X-29420596Y-2155589D01*
X-29420927Y-2151071D01*
X-29445727Y-1698920D01*
X-22375500Y-1698920D01*
X-22365675Y-1748311D01*
X-22346658Y-1843913D01*
X-22290084Y-1980495D01*
X-22207951Y-2103416D01*
X-22103416Y-2207951D01*
X-21980495Y-2290084D01*
X-21843913Y-2346658D01*
X-21779127Y-2359545D01*
X-21717220Y-2391928D01*
X-21682645Y-2452643D01*
X-21679850Y-2492608D01*
X-21680536Y-2500000D01*
X-21660435Y-2716923D01*
X-21600817Y-2926459D01*
X-21503712Y-3121472D01*
X-21372427Y-3295322D01*
X-21248423Y-3408365D01*
X-21212145Y-3468073D01*
X-21213905Y-3537921D01*
X-21248423Y-3591634D01*
X-21372427Y-3704678D01*
X-21503712Y-3878528D01*
X-21600817Y-4073541D01*
X-21660435Y-4283077D01*
X-21680536Y-4500000D01*
X-21660435Y-4716923D01*
X-21600817Y-4926459D01*
X-21503712Y-5121472D01*
X-21372427Y-5295322D01*
X-21248423Y-5408365D01*
X-21212145Y-5468073D01*
X-21213905Y-5537921D01*
X-21248423Y-5591634D01*
X-21372427Y-5704678D01*
X-21503712Y-5878528D01*
X-21600817Y-6073541D01*
X-21660435Y-6283077D01*
X-21680536Y-6500000D01*
X-21660435Y-6716923D01*
X-21600817Y-6926459D01*
X-21503712Y-7121472D01*
X-21372427Y-7295322D01*
X-21211432Y-7442088D01*
X-21026210Y-7556772D01*
X-20823069Y-7635470D01*
X-20608926Y-7675500D01*
X-20608924Y-7675500D01*
X-20391076Y-7675500D01*
X-20391074Y-7675500D01*
X-20176931Y-7635470D01*
X-20002159Y-7567762D01*
X-19973792Y-7556773D01*
X-19973786Y-7556770D01*
X-19788576Y-7442093D01*
X-19788575Y-7442092D01*
X-19788568Y-7442088D01*
X-19627573Y-7295322D01*
X-19598952Y-7257422D01*
X-19542847Y-7215787D01*
X-19473135Y-7211094D01*
X-19411952Y-7244836D01*
X-19401053Y-7257414D01*
X-19372427Y-7295322D01*
X-19211432Y-7442088D01*
X-19026210Y-7556772D01*
X-18823069Y-7635470D01*
X-18608926Y-7675500D01*
X-18608924Y-7675500D01*
X-18391076Y-7675500D01*
X-18391074Y-7675500D01*
X-18176931Y-7635470D01*
X-18002159Y-7567762D01*
X-17973792Y-7556773D01*
X-17973786Y-7556770D01*
X-17788576Y-7442093D01*
X-17788575Y-7442092D01*
X-17788568Y-7442088D01*
X-17627573Y-7295322D01*
X-17496288Y-7121472D01*
X-17425751Y-6979815D01*
X-17399184Y-6926462D01*
X-17372965Y-6834312D01*
X-17339565Y-6716923D01*
X-17339564Y-6716920D01*
X-17339564Y-6716918D01*
X-17319464Y-6500000D01*
X-17319464Y-6499999D01*
X-17339564Y-6283081D01*
X-17399184Y-6073537D01*
X-17496288Y-5878527D01*
X-17627574Y-5704675D01*
X-17751572Y-5591637D01*
X-17787854Y-5531926D01*
X-17786093Y-5462078D01*
X-17751572Y-5408363D01*
X-17627574Y-5295324D01*
X-17496288Y-5121472D01*
X-17399184Y-4926462D01*
X-17399183Y-4926459D01*
X-17339565Y-4716923D01*
X-17339564Y-4716920D01*
X-17339564Y-4716918D01*
X-17319464Y-4500000D01*
X-17319464Y-4499999D01*
X-17339564Y-4283081D01*
X-17399184Y-4073537D01*
X-17496288Y-3878527D01*
X-17627574Y-3704675D01*
X-17751572Y-3591637D01*
X-17787854Y-3531926D01*
X-17786093Y-3462078D01*
X-17751572Y-3408363D01*
X-17627574Y-3295324D01*
X-17496288Y-3121472D01*
X-17399184Y-2926462D01*
X-17382529Y-2867925D01*
X-17339565Y-2716923D01*
X-17339564Y-2716920D01*
X-17339564Y-2716918D01*
X-17319464Y-2500000D01*
X-17319464Y-2499999D01*
X-17339564Y-2283081D01*
X-17399184Y-2073537D01*
X-17496288Y-1878527D01*
X-17627574Y-1704676D01*
X-17788566Y-1557913D01*
X-17788576Y-1557906D01*
X-17973786Y-1443229D01*
X-17973792Y-1443226D01*
X-18098235Y-1395017D01*
X-18176931Y-1364530D01*
X-18391074Y-1324500D01*
X-18608926Y-1324500D01*
X-18823069Y-1364530D01*
X-18920670Y-1402341D01*
X-19026207Y-1443226D01*
X-19026210Y-1443228D01*
X-19026211Y-1443229D01*
X-19026213Y-1443230D01*
X-19192268Y-1546045D01*
X-19259629Y-1564600D01*
X-19326328Y-1543792D01*
X-19371189Y-1490227D01*
X-19379969Y-1420911D01*
X-19373727Y-1397285D01*
X-19330908Y-1282482D01*
X-19324501Y-1222883D01*
X-19324500Y-1222864D01*
X-19324500Y-437229D01*
X-19304815Y-370190D01*
X-19288184Y-349552D01*
X-19100451Y-161818D01*
X-19039129Y-128334D01*
X-19012771Y-125500D01*
X-5299972Y-125500D01*
X-5259017Y-132457D01*
X-5179255Y-160368D01*
X-5179252Y-160368D01*
X-5179249Y-160369D01*
X-5000004Y-180565D01*
X-5000000Y-180565D01*
X-4999996Y-180565D01*
X-4820750Y-160369D01*
X-4820745Y-160368D01*
X-4740983Y-132458D01*
X-4700028Y-125500D01*
X-801079Y-125500D01*
X-656092Y-96659D01*
X-656091Y-96658D01*
X-656087Y-96658D01*
X-563480Y-58299D01*
X-519507Y-40085D01*
X-519506Y-40084D01*
X-519505Y-40084D01*
X-443721Y10553D01*
X-435881Y15790D01*
X-396586Y42045D01*
X-396584Y42047D01*
X610264Y1048896D01*
X671587Y1082381D01*
X741279Y1077397D01*
X797212Y1035525D01*
X821629Y970061D01*
X806777Y901788D01*
X802939Y895243D01*
X774211Y849523D01*
X714631Y679254D01*
X714630Y679249D01*
X694435Y500003D01*
X694435Y499996D01*
X714630Y320750D01*
X714631Y320745D01*
X774211Y150476D01*
X842344Y42045D01*
X870184Y-2262D01*
X997738Y-129816D01*
X1150478Y-225789D01*
X1150483Y-225792D01*
X1156753Y-228812D01*
X1155870Y-230643D01*
X1191940Y-253308D01*
X2021585Y-1082952D01*
X2021588Y-1082955D01*
X2038122Y-1094001D01*
X2049073Y-1101318D01*
X2049076Y-1101322D01*
X2049077Y-1101321D01*
X2144505Y-1165084D01*
X2166112Y-1174033D01*
X2166114Y-1174035D01*
X2166115Y-1174035D01*
X2281088Y-1221659D01*
X2397241Y-1244763D01*
X2416468Y-1248587D01*
X2426081Y-1250500D01*
X2426082Y-1250500D01*
X11979454Y-1250500D01*
X12117690Y-1223002D01*
X12124447Y-1221658D01*
X12261029Y-1165084D01*
X12332992Y-1117000D01*
X12383950Y-1082952D01*
X12942819Y-524083D01*
X13004142Y-490598D01*
X13073834Y-495582D01*
X13129767Y-537454D01*
X13154184Y-602918D01*
X13154500Y-611764D01*
X13154500Y-883380D01*
X13134815Y-950419D01*
X13118181Y-971061D01*
X10162181Y-3927061D01*
X10100858Y-3960546D01*
X10031166Y-3955562D01*
X9975233Y-3913690D01*
X9950816Y-3848226D01*
X9950500Y-3839380D01*
X9950500Y-3555513D01*
X9920940Y-3368881D01*
X9876656Y-3232591D01*
X9862547Y-3189168D01*
X9862545Y-3189165D01*
X9862545Y-3189163D01*
X9776759Y-3020800D01*
X9764308Y-3003663D01*
X9665690Y-2867927D01*
X9532073Y-2734310D01*
X9379199Y-2623240D01*
X9210836Y-2537454D01*
X9031118Y-2479059D01*
X8844486Y-2449500D01*
X8844481Y-2449500D01*
X8655519Y-2449500D01*
X8655514Y-2449500D01*
X8468881Y-2479059D01*
X8289163Y-2537454D01*
X8120800Y-2623240D01*
X8033579Y-2686610D01*
X7967927Y-2734310D01*
X7967925Y-2734312D01*
X7967924Y-2734312D01*
X7834312Y-2867924D01*
X7834312Y-2867925D01*
X7834310Y-2867927D01*
X7816111Y-2892976D01*
X7723240Y-3020800D01*
X7641210Y-3181795D01*
X7593236Y-3232591D01*
X7530725Y-3249500D01*
X5275470Y-3249500D01*
X5130482Y-3278340D01*
X5130472Y-3278343D01*
X4993898Y-3334913D01*
X4947533Y-3365894D01*
X4947532Y-3365893D01*
X4870975Y-3417046D01*
X4870968Y-3417052D01*
X1617047Y-6670974D01*
X1617045Y-6670976D01*
X1586349Y-6716920D01*
X1586347Y-6716923D01*
X1534919Y-6793889D01*
X1534912Y-6793901D01*
X1478343Y-6930472D01*
X1478340Y-6930482D01*
X1449500Y-7075469D01*
X1449500Y-7075472D01*
X1449500Y-12523918D01*
X1449500Y-12523920D01*
X1449499Y-12523920D01*
X1478340Y-12668907D01*
X1478343Y-12668917D01*
X1534914Y-12805492D01*
X1567812Y-12854727D01*
X1567813Y-12854730D01*
X1617046Y-12928414D01*
X1617052Y-12928421D01*
X2469091Y-13780459D01*
X2502576Y-13841782D01*
X2499342Y-13906456D01*
X2479059Y-13968882D01*
X2449500Y-14155513D01*
X2449500Y-14344486D01*
X2479059Y-14531118D01*
X2537454Y-14710836D01*
X2623240Y-14879199D01*
X2734310Y-15032073D01*
X2867927Y-15165690D01*
X3020801Y-15276760D01*
X3100347Y-15317290D01*
X3189163Y-15362545D01*
X3189165Y-15362545D01*
X3189168Y-15362547D01*
X3285497Y-15393846D01*
X3368881Y-15420940D01*
X3555514Y-15450500D01*
X3555519Y-15450500D01*
X4444486Y-15450500D01*
X4631118Y-15420940D01*
X4810832Y-15362547D01*
X4979199Y-15276760D01*
X5132073Y-15165690D01*
X5265690Y-15032073D01*
X5376760Y-14879199D01*
X5462547Y-14710832D01*
X5520940Y-14531118D01*
X5550500Y-14344486D01*
X5550500Y-14155513D01*
X5520940Y-13968881D01*
X5462545Y-13789163D01*
X5376759Y-13620800D01*
X5265690Y-13467927D01*
X5132073Y-13334310D01*
X4979199Y-13223240D01*
X4810836Y-13137454D01*
X4631118Y-13079059D01*
X4444486Y-13049500D01*
X4444481Y-13049500D01*
X3912229Y-13049500D01*
X3845190Y-13029815D01*
X3824548Y-13013181D01*
X2986819Y-12175451D01*
X2953334Y-12114128D01*
X2950500Y-12087770D01*
X2950500Y-11444486D01*
X7549500Y-11444486D01*
X7579059Y-11631118D01*
X7637454Y-11810836D01*
X7723240Y-11979199D01*
X7834310Y-12132073D01*
X7967927Y-12265690D01*
X8120801Y-12376760D01*
X8200347Y-12417290D01*
X8289163Y-12462545D01*
X8289165Y-12462545D01*
X8289168Y-12462547D01*
X8385497Y-12493846D01*
X8468881Y-12520940D01*
X8655514Y-12550500D01*
X8655519Y-12550500D01*
X8844486Y-12550500D01*
X9031118Y-12520940D01*
X9036532Y-12519181D01*
X9210832Y-12462547D01*
X9379199Y-12376760D01*
X9532073Y-12265690D01*
X9665690Y-12132073D01*
X9776760Y-11979199D01*
X9862547Y-11810832D01*
X9920940Y-11631118D01*
X9935454Y-11539480D01*
X9950500Y-11444486D01*
X9950500Y-10555513D01*
X9920940Y-10368881D01*
X9862545Y-10189163D01*
X9817290Y-10100347D01*
X9776760Y-10020801D01*
X9665690Y-9867927D01*
X9532073Y-9734310D01*
X9379199Y-9623240D01*
X9210836Y-9537454D01*
X9031118Y-9479059D01*
X8844486Y-9449500D01*
X8844481Y-9449500D01*
X8655519Y-9449500D01*
X8655514Y-9449500D01*
X8468881Y-9479059D01*
X8289163Y-9537454D01*
X8120800Y-9623240D01*
X8033579Y-9686610D01*
X7967927Y-9734310D01*
X7967925Y-9734312D01*
X7967924Y-9734312D01*
X7834312Y-9867924D01*
X7834312Y-9867925D01*
X7834310Y-9867927D01*
X7807018Y-9905491D01*
X7723240Y-10020800D01*
X7637454Y-10189163D01*
X7579059Y-10368881D01*
X7549500Y-10555513D01*
X7549500Y-11444486D01*
X2950500Y-11444486D01*
X2950500Y-8943289D01*
X2970185Y-8876250D01*
X3022989Y-8830495D01*
X3092147Y-8820551D01*
X3130796Y-8832805D01*
X3189161Y-8862544D01*
X3189164Y-8862544D01*
X3189168Y-8862547D01*
X3313291Y-8902877D01*
X3368881Y-8920940D01*
X3555514Y-8950500D01*
X3555519Y-8950500D01*
X4444486Y-8950500D01*
X4631118Y-8920940D01*
X4810832Y-8862547D01*
X4979199Y-8776760D01*
X5132073Y-8665690D01*
X5260944Y-8536819D01*
X5322267Y-8503334D01*
X5348625Y-8500500D01*
X7474530Y-8500500D01*
X7572072Y-8481096D01*
X7619523Y-8471658D01*
X7756105Y-8415084D01*
X7809811Y-8379199D01*
X7809811Y-8379198D01*
X7809813Y-8379198D01*
X7844418Y-8356075D01*
X7879026Y-8332952D01*
X12837819Y-3374157D01*
X12899142Y-3340673D01*
X12968834Y-3345657D01*
X13024767Y-3387529D01*
X13049184Y-3452993D01*
X13049500Y-3461839D01*
X13049500Y-9623918D01*
X13049500Y-9623920D01*
X13049499Y-9623920D01*
X13078340Y-9768907D01*
X13078343Y-9768917D01*
X13134914Y-9905491D01*
X13134916Y-9905495D01*
X13155068Y-9935655D01*
X13165010Y-9950535D01*
X13217049Y-10028418D01*
X13217052Y-10028421D01*
X14013181Y-10824548D01*
X14046666Y-10885871D01*
X14049500Y-10912229D01*
X14049500Y-11444486D01*
X14079059Y-11631118D01*
X14137454Y-11810836D01*
X14223240Y-11979199D01*
X14334310Y-12132073D01*
X14467927Y-12265690D01*
X14620801Y-12376760D01*
X14700347Y-12417290D01*
X14789163Y-12462545D01*
X14789165Y-12462545D01*
X14789168Y-12462547D01*
X14885497Y-12493846D01*
X14968881Y-12520940D01*
X15155514Y-12550500D01*
X15155519Y-12550500D01*
X15344486Y-12550500D01*
X15531118Y-12520940D01*
X15536532Y-12519181D01*
X15710832Y-12462547D01*
X15879199Y-12376760D01*
X16032073Y-12265690D01*
X16165690Y-12132073D01*
X16276760Y-11979199D01*
X16362547Y-11810832D01*
X16420940Y-11631118D01*
X16435454Y-11539480D01*
X16450500Y-11444486D01*
X16450500Y-10555513D01*
X16420940Y-10368881D01*
X16362545Y-10189163D01*
X16317290Y-10100347D01*
X16276760Y-10020801D01*
X16165690Y-9867927D01*
X16032073Y-9734310D01*
X15879199Y-9623240D01*
X15710836Y-9537454D01*
X15531118Y-9479059D01*
X15344486Y-9449500D01*
X15344481Y-9449500D01*
X15155519Y-9449500D01*
X15155514Y-9449500D01*
X14968882Y-9479059D01*
X14906456Y-9499342D01*
X14836615Y-9501336D01*
X14780459Y-9469091D01*
X14586819Y-9275451D01*
X14553334Y-9214128D01*
X14550500Y-9187770D01*
X14550500Y-5543289D01*
X14570185Y-5476250D01*
X14622989Y-5430495D01*
X14692147Y-5420551D01*
X14730796Y-5432805D01*
X14789161Y-5462544D01*
X14789164Y-5462544D01*
X14789168Y-5462547D01*
X14904436Y-5500000D01*
X14968881Y-5520940D01*
X15155514Y-5550500D01*
X15155519Y-5550500D01*
X15344486Y-5550500D01*
X15531118Y-5520940D01*
X15710832Y-5462547D01*
X15711753Y-5462078D01*
X15769204Y-5432805D01*
X15879199Y-5376760D01*
X16032073Y-5265690D01*
X16165690Y-5132073D01*
X16276760Y-4979199D01*
X16362547Y-4810832D01*
X16420940Y-4631118D01*
X16441707Y-4499999D01*
X16450500Y-4444486D01*
X16450500Y-3555513D01*
X16420940Y-3368881D01*
X16376656Y-3232591D01*
X16362547Y-3189168D01*
X16362545Y-3189165D01*
X16362545Y-3189163D01*
X16276759Y-3020800D01*
X16264308Y-3003663D01*
X16165690Y-2867927D01*
X16032073Y-2734310D01*
X15879199Y-2623240D01*
X15710832Y-2537453D01*
X15648521Y-2517206D01*
X15590848Y-2477771D01*
X15563649Y-2413412D01*
X15575564Y-2344566D01*
X15599156Y-2311600D01*
X15757952Y-2152805D01*
X15796911Y-2094498D01*
X15840084Y-2029885D01*
X15883129Y-1925965D01*
X15896659Y-1893302D01*
X15925500Y-1748307D01*
X15925500Y-1600472D01*
X15925500Y-118553D01*
X15945185Y-51514D01*
X15997989Y-5759D01*
X16067147Y4185D01*
X16085491Y107D01*
X16248868Y-49452D01*
X16338697Y-58299D01*
X16403485Y-84459D01*
X16414225Y-94021D01*
X19213181Y-2892976D01*
X19246666Y-2954299D01*
X19249500Y-2980657D01*
X19249500Y-6530725D01*
X19229815Y-6597764D01*
X19181795Y-6641209D01*
X19130794Y-6667196D01*
X19020800Y-6723240D01*
X18985900Y-6748597D01*
X18867927Y-6834310D01*
X18867925Y-6834312D01*
X18867924Y-6834312D01*
X18734312Y-6967924D01*
X18734312Y-6967925D01*
X18734310Y-6967927D01*
X18725673Y-6979815D01*
X18623240Y-7120800D01*
X18537454Y-7289163D01*
X18479059Y-7468881D01*
X18449500Y-7655513D01*
X18449500Y-7844486D01*
X18479059Y-8031118D01*
X18537454Y-8210836D01*
X18623239Y-8379198D01*
X18623240Y-8379199D01*
X18734310Y-8532073D01*
X18867927Y-8665690D01*
X19020801Y-8776760D01*
X19100347Y-8817290D01*
X19189163Y-8862545D01*
X19189165Y-8862545D01*
X19189168Y-8862547D01*
X19285497Y-8893846D01*
X19368881Y-8920940D01*
X19555514Y-8950500D01*
X19555519Y-8950500D01*
X20444486Y-8950500D01*
X20631118Y-8920940D01*
X20810832Y-8862547D01*
X20869204Y-8832804D01*
X20937873Y-8819908D01*
X21002614Y-8846184D01*
X21042872Y-8903290D01*
X21049500Y-8943289D01*
X21049500Y-9687159D01*
X21029815Y-9754198D01*
X21013181Y-9774840D01*
X14667050Y-16120970D01*
X14667044Y-16120978D01*
X14617812Y-16194658D01*
X14617813Y-16194659D01*
X14584921Y-16243886D01*
X14584914Y-16243898D01*
X14528342Y-16380476D01*
X14528340Y-16380482D01*
X14499500Y-16525469D01*
X14499500Y-16651374D01*
X14479815Y-16718413D01*
X14463182Y-16739055D01*
X14334309Y-16867928D01*
X14223240Y-17020800D01*
X14137454Y-17189163D01*
X14079059Y-17368881D01*
X14049500Y-17555513D01*
X14049500Y-18444486D01*
X14079059Y-18631118D01*
X14137454Y-18810836D01*
X14223240Y-18979199D01*
X14334310Y-19132073D01*
X14467927Y-19265690D01*
X14620801Y-19376760D01*
X14700347Y-19417290D01*
X14789163Y-19462545D01*
X14789165Y-19462545D01*
X14789168Y-19462547D01*
X14885497Y-19493846D01*
X14968881Y-19520940D01*
X15155514Y-19550500D01*
X15155519Y-19550500D01*
X15344486Y-19550500D01*
X15531118Y-19520940D01*
X15710832Y-19462547D01*
X15879199Y-19376760D01*
X16032073Y-19265690D01*
X16165690Y-19132073D01*
X16276760Y-18979199D01*
X16362547Y-18810832D01*
X16420940Y-18631118D01*
X16450500Y-18444486D01*
X16450500Y-17555513D01*
X16420940Y-17368881D01*
X16362545Y-17189163D01*
X16276759Y-17020800D01*
X16176239Y-16882447D01*
X16152759Y-16816641D01*
X16168584Y-16748587D01*
X16188872Y-16721884D01*
X18311598Y-14599158D01*
X18372919Y-14565675D01*
X18442611Y-14570659D01*
X18498544Y-14612531D01*
X18517206Y-14648520D01*
X18537453Y-14710832D01*
X18623240Y-14879199D01*
X18734310Y-15032073D01*
X18867927Y-15165690D01*
X19020801Y-15276760D01*
X19100347Y-15317290D01*
X19189163Y-15362545D01*
X19189165Y-15362545D01*
X19189168Y-15362547D01*
X19285497Y-15393846D01*
X19368881Y-15420940D01*
X19555514Y-15450500D01*
X19555519Y-15450500D01*
X20444486Y-15450500D01*
X20631118Y-15420940D01*
X20810832Y-15362547D01*
X20979199Y-15276760D01*
X21132073Y-15165690D01*
X21265690Y-15032073D01*
X21376760Y-14879199D01*
X21462547Y-14710832D01*
X21520940Y-14531118D01*
X21550500Y-14344486D01*
X21550500Y-14155513D01*
X21520940Y-13968881D01*
X21462545Y-13789163D01*
X21376759Y-13620800D01*
X21265690Y-13467927D01*
X21132073Y-13334310D01*
X20979199Y-13223240D01*
X20810836Y-13137454D01*
X20631118Y-13079059D01*
X20444486Y-13049500D01*
X20444481Y-13049500D01*
X20160620Y-13049500D01*
X20093581Y-13029815D01*
X20047826Y-12977011D01*
X20037882Y-12907853D01*
X20066907Y-12844297D01*
X20072939Y-12837819D01*
X21109725Y-11801033D01*
X22382952Y-10527806D01*
X22432186Y-10454119D01*
X22465084Y-10404885D01*
X22521658Y-10268303D01*
X22550500Y-10123308D01*
X22550500Y-4916321D01*
X22570185Y-4849282D01*
X22622989Y-4803527D01*
X22660612Y-4793101D01*
X22729255Y-4785368D01*
X22899522Y-4725789D01*
X23052262Y-4629816D01*
X23179816Y-4502262D01*
X23275789Y-4349522D01*
X23335368Y-4179255D01*
X23347279Y-4073541D01*
X23355565Y-4000003D01*
X23355565Y-4000000D01*
X23353809Y-3984419D01*
X23365862Y-3915600D01*
X23413209Y-3864219D01*
X23480819Y-3846593D01*
X23547225Y-3868317D01*
X23564710Y-3882854D01*
X24612908Y-4931052D01*
X24646393Y-4992375D01*
X24648755Y-5029539D01*
X24644341Y-5079996D01*
X24644341Y-5080000D01*
X24664936Y-5315403D01*
X24664938Y-5315413D01*
X24726094Y-5543655D01*
X24726096Y-5543659D01*
X24726097Y-5543663D01*
X24793591Y-5688403D01*
X24825965Y-5757830D01*
X24825967Y-5757834D01*
X24961501Y-5951395D01*
X24961506Y-5951402D01*
X25128597Y-6118493D01*
X25128603Y-6118498D01*
X25314158Y-6248425D01*
X25357783Y-6303002D01*
X25364977Y-6372500D01*
X25333454Y-6434855D01*
X25314158Y-6451575D01*
X25128597Y-6581505D01*
X24961505Y-6748597D01*
X24825965Y-6942169D01*
X24825964Y-6942171D01*
X24726098Y-7156335D01*
X24726094Y-7156344D01*
X24664938Y-7384586D01*
X24664936Y-7384596D01*
X24644341Y-7619999D01*
X24644341Y-7620000D01*
X24664936Y-7855403D01*
X24664938Y-7855413D01*
X24726094Y-8083655D01*
X24726096Y-8083659D01*
X24726097Y-8083663D01*
X24785397Y-8210832D01*
X24825965Y-8297830D01*
X24825967Y-8297834D01*
X24882940Y-8379199D01*
X24961505Y-8491401D01*
X25128599Y-8658495D01*
X25224553Y-8725683D01*
X25322165Y-8794032D01*
X25322167Y-8794033D01*
X25322170Y-8794035D01*
X25536337Y-8893903D01*
X25764592Y-8955063D01*
X25952918Y-8971539D01*
X25999999Y-8975659D01*
X26000000Y-8975659D01*
X26000001Y-8975659D01*
X26039234Y-8972226D01*
X26235408Y-8955063D01*
X26463663Y-8893903D01*
X26677830Y-8794035D01*
X26871401Y-8658495D01*
X27038495Y-8491401D01*
X27174035Y-8297830D01*
X27273903Y-8083663D01*
X27335063Y-7855408D01*
X27355659Y-7620000D01*
X27335063Y-7384592D01*
X27273903Y-7156337D01*
X27174035Y-6942171D01*
X27165851Y-6930482D01*
X27038494Y-6748597D01*
X26871402Y-6581506D01*
X26871396Y-6581501D01*
X26685842Y-6451575D01*
X26642217Y-6396998D01*
X26635023Y-6327500D01*
X26666546Y-6265145D01*
X26685842Y-6248425D01*
X26708026Y-6232891D01*
X26871401Y-6118495D01*
X27038495Y-5951401D01*
X27174035Y-5757830D01*
X27273903Y-5543663D01*
X27335063Y-5315408D01*
X27355659Y-5080000D01*
X27335063Y-4844592D01*
X27273903Y-4616337D01*
X27174035Y-4402171D01*
X27097544Y-4292929D01*
X27038494Y-4208597D01*
X26871402Y-4041506D01*
X26871396Y-4041501D01*
X26685842Y-3911575D01*
X26642217Y-3856998D01*
X26635023Y-3787500D01*
X26666546Y-3725145D01*
X26685842Y-3708425D01*
X26814062Y-3618644D01*
X26871401Y-3578495D01*
X27038495Y-3411401D01*
X27174035Y-3217830D01*
X27273903Y-3003663D01*
X27335063Y-2775408D01*
X27355659Y-2540000D01*
X27335063Y-2304592D01*
X27281159Y-2103416D01*
X27273905Y-2076344D01*
X27273904Y-2076343D01*
X27273903Y-2076337D01*
X27174035Y-1862171D01*
X27161254Y-1843917D01*
X27038494Y-1668597D01*
X26871402Y-1501506D01*
X26871396Y-1501501D01*
X26685842Y-1371575D01*
X26642217Y-1316998D01*
X26635023Y-1247500D01*
X26666546Y-1185145D01*
X26685842Y-1168425D01*
X26781682Y-1101317D01*
X26871401Y-1038495D01*
X27038495Y-871401D01*
X27174035Y-677830D01*
X27273903Y-463663D01*
X27335063Y-235408D01*
X27355659Y0D01*
X27335063Y235408D01*
X27273903Y463663D01*
X27174035Y677829D01*
X27038495Y871401D01*
X26871401Y1038495D01*
X26685842Y1168425D01*
X26642217Y1223002D01*
X26635023Y1292500D01*
X26666546Y1354855D01*
X26685842Y1371575D01*
X26871396Y1501501D01*
X26871402Y1501506D01*
X27038493Y1668597D01*
X27038495Y1668599D01*
X27111235Y1772482D01*
X27174032Y1862165D01*
X27174034Y1862169D01*
X27174035Y1862170D01*
X27273903Y2076337D01*
X27335063Y2304592D01*
X27353801Y2518759D01*
X27355659Y2539999D01*
X27355659Y2540000D01*
X27339809Y2721158D01*
X27335063Y2775408D01*
X27273903Y3003663D01*
X27174035Y3217829D01*
X27038495Y3411401D01*
X26871401Y3578495D01*
X26685842Y3708425D01*
X26642217Y3763002D01*
X26635023Y3832500D01*
X26666546Y3894855D01*
X26685842Y3911575D01*
X26871396Y4041501D01*
X26871402Y4041506D01*
X27038493Y4208597D01*
X27038495Y4208599D01*
X27166170Y4390937D01*
X27174032Y4402165D01*
X27174034Y4402169D01*
X27174035Y4402170D01*
X27273903Y4616337D01*
X27335063Y4844592D01*
X27355659Y5080000D01*
X27335063Y5315408D01*
X27273903Y5543663D01*
X27174035Y5757829D01*
X27038495Y5951401D01*
X26871401Y6118495D01*
X26677830Y6254035D01*
X26463663Y6353903D01*
X26235408Y6415063D01*
X26039234Y6432226D01*
X26000001Y6435659D01*
X25999999Y6435659D01*
X25952918Y6431539D01*
X25764592Y6415063D01*
X25536337Y6353903D01*
X25349773Y6266906D01*
X25322171Y6254035D01*
X25322169Y6254034D01*
X25128597Y6118494D01*
X24961505Y5951402D01*
X24825965Y5757830D01*
X24825964Y5757828D01*
X24810570Y5724815D01*
X24726097Y5543663D01*
X24726096Y5543659D01*
X24726094Y5543655D01*
X24664938Y5315413D01*
X24664936Y5315403D01*
X24644341Y5080000D01*
X24644341Y5079997D01*
X24662977Y4866985D01*
X24649210Y4798485D01*
X24627130Y4768497D01*
X23999681Y4141049D01*
X23938358Y4107564D01*
X23868666Y4112548D01*
X23812733Y4154420D01*
X23788316Y4219884D01*
X23788000Y4228730D01*
X23788000Y15832157D01*
X23787999Y15832159D01*
X23780813Y15868287D01*
X23754355Y16001300D01*
X23688358Y16160631D01*
X23592545Y16304025D01*
X23470599Y16425971D01*
X20716525Y19180045D01*
X14629025Y25267545D01*
X14485631Y25363358D01*
X14326300Y25429355D01*
X14242112Y25446100D01*
X14157158Y25463000D01*
X14157155Y25463000D01*
X8586229Y25463000D01*
X2056506Y25463000D01*
X1989467Y25482685D01*
X1968825Y25499319D01*
X1949823Y25518319D01*
X1497802Y25970340D01*
X1464319Y26031661D01*
X1469303Y26101352D01*
X1511174Y26157286D01*
X1553392Y26177794D01*
X1733655Y26226094D01*
X1733659Y26226096D01*
X1733663Y26226097D01*
X1947830Y26325965D01*
X1947834Y26325967D01*
X2141395Y26461501D01*
X2141402Y26461506D01*
X2308493Y26628597D01*
X2308495Y26628599D01*
X2438425Y26814158D01*
X2493002Y26857782D01*
X2562501Y26864975D01*
X2624855Y26833453D01*
X2641575Y26814158D01*
X2771505Y26628599D01*
X2771506Y26628597D01*
X2938597Y26461506D01*
X2938604Y26461501D01*
X3132165Y26325967D01*
X3132169Y26325965D01*
X3346335Y26226098D01*
X3346344Y26226094D01*
X3574586Y26164938D01*
X3574596Y26164936D01*
X3809999Y26144341D01*
X3810000Y26144341D01*
X3810001Y26144341D01*
X4045403Y26164936D01*
X4045413Y26164938D01*
X4273655Y26226094D01*
X4273659Y26226096D01*
X4273663Y26226097D01*
X4487830Y26325965D01*
X4487834Y26325967D01*
X4681395Y26461501D01*
X4681402Y26461506D01*
X4848493Y26628597D01*
X4848495Y26628599D01*
X4978425Y26814158D01*
X4984032Y26822165D01*
X4984034Y26822169D01*
X4984035Y26822170D01*
X5083903Y27036337D01*
X5145063Y27264592D01*
X5165659Y27500000D01*
X5145063Y27735408D01*
X5083903Y27963663D01*
X4984035Y28177829D01*
X4848495Y28371401D01*
X4681401Y28538495D01*
X4487830Y28674035D01*
X4273663Y28773903D01*
X4045408Y28835063D01*
X3849234Y28852226D01*
X3810001Y28855659D01*
X3809999Y28855659D01*
X3762918Y28851539D01*
X3574592Y28835063D01*
X3346337Y28773903D01*
X3132171Y28674035D01*
X3132169Y28674034D01*
X2938597Y28538494D01*
X2771506Y28371403D01*
X2771505Y28371401D01*
X2641573Y28185838D01*
X2586999Y28142215D01*
X2517500Y28135021D01*
X2455145Y28166543D01*
X2438428Y28185836D01*
X2308495Y28371401D01*
X2141401Y28538495D01*
X1947830Y28674035D01*
X1733663Y28773903D01*
X1505408Y28835063D01*
X1309234Y28852226D01*
X1270001Y28855659D01*
X1269999Y28855659D01*
X1222918Y28851539D01*
X1034592Y28835063D01*
X806337Y28773903D01*
X592171Y28674035D01*
X592169Y28674034D01*
X398597Y28538494D01*
X231506Y28371403D01*
X231505Y28371401D01*
X101573Y28185838D01*
X46999Y28142215D01*
X-22500Y28135021D01*
X-84855Y28166543D01*
X-101571Y28185836D01*
X-231505Y28371401D01*
X-398599Y28538495D01*
X-495384Y28606265D01*
X-592165Y28674032D01*
X-592169Y28674034D01*
X-592170Y28674035D01*
X-806337Y28773903D01*
X-1034592Y28835063D01*
X-1222918Y28851539D01*
X-1269999Y28855659D01*
X-1270001Y28855659D01*
X-1309234Y28852226D01*
X-1505408Y28835063D01*
X-1733663Y28773903D01*
X-1947829Y28674035D01*
X-2141401Y28538495D01*
X-2308495Y28371401D01*
X-2444035Y28177829D01*
X-2543903Y27963663D01*
X-2605063Y27735408D01*
X-2625659Y27500000D01*
X-2605063Y27264592D01*
X-2543903Y27036337D01*
X-2444035Y26822170D01*
X-2444034Y26822169D01*
X-2444032Y26822165D01*
X-2438425Y26814158D01*
X-2308495Y26628599D01*
X-2308493Y26628597D01*
X-2141402Y26461506D01*
X-2141395Y26461501D01*
X-1947834Y26325967D01*
X-1947830Y26325965D01*
X-1733663Y26226097D01*
X-1733659Y26226096D01*
X-1733655Y26226094D01*
X-1505413Y26164938D01*
X-1505403Y26164936D01*
X-1270001Y26144341D01*
X-1270000Y26144341D01*
X-1269996Y26144341D01*
X-1219539Y26148755D01*
X-1151039Y26134988D01*
X-1121052Y26112908D01*
X962455Y24029401D01*
X998945Y23992911D01*
X1029675Y23962181D01*
X1063159Y23900857D01*
X1058174Y23831166D01*
X1016303Y23775232D01*
X950838Y23750816D01*
X941993Y23750500D01*
X-1460222Y23750500D01*
X-1677951Y23716015D01*
X-1887606Y23647895D01*
X-2084022Y23547815D01*
X-2262365Y23418242D01*
X-2418242Y23262365D01*
X-2547815Y23084022D01*
X-2647895Y22887606D01*
X-2716015Y22677951D01*
X-2750500Y22460222D01*
X-2750500Y22239778D01*
X-2716015Y22022049D01*
X-2716014Y22022047D01*
X-2647896Y21812396D01*
X-2647895Y21812393D01*
X-2623479Y21764475D01*
X-2547815Y21615978D01*
X-2547812Y21615974D01*
X-2418247Y21437641D01*
X-2418243Y21437636D01*
X-2262363Y21281756D01*
X-2262358Y21281752D01*
X-2125270Y21182153D01*
X-2084022Y21152185D01*
X-2021096Y21120122D01*
X-1887606Y21052104D01*
X-1887603Y21052103D01*
X-1677952Y20983985D01*
X-1569086Y20966742D01*
X-1460222Y20949500D01*
X-1460221Y20949500D01*
X1460221Y20949500D01*
X1460222Y20949500D01*
X1569086Y20966742D01*
X1677952Y20983985D01*
X1887603Y21052103D01*
X1887606Y21052104D01*
X1954099Y21085985D01*
X2010394Y21099500D01*
X6893803Y21099500D01*
X6960842Y21079815D01*
X7006597Y21027011D01*
X7016541Y20957853D01*
X6987516Y20894297D01*
X6972468Y20879647D01*
X6844115Y20774310D01*
X6719089Y20621966D01*
X6719085Y20621959D01*
X6626187Y20448160D01*
X6568974Y20259556D01*
X6549658Y20063427D01*
X6568974Y19867297D01*
X6626187Y19678693D01*
X6719085Y19504894D01*
X6719089Y19504887D01*
X6844115Y19352543D01*
X6996459Y19227517D01*
X6996466Y19227513D01*
X7170265Y19134615D01*
X7358869Y19077402D01*
X7554999Y19058086D01*
X7751128Y19077402D01*
X7858361Y19109931D01*
X7939726Y19134613D01*
X7939732Y19134615D01*
X8113531Y19227513D01*
X8118600Y19230900D01*
X8119693Y19229263D01*
X8175662Y19253023D01*
X8244528Y19241222D01*
X8261155Y19230536D01*
X8261398Y19230900D01*
X8266466Y19227513D01*
X8440265Y19134615D01*
X8628869Y19077402D01*
X8824999Y19058086D01*
X9021128Y19077402D01*
X9128361Y19109931D01*
X9209726Y19134613D01*
X9209732Y19134615D01*
X9383531Y19227513D01*
X9388600Y19230900D01*
X9389693Y19229263D01*
X9445662Y19253023D01*
X9514528Y19241222D01*
X9531155Y19230536D01*
X9531398Y19230900D01*
X9536466Y19227513D01*
X9710265Y19134615D01*
X9898869Y19077402D01*
X10094999Y19058086D01*
X10291129Y19077402D01*
X10398361Y19109931D01*
X10468228Y19110554D01*
X10527341Y19073306D01*
X10548917Y19038723D01*
X10589139Y18941619D01*
X10589144Y18941609D01*
X10684953Y18798222D01*
X10684956Y18798218D01*
X10806896Y18676278D01*
X10806900Y18676275D01*
X10950287Y18580466D01*
X10950300Y18580459D01*
X11109620Y18514467D01*
X11109630Y18514464D01*
X11194774Y18497528D01*
X11256685Y18465143D01*
X11258263Y18463592D01*
X11779956Y17941901D01*
X11840930Y17880927D01*
X11901903Y17819953D01*
X12045289Y17724145D01*
X12045302Y17724138D01*
X12204622Y17658146D01*
X12204634Y17658143D01*
X12373767Y17624500D01*
X12373772Y17624500D01*
X12546230Y17624500D01*
X19744420Y17624500D01*
X19811459Y17604815D01*
X19832101Y17588181D01*
X22000681Y15419601D01*
X22034166Y15358278D01*
X22037000Y15331920D01*
X22037000Y12204057D01*
X22017315Y12137018D01*
X21964511Y12091263D01*
X21895353Y12081319D01*
X21877006Y12085396D01*
X21759559Y12121024D01*
X21563427Y12140341D01*
X21367295Y12121024D01*
X21178700Y12063814D01*
X21178696Y12063811D01*
X21178693Y12063811D01*
X21004894Y11970913D01*
X21004887Y11970909D01*
X20852543Y11845883D01*
X20727517Y11693539D01*
X20727513Y11693532D01*
X20634615Y11519733D01*
X20577402Y11331129D01*
X20558086Y11135000D01*
X20577402Y10938870D01*
X20634615Y10750266D01*
X20727513Y10576467D01*
X20727517Y10576460D01*
X20852543Y10424116D01*
X21004887Y10299090D01*
X21004894Y10299086D01*
X21178693Y10206188D01*
X21367297Y10148975D01*
X21563427Y10129659D01*
X21759557Y10148975D01*
X21877005Y10184603D01*
X21946872Y10185226D01*
X22005985Y10147978D01*
X22035575Y10084684D01*
X22037000Y10065942D01*
X22037000Y9664057D01*
X22017315Y9597018D01*
X21964511Y9551263D01*
X21895353Y9541319D01*
X21877006Y9545396D01*
X21759559Y9581024D01*
X21563427Y9600341D01*
X21367295Y9581024D01*
X21178700Y9523814D01*
X21178696Y9523811D01*
X21178693Y9523811D01*
X21004894Y9430913D01*
X21004887Y9430909D01*
X20852543Y9305883D01*
X20727517Y9153539D01*
X20727513Y9153532D01*
X20634613Y8979728D01*
X20599356Y8863504D01*
X20561058Y8805066D01*
X20497246Y8776609D01*
X20480696Y8775500D01*
X20373630Y8775500D01*
X20228642Y8746659D01*
X20228637Y8746658D01*
X20228632Y8746656D01*
X20092061Y8690087D01*
X20092048Y8690080D01*
X19969134Y8607951D01*
X19969130Y8607948D01*
X15648001Y4286819D01*
X15586678Y4253334D01*
X15560320Y4250500D01*
X5212472Y4250500D01*
X5171517Y4257458D01*
X5091755Y4285368D01*
X5091752Y4285368D01*
X5091749Y4285369D01*
X4912504Y4305565D01*
X4912496Y4305565D01*
X4733250Y4285369D01*
X4733245Y4285368D01*
X4562978Y4225789D01*
X4562976Y4225788D01*
X4535628Y4208604D01*
X4410238Y4129816D01*
X4410237Y4129815D01*
X4282684Y4002262D01*
X4282682Y4002259D01*
X4267492Y3978085D01*
X4215157Y3931794D01*
X4146103Y3921147D01*
X4082255Y3949523D01*
X4057507Y3978085D01*
X4042316Y4002262D01*
X3914762Y4129816D01*
X3909118Y4133362D01*
X3862827Y4185691D01*
X3852175Y4254744D01*
X3880546Y4318594D01*
X3887406Y4326038D01*
X3969524Y4408156D01*
X3969528Y4408161D01*
X4025440Y4491842D01*
X4025441Y4491844D01*
X4048166Y4525854D01*
X4051656Y4531077D01*
X4076832Y4591856D01*
X4108228Y4667654D01*
X4108231Y4667664D01*
X4137072Y4812651D01*
X4137072Y10611842D01*
X4156757Y10678881D01*
X4173391Y10699523D01*
X7131585Y13657717D01*
X13675236Y13657717D01*
X13706043Y13423725D01*
X13767132Y13195739D01*
X13767136Y13195726D01*
X13857447Y12977694D01*
X13857455Y12977678D01*
X13975458Y12773293D01*
X13975469Y12773277D01*
X14119142Y12586038D01*
X14119148Y12586031D01*
X14286031Y12419148D01*
X14286038Y12419142D01*
X14473277Y12275469D01*
X14473293Y12275458D01*
X14677678Y12157455D01*
X14677694Y12157447D01*
X14895726Y12067136D01*
X14895739Y12067132D01*
X14895740Y12067131D01*
X14895742Y12067131D01*
X14954750Y12051320D01*
X15123725Y12006043D01*
X15357717Y11975236D01*
X15357725Y11975236D01*
X15593754Y11975236D01*
X15827746Y12006043D01*
X15832594Y12007342D01*
X16055730Y12067131D01*
X16055733Y12067132D01*
X16055745Y12067136D01*
X16273777Y12157447D01*
X16273793Y12157455D01*
X16478178Y12275458D01*
X16478181Y12275460D01*
X16478186Y12275463D01*
X16478194Y12275469D01*
X16665433Y12419142D01*
X16665440Y12419148D01*
X17680848Y13434556D01*
X17680855Y13434564D01*
X17824538Y13621813D01*
X17942546Y13826210D01*
X17942553Y13826225D01*
X18032870Y14044271D01*
X18037012Y14059727D01*
X18093957Y14272250D01*
X18124764Y14506253D01*
X18124764Y14742275D01*
X18093957Y14976278D01*
X18032870Y15204258D01*
X17942548Y15422314D01*
X17824538Y15626715D01*
X17806305Y15650476D01*
X17776159Y15689763D01*
X17680856Y15813964D01*
X17680851Y15813968D01*
X17680848Y15813973D01*
X17513973Y15980848D01*
X17513968Y15980851D01*
X17513964Y15980856D01*
X17326715Y16124538D01*
X17326714Y16124539D01*
X17326710Y16124541D01*
X17122324Y16242542D01*
X17122314Y16242548D01*
X16904258Y16332870D01*
X16676278Y16393957D01*
X16442275Y16424764D01*
X16206253Y16424764D01*
X15972250Y16393957D01*
X15744270Y16332870D01*
X15638987Y16289260D01*
X15526225Y16242553D01*
X15526210Y16242546D01*
X15321813Y16124538D01*
X15134564Y15980855D01*
X15134556Y15980848D01*
X14119148Y14965440D01*
X14119142Y14965433D01*
X13986811Y14792975D01*
X13975463Y14778186D01*
X13975460Y14778181D01*
X13975458Y14778178D01*
X13857455Y14573793D01*
X13857447Y14573777D01*
X13767136Y14355745D01*
X13767132Y14355733D01*
X13767131Y14355730D01*
X13723961Y14194618D01*
X13706043Y14127746D01*
X13675236Y13893754D01*
X13675236Y13657717D01*
X7131585Y13657717D01*
X7863059Y14389191D01*
X7899128Y14411855D01*
X7898246Y14413687D01*
X7904515Y14416706D01*
X8057261Y14512683D01*
X8184814Y14640236D01*
X8280787Y14792975D01*
X8340367Y14963244D01*
X8340368Y14963249D01*
X8360564Y15142495D01*
X8360564Y15142502D01*
X8340368Y15321748D01*
X8340367Y15321753D01*
X8340367Y15321754D01*
X8280788Y15492021D01*
X8184815Y15644761D01*
X8057261Y15772315D01*
X7904521Y15868288D01*
X7734254Y15927867D01*
X7734251Y15927867D01*
X7734248Y15927868D01*
X7555003Y15948064D01*
X7554995Y15948064D01*
X7375749Y15927868D01*
X7375744Y15927867D01*
X7205477Y15868288D01*
X7052737Y15772315D01*
X7052736Y15772314D01*
X6925183Y15644761D01*
X6829206Y15492015D01*
X6826187Y15485746D01*
X6824355Y15486628D01*
X6801691Y15450559D01*
X3652636Y12301504D01*
X3591313Y12268019D01*
X3521621Y12273003D01*
X3465688Y12314875D01*
X3441271Y12380339D01*
X3441553Y12401344D01*
X3441913Y12404997D01*
X3441913Y12404999D01*
X3440520Y12419144D01*
X3422596Y12601132D01*
X3365386Y12789727D01*
X3272482Y12963538D01*
X3272476Y12963544D01*
X3269095Y12968607D01*
X3270736Y12969703D01*
X3246977Y13025639D01*
X3258766Y13094507D01*
X3269460Y13111148D01*
X3269095Y13111393D01*
X3272479Y13116458D01*
X3272482Y13116462D01*
X3365386Y13290273D01*
X3422596Y13478868D01*
X3441913Y13675000D01*
X3422596Y13871132D01*
X3365386Y14059727D01*
X3364249Y14061853D01*
X3363990Y14063095D01*
X3363055Y14065355D01*
X3363483Y14065532D01*
X3350007Y14130254D01*
X3374339Y14194615D01*
X3380368Y14202669D01*
X3430663Y14337517D01*
X3437072Y14397127D01*
X3437071Y15492872D01*
X3430663Y15552483D01*
X3380368Y15687331D01*
X3294118Y15802546D01*
X3178903Y15888796D01*
X3044055Y15939091D01*
X2984445Y15945500D01*
X1888700Y15945499D01*
X1840329Y15940299D01*
X1829088Y15939091D01*
X1694243Y15888797D01*
X1694236Y15888793D01*
X1618584Y15832159D01*
X1579026Y15802546D01*
X1579025Y15802544D01*
X1579023Y15802542D01*
X1536087Y15745188D01*
X1480153Y15703318D01*
X1436821Y15695500D01*
X1371081Y15695500D01*
X1365283Y15694346D01*
X1342241Y15689763D01*
X1226088Y15666659D01*
X1146080Y15633518D01*
X1146079Y15633518D01*
X1089511Y15610087D01*
X1089507Y15610085D01*
X1089505Y15610084D01*
X1089499Y15610080D01*
X1040036Y15577030D01*
X966582Y15527950D01*
X966579Y15527947D01*
X185101Y14746468D01*
X-596380Y13964988D01*
X-610069Y13944500D01*
X-678512Y13842067D01*
X-715309Y13753230D01*
X-735939Y13703426D01*
X-779780Y13649022D01*
X-846074Y13626957D01*
X-913773Y13644236D01*
X-961384Y13695373D01*
X-974500Y13750878D01*
X-974500Y15219632D01*
X-963294Y15271144D01*
X-908263Y15391643D01*
X-906015Y15395939D01*
X-864966Y15535738D01*
X-864963Y15535748D01*
X-844503Y15678059D01*
X-844503Y15734399D01*
X-844500Y15734409D01*
X-844500Y16265573D01*
X-844503Y16265601D01*
X-844503Y16321939D01*
X-846075Y16332870D01*
X-864965Y16464256D01*
X-864965Y16464257D01*
X-871020Y16484880D01*
X-905503Y16602313D01*
X-965223Y16733081D01*
X-965227Y16733087D01*
X-965230Y16733094D01*
X-1043014Y16854130D01*
X-1043015Y16854132D01*
X-1043018Y16854136D01*
X-1137152Y16962773D01*
X-1137169Y16962792D01*
X-1137171Y16962794D01*
X-1245909Y17057015D01*
X-1306386Y17095881D01*
X-1366857Y17134744D01*
X-1366863Y17134747D01*
X-1497741Y17194517D01*
X-1635696Y17235024D01*
X-1778111Y17255500D01*
X-2350000Y17255500D01*
X-2421940Y17250355D01*
X-2459259Y17239396D01*
X-2511841Y17235636D01*
X-2650000Y17255500D01*
X-3221889Y17255500D01*
X-3364304Y17235024D01*
X-3502259Y17194517D01*
X-3633137Y17134747D01*
X-3633140Y17134744D01*
X-3633142Y17134744D01*
X-3748475Y17060624D01*
X-3749915Y17059804D01*
X-3754098Y17057011D01*
X-3798891Y17018197D01*
X-3862832Y16962791D01*
X-3956986Y16854130D01*
X-3961782Y16846667D01*
X-3986978Y16807461D01*
X-4039782Y16761706D01*
X-4091294Y16750500D01*
X-4200028Y16750500D01*
X-4240983Y16757458D01*
X-4320745Y16785368D01*
X-4320750Y16785369D01*
X-4499996Y16805565D01*
X-4500004Y16805565D01*
X-4679249Y16785369D01*
X-4679252Y16785368D01*
X-4679255Y16785368D01*
X-4849522Y16725789D01*
X-5002262Y16629816D01*
X-5129816Y16502262D01*
X-5225789Y16349522D01*
X-5285368Y16179255D01*
X-5285368Y16179254D01*
X-5285369Y16179249D01*
X-5305565Y16000003D01*
X-5305565Y15999996D01*
X-5290725Y15868288D01*
X-5285368Y15820745D01*
X-5231451Y15666658D01*
X-5225788Y15650476D01*
X-5210858Y15626715D01*
X-5148798Y15527947D01*
X-5129815Y15497737D01*
X-5002262Y15370184D01*
X-4849523Y15274211D01*
X-4679254Y15214631D01*
X-4679249Y15214630D01*
X-4500004Y15194435D01*
X-4500000Y15194435D01*
X-4499996Y15194435D01*
X-4320750Y15214630D01*
X-4320745Y15214631D01*
X-4240983Y15242542D01*
X-4200028Y15249500D01*
X-4091294Y15249500D01*
X-4024255Y15229815D01*
X-3986978Y15192539D01*
X-3956984Y15145867D01*
X-3956981Y15145863D01*
X-3862847Y15037226D01*
X-3862832Y15037209D01*
X-3862829Y15037206D01*
X-3754091Y14942985D01*
X-3718858Y14920342D01*
X-3633142Y14865255D01*
X-3633136Y14865252D01*
X-3562028Y14832778D01*
X-3502259Y14805483D01*
X-3459667Y14792977D01*
X-3364308Y14764977D01*
X-3364296Y14764974D01*
X-3221889Y14744500D01*
X-2849500Y14744500D01*
X-2782461Y14724815D01*
X-2736706Y14672011D01*
X-2725500Y14620500D01*
X-2725500Y12879500D01*
X-2745185Y12812461D01*
X-2797989Y12766706D01*
X-2849500Y12755500D01*
X-3221889Y12755500D01*
X-3364304Y12735024D01*
X-3502259Y12694517D01*
X-3633137Y12634747D01*
X-3633140Y12634744D01*
X-3633142Y12634744D01*
X-3748475Y12560624D01*
X-3749915Y12559804D01*
X-3754098Y12557011D01*
X-3793022Y12523282D01*
X-3862832Y12462791D01*
X-3956986Y12354130D01*
X-3982213Y12314875D01*
X-3986978Y12307461D01*
X-4039782Y12261706D01*
X-4091294Y12250500D01*
X-4200028Y12250500D01*
X-4240983Y12257458D01*
X-4271165Y12268019D01*
X-4320745Y12285368D01*
X-4320750Y12285369D01*
X-4499996Y12305565D01*
X-4500004Y12305565D01*
X-4679249Y12285369D01*
X-4679252Y12285368D01*
X-4679255Y12285368D01*
X-4849522Y12225789D01*
X-5002262Y12129816D01*
X-5129816Y12002262D01*
X-5225789Y11849522D01*
X-5280370Y11693538D01*
X-5285368Y11679254D01*
X-5285369Y11679249D01*
X-5305565Y11500003D01*
X-5305565Y11499996D01*
X-5286538Y11331129D01*
X-5285368Y11320745D01*
X-5225789Y11150478D01*
X-5135978Y11007544D01*
X-5129815Y10997737D01*
X-5002262Y10870184D01*
X-4849523Y10774211D01*
X-4679254Y10714631D01*
X-4679249Y10714630D01*
X-4500004Y10694435D01*
X-4500000Y10694435D01*
X-4499996Y10694435D01*
X-4320750Y10714630D01*
X-4320745Y10714631D01*
X-4240983Y10742542D01*
X-4200028Y10749500D01*
X-4091294Y10749500D01*
X-4024255Y10729815D01*
X-3986978Y10692539D01*
X-3956984Y10645867D01*
X-3956981Y10645863D01*
X-3896843Y10576460D01*
X-3862832Y10537209D01*
X-3862829Y10537206D01*
X-3754091Y10442985D01*
X-3724732Y10424117D01*
X-3633142Y10365255D01*
X-3633136Y10365252D01*
X-3562028Y10332778D01*
X-3502259Y10305483D01*
X-3434935Y10285715D01*
X-3364308Y10264977D01*
X-3364296Y10264974D01*
X-3221889Y10244500D01*
X-2849500Y10244500D01*
X-2782461Y10224815D01*
X-2736706Y10172011D01*
X-2725500Y10120500D01*
X-2725500Y8379500D01*
X-2745185Y8312461D01*
X-2797989Y8266706D01*
X-2849500Y8255500D01*
X-3221889Y8255500D01*
X-3364304Y8235024D01*
X-3502259Y8194517D01*
X-3633137Y8134747D01*
X-3633140Y8134744D01*
X-3633142Y8134744D01*
X-3748475Y8060624D01*
X-3749915Y8059804D01*
X-3754098Y8057011D01*
X-3803017Y8014620D01*
X-3862832Y7962791D01*
X-3956986Y7854130D01*
X-3983761Y7812466D01*
X-3986978Y7807461D01*
X-4039782Y7761706D01*
X-4091294Y7750500D01*
X-4200028Y7750500D01*
X-4240983Y7757458D01*
X-4320745Y7785368D01*
X-4320750Y7785369D01*
X-4499996Y7805565D01*
X-4500004Y7805565D01*
X-4679249Y7785369D01*
X-4679252Y7785368D01*
X-4679255Y7785368D01*
X-4849522Y7725789D01*
X-5002262Y7629816D01*
X-5129816Y7502262D01*
X-5225789Y7349522D01*
X-5285368Y7179255D01*
X-5285368Y7179254D01*
X-5285369Y7179249D01*
X-5305565Y7000003D01*
X-5305565Y6999996D01*
X-5298835Y6940266D01*
X-5285368Y6820745D01*
X-5266374Y6766462D01*
X-5225788Y6650476D01*
X-5129815Y6497737D01*
X-5002262Y6370184D01*
X-4849523Y6274211D01*
X-4679254Y6214631D01*
X-4679249Y6214630D01*
X-4500004Y6194435D01*
X-4500000Y6194435D01*
X-4499996Y6194435D01*
X-4320750Y6214630D01*
X-4320745Y6214631D01*
X-4240983Y6242542D01*
X-4200028Y6249500D01*
X-4091294Y6249500D01*
X-4024255Y6229815D01*
X-3986978Y6192539D01*
X-3956984Y6145867D01*
X-3956981Y6145863D01*
X-3907760Y6089059D01*
X-3862832Y6037209D01*
X-3862829Y6037206D01*
X-3754091Y5942985D01*
X-3718858Y5920342D01*
X-3633142Y5865255D01*
X-3633136Y5865252D01*
X-3562028Y5832778D01*
X-3502259Y5805483D01*
X-3478623Y5798543D01*
X-3364308Y5764977D01*
X-3364296Y5764974D01*
X-3221889Y5744500D01*
X-2849500Y5744500D01*
X-2782461Y5724815D01*
X-2736706Y5672011D01*
X-2725500Y5620500D01*
X-2725500Y3757588D01*
X-2745185Y3690549D01*
X-2761819Y3669907D01*
X-3269907Y3161819D01*
X-3331230Y3128334D01*
X-3357588Y3125500D01*
X-4132334Y3125500D01*
X-4199373Y3145185D01*
X-4245128Y3197989D01*
X-4255072Y3267147D01*
X-4235437Y3318390D01*
X-4224144Y3335290D01*
X-4224138Y3335301D01*
X-4158146Y3494621D01*
X-4158143Y3494633D01*
X-4124500Y3663766D01*
X-4124500Y3836233D01*
X-4158143Y4005366D01*
X-4158146Y4005378D01*
X-4224138Y4164698D01*
X-4224145Y4164711D01*
X-4319954Y4308098D01*
X-4319957Y4308102D01*
X-4441897Y4430042D01*
X-4441901Y4430045D01*
X-4585288Y4525854D01*
X-4585301Y4525861D01*
X-4744621Y4591853D01*
X-4744626Y4591855D01*
X-4811728Y4605202D01*
X-4913768Y4625500D01*
X-4913771Y4625500D01*
X-13985994Y4625500D01*
X-14053033Y4645185D01*
X-14073675Y4661819D01*
X-19163181Y9751325D01*
X-19196666Y9812648D01*
X-19199500Y9839006D01*
X-19199500Y10697870D01*
X-19199501Y10697876D01*
X-19205908Y10757483D01*
X-19256202Y10892328D01*
X-19256206Y10892335D01*
X-19342452Y11007544D01*
X-19342455Y11007547D01*
X-19457664Y11093793D01*
X-19457671Y11093797D01*
X-19592517Y11144091D01*
X-19592516Y11144091D01*
X-19598925Y11144779D01*
X-19652127Y11150500D01*
X-21347872Y11150499D01*
X-21407483Y11144091D01*
X-21542331Y11093796D01*
X-21657546Y11007546D01*
X-21743796Y10892331D01*
X-21794091Y10757483D01*
X-21800500Y10697873D01*
X-21800499Y9002128D01*
X-21798091Y8979728D01*
X-21794091Y8942516D01*
X-21743797Y8807671D01*
X-21743793Y8807664D01*
X-21657547Y8692455D01*
X-21657544Y8692452D01*
X-21542335Y8606206D01*
X-21542328Y8606202D01*
X-21407482Y8555908D01*
X-21407483Y8555908D01*
X-21347883Y8549501D01*
X-21347881Y8549500D01*
X-21347873Y8549500D01*
X-20489006Y8549500D01*
X-20421967Y8529815D01*
X-20401325Y8513181D01*
X-14175325Y2287181D01*
X-14141840Y2225858D01*
X-14146824Y2156166D01*
X-14188696Y2100233D01*
X-14254160Y2075816D01*
X-14263006Y2075500D01*
X-20339911Y2075500D01*
X-20437453Y2056096D01*
X-20484904Y2046658D01*
X-20621486Y1990084D01*
X-20744407Y1907951D01*
X-20744410Y1907948D01*
X-21240540Y1411819D01*
X-21301863Y1378334D01*
X-21328221Y1375500D01*
X-21698920Y1375500D01*
X-21796462Y1356096D01*
X-21843913Y1346658D01*
X-21980495Y1290084D01*
X-22103416Y1207951D01*
X-22207951Y1103416D01*
X-22290084Y980495D01*
X-22346658Y843913D01*
X-22346659Y843907D01*
X-22375500Y698920D01*
X-22375500Y-1698920D01*
X-29445727Y-1698920D01*
X-29479695Y-1079631D01*
X-29479860Y-1075105D01*
X-29499458Y-2265D01*
X-29499458Y2265D01*
X-29479860Y1075105D01*
X-29479695Y1079631D01*
X-29420927Y2151071D01*
X-29420596Y2155589D01*
X-29322739Y3224130D01*
X-29322244Y3228632D01*
X-29185421Y4292929D01*
X-29184761Y4297410D01*
X-29009169Y5355943D01*
X-29008347Y5360397D01*
X-28794201Y6411866D01*
X-28793216Y6416287D01*
X-28540817Y7459209D01*
X-28539671Y7463592D01*
X-28249350Y8496603D01*
X-28248045Y8500940D01*
X-27920196Y9522641D01*
X-27918734Y9526928D01*
X-27553780Y10535997D01*
X-27552162Y10540228D01*
X-27150592Y11535312D01*
X-27148820Y11539480D01*
X-26711198Y12519181D01*
X-26709276Y12523282D01*
X-26236152Y13486376D01*
X-26234081Y13490405D01*
X-25726092Y14435589D01*
X-25723875Y14439539D01*
X-25181706Y15365537D01*
X-25179346Y15369403D01*
X-24603740Y16274950D01*
X-24601241Y16278728D01*
X-23992911Y17162700D01*
X-23990275Y17166383D01*
X-23350105Y18027496D01*
X-23347337Y18031081D01*
X-23276330Y18119646D01*
X-21756989Y18119646D01*
X-21725327Y17879145D01*
X-21662543Y17644834D01*
X-21569713Y17420722D01*
X-21448425Y17210645D01*
X-21436049Y17194516D01*
X-21300755Y17018197D01*
X-21300749Y17018190D01*
X-21129232Y16846673D01*
X-21129225Y16846667D01*
X-20936782Y16699001D01*
X-20936778Y16698998D01*
X-20769315Y16602313D01*
X-20726703Y16577711D01*
X-20726694Y16577707D01*
X-20502593Y16484881D01*
X-20502589Y16484880D01*
X-20278228Y16424762D01*
X-20268274Y16422095D01*
X-20027778Y16390434D01*
X-20027777Y16390434D01*
X-19785200Y16390434D01*
X-19544703Y16422095D01*
X-19310384Y16484881D01*
X-19086283Y16577707D01*
X-19086274Y16577711D01*
X-18876195Y16699001D01*
X-18683752Y16846667D01*
X-18683745Y16846673D01*
X-18512228Y17018190D01*
X-18512222Y17018197D01*
X-18364556Y17210640D01*
X-18243266Y17420719D01*
X-18243262Y17420728D01*
X-18150436Y17644829D01*
X-18087650Y17879148D01*
X-18055989Y18119645D01*
X-18055989Y18362222D01*
X-18087650Y18602719D01*
X-18150436Y18837038D01*
X-18243262Y19061139D01*
X-18243266Y19061148D01*
X-18295924Y19152354D01*
X-18364553Y19271223D01*
X-18426952Y19352543D01*
X-18512222Y19463670D01*
X-18512228Y19463677D01*
X-18683745Y19635194D01*
X-18683752Y19635200D01*
X-18876195Y19782866D01*
X-18876200Y19782870D01*
X-19086277Y19904158D01*
X-19310389Y19996988D01*
X-19544700Y20059772D01*
X-19725075Y20083518D01*
X-19785200Y20091434D01*
X-19785201Y20091434D01*
X-20027777Y20091434D01*
X-20027778Y20091434D01*
X-20075877Y20085101D01*
X-20268278Y20059772D01*
X-20502589Y19996988D01*
X-20726701Y19904158D01*
X-20936778Y19782870D01*
X-21129227Y19635199D01*
X-21300754Y19463672D01*
X-21448425Y19271223D01*
X-21569713Y19061146D01*
X-21662543Y18837034D01*
X-21725327Y18602723D01*
X-21756989Y18362222D01*
X-21756989Y18119646D01*
X-23276330Y18119646D01*
X-22676132Y18868254D01*
X-22673235Y18871736D01*
X-21971877Y19683868D01*
X-21968854Y19687241D01*
X-21238335Y20473182D01*
X-21235191Y20476443D01*
X-20476443Y21235191D01*
X-20473182Y21238335D01*
X-19687241Y21968854D01*
X-19683868Y21971877D01*
X-19373654Y22239778D01*
X-14750500Y22239778D01*
X-14716015Y22022049D01*
X-14716014Y22022047D01*
X-14647896Y21812396D01*
X-14647895Y21812393D01*
X-14623479Y21764475D01*
X-14547815Y21615978D01*
X-14547812Y21615974D01*
X-14418247Y21437641D01*
X-14418243Y21437636D01*
X-14262363Y21281756D01*
X-14262358Y21281752D01*
X-14125270Y21182153D01*
X-14084022Y21152185D01*
X-14021096Y21120122D01*
X-13887606Y21052104D01*
X-13887603Y21052103D01*
X-13677952Y20983985D01*
X-13569086Y20966742D01*
X-13460222Y20949500D01*
X-13460221Y20949500D01*
X-10539779Y20949500D01*
X-10539778Y20949500D01*
X-10467201Y20960995D01*
X-10322047Y20983985D01*
X-10112396Y21052103D01*
X-10112393Y21052104D01*
X-9915974Y21152187D01*
X-9737641Y21281752D01*
X-9737636Y21281756D01*
X-9581756Y21437636D01*
X-9581752Y21437641D01*
X-9452187Y21615974D01*
X-9352104Y21812393D01*
X-9352103Y21812396D01*
X-9283985Y22022047D01*
X-9249500Y22239778D01*
X-9249500Y22460221D01*
X-9253142Y22483213D01*
X-9283985Y22677951D01*
X-9283985Y22677952D01*
X-9352103Y22887603D01*
X-9352104Y22887606D01*
X-9452187Y23084025D01*
X-9581752Y23262358D01*
X-9581756Y23262363D01*
X-9737636Y23418243D01*
X-9737641Y23418247D01*
X-9915974Y23547812D01*
X-9915978Y23547815D01*
X-10044375Y23613237D01*
X-10112393Y23647895D01*
X-10112396Y23647896D01*
X-10217221Y23681955D01*
X-10322049Y23716015D01*
X-10539778Y23750500D01*
X-13460222Y23750500D01*
X-13677951Y23716015D01*
X-13887606Y23647895D01*
X-14084022Y23547815D01*
X-14262365Y23418242D01*
X-14418242Y23262365D01*
X-14547815Y23084022D01*
X-14647895Y22887606D01*
X-14716015Y22677951D01*
X-14750500Y22460222D01*
X-14750500Y22239778D01*
X-19373654Y22239778D01*
X-18871736Y22673235D01*
X-18868254Y22676132D01*
X-18031081Y23347337D01*
X-18027496Y23350105D01*
X-17166383Y23990275D01*
X-17162700Y23992911D01*
X-16278728Y24601241D01*
X-16274950Y24603740D01*
X-15369403Y25179346D01*
X-15365537Y25181706D01*
X-14439539Y25723875D01*
X-14435589Y25726092D01*
X-13490405Y26234081D01*
X-13486376Y26236152D01*
X-12523282Y26709276D01*
X-12519181Y26711198D01*
X-11539480Y27148820D01*
X-11535312Y27150592D01*
X-10540228Y27552162D01*
X-10535997Y27553780D01*
X-9526928Y27918734D01*
X-9522641Y27920196D01*
X-8500940Y28248045D01*
X-8496603Y28249350D01*
X-7463592Y28539671D01*
X-7459209Y28540817D01*
X-6416287Y28793216D01*
X-6411866Y28794201D01*
X-5360397Y29008347D01*
X-5355943Y29009169D01*
X-4297410Y29184761D01*
X-4292929Y29185421D01*
X-3228632Y29322244D01*
X-3224130Y29322739D01*
X-2155589Y29420596D01*
X-2151071Y29420927D01*
X-1079631Y29479695D01*
X-1075105Y29479860D01*
X-2265Y29499458D01*
X2265Y29499458D01*
X1075105Y29479860D01*
G37*
%TD.AperFunction*%
%TD*%
M02*
