%TF.GenerationSoftware,KiCad,Pcbnew,8.0.1*%
%TF.CreationDate,2024-08-10T23:24:57+09:00*%
%TF.ProjectId,master,6d617374-6572-42e6-9b69-6361645f7063,rev?*%
%TF.SameCoordinates,Original*%
%TF.FileFunction,Copper,L1,Top*%
%TF.FilePolarity,Positive*%
%FSLAX46Y46*%
G04 Gerber Fmt 4.6, Leading zero omitted, Abs format (unit mm)*
G04 Created by KiCad (PCBNEW 8.0.1) date 2024-08-10 23:24:57*
%MOMM*%
%LPD*%
G01*
G04 APERTURE LIST*
G04 Aperture macros list*
%AMRoundRect*
0 Rectangle with rounded corners*
0 $1 Rounding radius*
0 $2 $3 $4 $5 $6 $7 $8 $9 X,Y pos of 4 corners*
0 Add a 4 corners polygon primitive as box body*
4,1,4,$2,$3,$4,$5,$6,$7,$8,$9,$2,$3,0*
0 Add four circle primitives for the rounded corners*
1,1,$1+$1,$2,$3*
1,1,$1+$1,$4,$5*
1,1,$1+$1,$6,$7*
1,1,$1+$1,$8,$9*
0 Add four rect primitives between the rounded corners*
20,1,$1+$1,$2,$3,$4,$5,0*
20,1,$1+$1,$4,$5,$6,$7,0*
20,1,$1+$1,$6,$7,$8,$9,0*
20,1,$1+$1,$8,$9,$2,$3,0*%
G04 Aperture macros list end*
%TA.AperFunction,ComponentPad*%
%ADD10C,1.600000*%
%TD*%
%TA.AperFunction,ComponentPad*%
%ADD11O,1.600000X1.600000*%
%TD*%
%TA.AperFunction,SMDPad,CuDef*%
%ADD12RoundRect,0.225000X-0.250000X0.225000X-0.250000X-0.225000X0.250000X-0.225000X0.250000X0.225000X0*%
%TD*%
%TA.AperFunction,SMDPad,CuDef*%
%ADD13RoundRect,0.225000X0.250000X-0.225000X0.250000X0.225000X-0.250000X0.225000X-0.250000X-0.225000X0*%
%TD*%
%TA.AperFunction,ComponentPad*%
%ADD14C,1.308000*%
%TD*%
%TA.AperFunction,SMDPad,CuDef*%
%ADD15RoundRect,0.218750X0.256250X-0.218750X0.256250X0.218750X-0.256250X0.218750X-0.256250X-0.218750X0*%
%TD*%
%TA.AperFunction,SMDPad,CuDef*%
%ADD16RoundRect,0.218750X-0.218750X-0.256250X0.218750X-0.256250X0.218750X0.256250X-0.218750X0.256250X0*%
%TD*%
%TA.AperFunction,ComponentPad*%
%ADD17O,1.400000X2.100000*%
%TD*%
%TA.AperFunction,ComponentPad*%
%ADD18R,1.600000X1.600000*%
%TD*%
%TA.AperFunction,ComponentPad*%
%ADD19C,1.500000*%
%TD*%
%TA.AperFunction,ComponentPad*%
%ADD20R,1.700000X1.700000*%
%TD*%
%TA.AperFunction,ComponentPad*%
%ADD21O,1.700000X1.700000*%
%TD*%
%TA.AperFunction,ComponentPad*%
%ADD22RoundRect,0.250000X-0.750000X0.600000X-0.750000X-0.600000X0.750000X-0.600000X0.750000X0.600000X0*%
%TD*%
%TA.AperFunction,ComponentPad*%
%ADD23O,2.000000X1.700000*%
%TD*%
%TA.AperFunction,SMDPad,CuDef*%
%ADD24RoundRect,0.375000X0.625000X0.375000X-0.625000X0.375000X-0.625000X-0.375000X0.625000X-0.375000X0*%
%TD*%
%TA.AperFunction,SMDPad,CuDef*%
%ADD25RoundRect,0.500000X0.500000X1.400000X-0.500000X1.400000X-0.500000X-1.400000X0.500000X-1.400000X0*%
%TD*%
%TA.AperFunction,ViaPad*%
%ADD26C,1.000000*%
%TD*%
%TA.AperFunction,Conductor*%
%ADD27C,0.500000*%
%TD*%
%TA.AperFunction,Conductor*%
%ADD28C,1.000000*%
%TD*%
G04 APERTURE END LIST*
D10*
%TO.P,R8,1*%
%TO.N,Net-(SW2-A)*%
X2690000Y4000000D03*
D11*
%TO.P,R8,2*%
%TO.N,+3.3V*%
X10310000Y4000000D03*
%TD*%
D10*
%TO.P,R7,1*%
%TO.N,Net-(SW1-A)*%
X-10310000Y4000000D03*
D11*
%TO.P,R7,2*%
%TO.N,+3.3V*%
X-2690000Y4000000D03*
%TD*%
D10*
%TO.P,R6,1*%
%TO.N,+3.3V*%
X-50160000Y4413000D03*
D11*
%TO.P,R6,2*%
%TO.N,21*%
X-50160000Y-3207000D03*
%TD*%
D10*
%TO.P,R5,1*%
%TO.N,19*%
X3810000Y37000000D03*
D11*
%TO.P,R5,2*%
%TO.N,+3.3V*%
X-3810000Y37000000D03*
%TD*%
D10*
%TO.P,R4,1*%
%TO.N,2*%
X3810000Y34000000D03*
D11*
%TO.P,R4,2*%
%TO.N,+3.3V*%
X-3810000Y34000000D03*
%TD*%
D10*
%TO.P,R3,1*%
%TO.N,16*%
X2690000Y-6000000D03*
D11*
%TO.P,R3,2*%
%TO.N,Net-(D3-A)*%
X10310000Y-6000000D03*
%TD*%
%TO.P,R2,2*%
%TO.N,Net-(D2-A)*%
X-2690000Y-6000000D03*
D10*
%TO.P,R2,1*%
%TO.N,15*%
X-10310000Y-6000000D03*
%TD*%
%TO.P,R1,1*%
%TO.N,+3.3V*%
X-53660000Y4413000D03*
D11*
%TO.P,R1,2*%
%TO.N,Net-(D1-A)*%
X-53660000Y-3207000D03*
%TD*%
D12*
%TO.P,C3,2*%
%TO.N,GND*%
X-40330000Y8658000D03*
%TO.P,C3,1*%
%TO.N,+3.3V*%
X-40330000Y10208000D03*
%TD*%
D13*
%TO.P,C2,1*%
%TO.N,+3.3V*%
X-12580000Y27933000D03*
%TO.P,C2,2*%
%TO.N,GND*%
X-12580000Y29483000D03*
%TD*%
%TO.P,C1,2*%
%TO.N,GND*%
X-40330000Y21208000D03*
%TO.P,C1,1*%
%TO.N,Net-(J1-Pin_1)*%
X-40330000Y19658000D03*
%TD*%
D14*
%TO.P,Teensy 4.1,0,RX1*%
%TO.N,10*%
X4060000Y55753000D03*
%TO.P,Teensy 4.1,1,TX1*%
%TO.N,3*%
X1520000Y55753000D03*
%TO.P,Teensy 4.1,2,OUT2*%
%TO.N,unconnected-(U3-OUT2-Pad2)*%
X-1020000Y55753000D03*
%TO.P,Teensy 4.1,3,LRCLK2*%
%TO.N,unconnected-(U3-LRCLK2-Pad3)*%
X-3560000Y55753000D03*
%TO.P,Teensy 4.1,3.3V_1,3.3V*%
%TO.N,unconnected-(U3-3.3V-Pad3.3V_1)_0*%
X-28960000Y55753000D03*
%TO.P,Teensy 4.1,3.3V_2,3.3V*%
%TO.N,unconnected-(U3-3.3V-Pad3.3V_1)*%
X1520000Y40513000D03*
%TO.P,Teensy 4.1,4,BCLK2*%
%TO.N,unconnected-(U3-BCLK2-Pad4)*%
X-6100000Y55753000D03*
%TO.P,Teensy 4.1,5,IN2*%
%TO.N,unconnected-(U3-IN2-Pad5)*%
X-8640000Y55753000D03*
%TO.P,Teensy 4.1,6,OUT1D*%
%TO.N,unconnected-(U3-OUT1D-Pad6)*%
X-11180000Y55753000D03*
%TO.P,Teensy 4.1,7,RX2*%
%TO.N,unconnected-(U3-RX2-Pad7)*%
X-13720000Y55753000D03*
%TO.P,Teensy 4.1,8,TX2*%
%TO.N,unconnected-(U3-TX2-Pad8)*%
X-16260000Y55753000D03*
%TO.P,Teensy 4.1,9,OUT1C*%
%TO.N,unconnected-(U3-OUT1C-Pad9)*%
X-18800000Y55753000D03*
%TO.P,Teensy 4.1,10,CS1*%
%TO.N,unconnected-(U3-CS1-Pad10)*%
X-21340000Y55753000D03*
%TO.P,Teensy 4.1,11,MOSI*%
%TO.N,unconnected-(U3-MOSI-Pad11)*%
X-23880000Y55753000D03*
%TO.P,Teensy 4.1,12,MISO*%
%TO.N,unconnected-(U3-MISO-Pad12)*%
X-26420000Y55753000D03*
%TO.P,Teensy 4.1,13,SCK*%
%TO.N,unconnected-(U3-SCK-Pad13)*%
X-26420000Y40513000D03*
%TO.P,Teensy 4.1,14,A0*%
%TO.N,unconnected-(U3-A0-Pad14)*%
X-23880000Y40513000D03*
%TO.P,Teensy 4.1,15,A1*%
%TO.N,unconnected-(U3-A1-Pad15)*%
X-21340000Y40513000D03*
%TO.P,Teensy 4.1,16,A2*%
%TO.N,unconnected-(U3-A2-Pad16)*%
X-18800000Y40513000D03*
%TO.P,Teensy 4.1,17,A3*%
%TO.N,unconnected-(U3-A3-Pad17)*%
X-16260000Y40513000D03*
%TO.P,Teensy 4.1,18,A4*%
%TO.N,unconnected-(U3-A4-Pad18)*%
X-13720000Y40513000D03*
%TO.P,Teensy 4.1,19,A5*%
%TO.N,unconnected-(U3-A5-Pad19)*%
X-11180000Y40513000D03*
%TO.P,Teensy 4.1,20,A6*%
%TO.N,unconnected-(U3-A6-Pad20)*%
X-8640000Y40513000D03*
%TO.P,Teensy 4.1,21,A7*%
%TO.N,unconnected-(U3-A7-Pad21)*%
X-6100000Y40513000D03*
%TO.P,Teensy 4.1,22,A8*%
%TO.N,unconnected-(U3-A8-Pad22)*%
X-3560000Y40513000D03*
%TO.P,Teensy 4.1,23,A9*%
%TO.N,unconnected-(U3-A9-Pad23)*%
X-1020000Y40513000D03*
%TO.P,Teensy 4.1,24,A10*%
%TO.N,unconnected-(U3-A10-Pad24)*%
X-31500000Y55753000D03*
%TO.P,Teensy 4.1,25,A11*%
%TO.N,unconnected-(U3-A11-Pad25)*%
X-34040000Y55753000D03*
%TO.P,Teensy 4.1,26,A12*%
%TO.N,unconnected-(U3-A12-Pad26)*%
X-36580000Y55753000D03*
%TO.P,Teensy 4.1,27,A13*%
%TO.N,unconnected-(U3-A13-Pad27)*%
X-39120000Y55753000D03*
%TO.P,Teensy 4.1,28,RX7*%
%TO.N,unconnected-(U3-RX7-Pad28)*%
X-41660000Y55753000D03*
%TO.P,Teensy 4.1,29,TX7*%
%TO.N,unconnected-(U3-TX7-Pad29)*%
X-44200000Y55753000D03*
%TO.P,Teensy 4.1,30,CRX3*%
%TO.N,unconnected-(U3-CRX3-Pad30)*%
X-46740000Y55753000D03*
%TO.P,Teensy 4.1,31,CTX3*%
%TO.N,unconnected-(U3-CTX3-Pad31)*%
X-49280000Y55753000D03*
%TO.P,Teensy 4.1,32,OUT1B*%
%TO.N,unconnected-(U3-OUT1B-Pad32)*%
X-51820000Y55753000D03*
%TO.P,Teensy 4.1,33,MCLK2*%
%TO.N,unconnected-(U3-MCLK2-Pad33)*%
X-51820000Y40513000D03*
%TO.P,Teensy 4.1,34,RX8*%
%TO.N,unconnected-(U3-RX8-Pad34)*%
X-49280000Y40513000D03*
%TO.P,Teensy 4.1,35,TX8*%
%TO.N,unconnected-(U3-TX8-Pad35)*%
X-46740000Y40513000D03*
%TO.P,Teensy 4.1,36,CS2*%
%TO.N,unconnected-(U3-CS2-Pad36)*%
X-44200000Y40513000D03*
%TO.P,Teensy 4.1,37,CS3*%
%TO.N,unconnected-(U3-CS3-Pad37)*%
X-41660000Y40513000D03*
%TO.P,Teensy 4.1,38,A14*%
%TO.N,unconnected-(U3-A14-Pad38)*%
X-39120000Y40513000D03*
%TO.P,Teensy 4.1,39,A15*%
%TO.N,unconnected-(U3-A15-Pad39)*%
X-36580000Y40513000D03*
%TO.P,Teensy 4.1,40,A16*%
%TO.N,unconnected-(U3-A16-Pad40)*%
X-34040000Y40513000D03*
%TO.P,Teensy 4.1,41,A17*%
%TO.N,unconnected-(U3-A17-Pad41)*%
X-31500000Y40513000D03*
%TO.P,Teensy 4.1,GND1,GND*%
%TO.N,GND*%
X6600000Y55753000D03*
%TO.P,Teensy 4.1,GND2,GND*%
X-28960000Y40513000D03*
%TO.P,Teensy 4.1,GND3,GND*%
X4060000Y40513000D03*
%TO.P,Teensy 4.1,VIN,VIN*%
%TO.N,unconnected-(U3-PadVIN)*%
X6600000Y40513000D03*
%TD*%
D15*
%TO.P,Power,1,K*%
%TO.N,GND*%
X-53660000Y-7434500D03*
%TO.P,Power,2,A*%
%TO.N,Net-(D1-A)*%
X-53660000Y-5859500D03*
%TD*%
D16*
%TO.P,15/DIO12/DI1,1,K*%
%TO.N,GND*%
X-7287500Y-9500000D03*
%TO.P,15/DIO12/DI1,2,A*%
%TO.N,Net-(D2-A)*%
X-5712500Y-9500000D03*
%TD*%
D17*
%TO.P,Reset,1,1*%
%TO.N,21*%
X-43860000Y4253000D03*
%TO.P,Reset,2,2*%
%TO.N,GND*%
X-37360000Y4253000D03*
%TD*%
D18*
%TO.P,TWELITE DIP,1,GND*%
%TO.N,GND*%
X-30570000Y27933000D03*
D11*
%TO.P,TWELITE DIP,2,DIO14/SCL*%
%TO.N,2*%
X-30570000Y25393000D03*
%TO.P,TWELITE DIP,3,DIO7/RX*%
%TO.N,3*%
X-30570000Y22853000D03*
%TO.P,TWELITE DIP,4,DIO5/PWM1*%
%TO.N,4*%
X-30570000Y20313000D03*
%TO.P,TWELITE DIP,5,DIO18/DO1*%
%TO.N,5*%
X-30570000Y17773000D03*
%TO.P,TWELITE DIP,6,DO0/PWM2*%
%TO.N,6*%
X-30570000Y15233000D03*
%TO.P,TWELITE DIP,7,DO1/PWM3*%
%TO.N,7*%
X-30570000Y12693000D03*
%TO.P,TWELITE DIP,8,DIO19/DO2*%
%TO.N,8*%
X-30570000Y10153000D03*
%TO.P,TWELITE DIP,9,DIO4/DO3*%
%TO.N,9*%
X-30570000Y7613000D03*
%TO.P,TWELITE DIP,10,DIO6/TX*%
%TO.N,10*%
X-30570000Y5073000D03*
%TO.P,TWELITE DIP,11,DIO8/PWM4*%
%TO.N,11*%
X-30570000Y2533000D03*
%TO.P,TWELITE DIP,12,DIO9/DO4*%
%TO.N,12*%
X-30570000Y-7000D03*
%TO.P,TWELITE DIP,13,DIO10/M1*%
%TO.N,13*%
X-30570000Y-2547000D03*
%TO.P,TWELITE DIP,14,GND*%
%TO.N,GND*%
X-30570000Y-5087000D03*
%TO.P,TWELITE DIP,15,DIO12/DI1*%
%TO.N,15*%
X-15330000Y-5087000D03*
%TO.P,TWELITE DIP,16,DIO13/DI2*%
%TO.N,16*%
X-15330000Y-2547000D03*
%TO.P,TWELITE DIP,17,DIO11/DI3*%
%TO.N,17*%
X-15330000Y-7000D03*
%TO.P,TWELITE DIP,18,DIO16/DI4*%
%TO.N,18*%
X-15330000Y2533000D03*
%TO.P,TWELITE DIP,19,DIO15/SDA*%
%TO.N,19*%
X-15330000Y5073000D03*
%TO.P,TWELITE DIP,20,DIO17/BPS*%
%TO.N,20*%
X-15330000Y7613000D03*
%TO.P,TWELITE DIP,21,~{RESET}*%
%TO.N,21*%
X-15330000Y10153000D03*
%TO.P,TWELITE DIP,22,ADC1/AI1*%
%TO.N,22*%
X-15330000Y12693000D03*
%TO.P,TWELITE DIP,23,DIO0/AI2*%
%TO.N,23*%
X-15330000Y15233000D03*
%TO.P,TWELITE DIP,24,ADC2/AI3*%
%TO.N,24*%
X-15330000Y17773000D03*
%TO.P,TWELITE DIP,25,DIO1/AI4*%
%TO.N,25*%
X-15330000Y20313000D03*
%TO.P,TWELITE DIP,26,DIO2/M2*%
%TO.N,26*%
X-15330000Y22853000D03*
%TO.P,TWELITE DIP,27,DIO3/M3*%
%TO.N,27*%
X-15330000Y25393000D03*
%TO.P,TWELITE DIP,28,VCC*%
%TO.N,+3.3V*%
X-15330000Y27933000D03*
%TD*%
D19*
%TO.P,25/DIO1/AI4,1,A*%
%TO.N,Net-(SW2-A)*%
X4000000Y0D03*
%TO.P,25/DIO1/AI4,2,B*%
%TO.N,25*%
X6500000Y0D03*
%TO.P,25/DIO1/AI4,3,C*%
%TO.N,GND*%
X9000000Y0D03*
%TD*%
D20*
%TO.P,GND>,1,Pin_1*%
%TO.N,GND*%
X-57610000Y48663000D03*
D21*
%TO.P,GND>,2,Pin_2*%
%TO.N,10*%
X-57610000Y46123000D03*
%TO.P,GND>,3,Pin_3*%
%TO.N,7*%
X-57610000Y43583000D03*
%TO.P,GND>,4,Pin_4*%
%TO.N,3*%
X-57610000Y41043000D03*
%TO.P,GND>,5,Pin_5*%
%TO.N,21*%
X-57610000Y38503000D03*
%TO.P,GND>,6,Pin_6*%
%TO.N,unconnected-(J2-Pin_6-Pad6)*%
X-57610000Y35963000D03*
%TO.P,GND>,7,Pin_7*%
%TO.N,unconnected-(J2-Pin_7-Pad7)*%
X-57610000Y33423000D03*
%TD*%
%TO.P,Display,4,SDA*%
%TO.N,19*%
X3810000Y27500000D03*
%TO.P,Display,3,SCL*%
%TO.N,2*%
X1270000Y27500000D03*
%TO.P,Display,2,VCC*%
%TO.N,+3.3V*%
X-1270000Y27500000D03*
D20*
%TO.P,Display,1,GND*%
%TO.N,GND*%
X-3810000Y27500000D03*
%TD*%
D22*
%TO.P,Vin,1,Pin_1*%
%TO.N,Net-(J1-Pin_1)*%
X-54360000Y12003000D03*
D23*
%TO.P,Vin,2,Pin_2*%
%TO.N,GND*%
X-54360000Y9503000D03*
%TD*%
D16*
%TO.P,16/DIO13/DI2,1,K*%
%TO.N,GND*%
X5712500Y-9500000D03*
%TO.P,16/DIO13/DI2,2,A*%
%TO.N,Net-(D3-A)*%
X7287500Y-9500000D03*
%TD*%
D24*
%TO.P,3.3V,1,GND*%
%TO.N,GND*%
X-37360000Y12553000D03*
%TO.P,3.3V,2,VO*%
%TO.N,+3.3V*%
X-37360000Y14853000D03*
D25*
X-43660000Y14853000D03*
D24*
%TO.P,3.3V,3,VI*%
%TO.N,Net-(J1-Pin_1)*%
X-37360000Y17153000D03*
%TD*%
D19*
%TO.P,23/DIO0/AI2,1,A*%
%TO.N,Net-(SW1-A)*%
X-9000000Y0D03*
%TO.P,23/DIO0/AI2,2,B*%
%TO.N,23*%
X-6500000Y0D03*
%TO.P,23/DIO0/AI2,3,C*%
%TO.N,GND*%
X-4000000Y0D03*
%TD*%
D26*
%TO.N,+3.3V*%
X-34730000Y19543000D03*
%TD*%
D27*
%TO.N,Net-(D3-A)*%
X10310000Y-6477500D02*
X7287500Y-9500000D01*
X10310000Y-6000000D02*
X10310000Y-6477500D01*
%TO.N,Net-(D2-A)*%
X-2690000Y-6477500D02*
X-5712500Y-9500000D01*
X-2690000Y-6000000D02*
X-2690000Y-6477500D01*
%TO.N,16*%
X-763000Y-2547000D02*
X2690000Y-6000000D01*
X-15330000Y-2547000D02*
X-763000Y-2547000D01*
%TO.N,15*%
X-15330000Y-5087000D02*
X-11223000Y-5087000D01*
X-11223000Y-5087000D02*
X-10310000Y-6000000D01*
D28*
%TO.N,+3.3V*%
X-3810000Y34000000D02*
X-1270000Y31460000D01*
X-1270000Y31460000D02*
X-1270000Y27500000D01*
X-3810000Y37000000D02*
X-3810000Y34000000D01*
X-9877000Y27933000D02*
X-3810000Y34000000D01*
X-12580000Y27933000D02*
X-9877000Y27933000D01*
D27*
%TO.N,19*%
X5164000Y35646000D02*
X3810000Y37000000D01*
X3810000Y27500000D02*
X5164000Y28854000D01*
X5164000Y28854000D02*
X5164000Y35646000D01*
%TO.N,2*%
X3810000Y34000000D02*
X3810000Y30040000D01*
X3810000Y30040000D02*
X1270000Y27500000D01*
%TO.N,Net-(SW2-A)*%
X4000000Y2690000D02*
X4000000Y0D01*
X2690000Y4000000D02*
X4000000Y2690000D01*
%TO.N,Net-(SW1-A)*%
X-9000000Y2690000D02*
X-10310000Y4000000D01*
X-9000000Y0D02*
X-9000000Y2690000D01*
%TO.N,25*%
X-8813000Y20313000D02*
X-15330000Y20313000D01*
X6500000Y5000000D02*
X-8813000Y20313000D01*
X6500000Y0D02*
X6500000Y5000000D01*
%TO.N,23*%
X-6500000Y6403000D02*
X-15330000Y15233000D01*
X-6500000Y0D02*
X-6500000Y6403000D01*
D28*
%TO.N,+3.3V*%
X-43660000Y10913000D02*
X-44365000Y10208000D01*
X-43660000Y14853000D02*
X-43660000Y10913000D01*
X-40330000Y10208000D02*
X-44365000Y10208000D01*
X-44365000Y10208000D02*
X-50160000Y4413000D01*
%TO.N,Net-(J1-Pin_1)*%
X-46705000Y19658000D02*
X-40330000Y19658000D01*
X-54360000Y12003000D02*
X-46705000Y19658000D01*
X-39865000Y19658000D02*
X-37360000Y17153000D01*
X-40330000Y19658000D02*
X-39865000Y19658000D01*
%TO.N,+3.3V*%
X-12580000Y27933000D02*
X-15330000Y27933000D01*
D27*
%TO.N,Net-(D1-A)*%
X-53660000Y-5859500D02*
X-53660000Y-3207000D01*
%TO.N,21*%
X-43860000Y3093000D02*
X-50160000Y-3207000D01*
X-43860000Y4253000D02*
X-43860000Y3093000D01*
D28*
%TO.N,+3.3V*%
X-53660000Y4413000D02*
X-50160000Y4413000D01*
X-37139720Y14853000D02*
X-43660000Y14853000D01*
X-34730000Y17262720D02*
X-37139720Y14853000D01*
X-34730000Y19543000D02*
X-34730000Y17262720D01*
D27*
%TO.N,3*%
X-9860000Y44373000D02*
X1520000Y55753000D01*
X-9860000Y37003000D02*
X-9860000Y44373000D01*
X-24010000Y22853000D02*
X-9860000Y37003000D01*
X-30570000Y22853000D02*
X-24010000Y22853000D01*
%TO.N,10*%
X-7296000Y44397000D02*
X4060000Y55753000D01*
X-7296000Y38067000D02*
X-7296000Y44397000D01*
X-17360000Y18283000D02*
X-17360000Y28003000D01*
X-30570000Y5073000D02*
X-17360000Y18283000D01*
X-17360000Y28003000D02*
X-7296000Y38067000D01*
%TO.N,3*%
X-39420000Y22853000D02*
X-30570000Y22853000D01*
X-57610000Y41043000D02*
X-39420000Y22853000D01*
%TD*%
%TA.AperFunction,Conductor*%
%TO.N,GND*%
G36*
X11342703Y62202382D02*
G01*
X11726750Y62185614D01*
X11737526Y62184671D01*
X12115957Y62134849D01*
X12126610Y62132971D01*
X12499272Y62050354D01*
X12509721Y62047554D01*
X12873755Y61932775D01*
X12883921Y61929075D01*
X13236572Y61783002D01*
X13246376Y61778430D01*
X13584942Y61602183D01*
X13594310Y61596775D01*
X13916244Y61391681D01*
X13925105Y61385476D01*
X14227930Y61153110D01*
X14236217Y61146156D01*
X14517635Y60888284D01*
X14525284Y60880635D01*
X14783156Y60599217D01*
X14790110Y60590930D01*
X15022476Y60288105D01*
X15028681Y60279244D01*
X15233775Y59957310D01*
X15239183Y59947942D01*
X15415430Y59609376D01*
X15420002Y59599572D01*
X15566075Y59246921D01*
X15569775Y59236755D01*
X15684554Y58872721D01*
X15687354Y58862272D01*
X15769971Y58489610D01*
X15771849Y58478957D01*
X15821671Y58100526D01*
X15822614Y58089750D01*
X15839382Y57705702D01*
X15839500Y57700293D01*
X15839500Y-7294293D01*
X15839382Y-7299702D01*
X15822614Y-7683750D01*
X15821671Y-7694526D01*
X15771849Y-8072957D01*
X15769971Y-8083610D01*
X15687354Y-8456272D01*
X15684554Y-8466721D01*
X15569775Y-8830755D01*
X15566075Y-8840921D01*
X15420002Y-9193572D01*
X15415430Y-9203376D01*
X15239183Y-9541942D01*
X15233775Y-9551310D01*
X15028681Y-9873244D01*
X15022476Y-9882105D01*
X14790110Y-10184930D01*
X14783156Y-10193217D01*
X14525284Y-10474635D01*
X14517635Y-10482284D01*
X14236217Y-10740156D01*
X14227930Y-10747110D01*
X13925105Y-10979476D01*
X13916244Y-10985681D01*
X13594310Y-11190775D01*
X13584942Y-11196183D01*
X13246376Y-11372430D01*
X13236572Y-11377002D01*
X12883921Y-11523075D01*
X12873755Y-11526775D01*
X12509721Y-11641554D01*
X12499272Y-11644354D01*
X12126610Y-11726971D01*
X12115957Y-11728849D01*
X11737526Y-11778671D01*
X11726750Y-11779614D01*
X11342703Y-11796382D01*
X11337294Y-11796500D01*
X-63657294Y-11796500D01*
X-63662703Y-11796382D01*
X-64046750Y-11779614D01*
X-64057526Y-11778671D01*
X-64435957Y-11728849D01*
X-64446610Y-11726971D01*
X-64819272Y-11644354D01*
X-64829721Y-11641554D01*
X-65193755Y-11526775D01*
X-65203921Y-11523075D01*
X-65556572Y-11377002D01*
X-65566376Y-11372430D01*
X-65904942Y-11196183D01*
X-65914310Y-11190775D01*
X-66236244Y-10985681D01*
X-66245105Y-10979476D01*
X-66547930Y-10747110D01*
X-66556217Y-10740156D01*
X-66837635Y-10482284D01*
X-66845284Y-10474635D01*
X-67103156Y-10193217D01*
X-67110110Y-10184930D01*
X-67342476Y-9882105D01*
X-67348681Y-9873244D01*
X-67427196Y-9750000D01*
X-8224999Y-9750000D01*
X-8224999Y-9804135D01*
X-8224998Y-9804152D01*
X-8214943Y-9902583D01*
X-8162093Y-10062072D01*
X-8162091Y-10062077D01*
X-8073885Y-10205080D01*
X-7955080Y-10323885D01*
X-7812077Y-10412091D01*
X-7812072Y-10412093D01*
X-7652583Y-10464942D01*
X-7554143Y-10474999D01*
X-7037500Y-10474999D01*
X-7020864Y-10474999D01*
X-7020847Y-10474998D01*
X-6922416Y-10464943D01*
X-6762927Y-10412093D01*
X-6762922Y-10412091D01*
X-6619919Y-10323885D01*
X-6588034Y-10292000D01*
X-6526711Y-10258515D01*
X-6457019Y-10263499D01*
X-6412672Y-10292000D01*
X-6380391Y-10324281D01*
X-6237287Y-10412549D01*
X-6077685Y-10465436D01*
X-5979174Y-10475500D01*
X-5979169Y-10475500D01*
X-5445831Y-10475500D01*
X-5445826Y-10475500D01*
X-5347315Y-10465436D01*
X-5187713Y-10412549D01*
X-5187707Y-10412545D01*
X-5187704Y-10412544D01*
X-5044612Y-10324283D01*
X-5044608Y-10324280D01*
X-4925719Y-10205391D01*
X-4925716Y-10205387D01*
X-4837455Y-10062295D01*
X-4837450Y-10062284D01*
X-4836983Y-10060876D01*
X-4784564Y-9902685D01*
X-4784564Y-9902683D01*
X-4784563Y-9902683D01*
X-4774500Y-9804181D01*
X-4774500Y-9750000D01*
X4775001Y-9750000D01*
X4775001Y-9804152D01*
X4785056Y-9902583D01*
X4837906Y-10062072D01*
X4837908Y-10062077D01*
X4926114Y-10205080D01*
X5044919Y-10323885D01*
X5187922Y-10412091D01*
X5187927Y-10412093D01*
X5347416Y-10464942D01*
X5445856Y-10474999D01*
X5962500Y-10474999D01*
X5979136Y-10474999D01*
X5979152Y-10474998D01*
X6077583Y-10464943D01*
X6237072Y-10412093D01*
X6237077Y-10412091D01*
X6380080Y-10323885D01*
X6411966Y-10292000D01*
X6473289Y-10258515D01*
X6542981Y-10263499D01*
X6587328Y-10292000D01*
X6619608Y-10324280D01*
X6619612Y-10324283D01*
X6762704Y-10412544D01*
X6762707Y-10412545D01*
X6762713Y-10412549D01*
X6922315Y-10465436D01*
X7020826Y-10475500D01*
X7020831Y-10475500D01*
X7554169Y-10475500D01*
X7554174Y-10475500D01*
X7652685Y-10465436D01*
X7812287Y-10412549D01*
X7955391Y-10324281D01*
X8074281Y-10205391D01*
X8162549Y-10062287D01*
X8215436Y-9902685D01*
X8225500Y-9804174D01*
X8225500Y-9674728D01*
X8245185Y-9607689D01*
X8261814Y-9587052D01*
X10549453Y-7299412D01*
X10605037Y-7267321D01*
X10705221Y-7240477D01*
X10756486Y-7226742D01*
X10756489Y-7226740D01*
X10756496Y-7226739D01*
X10962734Y-7130568D01*
X11149139Y-7000047D01*
X11310047Y-6839139D01*
X11440568Y-6652734D01*
X11536739Y-6446496D01*
X11595635Y-6226692D01*
X11615468Y-6000000D01*
X11595635Y-5773308D01*
X11536739Y-5553504D01*
X11440568Y-5347266D01*
X11310047Y-5160861D01*
X11310045Y-5160858D01*
X11149141Y-4999954D01*
X10962734Y-4869432D01*
X10962732Y-4869431D01*
X10756497Y-4773261D01*
X10756488Y-4773258D01*
X10536697Y-4714366D01*
X10536693Y-4714365D01*
X10536692Y-4714365D01*
X10536691Y-4714364D01*
X10536686Y-4714364D01*
X10310002Y-4694532D01*
X10309998Y-4694532D01*
X10083313Y-4714364D01*
X10083302Y-4714366D01*
X9863511Y-4773258D01*
X9863502Y-4773261D01*
X9657267Y-4869431D01*
X9657265Y-4869432D01*
X9470858Y-4999954D01*
X9309954Y-5160858D01*
X9179432Y-5347265D01*
X9179431Y-5347267D01*
X9083261Y-5553502D01*
X9083258Y-5553511D01*
X9024366Y-5773302D01*
X9024364Y-5773313D01*
X9004532Y-5999998D01*
X9004532Y-6000001D01*
X9024364Y-6226686D01*
X9024366Y-6226697D01*
X9083258Y-6446488D01*
X9083261Y-6446496D01*
X9109017Y-6501730D01*
X9119509Y-6570806D01*
X9090989Y-6634590D01*
X9084316Y-6641815D01*
X7237951Y-8488181D01*
X7176628Y-8521666D01*
X7150270Y-8524500D01*
X7020818Y-8524500D01*
X6922316Y-8534563D01*
X6922315Y-8534564D01*
X6843219Y-8560773D01*
X6762715Y-8587450D01*
X6762704Y-8587455D01*
X6619612Y-8675716D01*
X6619607Y-8675719D01*
X6587327Y-8708000D01*
X6526003Y-8741485D01*
X6456312Y-8736499D01*
X6411967Y-8708000D01*
X6380080Y-8676114D01*
X6237077Y-8587908D01*
X6237072Y-8587906D01*
X6077583Y-8535057D01*
X5979150Y-8525000D01*
X5962500Y-8525000D01*
X5962500Y-10474999D01*
X5445856Y-10474999D01*
X5462500Y-10474998D01*
X5462500Y-9750000D01*
X4775001Y-9750000D01*
X-4774500Y-9750000D01*
X-4774500Y-9674729D01*
X-4754815Y-9607690D01*
X-4738181Y-9587048D01*
X-4401133Y-9250000D01*
X4775000Y-9250000D01*
X5462500Y-9250000D01*
X5462500Y-8524999D01*
X5445856Y-8525000D01*
X5347415Y-8535057D01*
X5187927Y-8587906D01*
X5187922Y-8587908D01*
X5044919Y-8676114D01*
X4926114Y-8794919D01*
X4837908Y-8937922D01*
X4837906Y-8937927D01*
X4785057Y-9097416D01*
X4775000Y-9195849D01*
X4775000Y-9250000D01*
X-4401133Y-9250000D01*
X-2450547Y-7299414D01*
X-2394959Y-7267320D01*
X-2342523Y-7253270D01*
X-2243513Y-7226742D01*
X-2243506Y-7226739D01*
X-2243504Y-7226739D01*
X-2037266Y-7130568D01*
X-1850861Y-7000047D01*
X-1850858Y-7000045D01*
X-1689954Y-6839141D01*
X-1559432Y-6652734D01*
X-1559431Y-6652732D01*
X-1463261Y-6446497D01*
X-1463258Y-6446488D01*
X-1404366Y-6226697D01*
X-1404364Y-6226686D01*
X-1384532Y-6000001D01*
X-1384532Y-5999998D01*
X-1404364Y-5773313D01*
X-1404366Y-5773302D01*
X-1463258Y-5553511D01*
X-1463261Y-5553502D01*
X-1559431Y-5347267D01*
X-1559432Y-5347265D01*
X-1689954Y-5160858D01*
X-1850858Y-4999954D01*
X-2037265Y-4869432D01*
X-2037267Y-4869431D01*
X-2243502Y-4773261D01*
X-2243511Y-4773258D01*
X-2463302Y-4714366D01*
X-2463313Y-4714364D01*
X-2689998Y-4694532D01*
X-2690002Y-4694532D01*
X-2916686Y-4714364D01*
X-2916691Y-4714364D01*
X-2916692Y-4714365D01*
X-2916693Y-4714365D01*
X-2916697Y-4714366D01*
X-3136488Y-4773258D01*
X-3136497Y-4773261D01*
X-3342732Y-4869431D01*
X-3342734Y-4869432D01*
X-3529141Y-4999954D01*
X-3690045Y-5160858D01*
X-3690047Y-5160861D01*
X-3820568Y-5347266D01*
X-3916739Y-5553504D01*
X-3975635Y-5773308D01*
X-3995468Y-6000000D01*
X-3975635Y-6226692D01*
X-3916739Y-6446496D01*
X-3890981Y-6501732D01*
X-3880490Y-6570806D01*
X-3909009Y-6634591D01*
X-3915683Y-6641816D01*
X-5762049Y-8488181D01*
X-5823372Y-8521666D01*
X-5849730Y-8524500D01*
X-5979181Y-8524500D01*
X-6077683Y-8534563D01*
X-6077685Y-8534564D01*
X-6237287Y-8587451D01*
X-6237289Y-8587452D01*
X-6237295Y-8587455D01*
X-6380387Y-8675716D01*
X-6380392Y-8675719D01*
X-6412673Y-8708000D01*
X-6473997Y-8741485D01*
X-6543688Y-8736499D01*
X-6588033Y-8708000D01*
X-6619919Y-8676114D01*
X-6762922Y-8587908D01*
X-6762927Y-8587906D01*
X-6922416Y-8535057D01*
X-7020849Y-8525000D01*
X-7037500Y-8525000D01*
X-7037500Y-10474999D01*
X-7554143Y-10474999D01*
X-7537500Y-10474998D01*
X-7537500Y-9750000D01*
X-8224999Y-9750000D01*
X-67427196Y-9750000D01*
X-67553775Y-9551310D01*
X-67559183Y-9541942D01*
X-67711159Y-9250000D01*
X-8225000Y-9250000D01*
X-7537500Y-9250000D01*
X-7537500Y-8524999D01*
X-7554143Y-8525000D01*
X-7652584Y-8535057D01*
X-7812072Y-8587906D01*
X-7812077Y-8587908D01*
X-7955080Y-8676114D01*
X-8073885Y-8794919D01*
X-8162091Y-8937922D01*
X-8162093Y-8937927D01*
X-8214942Y-9097416D01*
X-8224999Y-9195849D01*
X-8225000Y-9195862D01*
X-8225000Y-9250000D01*
X-67711159Y-9250000D01*
X-67735430Y-9203376D01*
X-67740002Y-9193572D01*
X-67886075Y-8840921D01*
X-67889775Y-8830755D01*
X-68004554Y-8466721D01*
X-68007354Y-8456272D01*
X-68089971Y-8083610D01*
X-68091849Y-8072957D01*
X-68141671Y-7694526D01*
X-68142548Y-7684500D01*
X-54634999Y-7684500D01*
X-54634999Y-7701135D01*
X-54634998Y-7701152D01*
X-54624943Y-7799583D01*
X-54572093Y-7959072D01*
X-54572091Y-7959077D01*
X-54483885Y-8102080D01*
X-54365080Y-8220885D01*
X-54222077Y-8309091D01*
X-54222072Y-8309093D01*
X-54062583Y-8361942D01*
X-53964144Y-8371999D01*
X-53910000Y-8371998D01*
X-53910000Y-7684500D01*
X-53410000Y-7684500D01*
X-53410000Y-8371999D01*
X-53355864Y-8371999D01*
X-53355847Y-8371998D01*
X-53257416Y-8361943D01*
X-53097927Y-8309093D01*
X-53097922Y-8309091D01*
X-52954919Y-8220885D01*
X-52836114Y-8102080D01*
X-52747908Y-7959077D01*
X-52747906Y-7959072D01*
X-52695057Y-7799583D01*
X-52685000Y-7701150D01*
X-52685000Y-7684500D01*
X-53410000Y-7684500D01*
X-53910000Y-7684500D01*
X-54634999Y-7684500D01*
X-68142548Y-7684500D01*
X-68142614Y-7683750D01*
X-68159382Y-7299702D01*
X-68159500Y-7294293D01*
X-68159500Y-3207000D01*
X-54965468Y-3207000D01*
X-54945635Y-3433692D01*
X-54886739Y-3653496D01*
X-54790568Y-3859734D01*
X-54660047Y-4046139D01*
X-54660045Y-4046141D01*
X-54499140Y-4207046D01*
X-54463379Y-4232086D01*
X-54419753Y-4286662D01*
X-54410500Y-4333662D01*
X-54410500Y-5066466D01*
X-54430185Y-5133505D01*
X-54446819Y-5154147D01*
X-54484280Y-5191608D01*
X-54484283Y-5191612D01*
X-54572544Y-5334704D01*
X-54572545Y-5334707D01*
X-54572549Y-5334713D01*
X-54625436Y-5494315D01*
X-54635500Y-5592826D01*
X-54635500Y-6126174D01*
X-54625436Y-6224685D01*
X-54572549Y-6384287D01*
X-54484281Y-6527391D01*
X-54452000Y-6559672D01*
X-54418515Y-6620995D01*
X-54423499Y-6690687D01*
X-54452000Y-6735034D01*
X-54483885Y-6766919D01*
X-54572091Y-6909922D01*
X-54572093Y-6909927D01*
X-54624942Y-7069416D01*
X-54634999Y-7167849D01*
X-54635000Y-7167862D01*
X-54635000Y-7184500D01*
X-52685001Y-7184500D01*
X-52685001Y-7167847D01*
X-52695056Y-7069416D01*
X-52747906Y-6909927D01*
X-52747908Y-6909922D01*
X-52836114Y-6766919D01*
X-52868000Y-6735033D01*
X-52901485Y-6673709D01*
X-52896499Y-6604018D01*
X-52868000Y-6559673D01*
X-52835719Y-6527392D01*
X-52835716Y-6527387D01*
X-52747455Y-6384295D01*
X-52747450Y-6384284D01*
X-52741349Y-6365871D01*
X-52694564Y-6224685D01*
X-52694564Y-6224683D01*
X-52694563Y-6224683D01*
X-52684500Y-6126181D01*
X-52684500Y-5592818D01*
X-52694563Y-5494316D01*
X-52747450Y-5334715D01*
X-52747455Y-5334704D01*
X-52835716Y-5191612D01*
X-52835719Y-5191608D01*
X-52873181Y-5154147D01*
X-52906666Y-5092824D01*
X-52909500Y-5066466D01*
X-52909500Y-4333662D01*
X-52889815Y-4266623D01*
X-52856621Y-4232086D01*
X-52820859Y-4207046D01*
X-52659954Y-4046141D01*
X-52529432Y-3859734D01*
X-52529431Y-3859732D01*
X-52433261Y-3653497D01*
X-52433258Y-3653488D01*
X-52374366Y-3433697D01*
X-52374364Y-3433686D01*
X-52354532Y-3207001D01*
X-52354532Y-3207000D01*
X-51465468Y-3207000D01*
X-51445635Y-3433692D01*
X-51386739Y-3653496D01*
X-51290568Y-3859734D01*
X-51160047Y-4046139D01*
X-50999139Y-4207047D01*
X-50812734Y-4337568D01*
X-50606496Y-4433739D01*
X-50386692Y-4492635D01*
X-50216673Y-4507509D01*
X-50160002Y-4512468D01*
X-50160000Y-4512468D01*
X-50159998Y-4512468D01*
X-50095230Y-4506801D01*
X-49933308Y-4492635D01*
X-49766415Y-4447916D01*
X-49713511Y-4433741D01*
X-49713509Y-4433740D01*
X-49713504Y-4433739D01*
X-49507266Y-4337568D01*
X-49320861Y-4207047D01*
X-49320858Y-4207045D01*
X-49159954Y-4046141D01*
X-49029432Y-3859734D01*
X-49029431Y-3859732D01*
X-48933261Y-3653497D01*
X-48933258Y-3653488D01*
X-48874366Y-3433697D01*
X-48874364Y-3433686D01*
X-48854532Y-3207001D01*
X-48854532Y-3206996D01*
X-48869129Y-3040137D01*
X-48855362Y-2971637D01*
X-48833282Y-2941650D01*
X-43277051Y2614580D01*
X-43277048Y2614584D01*
X-43194919Y2737498D01*
X-43194912Y2737511D01*
X-43138343Y2874082D01*
X-43138340Y2874094D01*
X-43131690Y2907526D01*
X-43099305Y2969437D01*
X-43082966Y2983648D01*
X-43077929Y2987307D01*
X-42944312Y3120924D01*
X-42944312Y3120925D01*
X-42944310Y3120927D01*
X-42880334Y3208982D01*
X-42833240Y3273800D01*
X-42747454Y3442163D01*
X-42689059Y3621881D01*
X-42659500Y3808513D01*
X-42659500Y3808552D01*
X-38560000Y3808552D01*
X-38530451Y3621997D01*
X-38472085Y3442362D01*
X-38386329Y3274059D01*
X-38275314Y3121258D01*
X-38275310Y3121253D01*
X-38141746Y2987689D01*
X-38141741Y2987685D01*
X-37988940Y2876670D01*
X-37820635Y2790913D01*
X-37641004Y2732549D01*
X-37640995Y2732547D01*
X-37610000Y2727637D01*
X-37610000Y3587314D01*
X-37605606Y3582920D01*
X-37514394Y3530259D01*
X-37412661Y3503000D01*
X-37307339Y3503000D01*
X-37205606Y3530259D01*
X-37114394Y3582920D01*
X-37110000Y3587314D01*
X-37110000Y2727637D01*
X-37109999Y2727637D01*
X-37079004Y2732547D01*
X-37078995Y2732549D01*
X-36899364Y2790913D01*
X-36731059Y2876670D01*
X-36578258Y2987685D01*
X-36578253Y2987689D01*
X-36444689Y3121253D01*
X-36444685Y3121258D01*
X-36333670Y3274059D01*
X-36247914Y3442362D01*
X-36189548Y3621997D01*
X-36160000Y3808552D01*
X-36160000Y4003000D01*
X-36960000Y4003000D01*
X-36960000Y4503000D01*
X-36160000Y4503000D01*
X-36160000Y4697447D01*
X-36189548Y4884002D01*
X-36247914Y5063637D01*
X-36333670Y5231940D01*
X-36444685Y5384741D01*
X-36444689Y5384746D01*
X-36578253Y5518310D01*
X-36578258Y5518314D01*
X-36731059Y5629329D01*
X-36899362Y5715085D01*
X-37078997Y5773451D01*
X-37110000Y5778362D01*
X-37110000Y4918686D01*
X-37114394Y4923080D01*
X-37205606Y4975741D01*
X-37307339Y5003000D01*
X-37412661Y5003000D01*
X-37514394Y4975741D01*
X-37605606Y4923080D01*
X-37610000Y4918686D01*
X-37610000Y5778361D01*
X-37641002Y5773451D01*
X-37820637Y5715085D01*
X-37988940Y5629329D01*
X-38141741Y5518314D01*
X-38141746Y5518310D01*
X-38275310Y5384746D01*
X-38275314Y5384741D01*
X-38386329Y5231940D01*
X-38472085Y5063637D01*
X-38530451Y4884002D01*
X-38560000Y4697447D01*
X-38560000Y4503000D01*
X-37760000Y4503000D01*
X-37760000Y4003000D01*
X-38560000Y4003000D01*
X-38560000Y3808552D01*
X-42659500Y3808552D01*
X-42659500Y4697486D01*
X-42689059Y4884118D01*
X-42747454Y5063836D01*
X-42833240Y5232199D01*
X-42847729Y5252141D01*
X-42944310Y5385073D01*
X-43077927Y5518690D01*
X-43230801Y5629760D01*
X-43365976Y5698635D01*
X-43399163Y5715545D01*
X-43399165Y5715545D01*
X-43399168Y5715547D01*
X-43495497Y5746846D01*
X-43578881Y5773940D01*
X-43765514Y5803500D01*
X-43765519Y5803500D01*
X-43954481Y5803500D01*
X-43954486Y5803500D01*
X-44113205Y5778361D01*
X-44141118Y5773940D01*
X-44320832Y5715547D01*
X-44489199Y5629760D01*
X-44642073Y5518690D01*
X-44775690Y5385073D01*
X-44886760Y5232199D01*
X-44972547Y5063832D01*
X-45018280Y4923080D01*
X-45030940Y4884118D01*
X-45060500Y4697486D01*
X-45060500Y3808513D01*
X-45030940Y3621881D01*
X-44972545Y3442163D01*
X-44936867Y3372141D01*
X-44891158Y3282432D01*
X-44886755Y3273792D01*
X-44884214Y3269645D01*
X-44885388Y3268925D01*
X-44864009Y3208982D01*
X-44879843Y3140930D01*
X-44900123Y3114242D01*
X-49101034Y-1086666D01*
X-49894650Y-1880282D01*
X-49955973Y-1913767D01*
X-49993137Y-1916129D01*
X-50159997Y-1901532D01*
X-50160002Y-1901532D01*
X-50386686Y-1921364D01*
X-50386691Y-1921364D01*
X-50386692Y-1921365D01*
X-50386693Y-1921365D01*
X-50386697Y-1921366D01*
X-50606488Y-1980258D01*
X-50606497Y-1980261D01*
X-50812732Y-2076431D01*
X-50812734Y-2076432D01*
X-50999141Y-2206954D01*
X-51160045Y-2367858D01*
X-51160047Y-2367861D01*
X-51290568Y-2554266D01*
X-51386739Y-2760504D01*
X-51445635Y-2980308D01*
X-51465468Y-3207000D01*
X-52354532Y-3207000D01*
X-52354532Y-3206998D01*
X-52374364Y-2980313D01*
X-52374366Y-2980302D01*
X-52433258Y-2760511D01*
X-52433261Y-2760502D01*
X-52529431Y-2554267D01*
X-52529432Y-2554265D01*
X-52659954Y-2367858D01*
X-52820858Y-2206954D01*
X-53007265Y-2076432D01*
X-53007267Y-2076431D01*
X-53213502Y-1980261D01*
X-53213511Y-1980258D01*
X-53433302Y-1921366D01*
X-53433313Y-1921364D01*
X-53659998Y-1901532D01*
X-53660002Y-1901532D01*
X-53886686Y-1921364D01*
X-53886691Y-1921364D01*
X-53886692Y-1921365D01*
X-53886693Y-1921365D01*
X-53886697Y-1921366D01*
X-54106488Y-1980258D01*
X-54106497Y-1980261D01*
X-54312732Y-2076431D01*
X-54312734Y-2076432D01*
X-54499141Y-2206954D01*
X-54660045Y-2367858D01*
X-54660047Y-2367861D01*
X-54790568Y-2554266D01*
X-54886739Y-2760504D01*
X-54945635Y-2980308D01*
X-54965468Y-3207000D01*
X-68159500Y-3207000D01*
X-68159500Y12653009D01*
X-55860500Y12653009D01*
X-55860499Y11874476D01*
X-55860499Y11352998D01*
X-55860498Y11352981D01*
X-55853407Y11283568D01*
X-55849999Y11250203D01*
X-55794814Y11083666D01*
X-55702712Y10934344D01*
X-55578656Y10810288D01*
X-55429334Y10718186D01*
X-55429332Y10718185D01*
X-55423440Y10714551D01*
X-55376716Y10662603D01*
X-55365493Y10593641D01*
X-55393337Y10529558D01*
X-55400856Y10521330D01*
X-55539728Y10382458D01*
X-55664620Y10210557D01*
X-55761095Y10021217D01*
X-55826757Y9819129D01*
X-55826757Y9819126D01*
X-55837231Y9753000D01*
X-54793012Y9753000D01*
X-54825925Y9695993D01*
X-54860000Y9568826D01*
X-54860000Y9437174D01*
X-54825925Y9310007D01*
X-54793012Y9253000D01*
X-55837231Y9253000D01*
X-55826757Y9186873D01*
X-55826757Y9186870D01*
X-55761095Y8984782D01*
X-55664620Y8795442D01*
X-55539727Y8623540D01*
X-55539723Y8623535D01*
X-55389464Y8473276D01*
X-55389459Y8473272D01*
X-55217557Y8348379D01*
X-55028217Y8251904D01*
X-54826129Y8186242D01*
X-54616246Y8153000D01*
X-54610000Y8153000D01*
X-54610000Y9069988D01*
X-54552993Y9037075D01*
X-54425826Y9003000D01*
X-54294174Y9003000D01*
X-54167007Y9037075D01*
X-54110000Y9069988D01*
X-54110000Y8153000D01*
X-54103754Y8153000D01*
X-53893872Y8186242D01*
X-53893869Y8186242D01*
X-53691782Y8251904D01*
X-53502442Y8348379D01*
X-53330540Y8473272D01*
X-53330535Y8473276D01*
X-53180276Y8623535D01*
X-53180272Y8623540D01*
X-53055379Y8795442D01*
X-52958904Y8984782D01*
X-52893242Y9186870D01*
X-52893242Y9186873D01*
X-52882769Y9253000D01*
X-53926988Y9253000D01*
X-53894075Y9310007D01*
X-53860000Y9437174D01*
X-53860000Y9568826D01*
X-53894075Y9695993D01*
X-53926988Y9753000D01*
X-52882769Y9753000D01*
X-52893242Y9819126D01*
X-52893242Y9819129D01*
X-52958904Y10021217D01*
X-53055379Y10210557D01*
X-53180272Y10382459D01*
X-53180276Y10382464D01*
X-53319143Y10521331D01*
X-53352628Y10582654D01*
X-53347644Y10652346D01*
X-53305772Y10708279D01*
X-53296559Y10714551D01*
X-53141342Y10810289D01*
X-53017289Y10934342D01*
X-52925187Y11083663D01*
X-52925185Y11083668D01*
X-52870001Y11250204D01*
X-52870000Y11250204D01*
X-52859500Y11352983D01*
X-52859500Y12037217D01*
X-52839815Y12104256D01*
X-52823181Y12124898D01*
X-46326899Y18621181D01*
X-46265576Y18654666D01*
X-46239218Y18657500D01*
X-40428541Y18657500D01*
X-40330782Y18657500D01*
X-40263743Y18637815D01*
X-40243101Y18621181D01*
X-38896818Y17274898D01*
X-38863333Y17213575D01*
X-38860499Y17187217D01*
X-38860499Y16701878D01*
X-38857600Y16659111D01*
X-38811641Y16474307D01*
X-38811639Y16474303D01*
X-38727032Y16303707D01*
X-38727030Y16303704D01*
X-38607722Y16155278D01*
X-38607721Y16155277D01*
X-38538514Y16099647D01*
X-38498595Y16042304D01*
X-38496015Y15972482D01*
X-38531594Y15912349D01*
X-38538502Y15906362D01*
X-38570238Y15880851D01*
X-38634820Y15854194D01*
X-38647924Y15853500D01*
X-42035501Y15853500D01*
X-42102540Y15873185D01*
X-42148295Y15925989D01*
X-42159501Y15977500D01*
X-42159501Y16311034D01*
X-42170113Y16430415D01*
X-42226089Y16626045D01*
X-42265699Y16701874D01*
X-42320302Y16806407D01*
X-42354977Y16848933D01*
X-42448890Y16964109D01*
X-42542803Y17040684D01*
X-42606593Y17092698D01*
X-42786951Y17186909D01*
X-42982582Y17242886D01*
X-43101963Y17253500D01*
X-44218036Y17253499D01*
X-44337418Y17242886D01*
X-44533049Y17186909D01*
X-44713407Y17092698D01*
X-44871109Y16964109D01*
X-44999698Y16806407D01*
X-45093909Y16626049D01*
X-45149886Y16430418D01*
X-45160500Y16311037D01*
X-45160499Y13394964D01*
X-45149886Y13275582D01*
X-45093909Y13079951D01*
X-44999698Y12899593D01*
X-44985977Y12882766D01*
X-44871109Y12741890D01*
X-44708533Y12609328D01*
X-44709892Y12607660D01*
X-44671117Y12561850D01*
X-44660500Y12511648D01*
X-44660500Y11378781D01*
X-44680185Y11311742D01*
X-44696815Y11291104D01*
X-44992571Y10995347D01*
X-44992576Y10995344D01*
X-45002779Y10985140D01*
X-45002781Y10985140D01*
X-50248034Y5739885D01*
X-50309355Y5706402D01*
X-50324900Y5704041D01*
X-50386692Y5698635D01*
X-50606496Y5639739D01*
X-50812734Y5543568D01*
X-50905784Y5478414D01*
X-50966465Y5435925D01*
X-51032671Y5413598D01*
X-51037588Y5413500D01*
X-52782412Y5413500D01*
X-52849451Y5433185D01*
X-52853535Y5435925D01*
X-52914219Y5478416D01*
X-53007266Y5543568D01*
X-53213504Y5639739D01*
X-53433308Y5698635D01*
X-53595230Y5712801D01*
X-53659998Y5718468D01*
X-53660002Y5718468D01*
X-53698668Y5715085D01*
X-53886692Y5698635D01*
X-54106496Y5639739D01*
X-54312734Y5543568D01*
X-54499139Y5413047D01*
X-54660047Y5252139D01*
X-54790568Y5065734D01*
X-54886739Y4859496D01*
X-54945635Y4639692D01*
X-54965468Y4413000D01*
X-54945635Y4186308D01*
X-54886739Y3966504D01*
X-54790568Y3760266D01*
X-54741800Y3690618D01*
X-54660045Y3573858D01*
X-54499141Y3412954D01*
X-54312734Y3282432D01*
X-54312732Y3282431D01*
X-54106497Y3186261D01*
X-54106488Y3186258D01*
X-53886697Y3127366D01*
X-53886686Y3127364D01*
X-53660002Y3107532D01*
X-53660000Y3107532D01*
X-53659998Y3107532D01*
X-53433313Y3127364D01*
X-53433302Y3127366D01*
X-53213511Y3186258D01*
X-53213502Y3186261D01*
X-53007267Y3282431D01*
X-53007265Y3282432D01*
X-52853535Y3390075D01*
X-52787329Y3412402D01*
X-52782412Y3412500D01*
X-51037588Y3412500D01*
X-50970549Y3392815D01*
X-50966476Y3390082D01*
X-50905327Y3347266D01*
X-50812734Y3282432D01*
X-50812732Y3282431D01*
X-50606497Y3186261D01*
X-50606488Y3186258D01*
X-50386697Y3127366D01*
X-50386686Y3127364D01*
X-50160002Y3107532D01*
X-50160000Y3107532D01*
X-50159998Y3107532D01*
X-49933313Y3127364D01*
X-49933302Y3127366D01*
X-49713511Y3186258D01*
X-49713502Y3186261D01*
X-49507267Y3282431D01*
X-49507265Y3282432D01*
X-49320858Y3412954D01*
X-49159954Y3573858D01*
X-49029432Y3760265D01*
X-49029431Y3760267D01*
X-48933261Y3966502D01*
X-48933258Y3966511D01*
X-48874365Y4186307D01*
X-48868958Y4248095D01*
X-48843504Y4313163D01*
X-48833111Y4324966D01*
X-44750079Y8408000D01*
X-41304999Y8408000D01*
X-41304999Y8384692D01*
X-41304998Y8384677D01*
X-41294855Y8285392D01*
X-41241547Y8124518D01*
X-41241542Y8124507D01*
X-41152575Y7980271D01*
X-41152572Y7980267D01*
X-41032732Y7860427D01*
X-41032728Y7860424D01*
X-40888492Y7771457D01*
X-40888481Y7771452D01*
X-40727606Y7718144D01*
X-40628322Y7708000D01*
X-40580000Y7708000D01*
X-40580000Y8408000D01*
X-40080000Y8408000D01*
X-40080000Y7708000D01*
X-40079999Y7707999D01*
X-40031693Y7708000D01*
X-40031675Y7708001D01*
X-39932392Y7718144D01*
X-39771518Y7771452D01*
X-39771507Y7771457D01*
X-39627271Y7860424D01*
X-39627267Y7860427D01*
X-39507427Y7980267D01*
X-39507424Y7980271D01*
X-39418457Y8124507D01*
X-39418452Y8124518D01*
X-39365144Y8285393D01*
X-39355000Y8384677D01*
X-39355000Y8408000D01*
X-40080000Y8408000D01*
X-40580000Y8408000D01*
X-41304999Y8408000D01*
X-44750079Y8408000D01*
X-43986898Y9171181D01*
X-43925575Y9204666D01*
X-43899217Y9207500D01*
X-41407960Y9207500D01*
X-41340921Y9187815D01*
X-41295166Y9135011D01*
X-41285222Y9065853D01*
X-41290253Y9044498D01*
X-41294856Y9030606D01*
X-41304999Y8931322D01*
X-41305000Y8931309D01*
X-41305000Y8908000D01*
X-39355001Y8908000D01*
X-39355001Y8931322D01*
X-39365144Y9030607D01*
X-39418452Y9191481D01*
X-39418457Y9191492D01*
X-39507424Y9335728D01*
X-39507427Y9335732D01*
X-39516660Y9344965D01*
X-39550145Y9406288D01*
X-39545161Y9475980D01*
X-39516663Y9520324D01*
X-39507033Y9529953D01*
X-39507029Y9529959D01*
X-39418001Y9674294D01*
X-39417996Y9674305D01*
X-39364651Y9835290D01*
X-39354500Y9934647D01*
X-39354500Y9971564D01*
X-39352117Y9995756D01*
X-39329500Y10109456D01*
X-39329500Y10306545D01*
X-39352117Y10420248D01*
X-39354500Y10444436D01*
X-39354500Y10481336D01*
X-39354501Y10481356D01*
X-39364650Y10580707D01*
X-39364651Y10580710D01*
X-39417996Y10741694D01*
X-39418001Y10741705D01*
X-39507029Y10886040D01*
X-39507032Y10886044D01*
X-39626955Y11005967D01*
X-39626959Y11005970D01*
X-39771294Y11094998D01*
X-39771297Y11094999D01*
X-39771303Y11095003D01*
X-39932292Y11148349D01*
X-39985212Y11153755D01*
X-40020059Y11162551D01*
X-40038165Y11170051D01*
X-40101417Y11182632D01*
X-40231457Y11208500D01*
X-40231459Y11208500D01*
X-42535500Y11208500D01*
X-42602539Y11228185D01*
X-42648294Y11280989D01*
X-42659500Y11332500D01*
X-42659500Y12303000D01*
X-38860000Y12303000D01*
X-38860000Y12101903D01*
X-38857102Y12059175D01*
X-38811168Y11874476D01*
X-38726609Y11703977D01*
X-38726607Y11703974D01*
X-38607367Y11555633D01*
X-38607366Y11555632D01*
X-38459025Y11436392D01*
X-38459022Y11436390D01*
X-38288523Y11351831D01*
X-38103824Y11305897D01*
X-38061097Y11303000D01*
X-37610000Y11303000D01*
X-37610000Y12303000D01*
X-37110000Y12303000D01*
X-37110000Y11303000D01*
X-36658903Y11303000D01*
X-36616175Y11305897D01*
X-36431476Y11351831D01*
X-36260977Y11436390D01*
X-36260974Y11436392D01*
X-36112633Y11555632D01*
X-36112632Y11555633D01*
X-35993392Y11703974D01*
X-35993390Y11703977D01*
X-35908831Y11874476D01*
X-35862897Y12059175D01*
X-35860000Y12101903D01*
X-35860000Y12303000D01*
X-37110000Y12303000D01*
X-37610000Y12303000D01*
X-38860000Y12303000D01*
X-42659500Y12303000D01*
X-42659500Y12511648D01*
X-42639815Y12578687D01*
X-42610590Y12608252D01*
X-42611467Y12609328D01*
X-42448890Y12741890D01*
X-42320304Y12899590D01*
X-42309806Y12919686D01*
X-42226091Y13079951D01*
X-42226089Y13079954D01*
X-42170114Y13275583D01*
X-42170113Y13275586D01*
X-42162607Y13360016D01*
X-42159500Y13394963D01*
X-42159500Y13728500D01*
X-42139815Y13795539D01*
X-42087011Y13841294D01*
X-42035500Y13852500D01*
X-38647924Y13852500D01*
X-38580885Y13832815D01*
X-38570251Y13825158D01*
X-38538114Y13799326D01*
X-38498196Y13741985D01*
X-38495616Y13672163D01*
X-38531194Y13612030D01*
X-38538115Y13606033D01*
X-38607366Y13550367D01*
X-38607367Y13550366D01*
X-38726607Y13402025D01*
X-38726609Y13402022D01*
X-38811168Y13231523D01*
X-38857102Y13046824D01*
X-38860000Y13004096D01*
X-38860000Y12803000D01*
X-35860000Y12803000D01*
X-35860000Y13004096D01*
X-35862897Y13046824D01*
X-35908831Y13231523D01*
X-35993390Y13402022D01*
X-35993392Y13402025D01*
X-36112630Y13550364D01*
X-36181884Y13606031D01*
X-36221803Y13663375D01*
X-36224383Y13733197D01*
X-36188805Y13793329D01*
X-36181885Y13799326D01*
X-36129675Y13841294D01*
X-36112278Y13855278D01*
X-36080240Y13895135D01*
X-35992969Y14003704D01*
X-35992967Y14003707D01*
X-35908360Y14174302D01*
X-35862400Y14359107D01*
X-35859500Y14401879D01*
X-35859500Y14666936D01*
X-35839815Y14733975D01*
X-35823181Y14754617D01*
X-33952862Y16624935D01*
X-33952859Y16624939D01*
X-33843371Y16788799D01*
X-33843366Y16788808D01*
X-33767948Y16970884D01*
X-33767946Y16970892D01*
X-33729500Y17164175D01*
X-33729500Y19487754D01*
X-33728903Y19499907D01*
X-33724659Y19542999D01*
X-33728903Y19586090D01*
X-33729500Y19598244D01*
X-33729500Y19641544D01*
X-33737945Y19684006D01*
X-33739730Y19696035D01*
X-33743975Y19739130D01*
X-33743976Y19739134D01*
X-33756547Y19780575D01*
X-33759503Y19792378D01*
X-33767946Y19834827D01*
X-33767948Y19834834D01*
X-33784517Y19874834D01*
X-33788616Y19886289D01*
X-33801186Y19927727D01*
X-33821597Y19965913D01*
X-33826800Y19976915D01*
X-33843368Y20016914D01*
X-33843370Y20016918D01*
X-33867425Y20052918D01*
X-33873683Y20063358D01*
X-33873687Y20063365D01*
X-33894090Y20101538D01*
X-33894094Y20101543D01*
X-33921552Y20135002D01*
X-33928799Y20144772D01*
X-33941740Y20164139D01*
X-33952861Y20180782D01*
X-33952862Y20180783D01*
X-33952865Y20180787D01*
X-33983479Y20211401D01*
X-33991651Y20220416D01*
X-34019118Y20253884D01*
X-34033490Y20265679D01*
X-34052583Y20281348D01*
X-34061599Y20289520D01*
X-34092214Y20320136D01*
X-34092219Y20320140D01*
X-34110852Y20332590D01*
X-34128223Y20344197D01*
X-34137988Y20351438D01*
X-34171462Y20378910D01*
X-34209640Y20399316D01*
X-34220078Y20405572D01*
X-34227899Y20410797D01*
X-34256086Y20429632D01*
X-34296095Y20446203D01*
X-34307094Y20451406D01*
X-34345273Y20471814D01*
X-34386710Y20484383D01*
X-34398160Y20488480D01*
X-34438165Y20505051D01*
X-34480640Y20513499D01*
X-34492414Y20516448D01*
X-34533868Y20529024D01*
X-34576964Y20533268D01*
X-34588990Y20535052D01*
X-34619480Y20541117D01*
X-34631458Y20543500D01*
X-34631459Y20543500D01*
X-34674756Y20543500D01*
X-34686910Y20544097D01*
X-34730000Y20548341D01*
X-34773090Y20544097D01*
X-34785244Y20543500D01*
X-34828542Y20543500D01*
X-34844454Y20540334D01*
X-34871005Y20535053D01*
X-34883037Y20533268D01*
X-34926132Y20529024D01*
X-34967580Y20516450D01*
X-34979353Y20513500D01*
X-35021835Y20505051D01*
X-35061847Y20488476D01*
X-35073280Y20484386D01*
X-35114727Y20471814D01*
X-35152918Y20451399D01*
X-35163906Y20446202D01*
X-35203914Y20429632D01*
X-35239938Y20405560D01*
X-35250351Y20399320D01*
X-35276591Y20385295D01*
X-35288535Y20378912D01*
X-35288539Y20378909D01*
X-35322005Y20351444D01*
X-35331781Y20344194D01*
X-35367782Y20320139D01*
X-35398408Y20289512D01*
X-35407402Y20281359D01*
X-35440883Y20253883D01*
X-35468359Y20220402D01*
X-35476512Y20211408D01*
X-35507134Y20180787D01*
X-35507138Y20180783D01*
X-35507140Y20180781D01*
X-35531193Y20144782D01*
X-35538444Y20135005D01*
X-35565910Y20101538D01*
X-35586320Y20063351D01*
X-35592560Y20052938D01*
X-35616632Y20016914D01*
X-35633202Y19976906D01*
X-35638399Y19965918D01*
X-35658814Y19927727D01*
X-35671383Y19886289D01*
X-35675476Y19874847D01*
X-35692051Y19834835D01*
X-35700500Y19792353D01*
X-35703450Y19780580D01*
X-35716023Y19739134D01*
X-35716024Y19739130D01*
X-35720268Y19696039D01*
X-35722054Y19683999D01*
X-35730500Y19641541D01*
X-35730500Y19598244D01*
X-35731096Y19586090D01*
X-35735341Y19543000D01*
X-35732054Y19509623D01*
X-35731097Y19499907D01*
X-35730500Y19487754D01*
X-35730500Y18002180D01*
X-35750185Y17935141D01*
X-35802989Y17889386D01*
X-35872147Y17879442D01*
X-35935703Y17908467D01*
X-35965588Y17947086D01*
X-35992967Y18002292D01*
X-35992969Y18002295D01*
X-36112277Y18150721D01*
X-36112278Y18150722D01*
X-36260704Y18270030D01*
X-36260707Y18270032D01*
X-36431302Y18354639D01*
X-36431303Y18354639D01*
X-36431307Y18354641D01*
X-36616111Y18400600D01*
X-36658877Y18403500D01*
X-37144217Y18403499D01*
X-37211256Y18423183D01*
X-37231898Y18439818D01*
X-39084735Y20292655D01*
X-39084764Y20292686D01*
X-39227214Y20435136D01*
X-39227218Y20435139D01*
X-39370210Y20530684D01*
X-39415015Y20584296D01*
X-39423722Y20653621D01*
X-39419025Y20672790D01*
X-39365144Y20835392D01*
X-39355000Y20934677D01*
X-39355000Y20958000D01*
X-41304999Y20958000D01*
X-41304999Y20934692D01*
X-41304998Y20934677D01*
X-41294855Y20835393D01*
X-41290253Y20821502D01*
X-41287853Y20751673D01*
X-41323586Y20691632D01*
X-41386107Y20660441D01*
X-41407960Y20658500D01*
X-46803542Y20658500D01*
X-46822870Y20654655D01*
X-46900188Y20639275D01*
X-46996836Y20620051D01*
X-47049229Y20598349D01*
X-47049230Y20598349D01*
X-47169960Y20548341D01*
X-47178914Y20544632D01*
X-47342782Y20435139D01*
X-47482139Y20295782D01*
X-47482140Y20295780D01*
X-47489206Y20288714D01*
X-47489209Y20288710D01*
X-50971510Y16806409D01*
X-54388101Y13389818D01*
X-54449424Y13356333D01*
X-54475782Y13353499D01*
X-55160008Y13353499D01*
X-55262797Y13342999D01*
X-55429334Y13287814D01*
X-55578656Y13195712D01*
X-55702712Y13071656D01*
X-55794814Y12922334D01*
X-55849999Y12755797D01*
X-55860500Y12653009D01*
X-68159500Y12653009D01*
X-68159500Y21458000D01*
X-41305000Y21458000D01*
X-40580000Y21458000D01*
X-40580000Y22157999D01*
X-40628308Y22157999D01*
X-40628322Y22157998D01*
X-40727607Y22147855D01*
X-40888481Y22094547D01*
X-40888492Y22094542D01*
X-41032728Y22005575D01*
X-41032732Y22005572D01*
X-41152572Y21885732D01*
X-41152575Y21885728D01*
X-41241542Y21741492D01*
X-41241547Y21741481D01*
X-41294855Y21580606D01*
X-41304999Y21481322D01*
X-41305000Y21481309D01*
X-41305000Y21458000D01*
X-68159500Y21458000D01*
X-68159500Y33423000D01*
X-58965659Y33423000D01*
X-58945063Y33187592D01*
X-58883903Y32959337D01*
X-58784035Y32745170D01*
X-58784034Y32745169D01*
X-58784032Y32745165D01*
X-58716265Y32648384D01*
X-58648495Y32551599D01*
X-58648493Y32551597D01*
X-58481402Y32384506D01*
X-58481395Y32384501D01*
X-58287834Y32248967D01*
X-58287830Y32248965D01*
X-58073663Y32149097D01*
X-58073659Y32149096D01*
X-58073655Y32149094D01*
X-57845413Y32087938D01*
X-57845403Y32087936D01*
X-57610001Y32067341D01*
X-57610000Y32067341D01*
X-57609999Y32067341D01*
X-57374596Y32087936D01*
X-57374586Y32087938D01*
X-57146344Y32149094D01*
X-57146335Y32149098D01*
X-56932169Y32248965D01*
X-56932165Y32248967D01*
X-56738604Y32384501D01*
X-56738597Y32384506D01*
X-56571506Y32551597D01*
X-56571501Y32551604D01*
X-56435967Y32745165D01*
X-56435965Y32745169D01*
X-56336098Y32959335D01*
X-56336094Y32959344D01*
X-56274938Y33187586D01*
X-56274936Y33187596D01*
X-56254341Y33422999D01*
X-56254341Y33423000D01*
X-56274936Y33658403D01*
X-56274938Y33658413D01*
X-56336094Y33886655D01*
X-56336096Y33886659D01*
X-56336097Y33886663D01*
X-56388948Y34000001D01*
X-56435964Y34100828D01*
X-56435965Y34100830D01*
X-56571505Y34294402D01*
X-56738597Y34461493D01*
X-56738599Y34461495D01*
X-56924158Y34591425D01*
X-56967782Y34646002D01*
X-56974975Y34715501D01*
X-56943453Y34777855D01*
X-56924158Y34794575D01*
X-56738599Y34924505D01*
X-56738597Y34924506D01*
X-56571506Y35091597D01*
X-56571501Y35091604D01*
X-56435967Y35285165D01*
X-56435965Y35285169D01*
X-56336098Y35499335D01*
X-56336094Y35499344D01*
X-56274938Y35727586D01*
X-56274936Y35727596D01*
X-56254341Y35962999D01*
X-56254341Y35963000D01*
X-56274936Y36198403D01*
X-56274938Y36198413D01*
X-56336094Y36426655D01*
X-56336096Y36426659D01*
X-56336097Y36426663D01*
X-56395248Y36553511D01*
X-56435964Y36640828D01*
X-56435965Y36640830D01*
X-56571505Y36834402D01*
X-56738597Y37001493D01*
X-56738599Y37001495D01*
X-56924158Y37131425D01*
X-56967782Y37186002D01*
X-56974975Y37255501D01*
X-56943453Y37317855D01*
X-56924158Y37334575D01*
X-56738599Y37464505D01*
X-56738597Y37464506D01*
X-56571506Y37631597D01*
X-56571501Y37631604D01*
X-56435967Y37825165D01*
X-56435965Y37825169D01*
X-56336098Y38039335D01*
X-56336094Y38039344D01*
X-56274938Y38267586D01*
X-56274936Y38267596D01*
X-56267624Y38351174D01*
X-56242171Y38416243D01*
X-56185580Y38457221D01*
X-56115818Y38461099D01*
X-56056415Y38428047D01*
X-39998048Y22369679D01*
X-39964563Y22308356D01*
X-39969547Y22238664D01*
X-40011419Y22182731D01*
X-40076883Y22158314D01*
X-40079788Y22158210D01*
X-40080000Y22157999D01*
X-40080000Y21458000D01*
X-39355001Y21458000D01*
X-39355001Y21481322D01*
X-39365144Y21580607D01*
X-39418452Y21741481D01*
X-39418457Y21741492D01*
X-39507424Y21885728D01*
X-39507427Y21885732D01*
X-39512514Y21890819D01*
X-39545999Y21952142D01*
X-39541015Y22021834D01*
X-39499143Y22077767D01*
X-39433679Y22102184D01*
X-39424833Y22102500D01*
X-39346082Y22102500D01*
X-31696663Y22102500D01*
X-31629624Y22082815D01*
X-31595088Y22049623D01*
X-31570045Y22013858D01*
X-31409141Y21852954D01*
X-31222734Y21722432D01*
X-31222728Y21722429D01*
X-31164725Y21695382D01*
X-31112285Y21649210D01*
X-31093133Y21582017D01*
X-31113348Y21515135D01*
X-31164724Y21470618D01*
X-31222734Y21443568D01*
X-31409139Y21313047D01*
X-31570047Y21152139D01*
X-31700568Y20965734D01*
X-31796739Y20759496D01*
X-31855635Y20539692D01*
X-31875468Y20313000D01*
X-31855635Y20086308D01*
X-31796739Y19866504D01*
X-31700568Y19660266D01*
X-31618329Y19542815D01*
X-31570045Y19473858D01*
X-31409141Y19312954D01*
X-31222734Y19182432D01*
X-31222728Y19182429D01*
X-31164725Y19155382D01*
X-31112285Y19109210D01*
X-31093133Y19042017D01*
X-31113348Y18975135D01*
X-31164724Y18930618D01*
X-31222734Y18903568D01*
X-31409139Y18773047D01*
X-31570047Y18612139D01*
X-31700568Y18425734D01*
X-31796739Y18219496D01*
X-31855635Y17999692D01*
X-31875468Y17773000D01*
X-31855635Y17546308D01*
X-31796739Y17326504D01*
X-31700568Y17120266D01*
X-31700567Y17120265D01*
X-31570045Y16933858D01*
X-31409141Y16772954D01*
X-31222734Y16642432D01*
X-31222728Y16642429D01*
X-31164725Y16615382D01*
X-31112285Y16569210D01*
X-31093133Y16502017D01*
X-31113348Y16435135D01*
X-31164724Y16390618D01*
X-31222734Y16363568D01*
X-31409139Y16233047D01*
X-31570047Y16072139D01*
X-31700568Y15885734D01*
X-31796739Y15679496D01*
X-31855635Y15459692D01*
X-31875468Y15233000D01*
X-31855635Y15006308D01*
X-31796739Y14786504D01*
X-31700568Y14580266D01*
X-31700567Y14580265D01*
X-31570045Y14393858D01*
X-31409141Y14232954D01*
X-31222734Y14102432D01*
X-31222728Y14102429D01*
X-31164725Y14075382D01*
X-31112285Y14029210D01*
X-31093133Y13962017D01*
X-31113348Y13895135D01*
X-31164724Y13850618D01*
X-31222734Y13823568D01*
X-31409139Y13693047D01*
X-31570047Y13532139D01*
X-31700568Y13345734D01*
X-31796739Y13139496D01*
X-31855635Y12919692D01*
X-31875468Y12693000D01*
X-31855635Y12466308D01*
X-31796739Y12246504D01*
X-31700568Y12040266D01*
X-31700567Y12040265D01*
X-31570045Y11853858D01*
X-31409141Y11692954D01*
X-31222734Y11562432D01*
X-31222728Y11562429D01*
X-31164725Y11535382D01*
X-31112285Y11489210D01*
X-31093133Y11422017D01*
X-31113348Y11355135D01*
X-31164724Y11310618D01*
X-31222734Y11283568D01*
X-31409139Y11153047D01*
X-31570047Y10992139D01*
X-31700568Y10805734D01*
X-31796739Y10599496D01*
X-31855635Y10379692D01*
X-31875468Y10153000D01*
X-31855635Y9926308D01*
X-31796739Y9706504D01*
X-31700568Y9500266D01*
X-31700567Y9500265D01*
X-31570045Y9313858D01*
X-31409141Y9152954D01*
X-31222734Y9022432D01*
X-31222728Y9022429D01*
X-31164725Y8995382D01*
X-31112285Y8949210D01*
X-31093133Y8882017D01*
X-31113348Y8815135D01*
X-31164724Y8770618D01*
X-31222734Y8743568D01*
X-31409139Y8613047D01*
X-31570047Y8452139D01*
X-31700568Y8265734D01*
X-31796739Y8059496D01*
X-31855635Y7839692D01*
X-31871779Y7655169D01*
X-31872948Y7641798D01*
X-31875468Y7613000D01*
X-31855635Y7386308D01*
X-31796739Y7166504D01*
X-31700568Y6960266D01*
X-31700567Y6960265D01*
X-31570045Y6773858D01*
X-31409141Y6612954D01*
X-31222734Y6482432D01*
X-31222728Y6482429D01*
X-31164725Y6455382D01*
X-31112285Y6409210D01*
X-31093133Y6342017D01*
X-31113348Y6275135D01*
X-31164724Y6230618D01*
X-31222734Y6203568D01*
X-31409139Y6073047D01*
X-31570047Y5912139D01*
X-31700568Y5725734D01*
X-31796739Y5519496D01*
X-31855635Y5299692D01*
X-31875468Y5073000D01*
X-31855635Y4846308D01*
X-31796739Y4626504D01*
X-31700568Y4420266D01*
X-31700567Y4420265D01*
X-31570045Y4233858D01*
X-31409141Y4072954D01*
X-31222734Y3942432D01*
X-31222728Y3942429D01*
X-31164725Y3915382D01*
X-31112285Y3869210D01*
X-31093133Y3802017D01*
X-31113348Y3735135D01*
X-31164724Y3690618D01*
X-31222734Y3663568D01*
X-31409139Y3533047D01*
X-31570047Y3372139D01*
X-31700568Y3185734D01*
X-31796739Y2979496D01*
X-31855635Y2759692D01*
X-31875468Y2533000D01*
X-31855635Y2306308D01*
X-31796739Y2086504D01*
X-31700568Y1880266D01*
X-31700567Y1880265D01*
X-31570045Y1693858D01*
X-31409141Y1532954D01*
X-31222734Y1402432D01*
X-31222728Y1402429D01*
X-31164725Y1375382D01*
X-31112285Y1329210D01*
X-31093133Y1262017D01*
X-31113348Y1195135D01*
X-31164724Y1150618D01*
X-31222734Y1123568D01*
X-31409139Y993047D01*
X-31570047Y832139D01*
X-31700568Y645734D01*
X-31796739Y439496D01*
X-31855635Y219692D01*
X-31855785Y217977D01*
X-31874855Y2D01*
X-31875468Y-7000D01*
X-31855635Y-233692D01*
X-31796739Y-453496D01*
X-31700568Y-659734D01*
X-31570047Y-846139D01*
X-31409139Y-1007047D01*
X-31222734Y-1137568D01*
X-31164725Y-1164618D01*
X-31112285Y-1210790D01*
X-31093133Y-1277983D01*
X-31113348Y-1344865D01*
X-31164725Y-1389382D01*
X-31222728Y-1416429D01*
X-31222734Y-1416432D01*
X-31409141Y-1546954D01*
X-31570045Y-1707858D01*
X-31570047Y-1707861D01*
X-31700568Y-1894266D01*
X-31796739Y-2100504D01*
X-31855635Y-2320308D01*
X-31875468Y-2547000D01*
X-31855635Y-2773692D01*
X-31796739Y-2993496D01*
X-31700568Y-3199734D01*
X-31570047Y-3386139D01*
X-31409139Y-3547047D01*
X-31222734Y-3677568D01*
X-31164129Y-3704895D01*
X-31111695Y-3751064D01*
X-31092542Y-3818257D01*
X-31112757Y-3885139D01*
X-31164133Y-3929657D01*
X-31222482Y-3956865D01*
X-31408820Y-4087342D01*
X-31569657Y-4248179D01*
X-31700134Y-4434517D01*
X-31796265Y-4640673D01*
X-31796269Y-4640682D01*
X-31848872Y-4836999D01*
X-31848872Y-4837000D01*
X-30885686Y-4837000D01*
X-30890080Y-4841394D01*
X-30942741Y-4932606D01*
X-30970000Y-5034339D01*
X-30970000Y-5139661D01*
X-30942741Y-5241394D01*
X-30890080Y-5332606D01*
X-30885686Y-5337000D01*
X-31848872Y-5337000D01*
X-31796269Y-5533317D01*
X-31796265Y-5533326D01*
X-31700134Y-5739482D01*
X-31569657Y-5925820D01*
X-31408820Y-6086657D01*
X-31222482Y-6217134D01*
X-31016326Y-6313265D01*
X-31016317Y-6313269D01*
X-30820000Y-6365872D01*
X-30820000Y-5402686D01*
X-30815606Y-5407080D01*
X-30724394Y-5459741D01*
X-30622661Y-5487000D01*
X-30517339Y-5487000D01*
X-30415606Y-5459741D01*
X-30324394Y-5407080D01*
X-30320000Y-5402686D01*
X-30320000Y-6365871D01*
X-30319999Y-6365872D01*
X-30123682Y-6313269D01*
X-30123673Y-6313265D01*
X-29917517Y-6217134D01*
X-29731179Y-6086657D01*
X-29570342Y-5925820D01*
X-29439865Y-5739482D01*
X-29343734Y-5533326D01*
X-29343730Y-5533317D01*
X-29291128Y-5337000D01*
X-30254314Y-5337000D01*
X-30249920Y-5332606D01*
X-30197259Y-5241394D01*
X-30170000Y-5139661D01*
X-30170000Y-5034339D01*
X-30197259Y-4932606D01*
X-30249920Y-4841394D01*
X-30254314Y-4837000D01*
X-29291128Y-4837000D01*
X-29291127Y-4836999D01*
X-29343730Y-4640682D01*
X-29343734Y-4640673D01*
X-29439865Y-4434517D01*
X-29570342Y-4248179D01*
X-29731179Y-4087342D01*
X-29917515Y-3956867D01*
X-29975867Y-3929657D01*
X-30028306Y-3883484D01*
X-30047457Y-3816290D01*
X-30027241Y-3749409D01*
X-29975865Y-3704893D01*
X-29917266Y-3677568D01*
X-29730861Y-3547047D01*
X-29730858Y-3547045D01*
X-29569954Y-3386141D01*
X-29439432Y-3199734D01*
X-29439431Y-3199732D01*
X-29343261Y-2993497D01*
X-29343258Y-2993488D01*
X-29284366Y-2773697D01*
X-29284364Y-2773686D01*
X-29264532Y-2547001D01*
X-29264532Y-2546998D01*
X-29284364Y-2320313D01*
X-29284366Y-2320302D01*
X-29343258Y-2100511D01*
X-29343261Y-2100502D01*
X-29439431Y-1894267D01*
X-29439432Y-1894265D01*
X-29569954Y-1707858D01*
X-29730858Y-1546954D01*
X-29917265Y-1416432D01*
X-29917267Y-1416431D01*
X-29975275Y-1389382D01*
X-30027714Y-1343209D01*
X-30046866Y-1276016D01*
X-30026650Y-1209135D01*
X-29975275Y-1164618D01*
X-29917266Y-1137568D01*
X-29730861Y-1007047D01*
X-29730858Y-1007045D01*
X-29569954Y-846141D01*
X-29439432Y-659734D01*
X-29439431Y-659732D01*
X-29343261Y-453497D01*
X-29343258Y-453488D01*
X-29284366Y-233697D01*
X-29284364Y-233686D01*
X-29264532Y-7001D01*
X-29264532Y-6998D01*
X-29284364Y219686D01*
X-29284366Y219697D01*
X-29343258Y439488D01*
X-29343261Y439497D01*
X-29439431Y645732D01*
X-29439432Y645734D01*
X-29569954Y832141D01*
X-29730858Y993045D01*
X-29864564Y1086666D01*
X-29917266Y1123568D01*
X-29975275Y1150618D01*
X-30027714Y1196791D01*
X-30046866Y1263984D01*
X-30026650Y1330865D01*
X-29975275Y1375382D01*
X-29917267Y1402431D01*
X-29917265Y1402432D01*
X-29730858Y1532954D01*
X-29569954Y1693858D01*
X-29439432Y1880265D01*
X-29439431Y1880267D01*
X-29343261Y2086502D01*
X-29343258Y2086511D01*
X-29284366Y2306302D01*
X-29284364Y2306313D01*
X-29264532Y2532998D01*
X-29264532Y2533001D01*
X-29284364Y2759686D01*
X-29284366Y2759697D01*
X-29343258Y2979488D01*
X-29343261Y2979497D01*
X-29439431Y3185732D01*
X-29439432Y3185734D01*
X-29569954Y3372141D01*
X-29730858Y3533045D01*
X-29917265Y3663567D01*
X-29917266Y3663568D01*
X-29975275Y3690618D01*
X-30027714Y3736791D01*
X-30046866Y3803984D01*
X-30026650Y3870865D01*
X-29975275Y3915382D01*
X-29917267Y3942431D01*
X-29917265Y3942432D01*
X-29730858Y4072954D01*
X-29569954Y4233858D01*
X-29439432Y4420265D01*
X-29439431Y4420267D01*
X-29343261Y4626502D01*
X-29343258Y4626511D01*
X-29284366Y4846302D01*
X-29284364Y4846313D01*
X-29264532Y5072998D01*
X-29264532Y5073003D01*
X-29279129Y5239861D01*
X-29265362Y5308360D01*
X-29243282Y5338348D01*
X-16837431Y17744200D01*
X-16776108Y17777685D01*
X-16706416Y17772701D01*
X-16650483Y17730829D01*
X-16626222Y17667328D01*
X-16615635Y17546308D01*
X-16556739Y17326504D01*
X-16460568Y17120266D01*
X-16460567Y17120265D01*
X-16330045Y16933858D01*
X-16169141Y16772954D01*
X-15982734Y16642432D01*
X-15982728Y16642429D01*
X-15924725Y16615382D01*
X-15872285Y16569210D01*
X-15853133Y16502017D01*
X-15873348Y16435135D01*
X-15924724Y16390618D01*
X-15982734Y16363568D01*
X-16169139Y16233047D01*
X-16330047Y16072139D01*
X-16460568Y15885734D01*
X-16556739Y15679496D01*
X-16615635Y15459692D01*
X-16635468Y15233000D01*
X-16615635Y15006308D01*
X-16556739Y14786504D01*
X-16460568Y14580266D01*
X-16460567Y14580265D01*
X-16330045Y14393858D01*
X-16169141Y14232954D01*
X-15982734Y14102432D01*
X-15982728Y14102429D01*
X-15924725Y14075382D01*
X-15872285Y14029210D01*
X-15853133Y13962017D01*
X-15873348Y13895135D01*
X-15924724Y13850618D01*
X-15982734Y13823568D01*
X-16169139Y13693047D01*
X-16330047Y13532139D01*
X-16460568Y13345734D01*
X-16556739Y13139496D01*
X-16615635Y12919692D01*
X-16635468Y12693000D01*
X-16615635Y12466308D01*
X-16556739Y12246504D01*
X-16460568Y12040266D01*
X-16460567Y12040265D01*
X-16330045Y11853858D01*
X-16169141Y11692954D01*
X-15982734Y11562432D01*
X-15982728Y11562429D01*
X-15924725Y11535382D01*
X-15872285Y11489210D01*
X-15853133Y11422017D01*
X-15873348Y11355135D01*
X-15924724Y11310618D01*
X-15982734Y11283568D01*
X-16169139Y11153047D01*
X-16330047Y10992139D01*
X-16460568Y10805734D01*
X-16556739Y10599496D01*
X-16615635Y10379692D01*
X-16635468Y10153000D01*
X-16615635Y9926308D01*
X-16556739Y9706504D01*
X-16460568Y9500266D01*
X-16460567Y9500265D01*
X-16330045Y9313858D01*
X-16169141Y9152954D01*
X-15982734Y9022432D01*
X-15982728Y9022429D01*
X-15924725Y8995382D01*
X-15872285Y8949210D01*
X-15853133Y8882017D01*
X-15873348Y8815135D01*
X-15924724Y8770618D01*
X-15982734Y8743568D01*
X-16169139Y8613047D01*
X-16330047Y8452139D01*
X-16460568Y8265734D01*
X-16556739Y8059496D01*
X-16615635Y7839692D01*
X-16631779Y7655169D01*
X-16632948Y7641798D01*
X-16635468Y7613000D01*
X-16615635Y7386308D01*
X-16556739Y7166504D01*
X-16460568Y6960266D01*
X-16460567Y6960265D01*
X-16330045Y6773858D01*
X-16169141Y6612954D01*
X-15982734Y6482432D01*
X-15982728Y6482429D01*
X-15924725Y6455382D01*
X-15872285Y6409210D01*
X-15853133Y6342017D01*
X-15873348Y6275135D01*
X-15924724Y6230618D01*
X-15982734Y6203568D01*
X-16169139Y6073047D01*
X-16330047Y5912139D01*
X-16460568Y5725734D01*
X-16556739Y5519496D01*
X-16615635Y5299692D01*
X-16635468Y5073000D01*
X-16615635Y4846308D01*
X-16556739Y4626504D01*
X-16460568Y4420266D01*
X-16460567Y4420265D01*
X-16330045Y4233858D01*
X-16169141Y4072954D01*
X-15982734Y3942432D01*
X-15982728Y3942429D01*
X-15924725Y3915382D01*
X-15872285Y3869210D01*
X-15853133Y3802017D01*
X-15873348Y3735135D01*
X-15924724Y3690618D01*
X-15982734Y3663568D01*
X-16169139Y3533047D01*
X-16330047Y3372139D01*
X-16460568Y3185734D01*
X-16556739Y2979496D01*
X-16615635Y2759692D01*
X-16635468Y2533000D01*
X-16615635Y2306308D01*
X-16556739Y2086504D01*
X-16460568Y1880266D01*
X-16460567Y1880265D01*
X-16330045Y1693858D01*
X-16169141Y1532954D01*
X-15982734Y1402432D01*
X-15982728Y1402429D01*
X-15924725Y1375382D01*
X-15872285Y1329210D01*
X-15853133Y1262017D01*
X-15873348Y1195135D01*
X-15924724Y1150618D01*
X-15982734Y1123568D01*
X-16169139Y993047D01*
X-16330047Y832139D01*
X-16460568Y645734D01*
X-16556739Y439496D01*
X-16615635Y219692D01*
X-16615785Y217977D01*
X-16634855Y2D01*
X-16635468Y-7000D01*
X-16615635Y-233692D01*
X-16556739Y-453496D01*
X-16460568Y-659734D01*
X-16330047Y-846139D01*
X-16169139Y-1007047D01*
X-15982734Y-1137568D01*
X-15924725Y-1164618D01*
X-15872285Y-1210790D01*
X-15853133Y-1277983D01*
X-15873348Y-1344865D01*
X-15924725Y-1389382D01*
X-15982728Y-1416429D01*
X-15982734Y-1416432D01*
X-16169141Y-1546954D01*
X-16330045Y-1707858D01*
X-16330047Y-1707861D01*
X-16460568Y-1894266D01*
X-16556739Y-2100504D01*
X-16615635Y-2320308D01*
X-16635468Y-2547000D01*
X-16615635Y-2773692D01*
X-16556739Y-2993496D01*
X-16460568Y-3199734D01*
X-16330047Y-3386139D01*
X-16169139Y-3547047D01*
X-15982734Y-3677568D01*
X-15924725Y-3704618D01*
X-15872285Y-3750790D01*
X-15853133Y-3817983D01*
X-15873348Y-3884865D01*
X-15924725Y-3929382D01*
X-15982728Y-3956429D01*
X-15982734Y-3956432D01*
X-16169141Y-4086954D01*
X-16330045Y-4247858D01*
X-16330047Y-4247861D01*
X-16460568Y-4434266D01*
X-16556739Y-4640504D01*
X-16615635Y-4860308D01*
X-16615635Y-4860313D01*
X-16635468Y-5086998D01*
X-16635468Y-5087001D01*
X-16632771Y-5117828D01*
X-16615635Y-5313692D01*
X-16556739Y-5533496D01*
X-16460568Y-5739734D01*
X-16330047Y-5926139D01*
X-16169139Y-6087047D01*
X-15982734Y-6217568D01*
X-15776496Y-6313739D01*
X-15556692Y-6372635D01*
X-15386673Y-6387509D01*
X-15330002Y-6392468D01*
X-15330000Y-6392468D01*
X-15329998Y-6392468D01*
X-15265230Y-6386801D01*
X-15103308Y-6372635D01*
X-14883504Y-6313739D01*
X-14677266Y-6217568D01*
X-14490861Y-6087047D01*
X-14490858Y-6087045D01*
X-14329954Y-5926141D01*
X-14304912Y-5890377D01*
X-14250335Y-5846752D01*
X-14203337Y-5837500D01*
X-11736573Y-5837500D01*
X-11669534Y-5857185D01*
X-11623779Y-5909989D01*
X-11613045Y-5972307D01*
X-11615468Y-6000000D01*
X-11595635Y-6226692D01*
X-11536739Y-6446496D01*
X-11440568Y-6652734D01*
X-11310047Y-6839139D01*
X-11149139Y-7000047D01*
X-10962734Y-7130568D01*
X-10756496Y-7226739D01*
X-10536692Y-7285635D01*
X-10366673Y-7300509D01*
X-10310002Y-7305468D01*
X-10310000Y-7305468D01*
X-10309998Y-7305468D01*
X-10240803Y-7299414D01*
X-10083308Y-7285635D01*
X-9863504Y-7226739D01*
X-9657266Y-7130568D01*
X-9470861Y-7000047D01*
X-9470858Y-7000045D01*
X-9309954Y-6839141D01*
X-9179432Y-6652734D01*
X-9179431Y-6652732D01*
X-9083261Y-6446497D01*
X-9083258Y-6446488D01*
X-9024366Y-6226697D01*
X-9024364Y-6226686D01*
X-9004532Y-6000001D01*
X-9004532Y-5999998D01*
X-9024364Y-5773313D01*
X-9024366Y-5773302D01*
X-9083258Y-5553511D01*
X-9083261Y-5553502D01*
X-9179431Y-5347267D01*
X-9179432Y-5347265D01*
X-9309954Y-5160858D01*
X-9470858Y-4999954D01*
X-9657265Y-4869432D01*
X-9657267Y-4869431D01*
X-9863502Y-4773261D01*
X-9863511Y-4773258D01*
X-10083302Y-4714366D01*
X-10083313Y-4714364D01*
X-10309998Y-4694532D01*
X-10310003Y-4694532D01*
X-10476861Y-4709129D01*
X-10545360Y-4695362D01*
X-10575348Y-4673283D01*
X-10744585Y-4504047D01*
X-10818271Y-4454812D01*
X-10818270Y-4454811D01*
X-10867496Y-4421921D01*
X-10867508Y-4421914D01*
X-11004086Y-4365342D01*
X-11004092Y-4365340D01*
X-11149080Y-4336500D01*
X-11149082Y-4336500D01*
X-14203337Y-4336500D01*
X-14270376Y-4316815D01*
X-14304912Y-4283623D01*
X-14329954Y-4247858D01*
X-14490858Y-4086954D01*
X-14677265Y-3956432D01*
X-14677267Y-3956431D01*
X-14735275Y-3929382D01*
X-14787714Y-3883209D01*
X-14806866Y-3816016D01*
X-14786650Y-3749135D01*
X-14735275Y-3704618D01*
X-14677266Y-3677568D01*
X-14490861Y-3547047D01*
X-14490858Y-3547045D01*
X-14329954Y-3386141D01*
X-14304912Y-3350377D01*
X-14250335Y-3306752D01*
X-14203337Y-3297500D01*
X-1125230Y-3297500D01*
X-1058191Y-3317185D01*
X-1037549Y-3333819D01*
X1363282Y-5734650D01*
X1396767Y-5795973D01*
X1399129Y-5833137D01*
X1384532Y-5999996D01*
X1384532Y-6000001D01*
X1404364Y-6226686D01*
X1404366Y-6226697D01*
X1463258Y-6446488D01*
X1463261Y-6446497D01*
X1559431Y-6652732D01*
X1559432Y-6652734D01*
X1689954Y-6839141D01*
X1850858Y-7000045D01*
X1850861Y-7000047D01*
X2037266Y-7130568D01*
X2243504Y-7226739D01*
X2463308Y-7285635D01*
X2620803Y-7299414D01*
X2689998Y-7305468D01*
X2690000Y-7305468D01*
X2690002Y-7305468D01*
X2746673Y-7300509D01*
X2916692Y-7285635D01*
X3136496Y-7226739D01*
X3342734Y-7130568D01*
X3529139Y-7000047D01*
X3690047Y-6839139D01*
X3820568Y-6652734D01*
X3916739Y-6446496D01*
X3975635Y-6226692D01*
X3995468Y-6000000D01*
X3975635Y-5773308D01*
X3916739Y-5553504D01*
X3820568Y-5347266D01*
X3690047Y-5160861D01*
X3690045Y-5160858D01*
X3529141Y-4999954D01*
X3342734Y-4869432D01*
X3342732Y-4869431D01*
X3136497Y-4773261D01*
X3136488Y-4773258D01*
X2916697Y-4714366D01*
X2916693Y-4714365D01*
X2916692Y-4714365D01*
X2916691Y-4714364D01*
X2916686Y-4714364D01*
X2690002Y-4694532D01*
X2689997Y-4694532D01*
X2523137Y-4709129D01*
X2454637Y-4695362D01*
X2424650Y-4673282D01*
X-284581Y-1964050D01*
X-284582Y-1964049D01*
X-378148Y-1901532D01*
X-407509Y-1881913D01*
X-544082Y-1825343D01*
X-544092Y-1825340D01*
X-689080Y-1796500D01*
X-689082Y-1796500D01*
X-14203337Y-1796500D01*
X-14270376Y-1776815D01*
X-14304912Y-1743623D01*
X-14329954Y-1707858D01*
X-14490858Y-1546954D01*
X-14677265Y-1416432D01*
X-14677267Y-1416431D01*
X-14735275Y-1389382D01*
X-14787714Y-1343209D01*
X-14806866Y-1276016D01*
X-14786650Y-1209135D01*
X-14735275Y-1164618D01*
X-14677266Y-1137568D01*
X-14490861Y-1007047D01*
X-14490858Y-1007045D01*
X-14329954Y-846141D01*
X-14199432Y-659734D01*
X-14199431Y-659732D01*
X-14103261Y-453497D01*
X-14103258Y-453488D01*
X-14044366Y-233697D01*
X-14044364Y-233686D01*
X-14024532Y-7001D01*
X-14024532Y-6998D01*
X-14044364Y219686D01*
X-14044366Y219697D01*
X-14103258Y439488D01*
X-14103261Y439497D01*
X-14199431Y645732D01*
X-14199432Y645734D01*
X-14329954Y832141D01*
X-14490858Y993045D01*
X-14624564Y1086666D01*
X-14677266Y1123568D01*
X-14735275Y1150618D01*
X-14787714Y1196791D01*
X-14806866Y1263984D01*
X-14786650Y1330865D01*
X-14735275Y1375382D01*
X-14677267Y1402431D01*
X-14677265Y1402432D01*
X-14490858Y1532954D01*
X-14329954Y1693858D01*
X-14199432Y1880265D01*
X-14199431Y1880267D01*
X-14103261Y2086502D01*
X-14103258Y2086511D01*
X-14044366Y2306302D01*
X-14044364Y2306313D01*
X-14024532Y2532998D01*
X-14024532Y2533001D01*
X-14044364Y2759686D01*
X-14044366Y2759697D01*
X-14103258Y2979488D01*
X-14103261Y2979497D01*
X-14199431Y3185732D01*
X-14199432Y3185734D01*
X-14329954Y3372141D01*
X-14490858Y3533045D01*
X-14677265Y3663567D01*
X-14677266Y3663568D01*
X-14735275Y3690618D01*
X-14787714Y3736791D01*
X-14806866Y3803984D01*
X-14786650Y3870865D01*
X-14735275Y3915382D01*
X-14677267Y3942431D01*
X-14677265Y3942432D01*
X-14490858Y4072954D01*
X-14329954Y4233858D01*
X-14199432Y4420265D01*
X-14199431Y4420267D01*
X-14103261Y4626502D01*
X-14103258Y4626511D01*
X-14044366Y4846302D01*
X-14044364Y4846313D01*
X-14024532Y5072998D01*
X-14024532Y5073001D01*
X-14044364Y5299686D01*
X-14044366Y5299697D01*
X-14103258Y5519488D01*
X-14103261Y5519497D01*
X-14199431Y5725732D01*
X-14199432Y5725734D01*
X-14329954Y5912141D01*
X-14490858Y6073045D01*
X-14677265Y6203567D01*
X-14677266Y6203568D01*
X-14735275Y6230618D01*
X-14787714Y6276791D01*
X-14806866Y6343984D01*
X-14786650Y6410865D01*
X-14735275Y6455382D01*
X-14677267Y6482431D01*
X-14677265Y6482432D01*
X-14490858Y6612954D01*
X-14329954Y6773858D01*
X-14199432Y6960265D01*
X-14199431Y6960267D01*
X-14103261Y7166502D01*
X-14103258Y7166511D01*
X-14044366Y7386302D01*
X-14044364Y7386313D01*
X-14024532Y7612998D01*
X-14024532Y7613001D01*
X-14044364Y7839686D01*
X-14044366Y7839697D01*
X-14103258Y8059488D01*
X-14103261Y8059497D01*
X-14199431Y8265732D01*
X-14199432Y8265734D01*
X-14329954Y8452141D01*
X-14490858Y8613045D01*
X-14677265Y8743567D01*
X-14677266Y8743568D01*
X-14735275Y8770618D01*
X-14787714Y8816791D01*
X-14806866Y8883984D01*
X-14786650Y8950865D01*
X-14735275Y8995382D01*
X-14677267Y9022431D01*
X-14677265Y9022432D01*
X-14490858Y9152954D01*
X-14329954Y9313858D01*
X-14199432Y9500265D01*
X-14199431Y9500267D01*
X-14103261Y9706502D01*
X-14103258Y9706511D01*
X-14044366Y9926302D01*
X-14044364Y9926313D01*
X-14024532Y10152998D01*
X-14024532Y10153001D01*
X-14044364Y10379686D01*
X-14044366Y10379697D01*
X-14103258Y10599488D01*
X-14103261Y10599497D01*
X-14199431Y10805732D01*
X-14199432Y10805734D01*
X-14329954Y10992141D01*
X-14490858Y11153045D01*
X-14629611Y11250200D01*
X-14677266Y11283568D01*
X-14735275Y11310618D01*
X-14787714Y11356791D01*
X-14806866Y11423984D01*
X-14786650Y11490865D01*
X-14735275Y11535382D01*
X-14677267Y11562431D01*
X-14677265Y11562432D01*
X-14490858Y11692954D01*
X-14329954Y11853858D01*
X-14199432Y12040265D01*
X-14199431Y12040267D01*
X-14103261Y12246502D01*
X-14103258Y12246511D01*
X-14044366Y12466302D01*
X-14044364Y12466312D01*
X-14033777Y12587327D01*
X-14008324Y12652395D01*
X-13951733Y12693374D01*
X-13881971Y12697252D01*
X-13822568Y12664200D01*
X-7286819Y6128451D01*
X-7253334Y6067128D01*
X-7250500Y6040770D01*
X-7250500Y1065624D01*
X-7270185Y998585D01*
X-7303378Y964048D01*
X-7306877Y961598D01*
X-7461598Y806877D01*
X-7587102Y627638D01*
X-7637618Y519306D01*
X-7683790Y466867D01*
X-7750984Y447715D01*
X-7817865Y467931D01*
X-7862382Y519306D01*
X-7912898Y627638D01*
X-7912900Y627642D01*
X-8038402Y806878D01*
X-8193119Y961595D01*
X-8196622Y964048D01*
X-8240248Y1018625D01*
X-8249500Y1065624D01*
X-8249500Y2763920D01*
X-8249499Y2763920D01*
X-8278340Y2908907D01*
X-8278343Y2908917D01*
X-8334914Y3045492D01*
X-8374666Y3104985D01*
X-8374667Y3104988D01*
X-8417046Y3168414D01*
X-8417052Y3168421D01*
X-8983282Y3734650D01*
X-9016767Y3795973D01*
X-9019129Y3833137D01*
X-9004532Y3999996D01*
X-9004532Y4000001D01*
X-9024364Y4226686D01*
X-9024366Y4226697D01*
X-9083258Y4446488D01*
X-9083261Y4446497D01*
X-9179431Y4652732D01*
X-9179432Y4652734D01*
X-9309954Y4839141D01*
X-9470858Y5000045D01*
X-9657265Y5130567D01*
X-9657266Y5130568D01*
X-9863504Y5226739D01*
X-10083308Y5285635D01*
X-10245230Y5299801D01*
X-10309998Y5305468D01*
X-10310002Y5305468D01*
X-10366673Y5300509D01*
X-10536692Y5285635D01*
X-10756496Y5226739D01*
X-10962734Y5130568D01*
X-11149139Y5000047D01*
X-11310047Y4839139D01*
X-11440568Y4652734D01*
X-11536739Y4446496D01*
X-11595635Y4226692D01*
X-11609085Y4072954D01*
X-11615468Y4000001D01*
X-11615468Y3999998D01*
X-11612537Y3966502D01*
X-11595635Y3773308D01*
X-11536739Y3553504D01*
X-11440568Y3347266D01*
X-11343741Y3208982D01*
X-11310045Y3160858D01*
X-11149141Y2999954D01*
X-10962734Y2869432D01*
X-10962732Y2869431D01*
X-10756497Y2773261D01*
X-10756488Y2773258D01*
X-10536697Y2714366D01*
X-10536686Y2714364D01*
X-10310002Y2694532D01*
X-10310000Y2694532D01*
X-10309997Y2694532D01*
X-10143137Y2709129D01*
X-10074637Y2695362D01*
X-10044650Y2673282D01*
X-9786819Y2415451D01*
X-9753334Y2354128D01*
X-9750500Y2327770D01*
X-9750500Y1065624D01*
X-9770185Y998585D01*
X-9803378Y964048D01*
X-9806877Y961598D01*
X-9961598Y806877D01*
X-10087102Y627638D01*
X-10179575Y429330D01*
X-10236207Y217977D01*
X-10255277Y0D01*
X-10236207Y-217977D01*
X-10179575Y-429330D01*
X-10087102Y-627639D01*
X-9961598Y-806877D01*
X-9806877Y-961598D01*
X-9627639Y-1087102D01*
X-9429330Y-1179575D01*
X-9217977Y-1236207D01*
X-9032462Y-1252437D01*
X-9000002Y-1255277D01*
X-9000000Y-1255277D01*
X-8999998Y-1255277D01*
X-8969787Y-1252633D01*
X-8782023Y-1236207D01*
X-8570670Y-1179575D01*
X-8372361Y-1087102D01*
X-8193123Y-961598D01*
X-8038402Y-806877D01*
X-7912898Y-627639D01*
X-7912779Y-627385D01*
X-7862382Y-519307D01*
X-7816210Y-466867D01*
X-7749016Y-447715D01*
X-7682135Y-467931D01*
X-7637618Y-519306D01*
X-7587102Y-627639D01*
X-7461598Y-806877D01*
X-7306877Y-961598D01*
X-7127639Y-1087102D01*
X-6929330Y-1179575D01*
X-6717977Y-1236207D01*
X-6532462Y-1252437D01*
X-6500002Y-1255277D01*
X-6500000Y-1255277D01*
X-6499998Y-1255277D01*
X-6469787Y-1252633D01*
X-6282023Y-1236207D01*
X-6070670Y-1179575D01*
X-5872361Y-1087102D01*
X-5693123Y-961598D01*
X-5538402Y-806877D01*
X-5412898Y-627639D01*
X-5412779Y-627385D01*
X-5362106Y-518715D01*
X-5315934Y-466275D01*
X-5248741Y-447123D01*
X-5181859Y-467339D01*
X-5137342Y-518715D01*
X-5086669Y-627383D01*
X-5086668Y-627385D01*
X-5043124Y-689570D01*
X-4400000Y-46446D01*
X-4400000Y-52661D01*
X-4372741Y-154394D01*
X-4320080Y-245606D01*
X-4245606Y-320080D01*
X-4154394Y-372741D01*
X-4052661Y-400000D01*
X-4046448Y-400000D01*
X-4689571Y-1043124D01*
X-4627385Y-1086668D01*
X-4627383Y-1086669D01*
X-4429164Y-1179100D01*
X-4429150Y-1179105D01*
X-4217894Y-1235710D01*
X-4217884Y-1235712D01*
X-4000001Y-1254775D01*
X-3999999Y-1254775D01*
X-3782115Y-1235712D01*
X-3782105Y-1235710D01*
X-3570849Y-1179105D01*
X-3570840Y-1179101D01*
X-3372612Y-1086666D01*
X-3310427Y-1043124D01*
X-3953553Y-400000D01*
X-3947339Y-400000D01*
X-3845606Y-372741D01*
X-3754394Y-320080D01*
X-3679920Y-245606D01*
X-3627259Y-154394D01*
X-3600000Y-52661D01*
X-3600000Y-46445D01*
X-2956874Y-689571D01*
X-2913333Y-627387D01*
X-2820898Y-429159D01*
X-2820894Y-429150D01*
X-2764289Y-217894D01*
X-2764287Y-217884D01*
X-2745225Y0D01*
X-2764287Y217884D01*
X-2764289Y217894D01*
X-2820894Y429150D01*
X-2820898Y429159D01*
X-2913335Y627390D01*
X-2956873Y689570D01*
X-2956875Y689571D01*
X-3600000Y46446D01*
X-3600000Y52661D01*
X-3627259Y154394D01*
X-3679920Y245606D01*
X-3754394Y320080D01*
X-3845606Y372741D01*
X-3947339Y400000D01*
X-3953553Y400000D01*
X-3310427Y1043124D01*
X-3372612Y1086666D01*
X-3570840Y1179101D01*
X-3570849Y1179105D01*
X-3782105Y1235710D01*
X-3782115Y1235712D01*
X-3999999Y1254775D01*
X-4000001Y1254775D01*
X-4217884Y1235712D01*
X-4217894Y1235710D01*
X-4429150Y1179105D01*
X-4429159Y1179101D01*
X-4627384Y1086668D01*
X-4689571Y1043124D01*
X-4046448Y400000D01*
X-4052661Y400000D01*
X-4154394Y372741D01*
X-4245606Y320080D01*
X-4320080Y245606D01*
X-4372741Y154394D01*
X-4400000Y52661D01*
X-4400000Y46447D01*
X-5043124Y689571D01*
X-5086669Y627382D01*
X-5137342Y518715D01*
X-5183514Y466275D01*
X-5250708Y447123D01*
X-5317589Y467339D01*
X-5362106Y518714D01*
X-5412898Y627638D01*
X-5412900Y627642D01*
X-5538402Y806878D01*
X-5693119Y961595D01*
X-5696622Y964048D01*
X-5740248Y1018625D01*
X-5749500Y1065624D01*
X-5749500Y3999998D01*
X-3995468Y3999998D01*
X-3992537Y3966502D01*
X-3975635Y3773308D01*
X-3916739Y3553504D01*
X-3820568Y3347266D01*
X-3723741Y3208982D01*
X-3690045Y3160858D01*
X-3529141Y2999954D01*
X-3342734Y2869432D01*
X-3342732Y2869431D01*
X-3136497Y2773261D01*
X-3136488Y2773258D01*
X-2916697Y2714366D01*
X-2916686Y2714364D01*
X-2690002Y2694532D01*
X-2690000Y2694532D01*
X-2689998Y2694532D01*
X-2463313Y2714364D01*
X-2463302Y2714366D01*
X-2243511Y2773258D01*
X-2243502Y2773261D01*
X-2037267Y2869431D01*
X-2037265Y2869432D01*
X-1850858Y2999954D01*
X-1689954Y3160858D01*
X-1559432Y3347265D01*
X-1559431Y3347267D01*
X-1463261Y3553502D01*
X-1463258Y3553511D01*
X-1404366Y3773302D01*
X-1404364Y3773313D01*
X-1384532Y3999998D01*
X-1384532Y4000001D01*
X-1404364Y4226686D01*
X-1404366Y4226697D01*
X-1463258Y4446488D01*
X-1463261Y4446497D01*
X-1559431Y4652732D01*
X-1559432Y4652734D01*
X-1689954Y4839141D01*
X-1850858Y5000045D01*
X-2037265Y5130567D01*
X-2037266Y5130568D01*
X-2243504Y5226739D01*
X-2463308Y5285635D01*
X-2625230Y5299801D01*
X-2689998Y5305468D01*
X-2690002Y5305468D01*
X-2746673Y5300509D01*
X-2916692Y5285635D01*
X-3136496Y5226739D01*
X-3342734Y5130568D01*
X-3529139Y5000047D01*
X-3690047Y4839139D01*
X-3820568Y4652734D01*
X-3916739Y4446496D01*
X-3975635Y4226692D01*
X-3989085Y4072954D01*
X-3995468Y4000001D01*
X-3995468Y3999998D01*
X-5749500Y3999998D01*
X-5749500Y6476923D01*
X-5755235Y6505757D01*
X-5778339Y6621906D01*
X-5778340Y6621910D01*
X-5832584Y6752864D01*
X-5834232Y6757472D01*
X-5872663Y6814987D01*
X-5917048Y6881416D01*
X-14003282Y14967650D01*
X-14036767Y15028973D01*
X-14039129Y15066137D01*
X-14024532Y15232996D01*
X-14024532Y15233001D01*
X-14044364Y15459686D01*
X-14044366Y15459697D01*
X-14103258Y15679488D01*
X-14103261Y15679497D01*
X-14199431Y15885732D01*
X-14199432Y15885734D01*
X-14329954Y16072141D01*
X-14490858Y16233045D01*
X-14677265Y16363567D01*
X-14677266Y16363568D01*
X-14735275Y16390618D01*
X-14787714Y16436791D01*
X-14806866Y16503984D01*
X-14786650Y16570865D01*
X-14735275Y16615382D01*
X-14677267Y16642431D01*
X-14677265Y16642432D01*
X-14490858Y16772954D01*
X-14329954Y16933858D01*
X-14199432Y17120265D01*
X-14199431Y17120267D01*
X-14103261Y17326502D01*
X-14103258Y17326511D01*
X-14044366Y17546302D01*
X-14044364Y17546313D01*
X-14024532Y17772998D01*
X-14024532Y17773001D01*
X-14044364Y17999686D01*
X-14044366Y17999697D01*
X-14103258Y18219488D01*
X-14103261Y18219497D01*
X-14199431Y18425732D01*
X-14199432Y18425734D01*
X-14329954Y18612141D01*
X-14490858Y18773045D01*
X-14677265Y18903567D01*
X-14677266Y18903568D01*
X-14735275Y18930618D01*
X-14787714Y18976791D01*
X-14806866Y19043984D01*
X-14786650Y19110865D01*
X-14735275Y19155382D01*
X-14677267Y19182431D01*
X-14677265Y19182432D01*
X-14490858Y19312954D01*
X-14329954Y19473858D01*
X-14304912Y19509623D01*
X-14250335Y19553248D01*
X-14203337Y19562500D01*
X-9175230Y19562500D01*
X-9108191Y19542815D01*
X-9087549Y19526181D01*
X5713181Y4725451D01*
X5746666Y4664128D01*
X5749500Y4637770D01*
X5749500Y1065624D01*
X5729815Y998585D01*
X5696622Y964048D01*
X5693119Y961595D01*
X5538402Y806878D01*
X5412900Y627642D01*
X5412898Y627638D01*
X5362382Y519306D01*
X5316210Y466867D01*
X5249016Y447715D01*
X5182135Y467931D01*
X5137618Y519306D01*
X5087102Y627638D01*
X4961598Y806877D01*
X4806877Y961598D01*
X4803378Y964048D01*
X4759752Y1018625D01*
X4750500Y1065624D01*
X4750500Y2763920D01*
X4721659Y2908907D01*
X4721658Y2908913D01*
X4665084Y3045495D01*
X4625333Y3104987D01*
X4614684Y3120924D01*
X4582953Y3168414D01*
X4582952Y3168416D01*
X4016714Y3734652D01*
X3983231Y3795973D01*
X3980869Y3833137D01*
X3995468Y4000000D01*
X3975635Y4226692D01*
X3916739Y4446496D01*
X3820568Y4652734D01*
X3690047Y4839139D01*
X3529139Y5000047D01*
X3342734Y5130568D01*
X3136496Y5226739D01*
X2916692Y5285635D01*
X2746673Y5300509D01*
X2690002Y5305468D01*
X2689998Y5305468D01*
X2625230Y5299801D01*
X2463308Y5285635D01*
X2243504Y5226739D01*
X2037266Y5130568D01*
X2037265Y5130567D01*
X1850858Y5000045D01*
X1689954Y4839141D01*
X1559432Y4652734D01*
X1559431Y4652732D01*
X1463261Y4446497D01*
X1463258Y4446488D01*
X1404366Y4226697D01*
X1404364Y4226686D01*
X1384532Y4000001D01*
X1384532Y3999998D01*
X1404364Y3773313D01*
X1404366Y3773302D01*
X1463258Y3553511D01*
X1463261Y3553502D01*
X1559431Y3347267D01*
X1559432Y3347265D01*
X1689954Y3160858D01*
X1850858Y2999954D01*
X2037265Y2869432D01*
X2037267Y2869431D01*
X2243502Y2773261D01*
X2243511Y2773258D01*
X2463302Y2714366D01*
X2463313Y2714364D01*
X2689998Y2694532D01*
X2690000Y2694532D01*
X2690003Y2694532D01*
X2856861Y2709129D01*
X2925360Y2695362D01*
X2955348Y2673282D01*
X3213181Y2415450D01*
X3246666Y2354127D01*
X3249500Y2327769D01*
X3249500Y1065624D01*
X3229815Y998585D01*
X3196622Y964048D01*
X3193119Y961595D01*
X3038402Y806878D01*
X2912900Y627642D01*
X2912898Y627638D01*
X2820425Y429330D01*
X2820424Y429326D01*
X2820422Y429322D01*
X2763793Y217979D01*
X2763793Y217975D01*
X2744723Y2D01*
X2744723Y-2D01*
X2763793Y-217975D01*
X2763793Y-217979D01*
X2820422Y-429322D01*
X2820424Y-429326D01*
X2820425Y-429330D01*
X2837653Y-466275D01*
X2912897Y-627638D01*
X2912898Y-627639D01*
X3038402Y-806877D01*
X3193123Y-961598D01*
X3372361Y-1087102D01*
X3570670Y-1179575D01*
X3782023Y-1236207D01*
X3964926Y-1252208D01*
X3999998Y-1255277D01*
X4000000Y-1255277D01*
X4000002Y-1255277D01*
X4028254Y-1252805D01*
X4217977Y-1236207D01*
X4429330Y-1179575D01*
X4627639Y-1087102D01*
X4806877Y-961598D01*
X4961598Y-806877D01*
X5087102Y-627639D01*
X5137618Y-519306D01*
X5183790Y-466867D01*
X5250984Y-447715D01*
X5317865Y-467931D01*
X5362382Y-519307D01*
X5412779Y-627385D01*
X5412898Y-627639D01*
X5538402Y-806877D01*
X5693123Y-961598D01*
X5872361Y-1087102D01*
X6070670Y-1179575D01*
X6282023Y-1236207D01*
X6464926Y-1252208D01*
X6499998Y-1255277D01*
X6500000Y-1255277D01*
X6500002Y-1255277D01*
X6528254Y-1252805D01*
X6717977Y-1236207D01*
X6929330Y-1179575D01*
X7127639Y-1087102D01*
X7306877Y-961598D01*
X7461598Y-806877D01*
X7587102Y-627639D01*
X7637894Y-518714D01*
X7684066Y-466275D01*
X7751259Y-447123D01*
X7818141Y-467339D01*
X7862658Y-518715D01*
X7913331Y-627384D01*
X7913332Y-627386D01*
X7956874Y-689571D01*
X8600000Y-46445D01*
X8600000Y-52661D01*
X8627259Y-154394D01*
X8679920Y-245606D01*
X8754394Y-320080D01*
X8845606Y-372741D01*
X8947339Y-400000D01*
X8953553Y-400000D01*
X8310427Y-1043124D01*
X8372612Y-1086666D01*
X8570840Y-1179101D01*
X8570849Y-1179105D01*
X8782105Y-1235710D01*
X8782115Y-1235712D01*
X8999999Y-1254775D01*
X9000001Y-1254775D01*
X9217884Y-1235712D01*
X9217894Y-1235710D01*
X9429150Y-1179105D01*
X9429164Y-1179100D01*
X9627383Y-1086669D01*
X9627385Y-1086668D01*
X9689571Y-1043124D01*
X9046448Y-400000D01*
X9052661Y-400000D01*
X9154394Y-372741D01*
X9245606Y-320080D01*
X9320080Y-245606D01*
X9372741Y-154394D01*
X9400000Y-52661D01*
X9400000Y-46446D01*
X10043124Y-689570D01*
X10086668Y-627385D01*
X10086669Y-627383D01*
X10179100Y-429164D01*
X10179105Y-429150D01*
X10235710Y-217894D01*
X10235712Y-217884D01*
X10254775Y0D01*
X10235712Y217884D01*
X10235710Y217894D01*
X10179105Y429150D01*
X10179101Y429159D01*
X10086668Y627384D01*
X10043124Y689571D01*
X9400000Y46447D01*
X9400000Y52661D01*
X9372741Y154394D01*
X9320080Y245606D01*
X9245606Y320080D01*
X9154394Y372741D01*
X9052661Y400000D01*
X9046448Y400000D01*
X9689571Y1043124D01*
X9627385Y1086668D01*
X9627383Y1086669D01*
X9429164Y1179100D01*
X9429150Y1179105D01*
X9217894Y1235710D01*
X9217884Y1235712D01*
X9000001Y1254775D01*
X8999999Y1254775D01*
X8782115Y1235712D01*
X8782105Y1235710D01*
X8570849Y1179105D01*
X8570840Y1179101D01*
X8372614Y1086667D01*
X8372612Y1086666D01*
X8310428Y1043124D01*
X8310427Y1043124D01*
X8953553Y400000D01*
X8947339Y400000D01*
X8845606Y372741D01*
X8754394Y320080D01*
X8679920Y245606D01*
X8627259Y154394D01*
X8600000Y52661D01*
X8600000Y46446D01*
X7956875Y689571D01*
X7956873Y689570D01*
X7913335Y627390D01*
X7862658Y518714D01*
X7816486Y466275D01*
X7749292Y447123D01*
X7682411Y467339D01*
X7637894Y518714D01*
X7637618Y519306D01*
X7587102Y627638D01*
X7461598Y806877D01*
X7306877Y961598D01*
X7303378Y964048D01*
X7259752Y1018625D01*
X7250500Y1065624D01*
X7250500Y3999998D01*
X9004532Y3999998D01*
X9024364Y3773313D01*
X9024366Y3773302D01*
X9083258Y3553511D01*
X9083261Y3553502D01*
X9179431Y3347267D01*
X9179432Y3347265D01*
X9309954Y3160858D01*
X9470858Y2999954D01*
X9657265Y2869432D01*
X9657267Y2869431D01*
X9863502Y2773261D01*
X9863511Y2773258D01*
X10083302Y2714366D01*
X10083313Y2714364D01*
X10309998Y2694532D01*
X10310000Y2694532D01*
X10310002Y2694532D01*
X10536686Y2714364D01*
X10536697Y2714366D01*
X10756488Y2773258D01*
X10756497Y2773261D01*
X10962732Y2869431D01*
X10962734Y2869432D01*
X11149141Y2999954D01*
X11310045Y3160858D01*
X11343741Y3208982D01*
X11440568Y3347266D01*
X11536739Y3553504D01*
X11595635Y3773308D01*
X11612537Y3966502D01*
X11615468Y3999998D01*
X11615468Y4000001D01*
X11609085Y4072954D01*
X11595635Y4226692D01*
X11536739Y4446496D01*
X11440568Y4652734D01*
X11310047Y4839139D01*
X11149139Y5000047D01*
X10962734Y5130568D01*
X10756496Y5226739D01*
X10536692Y5285635D01*
X10366673Y5300509D01*
X10310002Y5305468D01*
X10309998Y5305468D01*
X10245230Y5299801D01*
X10083308Y5285635D01*
X9863504Y5226739D01*
X9657266Y5130568D01*
X9657265Y5130567D01*
X9470858Y5000045D01*
X9309954Y4839141D01*
X9179432Y4652734D01*
X9179431Y4652732D01*
X9083261Y4446497D01*
X9083258Y4446488D01*
X9024366Y4226697D01*
X9024364Y4226686D01*
X9004532Y4000001D01*
X9004532Y3999998D01*
X7250500Y3999998D01*
X7250500Y5073920D01*
X7221659Y5218907D01*
X7221658Y5218913D01*
X7165084Y5355495D01*
X7082951Y5478416D01*
X6978416Y5582951D01*
X-8334584Y20895952D01*
X-8334586Y20895954D01*
X-8364058Y20915645D01*
X-8408270Y20945186D01*
X-8457505Y20978084D01*
X-8457507Y20978085D01*
X-8457509Y20978086D01*
X-8594082Y21034656D01*
X-8594087Y21034658D01*
X-8594092Y21034659D01*
X-8739080Y21063500D01*
X-8739082Y21063500D01*
X-14203337Y21063500D01*
X-14270376Y21083185D01*
X-14304912Y21116377D01*
X-14329954Y21152141D01*
X-14490858Y21313045D01*
X-14677265Y21443567D01*
X-14677266Y21443568D01*
X-14735275Y21470618D01*
X-14787714Y21516791D01*
X-14806866Y21583984D01*
X-14786650Y21650865D01*
X-14735275Y21695382D01*
X-14677267Y21722431D01*
X-14677265Y21722432D01*
X-14490858Y21852954D01*
X-14329954Y22013858D01*
X-14199432Y22200265D01*
X-14199431Y22200267D01*
X-14103261Y22406502D01*
X-14103258Y22406511D01*
X-14044366Y22626302D01*
X-14044364Y22626313D01*
X-14024532Y22852998D01*
X-14024532Y22853001D01*
X-14044364Y23079686D01*
X-14044366Y23079697D01*
X-14103258Y23299488D01*
X-14103261Y23299497D01*
X-14199431Y23505732D01*
X-14199432Y23505734D01*
X-14329954Y23692141D01*
X-14490858Y23853045D01*
X-14677265Y23983567D01*
X-14677266Y23983568D01*
X-14735275Y24010618D01*
X-14787714Y24056791D01*
X-14806866Y24123984D01*
X-14786650Y24190865D01*
X-14735275Y24235382D01*
X-14677267Y24262431D01*
X-14677265Y24262432D01*
X-14490858Y24392954D01*
X-14329954Y24553858D01*
X-14199432Y24740265D01*
X-14199431Y24740267D01*
X-14103261Y24946502D01*
X-14103258Y24946511D01*
X-14044366Y25166302D01*
X-14044364Y25166313D01*
X-14024532Y25392998D01*
X-14024532Y25393001D01*
X-14044364Y25619686D01*
X-14044366Y25619697D01*
X-14103258Y25839488D01*
X-14103261Y25839497D01*
X-14199431Y26045732D01*
X-14199432Y26045734D01*
X-14329954Y26232141D01*
X-14490858Y26393045D01*
X-14588630Y26461505D01*
X-14677266Y26523568D01*
X-14735275Y26550618D01*
X-14787714Y26596791D01*
X-14806866Y26663984D01*
X-14786650Y26730865D01*
X-14735275Y26775382D01*
X-14734352Y26775812D01*
X-14718272Y26783310D01*
X-14677267Y26802431D01*
X-14677265Y26802432D01*
X-14523535Y26910075D01*
X-14457329Y26932402D01*
X-14452412Y26932500D01*
X-9778455Y26932500D01*
X-9681812Y26951724D01*
X-9585167Y26970947D01*
X-9585161Y26970949D01*
X-9531834Y26993037D01*
X-9531834Y26993038D01*
X-9453158Y27025627D01*
X-9403089Y27046366D01*
X-9403079Y27046371D01*
X-9239219Y27155859D01*
X-9145079Y27250000D01*
X-9099861Y27295218D01*
X-9099859Y27295220D01*
X-7802986Y28592093D01*
X-3897680Y32497397D01*
X-3836357Y32530882D01*
X-3766665Y32525898D01*
X-3722318Y32497397D01*
X-2306819Y31081898D01*
X-2273334Y31020575D01*
X-2270500Y30994217D01*
X-2270500Y28619430D01*
X-2290185Y28552391D01*
X-2342989Y28506636D01*
X-2412147Y28496692D01*
X-2475703Y28525717D01*
X-2510682Y28576097D01*
X-2516645Y28592086D01*
X-2516649Y28592093D01*
X-2602809Y28707187D01*
X-2602812Y28707190D01*
X-2717906Y28793350D01*
X-2717913Y28793354D01*
X-2852620Y28843596D01*
X-2852627Y28843598D01*
X-2912155Y28849999D01*
X-2912172Y28850000D01*
X-3560000Y28850000D01*
X-3560000Y27933012D01*
X-3617007Y27965925D01*
X-3744174Y28000000D01*
X-3875826Y28000000D01*
X-4002993Y27965925D01*
X-4060000Y27933012D01*
X-4060000Y28850000D01*
X-4707828Y28850000D01*
X-4707844Y28849999D01*
X-4767372Y28843598D01*
X-4767379Y28843596D01*
X-4902086Y28793354D01*
X-4902093Y28793350D01*
X-5017187Y28707190D01*
X-5017190Y28707187D01*
X-5103350Y28592093D01*
X-5103354Y28592086D01*
X-5153596Y28457379D01*
X-5153598Y28457372D01*
X-5159999Y28397844D01*
X-5160000Y28397827D01*
X-5160000Y27750000D01*
X-4243012Y27750000D01*
X-4275925Y27692993D01*
X-4310000Y27565826D01*
X-4310000Y27434174D01*
X-4275925Y27307007D01*
X-4243012Y27250000D01*
X-5160000Y27250000D01*
X-5160000Y26602172D01*
X-5159999Y26602155D01*
X-5153598Y26542627D01*
X-5153596Y26542620D01*
X-5103354Y26407913D01*
X-5103350Y26407906D01*
X-5017190Y26292812D01*
X-5017187Y26292809D01*
X-4902093Y26206649D01*
X-4902086Y26206645D01*
X-4767379Y26156403D01*
X-4767372Y26156401D01*
X-4707844Y26150000D01*
X-4060000Y26150000D01*
X-4060000Y27066988D01*
X-4002993Y27034075D01*
X-3875826Y27000000D01*
X-3744174Y27000000D01*
X-3617007Y27034075D01*
X-3560000Y27066988D01*
X-3560000Y26150000D01*
X-2912155Y26150000D01*
X-2852627Y26156401D01*
X-2852620Y26156403D01*
X-2717913Y26206645D01*
X-2717906Y26206649D01*
X-2602812Y26292809D01*
X-2602809Y26292812D01*
X-2516649Y26407906D01*
X-2516646Y26407912D01*
X-2467577Y26539471D01*
X-2425705Y26595404D01*
X-2360241Y26619821D01*
X-2291968Y26604969D01*
X-2263714Y26583818D01*
X-2141402Y26461506D01*
X-2141395Y26461501D01*
X-1947834Y26325967D01*
X-1947830Y26325965D01*
X-1733663Y26226097D01*
X-1733659Y26226096D01*
X-1733655Y26226094D01*
X-1505413Y26164938D01*
X-1505403Y26164936D01*
X-1270001Y26144341D01*
X-1270000Y26144341D01*
X-1269999Y26144341D01*
X-1034596Y26164936D01*
X-1034586Y26164938D01*
X-806344Y26226094D01*
X-806335Y26226098D01*
X-805869Y26226315D01*
X-779295Y26238706D01*
X-592169Y26325965D01*
X-592165Y26325967D01*
X-398604Y26461501D01*
X-398597Y26461506D01*
X-231506Y26628597D01*
X-231505Y26628599D01*
X-101575Y26814158D01*
X-46998Y26857782D01*
X22501Y26864975D01*
X84855Y26833453D01*
X101575Y26814158D01*
X231505Y26628599D01*
X231506Y26628597D01*
X398597Y26461506D01*
X398604Y26461501D01*
X592165Y26325967D01*
X592169Y26325965D01*
X779295Y26238706D01*
X805869Y26226315D01*
X806335Y26226098D01*
X806344Y26226094D01*
X1034586Y26164938D01*
X1034596Y26164936D01*
X1269999Y26144341D01*
X1270000Y26144341D01*
X1270001Y26144341D01*
X1505403Y26164936D01*
X1505413Y26164938D01*
X1733655Y26226094D01*
X1733659Y26226096D01*
X1733663Y26226097D01*
X1947830Y26325965D01*
X1947834Y26325967D01*
X2141395Y26461501D01*
X2141402Y26461506D01*
X2308493Y26628597D01*
X2308495Y26628599D01*
X2438425Y26814158D01*
X2493002Y26857782D01*
X2562501Y26864975D01*
X2624855Y26833453D01*
X2641575Y26814158D01*
X2771505Y26628599D01*
X2771506Y26628597D01*
X2938597Y26461506D01*
X2938604Y26461501D01*
X3132165Y26325967D01*
X3132169Y26325965D01*
X3319295Y26238706D01*
X3345869Y26226315D01*
X3346335Y26226098D01*
X3346344Y26226094D01*
X3574586Y26164938D01*
X3574596Y26164936D01*
X3809999Y26144341D01*
X3810000Y26144341D01*
X3810001Y26144341D01*
X4045403Y26164936D01*
X4045413Y26164938D01*
X4273655Y26226094D01*
X4273659Y26226096D01*
X4273663Y26226097D01*
X4487830Y26325965D01*
X4487834Y26325967D01*
X4681395Y26461501D01*
X4681402Y26461506D01*
X4848493Y26628597D01*
X4848495Y26628599D01*
X4918944Y26729210D01*
X4984032Y26822165D01*
X4984034Y26822169D01*
X4984035Y26822170D01*
X5083903Y27036337D01*
X5145063Y27264592D01*
X5165659Y27500000D01*
X5147022Y27713014D01*
X5160788Y27781513D01*
X5182869Y27811502D01*
X5746948Y28375580D01*
X5746951Y28375584D01*
X5829080Y28498498D01*
X5829087Y28498511D01*
X5885656Y28635082D01*
X5885659Y28635092D01*
X5914500Y28780079D01*
X5914500Y35719920D01*
X5885659Y35864907D01*
X5885658Y35864913D01*
X5829084Y36001495D01*
X5746951Y36124416D01*
X5642416Y36228951D01*
X5136714Y36734652D01*
X5103231Y36795973D01*
X5100869Y36833135D01*
X5115468Y37000000D01*
X5095635Y37226692D01*
X5036739Y37446496D01*
X4940568Y37652734D01*
X4810047Y37839139D01*
X4649139Y38000047D01*
X4462734Y38130568D01*
X4256496Y38226739D01*
X4036692Y38285635D01*
X3866673Y38300509D01*
X3810002Y38305468D01*
X3809998Y38305468D01*
X3745230Y38299801D01*
X3583308Y38285635D01*
X3363504Y38226739D01*
X3157266Y38130568D01*
X3157265Y38130567D01*
X2970858Y38000045D01*
X2809954Y37839141D01*
X2679432Y37652734D01*
X2679431Y37652732D01*
X2583261Y37446497D01*
X2583258Y37446488D01*
X2524366Y37226697D01*
X2524364Y37226686D01*
X2504532Y37000001D01*
X2504532Y36999998D01*
X2524364Y36773313D01*
X2524366Y36773302D01*
X2583258Y36553511D01*
X2583261Y36553502D01*
X2679431Y36347267D01*
X2679432Y36347265D01*
X2809954Y36160858D01*
X2970858Y35999954D01*
X3157265Y35869432D01*
X3157267Y35869431D01*
X3363502Y35773261D01*
X3363511Y35773258D01*
X3583302Y35714366D01*
X3583313Y35714364D01*
X3809998Y35694532D01*
X3810000Y35694532D01*
X3810003Y35694532D01*
X3976861Y35709129D01*
X4045360Y35695362D01*
X4075348Y35673282D01*
X4291804Y35456827D01*
X4325289Y35395504D01*
X4320305Y35325813D01*
X4278434Y35269879D01*
X4212969Y35245462D01*
X4172033Y35249370D01*
X4036692Y35285635D01*
X3866673Y35300509D01*
X3810002Y35305468D01*
X3809998Y35305468D01*
X3745230Y35299801D01*
X3583308Y35285635D01*
X3363504Y35226739D01*
X3157266Y35130568D01*
X3157265Y35130567D01*
X2970858Y35000045D01*
X2809954Y34839141D01*
X2679432Y34652734D01*
X2679431Y34652732D01*
X2583261Y34446497D01*
X2583258Y34446488D01*
X2524366Y34226697D01*
X2524364Y34226686D01*
X2504532Y34000001D01*
X2504532Y33999998D01*
X2524364Y33773313D01*
X2524366Y33773302D01*
X2583258Y33553511D01*
X2583261Y33553502D01*
X2679431Y33347267D01*
X2679432Y33347265D01*
X2809951Y33160862D01*
X2970863Y32999951D01*
X3006625Y32974910D01*
X3050249Y32920332D01*
X3059500Y32873336D01*
X3059500Y30402229D01*
X3039815Y30335190D01*
X3023181Y30314548D01*
X1581501Y28872869D01*
X1520178Y28839384D01*
X1483014Y28837022D01*
X1305284Y28852571D01*
X1270001Y28855659D01*
X1269999Y28855659D01*
X1222918Y28851539D01*
X1034592Y28835063D01*
X878930Y28793354D01*
X829398Y28780082D01*
X806337Y28773903D01*
X592171Y28674035D01*
X592169Y28674034D01*
X398597Y28538494D01*
X231506Y28371403D01*
X231505Y28371401D01*
X101573Y28185838D01*
X46999Y28142215D01*
X-22500Y28135021D01*
X-84855Y28166543D01*
X-101571Y28185836D01*
X-231505Y28371401D01*
X-233173Y28373069D01*
X-233675Y28373989D01*
X-234986Y28375551D01*
X-234672Y28375814D01*
X-266664Y28434389D01*
X-269500Y28460758D01*
X-269500Y31558543D01*
X-269499Y31558543D01*
X-307947Y31751829D01*
X-307950Y31751839D01*
X-383364Y31933907D01*
X-383371Y31933920D01*
X-492859Y32097780D01*
X-544177Y32149098D01*
X-632218Y32237139D01*
X-2483111Y34088032D01*
X-2516596Y34149355D01*
X-2518958Y34164903D01*
X-2524364Y34226688D01*
X-2524366Y34226697D01*
X-2583258Y34446488D01*
X-2583261Y34446497D01*
X-2679431Y34652732D01*
X-2679432Y34652734D01*
X-2778749Y34794574D01*
X-2787075Y34806465D01*
X-2809402Y34872671D01*
X-2809500Y34877588D01*
X-2809500Y36122410D01*
X-2789815Y36189449D01*
X-2787076Y36193532D01*
X-2679431Y36347267D01*
X-2583261Y36553502D01*
X-2583258Y36553511D01*
X-2524366Y36773302D01*
X-2524364Y36773313D01*
X-2504532Y36999998D01*
X-2504532Y37000001D01*
X-2524364Y37226686D01*
X-2524366Y37226697D01*
X-2583258Y37446488D01*
X-2583261Y37446497D01*
X-2679431Y37652732D01*
X-2679432Y37652734D01*
X-2809954Y37839141D01*
X-2970858Y38000045D01*
X-3157265Y38130567D01*
X-3157266Y38130568D01*
X-3363504Y38226739D01*
X-3583308Y38285635D01*
X-3745230Y38299801D01*
X-3809998Y38305468D01*
X-3810002Y38305468D01*
X-3866673Y38300509D01*
X-4036692Y38285635D01*
X-4256496Y38226739D01*
X-4462734Y38130568D01*
X-4649139Y38000047D01*
X-4810047Y37839139D01*
X-4940568Y37652734D01*
X-5036739Y37446496D01*
X-5095635Y37226692D01*
X-5115468Y37000000D01*
X-5095635Y36773308D01*
X-5036739Y36553504D01*
X-4940568Y36347266D01*
X-4940567Y36347265D01*
X-4832924Y36193532D01*
X-4810597Y36127326D01*
X-4810500Y36122410D01*
X-4810500Y34877588D01*
X-4830185Y34810549D01*
X-4832917Y34806476D01*
X-4940568Y34652734D01*
X-5036739Y34446496D01*
X-5095635Y34226692D01*
X-5101040Y34164905D01*
X-5126490Y34099839D01*
X-5136878Y34088040D01*
X-9064188Y30160732D01*
X-10255101Y28969819D01*
X-10316424Y28936334D01*
X-10342782Y28933500D01*
X-11502040Y28933500D01*
X-11569079Y28953185D01*
X-11614834Y29005989D01*
X-11624778Y29075147D01*
X-11619747Y29096502D01*
X-11615143Y29110393D01*
X-11605000Y29209677D01*
X-11605000Y29233000D01*
X-13554999Y29233000D01*
X-13554999Y29209692D01*
X-13554998Y29209677D01*
X-13544855Y29110393D01*
X-13540253Y29096502D01*
X-13537853Y29026673D01*
X-13573586Y28966632D01*
X-13636107Y28935441D01*
X-13657960Y28933500D01*
X-14452412Y28933500D01*
X-14519451Y28953185D01*
X-14523535Y28955925D01*
X-14543378Y28969819D01*
X-14677266Y29063568D01*
X-14883504Y29159739D01*
X-14883506Y29159739D01*
X-14888598Y29161593D01*
X-14887850Y29163646D01*
X-14939482Y29195109D01*
X-14970019Y29257953D01*
X-14961732Y29327329D01*
X-14935419Y29366211D01*
X-14568630Y29733000D01*
X-13555000Y29733000D01*
X-12830000Y29733000D01*
X-12330000Y29733000D01*
X-11605001Y29733000D01*
X-11605001Y29756322D01*
X-11615144Y29855607D01*
X-11668452Y30016481D01*
X-11668457Y30016492D01*
X-11757424Y30160728D01*
X-11757427Y30160732D01*
X-11877267Y30280572D01*
X-11877271Y30280575D01*
X-12021507Y30369542D01*
X-12021518Y30369547D01*
X-12182393Y30422855D01*
X-12281683Y30432999D01*
X-12330000Y30432998D01*
X-12330000Y29733000D01*
X-12830000Y29733000D01*
X-12830000Y30432999D01*
X-12878308Y30432999D01*
X-12878322Y30432998D01*
X-12977607Y30422855D01*
X-13138481Y30369547D01*
X-13138492Y30369542D01*
X-13282728Y30280575D01*
X-13282732Y30280572D01*
X-13402572Y30160732D01*
X-13402575Y30160728D01*
X-13491542Y30016492D01*
X-13491547Y30016481D01*
X-13544855Y29855606D01*
X-13554999Y29756322D01*
X-13555000Y29756309D01*
X-13555000Y29733000D01*
X-14568630Y29733000D01*
X-6713051Y37588580D01*
X-6713048Y37588584D01*
X-6630919Y37711498D01*
X-6630912Y37711511D01*
X-6574343Y37848082D01*
X-6574340Y37848092D01*
X-6545500Y37993079D01*
X-6545500Y39272453D01*
X-6525815Y39339492D01*
X-6473011Y39385247D01*
X-6403853Y39395191D01*
X-6398741Y39394346D01*
X-6206980Y39358500D01*
X-6206978Y39358500D01*
X-5993022Y39358500D01*
X-5993020Y39358500D01*
X-5782703Y39397815D01*
X-5630502Y39456778D01*
X-5583192Y39475106D01*
X-5583186Y39475108D01*
X-5401286Y39587736D01*
X-5401283Y39587738D01*
X-5401279Y39587740D01*
X-5401278Y39587742D01*
X-5243159Y39731886D01*
X-5212112Y39772999D01*
X-5114219Y39902629D01*
X-5018849Y40094158D01*
X-5018846Y40094164D01*
X-4960296Y40299949D01*
X-4960295Y40299952D01*
X-4953471Y40373604D01*
X-4927685Y40438542D01*
X-4870884Y40479229D01*
X-4801103Y40482749D01*
X-4740497Y40447984D01*
X-4708307Y40385971D01*
X-4706529Y40373604D01*
X-4699704Y40299952D01*
X-4699703Y40299949D01*
X-4641153Y40094164D01*
X-4641151Y40094160D01*
X-4545781Y39902630D01*
X-4416841Y39731886D01*
X-4258722Y39587742D01*
X-4258716Y39587738D01*
X-4258713Y39587736D01*
X-4076813Y39475108D01*
X-4076810Y39475107D01*
X-3877297Y39397815D01*
X-3666980Y39358500D01*
X-3666978Y39358500D01*
X-3453022Y39358500D01*
X-3453020Y39358500D01*
X-3242703Y39397815D01*
X-3090502Y39456778D01*
X-3043192Y39475106D01*
X-3043186Y39475108D01*
X-2861286Y39587736D01*
X-2861283Y39587738D01*
X-2861279Y39587740D01*
X-2861278Y39587742D01*
X-2703159Y39731886D01*
X-2672112Y39772999D01*
X-2574219Y39902629D01*
X-2478849Y40094158D01*
X-2478846Y40094164D01*
X-2420296Y40299949D01*
X-2420295Y40299952D01*
X-2413471Y40373604D01*
X-2387685Y40438542D01*
X-2330884Y40479229D01*
X-2261103Y40482749D01*
X-2200497Y40447984D01*
X-2168307Y40385971D01*
X-2166529Y40373604D01*
X-2159704Y40299952D01*
X-2159703Y40299949D01*
X-2101153Y40094164D01*
X-2101151Y40094160D01*
X-2005781Y39902630D01*
X-1876841Y39731886D01*
X-1718722Y39587742D01*
X-1718716Y39587738D01*
X-1718713Y39587736D01*
X-1536813Y39475108D01*
X-1536810Y39475107D01*
X-1337297Y39397815D01*
X-1126980Y39358500D01*
X-1126978Y39358500D01*
X-913022Y39358500D01*
X-913020Y39358500D01*
X-702703Y39397815D01*
X-550502Y39456778D01*
X-503192Y39475106D01*
X-503186Y39475108D01*
X-321286Y39587736D01*
X-321283Y39587738D01*
X-321279Y39587740D01*
X-321278Y39587742D01*
X-163159Y39731886D01*
X-132112Y39772999D01*
X-34219Y39902629D01*
X61150Y40094158D01*
X61153Y40094164D01*
X119703Y40299949D01*
X119704Y40299952D01*
X126529Y40373604D01*
X152315Y40438542D01*
X209116Y40479229D01*
X278897Y40482749D01*
X339503Y40447984D01*
X371693Y40385971D01*
X373471Y40373604D01*
X380295Y40299952D01*
X380296Y40299949D01*
X438846Y40094164D01*
X438849Y40094158D01*
X534219Y39902629D01*
X632112Y39772999D01*
X663159Y39731886D01*
X821278Y39587742D01*
X821279Y39587740D01*
X821283Y39587738D01*
X821286Y39587736D01*
X1003186Y39475108D01*
X1003192Y39475106D01*
X1050502Y39456778D01*
X1202703Y39397815D01*
X1413020Y39358500D01*
X1413022Y39358500D01*
X1626978Y39358500D01*
X1626980Y39358500D01*
X1837297Y39397815D01*
X2036810Y39475107D01*
X2036813Y39475108D01*
X2218713Y39587736D01*
X2218716Y39587738D01*
X2218722Y39587742D01*
X2376841Y39731886D01*
X2505781Y39902630D01*
X2601151Y40094160D01*
X2601153Y40094164D01*
X2659703Y40299949D01*
X2659704Y40299953D01*
X2659712Y40300043D01*
X2666780Y40376313D01*
X2692565Y40441248D01*
X2749365Y40481936D01*
X2819146Y40485456D01*
X2879752Y40450692D01*
X2911943Y40388679D01*
X2913721Y40376313D01*
X2920789Y40300044D01*
X2920789Y40300043D01*
X2979315Y40094345D01*
X2979321Y40094330D01*
X3074646Y39902893D01*
X3083980Y39890533D01*
X3660000Y40466553D01*
X3660000Y40460339D01*
X3687259Y40358606D01*
X3739920Y40267394D01*
X3814394Y40192920D01*
X3905606Y40140259D01*
X4007339Y40113000D01*
X4013552Y40113000D01*
X3440086Y39539533D01*
X3440087Y39539532D01*
X3543410Y39475557D01*
X3543416Y39475554D01*
X3742837Y39398299D01*
X3953068Y39359000D01*
X4166932Y39359000D01*
X4377162Y39398299D01*
X4576585Y39475555D01*
X4576586Y39475556D01*
X4679912Y39539533D01*
X4679912Y39539534D01*
X4106448Y40113000D01*
X4112661Y40113000D01*
X4214394Y40140259D01*
X4305606Y40192920D01*
X4380080Y40267394D01*
X4432741Y40358606D01*
X4460000Y40460339D01*
X4460000Y40466552D01*
X5036018Y39890534D01*
X5045355Y39902898D01*
X5045357Y39902901D01*
X5140678Y40094330D01*
X5140684Y40094345D01*
X5199210Y40300043D01*
X5199211Y40300045D01*
X5206278Y40376311D01*
X5232064Y40441248D01*
X5288864Y40481936D01*
X5358645Y40485456D01*
X5419252Y40450691D01*
X5451442Y40388678D01*
X5453220Y40376312D01*
X5460296Y40299952D01*
X5460296Y40299949D01*
X5518846Y40094164D01*
X5518849Y40094158D01*
X5614219Y39902629D01*
X5712112Y39772999D01*
X5743159Y39731886D01*
X5901278Y39587742D01*
X5901279Y39587740D01*
X5901283Y39587738D01*
X5901286Y39587736D01*
X6083186Y39475108D01*
X6083192Y39475106D01*
X6130502Y39456778D01*
X6282703Y39397815D01*
X6493020Y39358500D01*
X6493022Y39358500D01*
X6706978Y39358500D01*
X6706980Y39358500D01*
X6917297Y39397815D01*
X7116810Y39475107D01*
X7116813Y39475108D01*
X7298713Y39587736D01*
X7298716Y39587738D01*
X7298722Y39587742D01*
X7456841Y39731886D01*
X7585781Y39902630D01*
X7681151Y40094160D01*
X7681153Y40094164D01*
X7739703Y40299949D01*
X7739704Y40299952D01*
X7759446Y40512999D01*
X7759446Y40513000D01*
X7739713Y40725954D01*
X7739704Y40726048D01*
X7699727Y40866553D01*
X7681153Y40931835D01*
X7681151Y40931840D01*
X7585781Y41123370D01*
X7456841Y41294114D01*
X7298722Y41438258D01*
X7116810Y41550893D01*
X6917297Y41628185D01*
X6706980Y41667500D01*
X6493020Y41667500D01*
X6282703Y41628185D01*
X6083190Y41550893D01*
X6083187Y41550891D01*
X6083186Y41550891D01*
X5979135Y41486465D01*
X5901278Y41438258D01*
X5743159Y41294114D01*
X5731295Y41278403D01*
X5614219Y41123370D01*
X5518849Y40931841D01*
X5518846Y40931835D01*
X5460296Y40726050D01*
X5460296Y40726048D01*
X5453220Y40649687D01*
X5427434Y40584750D01*
X5370633Y40544063D01*
X5300852Y40540543D01*
X5240246Y40575308D01*
X5208056Y40637321D01*
X5206278Y40649688D01*
X5199211Y40725954D01*
X5199210Y40725956D01*
X5140684Y40931654D01*
X5140678Y40931669D01*
X5045355Y41123102D01*
X5045352Y41123107D01*
X5036019Y41135464D01*
X5036018Y41135464D01*
X4460000Y40559446D01*
X4460000Y40565661D01*
X4432741Y40667394D01*
X4380080Y40758606D01*
X4305606Y40833080D01*
X4214394Y40885741D01*
X4112661Y40913000D01*
X4106448Y40913000D01*
X4679911Y41486465D01*
X4679911Y41486466D01*
X4576589Y41550442D01*
X4576585Y41550444D01*
X4377162Y41627700D01*
X4166932Y41667000D01*
X3953068Y41667000D01*
X3742837Y41627700D01*
X3543414Y41550444D01*
X3543413Y41550443D01*
X3440086Y41486465D01*
X4013553Y40913000D01*
X4007339Y40913000D01*
X3905606Y40885741D01*
X3814394Y40833080D01*
X3739920Y40758606D01*
X3687259Y40667394D01*
X3660000Y40565661D01*
X3660000Y40559445D01*
X3083980Y41135465D01*
X3074647Y41123107D01*
X3074642Y41123099D01*
X2979321Y40931669D01*
X2979315Y40931654D01*
X2920789Y40725956D01*
X2920788Y40725954D01*
X2913721Y40649687D01*
X2887934Y40584750D01*
X2831133Y40544063D01*
X2761352Y40540543D01*
X2700746Y40575309D01*
X2668557Y40637322D01*
X2666781Y40649673D01*
X2659704Y40726048D01*
X2619727Y40866553D01*
X2601153Y40931835D01*
X2601151Y40931840D01*
X2505781Y41123370D01*
X2376841Y41294114D01*
X2218722Y41438258D01*
X2036810Y41550893D01*
X1837297Y41628185D01*
X1626980Y41667500D01*
X1413020Y41667500D01*
X1202703Y41628185D01*
X1003190Y41550893D01*
X1003187Y41550891D01*
X1003186Y41550891D01*
X899135Y41486465D01*
X821278Y41438258D01*
X663159Y41294114D01*
X651295Y41278403D01*
X534219Y41123370D01*
X438849Y40931841D01*
X438846Y40931835D01*
X380296Y40726050D01*
X380295Y40726047D01*
X373471Y40652395D01*
X347685Y40587457D01*
X290884Y40546770D01*
X221103Y40543250D01*
X160497Y40578015D01*
X128307Y40640028D01*
X126529Y40652395D01*
X119713Y40725954D01*
X119704Y40726048D01*
X79727Y40866553D01*
X61153Y40931835D01*
X61151Y40931840D01*
X-34219Y41123370D01*
X-163159Y41294114D01*
X-321278Y41438258D01*
X-399135Y41486465D01*
X-503186Y41550891D01*
X-503187Y41550891D01*
X-503190Y41550893D01*
X-702703Y41628185D01*
X-913020Y41667500D01*
X-1126980Y41667500D01*
X-1337297Y41628185D01*
X-1536810Y41550893D01*
X-1718722Y41438258D01*
X-1876841Y41294114D01*
X-2005781Y41123370D01*
X-2101151Y40931840D01*
X-2101153Y40931835D01*
X-2119727Y40866553D01*
X-2159704Y40726048D01*
X-2159713Y40725954D01*
X-2166529Y40652395D01*
X-2192315Y40587457D01*
X-2249116Y40546770D01*
X-2318897Y40543250D01*
X-2379503Y40578015D01*
X-2411693Y40640028D01*
X-2413471Y40652395D01*
X-2420295Y40726047D01*
X-2420296Y40726050D01*
X-2478846Y40931835D01*
X-2478849Y40931841D01*
X-2574219Y41123370D01*
X-2691295Y41278403D01*
X-2703159Y41294114D01*
X-2861278Y41438258D01*
X-2939135Y41486465D01*
X-3043186Y41550891D01*
X-3043187Y41550891D01*
X-3043190Y41550893D01*
X-3242703Y41628185D01*
X-3453020Y41667500D01*
X-3666980Y41667500D01*
X-3877297Y41628185D01*
X-4076810Y41550893D01*
X-4258722Y41438258D01*
X-4416841Y41294114D01*
X-4545781Y41123370D01*
X-4641151Y40931840D01*
X-4641153Y40931835D01*
X-4659727Y40866553D01*
X-4699704Y40726048D01*
X-4699713Y40725954D01*
X-4706529Y40652395D01*
X-4732315Y40587457D01*
X-4789116Y40546770D01*
X-4858897Y40543250D01*
X-4919503Y40578015D01*
X-4951693Y40640028D01*
X-4953471Y40652395D01*
X-4960295Y40726047D01*
X-4960296Y40726050D01*
X-5018846Y40931835D01*
X-5018849Y40931841D01*
X-5114219Y41123370D01*
X-5231295Y41278403D01*
X-5243159Y41294114D01*
X-5401278Y41438258D01*
X-5479135Y41486465D01*
X-5583186Y41550891D01*
X-5583187Y41550891D01*
X-5583190Y41550893D01*
X-5782703Y41628185D01*
X-5993020Y41667500D01*
X-6206980Y41667500D01*
X-6398720Y41631657D01*
X-6468229Y41638688D01*
X-6522908Y41682185D01*
X-6545391Y41748339D01*
X-6545500Y41753546D01*
X-6545500Y44034770D01*
X-6525815Y44101809D01*
X-6509181Y44122451D01*
X3930548Y54562181D01*
X3991871Y54595666D01*
X4018229Y54598500D01*
X4166978Y54598500D01*
X4166980Y54598500D01*
X4377297Y54637815D01*
X4576810Y54715107D01*
X4576813Y54715108D01*
X4758713Y54827736D01*
X4758716Y54827738D01*
X4758722Y54827742D01*
X4916841Y54971886D01*
X5045781Y55142630D01*
X5141151Y55334160D01*
X5141153Y55334164D01*
X5199703Y55539949D01*
X5199704Y55539953D01*
X5199712Y55540043D01*
X5206780Y55616313D01*
X5232565Y55681248D01*
X5289365Y55721936D01*
X5359146Y55725456D01*
X5419752Y55690692D01*
X5451943Y55628679D01*
X5453721Y55616313D01*
X5460789Y55540044D01*
X5460789Y55540043D01*
X5519315Y55334345D01*
X5519321Y55334330D01*
X5614646Y55142893D01*
X5623980Y55130533D01*
X6200000Y55706553D01*
X6200000Y55700339D01*
X6227259Y55598606D01*
X6279920Y55507394D01*
X6354394Y55432920D01*
X6445606Y55380259D01*
X6547339Y55353000D01*
X6553552Y55353000D01*
X5980086Y54779533D01*
X5980087Y54779532D01*
X6083410Y54715557D01*
X6083416Y54715554D01*
X6282837Y54638299D01*
X6493068Y54599000D01*
X6706932Y54599000D01*
X6917162Y54638299D01*
X7116585Y54715555D01*
X7116586Y54715556D01*
X7219912Y54779533D01*
X7219912Y54779534D01*
X6646448Y55353000D01*
X6652661Y55353000D01*
X6754394Y55380259D01*
X6845606Y55432920D01*
X6920080Y55507394D01*
X6972741Y55598606D01*
X7000000Y55700339D01*
X7000000Y55706552D01*
X7576018Y55130534D01*
X7585355Y55142898D01*
X7585357Y55142901D01*
X7680678Y55334330D01*
X7680684Y55334345D01*
X7739210Y55540043D01*
X7739211Y55540045D01*
X7758944Y55752999D01*
X7758944Y55753000D01*
X7739211Y55965954D01*
X7739210Y55965956D01*
X7680684Y56171654D01*
X7680678Y56171669D01*
X7585355Y56363102D01*
X7585352Y56363107D01*
X7576019Y56375464D01*
X7576018Y56375464D01*
X7000000Y55799446D01*
X7000000Y55805661D01*
X6972741Y55907394D01*
X6920080Y55998606D01*
X6845606Y56073080D01*
X6754394Y56125741D01*
X6652661Y56153000D01*
X6646448Y56153000D01*
X7219911Y56726465D01*
X7219911Y56726466D01*
X7116589Y56790442D01*
X7116585Y56790444D01*
X6917162Y56867700D01*
X6706932Y56907000D01*
X6493068Y56907000D01*
X6282837Y56867700D01*
X6083414Y56790444D01*
X6083413Y56790443D01*
X5980086Y56726465D01*
X6553553Y56153000D01*
X6547339Y56153000D01*
X6445606Y56125741D01*
X6354394Y56073080D01*
X6279920Y55998606D01*
X6227259Y55907394D01*
X6200000Y55805661D01*
X6200000Y55799445D01*
X5623980Y56375465D01*
X5614647Y56363107D01*
X5614642Y56363099D01*
X5519321Y56171669D01*
X5519315Y56171654D01*
X5460789Y55965956D01*
X5460788Y55965954D01*
X5453721Y55889687D01*
X5427934Y55824750D01*
X5371133Y55784063D01*
X5301352Y55780543D01*
X5240746Y55815309D01*
X5208557Y55877322D01*
X5206781Y55889673D01*
X5199704Y55966048D01*
X5159727Y56106553D01*
X5141153Y56171835D01*
X5141151Y56171840D01*
X5045781Y56363370D01*
X4916841Y56534114D01*
X4758722Y56678258D01*
X4576810Y56790893D01*
X4377297Y56868185D01*
X4166980Y56907500D01*
X3953020Y56907500D01*
X3742703Y56868185D01*
X3543190Y56790893D01*
X3543187Y56790891D01*
X3543186Y56790891D01*
X3439135Y56726465D01*
X3361278Y56678258D01*
X3203159Y56534114D01*
X3083353Y56375465D01*
X3074219Y56363370D01*
X2978849Y56171841D01*
X2978846Y56171835D01*
X2920296Y55966050D01*
X2920295Y55966047D01*
X2913471Y55892395D01*
X2887685Y55827457D01*
X2830884Y55786770D01*
X2761103Y55783250D01*
X2700497Y55818015D01*
X2668307Y55880028D01*
X2666529Y55892395D01*
X2659713Y55965954D01*
X2659704Y55966048D01*
X2619727Y56106553D01*
X2601153Y56171835D01*
X2601151Y56171840D01*
X2505781Y56363370D01*
X2376841Y56534114D01*
X2218722Y56678258D01*
X2036810Y56790893D01*
X1837297Y56868185D01*
X1626980Y56907500D01*
X1413020Y56907500D01*
X1202703Y56868185D01*
X1003190Y56790893D01*
X1003187Y56790891D01*
X1003186Y56790891D01*
X899135Y56726465D01*
X821278Y56678258D01*
X663159Y56534114D01*
X543353Y56375465D01*
X534219Y56363370D01*
X438849Y56171841D01*
X438846Y56171835D01*
X380296Y55966050D01*
X380295Y55966047D01*
X373471Y55892395D01*
X347685Y55827457D01*
X290884Y55786770D01*
X221103Y55783250D01*
X160497Y55818015D01*
X128307Y55880028D01*
X126529Y55892395D01*
X119713Y55965954D01*
X119704Y55966048D01*
X79727Y56106553D01*
X61153Y56171835D01*
X61151Y56171840D01*
X-34219Y56363370D01*
X-163159Y56534114D01*
X-321278Y56678258D01*
X-399135Y56726465D01*
X-503186Y56790891D01*
X-503187Y56790891D01*
X-503190Y56790893D01*
X-702703Y56868185D01*
X-913020Y56907500D01*
X-1126980Y56907500D01*
X-1337297Y56868185D01*
X-1536810Y56790893D01*
X-1718722Y56678258D01*
X-1876841Y56534114D01*
X-2005781Y56363370D01*
X-2101151Y56171840D01*
X-2101153Y56171835D01*
X-2119727Y56106553D01*
X-2159704Y55966048D01*
X-2159713Y55965954D01*
X-2166529Y55892395D01*
X-2192315Y55827457D01*
X-2249116Y55786770D01*
X-2318897Y55783250D01*
X-2379503Y55818015D01*
X-2411693Y55880028D01*
X-2413471Y55892395D01*
X-2420295Y55966047D01*
X-2420296Y55966050D01*
X-2478846Y56171835D01*
X-2478849Y56171841D01*
X-2574219Y56363370D01*
X-2583353Y56375465D01*
X-2703159Y56534114D01*
X-2861278Y56678258D01*
X-2939135Y56726465D01*
X-3043186Y56790891D01*
X-3043187Y56790891D01*
X-3043190Y56790893D01*
X-3242703Y56868185D01*
X-3453020Y56907500D01*
X-3666980Y56907500D01*
X-3877297Y56868185D01*
X-4076810Y56790893D01*
X-4258722Y56678258D01*
X-4416841Y56534114D01*
X-4545781Y56363370D01*
X-4641151Y56171840D01*
X-4641153Y56171835D01*
X-4659727Y56106553D01*
X-4699704Y55966048D01*
X-4699713Y55965954D01*
X-4706529Y55892395D01*
X-4732315Y55827457D01*
X-4789116Y55786770D01*
X-4858897Y55783250D01*
X-4919503Y55818015D01*
X-4951693Y55880028D01*
X-4953471Y55892395D01*
X-4960295Y55966047D01*
X-4960296Y55966050D01*
X-5018846Y56171835D01*
X-5018849Y56171841D01*
X-5114219Y56363370D01*
X-5123353Y56375465D01*
X-5243159Y56534114D01*
X-5401278Y56678258D01*
X-5479135Y56726465D01*
X-5583186Y56790891D01*
X-5583187Y56790891D01*
X-5583190Y56790893D01*
X-5782703Y56868185D01*
X-5993020Y56907500D01*
X-6206980Y56907500D01*
X-6417297Y56868185D01*
X-6616810Y56790893D01*
X-6798722Y56678258D01*
X-6956841Y56534114D01*
X-7085781Y56363370D01*
X-7181151Y56171840D01*
X-7181153Y56171835D01*
X-7199727Y56106553D01*
X-7239704Y55966048D01*
X-7239713Y55965954D01*
X-7246529Y55892395D01*
X-7272315Y55827457D01*
X-7329116Y55786770D01*
X-7398897Y55783250D01*
X-7459503Y55818015D01*
X-7491693Y55880028D01*
X-7493471Y55892395D01*
X-7500295Y55966047D01*
X-7500296Y55966050D01*
X-7558846Y56171835D01*
X-7558849Y56171841D01*
X-7654219Y56363370D01*
X-7663353Y56375465D01*
X-7783159Y56534114D01*
X-7941278Y56678258D01*
X-8019135Y56726465D01*
X-8123186Y56790891D01*
X-8123187Y56790891D01*
X-8123190Y56790893D01*
X-8322703Y56868185D01*
X-8533020Y56907500D01*
X-8746980Y56907500D01*
X-8957297Y56868185D01*
X-9156810Y56790893D01*
X-9338722Y56678258D01*
X-9496841Y56534114D01*
X-9625781Y56363370D01*
X-9721151Y56171840D01*
X-9721153Y56171835D01*
X-9739727Y56106553D01*
X-9779704Y55966048D01*
X-9779713Y55965954D01*
X-9786529Y55892395D01*
X-9812315Y55827457D01*
X-9869116Y55786770D01*
X-9938897Y55783250D01*
X-9999503Y55818015D01*
X-10031693Y55880028D01*
X-10033471Y55892395D01*
X-10040295Y55966047D01*
X-10040296Y55966050D01*
X-10098846Y56171835D01*
X-10098849Y56171841D01*
X-10194219Y56363370D01*
X-10203353Y56375465D01*
X-10323159Y56534114D01*
X-10481278Y56678258D01*
X-10559135Y56726465D01*
X-10663186Y56790891D01*
X-10663187Y56790891D01*
X-10663190Y56790893D01*
X-10862703Y56868185D01*
X-11073020Y56907500D01*
X-11286980Y56907500D01*
X-11497297Y56868185D01*
X-11696810Y56790893D01*
X-11878722Y56678258D01*
X-12036841Y56534114D01*
X-12165781Y56363370D01*
X-12261151Y56171840D01*
X-12261153Y56171835D01*
X-12279727Y56106553D01*
X-12319704Y55966048D01*
X-12319713Y55965954D01*
X-12326529Y55892395D01*
X-12352315Y55827457D01*
X-12409116Y55786770D01*
X-12478897Y55783250D01*
X-12539503Y55818015D01*
X-12571693Y55880028D01*
X-12573471Y55892395D01*
X-12580295Y55966047D01*
X-12580296Y55966050D01*
X-12638846Y56171835D01*
X-12638849Y56171841D01*
X-12734219Y56363370D01*
X-12743353Y56375465D01*
X-12863159Y56534114D01*
X-13021278Y56678258D01*
X-13099135Y56726465D01*
X-13203186Y56790891D01*
X-13203187Y56790891D01*
X-13203190Y56790893D01*
X-13402703Y56868185D01*
X-13613020Y56907500D01*
X-13826980Y56907500D01*
X-14037297Y56868185D01*
X-14236810Y56790893D01*
X-14418722Y56678258D01*
X-14576841Y56534114D01*
X-14705781Y56363370D01*
X-14801151Y56171840D01*
X-14801153Y56171835D01*
X-14819727Y56106553D01*
X-14859704Y55966048D01*
X-14859713Y55965954D01*
X-14866529Y55892395D01*
X-14892315Y55827457D01*
X-14949116Y55786770D01*
X-15018897Y55783250D01*
X-15079503Y55818015D01*
X-15111693Y55880028D01*
X-15113471Y55892395D01*
X-15120295Y55966047D01*
X-15120296Y55966050D01*
X-15178846Y56171835D01*
X-15178849Y56171841D01*
X-15274219Y56363370D01*
X-15283353Y56375465D01*
X-15403159Y56534114D01*
X-15561278Y56678258D01*
X-15639135Y56726465D01*
X-15743186Y56790891D01*
X-15743187Y56790891D01*
X-15743190Y56790893D01*
X-15942703Y56868185D01*
X-16153020Y56907500D01*
X-16366980Y56907500D01*
X-16577297Y56868185D01*
X-16776810Y56790893D01*
X-16958722Y56678258D01*
X-17116841Y56534114D01*
X-17245781Y56363370D01*
X-17341151Y56171840D01*
X-17341153Y56171835D01*
X-17359727Y56106553D01*
X-17399704Y55966048D01*
X-17399713Y55965954D01*
X-17406529Y55892395D01*
X-17432315Y55827457D01*
X-17489116Y55786770D01*
X-17558897Y55783250D01*
X-17619503Y55818015D01*
X-17651693Y55880028D01*
X-17653471Y55892395D01*
X-17660295Y55966047D01*
X-17660296Y55966050D01*
X-17718846Y56171835D01*
X-17718849Y56171841D01*
X-17814219Y56363370D01*
X-17823353Y56375465D01*
X-17943159Y56534114D01*
X-18101278Y56678258D01*
X-18179135Y56726465D01*
X-18283186Y56790891D01*
X-18283187Y56790891D01*
X-18283190Y56790893D01*
X-18482703Y56868185D01*
X-18693020Y56907500D01*
X-18906980Y56907500D01*
X-19117297Y56868185D01*
X-19316810Y56790893D01*
X-19498722Y56678258D01*
X-19656841Y56534114D01*
X-19785781Y56363370D01*
X-19881151Y56171840D01*
X-19881153Y56171835D01*
X-19899727Y56106553D01*
X-19939704Y55966048D01*
X-19939713Y55965954D01*
X-19946529Y55892395D01*
X-19972315Y55827457D01*
X-20029116Y55786770D01*
X-20098897Y55783250D01*
X-20159503Y55818015D01*
X-20191693Y55880028D01*
X-20193471Y55892395D01*
X-20200295Y55966047D01*
X-20200296Y55966050D01*
X-20258846Y56171835D01*
X-20258849Y56171841D01*
X-20354219Y56363370D01*
X-20363353Y56375465D01*
X-20483159Y56534114D01*
X-20641278Y56678258D01*
X-20719135Y56726465D01*
X-20823186Y56790891D01*
X-20823187Y56790891D01*
X-20823190Y56790893D01*
X-21022703Y56868185D01*
X-21233020Y56907500D01*
X-21446980Y56907500D01*
X-21657297Y56868185D01*
X-21856810Y56790893D01*
X-22038722Y56678258D01*
X-22196841Y56534114D01*
X-22325781Y56363370D01*
X-22421151Y56171840D01*
X-22421153Y56171835D01*
X-22439727Y56106553D01*
X-22479704Y55966048D01*
X-22479713Y55965954D01*
X-22486529Y55892395D01*
X-22512315Y55827457D01*
X-22569116Y55786770D01*
X-22638897Y55783250D01*
X-22699503Y55818015D01*
X-22731693Y55880028D01*
X-22733471Y55892395D01*
X-22740295Y55966047D01*
X-22740296Y55966050D01*
X-22798846Y56171835D01*
X-22798849Y56171841D01*
X-22894219Y56363370D01*
X-22903353Y56375465D01*
X-23023159Y56534114D01*
X-23181278Y56678258D01*
X-23259135Y56726465D01*
X-23363186Y56790891D01*
X-23363187Y56790891D01*
X-23363190Y56790893D01*
X-23562703Y56868185D01*
X-23773020Y56907500D01*
X-23986980Y56907500D01*
X-24197297Y56868185D01*
X-24396810Y56790893D01*
X-24578722Y56678258D01*
X-24736841Y56534114D01*
X-24865781Y56363370D01*
X-24961151Y56171840D01*
X-24961153Y56171835D01*
X-24979727Y56106553D01*
X-25019704Y55966048D01*
X-25019713Y55965954D01*
X-25026529Y55892395D01*
X-25052315Y55827457D01*
X-25109116Y55786770D01*
X-25178897Y55783250D01*
X-25239503Y55818015D01*
X-25271693Y55880028D01*
X-25273471Y55892395D01*
X-25280295Y55966047D01*
X-25280296Y55966050D01*
X-25338846Y56171835D01*
X-25338849Y56171841D01*
X-25434219Y56363370D01*
X-25443353Y56375465D01*
X-25563159Y56534114D01*
X-25721278Y56678258D01*
X-25799135Y56726465D01*
X-25903186Y56790891D01*
X-25903187Y56790891D01*
X-25903190Y56790893D01*
X-26102703Y56868185D01*
X-26313020Y56907500D01*
X-26526980Y56907500D01*
X-26737297Y56868185D01*
X-26936810Y56790893D01*
X-27118722Y56678258D01*
X-27276841Y56534114D01*
X-27405781Y56363370D01*
X-27501151Y56171840D01*
X-27501153Y56171835D01*
X-27519727Y56106553D01*
X-27559704Y55966048D01*
X-27559713Y55965954D01*
X-27566529Y55892395D01*
X-27592315Y55827457D01*
X-27649116Y55786770D01*
X-27718897Y55783250D01*
X-27779503Y55818015D01*
X-27811693Y55880028D01*
X-27813471Y55892395D01*
X-27820295Y55966047D01*
X-27820296Y55966050D01*
X-27878846Y56171835D01*
X-27878849Y56171841D01*
X-27974219Y56363370D01*
X-27983353Y56375465D01*
X-28103159Y56534114D01*
X-28261278Y56678258D01*
X-28339135Y56726465D01*
X-28443186Y56790891D01*
X-28443187Y56790891D01*
X-28443190Y56790893D01*
X-28642703Y56868185D01*
X-28853020Y56907500D01*
X-29066980Y56907500D01*
X-29277297Y56868185D01*
X-29476810Y56790893D01*
X-29658722Y56678258D01*
X-29816841Y56534114D01*
X-29945781Y56363370D01*
X-30041151Y56171840D01*
X-30041153Y56171835D01*
X-30059727Y56106553D01*
X-30099704Y55966048D01*
X-30099713Y55965954D01*
X-30106529Y55892395D01*
X-30132315Y55827457D01*
X-30189116Y55786770D01*
X-30258897Y55783250D01*
X-30319503Y55818015D01*
X-30351693Y55880028D01*
X-30353471Y55892395D01*
X-30360295Y55966047D01*
X-30360296Y55966050D01*
X-30418846Y56171835D01*
X-30418849Y56171841D01*
X-30514219Y56363370D01*
X-30523353Y56375465D01*
X-30643159Y56534114D01*
X-30801278Y56678258D01*
X-30879135Y56726465D01*
X-30983186Y56790891D01*
X-30983187Y56790891D01*
X-30983190Y56790893D01*
X-31182703Y56868185D01*
X-31393020Y56907500D01*
X-31606980Y56907500D01*
X-31817297Y56868185D01*
X-32016810Y56790893D01*
X-32198722Y56678258D01*
X-32356841Y56534114D01*
X-32485781Y56363370D01*
X-32581151Y56171840D01*
X-32581153Y56171835D01*
X-32599727Y56106553D01*
X-32639704Y55966048D01*
X-32639713Y55965954D01*
X-32646529Y55892395D01*
X-32672315Y55827457D01*
X-32729116Y55786770D01*
X-32798897Y55783250D01*
X-32859503Y55818015D01*
X-32891693Y55880028D01*
X-32893471Y55892395D01*
X-32900295Y55966047D01*
X-32900296Y55966050D01*
X-32958846Y56171835D01*
X-32958849Y56171841D01*
X-33054219Y56363370D01*
X-33063353Y56375465D01*
X-33183159Y56534114D01*
X-33341278Y56678258D01*
X-33419135Y56726465D01*
X-33523186Y56790891D01*
X-33523187Y56790891D01*
X-33523190Y56790893D01*
X-33722703Y56868185D01*
X-33933020Y56907500D01*
X-34146980Y56907500D01*
X-34357297Y56868185D01*
X-34556810Y56790893D01*
X-34738722Y56678258D01*
X-34896841Y56534114D01*
X-35025781Y56363370D01*
X-35121151Y56171840D01*
X-35121153Y56171835D01*
X-35139727Y56106553D01*
X-35179704Y55966048D01*
X-35179713Y55965954D01*
X-35186529Y55892395D01*
X-35212315Y55827457D01*
X-35269116Y55786770D01*
X-35338897Y55783250D01*
X-35399503Y55818015D01*
X-35431693Y55880028D01*
X-35433471Y55892395D01*
X-35440295Y55966047D01*
X-35440296Y55966050D01*
X-35498846Y56171835D01*
X-35498849Y56171841D01*
X-35594219Y56363370D01*
X-35603353Y56375465D01*
X-35723159Y56534114D01*
X-35881278Y56678258D01*
X-35959135Y56726465D01*
X-36063186Y56790891D01*
X-36063187Y56790891D01*
X-36063190Y56790893D01*
X-36262703Y56868185D01*
X-36473020Y56907500D01*
X-36686980Y56907500D01*
X-36897297Y56868185D01*
X-37096810Y56790893D01*
X-37278722Y56678258D01*
X-37436841Y56534114D01*
X-37565781Y56363370D01*
X-37661151Y56171840D01*
X-37661153Y56171835D01*
X-37679727Y56106553D01*
X-37719704Y55966048D01*
X-37719713Y55965954D01*
X-37726529Y55892395D01*
X-37752315Y55827457D01*
X-37809116Y55786770D01*
X-37878897Y55783250D01*
X-37939503Y55818015D01*
X-37971693Y55880028D01*
X-37973471Y55892395D01*
X-37980295Y55966047D01*
X-37980296Y55966050D01*
X-38038846Y56171835D01*
X-38038849Y56171841D01*
X-38134219Y56363370D01*
X-38143353Y56375465D01*
X-38263159Y56534114D01*
X-38421278Y56678258D01*
X-38499135Y56726465D01*
X-38603186Y56790891D01*
X-38603187Y56790891D01*
X-38603190Y56790893D01*
X-38802703Y56868185D01*
X-39013020Y56907500D01*
X-39226980Y56907500D01*
X-39437297Y56868185D01*
X-39636810Y56790893D01*
X-39818722Y56678258D01*
X-39976841Y56534114D01*
X-40105781Y56363370D01*
X-40201151Y56171840D01*
X-40201153Y56171835D01*
X-40219727Y56106553D01*
X-40259704Y55966048D01*
X-40259713Y55965954D01*
X-40266529Y55892395D01*
X-40292315Y55827457D01*
X-40349116Y55786770D01*
X-40418897Y55783250D01*
X-40479503Y55818015D01*
X-40511693Y55880028D01*
X-40513471Y55892395D01*
X-40520295Y55966047D01*
X-40520296Y55966050D01*
X-40578846Y56171835D01*
X-40578849Y56171841D01*
X-40674219Y56363370D01*
X-40683353Y56375465D01*
X-40803159Y56534114D01*
X-40961278Y56678258D01*
X-41039135Y56726465D01*
X-41143186Y56790891D01*
X-41143187Y56790891D01*
X-41143190Y56790893D01*
X-41342703Y56868185D01*
X-41553020Y56907500D01*
X-41766980Y56907500D01*
X-41977297Y56868185D01*
X-42176810Y56790893D01*
X-42358722Y56678258D01*
X-42516841Y56534114D01*
X-42645781Y56363370D01*
X-42741151Y56171840D01*
X-42741153Y56171835D01*
X-42759727Y56106553D01*
X-42799704Y55966048D01*
X-42799713Y55965954D01*
X-42806529Y55892395D01*
X-42832315Y55827457D01*
X-42889116Y55786770D01*
X-42958897Y55783250D01*
X-43019503Y55818015D01*
X-43051693Y55880028D01*
X-43053471Y55892395D01*
X-43060295Y55966047D01*
X-43060296Y55966050D01*
X-43118846Y56171835D01*
X-43118849Y56171841D01*
X-43214219Y56363370D01*
X-43223353Y56375465D01*
X-43343159Y56534114D01*
X-43501278Y56678258D01*
X-43579135Y56726465D01*
X-43683186Y56790891D01*
X-43683187Y56790891D01*
X-43683190Y56790893D01*
X-43882703Y56868185D01*
X-44093020Y56907500D01*
X-44306980Y56907500D01*
X-44517297Y56868185D01*
X-44716810Y56790893D01*
X-44898722Y56678258D01*
X-45056841Y56534114D01*
X-45185781Y56363370D01*
X-45281151Y56171840D01*
X-45281153Y56171835D01*
X-45299727Y56106553D01*
X-45339704Y55966048D01*
X-45339713Y55965954D01*
X-45346529Y55892395D01*
X-45372315Y55827457D01*
X-45429116Y55786770D01*
X-45498897Y55783250D01*
X-45559503Y55818015D01*
X-45591693Y55880028D01*
X-45593471Y55892395D01*
X-45600295Y55966047D01*
X-45600296Y55966050D01*
X-45658846Y56171835D01*
X-45658849Y56171841D01*
X-45754219Y56363370D01*
X-45763353Y56375465D01*
X-45883159Y56534114D01*
X-46041278Y56678258D01*
X-46119135Y56726465D01*
X-46223186Y56790891D01*
X-46223187Y56790891D01*
X-46223190Y56790893D01*
X-46422703Y56868185D01*
X-46633020Y56907500D01*
X-46846980Y56907500D01*
X-47057297Y56868185D01*
X-47256810Y56790893D01*
X-47438722Y56678258D01*
X-47596841Y56534114D01*
X-47725781Y56363370D01*
X-47821151Y56171840D01*
X-47821153Y56171835D01*
X-47839727Y56106553D01*
X-47879704Y55966048D01*
X-47879713Y55965954D01*
X-47886529Y55892395D01*
X-47912315Y55827457D01*
X-47969116Y55786770D01*
X-48038897Y55783250D01*
X-48099503Y55818015D01*
X-48131693Y55880028D01*
X-48133471Y55892395D01*
X-48140295Y55966047D01*
X-48140296Y55966050D01*
X-48198846Y56171835D01*
X-48198849Y56171841D01*
X-48294219Y56363370D01*
X-48303353Y56375465D01*
X-48423159Y56534114D01*
X-48581278Y56678258D01*
X-48659135Y56726465D01*
X-48763186Y56790891D01*
X-48763187Y56790891D01*
X-48763190Y56790893D01*
X-48962703Y56868185D01*
X-49173020Y56907500D01*
X-49386980Y56907500D01*
X-49597297Y56868185D01*
X-49796810Y56790893D01*
X-49978722Y56678258D01*
X-50136841Y56534114D01*
X-50265781Y56363370D01*
X-50361151Y56171840D01*
X-50361153Y56171835D01*
X-50379727Y56106553D01*
X-50419704Y55966048D01*
X-50419713Y55965954D01*
X-50426529Y55892395D01*
X-50452315Y55827457D01*
X-50509116Y55786770D01*
X-50578897Y55783250D01*
X-50639503Y55818015D01*
X-50671693Y55880028D01*
X-50673471Y55892395D01*
X-50680295Y55966047D01*
X-50680296Y55966050D01*
X-50738846Y56171835D01*
X-50738849Y56171841D01*
X-50834219Y56363370D01*
X-50843353Y56375465D01*
X-50963159Y56534114D01*
X-51121278Y56678258D01*
X-51199135Y56726465D01*
X-51303186Y56790891D01*
X-51303187Y56790891D01*
X-51303190Y56790893D01*
X-51502703Y56868185D01*
X-51713020Y56907500D01*
X-51926980Y56907500D01*
X-52137297Y56868185D01*
X-52336810Y56790893D01*
X-52518722Y56678258D01*
X-52676841Y56534114D01*
X-52805781Y56363370D01*
X-52901151Y56171840D01*
X-52901153Y56171835D01*
X-52919727Y56106553D01*
X-52959704Y55966048D01*
X-52959713Y55965954D01*
X-52979446Y55753000D01*
X-52979446Y55752999D01*
X-52959704Y55539952D01*
X-52959703Y55539949D01*
X-52901153Y55334164D01*
X-52901151Y55334160D01*
X-52805781Y55142630D01*
X-52676841Y54971886D01*
X-52518722Y54827742D01*
X-52518716Y54827738D01*
X-52518713Y54827736D01*
X-52336813Y54715108D01*
X-52336810Y54715107D01*
X-52137297Y54637815D01*
X-51926980Y54598500D01*
X-51926978Y54598500D01*
X-51713022Y54598500D01*
X-51713020Y54598500D01*
X-51502703Y54637815D01*
X-51376533Y54686693D01*
X-51303192Y54715106D01*
X-51303186Y54715108D01*
X-51121286Y54827736D01*
X-51121283Y54827738D01*
X-51121279Y54827740D01*
X-51121278Y54827742D01*
X-50963159Y54971886D01*
X-50843353Y55130534D01*
X-50834219Y55142629D01*
X-50738849Y55334158D01*
X-50738846Y55334164D01*
X-50680296Y55539949D01*
X-50680295Y55539952D01*
X-50673471Y55613604D01*
X-50647685Y55678542D01*
X-50590884Y55719229D01*
X-50521103Y55722749D01*
X-50460497Y55687984D01*
X-50428307Y55625971D01*
X-50426529Y55613604D01*
X-50419704Y55539952D01*
X-50419703Y55539949D01*
X-50361153Y55334164D01*
X-50361151Y55334160D01*
X-50265781Y55142630D01*
X-50136841Y54971886D01*
X-49978722Y54827742D01*
X-49978716Y54827738D01*
X-49978713Y54827736D01*
X-49796813Y54715108D01*
X-49796810Y54715107D01*
X-49597297Y54637815D01*
X-49386980Y54598500D01*
X-49386978Y54598500D01*
X-49173022Y54598500D01*
X-49173020Y54598500D01*
X-48962703Y54637815D01*
X-48836533Y54686693D01*
X-48763192Y54715106D01*
X-48763186Y54715108D01*
X-48581286Y54827736D01*
X-48581283Y54827738D01*
X-48581279Y54827740D01*
X-48581278Y54827742D01*
X-48423159Y54971886D01*
X-48303353Y55130534D01*
X-48294219Y55142629D01*
X-48198849Y55334158D01*
X-48198846Y55334164D01*
X-48140296Y55539949D01*
X-48140295Y55539952D01*
X-48133471Y55613604D01*
X-48107685Y55678542D01*
X-48050884Y55719229D01*
X-47981103Y55722749D01*
X-47920497Y55687984D01*
X-47888307Y55625971D01*
X-47886529Y55613604D01*
X-47879704Y55539952D01*
X-47879703Y55539949D01*
X-47821153Y55334164D01*
X-47821151Y55334160D01*
X-47725781Y55142630D01*
X-47596841Y54971886D01*
X-47438722Y54827742D01*
X-47438716Y54827738D01*
X-47438713Y54827736D01*
X-47256813Y54715108D01*
X-47256810Y54715107D01*
X-47057297Y54637815D01*
X-46846980Y54598500D01*
X-46846978Y54598500D01*
X-46633022Y54598500D01*
X-46633020Y54598500D01*
X-46422703Y54637815D01*
X-46296533Y54686693D01*
X-46223192Y54715106D01*
X-46223186Y54715108D01*
X-46041286Y54827736D01*
X-46041283Y54827738D01*
X-46041279Y54827740D01*
X-46041278Y54827742D01*
X-45883159Y54971886D01*
X-45763353Y55130534D01*
X-45754219Y55142629D01*
X-45658849Y55334158D01*
X-45658846Y55334164D01*
X-45600296Y55539949D01*
X-45600295Y55539952D01*
X-45593471Y55613604D01*
X-45567685Y55678542D01*
X-45510884Y55719229D01*
X-45441103Y55722749D01*
X-45380497Y55687984D01*
X-45348307Y55625971D01*
X-45346529Y55613604D01*
X-45339704Y55539952D01*
X-45339703Y55539949D01*
X-45281153Y55334164D01*
X-45281151Y55334160D01*
X-45185781Y55142630D01*
X-45056841Y54971886D01*
X-44898722Y54827742D01*
X-44898716Y54827738D01*
X-44898713Y54827736D01*
X-44716813Y54715108D01*
X-44716810Y54715107D01*
X-44517297Y54637815D01*
X-44306980Y54598500D01*
X-44306978Y54598500D01*
X-44093022Y54598500D01*
X-44093020Y54598500D01*
X-43882703Y54637815D01*
X-43756533Y54686693D01*
X-43683192Y54715106D01*
X-43683186Y54715108D01*
X-43501286Y54827736D01*
X-43501283Y54827738D01*
X-43501279Y54827740D01*
X-43501278Y54827742D01*
X-43343159Y54971886D01*
X-43223353Y55130534D01*
X-43214219Y55142629D01*
X-43118849Y55334158D01*
X-43118846Y55334164D01*
X-43060296Y55539949D01*
X-43060295Y55539952D01*
X-43053471Y55613604D01*
X-43027685Y55678542D01*
X-42970884Y55719229D01*
X-42901103Y55722749D01*
X-42840497Y55687984D01*
X-42808307Y55625971D01*
X-42806529Y55613604D01*
X-42799704Y55539952D01*
X-42799703Y55539949D01*
X-42741153Y55334164D01*
X-42741151Y55334160D01*
X-42645781Y55142630D01*
X-42516841Y54971886D01*
X-42358722Y54827742D01*
X-42358716Y54827738D01*
X-42358713Y54827736D01*
X-42176813Y54715108D01*
X-42176810Y54715107D01*
X-41977297Y54637815D01*
X-41766980Y54598500D01*
X-41766978Y54598500D01*
X-41553022Y54598500D01*
X-41553020Y54598500D01*
X-41342703Y54637815D01*
X-41216533Y54686693D01*
X-41143192Y54715106D01*
X-41143186Y54715108D01*
X-40961286Y54827736D01*
X-40961283Y54827738D01*
X-40961279Y54827740D01*
X-40961278Y54827742D01*
X-40803159Y54971886D01*
X-40683353Y55130534D01*
X-40674219Y55142629D01*
X-40578849Y55334158D01*
X-40578846Y55334164D01*
X-40520296Y55539949D01*
X-40520295Y55539952D01*
X-40513471Y55613604D01*
X-40487685Y55678542D01*
X-40430884Y55719229D01*
X-40361103Y55722749D01*
X-40300497Y55687984D01*
X-40268307Y55625971D01*
X-40266529Y55613604D01*
X-40259704Y55539952D01*
X-40259703Y55539949D01*
X-40201153Y55334164D01*
X-40201151Y55334160D01*
X-40105781Y55142630D01*
X-39976841Y54971886D01*
X-39818722Y54827742D01*
X-39818716Y54827738D01*
X-39818713Y54827736D01*
X-39636813Y54715108D01*
X-39636810Y54715107D01*
X-39437297Y54637815D01*
X-39226980Y54598500D01*
X-39226978Y54598500D01*
X-39013022Y54598500D01*
X-39013020Y54598500D01*
X-38802703Y54637815D01*
X-38676533Y54686693D01*
X-38603192Y54715106D01*
X-38603186Y54715108D01*
X-38421286Y54827736D01*
X-38421283Y54827738D01*
X-38421279Y54827740D01*
X-38421278Y54827742D01*
X-38263159Y54971886D01*
X-38143353Y55130534D01*
X-38134219Y55142629D01*
X-38038849Y55334158D01*
X-38038846Y55334164D01*
X-37980296Y55539949D01*
X-37980295Y55539952D01*
X-37973471Y55613604D01*
X-37947685Y55678542D01*
X-37890884Y55719229D01*
X-37821103Y55722749D01*
X-37760497Y55687984D01*
X-37728307Y55625971D01*
X-37726529Y55613604D01*
X-37719704Y55539952D01*
X-37719703Y55539949D01*
X-37661153Y55334164D01*
X-37661151Y55334160D01*
X-37565781Y55142630D01*
X-37436841Y54971886D01*
X-37278722Y54827742D01*
X-37278716Y54827738D01*
X-37278713Y54827736D01*
X-37096813Y54715108D01*
X-37096810Y54715107D01*
X-36897297Y54637815D01*
X-36686980Y54598500D01*
X-36686978Y54598500D01*
X-36473022Y54598500D01*
X-36473020Y54598500D01*
X-36262703Y54637815D01*
X-36136533Y54686693D01*
X-36063192Y54715106D01*
X-36063186Y54715108D01*
X-35881286Y54827736D01*
X-35881283Y54827738D01*
X-35881279Y54827740D01*
X-35881278Y54827742D01*
X-35723159Y54971886D01*
X-35603353Y55130534D01*
X-35594219Y55142629D01*
X-35498849Y55334158D01*
X-35498846Y55334164D01*
X-35440296Y55539949D01*
X-35440295Y55539952D01*
X-35433471Y55613604D01*
X-35407685Y55678542D01*
X-35350884Y55719229D01*
X-35281103Y55722749D01*
X-35220497Y55687984D01*
X-35188307Y55625971D01*
X-35186529Y55613604D01*
X-35179704Y55539952D01*
X-35179703Y55539949D01*
X-35121153Y55334164D01*
X-35121151Y55334160D01*
X-35025781Y55142630D01*
X-34896841Y54971886D01*
X-34738722Y54827742D01*
X-34738716Y54827738D01*
X-34738713Y54827736D01*
X-34556813Y54715108D01*
X-34556810Y54715107D01*
X-34357297Y54637815D01*
X-34146980Y54598500D01*
X-34146978Y54598500D01*
X-33933022Y54598500D01*
X-33933020Y54598500D01*
X-33722703Y54637815D01*
X-33596533Y54686693D01*
X-33523192Y54715106D01*
X-33523186Y54715108D01*
X-33341286Y54827736D01*
X-33341283Y54827738D01*
X-33341279Y54827740D01*
X-33341278Y54827742D01*
X-33183159Y54971886D01*
X-33063353Y55130534D01*
X-33054219Y55142629D01*
X-32958849Y55334158D01*
X-32958846Y55334164D01*
X-32900296Y55539949D01*
X-32900295Y55539952D01*
X-32893471Y55613604D01*
X-32867685Y55678542D01*
X-32810884Y55719229D01*
X-32741103Y55722749D01*
X-32680497Y55687984D01*
X-32648307Y55625971D01*
X-32646529Y55613604D01*
X-32639704Y55539952D01*
X-32639703Y55539949D01*
X-32581153Y55334164D01*
X-32581151Y55334160D01*
X-32485781Y55142630D01*
X-32356841Y54971886D01*
X-32198722Y54827742D01*
X-32198716Y54827738D01*
X-32198713Y54827736D01*
X-32016813Y54715108D01*
X-32016810Y54715107D01*
X-31817297Y54637815D01*
X-31606980Y54598500D01*
X-31606978Y54598500D01*
X-31393022Y54598500D01*
X-31393020Y54598500D01*
X-31182703Y54637815D01*
X-31056533Y54686693D01*
X-30983192Y54715106D01*
X-30983186Y54715108D01*
X-30801286Y54827736D01*
X-30801283Y54827738D01*
X-30801279Y54827740D01*
X-30801278Y54827742D01*
X-30643159Y54971886D01*
X-30523353Y55130534D01*
X-30514219Y55142629D01*
X-30418849Y55334158D01*
X-30418846Y55334164D01*
X-30360296Y55539949D01*
X-30360295Y55539952D01*
X-30353471Y55613604D01*
X-30327685Y55678542D01*
X-30270884Y55719229D01*
X-30201103Y55722749D01*
X-30140497Y55687984D01*
X-30108307Y55625971D01*
X-30106529Y55613604D01*
X-30099704Y55539952D01*
X-30099703Y55539949D01*
X-30041153Y55334164D01*
X-30041151Y55334160D01*
X-29945781Y55142630D01*
X-29816841Y54971886D01*
X-29658722Y54827742D01*
X-29658716Y54827738D01*
X-29658713Y54827736D01*
X-29476813Y54715108D01*
X-29476810Y54715107D01*
X-29277297Y54637815D01*
X-29066980Y54598500D01*
X-29066978Y54598500D01*
X-28853022Y54598500D01*
X-28853020Y54598500D01*
X-28642703Y54637815D01*
X-28516533Y54686693D01*
X-28443192Y54715106D01*
X-28443186Y54715108D01*
X-28261286Y54827736D01*
X-28261283Y54827738D01*
X-28261279Y54827740D01*
X-28261278Y54827742D01*
X-28103159Y54971886D01*
X-27983353Y55130534D01*
X-27974219Y55142629D01*
X-27878849Y55334158D01*
X-27878846Y55334164D01*
X-27820296Y55539949D01*
X-27820295Y55539952D01*
X-27813471Y55613604D01*
X-27787685Y55678542D01*
X-27730884Y55719229D01*
X-27661103Y55722749D01*
X-27600497Y55687984D01*
X-27568307Y55625971D01*
X-27566529Y55613604D01*
X-27559704Y55539952D01*
X-27559703Y55539949D01*
X-27501153Y55334164D01*
X-27501151Y55334160D01*
X-27405781Y55142630D01*
X-27276841Y54971886D01*
X-27118722Y54827742D01*
X-27118716Y54827738D01*
X-27118713Y54827736D01*
X-26936813Y54715108D01*
X-26936810Y54715107D01*
X-26737297Y54637815D01*
X-26526980Y54598500D01*
X-26526978Y54598500D01*
X-26313022Y54598500D01*
X-26313020Y54598500D01*
X-26102703Y54637815D01*
X-25976533Y54686693D01*
X-25903192Y54715106D01*
X-25903186Y54715108D01*
X-25721286Y54827736D01*
X-25721283Y54827738D01*
X-25721279Y54827740D01*
X-25721278Y54827742D01*
X-25563159Y54971886D01*
X-25443353Y55130534D01*
X-25434219Y55142629D01*
X-25338849Y55334158D01*
X-25338846Y55334164D01*
X-25280296Y55539949D01*
X-25280295Y55539952D01*
X-25273471Y55613604D01*
X-25247685Y55678542D01*
X-25190884Y55719229D01*
X-25121103Y55722749D01*
X-25060497Y55687984D01*
X-25028307Y55625971D01*
X-25026529Y55613604D01*
X-25019704Y55539952D01*
X-25019703Y55539949D01*
X-24961153Y55334164D01*
X-24961151Y55334160D01*
X-24865781Y55142630D01*
X-24736841Y54971886D01*
X-24578722Y54827742D01*
X-24578716Y54827738D01*
X-24578713Y54827736D01*
X-24396813Y54715108D01*
X-24396810Y54715107D01*
X-24197297Y54637815D01*
X-23986980Y54598500D01*
X-23986978Y54598500D01*
X-23773022Y54598500D01*
X-23773020Y54598500D01*
X-23562703Y54637815D01*
X-23436533Y54686693D01*
X-23363192Y54715106D01*
X-23363186Y54715108D01*
X-23181286Y54827736D01*
X-23181283Y54827738D01*
X-23181279Y54827740D01*
X-23181278Y54827742D01*
X-23023159Y54971886D01*
X-22903353Y55130534D01*
X-22894219Y55142629D01*
X-22798849Y55334158D01*
X-22798846Y55334164D01*
X-22740296Y55539949D01*
X-22740295Y55539952D01*
X-22733471Y55613604D01*
X-22707685Y55678542D01*
X-22650884Y55719229D01*
X-22581103Y55722749D01*
X-22520497Y55687984D01*
X-22488307Y55625971D01*
X-22486529Y55613604D01*
X-22479704Y55539952D01*
X-22479703Y55539949D01*
X-22421153Y55334164D01*
X-22421151Y55334160D01*
X-22325781Y55142630D01*
X-22196841Y54971886D01*
X-22038722Y54827742D01*
X-22038716Y54827738D01*
X-22038713Y54827736D01*
X-21856813Y54715108D01*
X-21856810Y54715107D01*
X-21657297Y54637815D01*
X-21446980Y54598500D01*
X-21446978Y54598500D01*
X-21233022Y54598500D01*
X-21233020Y54598500D01*
X-21022703Y54637815D01*
X-20896533Y54686693D01*
X-20823192Y54715106D01*
X-20823186Y54715108D01*
X-20641286Y54827736D01*
X-20641283Y54827738D01*
X-20641279Y54827740D01*
X-20641278Y54827742D01*
X-20483159Y54971886D01*
X-20363353Y55130534D01*
X-20354219Y55142629D01*
X-20258849Y55334158D01*
X-20258846Y55334164D01*
X-20200296Y55539949D01*
X-20200295Y55539952D01*
X-20193471Y55613604D01*
X-20167685Y55678542D01*
X-20110884Y55719229D01*
X-20041103Y55722749D01*
X-19980497Y55687984D01*
X-19948307Y55625971D01*
X-19946529Y55613604D01*
X-19939704Y55539952D01*
X-19939703Y55539949D01*
X-19881153Y55334164D01*
X-19881151Y55334160D01*
X-19785781Y55142630D01*
X-19656841Y54971886D01*
X-19498722Y54827742D01*
X-19498716Y54827738D01*
X-19498713Y54827736D01*
X-19316813Y54715108D01*
X-19316810Y54715107D01*
X-19117297Y54637815D01*
X-18906980Y54598500D01*
X-18906978Y54598500D01*
X-18693022Y54598500D01*
X-18693020Y54598500D01*
X-18482703Y54637815D01*
X-18356533Y54686693D01*
X-18283192Y54715106D01*
X-18283186Y54715108D01*
X-18101286Y54827736D01*
X-18101283Y54827738D01*
X-18101279Y54827740D01*
X-18101278Y54827742D01*
X-17943159Y54971886D01*
X-17823353Y55130534D01*
X-17814219Y55142629D01*
X-17718849Y55334158D01*
X-17718846Y55334164D01*
X-17660296Y55539949D01*
X-17660295Y55539952D01*
X-17653471Y55613604D01*
X-17627685Y55678542D01*
X-17570884Y55719229D01*
X-17501103Y55722749D01*
X-17440497Y55687984D01*
X-17408307Y55625971D01*
X-17406529Y55613604D01*
X-17399704Y55539952D01*
X-17399703Y55539949D01*
X-17341153Y55334164D01*
X-17341151Y55334160D01*
X-17245781Y55142630D01*
X-17116841Y54971886D01*
X-16958722Y54827742D01*
X-16958716Y54827738D01*
X-16958713Y54827736D01*
X-16776813Y54715108D01*
X-16776810Y54715107D01*
X-16577297Y54637815D01*
X-16366980Y54598500D01*
X-16366978Y54598500D01*
X-16153022Y54598500D01*
X-16153020Y54598500D01*
X-15942703Y54637815D01*
X-15816533Y54686693D01*
X-15743192Y54715106D01*
X-15743186Y54715108D01*
X-15561286Y54827736D01*
X-15561283Y54827738D01*
X-15561279Y54827740D01*
X-15561278Y54827742D01*
X-15403159Y54971886D01*
X-15283353Y55130534D01*
X-15274219Y55142629D01*
X-15178849Y55334158D01*
X-15178846Y55334164D01*
X-15120296Y55539949D01*
X-15120295Y55539952D01*
X-15113471Y55613604D01*
X-15087685Y55678542D01*
X-15030884Y55719229D01*
X-14961103Y55722749D01*
X-14900497Y55687984D01*
X-14868307Y55625971D01*
X-14866529Y55613604D01*
X-14859704Y55539952D01*
X-14859703Y55539949D01*
X-14801153Y55334164D01*
X-14801151Y55334160D01*
X-14705781Y55142630D01*
X-14576841Y54971886D01*
X-14418722Y54827742D01*
X-14418716Y54827738D01*
X-14418713Y54827736D01*
X-14236813Y54715108D01*
X-14236810Y54715107D01*
X-14037297Y54637815D01*
X-13826980Y54598500D01*
X-13826978Y54598500D01*
X-13613022Y54598500D01*
X-13613020Y54598500D01*
X-13402703Y54637815D01*
X-13276533Y54686693D01*
X-13203192Y54715106D01*
X-13203186Y54715108D01*
X-13021286Y54827736D01*
X-13021283Y54827738D01*
X-13021279Y54827740D01*
X-13021278Y54827742D01*
X-12863159Y54971886D01*
X-12743353Y55130534D01*
X-12734219Y55142629D01*
X-12638849Y55334158D01*
X-12638846Y55334164D01*
X-12580296Y55539949D01*
X-12580295Y55539952D01*
X-12573471Y55613604D01*
X-12547685Y55678542D01*
X-12490884Y55719229D01*
X-12421103Y55722749D01*
X-12360497Y55687984D01*
X-12328307Y55625971D01*
X-12326529Y55613604D01*
X-12319704Y55539952D01*
X-12319703Y55539949D01*
X-12261153Y55334164D01*
X-12261151Y55334160D01*
X-12165781Y55142630D01*
X-12036841Y54971886D01*
X-11878722Y54827742D01*
X-11878716Y54827738D01*
X-11878713Y54827736D01*
X-11696813Y54715108D01*
X-11696810Y54715107D01*
X-11497297Y54637815D01*
X-11286980Y54598500D01*
X-11286978Y54598500D01*
X-11073022Y54598500D01*
X-11073020Y54598500D01*
X-10862703Y54637815D01*
X-10736533Y54686693D01*
X-10663192Y54715106D01*
X-10663186Y54715108D01*
X-10481286Y54827736D01*
X-10481283Y54827738D01*
X-10481279Y54827740D01*
X-10481278Y54827742D01*
X-10323159Y54971886D01*
X-10203353Y55130534D01*
X-10194219Y55142629D01*
X-10098849Y55334158D01*
X-10098846Y55334164D01*
X-10040296Y55539949D01*
X-10040295Y55539952D01*
X-10033471Y55613604D01*
X-10007685Y55678542D01*
X-9950884Y55719229D01*
X-9881103Y55722749D01*
X-9820497Y55687984D01*
X-9788307Y55625971D01*
X-9786529Y55613604D01*
X-9779704Y55539952D01*
X-9779703Y55539949D01*
X-9721153Y55334164D01*
X-9721151Y55334160D01*
X-9625781Y55142630D01*
X-9496841Y54971886D01*
X-9338722Y54827742D01*
X-9338716Y54827738D01*
X-9338713Y54827736D01*
X-9156813Y54715108D01*
X-9156810Y54715107D01*
X-8957297Y54637815D01*
X-8746980Y54598500D01*
X-8746978Y54598500D01*
X-8533022Y54598500D01*
X-8533020Y54598500D01*
X-8322703Y54637815D01*
X-8196533Y54686693D01*
X-8123192Y54715106D01*
X-8123186Y54715108D01*
X-7941286Y54827736D01*
X-7941283Y54827738D01*
X-7941279Y54827740D01*
X-7941278Y54827742D01*
X-7783159Y54971886D01*
X-7663353Y55130534D01*
X-7654219Y55142629D01*
X-7558849Y55334158D01*
X-7558846Y55334164D01*
X-7500296Y55539949D01*
X-7500295Y55539952D01*
X-7493471Y55613604D01*
X-7467685Y55678542D01*
X-7410884Y55719229D01*
X-7341103Y55722749D01*
X-7280497Y55687984D01*
X-7248307Y55625971D01*
X-7246529Y55613604D01*
X-7239704Y55539952D01*
X-7239703Y55539949D01*
X-7181153Y55334164D01*
X-7181151Y55334160D01*
X-7085781Y55142630D01*
X-6956841Y54971886D01*
X-6798722Y54827742D01*
X-6798716Y54827738D01*
X-6798713Y54827736D01*
X-6616813Y54715108D01*
X-6616810Y54715107D01*
X-6417297Y54637815D01*
X-6206980Y54598500D01*
X-6206978Y54598500D01*
X-5993022Y54598500D01*
X-5993020Y54598500D01*
X-5782703Y54637815D01*
X-5656533Y54686693D01*
X-5583192Y54715106D01*
X-5583186Y54715108D01*
X-5401286Y54827736D01*
X-5401283Y54827738D01*
X-5401279Y54827740D01*
X-5401278Y54827742D01*
X-5243159Y54971886D01*
X-5123353Y55130534D01*
X-5114219Y55142629D01*
X-5018849Y55334158D01*
X-5018846Y55334164D01*
X-4960296Y55539949D01*
X-4960295Y55539952D01*
X-4953471Y55613604D01*
X-4927685Y55678542D01*
X-4870884Y55719229D01*
X-4801103Y55722749D01*
X-4740497Y55687984D01*
X-4708307Y55625971D01*
X-4706529Y55613604D01*
X-4699704Y55539952D01*
X-4699703Y55539949D01*
X-4641153Y55334164D01*
X-4641151Y55334160D01*
X-4545781Y55142630D01*
X-4416841Y54971886D01*
X-4258722Y54827742D01*
X-4258716Y54827738D01*
X-4258713Y54827736D01*
X-4076813Y54715108D01*
X-4076810Y54715107D01*
X-3877297Y54637815D01*
X-3666980Y54598500D01*
X-3666978Y54598500D01*
X-3453022Y54598500D01*
X-3453020Y54598500D01*
X-3242703Y54637815D01*
X-3116533Y54686693D01*
X-3043192Y54715106D01*
X-3043186Y54715108D01*
X-2861286Y54827736D01*
X-2861283Y54827738D01*
X-2861279Y54827740D01*
X-2861278Y54827742D01*
X-2703159Y54971886D01*
X-2583353Y55130534D01*
X-2574219Y55142629D01*
X-2478849Y55334158D01*
X-2478846Y55334164D01*
X-2420296Y55539949D01*
X-2420295Y55539952D01*
X-2413471Y55613604D01*
X-2387685Y55678542D01*
X-2330884Y55719229D01*
X-2261103Y55722749D01*
X-2200497Y55687984D01*
X-2168307Y55625971D01*
X-2166529Y55613604D01*
X-2159704Y55539952D01*
X-2159703Y55539949D01*
X-2101153Y55334164D01*
X-2101151Y55334160D01*
X-2005781Y55142630D01*
X-1876841Y54971886D01*
X-1718722Y54827742D01*
X-1718716Y54827738D01*
X-1718713Y54827736D01*
X-1536813Y54715108D01*
X-1536810Y54715107D01*
X-1337297Y54637815D01*
X-1126980Y54598500D01*
X-1126978Y54598500D01*
X-995228Y54598500D01*
X-928189Y54578815D01*
X-882434Y54526011D01*
X-872490Y54456853D01*
X-901515Y54393297D01*
X-907546Y54386819D01*
X-10442952Y44851416D01*
X-10444501Y44849097D01*
X-10525084Y44728495D01*
X-10581658Y44591913D01*
X-10581659Y44591907D01*
X-10610500Y44446920D01*
X-10610500Y41711498D01*
X-10630185Y41644459D01*
X-10682989Y41598704D01*
X-10752147Y41588760D01*
X-10779294Y41595872D01*
X-10786604Y41598704D01*
X-10862703Y41628185D01*
X-11073020Y41667500D01*
X-11286980Y41667500D01*
X-11497297Y41628185D01*
X-11696810Y41550893D01*
X-11878722Y41438258D01*
X-12036841Y41294114D01*
X-12165781Y41123370D01*
X-12261151Y40931840D01*
X-12261153Y40931835D01*
X-12279727Y40866553D01*
X-12319704Y40726048D01*
X-12319713Y40725954D01*
X-12326529Y40652395D01*
X-12352315Y40587457D01*
X-12409116Y40546770D01*
X-12478897Y40543250D01*
X-12539503Y40578015D01*
X-12571693Y40640028D01*
X-12573471Y40652395D01*
X-12580295Y40726047D01*
X-12580296Y40726050D01*
X-12638846Y40931835D01*
X-12638849Y40931841D01*
X-12734219Y41123370D01*
X-12851295Y41278403D01*
X-12863159Y41294114D01*
X-13021278Y41438258D01*
X-13099135Y41486465D01*
X-13203186Y41550891D01*
X-13203187Y41550891D01*
X-13203190Y41550893D01*
X-13402703Y41628185D01*
X-13613020Y41667500D01*
X-13826980Y41667500D01*
X-14037297Y41628185D01*
X-14236810Y41550893D01*
X-14418722Y41438258D01*
X-14576841Y41294114D01*
X-14705781Y41123370D01*
X-14801151Y40931840D01*
X-14801153Y40931835D01*
X-14819727Y40866553D01*
X-14859704Y40726048D01*
X-14859713Y40725954D01*
X-14866529Y40652395D01*
X-14892315Y40587457D01*
X-14949116Y40546770D01*
X-15018897Y40543250D01*
X-15079503Y40578015D01*
X-15111693Y40640028D01*
X-15113471Y40652395D01*
X-15120295Y40726047D01*
X-15120296Y40726050D01*
X-15178846Y40931835D01*
X-15178849Y40931841D01*
X-15274219Y41123370D01*
X-15391295Y41278403D01*
X-15403159Y41294114D01*
X-15561278Y41438258D01*
X-15639135Y41486465D01*
X-15743186Y41550891D01*
X-15743187Y41550891D01*
X-15743190Y41550893D01*
X-15942703Y41628185D01*
X-16153020Y41667500D01*
X-16366980Y41667500D01*
X-16577297Y41628185D01*
X-16776810Y41550893D01*
X-16958722Y41438258D01*
X-17116841Y41294114D01*
X-17245781Y41123370D01*
X-17341151Y40931840D01*
X-17341153Y40931835D01*
X-17359727Y40866553D01*
X-17399704Y40726048D01*
X-17399713Y40725954D01*
X-17406529Y40652395D01*
X-17432315Y40587457D01*
X-17489116Y40546770D01*
X-17558897Y40543250D01*
X-17619503Y40578015D01*
X-17651693Y40640028D01*
X-17653471Y40652395D01*
X-17660295Y40726047D01*
X-17660296Y40726050D01*
X-17718846Y40931835D01*
X-17718849Y40931841D01*
X-17814219Y41123370D01*
X-17931295Y41278403D01*
X-17943159Y41294114D01*
X-18101278Y41438258D01*
X-18179135Y41486465D01*
X-18283186Y41550891D01*
X-18283187Y41550891D01*
X-18283190Y41550893D01*
X-18482703Y41628185D01*
X-18693020Y41667500D01*
X-18906980Y41667500D01*
X-19117297Y41628185D01*
X-19316810Y41550893D01*
X-19498722Y41438258D01*
X-19656841Y41294114D01*
X-19785781Y41123370D01*
X-19881151Y40931840D01*
X-19881153Y40931835D01*
X-19899727Y40866553D01*
X-19939704Y40726048D01*
X-19939713Y40725954D01*
X-19946529Y40652395D01*
X-19972315Y40587457D01*
X-20029116Y40546770D01*
X-20098897Y40543250D01*
X-20159503Y40578015D01*
X-20191693Y40640028D01*
X-20193471Y40652395D01*
X-20200295Y40726047D01*
X-20200296Y40726050D01*
X-20258846Y40931835D01*
X-20258849Y40931841D01*
X-20354219Y41123370D01*
X-20471295Y41278403D01*
X-20483159Y41294114D01*
X-20641278Y41438258D01*
X-20719135Y41486465D01*
X-20823186Y41550891D01*
X-20823187Y41550891D01*
X-20823190Y41550893D01*
X-21022703Y41628185D01*
X-21233020Y41667500D01*
X-21446980Y41667500D01*
X-21657297Y41628185D01*
X-21856810Y41550893D01*
X-22038722Y41438258D01*
X-22196841Y41294114D01*
X-22325781Y41123370D01*
X-22421151Y40931840D01*
X-22421153Y40931835D01*
X-22439727Y40866553D01*
X-22479704Y40726048D01*
X-22479713Y40725954D01*
X-22486529Y40652395D01*
X-22512315Y40587457D01*
X-22569116Y40546770D01*
X-22638897Y40543250D01*
X-22699503Y40578015D01*
X-22731693Y40640028D01*
X-22733471Y40652395D01*
X-22740295Y40726047D01*
X-22740296Y40726050D01*
X-22798846Y40931835D01*
X-22798849Y40931841D01*
X-22894219Y41123370D01*
X-23011295Y41278403D01*
X-23023159Y41294114D01*
X-23181278Y41438258D01*
X-23259135Y41486465D01*
X-23363186Y41550891D01*
X-23363187Y41550891D01*
X-23363190Y41550893D01*
X-23562703Y41628185D01*
X-23773020Y41667500D01*
X-23986980Y41667500D01*
X-24197297Y41628185D01*
X-24396810Y41550893D01*
X-24578722Y41438258D01*
X-24736841Y41294114D01*
X-24865781Y41123370D01*
X-24961151Y40931840D01*
X-24961153Y40931835D01*
X-24979727Y40866553D01*
X-25019704Y40726048D01*
X-25019713Y40725954D01*
X-25026529Y40652395D01*
X-25052315Y40587457D01*
X-25109116Y40546770D01*
X-25178897Y40543250D01*
X-25239503Y40578015D01*
X-25271693Y40640028D01*
X-25273471Y40652395D01*
X-25280295Y40726047D01*
X-25280296Y40726050D01*
X-25338846Y40931835D01*
X-25338849Y40931841D01*
X-25434219Y41123370D01*
X-25551295Y41278403D01*
X-25563159Y41294114D01*
X-25721278Y41438258D01*
X-25799135Y41486465D01*
X-25903186Y41550891D01*
X-25903187Y41550891D01*
X-25903190Y41550893D01*
X-26102703Y41628185D01*
X-26313020Y41667500D01*
X-26526980Y41667500D01*
X-26737297Y41628185D01*
X-26936810Y41550893D01*
X-27118722Y41438258D01*
X-27276841Y41294114D01*
X-27405781Y41123370D01*
X-27501151Y40931840D01*
X-27501153Y40931835D01*
X-27519727Y40866553D01*
X-27559704Y40726048D01*
X-27566780Y40649687D01*
X-27592564Y40584751D01*
X-27649364Y40544063D01*
X-27719145Y40540543D01*
X-27779752Y40575307D01*
X-27811943Y40637320D01*
X-27813721Y40649687D01*
X-27820788Y40725954D01*
X-27820789Y40725956D01*
X-27879315Y40931654D01*
X-27879321Y40931669D01*
X-27974642Y41123099D01*
X-27974647Y41123107D01*
X-27983980Y41135465D01*
X-28560000Y40559445D01*
X-28560000Y40565661D01*
X-28587259Y40667394D01*
X-28639920Y40758606D01*
X-28714394Y40833080D01*
X-28805606Y40885741D01*
X-28907339Y40913000D01*
X-28913553Y40913000D01*
X-28340086Y41486465D01*
X-28443413Y41550443D01*
X-28443414Y41550444D01*
X-28642837Y41627700D01*
X-28853068Y41667000D01*
X-29066932Y41667000D01*
X-29277162Y41627700D01*
X-29476585Y41550444D01*
X-29476589Y41550442D01*
X-29579911Y41486466D01*
X-29579911Y41486465D01*
X-29006448Y40913000D01*
X-29012661Y40913000D01*
X-29114394Y40885741D01*
X-29205606Y40833080D01*
X-29280080Y40758606D01*
X-29332741Y40667394D01*
X-29360000Y40565661D01*
X-29360000Y40559446D01*
X-29936018Y41135464D01*
X-29936019Y41135464D01*
X-29945352Y41123107D01*
X-29945355Y41123102D01*
X-30040678Y40931669D01*
X-30040684Y40931654D01*
X-30099210Y40725956D01*
X-30099211Y40725954D01*
X-30106278Y40649688D01*
X-30132064Y40584751D01*
X-30188864Y40544063D01*
X-30258645Y40540543D01*
X-30319252Y40575308D01*
X-30351442Y40637321D01*
X-30353220Y40649687D01*
X-30360296Y40726048D01*
X-30360296Y40726050D01*
X-30418846Y40931835D01*
X-30418849Y40931841D01*
X-30514219Y41123370D01*
X-30631295Y41278403D01*
X-30643159Y41294114D01*
X-30801278Y41438258D01*
X-30879135Y41486465D01*
X-30983186Y41550891D01*
X-30983187Y41550891D01*
X-30983190Y41550893D01*
X-31182703Y41628185D01*
X-31393020Y41667500D01*
X-31606980Y41667500D01*
X-31817297Y41628185D01*
X-32016810Y41550893D01*
X-32198722Y41438258D01*
X-32356841Y41294114D01*
X-32485781Y41123370D01*
X-32581151Y40931840D01*
X-32581153Y40931835D01*
X-32599727Y40866553D01*
X-32639704Y40726048D01*
X-32639713Y40725954D01*
X-32646529Y40652395D01*
X-32672315Y40587457D01*
X-32729116Y40546770D01*
X-32798897Y40543250D01*
X-32859503Y40578015D01*
X-32891693Y40640028D01*
X-32893471Y40652395D01*
X-32900295Y40726047D01*
X-32900296Y40726050D01*
X-32958846Y40931835D01*
X-32958849Y40931841D01*
X-33054219Y41123370D01*
X-33171295Y41278403D01*
X-33183159Y41294114D01*
X-33341278Y41438258D01*
X-33419135Y41486465D01*
X-33523186Y41550891D01*
X-33523187Y41550891D01*
X-33523190Y41550893D01*
X-33722703Y41628185D01*
X-33933020Y41667500D01*
X-34146980Y41667500D01*
X-34357297Y41628185D01*
X-34556810Y41550893D01*
X-34738722Y41438258D01*
X-34896841Y41294114D01*
X-35025781Y41123370D01*
X-35121151Y40931840D01*
X-35121153Y40931835D01*
X-35139727Y40866553D01*
X-35179704Y40726048D01*
X-35179713Y40725954D01*
X-35186529Y40652395D01*
X-35212315Y40587457D01*
X-35269116Y40546770D01*
X-35338897Y40543250D01*
X-35399503Y40578015D01*
X-35431693Y40640028D01*
X-35433471Y40652395D01*
X-35440295Y40726047D01*
X-35440296Y40726050D01*
X-35498846Y40931835D01*
X-35498849Y40931841D01*
X-35594219Y41123370D01*
X-35711295Y41278403D01*
X-35723159Y41294114D01*
X-35881278Y41438258D01*
X-35959135Y41486465D01*
X-36063186Y41550891D01*
X-36063187Y41550891D01*
X-36063190Y41550893D01*
X-36262703Y41628185D01*
X-36473020Y41667500D01*
X-36686980Y41667500D01*
X-36897297Y41628185D01*
X-37096810Y41550893D01*
X-37278722Y41438258D01*
X-37436841Y41294114D01*
X-37565781Y41123370D01*
X-37661151Y40931840D01*
X-37661153Y40931835D01*
X-37679727Y40866553D01*
X-37719704Y40726048D01*
X-37719713Y40725954D01*
X-37726529Y40652395D01*
X-37752315Y40587457D01*
X-37809116Y40546770D01*
X-37878897Y40543250D01*
X-37939503Y40578015D01*
X-37971693Y40640028D01*
X-37973471Y40652395D01*
X-37980295Y40726047D01*
X-37980296Y40726050D01*
X-38038846Y40931835D01*
X-38038849Y40931841D01*
X-38134219Y41123370D01*
X-38251295Y41278403D01*
X-38263159Y41294114D01*
X-38421278Y41438258D01*
X-38499135Y41486465D01*
X-38603186Y41550891D01*
X-38603187Y41550891D01*
X-38603190Y41550893D01*
X-38802703Y41628185D01*
X-39013020Y41667500D01*
X-39226980Y41667500D01*
X-39437297Y41628185D01*
X-39636810Y41550893D01*
X-39818722Y41438258D01*
X-39976841Y41294114D01*
X-40105781Y41123370D01*
X-40201151Y40931840D01*
X-40201153Y40931835D01*
X-40219727Y40866553D01*
X-40259704Y40726048D01*
X-40259713Y40725954D01*
X-40266529Y40652395D01*
X-40292315Y40587457D01*
X-40349116Y40546770D01*
X-40418897Y40543250D01*
X-40479503Y40578015D01*
X-40511693Y40640028D01*
X-40513471Y40652395D01*
X-40520295Y40726047D01*
X-40520296Y40726050D01*
X-40578846Y40931835D01*
X-40578849Y40931841D01*
X-40674219Y41123370D01*
X-40791295Y41278403D01*
X-40803159Y41294114D01*
X-40961278Y41438258D01*
X-41039135Y41486465D01*
X-41143186Y41550891D01*
X-41143187Y41550891D01*
X-41143190Y41550893D01*
X-41342703Y41628185D01*
X-41553020Y41667500D01*
X-41766980Y41667500D01*
X-41977297Y41628185D01*
X-42176810Y41550893D01*
X-42358722Y41438258D01*
X-42516841Y41294114D01*
X-42645781Y41123370D01*
X-42741151Y40931840D01*
X-42741153Y40931835D01*
X-42759727Y40866553D01*
X-42799704Y40726048D01*
X-42799713Y40725954D01*
X-42806529Y40652395D01*
X-42832315Y40587457D01*
X-42889116Y40546770D01*
X-42958897Y40543250D01*
X-43019503Y40578015D01*
X-43051693Y40640028D01*
X-43053471Y40652395D01*
X-43060295Y40726047D01*
X-43060296Y40726050D01*
X-43118846Y40931835D01*
X-43118849Y40931841D01*
X-43214219Y41123370D01*
X-43331295Y41278403D01*
X-43343159Y41294114D01*
X-43501278Y41438258D01*
X-43579135Y41486465D01*
X-43683186Y41550891D01*
X-43683187Y41550891D01*
X-43683190Y41550893D01*
X-43882703Y41628185D01*
X-44093020Y41667500D01*
X-44306980Y41667500D01*
X-44517297Y41628185D01*
X-44716810Y41550893D01*
X-44898722Y41438258D01*
X-45056841Y41294114D01*
X-45185781Y41123370D01*
X-45281151Y40931840D01*
X-45281153Y40931835D01*
X-45299727Y40866553D01*
X-45339704Y40726048D01*
X-45339713Y40725954D01*
X-45346529Y40652395D01*
X-45372315Y40587457D01*
X-45429116Y40546770D01*
X-45498897Y40543250D01*
X-45559503Y40578015D01*
X-45591693Y40640028D01*
X-45593471Y40652395D01*
X-45600295Y40726047D01*
X-45600296Y40726050D01*
X-45658846Y40931835D01*
X-45658849Y40931841D01*
X-45754219Y41123370D01*
X-45871295Y41278403D01*
X-45883159Y41294114D01*
X-46041278Y41438258D01*
X-46119135Y41486465D01*
X-46223186Y41550891D01*
X-46223187Y41550891D01*
X-46223190Y41550893D01*
X-46422703Y41628185D01*
X-46633020Y41667500D01*
X-46846980Y41667500D01*
X-47057297Y41628185D01*
X-47256810Y41550893D01*
X-47438722Y41438258D01*
X-47596841Y41294114D01*
X-47725781Y41123370D01*
X-47821151Y40931840D01*
X-47821153Y40931835D01*
X-47839727Y40866553D01*
X-47879704Y40726048D01*
X-47879713Y40725954D01*
X-47886529Y40652395D01*
X-47912315Y40587457D01*
X-47969116Y40546770D01*
X-48038897Y40543250D01*
X-48099503Y40578015D01*
X-48131693Y40640028D01*
X-48133471Y40652395D01*
X-48140295Y40726047D01*
X-48140296Y40726050D01*
X-48198846Y40931835D01*
X-48198849Y40931841D01*
X-48294219Y41123370D01*
X-48411295Y41278403D01*
X-48423159Y41294114D01*
X-48581278Y41438258D01*
X-48659135Y41486465D01*
X-48763186Y41550891D01*
X-48763187Y41550891D01*
X-48763190Y41550893D01*
X-48962703Y41628185D01*
X-49173020Y41667500D01*
X-49386980Y41667500D01*
X-49597297Y41628185D01*
X-49796810Y41550893D01*
X-49978722Y41438258D01*
X-50136841Y41294114D01*
X-50265781Y41123370D01*
X-50361151Y40931840D01*
X-50361153Y40931835D01*
X-50379727Y40866553D01*
X-50419704Y40726048D01*
X-50419713Y40725954D01*
X-50426529Y40652395D01*
X-50452315Y40587457D01*
X-50509116Y40546770D01*
X-50578897Y40543250D01*
X-50639503Y40578015D01*
X-50671693Y40640028D01*
X-50673471Y40652395D01*
X-50680295Y40726047D01*
X-50680296Y40726050D01*
X-50738846Y40931835D01*
X-50738849Y40931841D01*
X-50834219Y41123370D01*
X-50951295Y41278403D01*
X-50963159Y41294114D01*
X-51121278Y41438258D01*
X-51199135Y41486465D01*
X-51303186Y41550891D01*
X-51303187Y41550891D01*
X-51303190Y41550893D01*
X-51502703Y41628185D01*
X-51713020Y41667500D01*
X-51926980Y41667500D01*
X-52137297Y41628185D01*
X-52336810Y41550893D01*
X-52518722Y41438258D01*
X-52676841Y41294114D01*
X-52805781Y41123370D01*
X-52901151Y40931840D01*
X-52901153Y40931835D01*
X-52919727Y40866553D01*
X-52959704Y40726048D01*
X-52959713Y40725954D01*
X-52979446Y40513000D01*
X-52979446Y40512999D01*
X-52959704Y40299952D01*
X-52959703Y40299949D01*
X-52901153Y40094164D01*
X-52901151Y40094160D01*
X-52805781Y39902630D01*
X-52676841Y39731886D01*
X-52518722Y39587742D01*
X-52518716Y39587738D01*
X-52518713Y39587736D01*
X-52336813Y39475108D01*
X-52336810Y39475107D01*
X-52137297Y39397815D01*
X-51926980Y39358500D01*
X-51926978Y39358500D01*
X-51713022Y39358500D01*
X-51713020Y39358500D01*
X-51502703Y39397815D01*
X-51350502Y39456778D01*
X-51303192Y39475106D01*
X-51303186Y39475108D01*
X-51121286Y39587736D01*
X-51121283Y39587738D01*
X-51121279Y39587740D01*
X-51121278Y39587742D01*
X-50963159Y39731886D01*
X-50932112Y39772999D01*
X-50834219Y39902629D01*
X-50738849Y40094158D01*
X-50738846Y40094164D01*
X-50680296Y40299949D01*
X-50680295Y40299952D01*
X-50673471Y40373604D01*
X-50647685Y40438542D01*
X-50590884Y40479229D01*
X-50521103Y40482749D01*
X-50460497Y40447984D01*
X-50428307Y40385971D01*
X-50426529Y40373604D01*
X-50419704Y40299952D01*
X-50419703Y40299949D01*
X-50361153Y40094164D01*
X-50361151Y40094160D01*
X-50265781Y39902630D01*
X-50136841Y39731886D01*
X-49978722Y39587742D01*
X-49978716Y39587738D01*
X-49978713Y39587736D01*
X-49796813Y39475108D01*
X-49796810Y39475107D01*
X-49597297Y39397815D01*
X-49386980Y39358500D01*
X-49386978Y39358500D01*
X-49173022Y39358500D01*
X-49173020Y39358500D01*
X-48962703Y39397815D01*
X-48810502Y39456778D01*
X-48763192Y39475106D01*
X-48763186Y39475108D01*
X-48581286Y39587736D01*
X-48581283Y39587738D01*
X-48581279Y39587740D01*
X-48581278Y39587742D01*
X-48423159Y39731886D01*
X-48392112Y39772999D01*
X-48294219Y39902629D01*
X-48198849Y40094158D01*
X-48198846Y40094164D01*
X-48140296Y40299949D01*
X-48140295Y40299952D01*
X-48133471Y40373604D01*
X-48107685Y40438542D01*
X-48050884Y40479229D01*
X-47981103Y40482749D01*
X-47920497Y40447984D01*
X-47888307Y40385971D01*
X-47886529Y40373604D01*
X-47879704Y40299952D01*
X-47879703Y40299949D01*
X-47821153Y40094164D01*
X-47821151Y40094160D01*
X-47725781Y39902630D01*
X-47596841Y39731886D01*
X-47438722Y39587742D01*
X-47438716Y39587738D01*
X-47438713Y39587736D01*
X-47256813Y39475108D01*
X-47256810Y39475107D01*
X-47057297Y39397815D01*
X-46846980Y39358500D01*
X-46846978Y39358500D01*
X-46633022Y39358500D01*
X-46633020Y39358500D01*
X-46422703Y39397815D01*
X-46270502Y39456778D01*
X-46223192Y39475106D01*
X-46223186Y39475108D01*
X-46041286Y39587736D01*
X-46041283Y39587738D01*
X-46041279Y39587740D01*
X-46041278Y39587742D01*
X-45883159Y39731886D01*
X-45852112Y39772999D01*
X-45754219Y39902629D01*
X-45658849Y40094158D01*
X-45658846Y40094164D01*
X-45600296Y40299949D01*
X-45600295Y40299952D01*
X-45593471Y40373604D01*
X-45567685Y40438542D01*
X-45510884Y40479229D01*
X-45441103Y40482749D01*
X-45380497Y40447984D01*
X-45348307Y40385971D01*
X-45346529Y40373604D01*
X-45339704Y40299952D01*
X-45339703Y40299949D01*
X-45281153Y40094164D01*
X-45281151Y40094160D01*
X-45185781Y39902630D01*
X-45056841Y39731886D01*
X-44898722Y39587742D01*
X-44898716Y39587738D01*
X-44898713Y39587736D01*
X-44716813Y39475108D01*
X-44716810Y39475107D01*
X-44517297Y39397815D01*
X-44306980Y39358500D01*
X-44306978Y39358500D01*
X-44093022Y39358500D01*
X-44093020Y39358500D01*
X-43882703Y39397815D01*
X-43730502Y39456778D01*
X-43683192Y39475106D01*
X-43683186Y39475108D01*
X-43501286Y39587736D01*
X-43501283Y39587738D01*
X-43501279Y39587740D01*
X-43501278Y39587742D01*
X-43343159Y39731886D01*
X-43312112Y39772999D01*
X-43214219Y39902629D01*
X-43118849Y40094158D01*
X-43118846Y40094164D01*
X-43060296Y40299949D01*
X-43060295Y40299952D01*
X-43053471Y40373604D01*
X-43027685Y40438542D01*
X-42970884Y40479229D01*
X-42901103Y40482749D01*
X-42840497Y40447984D01*
X-42808307Y40385971D01*
X-42806529Y40373604D01*
X-42799704Y40299952D01*
X-42799703Y40299949D01*
X-42741153Y40094164D01*
X-42741151Y40094160D01*
X-42645781Y39902630D01*
X-42516841Y39731886D01*
X-42358722Y39587742D01*
X-42358716Y39587738D01*
X-42358713Y39587736D01*
X-42176813Y39475108D01*
X-42176810Y39475107D01*
X-41977297Y39397815D01*
X-41766980Y39358500D01*
X-41766978Y39358500D01*
X-41553022Y39358500D01*
X-41553020Y39358500D01*
X-41342703Y39397815D01*
X-41190502Y39456778D01*
X-41143192Y39475106D01*
X-41143186Y39475108D01*
X-40961286Y39587736D01*
X-40961283Y39587738D01*
X-40961279Y39587740D01*
X-40961278Y39587742D01*
X-40803159Y39731886D01*
X-40772112Y39772999D01*
X-40674219Y39902629D01*
X-40578849Y40094158D01*
X-40578846Y40094164D01*
X-40520296Y40299949D01*
X-40520295Y40299952D01*
X-40513471Y40373604D01*
X-40487685Y40438542D01*
X-40430884Y40479229D01*
X-40361103Y40482749D01*
X-40300497Y40447984D01*
X-40268307Y40385971D01*
X-40266529Y40373604D01*
X-40259704Y40299952D01*
X-40259703Y40299949D01*
X-40201153Y40094164D01*
X-40201151Y40094160D01*
X-40105781Y39902630D01*
X-39976841Y39731886D01*
X-39818722Y39587742D01*
X-39818716Y39587738D01*
X-39818713Y39587736D01*
X-39636813Y39475108D01*
X-39636810Y39475107D01*
X-39437297Y39397815D01*
X-39226980Y39358500D01*
X-39226978Y39358500D01*
X-39013022Y39358500D01*
X-39013020Y39358500D01*
X-38802703Y39397815D01*
X-38650502Y39456778D01*
X-38603192Y39475106D01*
X-38603186Y39475108D01*
X-38421286Y39587736D01*
X-38421283Y39587738D01*
X-38421279Y39587740D01*
X-38421278Y39587742D01*
X-38263159Y39731886D01*
X-38232112Y39772999D01*
X-38134219Y39902629D01*
X-38038849Y40094158D01*
X-38038846Y40094164D01*
X-37980296Y40299949D01*
X-37980295Y40299952D01*
X-37973471Y40373604D01*
X-37947685Y40438542D01*
X-37890884Y40479229D01*
X-37821103Y40482749D01*
X-37760497Y40447984D01*
X-37728307Y40385971D01*
X-37726529Y40373604D01*
X-37719704Y40299952D01*
X-37719703Y40299949D01*
X-37661153Y40094164D01*
X-37661151Y40094160D01*
X-37565781Y39902630D01*
X-37436841Y39731886D01*
X-37278722Y39587742D01*
X-37278716Y39587738D01*
X-37278713Y39587736D01*
X-37096813Y39475108D01*
X-37096810Y39475107D01*
X-36897297Y39397815D01*
X-36686980Y39358500D01*
X-36686978Y39358500D01*
X-36473022Y39358500D01*
X-36473020Y39358500D01*
X-36262703Y39397815D01*
X-36110502Y39456778D01*
X-36063192Y39475106D01*
X-36063186Y39475108D01*
X-35881286Y39587736D01*
X-35881283Y39587738D01*
X-35881279Y39587740D01*
X-35881278Y39587742D01*
X-35723159Y39731886D01*
X-35692112Y39772999D01*
X-35594219Y39902629D01*
X-35498849Y40094158D01*
X-35498846Y40094164D01*
X-35440296Y40299949D01*
X-35440295Y40299952D01*
X-35433471Y40373604D01*
X-35407685Y40438542D01*
X-35350884Y40479229D01*
X-35281103Y40482749D01*
X-35220497Y40447984D01*
X-35188307Y40385971D01*
X-35186529Y40373604D01*
X-35179704Y40299952D01*
X-35179703Y40299949D01*
X-35121153Y40094164D01*
X-35121151Y40094160D01*
X-35025781Y39902630D01*
X-34896841Y39731886D01*
X-34738722Y39587742D01*
X-34738716Y39587738D01*
X-34738713Y39587736D01*
X-34556813Y39475108D01*
X-34556810Y39475107D01*
X-34357297Y39397815D01*
X-34146980Y39358500D01*
X-34146978Y39358500D01*
X-33933022Y39358500D01*
X-33933020Y39358500D01*
X-33722703Y39397815D01*
X-33570502Y39456778D01*
X-33523192Y39475106D01*
X-33523186Y39475108D01*
X-33341286Y39587736D01*
X-33341283Y39587738D01*
X-33341279Y39587740D01*
X-33341278Y39587742D01*
X-33183159Y39731886D01*
X-33152112Y39772999D01*
X-33054219Y39902629D01*
X-32958849Y40094158D01*
X-32958846Y40094164D01*
X-32900296Y40299949D01*
X-32900295Y40299952D01*
X-32893471Y40373604D01*
X-32867685Y40438542D01*
X-32810884Y40479229D01*
X-32741103Y40482749D01*
X-32680497Y40447984D01*
X-32648307Y40385971D01*
X-32646529Y40373604D01*
X-32639704Y40299952D01*
X-32639703Y40299949D01*
X-32581153Y40094164D01*
X-32581151Y40094160D01*
X-32485781Y39902630D01*
X-32356841Y39731886D01*
X-32198722Y39587742D01*
X-32198716Y39587738D01*
X-32198713Y39587736D01*
X-32016813Y39475108D01*
X-32016810Y39475107D01*
X-31817297Y39397815D01*
X-31606980Y39358500D01*
X-31606978Y39358500D01*
X-31393022Y39358500D01*
X-31393020Y39358500D01*
X-31182703Y39397815D01*
X-31030502Y39456778D01*
X-30983192Y39475106D01*
X-30983186Y39475108D01*
X-30801286Y39587736D01*
X-30801283Y39587738D01*
X-30801279Y39587740D01*
X-30801278Y39587742D01*
X-30643159Y39731886D01*
X-30612112Y39772999D01*
X-30514219Y39902629D01*
X-30418849Y40094158D01*
X-30418846Y40094164D01*
X-30360296Y40299949D01*
X-30360296Y40299952D01*
X-30353220Y40376312D01*
X-30327434Y40441249D01*
X-30270633Y40481936D01*
X-30200852Y40485456D01*
X-30140246Y40450690D01*
X-30108056Y40388678D01*
X-30106278Y40376311D01*
X-30099211Y40300045D01*
X-30099210Y40300043D01*
X-30040684Y40094345D01*
X-30040678Y40094330D01*
X-29945357Y39902901D01*
X-29945355Y39902898D01*
X-29936018Y39890534D01*
X-29360000Y40466552D01*
X-29360000Y40460339D01*
X-29332741Y40358606D01*
X-29280080Y40267394D01*
X-29205606Y40192920D01*
X-29114394Y40140259D01*
X-29012661Y40113000D01*
X-29006448Y40113000D01*
X-29579912Y39539534D01*
X-29579912Y39539533D01*
X-29476586Y39475556D01*
X-29476585Y39475555D01*
X-29277162Y39398299D01*
X-29066932Y39359000D01*
X-28853068Y39359000D01*
X-28642837Y39398299D01*
X-28443416Y39475554D01*
X-28443410Y39475557D01*
X-28340087Y39539532D01*
X-28340086Y39539533D01*
X-28913552Y40113000D01*
X-28907339Y40113000D01*
X-28805606Y40140259D01*
X-28714394Y40192920D01*
X-28639920Y40267394D01*
X-28587259Y40358606D01*
X-28560000Y40460339D01*
X-28560000Y40466553D01*
X-27983980Y39890533D01*
X-27974646Y39902893D01*
X-27879321Y40094330D01*
X-27879315Y40094345D01*
X-27820789Y40300043D01*
X-27820789Y40300044D01*
X-27813721Y40376313D01*
X-27787934Y40441250D01*
X-27731133Y40481937D01*
X-27661352Y40485456D01*
X-27600746Y40450690D01*
X-27568557Y40388677D01*
X-27566780Y40376323D01*
X-27559712Y40300043D01*
X-27559704Y40299953D01*
X-27559703Y40299949D01*
X-27501153Y40094164D01*
X-27501151Y40094160D01*
X-27405781Y39902630D01*
X-27276841Y39731886D01*
X-27118722Y39587742D01*
X-27118716Y39587738D01*
X-27118713Y39587736D01*
X-26936813Y39475108D01*
X-26936810Y39475107D01*
X-26737297Y39397815D01*
X-26526980Y39358500D01*
X-26526978Y39358500D01*
X-26313022Y39358500D01*
X-26313020Y39358500D01*
X-26102703Y39397815D01*
X-25950502Y39456778D01*
X-25903192Y39475106D01*
X-25903186Y39475108D01*
X-25721286Y39587736D01*
X-25721283Y39587738D01*
X-25721279Y39587740D01*
X-25721278Y39587742D01*
X-25563159Y39731886D01*
X-25532112Y39772999D01*
X-25434219Y39902629D01*
X-25338849Y40094158D01*
X-25338846Y40094164D01*
X-25280296Y40299949D01*
X-25280295Y40299952D01*
X-25273471Y40373604D01*
X-25247685Y40438542D01*
X-25190884Y40479229D01*
X-25121103Y40482749D01*
X-25060497Y40447984D01*
X-25028307Y40385971D01*
X-25026529Y40373604D01*
X-25019704Y40299952D01*
X-25019703Y40299949D01*
X-24961153Y40094164D01*
X-24961151Y40094160D01*
X-24865781Y39902630D01*
X-24736841Y39731886D01*
X-24578722Y39587742D01*
X-24578716Y39587738D01*
X-24578713Y39587736D01*
X-24396813Y39475108D01*
X-24396810Y39475107D01*
X-24197297Y39397815D01*
X-23986980Y39358500D01*
X-23986978Y39358500D01*
X-23773022Y39358500D01*
X-23773020Y39358500D01*
X-23562703Y39397815D01*
X-23410502Y39456778D01*
X-23363192Y39475106D01*
X-23363186Y39475108D01*
X-23181286Y39587736D01*
X-23181283Y39587738D01*
X-23181279Y39587740D01*
X-23181278Y39587742D01*
X-23023159Y39731886D01*
X-22992112Y39772999D01*
X-22894219Y39902629D01*
X-22798849Y40094158D01*
X-22798846Y40094164D01*
X-22740296Y40299949D01*
X-22740295Y40299952D01*
X-22733471Y40373604D01*
X-22707685Y40438542D01*
X-22650884Y40479229D01*
X-22581103Y40482749D01*
X-22520497Y40447984D01*
X-22488307Y40385971D01*
X-22486529Y40373604D01*
X-22479704Y40299952D01*
X-22479703Y40299949D01*
X-22421153Y40094164D01*
X-22421151Y40094160D01*
X-22325781Y39902630D01*
X-22196841Y39731886D01*
X-22038722Y39587742D01*
X-22038716Y39587738D01*
X-22038713Y39587736D01*
X-21856813Y39475108D01*
X-21856810Y39475107D01*
X-21657297Y39397815D01*
X-21446980Y39358500D01*
X-21446978Y39358500D01*
X-21233022Y39358500D01*
X-21233020Y39358500D01*
X-21022703Y39397815D01*
X-20870502Y39456778D01*
X-20823192Y39475106D01*
X-20823186Y39475108D01*
X-20641286Y39587736D01*
X-20641283Y39587738D01*
X-20641279Y39587740D01*
X-20641278Y39587742D01*
X-20483159Y39731886D01*
X-20452112Y39772999D01*
X-20354219Y39902629D01*
X-20258849Y40094158D01*
X-20258846Y40094164D01*
X-20200296Y40299949D01*
X-20200295Y40299952D01*
X-20193471Y40373604D01*
X-20167685Y40438542D01*
X-20110884Y40479229D01*
X-20041103Y40482749D01*
X-19980497Y40447984D01*
X-19948307Y40385971D01*
X-19946529Y40373604D01*
X-19939704Y40299952D01*
X-19939703Y40299949D01*
X-19881153Y40094164D01*
X-19881151Y40094160D01*
X-19785781Y39902630D01*
X-19656841Y39731886D01*
X-19498722Y39587742D01*
X-19498716Y39587738D01*
X-19498713Y39587736D01*
X-19316813Y39475108D01*
X-19316810Y39475107D01*
X-19117297Y39397815D01*
X-18906980Y39358500D01*
X-18906978Y39358500D01*
X-18693022Y39358500D01*
X-18693020Y39358500D01*
X-18482703Y39397815D01*
X-18330502Y39456778D01*
X-18283192Y39475106D01*
X-18283186Y39475108D01*
X-18101286Y39587736D01*
X-18101283Y39587738D01*
X-18101279Y39587740D01*
X-18101278Y39587742D01*
X-17943159Y39731886D01*
X-17912112Y39772999D01*
X-17814219Y39902629D01*
X-17718849Y40094158D01*
X-17718846Y40094164D01*
X-17660296Y40299949D01*
X-17660295Y40299952D01*
X-17653471Y40373604D01*
X-17627685Y40438542D01*
X-17570884Y40479229D01*
X-17501103Y40482749D01*
X-17440497Y40447984D01*
X-17408307Y40385971D01*
X-17406529Y40373604D01*
X-17399704Y40299952D01*
X-17399703Y40299949D01*
X-17341153Y40094164D01*
X-17341151Y40094160D01*
X-17245781Y39902630D01*
X-17116841Y39731886D01*
X-16958722Y39587742D01*
X-16958716Y39587738D01*
X-16958713Y39587736D01*
X-16776813Y39475108D01*
X-16776810Y39475107D01*
X-16577297Y39397815D01*
X-16366980Y39358500D01*
X-16366978Y39358500D01*
X-16153022Y39358500D01*
X-16153020Y39358500D01*
X-15942703Y39397815D01*
X-15790502Y39456778D01*
X-15743192Y39475106D01*
X-15743186Y39475108D01*
X-15561286Y39587736D01*
X-15561283Y39587738D01*
X-15561279Y39587740D01*
X-15561278Y39587742D01*
X-15403159Y39731886D01*
X-15372112Y39772999D01*
X-15274219Y39902629D01*
X-15178849Y40094158D01*
X-15178846Y40094164D01*
X-15120296Y40299949D01*
X-15120295Y40299952D01*
X-15113471Y40373604D01*
X-15087685Y40438542D01*
X-15030884Y40479229D01*
X-14961103Y40482749D01*
X-14900497Y40447984D01*
X-14868307Y40385971D01*
X-14866529Y40373604D01*
X-14859704Y40299952D01*
X-14859703Y40299949D01*
X-14801153Y40094164D01*
X-14801151Y40094160D01*
X-14705781Y39902630D01*
X-14576841Y39731886D01*
X-14418722Y39587742D01*
X-14418716Y39587738D01*
X-14418713Y39587736D01*
X-14236813Y39475108D01*
X-14236810Y39475107D01*
X-14037297Y39397815D01*
X-13826980Y39358500D01*
X-13826978Y39358500D01*
X-13613022Y39358500D01*
X-13613020Y39358500D01*
X-13402703Y39397815D01*
X-13250502Y39456778D01*
X-13203192Y39475106D01*
X-13203186Y39475108D01*
X-13021286Y39587736D01*
X-13021283Y39587738D01*
X-13021279Y39587740D01*
X-13021278Y39587742D01*
X-12863159Y39731886D01*
X-12832112Y39772999D01*
X-12734219Y39902629D01*
X-12638849Y40094158D01*
X-12638846Y40094164D01*
X-12580296Y40299949D01*
X-12580295Y40299952D01*
X-12573471Y40373604D01*
X-12547685Y40438542D01*
X-12490884Y40479229D01*
X-12421103Y40482749D01*
X-12360497Y40447984D01*
X-12328307Y40385971D01*
X-12326529Y40373604D01*
X-12319704Y40299952D01*
X-12319703Y40299949D01*
X-12261153Y40094164D01*
X-12261151Y40094160D01*
X-12165781Y39902630D01*
X-12036841Y39731886D01*
X-11878722Y39587742D01*
X-11878716Y39587738D01*
X-11878713Y39587736D01*
X-11696813Y39475108D01*
X-11696810Y39475107D01*
X-11497297Y39397815D01*
X-11286980Y39358500D01*
X-11286978Y39358500D01*
X-11073022Y39358500D01*
X-11073020Y39358500D01*
X-10862703Y39397815D01*
X-10862700Y39397816D01*
X-10779293Y39430128D01*
X-10709670Y39435989D01*
X-10647930Y39403279D01*
X-10613675Y39342383D01*
X-10610500Y39314501D01*
X-10610500Y37365230D01*
X-10630185Y37298191D01*
X-10646819Y37277549D01*
X-24284549Y23639819D01*
X-24345872Y23606334D01*
X-24372230Y23603500D01*
X-29443337Y23603500D01*
X-29510376Y23623185D01*
X-29544912Y23656377D01*
X-29569954Y23692141D01*
X-29730858Y23853045D01*
X-29917265Y23983567D01*
X-29917266Y23983568D01*
X-29975275Y24010618D01*
X-30027714Y24056791D01*
X-30046866Y24123984D01*
X-30026650Y24190865D01*
X-29975275Y24235382D01*
X-29917267Y24262431D01*
X-29917265Y24262432D01*
X-29730858Y24392954D01*
X-29569954Y24553858D01*
X-29439432Y24740265D01*
X-29439431Y24740267D01*
X-29343261Y24946502D01*
X-29343258Y24946511D01*
X-29284366Y25166302D01*
X-29284364Y25166313D01*
X-29264532Y25392998D01*
X-29264532Y25393001D01*
X-29284364Y25619686D01*
X-29284366Y25619697D01*
X-29343258Y25839488D01*
X-29343261Y25839497D01*
X-29439431Y26045732D01*
X-29439432Y26045734D01*
X-29569954Y26232141D01*
X-29730858Y26393045D01*
X-29756086Y26410710D01*
X-29799711Y26465287D01*
X-29806905Y26534785D01*
X-29775382Y26597140D01*
X-29715153Y26632554D01*
X-29698221Y26635574D01*
X-29662626Y26639401D01*
X-29662620Y26639403D01*
X-29527913Y26689645D01*
X-29527906Y26689649D01*
X-29412812Y26775809D01*
X-29412809Y26775812D01*
X-29326649Y26890906D01*
X-29326645Y26890913D01*
X-29276403Y27025620D01*
X-29276401Y27025627D01*
X-29270000Y27085155D01*
X-29270000Y27683000D01*
X-30254314Y27683000D01*
X-30249920Y27687394D01*
X-30197259Y27778606D01*
X-30170000Y27880339D01*
X-30170000Y27985661D01*
X-30197259Y28087394D01*
X-30249920Y28178606D01*
X-30254314Y28183000D01*
X-29270000Y28183000D01*
X-29270000Y28780844D01*
X-29276401Y28840372D01*
X-29276403Y28840379D01*
X-29326645Y28975086D01*
X-29326649Y28975093D01*
X-29412809Y29090187D01*
X-29412812Y29090190D01*
X-29527906Y29176350D01*
X-29527913Y29176354D01*
X-29662620Y29226596D01*
X-29662627Y29226598D01*
X-29722155Y29232999D01*
X-29722172Y29233000D01*
X-30320000Y29233000D01*
X-30320000Y28248686D01*
X-30324394Y28253080D01*
X-30415606Y28305741D01*
X-30517339Y28333000D01*
X-30622661Y28333000D01*
X-30724394Y28305741D01*
X-30815606Y28253080D01*
X-30820000Y28248686D01*
X-30820000Y29233000D01*
X-31417828Y29233000D01*
X-31417844Y29232999D01*
X-31477372Y29226598D01*
X-31477379Y29226596D01*
X-31612086Y29176354D01*
X-31612093Y29176350D01*
X-31727187Y29090190D01*
X-31727190Y29090187D01*
X-31813350Y28975093D01*
X-31813354Y28975086D01*
X-31863596Y28840379D01*
X-31863598Y28840372D01*
X-31869999Y28780844D01*
X-31870000Y28780827D01*
X-31870000Y28183000D01*
X-30885686Y28183000D01*
X-30890080Y28178606D01*
X-30942741Y28087394D01*
X-30970000Y27985661D01*
X-30970000Y27880339D01*
X-30942741Y27778606D01*
X-30890080Y27687394D01*
X-30885686Y27683000D01*
X-31870000Y27683000D01*
X-31870000Y27085172D01*
X-31869999Y27085155D01*
X-31863598Y27025627D01*
X-31863596Y27025620D01*
X-31813354Y26890913D01*
X-31813350Y26890906D01*
X-31727190Y26775812D01*
X-31727187Y26775809D01*
X-31612093Y26689649D01*
X-31612086Y26689645D01*
X-31477379Y26639403D01*
X-31477373Y26639401D01*
X-31441778Y26635574D01*
X-31377228Y26608835D01*
X-31337381Y26551441D01*
X-31334888Y26481616D01*
X-31370542Y26421528D01*
X-31383908Y26410713D01*
X-31409139Y26393047D01*
X-31570047Y26232139D01*
X-31700568Y26045734D01*
X-31796739Y25839496D01*
X-31855635Y25619692D01*
X-31875468Y25393000D01*
X-31855635Y25166308D01*
X-31796739Y24946504D01*
X-31700568Y24740266D01*
X-31653103Y24672478D01*
X-31570045Y24553858D01*
X-31409141Y24392954D01*
X-31222734Y24262432D01*
X-31222728Y24262429D01*
X-31164725Y24235382D01*
X-31112285Y24189210D01*
X-31093133Y24122017D01*
X-31113348Y24055135D01*
X-31164724Y24010618D01*
X-31222734Y23983568D01*
X-31409139Y23853047D01*
X-31570047Y23692139D01*
X-31574125Y23686315D01*
X-31595088Y23656377D01*
X-31649665Y23612752D01*
X-31696663Y23603500D01*
X-39057770Y23603500D01*
X-39124809Y23623185D01*
X-39145451Y23639819D01*
X-56237130Y40731498D01*
X-56270615Y40792821D01*
X-56272977Y40829986D01*
X-56254341Y41042997D01*
X-56254341Y41043000D01*
X-56274936Y41278403D01*
X-56274938Y41278413D01*
X-56336094Y41506655D01*
X-56336096Y41506659D01*
X-56336097Y41506663D01*
X-56427278Y41702200D01*
X-56435964Y41720828D01*
X-56435965Y41720830D01*
X-56571505Y41914402D01*
X-56738597Y42081493D01*
X-56738599Y42081495D01*
X-56924158Y42211425D01*
X-56967782Y42266002D01*
X-56974975Y42335501D01*
X-56943453Y42397855D01*
X-56924158Y42414575D01*
X-56738599Y42544505D01*
X-56738597Y42544506D01*
X-56571506Y42711597D01*
X-56571501Y42711604D01*
X-56435967Y42905165D01*
X-56435965Y42905169D01*
X-56336098Y43119335D01*
X-56336094Y43119344D01*
X-56274938Y43347586D01*
X-56274936Y43347596D01*
X-56254341Y43582999D01*
X-56254341Y43583000D01*
X-56274936Y43818403D01*
X-56274938Y43818413D01*
X-56336094Y44046655D01*
X-56336096Y44046659D01*
X-56336097Y44046663D01*
X-56386031Y44153746D01*
X-56435964Y44260828D01*
X-56435965Y44260830D01*
X-56571505Y44454402D01*
X-56738597Y44621493D01*
X-56738599Y44621495D01*
X-56924158Y44751425D01*
X-56967782Y44806002D01*
X-56974975Y44875501D01*
X-56943453Y44937855D01*
X-56924158Y44954575D01*
X-56738599Y45084505D01*
X-56738597Y45084506D01*
X-56571506Y45251597D01*
X-56571501Y45251604D01*
X-56435967Y45445165D01*
X-56435965Y45445169D01*
X-56336098Y45659335D01*
X-56336094Y45659344D01*
X-56274938Y45887586D01*
X-56274936Y45887596D01*
X-56254341Y46122999D01*
X-56254341Y46123000D01*
X-56274936Y46358403D01*
X-56274938Y46358413D01*
X-56336094Y46586655D01*
X-56336096Y46586659D01*
X-56336097Y46586663D01*
X-56386031Y46693746D01*
X-56435964Y46800828D01*
X-56435965Y46800830D01*
X-56571503Y46994399D01*
X-56571505Y46994401D01*
X-56693819Y47116715D01*
X-56727303Y47178036D01*
X-56722319Y47247728D01*
X-56680448Y47303662D01*
X-56649471Y47320577D01*
X-56517912Y47369646D01*
X-56517906Y47369649D01*
X-56402812Y47455809D01*
X-56402809Y47455812D01*
X-56316649Y47570906D01*
X-56316645Y47570913D01*
X-56266403Y47705620D01*
X-56266401Y47705627D01*
X-56260000Y47765155D01*
X-56260000Y48413000D01*
X-57176988Y48413000D01*
X-57144075Y48470007D01*
X-57110000Y48597174D01*
X-57110000Y48728826D01*
X-57144075Y48855993D01*
X-57176988Y48913000D01*
X-56260000Y48913000D01*
X-56260000Y49560844D01*
X-56266401Y49620372D01*
X-56266403Y49620379D01*
X-56316645Y49755086D01*
X-56316649Y49755093D01*
X-56402809Y49870187D01*
X-56402812Y49870190D01*
X-56517906Y49956350D01*
X-56517913Y49956354D01*
X-56652620Y50006596D01*
X-56652627Y50006598D01*
X-56712155Y50012999D01*
X-56712172Y50013000D01*
X-57360000Y50013000D01*
X-57360000Y49096012D01*
X-57417007Y49128925D01*
X-57544174Y49163000D01*
X-57675826Y49163000D01*
X-57802993Y49128925D01*
X-57860000Y49096012D01*
X-57860000Y50013000D01*
X-58507828Y50013000D01*
X-58507844Y50012999D01*
X-58567372Y50006598D01*
X-58567379Y50006596D01*
X-58702086Y49956354D01*
X-58702093Y49956350D01*
X-58817187Y49870190D01*
X-58817190Y49870187D01*
X-58903350Y49755093D01*
X-58903354Y49755086D01*
X-58953596Y49620379D01*
X-58953598Y49620372D01*
X-58959999Y49560844D01*
X-58960000Y49560827D01*
X-58960000Y48913000D01*
X-58043012Y48913000D01*
X-58075925Y48855993D01*
X-58110000Y48728826D01*
X-58110000Y48597174D01*
X-58075925Y48470007D01*
X-58043012Y48413000D01*
X-58960000Y48413000D01*
X-58960000Y47765172D01*
X-58959999Y47765155D01*
X-58953598Y47705627D01*
X-58953596Y47705620D01*
X-58903354Y47570913D01*
X-58903350Y47570906D01*
X-58817190Y47455812D01*
X-58817187Y47455809D01*
X-58702093Y47369649D01*
X-58702086Y47369645D01*
X-58570529Y47320578D01*
X-58514595Y47278707D01*
X-58490178Y47213243D01*
X-58505030Y47144970D01*
X-58526178Y47116717D01*
X-58648495Y46994401D01*
X-58784035Y46800829D01*
X-58883903Y46586663D01*
X-58945063Y46358408D01*
X-58965659Y46123000D01*
X-58945063Y45887592D01*
X-58883903Y45659337D01*
X-58784035Y45445170D01*
X-58784034Y45445169D01*
X-58784032Y45445165D01*
X-58716265Y45348384D01*
X-58648495Y45251599D01*
X-58481401Y45084505D01*
X-58295842Y44954575D01*
X-58295840Y44954574D01*
X-58252216Y44899997D01*
X-58245023Y44830498D01*
X-58276545Y44768144D01*
X-58295835Y44751429D01*
X-58481401Y44621495D01*
X-58648495Y44454401D01*
X-58784035Y44260829D01*
X-58883903Y44046663D01*
X-58945063Y43818408D01*
X-58965659Y43583000D01*
X-58945063Y43347592D01*
X-58883903Y43119337D01*
X-58784035Y42905170D01*
X-58784034Y42905169D01*
X-58784032Y42905165D01*
X-58716265Y42808384D01*
X-58648495Y42711599D01*
X-58481401Y42544505D01*
X-58295842Y42414575D01*
X-58295840Y42414574D01*
X-58252216Y42359997D01*
X-58245023Y42290498D01*
X-58276545Y42228144D01*
X-58295835Y42211429D01*
X-58481401Y42081495D01*
X-58648495Y41914401D01*
X-58784035Y41720829D01*
X-58883903Y41506663D01*
X-58945063Y41278408D01*
X-58965659Y41043000D01*
X-58945063Y40807592D01*
X-58902753Y40649688D01*
X-58885354Y40584750D01*
X-58883903Y40579337D01*
X-58784035Y40365170D01*
X-58784034Y40365169D01*
X-58784032Y40365165D01*
X-58779439Y40358606D01*
X-58648495Y40171599D01*
X-58481401Y40004505D01*
X-58318634Y39890534D01*
X-58295840Y39874574D01*
X-58252216Y39819997D01*
X-58245023Y39750498D01*
X-58276545Y39688144D01*
X-58295835Y39671429D01*
X-58481401Y39541495D01*
X-58648495Y39374401D01*
X-58784035Y39180829D01*
X-58883903Y38966663D01*
X-58945063Y38738408D01*
X-58965659Y38503000D01*
X-58945063Y38267592D01*
X-58883903Y38039337D01*
X-58784035Y37825170D01*
X-58784034Y37825169D01*
X-58784032Y37825165D01*
X-58716265Y37728384D01*
X-58648495Y37631599D01*
X-58481401Y37464505D01*
X-58295842Y37334575D01*
X-58295840Y37334574D01*
X-58252216Y37279997D01*
X-58245023Y37210498D01*
X-58276545Y37148144D01*
X-58295835Y37131429D01*
X-58481401Y37001495D01*
X-58648495Y36834401D01*
X-58784035Y36640829D01*
X-58883903Y36426663D01*
X-58945063Y36198408D01*
X-58965659Y35963000D01*
X-58945063Y35727592D01*
X-58883903Y35499337D01*
X-58784035Y35285170D01*
X-58784034Y35285169D01*
X-58784032Y35285165D01*
X-58716265Y35188384D01*
X-58648495Y35091599D01*
X-58481401Y34924505D01*
X-58295842Y34794575D01*
X-58295840Y34794574D01*
X-58252216Y34739997D01*
X-58245023Y34670498D01*
X-58276545Y34608144D01*
X-58295835Y34591429D01*
X-58481401Y34461495D01*
X-58648495Y34294401D01*
X-58784035Y34100829D01*
X-58883903Y33886663D01*
X-58945063Y33658408D01*
X-58965659Y33423000D01*
X-68159500Y33423000D01*
X-68159500Y57700293D01*
X-68159382Y57705702D01*
X-68142614Y58089750D01*
X-68141671Y58100526D01*
X-68091849Y58478957D01*
X-68089971Y58489610D01*
X-68007354Y58862272D01*
X-68004554Y58872721D01*
X-67889775Y59236755D01*
X-67886075Y59246921D01*
X-67740002Y59599572D01*
X-67735430Y59609376D01*
X-67559183Y59947942D01*
X-67553775Y59957310D01*
X-67348681Y60279244D01*
X-67342476Y60288105D01*
X-67110110Y60590930D01*
X-67103156Y60599217D01*
X-66845284Y60880635D01*
X-66837635Y60888284D01*
X-66556217Y61146156D01*
X-66547930Y61153110D01*
X-66245105Y61385476D01*
X-66236244Y61391681D01*
X-65914310Y61596775D01*
X-65904942Y61602183D01*
X-65566376Y61778430D01*
X-65556572Y61783002D01*
X-65203921Y61929075D01*
X-65193755Y61932775D01*
X-64829721Y62047554D01*
X-64819272Y62050354D01*
X-64446610Y62132971D01*
X-64435957Y62134849D01*
X-64057526Y62184671D01*
X-64046750Y62185614D01*
X-63662703Y62202382D01*
X-63657294Y62202500D01*
X-63594108Y62202500D01*
X11274108Y62202500D01*
X11337294Y62202500D01*
X11342703Y62202382D01*
G37*
%TD.AperFunction*%
%TD*%
M02*
