%TF.GenerationSoftware,KiCad,Pcbnew,8.0.1*%
%TF.CreationDate,2024-08-14T10:37:23+09:00*%
%TF.ProjectId,master,6d617374-6572-42e6-9b69-6361645f7063,rev?*%
%TF.SameCoordinates,Original*%
%TF.FileFunction,Soldermask,Top*%
%TF.FilePolarity,Negative*%
%FSLAX46Y46*%
G04 Gerber Fmt 4.6, Leading zero omitted, Abs format (unit mm)*
G04 Created by KiCad (PCBNEW 8.0.1) date 2024-08-14 10:37:23*
%MOMM*%
%LPD*%
G01*
G04 APERTURE LIST*
G04 Aperture macros list*
%AMRoundRect*
0 Rectangle with rounded corners*
0 $1 Rounding radius*
0 $2 $3 $4 $5 $6 $7 $8 $9 X,Y pos of 4 corners*
0 Add a 4 corners polygon primitive as box body*
4,1,4,$2,$3,$4,$5,$6,$7,$8,$9,$2,$3,0*
0 Add four circle primitives for the rounded corners*
1,1,$1+$1,$2,$3*
1,1,$1+$1,$4,$5*
1,1,$1+$1,$6,$7*
1,1,$1+$1,$8,$9*
0 Add four rect primitives between the rounded corners*
20,1,$1+$1,$2,$3,$4,$5,0*
20,1,$1+$1,$4,$5,$6,$7,0*
20,1,$1+$1,$6,$7,$8,$9,0*
20,1,$1+$1,$8,$9,$2,$3,0*%
G04 Aperture macros list end*
%ADD10C,1.512000*%
%ADD11C,1.600000*%
%ADD12O,1.600000X1.600000*%
%ADD13RoundRect,0.218750X0.256250X-0.218750X0.256250X0.218750X-0.256250X0.218750X-0.256250X-0.218750X0*%
%ADD14RoundRect,0.218750X-0.218750X-0.256250X0.218750X-0.256250X0.218750X0.256250X-0.218750X0.256250X0*%
%ADD15RoundRect,0.225000X0.250000X-0.225000X0.250000X0.225000X-0.250000X0.225000X-0.250000X-0.225000X0*%
%ADD16O,1.400000X2.100000*%
%ADD17R,1.600000X1.600000*%
%ADD18C,1.500000*%
%ADD19RoundRect,0.225000X-0.250000X0.225000X-0.250000X-0.225000X0.250000X-0.225000X0.250000X0.225000X0*%
%ADD20R,1.700000X1.700000*%
%ADD21O,1.700000X1.700000*%
%ADD22RoundRect,0.250000X-0.750000X0.600000X-0.750000X-0.600000X0.750000X-0.600000X0.750000X0.600000X0*%
%ADD23O,2.000000X1.700000*%
%ADD24RoundRect,0.375000X0.625000X0.375000X-0.625000X0.375000X-0.625000X-0.375000X0.625000X-0.375000X0*%
%ADD25RoundRect,0.500000X0.500000X1.400000X-0.500000X1.400000X-0.500000X-1.400000X0.500000X-1.400000X0*%
G04 APERTURE END LIST*
D10*
%TO.C,Teensy 4.1*%
X4060000Y55753000D03*
X1520000Y55753000D03*
X-1020000Y55753000D03*
X-3560000Y55753000D03*
X-28960000Y55753000D03*
X1520000Y40513000D03*
X-6100000Y55753000D03*
X-8640000Y55753000D03*
X-11180000Y55753000D03*
X-13720000Y55753000D03*
X-16260000Y55753000D03*
X-18800000Y55753000D03*
X-21340000Y55753000D03*
X-23880000Y55753000D03*
X-26420000Y55753000D03*
X-26420000Y40513000D03*
X-23880000Y40513000D03*
X-21340000Y40513000D03*
X-18800000Y40513000D03*
X-16260000Y40513000D03*
X-13720000Y40513000D03*
X-11180000Y40513000D03*
X-8640000Y40513000D03*
X-6100000Y40513000D03*
X-3560000Y40513000D03*
X-1020000Y40513000D03*
X-31500000Y55753000D03*
X-34040000Y55753000D03*
X-36580000Y55753000D03*
X-39120000Y55753000D03*
X-41660000Y55753000D03*
X-44200000Y55753000D03*
X-46740000Y55753000D03*
X-49280000Y55753000D03*
X-51820000Y55753000D03*
X-51820000Y40513000D03*
X-49280000Y40513000D03*
X-46740000Y40513000D03*
X-44200000Y40513000D03*
X-41660000Y40513000D03*
X-39120000Y40513000D03*
X-36580000Y40513000D03*
X-34040000Y40513000D03*
X-31500000Y40513000D03*
X6600000Y55753000D03*
X-28960000Y40513000D03*
X4060000Y40513000D03*
X6600000Y40513000D03*
%TD*%
D11*
%TO.C,R2*%
X-10310000Y-6000000D03*
D12*
X-2690000Y-6000000D03*
%TD*%
D13*
%TO.C,Power*%
X-53660000Y-7434500D03*
X-53660000Y-5859500D03*
%TD*%
D14*
%TO.C,15/DIO12/DI1*%
X-7287500Y-9500000D03*
X-5712500Y-9500000D03*
%TD*%
D15*
%TO.C,C2*%
X-12580000Y27933000D03*
X-12580000Y29483000D03*
%TD*%
D11*
%TO.C,R7*%
X-10310000Y4000000D03*
D12*
X-2690000Y4000000D03*
%TD*%
D16*
%TO.C,Reset*%
X-43860000Y4253000D03*
X-37360000Y4253000D03*
%TD*%
D11*
%TO.C,R4*%
X3810000Y34000000D03*
D12*
X-3810000Y34000000D03*
%TD*%
D11*
%TO.C,R3*%
X2690000Y-6000000D03*
D12*
X10310000Y-6000000D03*
%TD*%
D17*
%TO.C,TWELITE DIP*%
X-30570000Y27933000D03*
D12*
X-30570000Y25393000D03*
X-30570000Y22853000D03*
X-30570000Y20313000D03*
X-30570000Y17773000D03*
X-30570000Y15233000D03*
X-30570000Y12693000D03*
X-30570000Y10153000D03*
X-30570000Y7613000D03*
X-30570000Y5073000D03*
X-30570000Y2533000D03*
X-30570000Y-7000D03*
X-30570000Y-2547000D03*
X-30570000Y-5087000D03*
X-15330000Y-5087000D03*
X-15330000Y-2547000D03*
X-15330000Y-7000D03*
X-15330000Y2533000D03*
X-15330000Y5073000D03*
X-15330000Y7613000D03*
X-15330000Y10153000D03*
X-15330000Y12693000D03*
X-15330000Y15233000D03*
X-15330000Y17773000D03*
X-15330000Y20313000D03*
X-15330000Y22853000D03*
X-15330000Y25393000D03*
X-15330000Y27933000D03*
%TD*%
D18*
%TO.C,25/DIO1/AI4*%
X4000000Y0D03*
X6500000Y0D03*
X9000000Y0D03*
%TD*%
D11*
%TO.C,R1*%
X-53660000Y4413000D03*
D12*
X-53660000Y-3207000D03*
%TD*%
D19*
%TO.C,C3*%
X-40330000Y10208000D03*
X-40330000Y8658000D03*
%TD*%
D11*
%TO.C,R5*%
X3810000Y37000000D03*
D12*
X-3810000Y37000000D03*
%TD*%
D20*
%TO.C,GND>*%
X-57610000Y48663000D03*
D21*
X-57610000Y46123000D03*
X-57610000Y43583000D03*
X-57610000Y41043000D03*
X-57610000Y38503000D03*
X-57610000Y35963000D03*
X-57610000Y33423000D03*
%TD*%
D20*
%TO.C,Display*%
X-3810000Y27500000D03*
D21*
X-1270000Y27500000D03*
X1270000Y27500000D03*
X3810000Y27500000D03*
%TD*%
D11*
%TO.C,R8*%
X2690000Y4000000D03*
D12*
X10310000Y4000000D03*
%TD*%
D15*
%TO.C,C1*%
X-40330000Y19658000D03*
X-40330000Y21208000D03*
%TD*%
D22*
%TO.C,Vin*%
X-54360000Y12003000D03*
D23*
X-54360000Y9503000D03*
%TD*%
D14*
%TO.C,16/DIO13/DI2*%
X5712500Y-9500000D03*
X7287500Y-9500000D03*
%TD*%
D24*
%TO.C,3.3V*%
X-37360000Y12553000D03*
X-37360000Y14853000D03*
D25*
X-43660000Y14853000D03*
D24*
X-37360000Y17153000D03*
%TD*%
D18*
%TO.C,23/DIO0/AI2*%
X-9000000Y0D03*
X-6500000Y0D03*
X-4000000Y0D03*
%TD*%
D11*
%TO.C,R6*%
X-50160000Y4413000D03*
D12*
X-50160000Y-3207000D03*
%TD*%
M02*
