M48
; DRILL file {KiCad 8.0.1} date 2024-08-14T10:37:23+0900
; FORMAT={-:-/ absolute / inch / decimal}
; #@! TF.CreationDate,2024-08-14T10:37:23+09:00
; #@! TF.GenerationSoftware,Kicad,Pcbnew,8.0.1
; #@! TF.FileFunction,Plated,1,2,PTH
FMAT,2
INCH
; #@! TA.AperFunction,Plated,PTH,ViaDrill
T1C0.0276
; #@! TA.AperFunction,Plated,PTH,ComponentDrill
T2C0.0315
; #@! TA.AperFunction,Plated,PTH,ComponentDrill
T3C0.0394
%
G90
G05
T1
X-1.3673Y0.7694
T2
X-2.1126Y0.1737
X-2.1126Y-0.1263
X-2.0402Y2.195
X-2.0402Y1.595
X-1.9748Y0.1737
X-1.9748Y-0.1263
X-1.9402Y2.195
X-1.9402Y1.595
X-1.8402Y2.195
X-1.8402Y1.595
X-1.7402Y2.195
X-1.7402Y1.595
X-1.6402Y2.195
X-1.6402Y1.595
X-1.5402Y2.195
X-1.5402Y1.595
X-1.4402Y2.195
X-1.4402Y1.595
X-1.3402Y2.195
X-1.3402Y1.595
X-1.2402Y2.195
X-1.2402Y1.595
X-1.2035Y1.0997
X-1.2035Y0.9997
X-1.2035Y0.8997
X-1.2035Y0.7997
X-1.2035Y0.6997
X-1.2035Y0.5997
X-1.2035Y0.4997
X-1.2035Y0.3997
X-1.2035Y0.2997
X-1.2035Y0.1997
X-1.2035Y0.0997
X-1.2035Y-0.0003
X-1.2035Y-0.1003
X-1.2035Y-0.2003
X-1.1402Y2.195
X-1.1402Y1.595
X-1.0402Y2.195
X-1.0402Y1.595
X-0.9402Y2.195
X-0.9402Y1.595
X-0.8402Y2.195
X-0.8402Y1.595
X-0.7402Y2.195
X-0.7402Y1.595
X-0.6402Y2.195
X-0.6402Y1.595
X-0.6035Y1.0997
X-0.6035Y0.9997
X-0.6035Y0.8997
X-0.6035Y0.7997
X-0.6035Y0.6997
X-0.6035Y0.5997
X-0.6035Y0.4997
X-0.6035Y0.3997
X-0.6035Y0.2997
X-0.6035Y0.1997
X-0.6035Y0.0997
X-0.6035Y-0.0003
X-0.6035Y-0.1003
X-0.6035Y-0.2003
X-0.5402Y2.195
X-0.5402Y1.595
X-0.4402Y2.195
X-0.4402Y1.595
X-0.4059Y0.1575
X-0.4059Y-0.2362
X-0.3543Y0.0
X-0.3402Y2.195
X-0.3402Y1.595
X-0.2559Y0.0
X-0.2402Y2.195
X-0.2402Y1.595
X-0.1575Y0.0
X-0.15Y1.4567
X-0.15Y1.3386
X-0.1402Y2.195
X-0.1402Y1.595
X-0.1059Y0.1575
X-0.1059Y-0.2362
X-0.0402Y2.195
X-0.0402Y1.595
X0.0598Y2.195
X0.0598Y1.595
X0.1059Y0.1575
X0.1059Y-0.2362
X0.15Y1.4567
X0.15Y1.3386
X0.1575Y0.0
X0.1598Y2.195
X0.1598Y1.595
X0.2559Y0.0
X0.2598Y2.195
X0.2598Y1.595
X0.3543Y0.0
X0.4059Y0.1575
X0.4059Y-0.2362
T3
X-2.2681Y1.9159
X-2.2681Y1.8159
X-2.2681Y1.7159
X-2.2681Y1.6159
X-2.2681Y1.5159
X-2.2681Y1.4159
X-2.2681Y1.3159
X-2.1402Y0.4726
X-2.1402Y0.3741
X-0.15Y1.0827
X-0.05Y1.0827
X0.05Y1.0827
X0.15Y1.0827
T2
G00X-1.7268Y0.1812
M15
G01X-1.7268Y0.1537
M16
G05
G00X-1.4709Y0.1812
M15
G01X-1.4709Y0.1537
M16
G05
M30
