<?xml version="1.0" standalone="no"?>
<!DOCTYPE svg PUBLIC "-//W3C//DTD SVG 20010904//EN"
 "http://www.w3.org/TR/2001/REC-SVG-20010904/DTD/svg10.dtd">
<svg version="1.0" xmlns="http://www.w3.org/2000/svg"
 width="600.000000pt" height="600.000000pt" viewBox="0 0 600.000000 600.000000"
 preserveAspectRatio="xMidYMid meet">

<g transform="translate(0.000000,600.000000) scale(0.100000,-0.100000)"
fill="#000000" stroke="none">
<path d="M602 5450 c-18 -11 -41 -34 -52 -52 -19 -32 -20 -52 -20 -450 0 -396
1 -419 20 -450 10 -18 34 -42 52 -53 32 -19 51 -20 448 -20 399 0 416 1 450
20 19 12 43 36 55 55 19 34 20 51 20 450 0 397 -1 416 -20 448 -11 18 -35 42
-53 52 -31 19 -54 20 -450 20 -398 0 -418 -1 -450 -20z m757 -154 c65 -42 71
-70 71 -349 0 -232 -1 -245 -22 -287 -17 -33 -35 -51 -68 -67 -42 -22 -55 -23
-287 -23 -279 0 -307 6 -349 71 -24 38 -24 40 -24 306 0 250 1 270 20 301 11
18 34 41 52 52 31 19 51 20 301 20 266 0 268 0 306 -24z"/>
<path d="M902 5150 c-60 -37 -72 -70 -72 -202 0 -132 12 -167 72 -203 28 -17
51 -20 148 -20 98 0 120 3 150 20 61 37 75 74 75 205 0 97 -3 120 -20 148 -36
60 -71 72 -203 72 -99 0 -122 -3 -150 -20z"/>
<path d="M4502 5450 c-18 -11 -41 -34 -52 -52 -19 -32 -20 -52 -20 -450 0
-396 1 -419 20 -450 10 -18 34 -42 52 -53 32 -19 51 -20 448 -20 399 0 416 1
450 20 19 12 43 36 55 55 19 34 20 51 20 450 0 397 -1 416 -20 448 -11 18 -35
42 -53 52 -31 19 -54 20 -450 20 -398 0 -418 -1 -450 -20z m757 -154 c65 -42
71 -70 71 -349 0 -232 -1 -245 -22 -287 -17 -33 -35 -51 -68 -67 -42 -22 -55
-23 -287 -23 -279 0 -307 6 -349 71 -24 38 -24 40 -24 306 0 250 1 270 20 301
11 18 34 41 52 52 31 19 51 20 301 20 266 0 268 0 306 -24z"/>
<path d="M4802 5150 c-60 -37 -72 -70 -72 -202 0 -132 12 -167 72 -203 28 -17
51 -20 148 -20 98 0 120 3 150 20 61 37 75 74 75 205 0 97 -3 120 -20 148 -36
60 -71 72 -203 72 -99 0 -122 -3 -150 -20z"/>
<path d="M1907 5442 c-33 -36 -16 -92 33 -107 39 -12 87 36 75 75 -16 50 -76
67 -108 32z"/>
<path d="M2507 5442 c-21 -23 -22 -66 -2 -86 35 -34 83 -28 105 15 32 59 -58
121 -103 71z"/>
<path d="M2957 5442 c-21 -23 -22 -66 -2 -86 35 -34 83 -28 105 15 32 59 -58
121 -103 71z"/>
<path d="M3257 5442 c-21 -23 -22 -66 -2 -86 35 -34 83 -28 105 15 32 59 -58
121 -103 71z"/>
<path d="M3407 5442 c-21 -23 -22 -66 -2 -86 35 -34 83 -28 105 15 32 59 -58
121 -103 71z"/>
<path d="M3557 5442 c-21 -23 -22 -66 -2 -86 35 -34 83 -28 105 15 32 59 -58
121 -103 71z"/>
<path d="M3707 5442 c-21 -23 -22 -66 -2 -86 35 -34 83 -28 105 15 32 59 -58
121 -103 71z"/>
<path d="M4007 5442 c-21 -23 -22 -66 -2 -86 35 -34 83 -28 105 15 32 59 -58
121 -103 71z"/>
<path d="M1757 5292 c-33 -36 -16 -92 33 -107 39 -12 87 36 75 75 -16 50 -76
67 -108 32z"/>
<path d="M1907 5292 c-33 -36 -16 -92 33 -107 39 -12 87 36 75 75 -16 50 -76
67 -108 32z"/>
<path d="M2207 5292 c-33 -36 -16 -92 33 -107 39 -12 87 36 75 75 -16 50 -76
67 -108 32z"/>
<path d="M2357 5292 c-33 -36 -16 -92 33 -107 39 -12 87 36 75 75 -16 50 -76
67 -108 32z"/>
<path d="M2657 5292 c-21 -23 -22 -66 -2 -86 35 -34 83 -28 105 15 32 59 -58
121 -103 71z"/>
<path d="M2807 5292 c-21 -23 -22 -66 -2 -86 35 -34 83 -28 105 15 32 59 -58
121 -103 71z"/>
<path d="M2957 5292 c-21 -23 -22 -66 -2 -86 35 -34 83 -28 105 15 32 59 -58
121 -103 71z"/>
<path d="M3557 5292 c-21 -23 -22 -66 -2 -86 35 -34 83 -28 105 15 32 59 -58
121 -103 71z"/>
<path d="M3707 5292 c-21 -23 -22 -66 -2 -86 35 -34 83 -28 105 15 32 59 -58
121 -103 71z"/>
<path d="M3857 5292 c-21 -23 -22 -66 -2 -86 35 -34 83 -28 105 15 32 59 -58
121 -103 71z"/>
<path d="M4157 5292 c-21 -23 -22 -66 -2 -86 35 -34 83 -28 105 15 32 59 -58
121 -103 71z"/>
<path d="M1907 5142 c-33 -36 -16 -92 33 -107 39 -12 87 36 75 75 -16 50 -76
67 -108 32z"/>
<path d="M2057 5142 c-33 -36 -16 -92 33 -107 39 -12 87 36 75 75 -16 50 -76
67 -108 32z"/>
<path d="M2207 5142 c-33 -36 -16 -92 33 -107 39 -12 87 36 75 75 -16 50 -76
67 -108 32z"/>
<path d="M2807 5142 c-21 -23 -22 -66 -2 -86 35 -34 83 -28 105 15 32 59 -58
121 -103 71z"/>
<path d="M2957 5142 c-21 -23 -22 -66 -2 -86 35 -34 83 -28 105 15 32 59 -58
121 -103 71z"/>
<path d="M3557 5142 c-21 -23 -22 -66 -2 -86 35 -34 83 -28 105 15 32 59 -58
121 -103 71z"/>
<path d="M3707 5142 c-21 -23 -22 -66 -2 -86 35 -34 83 -28 105 15 32 59 -58
121 -103 71z"/>
<path d="M3857 5142 c-21 -23 -22 -66 -2 -86 35 -34 83 -28 105 15 32 59 -58
121 -103 71z"/>
<path d="M4157 5142 c-21 -23 -22 -66 -2 -86 35 -34 83 -28 105 15 32 59 -58
121 -103 71z"/>
<path d="M1757 4992 c-33 -36 -16 -92 33 -107 39 -12 87 36 75 75 -16 50 -76
67 -108 32z"/>
<path d="M1907 4992 c-33 -36 -16 -92 33 -107 39 -12 87 36 75 75 -16 50 -76
67 -108 32z"/>
<path d="M2207 4992 c-33 -36 -16 -92 33 -107 39 -12 87 36 75 75 -16 50 -76
67 -108 32z"/>
<path d="M3107 4992 c-21 -23 -22 -66 -2 -86 35 -34 83 -28 105 15 32 59 -58
121 -103 71z"/>
<path d="M3257 4992 c-21 -23 -22 -66 -2 -86 35 -34 83 -28 105 15 32 59 -58
121 -103 71z"/>
<path d="M3557 4992 c-21 -23 -22 -66 -2 -86 35 -34 83 -28 105 15 32 59 -58
121 -103 71z"/>
<path d="M3857 4992 c-21 -23 -22 -66 -2 -86 35 -34 83 -28 105 15 32 59 -58
121 -103 71z"/>
<path d="M4007 4992 c-21 -23 -22 -66 -2 -86 35 -34 83 -28 105 15 32 59 -58
121 -103 71z"/>
<path d="M4157 4992 c-21 -23 -22 -66 -2 -86 35 -34 83 -28 105 15 32 59 -58
121 -103 71z"/>
<path d="M2057 4842 c-33 -36 -16 -92 33 -107 39 -12 87 36 75 75 -16 50 -76
67 -108 32z"/>
<path d="M2357 4842 c-33 -36 -16 -92 33 -107 39 -12 87 36 75 75 -16 50 -76
67 -108 32z"/>
<path d="M2507 4842 c-33 -36 -16 -92 33 -107 39 -12 87 36 75 75 -16 50 -76
67 -108 32z"/>
<path d="M2957 4842 c-21 -23 -22 -66 -2 -86 35 -34 83 -28 105 15 32 59 -58
121 -103 71z"/>
<path d="M3107 4842 c-21 -23 -22 -66 -2 -86 35 -34 83 -28 105 15 32 59 -58
121 -103 71z"/>
<path d="M3257 4842 c-21 -23 -22 -66 -2 -86 35 -34 83 -28 105 15 32 59 -58
121 -103 71z"/>
<path d="M3407 4842 c-21 -23 -22 -66 -2 -86 35 -34 83 -28 105 15 32 59 -58
121 -103 71z"/>
<path d="M3557 4842 c-21 -23 -22 -66 -2 -86 35 -34 83 -28 105 15 32 59 -58
121 -103 71z"/>
<path d="M3707 4842 c-21 -23 -22 -66 -2 -86 35 -34 83 -28 105 15 32 59 -58
121 -103 71z"/>
<path d="M4007 4842 c-21 -23 -22 -66 -2 -86 35 -34 83 -28 105 15 32 59 -58
121 -103 71z"/>
<path d="M1757 4692 c-33 -36 -16 -92 33 -107 39 -12 87 36 75 75 -16 50 -76
67 -108 32z"/>
<path d="M2057 4692 c-33 -36 -16 -92 33 -107 39 -12 87 36 75 75 -16 50 -76
67 -108 32z"/>
<path d="M2507 4692 c-33 -36 -16 -92 33 -107 39 -12 87 36 75 75 -16 50 -76
67 -108 32z"/>
<path d="M2657 4692 c-21 -23 -22 -66 -2 -86 35 -34 83 -28 105 15 32 59 -58
121 -103 71z"/>
<path d="M2807 4692 c-21 -23 -22 -66 -2 -86 35 -34 83 -28 105 15 32 59 -58
121 -103 71z"/>
<path d="M3707 4692 c-21 -23 -22 -66 -2 -86 35 -34 83 -28 105 15 32 59 -58
121 -103 71z"/>
<path d="M3857 4692 c-21 -23 -22 -66 -2 -86 35 -34 83 -28 105 15 32 59 -58
121 -103 71z"/>
<path d="M1757 4542 c-33 -36 -16 -92 33 -107 39 -12 87 36 75 75 -16 50 -76
67 -108 32z"/>
<path d="M2057 4542 c-33 -36 -16 -92 33 -107 39 -12 87 36 75 75 -16 50 -76
67 -108 32z"/>
<path d="M2357 4542 c-33 -36 -16 -92 33 -107 39 -12 87 36 75 75 -16 50 -76
67 -108 32z"/>
<path d="M2657 4542 c-21 -23 -22 -66 -2 -86 35 -34 83 -28 105 15 32 59 -58
121 -103 71z"/>
<path d="M2957 4542 c-21 -23 -22 -66 -2 -86 35 -34 83 -28 105 15 32 59 -58
121 -103 71z"/>
<path d="M3257 4542 c-21 -23 -22 -66 -2 -86 35 -34 83 -28 105 15 32 59 -58
121 -103 71z"/>
<path d="M3557 4542 c-21 -23 -22 -66 -2 -86 35 -34 83 -28 105 15 32 59 -58
121 -103 71z"/>
<path d="M3857 4542 c-21 -23 -22 -66 -2 -86 35 -34 83 -28 105 15 32 59 -58
121 -103 71z"/>
<path d="M4157 4542 c-21 -23 -22 -66 -2 -86 35 -34 83 -28 105 15 32 59 -58
121 -103 71z"/>
<path d="M2357 4392 c-33 -36 -16 -92 33 -107 39 -12 87 36 75 75 -16 50 -76
67 -108 32z"/>
<path d="M2507 4392 c-33 -36 -16 -92 33 -107 39 -12 87 36 75 75 -16 50 -76
67 -108 32z"/>
<path d="M2807 4392 c-21 -23 -22 -66 -2 -86 35 -34 83 -28 105 15 32 59 -58
121 -103 71z"/>
<path d="M2957 4392 c-21 -23 -22 -66 -2 -86 35 -34 83 -28 105 15 32 59 -58
121 -103 71z"/>
<path d="M3557 4392 c-21 -23 -22 -66 -2 -86 35 -34 83 -28 105 15 32 59 -58
121 -103 71z"/>
<path d="M3707 4392 c-21 -23 -22 -66 -2 -86 35 -34 83 -28 105 15 32 59 -58
121 -103 71z"/>
<path d="M3857 4392 c-21 -23 -22 -66 -2 -86 35 -34 83 -28 105 15 32 59 -58
121 -103 71z"/>
<path d="M4007 4392 c-21 -23 -22 -66 -2 -86 35 -34 83 -28 105 15 32 59 -58
121 -103 71z"/>
<path d="M4157 4392 c-21 -23 -22 -66 -2 -86 35 -34 83 -28 105 15 32 59 -58
121 -103 71z"/>
<path d="M557 4242 c-33 -36 -16 -92 33 -107 39 -12 87 36 75 75 -16 50 -76
67 -108 32z"/>
<path d="M707 4242 c-33 -36 -16 -92 33 -107 39 -12 87 36 75 75 -16 50 -76
67 -108 32z"/>
<path d="M857 4242 c-33 -36 -16 -92 33 -107 39 -12 87 36 75 75 -16 50 -76
67 -108 32z"/>
<path d="M1007 4242 c-33 -36 -16 -92 33 -107 39 -12 87 36 75 75 -16 50 -76
67 -108 32z"/>
<path d="M1157 4242 c-33 -36 -16 -92 33 -107 39 -12 87 36 75 75 -16 50 -76
67 -108 32z"/>
<path d="M1457 4242 c-33 -36 -16 -92 33 -107 39 -12 87 36 75 75 -16 50 -76
67 -108 32z"/>
<path d="M1607 4242 c-33 -36 -16 -92 33 -107 39 -12 87 36 75 75 -16 50 -76
67 -108 32z"/>
<path d="M1757 4242 c-33 -36 -16 -92 33 -107 39 -12 87 36 75 75 -16 50 -76
67 -108 32z"/>
<path d="M1907 4242 c-33 -36 -16 -92 33 -107 39 -12 87 36 75 75 -16 50 -76
67 -108 32z"/>
<path d="M2057 4242 c-33 -36 -16 -92 33 -107 39 -12 87 36 75 75 -16 50 -76
67 -108 32z"/>
<path d="M2357 4242 c-33 -36 -16 -92 33 -107 39 -12 87 36 75 75 -16 50 -76
67 -108 32z"/>
<path d="M2657 4242 c-21 -23 -22 -66 -2 -86 35 -34 83 -28 105 15 32 59 -58
121 -103 71z"/>
<path d="M2807 4242 c-21 -23 -22 -66 -2 -86 35 -34 83 -28 105 15 32 59 -58
121 -103 71z"/>
<path d="M2957 4242 c-21 -23 -22 -66 -2 -86 35 -34 83 -28 105 15 32 59 -58
121 -103 71z"/>
<path d="M3107 4242 c-21 -23 -22 -66 -2 -86 35 -34 83 -28 105 15 32 59 -58
121 -103 71z"/>
<path d="M3407 4242 c-21 -23 -22 -66 -2 -86 35 -34 83 -28 105 15 32 59 -58
121 -103 71z"/>
<path d="M3857 4242 c-21 -23 -22 -66 -2 -86 35 -34 83 -28 105 15 32 59 -58
121 -103 71z"/>
<path d="M4307 4242 c-21 -23 -22 -66 -2 -86 35 -34 83 -28 105 15 32 59 -58
121 -103 71z"/>
<path d="M4607 4242 c-21 -23 -22 -66 -2 -86 35 -34 83 -28 105 15 32 59 -58
121 -103 71z"/>
<path d="M4907 4242 c-21 -23 -22 -66 -2 -86 35 -34 83 -28 105 15 32 59 -58
121 -103 71z"/>
<path d="M5207 4242 c-21 -23 -22 -66 -2 -86 35 -34 83 -28 105 15 32 59 -58
121 -103 71z"/>
<path d="M707 4092 c-33 -36 -16 -92 33 -107 39 -12 87 36 75 75 -16 50 -76
67 -108 32z"/>
<path d="M1007 4092 c-33 -36 -16 -92 33 -107 39 -12 87 36 75 75 -16 50 -76
67 -108 32z"/>
<path d="M1757 4092 c-33 -36 -16 -92 33 -107 39 -12 87 36 75 75 -16 50 -76
67 -108 32z"/>
<path d="M1907 4092 c-33 -36 -16 -92 33 -107 39 -12 87 36 75 75 -16 50 -76
67 -108 32z"/>
<path d="M2957 4092 c-21 -23 -22 -66 -2 -86 35 -34 83 -28 105 15 32 59 -58
121 -103 71z"/>
<path d="M3407 4092 c-21 -23 -22 -66 -2 -86 35 -34 83 -28 105 15 32 59 -58
121 -103 71z"/>
<path d="M3557 4092 c-21 -23 -22 -66 -2 -86 35 -34 83 -28 105 15 32 59 -58
121 -103 71z"/>
<path d="M3707 4092 c-21 -23 -22 -66 -2 -86 35 -34 83 -28 105 15 32 59 -58
121 -103 71z"/>
<path d="M3857 4092 c-21 -23 -22 -66 -2 -86 35 -34 83 -28 105 15 32 59 -58
121 -103 71z"/>
<path d="M4007 4092 c-21 -23 -22 -66 -2 -86 35 -34 83 -28 105 15 32 59 -58
121 -103 71z"/>
<path d="M4457 4092 c-21 -23 -22 -66 -2 -86 35 -34 83 -28 105 15 32 59 -58
121 -103 71z"/>
<path d="M4607 4092 c-21 -23 -22 -66 -2 -86 35 -34 83 -28 105 15 32 59 -58
121 -103 71z"/>
<path d="M5057 4092 c-21 -23 -22 -66 -2 -86 35 -34 83 -28 105 15 32 59 -58
121 -103 71z"/>
<path d="M5207 4092 c-21 -23 -22 -66 -2 -86 35 -34 83 -28 105 15 32 59 -58
121 -103 71z"/>
<path d="M5357 4092 c-21 -23 -22 -66 -2 -86 35 -34 83 -28 105 15 32 59 -58
121 -103 71z"/>
<path d="M557 3942 c-33 -36 -16 -92 33 -107 39 -12 87 36 75 75 -16 50 -76
67 -108 32z"/>
<path d="M1007 3942 c-33 -36 -16 -92 33 -107 39 -12 87 36 75 75 -16 50 -76
67 -108 32z"/>
<path d="M1157 3942 c-33 -36 -16 -92 33 -107 39 -12 87 36 75 75 -16 50 -76
67 -108 32z"/>
<path d="M1457 3942 c-33 -36 -16 -92 33 -107 39 -12 87 36 75 75 -16 50 -76
67 -108 32z"/>
<path d="M1757 3942 c-33 -36 -16 -92 33 -107 39 -12 87 36 75 75 -16 50 -76
67 -108 32z"/>
<path d="M1907 3942 c-33 -36 -16 -92 33 -107 39 -12 87 36 75 75 -16 50 -76
67 -108 32z"/>
<path d="M2207 3942 c-33 -36 -16 -92 33 -107 39 -12 87 36 75 75 -16 50 -76
67 -108 32z"/>
<path d="M2357 3942 c-33 -36 -16 -92 33 -107 39 -12 87 36 75 75 -16 50 -76
67 -108 32z"/>
<path d="M2807 3942 c-21 -23 -22 -66 -2 -86 35 -34 83 -28 105 15 32 59 -58
121 -103 71z"/>
<path d="M3107 3942 c-21 -23 -22 -66 -2 -86 35 -34 83 -28 105 15 32 59 -58
121 -103 71z"/>
<path d="M3257 3942 c-21 -23 -22 -66 -2 -86 35 -34 83 -28 105 15 32 59 -58
121 -103 71z"/>
<path d="M3707 3942 c-21 -23 -22 -66 -2 -86 35 -34 83 -28 105 15 32 59 -58
121 -103 71z"/>
<path d="M3857 3942 c-21 -23 -22 -66 -2 -86 35 -34 83 -28 105 15 32 59 -58
121 -103 71z"/>
<path d="M4307 3942 c-21 -23 -22 -66 -2 -86 35 -34 83 -28 105 15 32 59 -58
121 -103 71z"/>
<path d="M4457 3942 c-21 -23 -22 -66 -2 -86 35 -34 83 -28 105 15 32 59 -58
121 -103 71z"/>
<path d="M4907 3942 c-21 -23 -22 -66 -2 -86 35 -34 83 -28 105 15 32 59 -58
121 -103 71z"/>
<path d="M5207 3942 c-21 -23 -22 -66 -2 -86 35 -34 83 -28 105 15 32 59 -58
121 -103 71z"/>
<path d="M557 3792 c-33 -36 -16 -92 33 -107 39 -12 87 36 75 75 -16 50 -76
67 -108 32z"/>
<path d="M857 3792 c-33 -36 -16 -92 33 -107 39 -12 87 36 75 75 -16 50 -76
67 -108 32z"/>
<path d="M1157 3792 c-33 -36 -16 -92 33 -107 39 -12 87 36 75 75 -16 50 -76
67 -108 32z"/>
<path d="M1757 3792 c-33 -36 -16 -92 33 -107 39 -12 87 36 75 75 -16 50 -76
67 -108 32z"/>
<path d="M1907 3792 c-33 -36 -16 -92 33 -107 39 -12 87 36 75 75 -16 50 -76
67 -108 32z"/>
<path d="M2057 3792 c-33 -36 -16 -92 33 -107 39 -12 87 36 75 75 -16 50 -76
67 -108 32z"/>
<path d="M2207 3792 c-33 -36 -16 -92 33 -107 39 -12 87 36 75 75 -16 50 -76
67 -108 32z"/>
<path d="M2657 3792 c-21 -23 -22 -66 -2 -86 35 -34 83 -28 105 15 32 59 -58
121 -103 71z"/>
<path d="M2807 3792 c-21 -23 -22 -66 -2 -86 35 -34 83 -28 105 15 32 59 -58
121 -103 71z"/>
<path d="M3257 3792 c-21 -23 -22 -66 -2 -86 35 -34 83 -28 105 15 32 59 -58
121 -103 71z"/>
<path d="M3407 3792 c-21 -23 -22 -66 -2 -86 35 -34 83 -28 105 15 32 59 -58
121 -103 71z"/>
<path d="M3707 3792 c-21 -23 -22 -66 -2 -86 35 -34 83 -28 105 15 32 59 -58
121 -103 71z"/>
<path d="M4457 3792 c-21 -23 -22 -66 -2 -86 35 -34 83 -28 105 15 32 59 -58
121 -103 71z"/>
<path d="M5057 3792 c-21 -23 -22 -66 -2 -86 35 -34 83 -28 105 15 32 59 -58
121 -103 71z"/>
<path d="M557 3642 c-33 -36 -16 -92 33 -107 39 -12 87 36 75 75 -16 50 -76
67 -108 32z"/>
<path d="M707 3642 c-33 -36 -16 -92 33 -107 39 -12 87 36 75 75 -16 50 -76
67 -108 32z"/>
<path d="M857 3642 c-33 -36 -16 -92 33 -107 39 -12 87 36 75 75 -16 50 -76
67 -108 32z"/>
<path d="M1007 3642 c-33 -36 -16 -92 33 -107 39 -12 87 36 75 75 -16 50 -76
67 -108 32z"/>
<path d="M1157 3642 c-33 -36 -16 -92 33 -107 39 -12 87 36 75 75 -16 50 -76
67 -108 32z"/>
<path d="M1457 3642 c-33 -36 -16 -92 33 -107 39 -12 87 36 75 75 -16 50 -76
67 -108 32z"/>
<path d="M1907 3642 c-33 -36 -16 -92 33 -107 39 -12 87 36 75 75 -16 50 -76
67 -108 32z"/>
<path d="M2207 3642 c-33 -36 -16 -92 33 -107 39 -12 87 36 75 75 -16 50 -76
67 -108 32z"/>
<path d="M3107 3642 c-21 -23 -22 -66 -2 -86 35 -34 83 -28 105 15 32 59 -58
121 -103 71z"/>
<path d="M3857 3642 c-21 -23 -22 -66 -2 -86 35 -34 83 -28 105 15 32 59 -58
121 -103 71z"/>
<path d="M4007 3642 c-21 -23 -22 -66 -2 -86 35 -34 83 -28 105 15 32 59 -58
121 -103 71z"/>
<path d="M4157 3642 c-21 -23 -22 -66 -2 -86 35 -34 83 -28 105 15 32 59 -58
121 -103 71z"/>
<path d="M4307 3642 c-21 -23 -22 -66 -2 -86 35 -34 83 -28 105 15 32 59 -58
121 -103 71z"/>
<path d="M4607 3642 c-21 -23 -22 -66 -2 -86 35 -34 83 -28 105 15 32 59 -58
121 -103 71z"/>
<path d="M4757 3642 c-21 -23 -22 -66 -2 -86 35 -34 83 -28 105 15 32 59 -58
121 -103 71z"/>
<path d="M4907 3642 c-21 -23 -22 -66 -2 -86 35 -34 83 -28 105 15 32 59 -58
121 -103 71z"/>
<path d="M857 3492 c-33 -36 -16 -92 33 -107 39 -12 87 36 75 75 -16 50 -76
67 -108 32z"/>
<path d="M1007 3492 c-33 -36 -16 -92 33 -107 39 -12 87 36 75 75 -16 50 -76
67 -108 32z"/>
<path d="M1307 3492 c-33 -36 -16 -92 33 -107 39 -12 87 36 75 75 -16 50 -76
67 -108 32z"/>
<path d="M1607 3492 c-33 -36 -16 -92 33 -107 39 -12 87 36 75 75 -16 50 -76
67 -108 32z"/>
<path d="M1757 3492 c-33 -36 -16 -92 33 -107 39 -12 87 36 75 75 -16 50 -76
67 -108 32z"/>
<path d="M1907 3492 c-33 -36 -16 -92 33 -107 39 -12 87 36 75 75 -16 50 -76
67 -108 32z"/>
<path d="M2057 3492 c-33 -36 -16 -92 33 -107 39 -12 87 36 75 75 -16 50 -76
67 -108 32z"/>
<path d="M2357 3492 c-33 -36 -16 -92 33 -107 39 -12 87 36 75 75 -16 50 -76
67 -108 32z"/>
<path d="M2507 3492 c-33 -36 -16 -92 33 -107 39 -12 87 36 75 75 -16 50 -76
67 -108 32z"/>
<path d="M2657 3492 c-21 -23 -22 -66 -2 -86 35 -34 83 -28 105 15 32 59 -58
121 -103 71z"/>
<path d="M2957 3492 c-21 -23 -22 -66 -2 -86 35 -34 83 -28 105 15 32 59 -58
121 -103 71z"/>
<path d="M3257 3492 c-21 -23 -22 -66 -2 -86 35 -34 83 -28 105 15 32 59 -58
121 -103 71z"/>
<path d="M3407 3492 c-21 -23 -22 -66 -2 -86 35 -34 83 -28 105 15 32 59 -58
121 -103 71z"/>
<path d="M3557 3492 c-21 -23 -22 -66 -2 -86 35 -34 83 -28 105 15 32 59 -58
121 -103 71z"/>
<path d="M3707 3492 c-21 -23 -22 -66 -2 -86 35 -34 83 -28 105 15 32 59 -58
121 -103 71z"/>
<path d="M3857 3492 c-21 -23 -22 -66 -2 -86 35 -34 83 -28 105 15 32 59 -58
121 -103 71z"/>
<path d="M4007 3492 c-21 -23 -22 -66 -2 -86 35 -34 83 -28 105 15 32 59 -58
121 -103 71z"/>
<path d="M4157 3492 c-21 -23 -22 -66 -2 -86 35 -34 83 -28 105 15 32 59 -58
121 -103 71z"/>
<path d="M4457 3492 c-21 -23 -22 -66 -2 -86 35 -34 83 -28 105 15 32 59 -58
121 -103 71z"/>
<path d="M5207 3492 c-21 -23 -22 -66 -2 -86 35 -34 83 -28 105 15 32 59 -58
121 -103 71z"/>
<path d="M5357 3492 c-21 -23 -22 -66 -2 -86 35 -34 83 -28 105 15 32 59 -58
121 -103 71z"/>
<path d="M857 3342 c-33 -36 -16 -92 33 -107 39 -12 87 36 75 75 -16 50 -76
67 -108 32z"/>
<path d="M1307 3342 c-33 -36 -16 -92 33 -107 39 -12 87 36 75 75 -16 50 -76
67 -108 32z"/>
<path d="M1457 3342 c-33 -36 -16 -92 33 -107 39 -12 87 36 75 75 -16 50 -76
67 -108 32z"/>
<path d="M1757 3342 c-33 -36 -16 -92 33 -107 39 -12 87 36 75 75 -16 50 -76
67 -108 32z"/>
<path d="M2057 3342 c-33 -36 -16 -92 33 -107 39 -12 87 36 75 75 -16 50 -76
67 -108 32z"/>
<path d="M2507 3342 c-33 -36 -16 -92 33 -107 39 -12 87 36 75 75 -16 50 -76
67 -108 32z"/>
<path d="M2657 3342 c-21 -23 -22 -66 -2 -86 35 -34 83 -28 105 15 32 59 -58
121 -103 71z"/>
<path d="M2807 3342 c-21 -23 -22 -66 -2 -86 35 -34 83 -28 105 15 32 59 -58
121 -103 71z"/>
<path d="M3557 3342 c-21 -23 -22 -66 -2 -86 35 -34 83 -28 105 15 32 59 -58
121 -103 71z"/>
<path d="M4307 3342 c-21 -23 -22 -66 -2 -86 35 -34 83 -28 105 15 32 59 -58
121 -103 71z"/>
<path d="M4457 3342 c-21 -23 -22 -66 -2 -86 35 -34 83 -28 105 15 32 59 -58
121 -103 71z"/>
<path d="M4607 3342 c-21 -23 -22 -66 -2 -86 35 -34 83 -28 105 15 32 59 -58
121 -103 71z"/>
<path d="M5207 3342 c-21 -23 -22 -66 -2 -86 35 -34 83 -28 105 15 32 59 -58
121 -103 71z"/>
<path d="M557 3192 c-33 -36 -16 -92 33 -107 39 -12 87 36 75 75 -16 50 -76
67 -108 32z"/>
<path d="M857 3192 c-33 -36 -16 -92 33 -107 39 -12 87 36 75 75 -16 50 -76
67 -108 32z"/>
<path d="M1007 3192 c-33 -36 -16 -92 33 -107 39 -12 87 36 75 75 -16 50 -76
67 -108 32z"/>
<path d="M1307 3192 c-33 -36 -16 -92 33 -107 39 -12 87 36 75 75 -16 50 -76
67 -108 32z"/>
<path d="M1607 3192 c-33 -36 -16 -92 33 -107 39 -12 87 36 75 75 -16 50 -76
67 -108 32z"/>
<path d="M1907 3192 c-33 -36 -16 -92 33 -107 39 -12 87 36 75 75 -16 50 -76
67 -108 32z"/>
<path d="M2357 3192 c-33 -36 -16 -92 33 -107 39 -12 87 36 75 75 -16 50 -76
67 -108 32z"/>
<path d="M2507 3192 c-33 -36 -16 -92 33 -107 39 -12 87 36 75 75 -16 50 -76
67 -108 32z"/>
<path d="M2957 3192 c-21 -23 -22 -66 -2 -86 35 -34 83 -28 105 15 32 59 -58
121 -103 71z"/>
<path d="M3407 3192 c-21 -23 -22 -66 -2 -86 35 -34 83 -28 105 15 32 59 -58
121 -103 71z"/>
<path d="M3557 3192 c-21 -23 -22 -66 -2 -86 35 -34 83 -28 105 15 32 59 -58
121 -103 71z"/>
<path d="M3707 3192 c-21 -23 -22 -66 -2 -86 35 -34 83 -28 105 15 32 59 -58
121 -103 71z"/>
<path d="M3857 3192 c-21 -23 -22 -66 -2 -86 35 -34 83 -28 105 15 32 59 -58
121 -103 71z"/>
<path d="M4157 3192 c-21 -23 -22 -66 -2 -86 35 -34 83 -28 105 15 32 59 -58
121 -103 71z"/>
<path d="M4457 3192 c-21 -23 -22 -66 -2 -86 35 -34 83 -28 105 15 32 59 -58
121 -103 71z"/>
<path d="M5057 3192 c-21 -23 -22 -66 -2 -86 35 -34 83 -28 105 15 32 59 -58
121 -103 71z"/>
<path d="M857 3042 c-33 -36 -16 -92 33 -107 39 -12 87 36 75 75 -16 50 -76
67 -108 32z"/>
<path d="M1457 3042 c-33 -36 -16 -92 33 -107 39 -12 87 36 75 75 -16 50 -76
67 -108 32z"/>
<path d="M1607 3042 c-33 -36 -16 -92 33 -107 39 -12 87 36 75 75 -16 50 -76
67 -108 32z"/>
<path d="M1907 3042 c-33 -36 -16 -92 33 -107 39 -12 87 36 75 75 -16 50 -76
67 -108 32z"/>
<path d="M2357 3042 c-33 -36 -16 -92 33 -107 39 -12 87 36 75 75 -16 50 -76
67 -108 32z"/>
<path d="M2657 3042 c-21 -23 -22 -66 -2 -86 35 -34 83 -28 105 15 32 59 -58
121 -103 71z"/>
<path d="M3107 3042 c-21 -23 -22 -66 -2 -86 35 -34 83 -28 105 15 32 59 -58
121 -103 71z"/>
<path d="M3407 3042 c-21 -23 -22 -66 -2 -86 35 -34 83 -28 105 15 32 59 -58
121 -103 71z"/>
<path d="M4157 3042 c-21 -23 -22 -66 -2 -86 35 -34 83 -28 105 15 32 59 -58
121 -103 71z"/>
<path d="M4307 3042 c-21 -23 -22 -66 -2 -86 35 -34 83 -28 105 15 32 59 -58
121 -103 71z"/>
<path d="M4757 3042 c-21 -23 -22 -66 -2 -86 35 -34 83 -28 105 15 32 59 -58
121 -103 71z"/>
<path d="M5207 3042 c-21 -23 -22 -66 -2 -86 35 -34 83 -28 105 15 32 59 -58
121 -103 71z"/>
<path d="M707 2892 c-33 -36 -16 -92 33 -107 39 -12 87 36 75 75 -16 50 -76
67 -108 32z"/>
<path d="M1307 2892 c-33 -36 -16 -92 33 -107 39 -12 87 36 75 75 -16 50 -76
67 -108 32z"/>
<path d="M1607 2892 c-33 -36 -16 -92 33 -107 39 -12 87 36 75 75 -16 50 -76
67 -108 32z"/>
<path d="M1757 2892 c-33 -36 -16 -92 33 -107 39 -12 87 36 75 75 -16 50 -76
67 -108 32z"/>
<path d="M1907 2892 c-33 -36 -16 -92 33 -107 39 -12 87 36 75 75 -16 50 -76
67 -108 32z"/>
<path d="M3257 2892 c-21 -23 -22 -66 -2 -86 35 -34 83 -28 105 15 32 59 -58
121 -103 71z"/>
<path d="M3407 2892 c-21 -23 -22 -66 -2 -86 35 -34 83 -28 105 15 32 59 -58
121 -103 71z"/>
<path d="M4007 2892 c-21 -23 -22 -66 -2 -86 35 -34 83 -28 105 15 32 59 -58
121 -103 71z"/>
<path d="M4457 2892 c-21 -23 -22 -66 -2 -86 35 -34 83 -28 105 15 32 59 -58
121 -103 71z"/>
<path d="M4907 2892 c-21 -23 -22 -66 -2 -86 35 -34 83 -28 105 15 32 59 -58
121 -103 71z"/>
<path d="M5207 2892 c-21 -23 -22 -66 -2 -86 35 -34 83 -28 105 15 32 59 -58
121 -103 71z"/>
<path d="M5357 2892 c-21 -23 -22 -66 -2 -86 35 -34 83 -28 105 15 32 59 -58
121 -103 71z"/>
<path d="M557 2742 c-33 -36 -16 -92 33 -107 39 -12 87 36 75 75 -16 50 -76
67 -108 32z"/>
<path d="M707 2742 c-33 -36 -16 -92 33 -107 39 -12 87 36 75 75 -16 50 -76
67 -108 32z"/>
<path d="M857 2742 c-33 -36 -16 -92 33 -107 39 -12 87 36 75 75 -16 50 -76
67 -108 32z"/>
<path d="M1157 2742 c-33 -36 -16 -92 33 -107 39 -12 87 36 75 75 -16 50 -76
67 -108 32z"/>
<path d="M1307 2742 c-33 -36 -16 -92 33 -107 39 -12 87 36 75 75 -16 50 -76
67 -108 32z"/>
<path d="M1457 2742 c-33 -36 -16 -92 33 -107 39 -12 87 36 75 75 -16 50 -76
67 -108 32z"/>
<path d="M2057 2742 c-33 -36 -16 -92 33 -107 39 -12 87 36 75 75 -16 50 -76
67 -108 32z"/>
<path d="M2207 2742 c-33 -36 -16 -92 33 -107 39 -12 87 36 75 75 -16 50 -76
67 -108 32z"/>
<path d="M2357 2742 c-33 -36 -16 -92 33 -107 39 -12 87 36 75 75 -16 50 -76
67 -108 32z"/>
<path d="M2807 2742 c-21 -23 -22 -66 -2 -86 35 -34 83 -28 105 15 32 59 -58
121 -103 71z"/>
<path d="M3557 2742 c-21 -23 -22 -66 -2 -86 35 -34 83 -28 105 15 32 59 -58
121 -103 71z"/>
<path d="M3857 2742 c-21 -23 -22 -66 -2 -86 35 -34 83 -28 105 15 32 59 -58
121 -103 71z"/>
<path d="M4157 2742 c-21 -23 -22 -66 -2 -86 35 -34 83 -28 105 15 32 59 -58
121 -103 71z"/>
<path d="M4307 2742 c-21 -23 -22 -66 -2 -86 35 -34 83 -28 105 15 32 59 -58
121 -103 71z"/>
<path d="M4907 2742 c-21 -23 -22 -66 -2 -86 35 -34 83 -28 105 15 32 59 -58
121 -103 71z"/>
<path d="M5207 2742 c-21 -23 -22 -66 -2 -86 35 -34 83 -28 105 15 32 59 -58
121 -103 71z"/>
<path d="M707 2592 c-33 -36 -16 -92 33 -107 39 -12 87 36 75 75 -16 50 -76
67 -108 32z"/>
<path d="M1307 2592 c-33 -36 -16 -92 33 -107 39 -12 87 36 75 75 -16 50 -76
67 -108 32z"/>
<path d="M1757 2592 c-33 -36 -16 -92 33 -107 39 -12 87 36 75 75 -16 50 -76
67 -108 32z"/>
<path d="M1907 2592 c-33 -36 -16 -92 33 -107 39 -12 87 36 75 75 -16 50 -76
67 -108 32z"/>
<path d="M2207 2592 c-33 -36 -16 -92 33 -107 39 -12 87 36 75 75 -16 50 -76
67 -108 32z"/>
<path d="M2657 2592 c-33 -36 -16 -92 33 -107 39 -12 87 36 75 75 -16 50 -76
67 -108 32z"/>
<path d="M2807 2592 c-33 -36 -16 -92 33 -107 39 -12 87 36 75 75 -16 50 -76
67 -108 32z"/>
<path d="M2957 2592 c-33 -36 -16 -92 33 -107 39 -12 87 36 75 75 -16 50 -76
67 -108 32z"/>
<path d="M3257 2592 c-33 -36 -16 -92 33 -107 39 -12 87 36 75 75 -16 50 -76
67 -108 32z"/>
<path d="M3557 2592 c-33 -36 -16 -92 33 -107 39 -12 87 36 75 75 -16 50 -76
67 -108 32z"/>
<path d="M3707 2592 c-33 -36 -16 -92 33 -107 39 -12 87 36 75 75 -16 50 -76
67 -108 32z"/>
<path d="M3857 2592 c-33 -36 -16 -92 33 -107 39 -12 87 36 75 75 -16 50 -76
67 -108 32z"/>
<path d="M4307 2592 c-33 -36 -16 -92 33 -107 39 -12 87 36 75 75 -16 50 -76
67 -108 32z"/>
<path d="M4607 2592 c-33 -36 -16 -92 33 -107 39 -12 87 36 75 75 -16 50 -76
67 -108 32z"/>
<path d="M4757 2592 c-33 -36 -16 -92 33 -107 39 -12 87 36 75 75 -16 50 -76
67 -108 32z"/>
<path d="M5057 2592 c-33 -36 -16 -92 33 -107 39 -12 87 36 75 75 -16 50 -76
67 -108 32z"/>
<path d="M857 2442 c-33 -36 -16 -92 33 -107 39 -12 87 36 75 75 -16 50 -76
67 -108 32z"/>
<path d="M1157 2442 c-33 -36 -16 -92 33 -107 39 -12 87 36 75 75 -16 50 -76
67 -108 32z"/>
<path d="M1307 2442 c-33 -36 -16 -92 33 -107 39 -12 87 36 75 75 -16 50 -76
67 -108 32z"/>
<path d="M1457 2442 c-33 -36 -16 -92 33 -107 39 -12 87 36 75 75 -16 50 -76
67 -108 32z"/>
<path d="M1607 2442 c-33 -36 -16 -92 33 -107 39 -12 87 36 75 75 -16 50 -76
67 -108 32z"/>
<path d="M1907 2442 c-33 -36 -16 -92 33 -107 39 -12 87 36 75 75 -16 50 -76
67 -108 32z"/>
<path d="M2207 2442 c-33 -36 -16 -92 33 -107 39 -12 87 36 75 75 -16 50 -76
67 -108 32z"/>
<path d="M2807 2442 c-33 -36 -16 -92 33 -107 39 -12 87 36 75 75 -16 50 -76
67 -108 32z"/>
<path d="M2957 2442 c-33 -36 -16 -92 33 -107 39 -12 87 36 75 75 -16 50 -76
67 -108 32z"/>
<path d="M3107 2442 c-33 -36 -16 -92 33 -107 39 -12 87 36 75 75 -16 50 -76
67 -108 32z"/>
<path d="M3257 2442 c-33 -36 -16 -92 33 -107 39 -12 87 36 75 75 -16 50 -76
67 -108 32z"/>
<path d="M3857 2442 c-33 -36 -16 -92 33 -107 39 -12 87 36 75 75 -16 50 -76
67 -108 32z"/>
<path d="M4307 2442 c-33 -36 -16 -92 33 -107 39 -12 87 36 75 75 -16 50 -76
67 -108 32z"/>
<path d="M4607 2442 c-33 -36 -16 -92 33 -107 39 -12 87 36 75 75 -16 50 -76
67 -108 32z"/>
<path d="M4757 2442 c-33 -36 -16 -92 33 -107 39 -12 87 36 75 75 -16 50 -76
67 -108 32z"/>
<path d="M5207 2442 c-33 -36 -16 -92 33 -107 39 -12 87 36 75 75 -16 50 -76
67 -108 32z"/>
<path d="M557 2292 c-33 -36 -16 -92 33 -107 39 -12 87 36 75 75 -16 50 -76
67 -108 32z"/>
<path d="M707 2292 c-33 -36 -16 -92 33 -107 39 -12 87 36 75 75 -16 50 -76
67 -108 32z"/>
<path d="M857 2292 c-33 -36 -16 -92 33 -107 39 -12 87 36 75 75 -16 50 -76
67 -108 32z"/>
<path d="M1007 2292 c-33 -36 -16 -92 33 -107 39 -12 87 36 75 75 -16 50 -76
67 -108 32z"/>
<path d="M1157 2292 c-33 -36 -16 -92 33 -107 39 -12 87 36 75 75 -16 50 -76
67 -108 32z"/>
<path d="M1307 2292 c-33 -36 -16 -92 33 -107 39 -12 87 36 75 75 -16 50 -76
67 -108 32z"/>
<path d="M1757 2292 c-33 -36 -16 -92 33 -107 39 -12 87 36 75 75 -16 50 -76
67 -108 32z"/>
<path d="M1907 2292 c-33 -36 -16 -92 33 -107 39 -12 87 36 75 75 -16 50 -76
67 -108 32z"/>
<path d="M2057 2292 c-33 -36 -16 -92 33 -107 39 -12 87 36 75 75 -16 50 -76
67 -108 32z"/>
<path d="M2357 2292 c-33 -36 -16 -92 33 -107 39 -12 87 36 75 75 -16 50 -76
67 -108 32z"/>
<path d="M2507 2292 c-33 -36 -16 -92 33 -107 39 -12 87 36 75 75 -16 50 -76
67 -108 32z"/>
<path d="M2657 2292 c-33 -36 -16 -92 33 -107 39 -12 87 36 75 75 -16 50 -76
67 -108 32z"/>
<path d="M2957 2292 c-33 -36 -16 -92 33 -107 39 -12 87 36 75 75 -16 50 -76
67 -108 32z"/>
<path d="M3107 2292 c-33 -36 -16 -92 33 -107 39 -12 87 36 75 75 -16 50 -76
67 -108 32z"/>
<path d="M3257 2292 c-33 -36 -16 -92 33 -107 39 -12 87 36 75 75 -16 50 -76
67 -108 32z"/>
<path d="M3407 2292 c-33 -36 -16 -92 33 -107 39 -12 87 36 75 75 -16 50 -76
67 -108 32z"/>
<path d="M3557 2292 c-33 -36 -16 -92 33 -107 39 -12 87 36 75 75 -16 50 -76
67 -108 32z"/>
<path d="M3707 2292 c-33 -36 -16 -92 33 -107 39 -12 87 36 75 75 -16 50 -76
67 -108 32z"/>
<path d="M3857 2292 c-33 -36 -16 -92 33 -107 39 -12 87 36 75 75 -16 50 -76
67 -108 32z"/>
<path d="M4007 2292 c-33 -36 -16 -92 33 -107 39 -12 87 36 75 75 -16 50 -76
67 -108 32z"/>
<path d="M4307 2292 c-33 -36 -16 -92 33 -107 39 -12 87 36 75 75 -16 50 -76
67 -108 32z"/>
<path d="M4457 2292 c-33 -36 -16 -92 33 -107 39 -12 87 36 75 75 -16 50 -76
67 -108 32z"/>
<path d="M4907 2292 c-33 -36 -16 -92 33 -107 39 -12 87 36 75 75 -16 50 -76
67 -108 32z"/>
<path d="M5207 2292 c-33 -36 -16 -92 33 -107 39 -12 87 36 75 75 -16 50 -76
67 -108 32z"/>
<path d="M5357 2292 c-33 -36 -16 -92 33 -107 39 -12 87 36 75 75 -16 50 -76
67 -108 32z"/>
<path d="M557 2142 c-33 -36 -16 -92 33 -107 39 -12 87 36 75 75 -16 50 -76
67 -108 32z"/>
<path d="M857 2142 c-33 -36 -16 -92 33 -107 39 -12 87 36 75 75 -16 50 -76
67 -108 32z"/>
<path d="M1007 2142 c-33 -36 -16 -92 33 -107 39 -12 87 36 75 75 -16 50 -76
67 -108 32z"/>
<path d="M1307 2142 c-33 -36 -16 -92 33 -107 39 -12 87 36 75 75 -16 50 -76
67 -108 32z"/>
<path d="M1457 2142 c-33 -36 -16 -92 33 -107 39 -12 87 36 75 75 -16 50 -76
67 -108 32z"/>
<path d="M1607 2142 c-33 -36 -16 -92 33 -107 39 -12 87 36 75 75 -16 50 -76
67 -108 32z"/>
<path d="M1907 2142 c-33 -36 -16 -92 33 -107 39 -12 87 36 75 75 -16 50 -76
67 -108 32z"/>
<path d="M2507 2142 c-33 -36 -16 -92 33 -107 39 -12 87 36 75 75 -16 50 -76
67 -108 32z"/>
<path d="M2657 2142 c-33 -36 -16 -92 33 -107 39 -12 87 36 75 75 -16 50 -76
67 -108 32z"/>
<path d="M2807 2142 c-33 -36 -16 -92 33 -107 39 -12 87 36 75 75 -16 50 -76
67 -108 32z"/>
<path d="M2957 2142 c-33 -36 -16 -92 33 -107 39 -12 87 36 75 75 -16 50 -76
67 -108 32z"/>
<path d="M3107 2142 c-33 -36 -16 -92 33 -107 39 -12 87 36 75 75 -16 50 -76
67 -108 32z"/>
<path d="M3707 2142 c-33 -36 -16 -92 33 -107 39 -12 87 36 75 75 -16 50 -76
67 -108 32z"/>
<path d="M3857 2142 c-33 -36 -16 -92 33 -107 39 -12 87 36 75 75 -16 50 -76
67 -108 32z"/>
<path d="M4307 2142 c-33 -36 -16 -92 33 -107 39 -12 87 36 75 75 -16 50 -76
67 -108 32z"/>
<path d="M4607 2142 c-33 -36 -16 -92 33 -107 39 -12 87 36 75 75 -16 50 -76
67 -108 32z"/>
<path d="M4907 2142 c-33 -36 -16 -92 33 -107 39 -12 87 36 75 75 -16 50 -76
67 -108 32z"/>
<path d="M5207 2142 c-33 -36 -16 -92 33 -107 39 -12 87 36 75 75 -16 50 -76
67 -108 32z"/>
<path d="M557 1992 c-33 -36 -16 -92 33 -107 39 -12 87 36 75 75 -16 50 -76
67 -108 32z"/>
<path d="M1307 1992 c-33 -36 -16 -92 33 -107 39 -12 87 36 75 75 -16 50 -76
67 -108 32z"/>
<path d="M1607 1992 c-33 -36 -16 -92 33 -107 39 -12 87 36 75 75 -16 50 -76
67 -108 32z"/>
<path d="M1907 1992 c-33 -36 -16 -92 33 -107 39 -12 87 36 75 75 -16 50 -76
67 -108 32z"/>
<path d="M2357 1992 c-33 -36 -16 -92 33 -107 39 -12 87 36 75 75 -16 50 -76
67 -108 32z"/>
<path d="M2507 1992 c-33 -36 -16 -92 33 -107 39 -12 87 36 75 75 -16 50 -76
67 -108 32z"/>
<path d="M3557 1992 c-33 -36 -16 -92 33 -107 39 -12 87 36 75 75 -16 50 -76
67 -108 32z"/>
<path d="M3707 1992 c-33 -36 -16 -92 33 -107 39 -12 87 36 75 75 -16 50 -76
67 -108 32z"/>
<path d="M4157 1992 c-33 -36 -16 -92 33 -107 39 -12 87 36 75 75 -16 50 -76
67 -108 32z"/>
<path d="M4757 1992 c-33 -36 -16 -92 33 -107 39 -12 87 36 75 75 -16 50 -76
67 -108 32z"/>
<path d="M4907 1992 c-33 -36 -16 -92 33 -107 39 -12 87 36 75 75 -16 50 -76
67 -108 32z"/>
<path d="M5057 1992 c-33 -36 -16 -92 33 -107 39 -12 87 36 75 75 -16 50 -76
67 -108 32z"/>
<path d="M557 1842 c-33 -36 -16 -92 33 -107 39 -12 87 36 75 75 -16 50 -76
67 -108 32z"/>
<path d="M1007 1842 c-33 -36 -16 -92 33 -107 39 -12 87 36 75 75 -16 50 -76
67 -108 32z"/>
<path d="M1457 1842 c-33 -36 -16 -92 33 -107 39 -12 87 36 75 75 -16 50 -76
67 -108 32z"/>
<path d="M1757 1842 c-33 -36 -16 -92 33 -107 39 -12 87 36 75 75 -16 50 -76
67 -108 32z"/>
<path d="M1907 1842 c-33 -36 -16 -92 33 -107 39 -12 87 36 75 75 -16 50 -76
67 -108 32z"/>
<path d="M2057 1842 c-33 -36 -16 -92 33 -107 39 -12 87 36 75 75 -16 50 -76
67 -108 32z"/>
<path d="M2357 1842 c-33 -36 -16 -92 33 -107 39 -12 87 36 75 75 -16 50 -76
67 -108 32z"/>
<path d="M2657 1842 c-33 -36 -16 -92 33 -107 39 -12 87 36 75 75 -16 50 -76
67 -108 32z"/>
<path d="M2807 1842 c-33 -36 -16 -92 33 -107 39 -12 87 36 75 75 -16 50 -76
67 -108 32z"/>
<path d="M2957 1842 c-33 -36 -16 -92 33 -107 39 -12 87 36 75 75 -16 50 -76
67 -108 32z"/>
<path d="M3107 1842 c-33 -36 -16 -92 33 -107 39 -12 87 36 75 75 -16 50 -76
67 -108 32z"/>
<path d="M3557 1842 c-33 -36 -16 -92 33 -107 39 -12 87 36 75 75 -16 50 -76
67 -108 32z"/>
<path d="M3857 1842 c-33 -36 -16 -92 33 -107 39 -12 87 36 75 75 -16 50 -76
67 -108 32z"/>
<path d="M4157 1842 c-33 -36 -16 -92 33 -107 39 -12 87 36 75 75 -16 50 -76
67 -108 32z"/>
<path d="M4307 1842 c-33 -36 -16 -92 33 -107 39 -12 87 36 75 75 -16 50 -76
67 -108 32z"/>
<path d="M4457 1842 c-33 -36 -16 -92 33 -107 39 -12 87 36 75 75 -16 50 -76
67 -108 32z"/>
<path d="M4607 1842 c-33 -36 -16 -92 33 -107 39 -12 87 36 75 75 -16 50 -76
67 -108 32z"/>
<path d="M4757 1842 c-33 -36 -16 -92 33 -107 39 -12 87 36 75 75 -16 50 -76
67 -108 32z"/>
<path d="M4907 1842 c-33 -36 -16 -92 33 -107 39 -12 87 36 75 75 -16 50 -76
67 -108 32z"/>
<path d="M5357 1842 c-33 -36 -16 -92 33 -107 39 -12 87 36 75 75 -16 50 -76
67 -108 32z"/>
<path d="M1757 1692 c-33 -36 -16 -92 33 -107 39 -12 87 36 75 75 -16 50 -76
67 -108 32z"/>
<path d="M1907 1692 c-33 -36 -16 -92 33 -107 39 -12 87 36 75 75 -16 50 -76
67 -108 32z"/>
<path d="M2957 1692 c-33 -36 -16 -92 33 -107 39 -12 87 36 75 75 -16 50 -76
67 -108 32z"/>
<path d="M3107 1692 c-33 -36 -16 -92 33 -107 39 -12 87 36 75 75 -16 50 -76
67 -108 32z"/>
<path d="M3257 1692 c-33 -36 -16 -92 33 -107 39 -12 87 36 75 75 -16 50 -76
67 -108 32z"/>
<path d="M3407 1692 c-33 -36 -16 -92 33 -107 39 -12 87 36 75 75 -16 50 -76
67 -108 32z"/>
<path d="M3557 1692 c-33 -36 -16 -92 33 -107 39 -12 87 36 75 75 -16 50 -76
67 -108 32z"/>
<path d="M3707 1692 c-33 -36 -16 -92 33 -107 39 -12 87 36 75 75 -16 50 -76
67 -108 32z"/>
<path d="M3857 1692 c-33 -36 -16 -92 33 -107 39 -12 87 36 75 75 -16 50 -76
67 -108 32z"/>
<path d="M4157 1692 c-33 -36 -16 -92 33 -107 39 -12 87 36 75 75 -16 50 -76
67 -108 32z"/>
<path d="M4757 1692 c-33 -36 -16 -92 33 -107 39 -12 87 36 75 75 -16 50 -76
67 -108 32z"/>
<path d="M4907 1692 c-33 -36 -16 -92 33 -107 39 -12 87 36 75 75 -16 50 -76
67 -108 32z"/>
<path d="M5057 1692 c-33 -36 -16 -92 33 -107 39 -12 87 36 75 75 -16 50 -76
67 -108 32z"/>
<path d="M5357 1692 c-33 -36 -16 -92 33 -107 39 -12 87 36 75 75 -16 50 -76
67 -108 32z"/>
<path d="M602 1550 c-18 -11 -41 -34 -52 -52 -19 -32 -20 -52 -20 -450 0 -396
1 -419 20 -450 10 -18 34 -42 52 -53 32 -19 51 -20 448 -20 399 0 416 1 450
20 19 12 43 36 55 55 19 34 20 51 20 450 0 397 -1 416 -20 448 -11 18 -35 42
-53 52 -31 19 -54 20 -450 20 -398 0 -418 -1 -450 -20z m757 -154 c65 -42 71
-70 71 -349 0 -232 -1 -245 -22 -287 -17 -33 -35 -51 -68 -67 -42 -22 -55 -23
-287 -23 -279 0 -307 6 -349 71 -24 38 -24 40 -24 306 0 250 1 270 20 301 11
18 34 41 52 52 31 19 51 20 301 20 266 0 268 0 306 -24z"/>
<path d="M902 1250 c-60 -37 -72 -70 -72 -202 0 -132 12 -167 72 -203 28 -17
51 -20 148 -20 98 0 120 3 150 20 61 37 75 74 75 205 0 97 -3 120 -20 148 -36
60 -71 72 -203 72 -99 0 -122 -3 -150 -20z"/>
<path d="M4450 1550 c-15 -15 -20 -31 -18 -57 8 -89 122 -94 144 -6 16 62 -79
110 -126 63z"/>
<path d="M1757 1542 c-33 -36 -16 -92 33 -107 39 -12 87 36 75 75 -16 50 -76
67 -108 32z"/>
<path d="M1907 1542 c-33 -36 -16 -92 33 -107 39 -12 87 36 75 75 -16 50 -76
67 -108 32z"/>
<path d="M2207 1542 c-33 -36 -16 -92 33 -107 39 -12 87 36 75 75 -16 50 -76
67 -108 32z"/>
<path d="M2357 1542 c-33 -36 -16 -92 33 -107 39 -12 87 36 75 75 -16 50 -76
67 -108 32z"/>
<path d="M2807 1542 c-33 -36 -16 -92 33 -107 39 -12 87 36 75 75 -16 50 -76
67 -108 32z"/>
<path d="M2957 1542 c-33 -36 -16 -92 33 -107 39 -12 87 36 75 75 -16 50 -76
67 -108 32z"/>
<path d="M3557 1542 c-33 -36 -16 -92 33 -107 39 -12 87 36 75 75 -16 50 -76
67 -108 32z"/>
<path d="M3857 1542 c-33 -36 -16 -92 33 -107 39 -12 87 36 75 75 -16 50 -76
67 -108 32z"/>
<path d="M4007 1542 c-33 -36 -16 -92 33 -107 39 -12 87 36 75 75 -16 50 -76
67 -108 32z"/>
<path d="M4157 1542 c-33 -36 -16 -92 33 -107 39 -12 87 36 75 75 -16 50 -76
67 -108 32z"/>
<path d="M4757 1542 c-33 -36 -16 -92 33 -107 39 -12 87 36 75 75 -16 50 -76
67 -108 32z"/>
<path d="M5057 1542 c-33 -36 -16 -92 33 -107 39 -12 87 36 75 75 -16 50 -76
67 -108 32z"/>
<path d="M5207 1542 c-33 -36 -16 -92 33 -107 39 -12 87 36 75 75 -16 50 -76
67 -108 32z"/>
<path d="M1907 1392 c-33 -36 -16 -92 33 -107 39 -12 87 36 75 75 -16 50 -76
67 -108 32z"/>
<path d="M2207 1392 c-33 -36 -16 -92 33 -107 39 -12 87 36 75 75 -16 50 -76
67 -108 32z"/>
<path d="M2657 1392 c-33 -36 -16 -92 33 -107 39 -12 87 36 75 75 -16 50 -76
67 -108 32z"/>
<path d="M2807 1392 c-33 -36 -16 -92 33 -107 39 -12 87 36 75 75 -16 50 -76
67 -108 32z"/>
<path d="M2957 1392 c-33 -36 -16 -92 33 -107 39 -12 87 36 75 75 -16 50 -76
67 -108 32z"/>
<path d="M3257 1392 c-33 -36 -16 -92 33 -107 39 -12 87 36 75 75 -16 50 -76
67 -108 32z"/>
<path d="M3707 1392 c-33 -36 -16 -92 33 -107 39 -12 87 36 75 75 -16 50 -76
67 -108 32z"/>
<path d="M3857 1392 c-33 -36 -16 -92 33 -107 39 -12 87 36 75 75 -16 50 -76
67 -108 32z"/>
<path d="M4007 1392 c-33 -36 -16 -92 33 -107 39 -12 87 36 75 75 -16 50 -76
67 -108 32z"/>
<path d="M4157 1392 c-33 -36 -16 -92 33 -107 39 -12 87 36 75 75 -16 50 -76
67 -108 32z"/>
<path d="M4757 1392 c-33 -36 -16 -92 33 -107 39 -12 87 36 75 75 -16 50 -76
67 -108 32z"/>
<path d="M4907 1392 c-33 -36 -16 -92 33 -107 39 -12 87 36 75 75 -16 50 -76
67 -108 32z"/>
<path d="M5057 1392 c-33 -36 -16 -92 33 -107 39 -12 87 36 75 75 -16 50 -76
67 -108 32z"/>
<path d="M1757 1242 c-33 -36 -16 -92 33 -107 39 -12 87 36 75 75 -16 50 -76
67 -108 32z"/>
<path d="M1907 1242 c-33 -36 -16 -92 33 -107 39 -12 87 36 75 75 -16 50 -76
67 -108 32z"/>
<path d="M2057 1242 c-33 -36 -16 -92 33 -107 39 -12 87 36 75 75 -16 50 -76
67 -108 32z"/>
<path d="M2207 1242 c-33 -36 -16 -92 33 -107 39 -12 87 36 75 75 -16 50 -76
67 -108 32z"/>
<path d="M2807 1242 c-33 -36 -16 -92 33 -107 39 -12 87 36 75 75 -16 50 -76
67 -108 32z"/>
<path d="M3107 1242 c-33 -36 -16 -92 33 -107 39 -12 87 36 75 75 -16 50 -76
67 -108 32z"/>
<path d="M3407 1242 c-33 -36 -16 -92 33 -107 39 -12 87 36 75 75 -16 50 -76
67 -108 32z"/>
<path d="M3857 1242 c-33 -36 -16 -92 33 -107 39 -12 87 36 75 75 -16 50 -76
67 -108 32z"/>
<path d="M4157 1242 c-33 -36 -16 -92 33 -107 39 -12 87 36 75 75 -16 50 -76
67 -108 32z"/>
<path d="M4307 1242 c-33 -36 -16 -92 33 -107 39 -12 87 36 75 75 -16 50 -76
67 -108 32z"/>
<path d="M4457 1242 c-33 -36 -16 -92 33 -107 39 -12 87 36 75 75 -16 50 -76
67 -108 32z"/>
<path d="M4607 1242 c-33 -36 -16 -92 33 -107 39 -12 87 36 75 75 -16 50 -76
67 -108 32z"/>
<path d="M4757 1242 c-33 -36 -16 -92 33 -107 39 -12 87 36 75 75 -16 50 -76
67 -108 32z"/>
<path d="M4907 1242 c-33 -36 -16 -92 33 -107 39 -12 87 36 75 75 -16 50 -76
67 -108 32z"/>
<path d="M5207 1242 c-33 -36 -16 -92 33 -107 39 -12 87 36 75 75 -16 50 -76
67 -108 32z"/>
<path d="M5357 1242 c-33 -36 -16 -92 33 -107 39 -12 87 36 75 75 -16 50 -76
67 -108 32z"/>
<path d="M1757 1092 c-33 -36 -16 -92 33 -107 39 -12 87 36 75 75 -16 50 -76
67 -108 32z"/>
<path d="M1907 1092 c-33 -36 -16 -92 33 -107 39 -12 87 36 75 75 -16 50 -76
67 -108 32z"/>
<path d="M2357 1092 c-33 -36 -16 -92 33 -107 39 -12 87 36 75 75 -16 50 -76
67 -108 32z"/>
<path d="M2507 1092 c-33 -36 -16 -92 33 -107 39 -12 87 36 75 75 -16 50 -76
67 -108 32z"/>
<path d="M2657 1092 c-33 -36 -16 -92 33 -107 39 -12 87 36 75 75 -16 50 -76
67 -108 32z"/>
<path d="M2957 1092 c-33 -36 -16 -92 33 -107 39 -12 87 36 75 75 -16 50 -76
67 -108 32z"/>
<path d="M3257 1092 c-33 -36 -16 -92 33 -107 39 -12 87 36 75 75 -16 50 -76
67 -108 32z"/>
<path d="M3407 1092 c-33 -36 -16 -92 33 -107 39 -12 87 36 75 75 -16 50 -76
67 -108 32z"/>
<path d="M3557 1092 c-33 -36 -16 -92 33 -107 39 -12 87 36 75 75 -16 50 -76
67 -108 32z"/>
<path d="M3707 1092 c-33 -36 -16 -92 33 -107 39 -12 87 36 75 75 -16 50 -76
67 -108 32z"/>
<path d="M4157 1092 c-33 -36 -16 -92 33 -107 39 -12 87 36 75 75 -16 50 -76
67 -108 32z"/>
<path d="M4607 1092 c-33 -36 -16 -92 33 -107 39 -12 87 36 75 75 -16 50 -76
67 -108 32z"/>
<path d="M4757 1092 c-33 -36 -16 -92 33 -107 39 -12 87 36 75 75 -16 50 -76
67 -108 32z"/>
<path d="M4907 1092 c-33 -36 -16 -92 33 -107 39 -12 87 36 75 75 -16 50 -76
67 -108 32z"/>
<path d="M5057 1092 c-33 -36 -16 -92 33 -107 39 -12 87 36 75 75 -16 50 -76
67 -108 32z"/>
<path d="M5207 1092 c-33 -36 -16 -92 33 -107 39 -12 87 36 75 75 -16 50 -76
67 -108 32z"/>
<path d="M5357 1092 c-33 -36 -16 -92 33 -107 39 -12 87 36 75 75 -16 50 -76
67 -108 32z"/>
<path d="M1757 942 c-33 -36 -16 -92 33 -107 39 -12 87 36 75 75 -16 50 -76
67 -108 32z"/>
<path d="M1907 942 c-33 -36 -16 -92 33 -107 39 -12 87 36 75 75 -16 50 -76
67 -108 32z"/>
<path d="M2507 942 c-33 -36 -16 -92 33 -107 39 -12 87 36 75 75 -16 50 -76
67 -108 32z"/>
<path d="M2657 942 c-33 -36 -16 -92 33 -107 39 -12 87 36 75 75 -16 50 -76
67 -108 32z"/>
<path d="M2807 942 c-33 -36 -16 -92 33 -107 39 -12 87 36 75 75 -16 50 -76
67 -108 32z"/>
<path d="M3257 942 c-33 -36 -16 -92 33 -107 39 -12 87 36 75 75 -16 50 -76
67 -108 32z"/>
<path d="M3707 942 c-33 -36 -16 -92 33 -107 39 -12 87 36 75 75 -16 50 -76
67 -108 32z"/>
<path d="M3857 942 c-33 -36 -16 -92 33 -107 39 -12 87 36 75 75 -16 50 -76
67 -108 32z"/>
<path d="M4007 942 c-33 -36 -16 -92 33 -107 39 -12 87 36 75 75 -16 50 -76
67 -108 32z"/>
<path d="M4157 942 c-33 -36 -16 -92 33 -107 39 -12 87 36 75 75 -16 50 -76
67 -108 32z"/>
<path d="M4457 942 c-33 -36 -16 -92 33 -107 39 -12 87 36 75 75 -16 50 -76
67 -108 32z"/>
<path d="M4907 942 c-33 -36 -16 -92 33 -107 39 -12 87 36 75 75 -16 50 -76
67 -108 32z"/>
<path d="M1757 792 c-33 -36 -16 -92 33 -107 39 -12 87 36 75 75 -16 50 -76
67 -108 32z"/>
<path d="M2357 792 c-33 -36 -16 -92 33 -107 39 -12 87 36 75 75 -16 50 -76
67 -108 32z"/>
<path d="M2507 792 c-33 -36 -16 -92 33 -107 39 -12 87 36 75 75 -16 50 -76
67 -108 32z"/>
<path d="M2807 792 c-33 -36 -16 -92 33 -107 39 -12 87 36 75 75 -16 50 -76
67 -108 32z"/>
<path d="M2957 792 c-33 -36 -16 -92 33 -107 39 -12 87 36 75 75 -16 50 -76
67 -108 32z"/>
<path d="M3557 792 c-33 -36 -16 -92 33 -107 39 -12 87 36 75 75 -16 50 -76
67 -108 32z"/>
<path d="M3707 792 c-33 -36 -16 -92 33 -107 39 -12 87 36 75 75 -16 50 -76
67 -108 32z"/>
<path d="M3857 792 c-33 -36 -16 -92 33 -107 39 -12 87 36 75 75 -16 50 -76
67 -108 32z"/>
<path d="M4307 792 c-33 -36 -16 -92 33 -107 39 -12 87 36 75 75 -16 50 -76
67 -108 32z"/>
<path d="M4457 792 c-33 -36 -16 -92 33 -107 39 -12 87 36 75 75 -16 50 -76
67 -108 32z"/>
<path d="M4907 792 c-33 -36 -16 -92 33 -107 39 -12 87 36 75 75 -16 50 -76
67 -108 32z"/>
<path d="M5057 792 c-33 -36 -16 -92 33 -107 39 -12 87 36 75 75 -16 50 -76
67 -108 32z"/>
<path d="M1757 642 c-33 -36 -16 -92 33 -107 39 -12 87 36 75 75 -16 50 -76
67 -108 32z"/>
<path d="M2057 642 c-33 -36 -16 -92 33 -107 39 -12 87 36 75 75 -16 50 -76
67 -108 32z"/>
<path d="M2357 642 c-33 -36 -16 -92 33 -107 39 -12 87 36 75 75 -16 50 -76
67 -108 32z"/>
<path d="M2657 642 c-33 -36 -16 -92 33 -107 39 -12 87 36 75 75 -16 50 -76
67 -108 32z"/>
<path d="M2807 642 c-33 -36 -16 -92 33 -107 39 -12 87 36 75 75 -16 50 -76
67 -108 32z"/>
<path d="M2957 642 c-33 -36 -16 -92 33 -107 39 -12 87 36 75 75 -16 50 -76
67 -108 32z"/>
<path d="M3107 642 c-33 -36 -16 -92 33 -107 39 -12 87 36 75 75 -16 50 -76
67 -108 32z"/>
<path d="M3407 642 c-33 -36 -16 -92 33 -107 39 -12 87 36 75 75 -16 50 -76
67 -108 32z"/>
<path d="M3857 642 c-33 -36 -16 -92 33 -107 39 -12 87 36 75 75 -16 50 -76
67 -108 32z"/>
<path d="M4007 642 c-33 -36 -16 -92 33 -107 39 -12 87 36 75 75 -16 50 -76
67 -108 32z"/>
<path d="M4157 642 c-33 -36 -16 -92 33 -107 39 -12 87 36 75 75 -16 50 -76
67 -108 32z"/>
<path d="M4307 642 c-33 -36 -16 -92 33 -107 39 -12 87 36 75 75 -16 50 -76
67 -108 32z"/>
<path d="M4457 642 c-33 -36 -16 -92 33 -107 39 -12 87 36 75 75 -16 50 -76
67 -108 32z"/>
<path d="M5207 642 c-33 -36 -16 -92 33 -107 39 -12 87 36 75 75 -16 50 -76
67 -108 32z"/>
</g>
</svg>
